# vtk DataFile Version 2.0
CGAL constrained delaunay mesh generation 2d
ASCII
DATASET UNSTRUCTURED_GRID
POINTS 953 double
0 0 0
0.005 0 0
0.01 0 0
0.015 0 0
0.02 0 0
0.025 0 0
0.03 0 0
0.035 0 0
0.04 0 0
0.045 0 0
0.05 0 0
0.055 0 0
0.06 0 0
0.065 0 0
0.07 0 0
0.075 0 0
0.08 0 0
0.085 0 0
0.09 0 0
0.095 0 0
0.1 0 0
0.1 0 0.005
0.1 0 0.01
0.1 0 0.015
0.1 0 0.02
0.0966667 0 0.0216667
0.0933333 0 0.0233333
0.09 0 0.025
0.0909091 0 0.0295455
0.0918182 0 0.0340909
0.0927273 0 0.0386364
0.0936364 0 0.0431818
0.0945455 0 0.0477273
0.0954545 0 0.0522727
0.0963636 0 0.0568182
0.0972727 0 0.0613636
0.0981818 0 0.0659091
0.0990909 0 0.0704545
0.1 0 0.075
0.0966667 0 0.0766667
0.0933333 0 0.0783333
0.09 0 0.08
0.09 0 0.085
0.09 0 0.09
0.09 0 0.095
0.09 0 0.1
0.09 0 0.105
0.09 0 0.11
0.09 0 0.115
0.09 0 0.12
0.09 0 0.125
0.09 0 0.13
0.09 0 0.135
0.09 0 0.14
0.09 0 0.145
0.09 0 0.15
0.0933333 0 0.15
0.0966667 0 0.15
0.1 0 0.15
0.1 0 0.155
0.1 0 0.16
0.1 0 0.165
0.1 0 0.17
0.1 0 0.175
0.0952381 0 0.17619
0.0904762 0 0.177381
0.0857143 0 0.178571
0.0809524 0 0.179762
0.0761905 0 0.180952
0.0714286 0 0.182143
0.0666667 0 0.183333
0.0619048 0 0.184524
0.0571429 0 0.185714
0.052381 0 0.186905
0.047619 0 0.188095
0.0428571 0 0.189286
0.0380952 0 0.190476
0.0333333 0 0.191667
0.0285714 0 0.192857
0.0238095 0 0.194048
0.0190476 0 0.195238
0.0142857 0 0.196429
0.00952381 0 0.197619
0.0047619 0 0.19881
0 0 0.2
0 0 0.195455
0 0 0.190909
0 0 0.186364
0 0 0.181818
0 0 0.177273
0 0 0.172727
0 0 0.168182
0 0 0.163636
0 0 0.159091
0 0 0.154545
0 0 0.15
0.005 0 0.15
0.01 0 0.15
0.015 0 0.15
0.0136364 0 0.145455
0.0122727 0 0.140909
0.0109091 0 0.136364
0.00954545 0 0.131818
0.00818182 0 0.127273
0.00681818 0 0.122727
0.00545455 0 0.118182
0.00409091 0 0.113636
0.00272727 0 0.109091
0.00136364 0 0.104545
0 0 0.1
0.00333333 0 0.0983333
0.00666667 0 0.0966667
0.01 0 0.095
0.009 0 0.0905
0.008 0 0.086
0.007 0 0.0815
0.006 0 0.077
0.005 0 0.0725
0.004 0 0.068
0.003 0 0.0635
0.002 0 0.059
0.001 0 0.0545
0 0 0.05
0.00333333 0 0.049
0.00666667 0 0.048
0.01 0 0.047
0.009 0 0.0423
0.008 0 0.0376
0.007 0 0.0329
0.006 0 0.0282
0.005 0 0.0235
0.004 0 0.0188
0.003 0 0.0141
0.002 0 0.0094
0.001 0 0.0047
0.0175 0 0.15
0.02 0 0.15
0.0225 0 0.15
0.025 0 0.15
0.0275 0 0.15
0.03 0 0.15
0.0325 0 0.15
0.035 0 0.15
0.0375 0 0.15
0.04 0 0.15
0.0425 0 0.15
0.045 0 0.15
0.0475 0 0.15
0.05 0 0.15
0.0525 0 0.15
0.055 0 0.15
0.0575 0 0.15
0.06 0 0.15
0.0625 0 0.15
0.065 0 0.15
0.0675 0 0.15
0.07 0 0.15
0.0725 0 0.15
0.075 0 0.15
0.0775 0 0.15
0.08 0 0.15
0.0825 0 0.15
0.085 0 0.15
0.0875 0 0.15
0.0124242 0 0.0945455
0.0148485 0 0.0940909
0.0172727 0 0.0936364
0.019697 0 0.0931818
0.0221212 0 0.0927273
0.0245455 0 0.0922727
0.0269697 0 0.0918182
0.0293939 0 0.0913636
0.0318182 0 0.0909091
0.0342424 0 0.0904545
0.0366667 0 0.09
0.0390909 0 0.0895455
0.0415152 0 0.0890909
0.0439394 0 0.0886364
0.0463636 0 0.0881818
0.0487879 0 0.0877273
0.0512121 0 0.0872727
0.0536364 0 0.0868182
0.0560606 0 0.0863636
0.0584848 0 0.0859091
0.0609091 0 0.0854545
0.0633333 0 0.085
0.0657576 0 0.0845455
0.0681818 0 0.0840909
0.0706061 0 0.0836364
0.0730303 0 0.0831818
0.0754545 0 0.0827273
0.0778788 0 0.0822727
0.080303 0 0.0818182
0.0827273 0 0.0813636
0.0851515 0 0.0809091
0.0875758 0 0.0804545
0.0123529 0 0.0463529
0.0147059 0 0.0457059
0.0170588 0 0.0450588
0.0194118 0 0.0444118
0.0217647 0 0.0437647
0.0241176 0 0.0431176
0.0264706 0 0.0424706
0.0288235 0 0.0418235
0.0311765 0 0.0411765
0.0335294 0 0.0405294
0.0358824 0 0.0398824
0.0382353 0 0.0392353
0.0405882 0 0.0385882
0.0429412 0 0.0379412
0.0452941 0 0.0372941
0.0476471 0 0.0366471
0.05 0 0.036
0.0523529 0 0.0353529
0.0547059 0 0.0347059
0.0570588 0 0.0340588
0.0594118 0 0.0334118
0.0617647 0 0.0327647
0.0641176 0 0.0321176
0.0664706 0 0.0314706
0.0688235 0 0.0308235
0.0711765 0 0.0301765
0.0735294 0 0.0295294
0.0758824 0 0.0288824
0.0782353 0 0.0282353
0.0805882 0 0.0275882
0.0829412 0 0.0269412
0.0852941 0 0.0262941
0.0876471 0 0.0256471
0.0581975 0 0.117104
0.0694093 0 0.0570786
0.0325217 0 0.117082
0.0435646 0 0.0634899
0.0235011 0 0.170167
0.0271378 0 0.021441
0.0237715 0 0.0639388
0.0703133 0 0.102516
0.0433796 0 0.16963
0.0465791 0 0.0182038
0.0715502 0 0.1332
0.0426157 0 0.132894
0.0462433 0 0.106901
0.0600283 0 0.16779
0.0629024 0 0.0156593
0.0594879 0 0.0690927
0.0549988 0 0.0515757
0.0180894 0 0.107584
0.0261425 0 0.135053
0.0777833 0 0.0409821
0.0757651 0 0.163572
0.0319111 0 0.0775027
0.0814051 0 0.0672641
0.0781252 0 0.0151538
0.0335973 0 0.0547897
0.0589496 0 0.137973
0.0576995 0 0.0998131
0.0342725 0 0.102334
0.0196009 0 0.0298015
0.0666668 0 0.0449705
0.0211742 0 0.0805531
0.048378 0 0.0757937
0.0334517 0 0.160484
0.0159986 0 0.162971
0.0388184 0 0.0275439
0.0147772 0 0.0573564
0.0786551 0 0.0934024
0.0884186 0 0.161147
0.0707996 0 0.07351
0.0442064 0 0.0490602
0.0512812 0 0.159535
0.0548102 0 0.0250387
0.0778802 0 0.140285
0.0294845 0 0.0317471
0.0229857 0 0.053538
0.0662097 0 0.0927816
0.047893 0 0.141119
0.0398464 0 0.140688
0.0693465 0 0.140959
0.0689698 0 0.158912
0.07309 0 0.0213075
0.0861432 0 0.0166996
0.0419398 0 0.0966062
0.0250996 0 0.0994953
0.0141559 0 0.102813
0.0581068 0 0.0416228
0.0217908 0 0.141193
0.0431535 0 0.0799191
0.0554951 0 0.0784758
0.0712623 0 0.0389373
0.0820818 0 0.0351032
0.0407244 0 0.158768
0.0253938 0 0.159904
0.0299183 0 0.0827688
0.0469921 0 0.0288787
0.0877183 0 0.0726732
0.082174 0 0.15813
0.0764911 0 0.0752863
0.0587751 0 0.157411
0.0634827 0 0.0248617
0.0355732 0 0.0462606
0.0319176 0 0.142615
0.0487942 0 0.0941753
0.0503427 0 0.0436107
0.0635852 0 0.0773557
0.0163258 0 0.0385912
0.0169651 0 0.0873378
0.0750602 0 0.117323
0.0127944 0 0.179441
0.0800337 0 0.020931
0.029032 0 0.0485044
0.062189 0 0.143767
0.0338287 0 0.0966893
0.0582874 0 0.0922459
0.0733498 0 0.0902359
0.0821667 0 0.0874555
0.0238779 0 0.036554
0.0157453 0 0.0144949
0.0191664 0 0.120927
0.0641791 0 0.0378477
0.084337 0 0.144314
0.0195694 0 0.155364
0.049237 0 0.0821573
0.0354134 0 0.033803
0.0171846 0 0.0505202
0.0531919 0 0.144764
0.0436228 0 0.144997
0.0338667 0 0.155102
0.0319066 0 0.179802
0.0738932 0 0.145084
0.073347 0 0.155269
0.08539 0 0.0552115
0.0492258 0 0.155473
0.0190602 0 0.099199
0.0361937 0 0.0842072
0.0545429 0 0.0294657
0.0863037 0 0.031525
0.0762052 0 0.0338433
0.0244324 0 0.0872056
0.0883456 0 0.155334
0.0426179 0 0.0328089
0.0377537 0 0.0102568
0.0718588 0 0.0784361
0.0426895 0 0.042809
0.0835711 0 0.076276
0.0638794 0 0.154843
0.068931 0 0.0259822
0.0131968 0 0.0674027
0.0523468 0 0.176726
0.0260316 0 0.145653
0.0090541 0 0.168549
0.0240879 0 0.0480215
0.0282898 0 0.0962401
0.0635578 0 0.0895815
0.053254 0 0.0914161
0.035955 0 0.145741
0.0773914 0 0.087242
0.028706 0 0.0372433
0.0196063 0 0.132764
0.0805095 0 0.108071
0.012408 0 0.0514567
0.0531704 0 0.00956827
0.0241609 0 0.184533
0.078843 0 0.145241
0.0663901 0 0.145519
0.0533678 0 0.154925
0.0589719 0 0.0287479
0.0272699 0 0.00932046
0.0428759 0 0.17976
0.0675849 0 0.0888381
0.0804355 0 0.127338
0.00841904 0 0.188866
0.0486876 0 0.145563
0.0853436 0 0.0215877
0.0757471 0 0.0243612
0.0431972 0 0.0931718
0.0392188 0 0.093859
0.0683404 0 0.155014
0.014356 0 0.0985807
0.0145785 0 0.0243648
0.0592215 0 0.0379794
0.0546834 0 0.0388633
0.0186049 0 0.145405
0.0444698 0 0.0842194
0.0542416 0 0.0822222
0.0588382 0 0.0816596
0.07144 0 0.172774
0.0686188 0 0.0352765
0.0286348 0 0.154389
0.043821 0 0.154682
0.0242145 0 0.154202
0.0388732 0 0.154521
0.0322825 0 0.0865381
0.0498912 0 0.0313911
0.00828716 0 0.16073
0.0865782 0 0.169874
0.0860951 0 0.0469131
0.0787729 0 0.153782
0.0845323 0 0.155014
0.076186 0 0.0792134
0.0621658 0 0.175531
0.0242941 0 0.0960187
0.0382849 0 0.0431325
0.0330135 0 0.0439493
0.0880595 0 0.00705678
0.0672462 0 0.010267
0.0801905 0 0.0311377
0.0112916 0 0.114198
0.0477797 0 0.0400904
0.065889 0 0.0812681
0.0913505 0 0.0660006
0.0885444 0 0.0765834
0.0120268 0 0.0785375
0.0148729 0 0.0427114
0.0201516 0 0.0409854
0.0205111 0 0.0893322
0.0154618 0 0.0909133
0.0587359 0 0.153228
0.0645318 0 0.0290296
0.00596493 0 0.0532805
0.093112 0 0.018671
0.0586072 0 0.146793
0.031277 0 0.147172
0.0845727 0 0.0836682
0.00914004 0 0.00970202
0.0480897 0 0.0904949
0.0954304 0 0.153864
0.0869905 0 0.147444
0.0844429 0 0.117372
0.0160877 0 0.153127
0.00592894 0 0.101574
0.00535895 0 0.179611
0.0386026 0 0.0359961
0.0337095 0 0.037127
0.0191147 0 0.0475877
0.0935043 0 0.166887
0.0927073 0 0.0736037
0.0810386 0 0.0247637
0.04103 0 0.147589
0.0283147 0 0.0447057
0.0172056 0 0.00609381
0.0711503 0 0.147878
0.0774319 0 0.00686543
0.0334644 0 0.0930884
0.0577287 0 0.0886401
0.0722983 0 0.0859877
0.0400938 0 0.087222
0.00779225 0 0.0589603
0.0876413 0 0.0280802
0.0727215 0 0.0319355
0.0247536 0 0.0403085
0.0277363 0 0.0888713
0.0456855 0 0.0340466
0.0423987 0 0.00611008
0.0809314 0 0.0789293
0.0716648 0 0.0275737
0.0236481 0 0.147813
0.0144291 0 0.190594
0.0123999 0 0.123633
0.0634918 0 0.0345294
0.0849335 0 0.0966465
0.079421 0 0.0846966
0.0944952 0 0.00702156
0.0496429 0 0.0854105
0.0160973 0 0.137379
0.0141851 0 0.0487392
0.0578046 0 0.00470417
0.0295309 0 0.187977
0.0812781 0 0.147506
0.0763399 0 0.147708
0.0639774 0 0.14791
0.0514415 0 0.152187
0.0139285 0 0.156923
0.0578013 0 0.0316437
0.0323498 0 0.00559982
0.0393833 0 0.18487
0.0488241 0 0.181971
0.0536081 0 0.147919
0.0649187 0 0.0868382
0.0849418 0 0.132575
0.0462733 0 0.147799
0.0881213 0 0.0227163
0.0337961 0 0.152004
0.0407335 0 0.0914365
0.00500992 0 0.193677
0.0736765 0 0.152154
0.0876273 0 0.036612
0.0661399 0 0.152375
0.0114808 0 0.0973308
0.0161745 0 0.095995
0.011526 0 0.030287
0.0100438 0 0.0201744
0.0564705 0 0.0366164
0.0518669 0 0.0378364
0.0143182 0 0.147727
0.0615923 0 0.0829757
0.0568801 0 0.0837684
0.0774241 0 0.175775
0.0412736 0 0.152412
0.0215025 0 0.152089
0.0262968 0 0.15211
0.0462757 0 0.152341
0.034865 0 0.0883546
0.0915429 0 0.0553918
0.0528072 0 0.0329125
0.00407714 0 0.156056
0.00399746 0 0.165706
0.0857012 0 0.152171
0.0822039 0 0.152394
0.0738747 0 0.08097
0.0674579 0 0.177454
0.0581343 0 0.179438
0.0214597 0 0.0955391
0.0264228 0 0.0939624
0.0400591 0 0.0411358
0.0355167 0 0.042604
0.0827028 0 0.029585
0.0775179 0 0.0307289
0.00753528 0 0.110291
0.0447842 0 0.0399791
0.0689387 0 0.0814115
0.0859095 0 0.0781902
0.0109821 0 0.0734568
0.0132062 0 0.0838186
0.0175648 0 0.0421043
0.0121174 0 0.043845
0.0120632 0 0.0401435
0.0133173 0 0.0923003
0.0121845 0 0.0887896
0.0229732 0 0.0897761
0.0182315 0 0.0909865
0.0561904 0 0.152588
0.0612886 0 0.152558
0.0622405 0 0.0301621
0.0670514 0 0.0288589
0.00644876 0 0.00462936
0.096666 0 0.0174153
0.0952423 0 0.0135365
0.0287995 0 0.147703
0.0338096 0 0.147644
0.0873535 0 0.0830395
0.0778029 0 0.100564
0.0455014 0 0.0905917
0.0505825 0 0.0897774
0.0236008 0 0.0456695
0.0163474 0 0.146656
0.0171518 0 0.141413
0.091733 0 0.153004
0.09 0 0.1475
0.085093 0 0.111868
0.0851801 0 0.122638
0.00445025 0 0.17489
0.0045146 0 0.184539
0.0314749 0 0.0385043
0.0412786 0 0.0357784
0.0363008 0 0.0371067
0.0950156 0 0.161677
0.0390856 0 0.0321387
0.0835881 0 0.0244059
0.0786672 0 0.0255756
0.0358616 0 0.0295506
0.0333921 0 0.0232183
0.0384875 0 0.147813
0.0306111 0 0.0437322
0.0227878 0 0.00529107
0.0686449 0 0.147884
0.0712354 0 0.00495922
0.0729896 0 0.0108117
0.0828048 0 0.00554688
0.0324043 0 0.0155006
0.0551678 0 0.0887983
0.060102 0 0.0878433
0.0359172 0 0.0923492
0.0310156 0 0.0932422
0.0745807 0 0.0852124
0.0698983 0 0.0859635
0.0424254 0 0.0866786
0.0409013 0 0.0840315
0.0866281 0 0.0866985
0.00783036 0 0.0644712
0.0122534 0 0.0619567
0.0704511 0 0.0326438
0.072207 0 0.0350212
0.0226322 0 0.0413294
0.0271456 0 0.0399164
0.0302174 0 0.0890108
0.0292399 0 0.0866641
0.0482056 0 0.034119
0.0469115 0 0.0316913
0.0697755 0 0.145243
0.0310345 0 0.046262
0.0327106 0 0.0495235
0.0380216 0 0.0509383
0.038764 0 0.0583401
0.0363306 0 0.0657595
0.0451998 0 0.0555924
0.0512519 0 0.0618238
0.0477026 0 0.00501586
0.0468747 0 0.0108937
0.0214037 0 0.0108837
0.078652 0 0.0798373
0.0790689 0 0.0771945
0.0742249 0 0.027053
0.072398 0 0.0247396
0.0209263 0 0.147744
0.0222393 0 0.145183
0.0201296 0 0.190049
0.0168155 0 0.184873
0.0206541 0 0.178647
0.0102354 0 0.119326
0.0129773 0 0.128375
0.0782844 0 0.0229972
0.0765571 0 0.0198835
0.0727943 0 0.016206
0.0825186 0 0.0220714
0.0828906 0 0.0186206
0.0831903 0 0.0121557
0.0904545 0 0.0272727
0.0402184 0 0.019612
0.0608952 0 0.0350794
0.0660483 0 0.0337996
0.0854765 0 0.10182
0.0819504 0 0.0840096
0.0388419 0 0.145021
0.0926899 0 0.171925
0.0469906 0 0.0859008
0.0523098 0 0.0850367
0.0165513 0 0.0477092
0.0115558 0 0.0489026
0.00928629 0 0.0505182
0.0107805 0 0.0546538
0.0643051 0 0.00465122
0.0600254 0 0.00991552
0.0568805 0 0.0150268
0.0737518 0 0.14805
0.0839295 0 0.147687
0.0787691 0 0.147975
0.0612423 0 0.147757
0.0374123 0 0.00481751
0.0102377 0 0.184061
0.0345669 0 0.186561
0.0445084 0 0.184711
0.0510957 0 0.147877
0.056082 0 0.147463
0.085637 0 0.0912724
0.0847749 0 0.138273
0.0437099 0 0.148009
0.0364872 0 0.152013
0.0310641 0 0.152198
0.0798712 0 0.120944
0.0737501 0 0.125042
0.0649497 0 0.126024
0.0677899 0 0.116959
0.0633998 0 0.107229
0.0528622 0 0.126268
0.0419216 0 0.121906
0.0312333 0 0.0360116
0.0710378 0 0.152381
0.0761362 0 0.152616
0.0249865 0 0.0155322
0.0207919 0 0.0214389
0.0890784 0 0.0416213
0.0839962 0 0.0408569
0.00874197 0 0.175125
0.0149385 0 0.17265
0.00844898 0 0.0151291
0.0119715 0 0.0357037
0.0800694 0 0.113803
0.0737353 0 0.109743
0.0126122 0 0.152476
0.00871102 0 0.154647
0.0495428 0 0.0383315
0.0511938 0 0.0404094
0.0534676 0 0.0419692
0.0543418 0 0.0460532
0.0498544 0 0.0487673
0.0592933 0 0.0472375
0.0625007 0 0.0538008
0.0513601 0 0.0555246
0.0631268 0 0.0633687
0.0174728 0 0.0626696
0.0639308 0 0.0826935
0.0624678 0 0.0804482
0.0602678 0 0.0786438
0.0597099 0 0.0744276
0.064742 0 0.0721571
0.0694854 0 0.0661857
0.0547271 0 0.0725769
0.0830152 0 0.174417
0.0782946 0 0.169884
0.0819404 0 0.164096
0.048797 0 0.152221
0.018848 0 0.152035
0.0374529 0 0.0877067
0.0920772 0 0.0606432
0.0906713 0 0.0499438
0.0553354 0 0.0324629
0.0681578 0 0.0183974
0.0886787 0 0.152156
0.0537162 0 0.182048
0.0188053 0 0.0953767
0.0313466 0 0.0953686
0.0304652 0 0.0990487
0.0562267 0 0.0910963
0.0554349 0 0.0941105
0.0520842 0 0.098159
0.0535413 0 0.10566
0.0465761 0 0.0995563
0.0492243 0 0.114905
0.0602383 0 0.0899816
0.0617408 0 0.0929058
0.0641561 0 0.098228
0.0360501 0 0.0945405
0.0376807 0 0.0975758
0.0409105 0 0.102339
0.0388344 0 0.110122
0.0751302 0 0.030958
0.08488 0 0.0285294
0.0423037 0 0.0400167
0.0714064 0 0.0814976
0.0834965 0 0.0791116
0.0095 0 0.04465
0.0095 0 0.09275
0.0255219 0 0.0897914
0.0710048 0 0.088369
0.0704887 0 0.0918807
0.0702249 0 0.0963057
0.0747408 0 0.0939608
0.0743118 0 0.0878215
0.0765224 0 0.0904672
0.0538857 0 0.152202
0.0636713 0 0.152146
0.0797067 0 0.0900135
0.0693447 0 0.0284981
0.0601534 0 0.0310358
0.0120845 0 0.00486064
0.0263406 0 0.148078
0.09 0 0.0825
0.0431753 0 0.0907507
0.0213415 0 0.0462334
0.0258326 0 0.04491
0.0858784 0 0.12752
0.00381219 0 0.18891
0.00399034 0 0.170808
0.0436723 0 0.0354446
0.0859047 0 0.0240214
0.0362337 0 0.14813
0.0275154 0 0.0042311
0.0664038 0 0.148154
0.0288654 0 0.0935385
0.0528473 0 0.0890145
0.0380687 0 0.0917246
0.0622346 0 0.0873115
0.0769112 0 0.0847317
0.0675148 0 0.0864054
0.00837331 0 0.06926
0.0293986 0 0.0395077
0.0524479 0 0.00437293
0.0765478 0 0.0267016
0.0291898 0 0.0342861
0.0246397 0 0.0328014
0.0267282 0 0.027414
0.0268308 0 0.0351217
0.0323595 0 0.0336044
0.0327138 0 0.0305145
0.0332708 0 0.026834
0.030586 0 0.0282859
0.0306807 0 0.0246519
0.0306486 0 0.0212152
0.0333179 0 0.0194116
0.0364007 0 0.0163993
0.0419203 0 0.0140111
0.0295836 0 0.0176928
0.0290457 0 0.0134964
0.0328614 0 0.0111684
0.0248209 0 0.189614
0.0141344 0 0.132403
0.085585 0 0.106715
0.0487193 0 0.148187
0.0540843 0 0.0673295
0.0486448 0 0.0683912
0.0418626 0 0.0714644
0.0574338 0 0.0637352
0.0462196 0 0.0930479
0.0456782 0 0.0958188
0.0260607 0 0.0377698
0.0223296 0 0.0387555
0.0200873 0 0.036306
0.015901 0 0.0336483
0.0635839 0 0.161084
0.0681555 0 0.166278
0.0876765 0 0.0196435
0.0905978 0 0.0210932
0.0897023 0 0.0172626
0.0884575 0 0.0133825
0.0917019 0 0.0147965
0.0917466 0 0.01083
0.0568524 0 0.0583311
0.0506789 0 0.0922336
0.0522653 0 0.094699
0.010145 0 0.193262
0.0686349 0 0.152039
0.0211793 0 0.085288
0.0246681 0 0.0827449
0.0255799 0 0.0779871
0.0198551 0 0.0724712
0.0281727 0 0.0697045
0.0137729 0 0.0963071
0.00961302 0 0.0254675
0.026767 0 0.0470793
0.0261304 0 0.0503417
0.0271704 0 0.0570225
0.0325628 0 0.0600872
0.0296645 0 0.0522956
0.0286168 0 0.103562
0.0300497 0 0.109033
0.023177 0 0.105044
0.0237607 0 0.112257
0.0173964 0 0.114032
0.0807753 0 0.0748386
0.0836209 0 0.0721535
0.0795978 0 0.0718618
0.0754673 0 0.0694462
0.0865256 0 0.0679983
0.0858035 0 0.0624066
0.077496 0 0.0609997
0.0760223 0 0.0504341
0.0924212 0 0.156953
0.0963828 0 0.157921
0.0571606 0 0.142823
0.053621 0 0.139191
0.0496387 0 0.13435
0.0540278 0 0.0366611
0.0585993 0 0.0354319
0.0464319 0 0.0439718
0.0296037 0 0.145003
0.0277703 0 0.142073
0.0307069 0 0.13877
0.0347852 0 0.134528
0.031538 0 0.126865
0.0348182 0 0.139604
0.0675429 0 0.0776161
0.0940767 0 0.0695788
0.0121657 0 0.107992
0.033015 0 0.14504
0.0353721 0 0.143117
0.015445 0 0.143705
0.0184528 0 0.147965
0.0446723 0 0.0866338
0.0546377 0 0.0848468
0.05935 0 0.0839601
0.0790559 0 0.133456
0.0727166 0 0.177671
0.0168555 0 0.126353
0.0234305 0 0.126718
0.0245538 0 0.119243
0.0150816 0 0.119445
0.0682654 0 0.032886
0.0819749 0 0.092544
0.0810591 0 0.0958801
0.0812988 0 0.0994106
0.0778398 0 0.0970355
0.0810889 0 0.10355
0.0761976 0 0.104032
0.0743067 0 0.0988525
0.0217927 0 0.0484872
0.0232651 0 0.050688
0.0202005 0 0.051092
0.0206034 0 0.0578889
0.0185429 0 0.0539699
0.0150736 0 0.0528875
0.0286447 0 0.151778
0.0388364 0 0.151792
0.023864 0 0.151744
0.0437324 0 0.151877
0.0403115 0 0.0462667
0.0325487 0 0.0888815
0.0552093 0 0.134028
0.0597753 0 0.13044
0.0641125 0 0.136114
0.0590975 0 0.0955352
0.0363372 0 0.0215964
0.0392611 0 0.0238917
0.0437199 0 0.0225839
0.0494467 0 0.0228143
0.0420882 0 0.0258941
0.0360902 0 0.0252964
0.0445137 0 0.0307043
0.0416103 0 0.0294543
0.0442378 0 0.0278087
0.0462337 0 0.0254179
0.0502573 0 0.0273412
0.0505857 0 0.0339329
0.0620871 0 0.0275796
0.0595932 0 0.0247857
0.0582233 0 0.0202245
0.0535176 0 0.0196598
0.051183 0 0.0147758
0.0657263 0 0.0264912
0.0664338 0 0.0234537
0.0629198 0 0.0207343
0.0697286 0 0.0227921
0.0112484 0 0.0919667
0.00357839 0 0.161051
0.0178714 0 0.0830286
0.0171664 0 0.0791955
0.016499 0 0.0752155
0.0203359 0 0.0764528
0.023427 0 0.0740234
0.0236236 0 0.0699543
0.0190042 0 0.0679017
0.0269337 0 0.0734211
0.0308781 0 0.0732176
0.0355877 0 0.0720238
0.0380069 0 0.0776935
0.0321771 0 0.0690272
0.0296226 0 0.0644477
0.0158251 0 0.0712937
0.011619 0 0.100054
0.00917958 0 0.0990018
0.00996356 0 0.102665
0.00818408 0 0.105998
0.0267443 0 0.085461
0.0567465 0 0.155443
0.0547943 0 0.158286
0.056429 0 0.164622
0.0502006 0 0.167342
0.0566505 0 0.172504
0.0608152 0 0.155355
0.0621849 0 0.157968
0.0655368 0 0.157947
0.060373 0 0.160214
0.0606513 0 0.163211
0.0641503 0 0.165228
0.0658699 0 0.170893
0.0666774 0 0.162122
0.0706887 0 0.16289
0.0727292 0 0.167711
0.05728 0 0.160838
0.0538439 0 0.16186
0.0522953 0 0.164429
0.049014 0 0.163506
0.04692 0 0.159141
0.0442037 0 0.16373
0.0386737 0 0.165661
0.0318263 0 0.168854
0.0390083 0 0.173828
0.0540671 0 0.167878
0.0513463 0 0.171267
0.0469125 0 0.175046
0.0467888 0 0.166809
0.0475432 0 0.170422
0.0727098 0 0.159091
0.077161 0 0.158372

CELLS 1763 7052
3 522 903 305
3 732 221 220
3 683 303 682
3 253 810 812
3 585 292 391
3 284 672 380
3 885 560 880
3 280 793 792
3 533 220 219
3 558 224 757
3 461 19 21
3 795 794 793
3 533 219 417
3 898 345 897
3 279 611 373
3 566 252 612
3 436 613 557
3 611 308 610
3 22 536 461
3 243 404 696
3 19 20 21
3 808 739 438
3 170 450 171
3 177 575 847
3 321 382 286
3 595 779 232
3 435 40 410
3 685 267 684
3 374 737 541
3 661 485 660
3 110 429 109
3 248 825 288
3 231 816 814
3 39 37 38
3 854 853 317
3 917 918 487
3 164 806 487
3 469 747 154
3 107 517 106
3 636 152 420
3 853 247 357
3 313 726 724
3 949 237 942
3 499 870 387
3 939 269 938
3 475 948 347
3 81 799 456
3 143 871 646
3 639 77 466
3 470 149 729
3 376 656 329
3 951 249 935
3 62 63 64
3 952 396 295
3 546 56 425
3 59 57 58
3 934 789 932
3 623 394 434
3 952 249 951
3 688 687 496
3 506 338 397
3 249 689 688
3 730 531 153
3 800 156 656
3 466 77 78
3 938 924 939
3 94 96 504
3 742 550 90
3 466 78 774
3 669 393 504
3 96 669 504
3 483 741 370
3 233 607 663
3 505 349 742
3 663 307 662
3 83 483 82
3 86 483 85
3 96 94 95
3 638 606 456
3 638 430 307
3 301 424 797
3 84 85 83
3 320 691 498
3 420 151 642
3 608 457 104
3 275 829 324
3 369 850 649
3 324 371 275
3 300 844 843
3 830 275 240
3 406 842 817
3 511 168 400
3 363 588 564
3 550 430 89
3 925 950 949
3 468 158 633
3 706 705 241
3 814 714 231
3 375 750 482
3 350 864 738
3 199 738 433
3 202 438 739
3 677 594 674
3 627 464 359
3 802 259 803
3 235 867 810
3 848 625 383
3 722 169 528
3 400 351 282
3 538 141 421
3 362 635 468
3 617 881 880
3 892 532 365
3 525 524 126
3 883 895 270
3 204 552 205
3 597 238 770
3 315 784 449
3 2 534 1
3 659 760 257
3 432 762 322
3 121 122 123
3 384 383 287
3 333 501 391
3 665 489 787
3 465 630 631
3 272 765 763
3 771 568 768
3 316 659 378
3 658 234 659
3 534 133 134
3 412 304 523
3 1 134 0
3 651 649 650
3 364 729 530
3 317 853 852
3 870 647 387
3 834 843 421
3 475 347 698
3 843 354 538
3 937 931 924
3 735 455 348
3 926 242 399
3 281 713 712
3 82 483 799
3 171 748 170
3 152 416 151
3 256 813 701
3 155 486 154
3 173 174 571
3 89 430 88
3 285 463 357
3 871 143 144
3 713 281 706
3 941 269 940
3 170 748 512
3 530 150 151
3 845 100 545
3 290 390 388
3 136 846 603
3 947 926 347
3 879 709 710
3 531 416 152
3 542 180 749
3 158 484 157
3 561 144 143
3 870 140 647
3 667 358 666
3 68 496 67
3 858 265 857
3 928 297 927
3 782 301 783
3 496 851 385
3 363 310 277
3 697 55 546
3 704 703 255
3 688 496 385
3 844 354 843
3 826 266 338
3 277 239 271
3 941 290 388
3 236 725 863
3 62 623 434
3 634 161 467
3 161 162 507
3 162 426 163
3 555 60 61
3 319 53 54
3 506 697 338
3 633 328 468
3 399 933 509
3 522 115 411
3 722 337 450
3 172 584 875
3 650 878 877
3 903 259 801
3 836 300 835
3 805 908 235
3 140 421 141
3 754 118 578
3 845 381 544
3 915 805 235
3 147 479 777
3 916 804 905
3 239 277 878
3 916 909 804
3 276 839 837
3 469 153 636
3 198 433 626
3 49 549 427
3 692 175 174
3 231 654 838
3 593 592 232
3 205 514 402
3 521 117 754
3 702 353 569
3 183 570 443
3 816 231 854
3 206 401 514
3 731 355 314
3 810 273 809
3 258 675 284
3 674 673 245
3 798 301 797
3 176 482 175
3 921 292 585
3 643 577 43
3 875 391 501
3 154 747 155
3 415 165 526
3 539 194 195
3 625 321 383
3 368 753 574
3 294 435 410
3 710 725 236
3 215 491 214
3 549 49 50
3 408 840 519
3 857 265 731
3 384 681 494
3 514 205 206
3 176 737 482
3 191 752 190
3 727 573 355
3 303 840 408
3 51 478 740
3 405 289 336
3 862 667 236
3 599 192 191
3 539 195 736
3 408 187 186
3 294 841 435
3 860 863 726
3 841 37 435
3 860 858 859
3 584 172 171
3 126 524 720
3 495 848 383
3 658 598 366
3 772 658 366
3 179 462 180
3 665 128 489
3 832 618 379
3 412 198 197
3 402 589 562
3 234 766 760
3 831 492 213
3 129 130 807
3 892 417 532
3 559 322 763
3 431 207 554
3 631 360 465
3 576 575 445
3 439 316 423
3 675 673 284
3 4 563 439
3 450 585 584
3 780 232 779
3 286 780 260
3 890 270 334
3 212 586 891
3 773 366 473
3 672 284 673
3 773 473 340
3 718 341 508
3 554 207 206
3 678 676 230
3 213 492 212
3 39 435 37
3 765 764 763
3 630 14 565
3 773 769 568
3 515 225 226
3 345 732 533
3 401 342 874
3 567 17 403
3 906 904 905
3 318 386 288
3 318 258 284
3 617 880 769
3 565 15 441
3 586 211 451
3 600 398 296
3 268 833 674
3 824 685 230
3 791 419 26
3 896 597 360
3 480 744 372
3 867 679 264
3 245 796 677
3 518 210 407
3 472 365 733
3 790 614 280
3 336 715 516
3 218 458 217
3 228 744 480
3 225 558 436
3 373 757 601
3 227 447 716
3 716 335 515
3 644 53 319
3 850 239 649
3 716 447 335
3 410 40 41
3 256 814 813
3 482 750 175
3 522 114 115
3 178 847 624
3 327 639 466
3 135 428 98
3 490 131 664
3 785 315 449
3 911 250 910
3 629 869 264
3 548 48 427
3 306 666 648
3 75 640 74
3 237 948 945
3 770 452 597
3 322 554 432
3 642 151 150
3 156 564 440
3 641 149 148
3 838 837 247
3 918 919 429
3 838 654 240
3 66 687 65
3 399 510 926
3 757 223 601
3 480 790 791
3 215 832 491
3 781 244 778
3 508 189 718
3 715 222 223
3 357 247 285
3 172 442 572
3 745 538 354
3 493 99 544
3 405 224 225
3 336 289 248
3 952 657 396
3 161 507 160
3 681 303 408
3 36 409 35
3 719 193 453
3 685 824 821
3 14 15 565
3 558 225 224
3 207 401 206
3 508 341 398
3 455 138 137
3 645 146 145
3 183 184 570
3 574 188 444
3 173 571 442
3 853 357 852
3 2 734 534
3 772 771 658
3 318 288 258
3 580 221 448
3 259 904 906
3 738 200 543
3 624 321 462
3 832 216 618
3 691 135 136
3 144 497 871
3 137 498 136
3 943 290 942
3 582 449 201
3 596 452 9
3 679 909 346
3 869 868 264
3 726 728 265
3 460 192 621
3 68 69 851
3 687 67 496
3 590 309 589
3 462 321 625
3 677 796 595
3 874 342 268
3 940 269 939
3 939 925 940
3 885 559 764
3 617 882 881
3 271 850 644
3 158 468 159
3 552 432 205
3 760 759 257
3 915 914 805
3 627 196 464
3 460 752 191
3 540 860 859
3 839 836 837
3 421 140 537
3 604 348 455
3 622 561 354
3 254 878 310
3 777 479 371
3 396 507 295
3 656 484 329
3 893 892 365
3 769 768 568
3 454 602 601
3 536 23 535
3 477 751 185
3 706 301 704
3 750 571 174
3 511 167 168
3 835 300 834
3 920 108 429
3 912 250 911
3 856 386 619
3 406 855 608
3 137 603 455
3 526 165 164
3 165 415 166
3 491 379 380
3 629 446 418
3 485 289 335
3 660 30 31
3 336 516 405
3 715 336 448
3 291 389 387
3 327 607 233
3 497 144 145
3 331 690 470
3 391 292 333
3 529 167 166
3 743 339 451
3 559 885 263
3 694 33 502
3 820 251 819
3 546 826 338
3 344 927 531
3 453 193 192
3 520 194 719
3 689 952 295
3 929 376 278
3 373 611 610
3 451 587 586
3 589 309 438
3 284 379 318
3 641 324 476
3 455 735 138
3 798 353 703
3 229 705 652
3 856 580 386
3 288 386 581
3 190 398 191
3 847 382 624
3 198 523 199
3 452 8 9
3 625 180 462
3 292 921 802
3 478 52 644
3 708 312 443
3 741 551 370
3 90 550 89
3 613 308 614
3 613 436 308
3 514 401 299
3 754 346 521
3 153 469 154
3 467 160 635
3 541 177 178
3 424 782 541
3 255 879 710
3 570 751 708
3 460 355 752
3 540 861 862
3 740 478 369
3 358 862 861
3 658 771 234
3 316 664 423
3 755 204 203
3 767 560 766
3 854 231 838
3 282 511 400
3 230 825 824
3 619 218 219
3 319 362 271
3 747 363 564
3 923 364 922
3 872 389 498
3 286 913 780
3 286 576 913
3 334 695 503
3 886 339 887
3 125 196 627
3 803 910 250
3 276 240 275
3 325 276 275
3 839 276 844
3 325 645 437
3 938 269 923
3 872 499 389
3 698 347 510
3 92 505 91
3 635 159 468
3 636 310 469
3 922 364 530
3 159 396 657
3 660 694 395
3 228 616 447
3 639 76 77
3 690 148 470
3 918 429 111
3 748 700 351
3 296 821 820
3 692 174 501
3 763 322 762
3 756 465 360
3 289 515 335
3 226 716 515
3 458 318 618
3 395 661 660
3 235 679 867
3 916 521 346
3 555 434 266
3 936 789 935
3 587 293 392
3 293 890 392
3 762 758 272
3 632 896 360
3 341 718 519
3 680 186 185
3 407 210 211
3 670 212 492
3 682 303 681
3 189 508 190
3 922 297 923
3 924 938 937
3 417 219 218
3 602 373 601
3 446 120 418
3 578 118 119
3 669 471 393
3 290 943 261
3 609 102 103
3 306 649 651
3 92 902 505
3 138 499 872
3 199 200 738
3 245 677 674
3 512 351 400
3 487 918 112
3 548 358 776
3 709 708 352
3 477 368 352
3 751 570 184
3 142 538 745
3 148 777 641
3 666 358 548
3 186 477 185
3 762 432 655
3 889 884 882
3 835 247 836
3 457 608 855
3 861 540 859
3 47 48 548
3 350 865 864
3 197 464 196
3 896 238 597
3 129 489 128
3 474 640 75
3 262 663 349
3 310 636 420
3 798 704 301
3 653 707 229
3 777 371 641
3 690 147 148
3 741 87 551
3 298 897 892
3 532 218 217
3 129 807 489
3 568 771 772
3 640 367 475
3 924 946 939
3 422 194 539
3 863 862 236
3 877 254 876
3 588 440 564
3 799 370 456
3 902 393 505
3 745 143 142
3 276 325 622
3 792 419 791
3 436 226 225
3 887 339 556
3 894 243 899
3 749 353 542
3 353 749 569
3 281 712 375
3 608 104 105
3 927 297 922
3 297 937 923
3 816 815 814
3 813 282 701
3 787 257 786
3 763 762 272
3 716 226 227
3 675 245 673
3 672 671 380
3 288 581 248
3 101 463 100
3 585 391 584
3 676 245 675
3 907 803 906
3 778 686 779
3 526 901 527
3 184 849 494
3 952 689 249
3 242 933 399
3 194 520 195
3 781 678 244
3 944 291 261
3 691 320 428
3 388 331 941
3 647 140 141
3 871 497 390
3 261 326 290
3 74 475 73
3 376 800 656
3 264 446 629
3 527 415 526
3 472 215 695
3 339 743 553
3 902 92 93
3 662 307 430
3 509 70 399
3 434 394 266
3 343 719 453
3 29 485 335
3 163 506 162
3 385 851 509
3 396 159 160
3 952 329 657
3 840 341 519
3 519 187 408
3 946 242 926
3 474 367 640
3 442 172 173
3 609 103 457
3 562 438 203
3 516 224 405
3 779 595 778
3 380 671 492
3 461 403 18
3 536 419 794
3 773 568 772
3 263 556 559
3 619 386 318
3 580 220 221
3 355 728 727
3 707 705 229
3 330 693 823
3 684 683 244
3 575 177 176
3 384 849 495
3 32 694 31
3 821 824 251
3 680 185 494
3 599 600 453
3 333 250 913
3 121 418 120
3 127 525 126
3 885 880 881
3 452 637 8
3 3 734 2
3 811 915 810
3 337 528 414
3 522 305 527
3 259 906 803
3 800 376 486
3 927 922 416
3 732 345 454
3 696 612 279
3 350 543 808
3 739 201 202
3 615 252 441
3 567 615 441
3 426 319 54
3 635 362 467
3 641 371 324
3 828 420 642
3 459 858 857
3 863 725 726
3 449 582 785
3 771 767 234
3 782 424 301
3 477 352 751
3 827 555 826
3 65 687 394
3 55 163 547
3 731 265 728
3 45 620 459
3 364 269 331
3 498 389 320
3 842 246 817
3 919 283 842
3 799 81 82
3 774 361 466
3 884 887 263
3 655 432 552
3 201 449 202
3 583 202 449
3 692 333 445
3 866 273 868
3 623 62 64
3 688 936 249
3 296 341 267
3 673 302 672
3 403 795 793
3 613 372 557
3 622 325 437
3 622 354 844
3 562 203 204
3 433 866 323
3 734 423 534
3 772 366 773
3 420 152 151
3 877 653 650
3 441 566 565
3 252 615 614
3 783 301 706
3 699 332 488
3 783 706 281
3 332 815 246
3 355 731 728
3 186 753 477
3 305 801 414
3 337 722 528
3 780 593 232
3 333 292 250
3 34 502 33
3 616 28 447
3 825 258 288
3 811 253 592
3 356 755 583
3 128 665 127
3 167 414 168
3 528 168 414
3 243 894 632
3 270 365 334
3 664 316 490
3 895 632 894
3 230 258 825
3 409 294 822
3 279 612 611
3 221 454 222
3 545 100 463
3 603 137 136
3 669 97 668
3 605 79 80
3 854 838 853
3 806 165 488
3 219 856 619
3 581 580 448
3 751 352 708
3 644 52 53
3 648 427 549
3 478 51 52
3 252 308 611
3 308 436 610
3 624 179 178
3 321 260 287
3 544 98 493
3 835 348 285
3 359 464 869
3 626 323 464
3 760 765 272
3 630 565 404
3 307 606 638
3 668 98 428
3 634 162 161
3 588 328 440
3 636 153 152
3 649 648 369
3 877 878 254
3 479 325 371
3 481 326 647
3 149 470 148
3 499 387 389
3 950 237 949
3 366 598 563
3 695 215 214
3 523 304 413
3 883 882 238
3 430 638 551
3 742 90 91
3 646 326 481
3 950 925 947
3 622 437 561
3 830 829 275
3 185 751 184
3 724 726 725
3 634 319 426
3 635 160 159
3 846 381 603
3 285 348 604
3 793 280 615
3 18 403 17
3 646 142 143
3 949 940 925
3 702 312 703
3 541 178 424
3 262 471 320
3 551 87 88
3 486 344 730
3 329 951 278
3 694 502 330
3 447 28 335
3 507 506 397
3 788 932 931
3 169 400 168
3 700 572 442
3 487 806 377
3 169 512 400
3 746 473 366
3 412 523 198
3 439 423 734
3 771 768 767
3 218 619 458
3 811 810 253
3 841 294 409
3 821 267 685
3 855 852 457
3 348 537 735
3 779 686 260
3 494 849 384
3 286 382 576
3 682 681 384
3 72 510 71
3 657 158 159
3 944 327 233
3 326 390 290
3 691 136 498
3 941 331 269
3 551 88 430
3 873 145 146
3 361 606 607
3 944 261 943
3 179 624 462
3 921 337 802
3 395 694 330
3 823 693 409
3 743 209 553
3 472 334 365
3 291 233 262
3 669 96 97
3 663 662 349
3 605 80 456
3 163 55 697
3 57 425 56
3 425 826 546
3 623 65 394
3 811 593 915
3 796 678 781
3 930 788 931
3 59 827 425
3 947 925 946
3 947 948 950
3 166 488 165
3 919 918 917
3 699 166 167
3 703 704 798
3 864 433 738
3 581 386 580
3 671 302 407
3 671 407 670
3 248 289 661
3 833 342 518
3 821 251 820
3 29 335 28
3 604 381 285
3 457 852 609
3 833 518 407
3 513 342 401
3 508 398 190
3 686 287 260
3 719 343 520
3 39 40 435
3 182 848 495
3 909 908 804
3 346 909 916
3 904 522 411
3 760 272 759
3 234 760 659
3 524 196 720
3 200 582 201
3 767 766 234
3 908 907 804
3 721 113 901
3 907 906 804
3 722 170 169
3 803 907 910
3 414 167 529
3 114 527 113
3 927 416 531
3 940 942 941
3 158 657 484
3 934 929 278
3 893 298 892
3 696 404 612
3 900 696 279
3 238 895 883
3 5 563 4
3 552 204 755
3 794 419 792
3 419 25 26
3 744 227 557
3 228 480 27
3 854 817 816
3 710 274 725
3 834 537 348
3 421 843 538
3 313 728 726
3 192 460 191
3 667 666 306
3 542 179 180
3 712 711 375
3 353 798 797
3 917 283 919
3 865 273 866
3 594 591 268
3 845 544 99
3 775 102 609
3 374 783 281
3 276 837 240
3 68 851 496
3 338 697 546
3 577 539 42
3 547 426 54
3 776 47 548
3 460 314 355
3 878 277 310
3 271 644 319
3 91 505 742
3 946 925 939
3 86 87 741
3 86 741 483
3 413 786 785
3 356 761 758
3 743 210 209
3 637 340 473
3 655 758 762
3 787 304 665
3 826 555 266
3 60 555 827
3 583 203 202
3 886 587 451
3 228 227 744
3 480 372 790
3 339 886 451
3 892 897 417
3 746 5 6
3 365 532 733
3 252 566 441
3 8 637 7
3 735 537 139
3 735 139 138
3 562 204 402
3 514 299 402
3 131 490 130
3 896 632 895
3 479 146 645
3 838 240 837
3 16 441 15
3 461 795 403
3 695 214 503
3 601 223 222
3 757 224 223
3 23 24 535
3 7 473 6
3 770 238 617
3 443 702 569
3 782 374 541
3 857 643 459
3 368 724 274
3 482 737 374
3 711 311 442
3 488 332 377
3 351 700 701
3 731 314 857
3 752 355 573
3 648 666 427
3 274 709 352
3 267 840 684
3 822 294 819
3 805 911 910
3 299 591 590
3 723 368 574
3 265 858 860
3 521 411 116
3 754 117 118
3 579 346 578
3 513 401 207
3 296 820 818
3 618 318 379
3 715 223 516
3 661 289 485
3 755 203 583
3 489 378 257
3 356 784 761
3 304 787 786
3 528 169 168
3 529 166 415
3 906 905 804
3 849 183 495
3 216 472 733
3 884 888 887
3 270 893 365
3 263 881 884
3 254 310 828
3 277 328 588
3 589 299 590
3 562 589 438
3 660 485 30
3 809 808 309
3 182 181 848
3 676 258 230
3 333 913 576
3 309 808 438
3 905 904 411
3 521 916 905
3 674 594 268
3 380 492 831
3 913 250 912
3 672 302 671
3 560 768 880
3 764 560 885
3 769 773 340
3 612 252 611
3 761 759 272
3 439 734 3
3 191 398 599
3 796 781 595
3 453 818 343
3 818 453 600
3 308 252 614
3 417 897 533
3 334 503 392
3 898 696 900
3 312 879 703
3 463 101 775
3 920 919 842
3 775 101 102
3 774 78 79
3 93 504 902
3 663 607 307
3 638 370 551
3 500 146 147
3 663 262 233
3 817 854 317
3 512 169 170
3 98 544 135
3 775 357 463
3 899 893 894
3 744 557 372
3 280 792 790
3 461 536 795
3 432 206 205
3 431 322 556
3 22 461 21
3 900 345 898
3 615 280 614
3 27 791 26
3 22 23 536
3 557 227 226
3 831 491 380
3 228 27 616
3 756 360 596
3 895 238 896
3 717 342 513
3 492 671 670
3 592 591 594
3 491 832 379
3 621 314 460
3 860 540 863
3 43 577 42
3 861 776 358
3 545 381 845
3 537 140 139
3 546 55 56
3 160 507 396
3 780 779 260
3 684 840 303
3 676 678 796
3 841 36 37
3 359 628 627
3 350 738 543
3 628 124 125
3 543 200 201
3 910 908 805
3 418 124 628
3 866 868 323
3 579 446 264
3 790 372 614
3 535 24 25
3 769 880 768
3 632 360 631
3 419 536 535
3 567 16 17
3 155 564 156
3 271 239 850
3 271 362 328
3 426 162 634
3 328 277 271
3 160 467 161
3 163 426 547
3 633 158 157
3 807 130 490
3 899 898 298
3 471 262 393
3 361 607 327
3 393 262 349
3 946 926 947
3 698 510 72
3 662 430 550
3 149 641 476
3 275 371 325
3 144 561 437
3 748 572 700
3 313 723 727
3 857 314 643
3 467 362 319
3 648 549 369
3 645 145 437
3 846 136 135
3 237 945 943
3 942 290 941
3 530 151 416
3 873 388 497
3 440 157 156
3 859 459 620
3 653 229 650
3 878 650 239
3 643 314 577
3 649 306 648
3 710 709 274
3 368 274 352
3 653 877 876
3 828 642 324
3 478 850 369
3 643 44 459
3 740 50 51
3 749 180 181
3 766 764 765
3 413 582 200
3 929 934 788
3 730 344 531
3 929 788 928
3 163 697 506
3 490 316 378
3 664 132 423
3 452 340 637
3 665 525 127
3 32 33 694
3 780 913 912
3 330 825 395
3 682 287 683
3 774 79 605
3 242 946 924
3 504 93 94
3 872 137 138
3 807 490 378
3 524 197 196
3 525 304 412
3 658 316 598
3 49 427 48
3 577 422 539
3 776 620 46
3 740 369 549
3 145 873 497
3 497 388 390
3 98 668 97
3 668 471 669
3 619 318 458
3 407 211 670
3 267 341 840
3 515 289 405
3 868 867 264
3 670 211 212
3 407 302 833
3 866 864 865
3 398 600 599
3 717 209 518
3 501 333 692
3 912 593 780
3 874 268 591
3 685 678 230
3 831 213 214
3 299 874 591
3 305 529 415
3 248 581 336
3 590 591 253
3 594 232 592
3 519 188 187
3 409 36 841
3 778 244 686
3 625 181 180
3 516 223 224
3 591 592 253
3 410 343 294
3 718 189 188
3 576 445 333
3 251 822 819
3 661 395 248
3 693 330 502
3 215 216 832
3 824 330 823
3 507 162 506
3 507 397 295
3 932 242 931
3 295 266 689
3 509 69 70
3 397 266 295
3 154 730 153
3 139 870 499
3 647 326 387
3 428 135 691
3 585 450 921
3 875 584 391
3 693 34 35
3 821 296 267
3 502 34 693
3 520 410 195
3 210 451 211
3 553 208 431
3 888 886 887
3 13 14 630
3 57 59 425
3 425 827 826
3 475 698 73
3 73 698 72
3 171 572 748
3 311 700 442
3 572 171 172
3 283 917 377
3 176 177 737
3 855 317 852
3 265 860 726
3 488 166 699
3 239 650 649
3 332 246 283
3 424 178 179
3 714 654 231
3 110 111 429
3 852 357 775
3 282 815 332
3 707 241 705
3 707 653 654
3 511 282 332
3 573 444 189
3 189 444 188
3 724 368 723
3 703 879 255
3 621 192 193
3 422 193 194
3 375 711 750
3 179 542 424
3 569 181 182
3 351 512 748
3 712 256 311
3 714 256 713
3 709 312 708
3 479 147 146
3 581 448 336
3 448 222 715
3 447 227 228
3 825 248 395
3 856 219 220
3 268 342 833
3 676 796 245
3 823 822 251
3 675 258 676
3 819 343 818
3 525 412 524
3 196 125 720
3 801 337 414
3 901 113 527
3 527 305 415
3 450 170 722
3 703 353 702
3 427 666 548
3 358 667 862
3 753 187 574
3 444 723 574
3 47 776 46
3 50 740 549
3 776 861 620
3 752 573 190
3 621 193 422
3 725 274 724
3 477 753 368
3 729 150 530
3 924 931 242
3 278 376 329
3 486 155 800
3 651 650 229
3 186 187 753
3 791 27 480
3 345 900 602
3 894 893 270
3 886 293 587
3 4 439 3
3 786 257 759
3 437 145 144
3 816 246 815
3 577 314 422
3 195 41 736
3 706 704 705
3 783 374 782
3 595 594 677
3 809 273 865
3 808 543 739
3 908 910 907
3 653 876 830
3 705 704 255
3 471 428 320
3 85 483 83
3 902 504 393
3 926 510 347
3 556 553 431
3 451 210 743
3 610 436 558
3 614 372 613
3 846 544 381
3 300 843 834
3 784 315 761
3 598 439 563
3 777 148 147
3 642 150 476
3 814 256 714
3 713 706 241
3 829 828 324
3 837 836 247
3 797 542 353
3 749 181 569
3 652 651 229
3 652 667 651
3 314 621 422
3 42 539 736
3 44 643 43
3 723 313 724
3 626 197 198
3 117 521 116
3 889 882 883
3 786 413 304
3 770 617 769
3 10 596 9
3 602 279 373
3 403 615 567
3 356 758 655
3 413 785 582
3 659 316 658
3 6 473 746
3 583 449 784
3 659 257 378
3 315 786 759
3 787 489 257
3 554 206 432
3 5 746 563
3 597 596 360
3 356 655 552
3 891 586 392
3 587 392 586
3 893 899 298
3 758 761 272
3 755 356 552
3 761 315 759
3 293 889 890
3 664 131 132
3 533 897 345
3 559 556 322
3 764 559 763
3 534 134 1
3 756 10 11
3 11 465 756
3 598 316 439
3 637 473 7
3 423 133 534
3 882 617 238
3 465 11 12
3 597 452 596
3 291 387 261
3 428 471 668
3 645 325 479
3 701 700 311
3 574 187 188
3 702 443 312
3 149 476 150
3 839 844 300
3 686 683 287
3 518 209 210
3 802 337 801
3 717 208 209
3 629 418 628
3 618 217 458
3 674 833 302
3 812 590 253
3 737 177 541
3 281 375 374
3 727 723 444
3 711 442 571
3 554 322 431
3 766 560 764
3 523 413 199
3 412 197 524
3 784 356 583
3 199 413 200
3 665 304 525
3 489 807 378
3 647 141 481
3 933 242 932
3 689 394 688
3 555 61 434
3 532 217 733
3 557 226 436
3 13 630 12
3 790 792 791
3 566 404 565
3 215 472 216
3 535 25 419
3 795 536 794
3 403 793 615
3 454 221 732
3 794 792 793
3 19 461 18
3 824 825 330
3 182 495 183
3 183 443 182
3 569 182 443
3 190 573 189
3 797 424 542
3 799 483 370
3 361 774 605
3 656 156 157
3 800 155 156
3 521 905 411
3 446 119 120
3 584 171 450
3 576 382 575
3 847 178 177
3 359 629 628
3 869 323 868
3 590 812 309
3 123 418 121
3 175 445 176
3 699 167 511
3 806 488 377
3 760 766 765
3 786 315 785
3 810 915 235
3 201 739 543
3 812 810 809
3 812 809 309
3 575 176 445
3 626 433 323
3 208 513 207
3 874 299 401
3 342 717 518
3 203 438 202
3 283 246 842
3 701 282 351
3 817 317 855
3 377 917 487
3 750 711 571
3 750 174 175
3 815 813 814
3 710 236 652
3 283 377 332
3 381 604 603
3 681 408 680
3 818 820 819
3 914 593 912
3 718 188 519
3 803 292 802
3 408 186 680
3 824 823 251
3 287 682 384
3 296 398 341
3 819 294 343
3 520 343 410
3 30 485 29
3 405 225 515
3 41 195 410
3 380 379 284
3 694 660 31
3 385 789 936
3 689 266 394
3 64 65 623
3 62 434 61
3 588 363 277
3 828 310 420
3 469 363 747
3 858 459 859
3 654 653 240
3 714 707 654
3 513 208 717
3 693 35 409
3 678 684 244
3 869 629 359
3 491 831 214
3 579 264 679
3 247 835 285
3 406 608 105
3 100 845 99
3 838 247 853
3 324 642 476
3 143 745 561
3 319 634 467
3 653 830 240
3 109 429 108
3 106 406 105
3 381 545 285
3 135 544 846
3 686 244 683
3 823 409 822
3 192 599 453
3 719 194 193
3 332 699 511
3 108 920 107
3 538 142 141
3 545 463 285
3 745 354 561
3 421 537 834
3 604 455 603
3 835 834 348
3 282 813 815
3 609 852 775
3 184 494 185
3 600 296 818
3 721 901 112
3 595 232 594
3 624 382 321
3 184 183 849
3 747 564 155
3 468 328 362
3 60 827 59
3 510 399 71
3 817 246 816
3 839 300 836
3 713 241 714
3 104 457 103
3 701 311 256
3 517 842 406
3 164 487 112
3 517 406 106
3 220 580 856
3 222 448 221
3 312 709 879
3 46 620 45
3 862 863 540
3 727 444 573
3 861 859 620
3 313 727 728
3 482 374 375
3 644 850 478
3 708 443 570
3 667 306 651
3 241 707 714
3 667 652 236
3 44 45 459
3 705 255 652
3 595 781 778
3 909 235 908
3 593 811 592
3 628 125 627
3 869 464 323
3 124 418 123
3 868 273 867
3 911 914 912
3 914 911 805
3 865 350 809
3 679 235 909
3 810 867 273
3 261 387 326
3 139 140 870
3 742 662 550
3 500 331 388
3 139 499 138
3 320 291 262
3 307 607 606
3 500 147 690
3 866 433 864
3 685 684 678
3 173 875 501
3 529 305 414
3 633 157 440
3 469 310 363
3 876 254 829
3 829 254 828
3 876 829 830
3 328 633 440
3 311 711 712
3 255 710 652
3 610 558 373
3 216 733 217
3 586 212 211
3 632 631 243
3 213 891 503
3 883 270 890
3 768 560 767
3 553 209 208
3 263 885 881
3 503 214 213
3 695 334 472
3 423 132 133
3 891 213 212
3 889 293 888
3 746 366 563
3 392 890 334
3 884 881 882
3 895 894 270
3 293 886 888
3 888 884 889
3 556 339 553
3 207 431 208
3 883 890 889
3 891 392 503
3 441 16 567
3 417 218 532
3 900 279 602
3 631 630 404
3 770 769 340
3 566 612 404
3 887 556 263
3 10 756 596
3 12 630 465
3 452 770 340
3 899 243 696
3 345 602 454
3 899 696 898
3 243 631 404
3 757 373 558
3 732 220 533
3 898 897 298
3 601 222 454
3 801 259 802
3 674 302 673
3 389 291 320
3 505 393 349
3 164 901 526
3 921 450 337
3 527 114 522
3 116 411 115
3 903 522 904
3 346 754 578
3 578 119 446
3 904 259 903
3 197 626 464
3 287 383 321
3 299 589 402
3 205 402 204
3 433 198 199
3 809 350 808
3 847 575 382
3 446 579 578
3 494 681 680
3 173 501 174
3 286 260 321
3 618 216 217
3 803 250 292
3 684 303 683
3 848 181 625
3 915 593 914
3 903 801 305
3 112 901 164
3 679 346 579
3 495 383 384
3 107 920 517
3 429 919 920
3 713 256 712
3 817 855 406
3 112 918 111
3 622 844 276
3 517 920 842
3 164 165 806
3 875 173 172
3 175 692 445
3 662 742 349
3 146 500 873
3 937 297 930
3 81 456 80
3 385 936 688
3 930 931 937
3 639 327 474
3 474 327 367
3 871 390 646
3 690 331 500
3 486 376 344
3 364 923 269
3 938 923 937
3 486 730 154
3 657 329 484
3 951 329 952
3 606 361 605
3 928 788 930
3 278 935 934
3 266 397 338
3 928 927 344
3 74 640 475
3 933 385 509
3 142 646 481
3 934 932 788
3 66 67 687
3 399 70 71
3 929 928 344
3 934 935 789
3 347 948 947
3 153 531 152
3 943 945 944
3 951 935 278
3 474 76 639
3 76 474 75
3 367 945 948
3 940 949 942
3 656 157 484
3 729 364 470
3 930 297 928
3 137 872 498
3 942 237 943
3 416 922 530
3 376 929 344
3 233 291 944
3 873 500 388
3 367 948 475
3 367 327 945
3 932 789 933
3 729 149 150
3 142 481 141
3 370 638 456
3 327 466 361
3 331 470 364
3 789 385 933
3 456 606 605
3 945 327 944
3 646 390 326
3 950 948 237
3 249 936 935
3 688 394 687
3 851 69 509

CELL_TYPES 1763
5
5
5
5
5
5
5
5
5
5
5
5
5
5
5
5
5
5
5
5
5
5
5
5
5
5
5
5
5
5
5
5
5
5
5
5
5
5
5
5
5
5
5
5
5
5
5
5
5
5
5
5
5
5
5
5
5
5
5
5
5
5
5
5
5
5
5
5
5
5
5
5
5
5
5
5
5
5
5
5
5
5
5
5
5
5
5
5
5
5
5
5
5
5
5
5
5
5
5
5
5
5
5
5
5
5
5
5
5
5
5
5
5
5
5
5
5
5
5
5
5
5
5
5
5
5
5
5
5
5
5
5
5
5
5
5
5
5
5
5
5
5
5
5
5
5
5
5
5
5
5
5
5
5
5
5
5
5
5
5
5
5
5
5
5
5
5
5
5
5
5
5
5
5
5
5
5
5
5
5
5
5
5
5
5
5
5
5
5
5
5
5
5
5
5
5
5
5
5
5
5
5
5
5
5
5
5
5
5
5
5
5
5
5
5
5
5
5
5
5
5
5
5
5
5
5
5
5
5
5
5
5
5
5
5
5
5
5
5
5
5
5
5
5
5
5
5
5
5
5
5
5
5
5
5
5
5
5
5
5
5
5
5
5
5
5
5
5
5
5
5
5
5
5
5
5
5
5
5
5
5
5
5
5
5
5
5
5
5
5
5
5
5
5
5
5
5
5
5
5
5
5
5
5
5
5
5
5
5
5
5
5
5
5
5
5
5
5
5
5
5
5
5
5
5
5
5
5
5
5
5
5
5
5
5
5
5
5
5
5
5
5
5
5
5
5
5
5
5
5
5
5
5
5
5
5
5
5
5
5
5
5
5
5
5
5
5
5
5
5
5
5
5
5
5
5
5
5
5
5
5
5
5
5
5
5
5
5
5
5
5
5
5
5
5
5
5
5
5
5
5
5
5
5
5
5
5
5
5
5
5
5
5
5
5
5
5
5
5
5
5
5
5
5
5
5
5
5
5
5
5
5
5
5
5
5
5
5
5
5
5
5
5
5
5
5
5
5
5
5
5
5
5
5
5
5
5
5
5
5
5
5
5
5
5
5
5
5
5
5
5
5
5
5
5
5
5
5
5
5
5
5
5
5
5
5
5
5
5
5
5
5
5
5
5
5
5
5
5
5
5
5
5
5
5
5
5
5
5
5
5
5
5
5
5
5
5
5
5
5
5
5
5
5
5
5
5
5
5
5
5
5
5
5
5
5
5
5
5
5
5
5
5
5
5
5
5
5
5
5
5
5
5
5
5
5
5
5
5
5
5
5
5
5
5
5
5
5
5
5
5
5
5
5
5
5
5
5
5
5
5
5
5
5
5
5
5
5
5
5
5
5
5
5
5
5
5
5
5
5
5
5
5
5
5
5
5
5
5
5
5
5
5
5
5
5
5
5
5
5
5
5
5
5
5
5
5
5
5
5
5
5
5
5
5
5
5
5
5
5
5
5
5
5
5
5
5
5
5
5
5
5
5
5
5
5
5
5
5
5
5
5
5
5
5
5
5
5
5
5
5
5
5
5
5
5
5
5
5
5
5
5
5
5
5
5
5
5
5
5
5
5
5
5
5
5
5
5
5
5
5
5
5
5
5
5
5
5
5
5
5
5
5
5
5
5
5
5
5
5
5
5
5
5
5
5
5
5
5
5
5
5
5
5
5
5
5
5
5
5
5
5
5
5
5
5
5
5
5
5
5
5
5
5
5
5
5
5
5
5
5
5
5
5
5
5
5
5
5
5
5
5
5
5
5
5
5
5
5
5
5
5
5
5
5
5
5
5
5
5
5
5
5
5
5
5
5
5
5
5
5
5
5
5
5
5
5
5
5
5
5
5
5
5
5
5
5
5
5
5
5
5
5
5
5
5
5
5
5
5
5
5
5
5
5
5
5
5
5
5
5
5
5
5
5
5
5
5
5
5
5
5
5
5
5
5
5
5
5
5
5
5
5
5
5
5
5
5
5
5
5
5
5
5
5
5
5
5
5
5
5
5
5
5
5
5
5
5
5
5
5
5
5
5
5
5
5
5
5
5
5
5
5
5
5
5
5
5
5
5
5
5
5
5
5
5
5
5
5
5
5
5
5
5
5
5
5
5
5
5
5
5
5
5
5
5
5
5
5
5
5
5
5
5
5
5
5
5
5
5
5
5
5
5
5
5
5
5
5
5
5
5
5
5
5
5
5
5
5
5
5
5
5
5
5
5
5
5
5
5
5
5
5
5
5
5
5
5
5
5
5
5
5
5
5
5
5
5
5
5
5
5
5
5
5
5
5
5
5
5
5
5
5
5
5
5
5
5
5
5
5
5
5
5
5
5
5
5
5
5
5
5
5
5
5
5
5
5
5
5
5
5
5
5
5
5
5
5
5
5
5
5
5
5
5
5
5
5
5
5
5
5
5
5
5
5
5
5
5
5
5
5
5
5
5
5
5
5
5
5
5
5
5
5
5
5
5
5
5
5
5
5
5
5
5
5
5
5
5
5
5
5
5
5
5
5
5
5
5
5
5
5
5
5
5
5
5
5
5
5
5
5
5
5
5
5
5
5
5
5
5
5
5
5
5
5
5
5
5
5
5
5
5
5
5
5
5
5
5
5
5
5
5
5
5
5
5
5
5
5
5
5
5
5
5
5
5
5
5
5
5
5
5
5
5
5
5
5
5
5
5
5
5
5
5
5
5
5
5
5
5
5
5
5
5
5
5
5
5
5
5
5
5
5
5
5
5
5
5
5
5
5
5
5
5
5
5
5
5
5
5
5
5
5
5
5
5
5
5
5
5
5
5
5
5
5
5
5
5
5
5
5
5
5
5
5
5
5
5
5
5
5
5
5
5
5
5
5
5
5
5
5
5
5
5
5
5
5
5
5
5
5
5
5
5
5
5
5
5
5
5
5
5
5
5
5
5
5
5
5
5
5
5
5
5
5
5
5
5
5
5
5
5
5
5
5
5
5
5
5
5
5
5
5
5
5
5
5
5
5
5
5
5
5
5
5
5
5
5
5
5
5
5
5
5
5
5
5
5
5
5
5
5
5
5
5
5
5
5
5
5
5
5
5
5
5
5
5
5
5
5
5
5
5
5
5
5
5
5
5
5
5
5
5
5
5
5
5
5
5
5
5
5
5
5
5
5
5
5
5
5
5
5
5
5
5
5
5
5
5
5
5
5
5
5
5
5
5
5
5
5
5
5
5
5
5
5
5
5
5
5
5
5
5
5
5
5
5
5
5
5
5
5
5
5
5
5
5
5
5
5
5
5
5
5
5
5
5
5
5
5
5
5
5
5
5
5
5
5
5
5
5
5
5
5
5
5
5
5
5
5
5
5
5
5
5
5
5
5
5
5
5
5
5
5
5
5
5
5
5
5
5
5
5
5
5
5
5
5
5
5
5
5
5
5
5
5
5
5
5
5
5
5
5
5
5
5
5
5
5
5
5
5
5
5
5
5
5
5
5
5
5
5
5
5
5
5
5
5
5
5
5
5
5
5
5
5
5
5
5
5
5
5
5
5
5
5
5
5
5
5
5
5
5
5
5
5
5
5
5
5
5
5
5
5
5
5
5
5
5
5
5
5
5
5
5
5
5
5
5
5
5
5
5
5
5
5
5
5
5
5
5
5
5
5
5
5
5
5
5
5
5
5
5
5
5
5
5
5
5
5
5
5
5
5
5
5
5
5
5
5
5
5
5
5
5
5
5
5
5
5
5
5
5
5
5
5
5
5
5
5
5
5
5
5
5
5
5
5
5
5
5
5
5
5
5
5
5
5
5
5
5
5
5
5
5
5
5
5
5
5
5
5
5
5
5
5
5
5
5
5
5
5
5
5
5
5
5
5
5
5
5
5
5
5
5
5
5
5
5
5
5
5
5
5
5
5
5
5
5
5
5
5
5
5
5
5
5
5
5
5
5
5
5
5
5
5
5
5
5
5
5
5
5
5
5
5
5
5
5
5
5
5
5
5
5
5
5
5
5
5
5
5

