# vtk DataFile Version 2.0
GMS geological model mesh
ASCII
DATASET UNSTRUCTURED_GRID
POINTS      726 double
   0.0000000000000000        0.0000000000000000        0.0000000000000000     
  0.29999999999999999        0.0000000000000000        0.0000000000000000     
  0.59999999999999998        0.0000000000000000        0.0000000000000000     
  0.90000000000000002        0.0000000000000000        0.0000000000000000     
   1.2000000000000000        0.0000000000000000        0.0000000000000000     
   1.5000000000000000        0.0000000000000000        0.0000000000000000     
   1.8000000000000000        0.0000000000000000        0.0000000000000000     
   2.1000000000000001        0.0000000000000000        0.0000000000000000     
   2.3999999999999999        0.0000000000000000        0.0000000000000000     
   2.7000000000000002        0.0000000000000000        0.0000000000000000     
   3.0000000000000000        0.0000000000000000        0.0000000000000000     
   0.0000000000000000       0.20000000000000001        0.0000000000000000     
  0.29999999999999999       0.20000000000000001        0.0000000000000000     
  0.59999999999999998       0.20000000000000001        0.0000000000000000     
  0.90000000000000002       0.20000000000000001        0.0000000000000000     
   1.2000000000000000       0.20000000000000001        0.0000000000000000     
   1.5000000000000000       0.20000000000000001        0.0000000000000000     
   1.8000000000000000       0.20000000000000001        0.0000000000000000     
   2.1000000000000001       0.20000000000000001        0.0000000000000000     
   2.3999999999999999       0.20000000000000001        0.0000000000000000     
   2.7000000000000002       0.20000000000000001        0.0000000000000000     
   3.0000000000000000       0.20000000000000001        0.0000000000000000     
   0.0000000000000000       0.40000000000000002        0.0000000000000000     
  0.29999999999999999       0.40000000000000002        0.0000000000000000     
  0.59999999999999998       0.40000000000000002        0.0000000000000000     
  0.90000000000000002       0.40000000000000002        0.0000000000000000     
   1.2000000000000000       0.40000000000000002        0.0000000000000000     
   1.5000000000000000       0.40000000000000002        0.0000000000000000     
   1.8000000000000000       0.40000000000000002        0.0000000000000000     
   2.1000000000000001       0.40000000000000002        0.0000000000000000     
   2.3999999999999999       0.40000000000000002        0.0000000000000000     
   2.7000000000000002       0.40000000000000002        0.0000000000000000     
   3.0000000000000000       0.40000000000000002        0.0000000000000000     
   0.0000000000000000       0.59999999999999998        0.0000000000000000     
  0.29999999999999999       0.59999999999999998        0.0000000000000000     
  0.59999999999999998       0.59999999999999998        0.0000000000000000     
  0.90000000000000002       0.59999999999999998        0.0000000000000000     
   1.2000000000000000       0.59999999999999998        0.0000000000000000     
   1.5000000000000000       0.59999999999999998        0.0000000000000000     
   1.8000000000000000       0.59999999999999998        0.0000000000000000     
   2.1000000000000001       0.59999999999999998        0.0000000000000000     
   2.3999999999999999       0.59999999999999998        0.0000000000000000     
   2.7000000000000002       0.59999999999999998        0.0000000000000000     
   3.0000000000000000       0.59999999999999998        0.0000000000000000     
   0.0000000000000000       0.80000000000000004        0.0000000000000000     
  0.29999999999999999       0.80000000000000004        0.0000000000000000     
  0.59999999999999998       0.80000000000000004        0.0000000000000000     
  0.90000000000000002       0.80000000000000004        0.0000000000000000     
   1.2000000000000000       0.80000000000000004        0.0000000000000000     
   1.5000000000000000       0.80000000000000004        0.0000000000000000     
   1.8000000000000000       0.80000000000000004        0.0000000000000000     
   2.1000000000000001       0.80000000000000004        0.0000000000000000     
   2.3999999999999999       0.80000000000000004        0.0000000000000000     
   2.7000000000000002       0.80000000000000004        0.0000000000000000     
   3.0000000000000000       0.80000000000000004        0.0000000000000000     
   0.0000000000000000        1.0000000000000000        0.0000000000000000     
  0.29999999999999999        1.0000000000000000        0.0000000000000000     
  0.59999999999999998        1.0000000000000000        0.0000000000000000     
  0.90000000000000002        1.0000000000000000        0.0000000000000000     
   1.2000000000000000        1.0000000000000000        0.0000000000000000     
   1.5000000000000000        1.0000000000000000        0.0000000000000000     
   1.8000000000000000        1.0000000000000000        0.0000000000000000     
   2.1000000000000001        1.0000000000000000        0.0000000000000000     
   2.3999999999999999        1.0000000000000000        0.0000000000000000     
   2.7000000000000002        1.0000000000000000        0.0000000000000000     
   3.0000000000000000        1.0000000000000000        0.0000000000000000     
   0.0000000000000000        0.0000000000000000       0.20000000000000001     
  0.29999999999999999        0.0000000000000000       0.20000000000000001     
  0.59999999999999998        0.0000000000000000       0.20000000000000001     
  0.90000000000000002        0.0000000000000000       0.20000000000000001     
   1.2000000000000000        0.0000000000000000       0.20000000000000001     
   1.5000000000000000        0.0000000000000000       0.20000000000000001     
   1.8000000000000000        0.0000000000000000       0.20000000000000001     
   2.1000000000000001        0.0000000000000000       0.20000000000000001     
   2.3999999999999999        0.0000000000000000       0.20000000000000001     
   2.7000000000000002        0.0000000000000000       0.20000000000000001     
   3.0000000000000000        0.0000000000000000       0.20000000000000001     
   0.0000000000000000       0.20000000000000001       0.20000000000000001     
  0.29999999999999999       0.20000000000000001       0.20000000000000001     
  0.59999999999999998       0.20000000000000001       0.20000000000000001     
  0.90000000000000002       0.20000000000000001       0.20000000000000001     
   1.2000000000000000       0.20000000000000001       0.20000000000000001     
   1.5000000000000000       0.20000000000000001       0.20000000000000001     
   1.8000000000000000       0.20000000000000001       0.20000000000000001     
   2.1000000000000001       0.20000000000000001       0.20000000000000001     
   2.3999999999999999       0.20000000000000001       0.20000000000000001     
   2.7000000000000002       0.20000000000000001       0.20000000000000001     
   3.0000000000000000       0.20000000000000001       0.20000000000000001     
   0.0000000000000000       0.40000000000000002       0.20000000000000001     
  0.29999999999999999       0.40000000000000002       0.20000000000000001     
  0.59999999999999998       0.40000000000000002       0.20000000000000001     
  0.90000000000000002       0.40000000000000002       0.20000000000000001     
   1.2000000000000000       0.40000000000000002       0.20000000000000001     
   1.5000000000000000       0.40000000000000002       0.20000000000000001     
   1.8000000000000000       0.40000000000000002       0.20000000000000001     
   2.1000000000000001       0.40000000000000002       0.20000000000000001     
   2.3999999999999999       0.40000000000000002       0.20000000000000001     
   2.7000000000000002       0.40000000000000002       0.20000000000000001     
   3.0000000000000000       0.40000000000000002       0.20000000000000001     
   0.0000000000000000       0.59999999999999998       0.20000000000000001     
  0.29999999999999999       0.59999999999999998       0.20000000000000001     
  0.59999999999999998       0.59999999999999998       0.20000000000000001     
  0.90000000000000002       0.59999999999999998       0.20000000000000001     
   1.2000000000000000       0.59999999999999998       0.20000000000000001     
   1.5000000000000000       0.59999999999999998       0.20000000000000001     
   1.8000000000000000       0.59999999999999998       0.20000000000000001     
   2.1000000000000001       0.59999999999999998       0.20000000000000001     
   2.3999999999999999       0.59999999999999998       0.20000000000000001     
   2.7000000000000002       0.59999999999999998       0.20000000000000001     
   3.0000000000000000       0.59999999999999998       0.20000000000000001     
   0.0000000000000000       0.80000000000000004       0.20000000000000001     
  0.29999999999999999       0.80000000000000004       0.20000000000000001     
  0.59999999999999998       0.80000000000000004       0.20000000000000001     
  0.90000000000000002       0.80000000000000004       0.20000000000000001     
   1.2000000000000000       0.80000000000000004       0.20000000000000001     
   1.5000000000000000       0.80000000000000004       0.20000000000000001     
   1.8000000000000000       0.80000000000000004       0.20000000000000001     
   2.1000000000000001       0.80000000000000004       0.20000000000000001     
   2.3999999999999999       0.80000000000000004       0.20000000000000001     
   2.7000000000000002       0.80000000000000004       0.20000000000000001     
   3.0000000000000000       0.80000000000000004       0.20000000000000001     
   0.0000000000000000        1.0000000000000000       0.20000000000000001     
  0.29999999999999999        1.0000000000000000       0.20000000000000001     
  0.59999999999999998        1.0000000000000000       0.20000000000000001     
  0.90000000000000002        1.0000000000000000       0.20000000000000001     
   1.2000000000000000        1.0000000000000000       0.20000000000000001     
   1.5000000000000000        1.0000000000000000       0.20000000000000001     
   1.8000000000000000        1.0000000000000000       0.20000000000000001     
   2.1000000000000001        1.0000000000000000       0.20000000000000001     
   2.3999999999999999        1.0000000000000000       0.20000000000000001     
   2.7000000000000002        1.0000000000000000       0.20000000000000001     
   3.0000000000000000        1.0000000000000000       0.20000000000000001     
   0.0000000000000000        0.0000000000000000       0.40000000000000002     
  0.29999999999999999        0.0000000000000000       0.40000000000000002     
  0.59999999999999998        0.0000000000000000       0.40000000000000002     
  0.90000000000000002        0.0000000000000000       0.40000000000000002     
   1.2000000000000000        0.0000000000000000       0.40000000000000002     
   1.5000000000000000        0.0000000000000000       0.40000000000000002     
   1.8000000000000000        0.0000000000000000       0.40000000000000002     
   2.1000000000000001        0.0000000000000000       0.40000000000000002     
   2.3999999999999999        0.0000000000000000       0.40000000000000002     
   2.7000000000000002        0.0000000000000000       0.40000000000000002     
   3.0000000000000000        0.0000000000000000       0.40000000000000002     
   0.0000000000000000       0.20000000000000001       0.40000000000000002     
  0.29999999999999999       0.20000000000000001       0.40000000000000002     
  0.59999999999999998       0.20000000000000001       0.40000000000000002     
  0.90000000000000002       0.20000000000000001       0.40000000000000002     
   1.2000000000000000       0.20000000000000001       0.40000000000000002     
   1.5000000000000000       0.20000000000000001       0.40000000000000002     
   1.8000000000000000       0.20000000000000001       0.40000000000000002     
   2.1000000000000001       0.20000000000000001       0.40000000000000002     
   2.3999999999999999       0.20000000000000001       0.40000000000000002     
   2.7000000000000002       0.20000000000000001       0.40000000000000002     
   3.0000000000000000       0.20000000000000001       0.40000000000000002     
   0.0000000000000000       0.40000000000000002       0.40000000000000002     
  0.29999999999999999       0.40000000000000002       0.40000000000000002     
  0.59999999999999998       0.40000000000000002       0.40000000000000002     
  0.90000000000000002       0.40000000000000002       0.40000000000000002     
   1.2000000000000000       0.40000000000000002       0.40000000000000002     
   1.5000000000000000       0.40000000000000002       0.40000000000000002     
   1.8000000000000000       0.40000000000000002       0.40000000000000002     
   2.1000000000000001       0.40000000000000002       0.40000000000000002     
   2.3999999999999999       0.40000000000000002       0.40000000000000002     
   2.7000000000000002       0.40000000000000002       0.40000000000000002     
   3.0000000000000000       0.40000000000000002       0.40000000000000002     
   0.0000000000000000       0.59999999999999998       0.40000000000000002     
  0.29999999999999999       0.59999999999999998       0.40000000000000002     
  0.59999999999999998       0.59999999999999998       0.40000000000000002     
  0.90000000000000002       0.59999999999999998       0.40000000000000002     
   1.2000000000000000       0.59999999999999998       0.40000000000000002     
   1.5000000000000000       0.59999999999999998       0.40000000000000002     
   1.8000000000000000       0.59999999999999998       0.40000000000000002     
   2.1000000000000001       0.59999999999999998       0.40000000000000002     
   2.3999999999999999       0.59999999999999998       0.40000000000000002     
   2.7000000000000002       0.59999999999999998       0.40000000000000002     
   3.0000000000000000       0.59999999999999998       0.40000000000000002     
   0.0000000000000000       0.80000000000000004       0.40000000000000002     
  0.29999999999999999       0.80000000000000004       0.40000000000000002     
  0.59999999999999998       0.80000000000000004       0.40000000000000002     
  0.90000000000000002       0.80000000000000004       0.40000000000000002     
   1.2000000000000000       0.80000000000000004       0.40000000000000002     
   1.5000000000000000       0.80000000000000004       0.40000000000000002     
   1.8000000000000000       0.80000000000000004       0.40000000000000002     
   2.1000000000000001       0.80000000000000004       0.40000000000000002     
   2.3999999999999999       0.80000000000000004       0.40000000000000002     
   2.7000000000000002       0.80000000000000004       0.40000000000000002     
   3.0000000000000000       0.80000000000000004       0.40000000000000002     
   0.0000000000000000        1.0000000000000000       0.40000000000000002     
  0.29999999999999999        1.0000000000000000       0.40000000000000002     
  0.59999999999999998        1.0000000000000000       0.40000000000000002     
  0.90000000000000002        1.0000000000000000       0.40000000000000002     
   1.2000000000000000        1.0000000000000000       0.40000000000000002     
   1.5000000000000000        1.0000000000000000       0.40000000000000002     
   1.8000000000000000        1.0000000000000000       0.40000000000000002     
   2.1000000000000001        1.0000000000000000       0.40000000000000002     
   2.3999999999999999        1.0000000000000000       0.40000000000000002     
   2.7000000000000002        1.0000000000000000       0.40000000000000002     
   3.0000000000000000        1.0000000000000000       0.40000000000000002     
   0.0000000000000000        0.0000000000000000       0.59999999999999998     
  0.29999999999999999        0.0000000000000000       0.59999999999999998     
  0.59999999999999998        0.0000000000000000       0.59999999999999998     
  0.90000000000000002        0.0000000000000000       0.59999999999999998     
   1.2000000000000000        0.0000000000000000       0.59999999999999998     
   1.5000000000000000        0.0000000000000000       0.59999999999999998     
   1.8000000000000000        0.0000000000000000       0.59999999999999998     
   2.1000000000000001        0.0000000000000000       0.59999999999999998     
   2.3999999999999999        0.0000000000000000       0.59999999999999998     
   2.7000000000000002        0.0000000000000000       0.59999999999999998     
   3.0000000000000000        0.0000000000000000       0.59999999999999998     
   0.0000000000000000       0.20000000000000001       0.59999999999999998     
  0.29999999999999999       0.20000000000000001       0.59999999999999998     
  0.59999999999999998       0.20000000000000001       0.59999999999999998     
  0.90000000000000002       0.20000000000000001       0.59999999999999998     
   1.2000000000000000       0.20000000000000001       0.59999999999999998     
   1.5000000000000000       0.20000000000000001       0.59999999999999998     
   1.8000000000000000       0.20000000000000001       0.59999999999999998     
   2.1000000000000001       0.20000000000000001       0.59999999999999998     
   2.3999999999999999       0.20000000000000001       0.59999999999999998     
   2.7000000000000002       0.20000000000000001       0.59999999999999998     
   3.0000000000000000       0.20000000000000001       0.59999999999999998     
   0.0000000000000000       0.40000000000000002       0.59999999999999998     
  0.29999999999999999       0.40000000000000002       0.59999999999999998     
  0.59999999999999998       0.40000000000000002       0.59999999999999998     
  0.90000000000000002       0.40000000000000002       0.59999999999999998     
   1.2000000000000000       0.40000000000000002       0.59999999999999998     
   1.5000000000000000       0.40000000000000002       0.59999999999999998     
   1.8000000000000000       0.40000000000000002       0.59999999999999998     
   2.1000000000000001       0.40000000000000002       0.59999999999999998     
   2.3999999999999999       0.40000000000000002       0.59999999999999998     
   2.7000000000000002       0.40000000000000002       0.59999999999999998     
   3.0000000000000000       0.40000000000000002       0.59999999999999998     
   0.0000000000000000       0.59999999999999998       0.59999999999999998     
  0.29999999999999999       0.59999999999999998       0.59999999999999998     
  0.59999999999999998       0.59999999999999998       0.59999999999999998     
  0.90000000000000002       0.59999999999999998       0.59999999999999998     
   1.2000000000000000       0.59999999999999998       0.59999999999999998     
   1.5000000000000000       0.59999999999999998       0.59999999999999998     
   1.8000000000000000       0.59999999999999998       0.59999999999999998     
   2.1000000000000001       0.59999999999999998       0.59999999999999998     
   2.3999999999999999       0.59999999999999998       0.59999999999999998     
   2.7000000000000002       0.59999999999999998       0.59999999999999998     
   3.0000000000000000       0.59999999999999998       0.59999999999999998     
   0.0000000000000000       0.80000000000000004       0.59999999999999998     
  0.29999999999999999       0.80000000000000004       0.59999999999999998     
  0.59999999999999998       0.80000000000000004       0.59999999999999998     
  0.90000000000000002       0.80000000000000004       0.59999999999999998     
   1.2000000000000000       0.80000000000000004       0.59999999999999998     
   1.5000000000000000       0.80000000000000004       0.59999999999999998     
   1.8000000000000000       0.80000000000000004       0.59999999999999998     
   2.1000000000000001       0.80000000000000004       0.59999999999999998     
   2.3999999999999999       0.80000000000000004       0.59999999999999998     
   2.7000000000000002       0.80000000000000004       0.59999999999999998     
   3.0000000000000000       0.80000000000000004       0.59999999999999998     
   0.0000000000000000        1.0000000000000000       0.59999999999999998     
  0.29999999999999999        1.0000000000000000       0.59999999999999998     
  0.59999999999999998        1.0000000000000000       0.59999999999999998     
  0.90000000000000002        1.0000000000000000       0.59999999999999998     
   1.2000000000000000        1.0000000000000000       0.59999999999999998     
   1.5000000000000000        1.0000000000000000       0.59999999999999998     
   1.8000000000000000        1.0000000000000000       0.59999999999999998     
   2.1000000000000001        1.0000000000000000       0.59999999999999998     
   2.3999999999999999        1.0000000000000000       0.59999999999999998     
   2.7000000000000002        1.0000000000000000       0.59999999999999998     
   3.0000000000000000        1.0000000000000000       0.59999999999999998     
   0.0000000000000000        0.0000000000000000       0.80000000000000004     
  0.29999999999999999        0.0000000000000000       0.80000000000000004     
  0.59999999999999998        0.0000000000000000       0.80000000000000004     
  0.90000000000000002        0.0000000000000000       0.80000000000000004     
   1.2000000000000000        0.0000000000000000       0.80000000000000004     
   1.5000000000000000        0.0000000000000000       0.80000000000000004     
   1.8000000000000000        0.0000000000000000       0.80000000000000004     
   2.1000000000000001        0.0000000000000000       0.80000000000000004     
   2.3999999999999999        0.0000000000000000       0.80000000000000004     
   2.7000000000000002        0.0000000000000000       0.80000000000000004     
   3.0000000000000000        0.0000000000000000       0.80000000000000004     
   0.0000000000000000       0.20000000000000001       0.80000000000000004     
  0.29999999999999999       0.20000000000000001       0.80000000000000004     
  0.59999999999999998       0.20000000000000001       0.80000000000000004     
  0.90000000000000002       0.20000000000000001       0.80000000000000004     
   1.2000000000000000       0.20000000000000001       0.80000000000000004     
   1.5000000000000000       0.20000000000000001       0.80000000000000004     
   1.8000000000000000       0.20000000000000001       0.80000000000000004     
   2.1000000000000001       0.20000000000000001       0.80000000000000004     
   2.3999999999999999       0.20000000000000001       0.80000000000000004     
   2.7000000000000002       0.20000000000000001       0.80000000000000004     
   3.0000000000000000       0.20000000000000001       0.80000000000000004     
   0.0000000000000000       0.40000000000000002       0.80000000000000004     
  0.29999999999999999       0.40000000000000002       0.80000000000000004     
  0.59999999999999998       0.40000000000000002       0.80000000000000004     
  0.90000000000000002       0.40000000000000002       0.80000000000000004     
   1.2000000000000000       0.40000000000000002       0.80000000000000004     
   1.5000000000000000       0.40000000000000002       0.80000000000000004     
   1.8000000000000000       0.40000000000000002       0.80000000000000004     
   2.1000000000000001       0.40000000000000002       0.80000000000000004     
   2.3999999999999999       0.40000000000000002       0.80000000000000004     
   2.7000000000000002       0.40000000000000002       0.80000000000000004     
   3.0000000000000000       0.40000000000000002       0.80000000000000004     
   0.0000000000000000       0.59999999999999998       0.80000000000000004     
  0.29999999999999999       0.59999999999999998       0.80000000000000004     
  0.59999999999999998       0.59999999999999998       0.80000000000000004     
  0.90000000000000002       0.59999999999999998       0.80000000000000004     
   1.2000000000000000       0.59999999999999998       0.80000000000000004     
   1.5000000000000000       0.59999999999999998       0.80000000000000004     
   1.8000000000000000       0.59999999999999998       0.80000000000000004     
   2.1000000000000001       0.59999999999999998       0.80000000000000004     
   2.3999999999999999       0.59999999999999998       0.80000000000000004     
   2.7000000000000002       0.59999999999999998       0.80000000000000004     
   3.0000000000000000       0.59999999999999998       0.80000000000000004     
   0.0000000000000000       0.80000000000000004       0.80000000000000004     
  0.29999999999999999       0.80000000000000004       0.80000000000000004     
  0.59999999999999998       0.80000000000000004       0.80000000000000004     
  0.90000000000000002       0.80000000000000004       0.80000000000000004     
   1.2000000000000000       0.80000000000000004       0.80000000000000004     
   1.5000000000000000       0.80000000000000004       0.80000000000000004     
   1.8000000000000000       0.80000000000000004       0.80000000000000004     
   2.1000000000000001       0.80000000000000004       0.80000000000000004     
   2.3999999999999999       0.80000000000000004       0.80000000000000004     
   2.7000000000000002       0.80000000000000004       0.80000000000000004     
   3.0000000000000000       0.80000000000000004       0.80000000000000004     
   0.0000000000000000        1.0000000000000000       0.80000000000000004     
  0.29999999999999999        1.0000000000000000       0.80000000000000004     
  0.59999999999999998        1.0000000000000000       0.80000000000000004     
  0.90000000000000002        1.0000000000000000       0.80000000000000004     
   1.2000000000000000        1.0000000000000000       0.80000000000000004     
   1.5000000000000000        1.0000000000000000       0.80000000000000004     
   1.8000000000000000        1.0000000000000000       0.80000000000000004     
   2.1000000000000001        1.0000000000000000       0.80000000000000004     
   2.3999999999999999        1.0000000000000000       0.80000000000000004     
   2.7000000000000002        1.0000000000000000       0.80000000000000004     
   3.0000000000000000        1.0000000000000000       0.80000000000000004     
   0.0000000000000000        0.0000000000000000        1.0000000000000000     
  0.29999999999999999        0.0000000000000000        1.0000000000000000     
  0.59999999999999998        0.0000000000000000        1.0000000000000000     
  0.90000000000000002        0.0000000000000000        1.0000000000000000     
   1.2000000000000000        0.0000000000000000        1.0000000000000000     
   1.5000000000000000        0.0000000000000000        1.0000000000000000     
   1.8000000000000000        0.0000000000000000        1.0000000000000000     
   2.1000000000000001        0.0000000000000000        1.0000000000000000     
   2.3999999999999999        0.0000000000000000        1.0000000000000000     
   2.7000000000000002        0.0000000000000000        1.0000000000000000     
   3.0000000000000000        0.0000000000000000        1.0000000000000000     
   0.0000000000000000       0.20000000000000001        1.0000000000000000     
  0.29999999999999999       0.20000000000000001        1.0000000000000000     
  0.59999999999999998       0.20000000000000001        1.0000000000000000     
  0.90000000000000002       0.20000000000000001        1.0000000000000000     
   1.2000000000000000       0.20000000000000001        1.0000000000000000     
   1.5000000000000000       0.20000000000000001        1.0000000000000000     
   1.8000000000000000       0.20000000000000001        1.0000000000000000     
   2.1000000000000001       0.20000000000000001        1.0000000000000000     
   2.3999999999999999       0.20000000000000001        1.0000000000000000     
   2.7000000000000002       0.20000000000000001        1.0000000000000000     
   3.0000000000000000       0.20000000000000001        1.0000000000000000     
   0.0000000000000000       0.40000000000000002        1.0000000000000000     
  0.29999999999999999       0.40000000000000002        1.0000000000000000     
  0.59999999999999998       0.40000000000000002        1.0000000000000000     
  0.90000000000000002       0.40000000000000002        1.0000000000000000     
   1.2000000000000000       0.40000000000000002        1.0000000000000000     
   1.5000000000000000       0.40000000000000002        1.0000000000000000     
   1.8000000000000000       0.40000000000000002        1.0000000000000000     
   2.1000000000000001       0.40000000000000002        1.0000000000000000     
   2.3999999999999999       0.40000000000000002        1.0000000000000000     
   2.7000000000000002       0.40000000000000002        1.0000000000000000     
   3.0000000000000000       0.40000000000000002        1.0000000000000000     
   0.0000000000000000       0.59999999999999998        1.0000000000000000     
  0.29999999999999999       0.59999999999999998        1.0000000000000000     
  0.59999999999999998       0.59999999999999998        1.0000000000000000     
  0.90000000000000002       0.59999999999999998        1.0000000000000000     
   1.2000000000000000       0.59999999999999998        1.0000000000000000     
   1.5000000000000000       0.59999999999999998        1.0000000000000000     
   1.8000000000000000       0.59999999999999998        1.0000000000000000     
   2.1000000000000001       0.59999999999999998        1.0000000000000000     
   2.3999999999999999       0.59999999999999998        1.0000000000000000     
   2.7000000000000002       0.59999999999999998        1.0000000000000000     
   3.0000000000000000       0.59999999999999998        1.0000000000000000     
   0.0000000000000000       0.80000000000000004        1.0000000000000000     
  0.29999999999999999       0.80000000000000004        1.0000000000000000     
  0.59999999999999998       0.80000000000000004        1.0000000000000000     
  0.90000000000000002       0.80000000000000004        1.0000000000000000     
   1.2000000000000000       0.80000000000000004        1.0000000000000000     
   1.5000000000000000       0.80000000000000004        1.0000000000000000     
   1.8000000000000000       0.80000000000000004        1.0000000000000000     
   2.1000000000000001       0.80000000000000004        1.0000000000000000     
   2.3999999999999999       0.80000000000000004        1.0000000000000000     
   2.7000000000000002       0.80000000000000004        1.0000000000000000     
   3.0000000000000000       0.80000000000000004        1.0000000000000000     
   0.0000000000000000        1.0000000000000000        1.0000000000000000     
  0.29999999999999999        1.0000000000000000        1.0000000000000000     
  0.59999999999999998        1.0000000000000000        1.0000000000000000     
  0.90000000000000002        1.0000000000000000        1.0000000000000000     
   1.2000000000000000        1.0000000000000000        1.0000000000000000     
   1.5000000000000000        1.0000000000000000        1.0000000000000000     
   1.8000000000000000        1.0000000000000000        1.0000000000000000     
   2.1000000000000001        1.0000000000000000        1.0000000000000000     
   2.3999999999999999        1.0000000000000000        1.0000000000000000     
   2.7000000000000002        1.0000000000000000        1.0000000000000000     
   3.0000000000000000        1.0000000000000000        1.0000000000000000     
   0.0000000000000000        0.0000000000000000        1.2000000000000000     
  0.29999999999999999        0.0000000000000000        1.2000000000000000     
  0.59999999999999998        0.0000000000000000        1.2000000000000000     
  0.90000000000000002        0.0000000000000000        1.2000000000000000     
   1.2000000000000000        0.0000000000000000        1.2000000000000000     
   1.5000000000000000        0.0000000000000000        1.2000000000000000     
   1.8000000000000000        0.0000000000000000        1.2000000000000000     
   2.1000000000000001        0.0000000000000000        1.2000000000000000     
   2.3999999999999999        0.0000000000000000        1.2000000000000000     
   2.7000000000000002        0.0000000000000000        1.2000000000000000     
   3.0000000000000000        0.0000000000000000        1.2000000000000000     
   0.0000000000000000       0.20000000000000001        1.2000000000000000     
  0.29999999999999999       0.20000000000000001        1.2000000000000000     
  0.59999999999999998       0.20000000000000001        1.2000000000000000     
  0.90000000000000002       0.20000000000000001        1.2000000000000000     
   1.2000000000000000       0.20000000000000001        1.2000000000000000     
   1.5000000000000000       0.20000000000000001        1.2000000000000000     
   1.8000000000000000       0.20000000000000001        1.2000000000000000     
   2.1000000000000001       0.20000000000000001        1.2000000000000000     
   2.3999999999999999       0.20000000000000001        1.2000000000000000     
   2.7000000000000002       0.20000000000000001        1.2000000000000000     
   3.0000000000000000       0.20000000000000001        1.2000000000000000     
   0.0000000000000000       0.40000000000000002        1.2000000000000000     
  0.29999999999999999       0.40000000000000002        1.2000000000000000     
  0.59999999999999998       0.40000000000000002        1.2000000000000000     
  0.90000000000000002       0.40000000000000002        1.2000000000000000     
   1.2000000000000000       0.40000000000000002        1.2000000000000000     
   1.5000000000000000       0.40000000000000002        1.2000000000000000     
   1.8000000000000000       0.40000000000000002        1.2000000000000000     
   2.1000000000000001       0.40000000000000002        1.2000000000000000     
   2.3999999999999999       0.40000000000000002        1.2000000000000000     
   2.7000000000000002       0.40000000000000002        1.2000000000000000     
   3.0000000000000000       0.40000000000000002        1.2000000000000000     
   0.0000000000000000       0.59999999999999998        1.2000000000000000     
  0.29999999999999999       0.59999999999999998        1.2000000000000000     
  0.59999999999999998       0.59999999999999998        1.2000000000000000     
  0.90000000000000002       0.59999999999999998        1.2000000000000000     
   1.2000000000000000       0.59999999999999998        1.2000000000000000     
   1.5000000000000000       0.59999999999999998        1.2000000000000000     
   1.8000000000000000       0.59999999999999998        1.2000000000000000     
   2.1000000000000001       0.59999999999999998        1.2000000000000000     
   2.3999999999999999       0.59999999999999998        1.2000000000000000     
   2.7000000000000002       0.59999999999999998        1.2000000000000000     
   3.0000000000000000       0.59999999999999998        1.2000000000000000     
   0.0000000000000000       0.80000000000000004        1.2000000000000000     
  0.29999999999999999       0.80000000000000004        1.2000000000000000     
  0.59999999999999998       0.80000000000000004        1.2000000000000000     
  0.90000000000000002       0.80000000000000004        1.2000000000000000     
   1.2000000000000000       0.80000000000000004        1.2000000000000000     
   1.5000000000000000       0.80000000000000004        1.2000000000000000     
   1.8000000000000000       0.80000000000000004        1.2000000000000000     
   2.1000000000000001       0.80000000000000004        1.2000000000000000     
   2.3999999999999999       0.80000000000000004        1.2000000000000000     
   2.7000000000000002       0.80000000000000004        1.2000000000000000     
   3.0000000000000000       0.80000000000000004        1.2000000000000000     
   0.0000000000000000        1.0000000000000000        1.2000000000000000     
  0.29999999999999999        1.0000000000000000        1.2000000000000000     
  0.59999999999999998        1.0000000000000000        1.2000000000000000     
  0.90000000000000002        1.0000000000000000        1.2000000000000000     
   1.2000000000000000        1.0000000000000000        1.2000000000000000     
   1.5000000000000000        1.0000000000000000        1.2000000000000000     
   1.8000000000000000        1.0000000000000000        1.2000000000000000     
   2.1000000000000001        1.0000000000000000        1.2000000000000000     
   2.3999999999999999        1.0000000000000000        1.2000000000000000     
   2.7000000000000002        1.0000000000000000        1.2000000000000000     
   3.0000000000000000        1.0000000000000000        1.2000000000000000     
   0.0000000000000000        0.0000000000000000        1.3999999999999999     
  0.29999999999999999        0.0000000000000000        1.3999999999999999     
  0.59999999999999998        0.0000000000000000        1.3999999999999999     
  0.90000000000000002        0.0000000000000000        1.3999999999999999     
   1.2000000000000000        0.0000000000000000        1.3999999999999999     
   1.5000000000000000        0.0000000000000000        1.3999999999999999     
   1.8000000000000000        0.0000000000000000        1.3999999999999999     
   2.1000000000000001        0.0000000000000000        1.3999999999999999     
   2.3999999999999999        0.0000000000000000        1.3999999999999999     
   2.7000000000000002        0.0000000000000000        1.3999999999999999     
   3.0000000000000000        0.0000000000000000        1.3999999999999999     
   0.0000000000000000       0.20000000000000001        1.3999999999999999     
  0.29999999999999999       0.20000000000000001        1.3999999999999999     
  0.59999999999999998       0.20000000000000001        1.3999999999999999     
  0.90000000000000002       0.20000000000000001        1.3999999999999999     
   1.2000000000000000       0.20000000000000001        1.3999999999999999     
   1.5000000000000000       0.20000000000000001        1.3999999999999999     
   1.8000000000000000       0.20000000000000001        1.3999999999999999     
   2.1000000000000001       0.20000000000000001        1.3999999999999999     
   2.3999999999999999       0.20000000000000001        1.3999999999999999     
   2.7000000000000002       0.20000000000000001        1.3999999999999999     
   3.0000000000000000       0.20000000000000001        1.3999999999999999     
   0.0000000000000000       0.40000000000000002        1.3999999999999999     
  0.29999999999999999       0.40000000000000002        1.3999999999999999     
  0.59999999999999998       0.40000000000000002        1.3999999999999999     
  0.90000000000000002       0.40000000000000002        1.3999999999999999     
   1.2000000000000000       0.40000000000000002        1.3999999999999999     
   1.5000000000000000       0.40000000000000002        1.3999999999999999     
   1.8000000000000000       0.40000000000000002        1.3999999999999999     
   2.1000000000000001       0.40000000000000002        1.3999999999999999     
   2.3999999999999999       0.40000000000000002        1.3999999999999999     
   2.7000000000000002       0.40000000000000002        1.3999999999999999     
   3.0000000000000000       0.40000000000000002        1.3999999999999999     
   0.0000000000000000       0.59999999999999998        1.3999999999999999     
  0.29999999999999999       0.59999999999999998        1.3999999999999999     
  0.59999999999999998       0.59999999999999998        1.3999999999999999     
  0.90000000000000002       0.59999999999999998        1.3999999999999999     
   1.2000000000000000       0.59999999999999998        1.3999999999999999     
   1.5000000000000000       0.59999999999999998        1.3999999999999999     
   1.8000000000000000       0.59999999999999998        1.3999999999999999     
   2.1000000000000001       0.59999999999999998        1.3999999999999999     
   2.3999999999999999       0.59999999999999998        1.3999999999999999     
   2.7000000000000002       0.59999999999999998        1.3999999999999999     
   3.0000000000000000       0.59999999999999998        1.3999999999999999     
   0.0000000000000000       0.80000000000000004        1.3999999999999999     
  0.29999999999999999       0.80000000000000004        1.3999999999999999     
  0.59999999999999998       0.80000000000000004        1.3999999999999999     
  0.90000000000000002       0.80000000000000004        1.3999999999999999     
   1.2000000000000000       0.80000000000000004        1.3999999999999999     
   1.5000000000000000       0.80000000000000004        1.3999999999999999     
   1.8000000000000000       0.80000000000000004        1.3999999999999999     
   2.1000000000000001       0.80000000000000004        1.3999999999999999     
   2.3999999999999999       0.80000000000000004        1.3999999999999999     
   2.7000000000000002       0.80000000000000004        1.3999999999999999     
   3.0000000000000000       0.80000000000000004        1.3999999999999999     
   0.0000000000000000        1.0000000000000000        1.3999999999999999     
  0.29999999999999999        1.0000000000000000        1.3999999999999999     
  0.59999999999999998        1.0000000000000000        1.3999999999999999     
  0.90000000000000002        1.0000000000000000        1.3999999999999999     
   1.2000000000000000        1.0000000000000000        1.3999999999999999     
   1.5000000000000000        1.0000000000000000        1.3999999999999999     
   1.8000000000000000        1.0000000000000000        1.3999999999999999     
   2.1000000000000001        1.0000000000000000        1.3999999999999999     
   2.3999999999999999        1.0000000000000000        1.3999999999999999     
   2.7000000000000002        1.0000000000000000        1.3999999999999999     
   3.0000000000000000        1.0000000000000000        1.3999999999999999     
   0.0000000000000000        0.0000000000000000        1.6000000000000001     
  0.29999999999999999        0.0000000000000000        1.6000000000000001     
  0.59999999999999998        0.0000000000000000        1.6000000000000001     
  0.90000000000000002        0.0000000000000000        1.6000000000000001     
   1.2000000000000000        0.0000000000000000        1.6000000000000001     
   1.5000000000000000        0.0000000000000000        1.6000000000000001     
   1.8000000000000000        0.0000000000000000        1.6000000000000001     
   2.1000000000000001        0.0000000000000000        1.6000000000000001     
   2.3999999999999999        0.0000000000000000        1.6000000000000001     
   2.7000000000000002        0.0000000000000000        1.6000000000000001     
   3.0000000000000000        0.0000000000000000        1.6000000000000001     
   0.0000000000000000       0.20000000000000001        1.6000000000000001     
  0.29999999999999999       0.20000000000000001        1.6000000000000001     
  0.59999999999999998       0.20000000000000001        1.6000000000000001     
  0.90000000000000002       0.20000000000000001        1.6000000000000001     
   1.2000000000000000       0.20000000000000001        1.6000000000000001     
   1.5000000000000000       0.20000000000000001        1.6000000000000001     
   1.8000000000000000       0.20000000000000001        1.6000000000000001     
   2.1000000000000001       0.20000000000000001        1.6000000000000001     
   2.3999999999999999       0.20000000000000001        1.6000000000000001     
   2.7000000000000002       0.20000000000000001        1.6000000000000001     
   3.0000000000000000       0.20000000000000001        1.6000000000000001     
   0.0000000000000000       0.40000000000000002        1.6000000000000001     
  0.29999999999999999       0.40000000000000002        1.6000000000000001     
  0.59999999999999998       0.40000000000000002        1.6000000000000001     
  0.90000000000000002       0.40000000000000002        1.6000000000000001     
   1.2000000000000000       0.40000000000000002        1.6000000000000001     
   1.5000000000000000       0.40000000000000002        1.6000000000000001     
   1.8000000000000000       0.40000000000000002        1.6000000000000001     
   2.1000000000000001       0.40000000000000002        1.6000000000000001     
   2.3999999999999999       0.40000000000000002        1.6000000000000001     
   2.7000000000000002       0.40000000000000002        1.6000000000000001     
   3.0000000000000000       0.40000000000000002        1.6000000000000001     
   0.0000000000000000       0.59999999999999998        1.6000000000000001     
  0.29999999999999999       0.59999999999999998        1.6000000000000001     
  0.59999999999999998       0.59999999999999998        1.6000000000000001     
  0.90000000000000002       0.59999999999999998        1.6000000000000001     
   1.2000000000000000       0.59999999999999998        1.6000000000000001     
   1.5000000000000000       0.59999999999999998        1.6000000000000001     
   1.8000000000000000       0.59999999999999998        1.6000000000000001     
   2.1000000000000001       0.59999999999999998        1.6000000000000001     
   2.3999999999999999       0.59999999999999998        1.6000000000000001     
   2.7000000000000002       0.59999999999999998        1.6000000000000001     
   3.0000000000000000       0.59999999999999998        1.6000000000000001     
   0.0000000000000000       0.80000000000000004        1.6000000000000001     
  0.29999999999999999       0.80000000000000004        1.6000000000000001     
  0.59999999999999998       0.80000000000000004        1.6000000000000001     
  0.90000000000000002       0.80000000000000004        1.6000000000000001     
   1.2000000000000000       0.80000000000000004        1.6000000000000001     
   1.5000000000000000       0.80000000000000004        1.6000000000000001     
   1.8000000000000000       0.80000000000000004        1.6000000000000001     
   2.1000000000000001       0.80000000000000004        1.6000000000000001     
   2.3999999999999999       0.80000000000000004        1.6000000000000001     
   2.7000000000000002       0.80000000000000004        1.6000000000000001     
   3.0000000000000000       0.80000000000000004        1.6000000000000001     
   0.0000000000000000        1.0000000000000000        1.6000000000000001     
  0.29999999999999999        1.0000000000000000        1.6000000000000001     
  0.59999999999999998        1.0000000000000000        1.6000000000000001     
  0.90000000000000002        1.0000000000000000        1.6000000000000001     
   1.2000000000000000        1.0000000000000000        1.6000000000000001     
   1.5000000000000000        1.0000000000000000        1.6000000000000001     
   1.8000000000000000        1.0000000000000000        1.6000000000000001     
   2.1000000000000001        1.0000000000000000        1.6000000000000001     
   2.3999999999999999        1.0000000000000000        1.6000000000000001     
   2.7000000000000002        1.0000000000000000        1.6000000000000001     
   3.0000000000000000        1.0000000000000000        1.6000000000000001     
   0.0000000000000000        0.0000000000000000        1.8000000000000000     
  0.29999999999999999        0.0000000000000000        1.8000000000000000     
  0.59999999999999998        0.0000000000000000        1.8000000000000000     
  0.90000000000000002        0.0000000000000000        1.8000000000000000     
   1.2000000000000000        0.0000000000000000        1.8000000000000000     
   1.5000000000000000        0.0000000000000000        1.8000000000000000     
   1.8000000000000000        0.0000000000000000        1.8000000000000000     
   2.1000000000000001        0.0000000000000000        1.8000000000000000     
   2.3999999999999999        0.0000000000000000        1.8000000000000000     
   2.7000000000000002        0.0000000000000000        1.8000000000000000     
   3.0000000000000000        0.0000000000000000        1.8000000000000000     
   0.0000000000000000       0.20000000000000001        1.8000000000000000     
  0.29999999999999999       0.20000000000000001        1.8000000000000000     
  0.59999999999999998       0.20000000000000001        1.8000000000000000     
  0.90000000000000002       0.20000000000000001        1.8000000000000000     
   1.2000000000000000       0.20000000000000001        1.8000000000000000     
   1.5000000000000000       0.20000000000000001        1.8000000000000000     
   1.8000000000000000       0.20000000000000001        1.8000000000000000     
   2.1000000000000001       0.20000000000000001        1.8000000000000000     
   2.3999999999999999       0.20000000000000001        1.8000000000000000     
   2.7000000000000002       0.20000000000000001        1.8000000000000000     
   3.0000000000000000       0.20000000000000001        1.8000000000000000     
   0.0000000000000000       0.40000000000000002        1.8000000000000000     
  0.29999999999999999       0.40000000000000002        1.8000000000000000     
  0.59999999999999998       0.40000000000000002        1.8000000000000000     
  0.90000000000000002       0.40000000000000002        1.8000000000000000     
   1.2000000000000000       0.40000000000000002        1.8000000000000000     
   1.5000000000000000       0.40000000000000002        1.8000000000000000     
   1.8000000000000000       0.40000000000000002        1.8000000000000000     
   2.1000000000000001       0.40000000000000002        1.8000000000000000     
   2.3999999999999999       0.40000000000000002        1.8000000000000000     
   2.7000000000000002       0.40000000000000002        1.8000000000000000     
   3.0000000000000000       0.40000000000000002        1.8000000000000000     
   0.0000000000000000       0.59999999999999998        1.8000000000000000     
  0.29999999999999999       0.59999999999999998        1.8000000000000000     
  0.59999999999999998       0.59999999999999998        1.8000000000000000     
  0.90000000000000002       0.59999999999999998        1.8000000000000000     
   1.2000000000000000       0.59999999999999998        1.8000000000000000     
   1.5000000000000000       0.59999999999999998        1.8000000000000000     
   1.8000000000000000       0.59999999999999998        1.8000000000000000     
   2.1000000000000001       0.59999999999999998        1.8000000000000000     
   2.3999999999999999       0.59999999999999998        1.8000000000000000     
   2.7000000000000002       0.59999999999999998        1.8000000000000000     
   3.0000000000000000       0.59999999999999998        1.8000000000000000     
   0.0000000000000000       0.80000000000000004        1.8000000000000000     
  0.29999999999999999       0.80000000000000004        1.8000000000000000     
  0.59999999999999998       0.80000000000000004        1.8000000000000000     
  0.90000000000000002       0.80000000000000004        1.8000000000000000     
   1.2000000000000000       0.80000000000000004        1.8000000000000000     
   1.5000000000000000       0.80000000000000004        1.8000000000000000     
   1.8000000000000000       0.80000000000000004        1.8000000000000000     
   2.1000000000000001       0.80000000000000004        1.8000000000000000     
   2.3999999999999999       0.80000000000000004        1.8000000000000000     
   2.7000000000000002       0.80000000000000004        1.8000000000000000     
   3.0000000000000000       0.80000000000000004        1.8000000000000000     
   0.0000000000000000        1.0000000000000000        1.8000000000000000     
  0.29999999999999999        1.0000000000000000        1.8000000000000000     
  0.59999999999999998        1.0000000000000000        1.8000000000000000     
  0.90000000000000002        1.0000000000000000        1.8000000000000000     
   1.2000000000000000        1.0000000000000000        1.8000000000000000     
   1.5000000000000000        1.0000000000000000        1.8000000000000000     
   1.8000000000000000        1.0000000000000000        1.8000000000000000     
   2.1000000000000001        1.0000000000000000        1.8000000000000000     
   2.3999999999999999        1.0000000000000000        1.8000000000000000     
   2.7000000000000002        1.0000000000000000        1.8000000000000000     
   3.0000000000000000        1.0000000000000000        1.8000000000000000     
   0.0000000000000000        0.0000000000000000        2.0000000000000000     
  0.29999999999999999        0.0000000000000000        2.0000000000000000     
  0.59999999999999998        0.0000000000000000        2.0000000000000000     
  0.90000000000000002        0.0000000000000000        2.0000000000000000     
   1.2000000000000000        0.0000000000000000        2.0000000000000000     
   1.5000000000000000        0.0000000000000000        2.0000000000000000     
   1.8000000000000000        0.0000000000000000        2.0000000000000000     
   2.1000000000000001        0.0000000000000000        2.0000000000000000     
   2.3999999999999999        0.0000000000000000        2.0000000000000000     
   2.7000000000000002        0.0000000000000000        2.0000000000000000     
   3.0000000000000000        0.0000000000000000        2.0000000000000000     
   0.0000000000000000       0.20000000000000001        2.0000000000000000     
  0.29999999999999999       0.20000000000000001        2.0000000000000000     
  0.59999999999999998       0.20000000000000001        2.0000000000000000     
  0.90000000000000002       0.20000000000000001        2.0000000000000000     
   1.2000000000000000       0.20000000000000001        2.0000000000000000     
   1.5000000000000000       0.20000000000000001        2.0000000000000000     
   1.8000000000000000       0.20000000000000001        2.0000000000000000     
   2.1000000000000001       0.20000000000000001        2.0000000000000000     
   2.3999999999999999       0.20000000000000001        2.0000000000000000     
   2.7000000000000002       0.20000000000000001        2.0000000000000000     
   3.0000000000000000       0.20000000000000001        2.0000000000000000     
   0.0000000000000000       0.40000000000000002        2.0000000000000000     
  0.29999999999999999       0.40000000000000002        2.0000000000000000     
  0.59999999999999998       0.40000000000000002        2.0000000000000000     
  0.90000000000000002       0.40000000000000002        2.0000000000000000     
   1.2000000000000000       0.40000000000000002        2.0000000000000000     
   1.5000000000000000       0.40000000000000002        2.0000000000000000     
   1.8000000000000000       0.40000000000000002        2.0000000000000000     
   2.1000000000000001       0.40000000000000002        2.0000000000000000     
   2.3999999999999999       0.40000000000000002        2.0000000000000000     
   2.7000000000000002       0.40000000000000002        2.0000000000000000     
   3.0000000000000000       0.40000000000000002        2.0000000000000000     
   0.0000000000000000       0.59999999999999998        2.0000000000000000     
  0.29999999999999999       0.59999999999999998        2.0000000000000000     
  0.59999999999999998       0.59999999999999998        2.0000000000000000     
  0.90000000000000002       0.59999999999999998        2.0000000000000000     
   1.2000000000000000       0.59999999999999998        2.0000000000000000     
   1.5000000000000000       0.59999999999999998        2.0000000000000000     
   1.8000000000000000       0.59999999999999998        2.0000000000000000     
   2.1000000000000001       0.59999999999999998        2.0000000000000000     
   2.3999999999999999       0.59999999999999998        2.0000000000000000     
   2.7000000000000002       0.59999999999999998        2.0000000000000000     
   3.0000000000000000       0.59999999999999998        2.0000000000000000     
   0.0000000000000000       0.80000000000000004        2.0000000000000000     
  0.29999999999999999       0.80000000000000004        2.0000000000000000     
  0.59999999999999998       0.80000000000000004        2.0000000000000000     
  0.90000000000000002       0.80000000000000004        2.0000000000000000     
   1.2000000000000000       0.80000000000000004        2.0000000000000000     
   1.5000000000000000       0.80000000000000004        2.0000000000000000     
   1.8000000000000000       0.80000000000000004        2.0000000000000000     
   2.1000000000000001       0.80000000000000004        2.0000000000000000     
   2.3999999999999999       0.80000000000000004        2.0000000000000000     
   2.7000000000000002       0.80000000000000004        2.0000000000000000     
   3.0000000000000000       0.80000000000000004        2.0000000000000000     
   0.0000000000000000        1.0000000000000000        2.0000000000000000     
  0.29999999999999999        1.0000000000000000        2.0000000000000000     
  0.59999999999999998        1.0000000000000000        2.0000000000000000     
  0.90000000000000002        1.0000000000000000        2.0000000000000000     
   1.2000000000000000        1.0000000000000000        2.0000000000000000     
   1.5000000000000000        1.0000000000000000        2.0000000000000000     
   1.8000000000000000        1.0000000000000000        2.0000000000000000     
   2.1000000000000001        1.0000000000000000        2.0000000000000000     
   2.3999999999999999        1.0000000000000000        2.0000000000000000     
   2.7000000000000002        1.0000000000000000        2.0000000000000000     
   3.0000000000000000        1.0000000000000000        2.0000000000000000     

CELLS      500     4500
8        0        1       12       11       66       67       78       77
8        1        2       13       12       67       68       79       78
8        2        3       14       13       68       69       80       79
8        3        4       15       14       69       70       81       80
8        4        5       16       15       70       71       82       81
8        5        6       17       16       71       72       83       82
8        6        7       18       17       72       73       84       83
8        7        8       19       18       73       74       85       84
8        8        9       20       19       74       75       86       85
8        9       10       21       20       75       76       87       86
8       11       12       23       22       77       78       89       88
8       12       13       24       23       78       79       90       89
8       13       14       25       24       79       80       91       90
8       14       15       26       25       80       81       92       91
8       15       16       27       26       81       82       93       92
8       16       17       28       27       82       83       94       93
8       17       18       29       28       83       84       95       94
8       18       19       30       29       84       85       96       95
8       19       20       31       30       85       86       97       96
8       20       21       32       31       86       87       98       97
8       22       23       34       33       88       89      100       99
8       23       24       35       34       89       90      101      100
8       24       25       36       35       90       91      102      101
8       25       26       37       36       91       92      103      102
8       26       27       38       37       92       93      104      103
8       27       28       39       38       93       94      105      104
8       28       29       40       39       94       95      106      105
8       29       30       41       40       95       96      107      106
8       30       31       42       41       96       97      108      107
8       31       32       43       42       97       98      109      108
8       33       34       45       44       99      100      111      110
8       34       35       46       45      100      101      112      111
8       35       36       47       46      101      102      113      112
8       36       37       48       47      102      103      114      113
8       37       38       49       48      103      104      115      114
8       38       39       50       49      104      105      116      115
8       39       40       51       50      105      106      117      116
8       40       41       52       51      106      107      118      117
8       41       42       53       52      107      108      119      118
8       42       43       54       53      108      109      120      119
8       44       45       56       55      110      111      122      121
8       45       46       57       56      111      112      123      122
8       46       47       58       57      112      113      124      123
8       47       48       59       58      113      114      125      124
8       48       49       60       59      114      115      126      125
8       49       50       61       60      115      116      127      126
8       50       51       62       61      116      117      128      127
8       51       52       63       62      117      118      129      128
8       52       53       64       63      118      119      130      129
8       53       54       65       64      119      120      131      130
8       66       67       78       77      132      133      144      143
8       67       68       79       78      133      134      145      144
8       68       69       80       79      134      135      146      145
8       69       70       81       80      135      136      147      146
8       70       71       82       81      136      137      148      147
8       71       72       83       82      137      138      149      148
8       72       73       84       83      138      139      150      149
8       73       74       85       84      139      140      151      150
8       74       75       86       85      140      141      152      151
8       75       76       87       86      141      142      153      152
8       77       78       89       88      143      144      155      154
8       78       79       90       89      144      145      156      155
8       79       80       91       90      145      146      157      156
8       80       81       92       91      146      147      158      157
8       81       82       93       92      147      148      159      158
8       82       83       94       93      148      149      160      159
8       83       84       95       94      149      150      161      160
8       84       85       96       95      150      151      162      161
8       85       86       97       96      151      152      163      162
8       86       87       98       97      152      153      164      163
8       88       89      100       99      154      155      166      165
8       89       90      101      100      155      156      167      166
8       90       91      102      101      156      157      168      167
8       91       92      103      102      157      158      169      168
8       92       93      104      103      158      159      170      169
8       93       94      105      104      159      160      171      170
8       94       95      106      105      160      161      172      171
8       95       96      107      106      161      162      173      172
8       96       97      108      107      162      163      174      173
8       97       98      109      108      163      164      175      174
8       99      100      111      110      165      166      177      176
8      100      101      112      111      166      167      178      177
8      101      102      113      112      167      168      179      178
8      102      103      114      113      168      169      180      179
8      103      104      115      114      169      170      181      180
8      104      105      116      115      170      171      182      181
8      105      106      117      116      171      172      183      182
8      106      107      118      117      172      173      184      183
8      107      108      119      118      173      174      185      184
8      108      109      120      119      174      175      186      185
8      110      111      122      121      176      177      188      187
8      111      112      123      122      177      178      189      188
8      112      113      124      123      178      179      190      189
8      113      114      125      124      179      180      191      190
8      114      115      126      125      180      181      192      191
8      115      116      127      126      181      182      193      192
8      116      117      128      127      182      183      194      193
8      117      118      129      128      183      184      195      194
8      118      119      130      129      184      185      196      195
8      119      120      131      130      185      186      197      196
8      132      133      144      143      198      199      210      209
8      133      134      145      144      199      200      211      210
8      134      135      146      145      200      201      212      211
8      135      136      147      146      201      202      213      212
8      136      137      148      147      202      203      214      213
8      137      138      149      148      203      204      215      214
8      138      139      150      149      204      205      216      215
8      139      140      151      150      205      206      217      216
8      140      141      152      151      206      207      218      217
8      141      142      153      152      207      208      219      218
8      143      144      155      154      209      210      221      220
8      144      145      156      155      210      211      222      221
8      145      146      157      156      211      212      223      222
8      146      147      158      157      212      213      224      223
8      147      148      159      158      213      214      225      224
8      148      149      160      159      214      215      226      225
8      149      150      161      160      215      216      227      226
8      150      151      162      161      216      217      228      227
8      151      152      163      162      217      218      229      228
8      152      153      164      163      218      219      230      229
8      154      155      166      165      220      221      232      231
8      155      156      167      166      221      222      233      232
8      156      157      168      167      222      223      234      233
8      157      158      169      168      223      224      235      234
8      158      159      170      169      224      225      236      235
8      159      160      171      170      225      226      237      236
8      160      161      172      171      226      227      238      237
8      161      162      173      172      227      228      239      238
8      162      163      174      173      228      229      240      239
8      163      164      175      174      229      230      241      240
8      165      166      177      176      231      232      243      242
8      166      167      178      177      232      233      244      243
8      167      168      179      178      233      234      245      244
8      168      169      180      179      234      235      246      245
8      169      170      181      180      235      236      247      246
8      170      171      182      181      236      237      248      247
8      171      172      183      182      237      238      249      248
8      172      173      184      183      238      239      250      249
8      173      174      185      184      239      240      251      250
8      174      175      186      185      240      241      252      251
8      176      177      188      187      242      243      254      253
8      177      178      189      188      243      244      255      254
8      178      179      190      189      244      245      256      255
8      179      180      191      190      245      246      257      256
8      180      181      192      191      246      247      258      257
8      181      182      193      192      247      248      259      258
8      182      183      194      193      248      249      260      259
8      183      184      195      194      249      250      261      260
8      184      185      196      195      250      251      262      261
8      185      186      197      196      251      252      263      262
8      198      199      210      209      264      265      276      275
8      199      200      211      210      265      266      277      276
8      200      201      212      211      266      267      278      277
8      201      202      213      212      267      268      279      278
8      202      203      214      213      268      269      280      279
8      203      204      215      214      269      270      281      280
8      204      205      216      215      270      271      282      281
8      205      206      217      216      271      272      283      282
8      206      207      218      217      272      273      284      283
8      207      208      219      218      273      274      285      284
8      209      210      221      220      275      276      287      286
8      210      211      222      221      276      277      288      287
8      211      212      223      222      277      278      289      288
8      212      213      224      223      278      279      290      289
8      213      214      225      224      279      280      291      290
8      214      215      226      225      280      281      292      291
8      215      216      227      226      281      282      293      292
8      216      217      228      227      282      283      294      293
8      217      218      229      228      283      284      295      294
8      218      219      230      229      284      285      296      295
8      220      221      232      231      286      287      298      297
8      221      222      233      232      287      288      299      298
8      222      223      234      233      288      289      300      299
8      223      224      235      234      289      290      301      300
8      224      225      236      235      290      291      302      301
8      225      226      237      236      291      292      303      302
8      226      227      238      237      292      293      304      303
8      227      228      239      238      293      294      305      304
8      228      229      240      239      294      295      306      305
8      229      230      241      240      295      296      307      306
8      231      232      243      242      297      298      309      308
8      232      233      244      243      298      299      310      309
8      233      234      245      244      299      300      311      310
8      234      235      246      245      300      301      312      311
8      235      236      247      246      301      302      313      312
8      236      237      248      247      302      303      314      313
8      237      238      249      248      303      304      315      314
8      238      239      250      249      304      305      316      315
8      239      240      251      250      305      306      317      316
8      240      241      252      251      306      307      318      317
8      242      243      254      253      308      309      320      319
8      243      244      255      254      309      310      321      320
8      244      245      256      255      310      311      322      321
8      245      246      257      256      311      312      323      322
8      246      247      258      257      312      313      324      323
8      247      248      259      258      313      314      325      324
8      248      249      260      259      314      315      326      325
8      249      250      261      260      315      316      327      326
8      250      251      262      261      316      317      328      327
8      251      252      263      262      317      318      329      328
8      264      265      276      275      330      331      342      341
8      265      266      277      276      331      332      343      342
8      266      267      278      277      332      333      344      343
8      267      268      279      278      333      334      345      344
8      268      269      280      279      334      335      346      345
8      269      270      281      280      335      336      347      346
8      270      271      282      281      336      337      348      347
8      271      272      283      282      337      338      349      348
8      272      273      284      283      338      339      350      349
8      273      274      285      284      339      340      351      350
8      275      276      287      286      341      342      353      352
8      276      277      288      287      342      343      354      353
8      277      278      289      288      343      344      355      354
8      278      279      290      289      344      345      356      355
8      279      280      291      290      345      346      357      356
8      280      281      292      291      346      347      358      357
8      281      282      293      292      347      348      359      358
8      282      283      294      293      348      349      360      359
8      283      284      295      294      349      350      361      360
8      284      285      296      295      350      351      362      361
8      286      287      298      297      352      353      364      363
8      287      288      299      298      353      354      365      364
8      288      289      300      299      354      355      366      365
8      289      290      301      300      355      356      367      366
8      290      291      302      301      356      357      368      367
8      291      292      303      302      357      358      369      368
8      292      293      304      303      358      359      370      369
8      293      294      305      304      359      360      371      370
8      294      295      306      305      360      361      372      371
8      295      296      307      306      361      362      373      372
8      297      298      309      308      363      364      375      374
8      298      299      310      309      364      365      376      375
8      299      300      311      310      365      366      377      376
8      300      301      312      311      366      367      378      377
8      301      302      313      312      367      368      379      378
8      302      303      314      313      368      369      380      379
8      303      304      315      314      369      370      381      380
8      304      305      316      315      370      371      382      381
8      305      306      317      316      371      372      383      382
8      306      307      318      317      372      373      384      383
8      308      309      320      319      374      375      386      385
8      309      310      321      320      375      376      387      386
8      310      311      322      321      376      377      388      387
8      311      312      323      322      377      378      389      388
8      312      313      324      323      378      379      390      389
8      313      314      325      324      379      380      391      390
8      314      315      326      325      380      381      392      391
8      315      316      327      326      381      382      393      392
8      316      317      328      327      382      383      394      393
8      317      318      329      328      383      384      395      394
8      330      331      342      341      396      397      408      407
8      331      332      343      342      397      398      409      408
8      332      333      344      343      398      399      410      409
8      333      334      345      344      399      400      411      410
8      334      335      346      345      400      401      412      411
8      335      336      347      346      401      402      413      412
8      336      337      348      347      402      403      414      413
8      337      338      349      348      403      404      415      414
8      338      339      350      349      404      405      416      415
8      339      340      351      350      405      406      417      416
8      341      342      353      352      407      408      419      418
8      342      343      354      353      408      409      420      419
8      343      344      355      354      409      410      421      420
8      344      345      356      355      410      411      422      421
8      345      346      357      356      411      412      423      422
8      346      347      358      357      412      413      424      423
8      347      348      359      358      413      414      425      424
8      348      349      360      359      414      415      426      425
8      349      350      361      360      415      416      427      426
8      350      351      362      361      416      417      428      427
8      352      353      364      363      418      419      430      429
8      353      354      365      364      419      420      431      430
8      354      355      366      365      420      421      432      431
8      355      356      367      366      421      422      433      432
8      356      357      368      367      422      423      434      433
8      357      358      369      368      423      424      435      434
8      358      359      370      369      424      425      436      435
8      359      360      371      370      425      426      437      436
8      360      361      372      371      426      427      438      437
8      361      362      373      372      427      428      439      438
8      363      364      375      374      429      430      441      440
8      364      365      376      375      430      431      442      441
8      365      366      377      376      431      432      443      442
8      366      367      378      377      432      433      444      443
8      367      368      379      378      433      434      445      444
8      368      369      380      379      434      435      446      445
8      369      370      381      380      435      436      447      446
8      370      371      382      381      436      437      448      447
8      371      372      383      382      437      438      449      448
8      372      373      384      383      438      439      450      449
8      374      375      386      385      440      441      452      451
8      375      376      387      386      441      442      453      452
8      376      377      388      387      442      443      454      453
8      377      378      389      388      443      444      455      454
8      378      379      390      389      444      445      456      455
8      379      380      391      390      445      446      457      456
8      380      381      392      391      446      447      458      457
8      381      382      393      392      447      448      459      458
8      382      383      394      393      448      449      460      459
8      383      384      395      394      449      450      461      460
8      396      397      408      407      462      463      474      473
8      397      398      409      408      463      464      475      474
8      398      399      410      409      464      465      476      475
8      399      400      411      410      465      466      477      476
8      400      401      412      411      466      467      478      477
8      401      402      413      412      467      468      479      478
8      402      403      414      413      468      469      480      479
8      403      404      415      414      469      470      481      480
8      404      405      416      415      470      471      482      481
8      405      406      417      416      471      472      483      482
8      407      408      419      418      473      474      485      484
8      408      409      420      419      474      475      486      485
8      409      410      421      420      475      476      487      486
8      410      411      422      421      476      477      488      487
8      411      412      423      422      477      478      489      488
8      412      413      424      423      478      479      490      489
8      413      414      425      424      479      480      491      490
8      414      415      426      425      480      481      492      491
8      415      416      427      426      481      482      493      492
8      416      417      428      427      482      483      494      493
8      418      419      430      429      484      485      496      495
8      419      420      431      430      485      486      497      496
8      420      421      432      431      486      487      498      497
8      421      422      433      432      487      488      499      498
8      422      423      434      433      488      489      500      499
8      423      424      435      434      489      490      501      500
8      424      425      436      435      490      491      502      501
8      425      426      437      436      491      492      503      502
8      426      427      438      437      492      493      504      503
8      427      428      439      438      493      494      505      504
8      429      430      441      440      495      496      507      506
8      430      431      442      441      496      497      508      507
8      431      432      443      442      497      498      509      508
8      432      433      444      443      498      499      510      509
8      433      434      445      444      499      500      511      510
8      434      435      446      445      500      501      512      511
8      435      436      447      446      501      502      513      512
8      436      437      448      447      502      503      514      513
8      437      438      449      448      503      504      515      514
8      438      439      450      449      504      505      516      515
8      440      441      452      451      506      507      518      517
8      441      442      453      452      507      508      519      518
8      442      443      454      453      508      509      520      519
8      443      444      455      454      509      510      521      520
8      444      445      456      455      510      511      522      521
8      445      446      457      456      511      512      523      522
8      446      447      458      457      512      513      524      523
8      447      448      459      458      513      514      525      524
8      448      449      460      459      514      515      526      525
8      449      450      461      460      515      516      527      526
8      462      463      474      473      528      529      540      539
8      463      464      475      474      529      530      541      540
8      464      465      476      475      530      531      542      541
8      465      466      477      476      531      532      543      542
8      466      467      478      477      532      533      544      543
8      467      468      479      478      533      534      545      544
8      468      469      480      479      534      535      546      545
8      469      470      481      480      535      536      547      546
8      470      471      482      481      536      537      548      547
8      471      472      483      482      537      538      549      548
8      473      474      485      484      539      540      551      550
8      474      475      486      485      540      541      552      551
8      475      476      487      486      541      542      553      552
8      476      477      488      487      542      543      554      553
8      477      478      489      488      543      544      555      554
8      478      479      490      489      544      545      556      555
8      479      480      491      490      545      546      557      556
8      480      481      492      491      546      547      558      557
8      481      482      493      492      547      548      559      558
8      482      483      494      493      548      549      560      559
8      484      485      496      495      550      551      562      561
8      485      486      497      496      551      552      563      562
8      486      487      498      497      552      553      564      563
8      487      488      499      498      553      554      565      564
8      488      489      500      499      554      555      566      565
8      489      490      501      500      555      556      567      566
8      490      491      502      501      556      557      568      567
8      491      492      503      502      557      558      569      568
8      492      493      504      503      558      559      570      569
8      493      494      505      504      559      560      571      570
8      495      496      507      506      561      562      573      572
8      496      497      508      507      562      563      574      573
8      497      498      509      508      563      564      575      574
8      498      499      510      509      564      565      576      575
8      499      500      511      510      565      566      577      576
8      500      501      512      511      566      567      578      577
8      501      502      513      512      567      568      579      578
8      502      503      514      513      568      569      580      579
8      503      504      515      514      569      570      581      580
8      504      505      516      515      570      571      582      581
8      506      507      518      517      572      573      584      583
8      507      508      519      518      573      574      585      584
8      508      509      520      519      574      575      586      585
8      509      510      521      520      575      576      587      586
8      510      511      522      521      576      577      588      587
8      511      512      523      522      577      578      589      588
8      512      513      524      523      578      579      590      589
8      513      514      525      524      579      580      591      590
8      514      515      526      525      580      581      592      591
8      515      516      527      526      581      582      593      592
8      528      529      540      539      594      595      606      605
8      529      530      541      540      595      596      607      606
8      530      531      542      541      596      597      608      607
8      531      532      543      542      597      598      609      608
8      532      533      544      543      598      599      610      609
8      533      534      545      544      599      600      611      610
8      534      535      546      545      600      601      612      611
8      535      536      547      546      601      602      613      612
8      536      537      548      547      602      603      614      613
8      537      538      549      548      603      604      615      614
8      539      540      551      550      605      606      617      616
8      540      541      552      551      606      607      618      617
8      541      542      553      552      607      608      619      618
8      542      543      554      553      608      609      620      619
8      543      544      555      554      609      610      621      620
8      544      545      556      555      610      611      622      621
8      545      546      557      556      611      612      623      622
8      546      547      558      557      612      613      624      623
8      547      548      559      558      613      614      625      624
8      548      549      560      559      614      615      626      625
8      550      551      562      561      616      617      628      627
8      551      552      563      562      617      618      629      628
8      552      553      564      563      618      619      630      629
8      553      554      565      564      619      620      631      630
8      554      555      566      565      620      621      632      631
8      555      556      567      566      621      622      633      632
8      556      557      568      567      622      623      634      633
8      557      558      569      568      623      624      635      634
8      558      559      570      569      624      625      636      635
8      559      560      571      570      625      626      637      636
8      561      562      573      572      627      628      639      638
8      562      563      574      573      628      629      640      639
8      563      564      575      574      629      630      641      640
8      564      565      576      575      630      631      642      641
8      565      566      577      576      631      632      643      642
8      566      567      578      577      632      633      644      643
8      567      568      579      578      633      634      645      644
8      568      569      580      579      634      635      646      645
8      569      570      581      580      635      636      647      646
8      570      571      582      581      636      637      648      647
8      572      573      584      583      638      639      650      649
8      573      574      585      584      639      640      651      650
8      574      575      586      585      640      641      652      651
8      575      576      587      586      641      642      653      652
8      576      577      588      587      642      643      654      653
8      577      578      589      588      643      644      655      654
8      578      579      590      589      644      645      656      655
8      579      580      591      590      645      646      657      656
8      580      581      592      591      646      647      658      657
8      581      582      593      592      647      648      659      658
8      594      595      606      605      660      661      672      671
8      595      596      607      606      661      662      673      672
8      596      597      608      607      662      663      674      673
8      597      598      609      608      663      664      675      674
8      598      599      610      609      664      665      676      675
8      599      600      611      610      665      666      677      676
8      600      601      612      611      666      667      678      677
8      601      602      613      612      667      668      679      678
8      602      603      614      613      668      669      680      679
8      603      604      615      614      669      670      681      680
8      605      606      617      616      671      672      683      682
8      606      607      618      617      672      673      684      683
8      607      608      619      618      673      674      685      684
8      608      609      620      619      674      675      686      685
8      609      610      621      620      675      676      687      686
8      610      611      622      621      676      677      688      687
8      611      612      623      622      677      678      689      688
8      612      613      624      623      678      679      690      689
8      613      614      625      624      679      680      691      690
8      614      615      626      625      680      681      692      691
8      616      617      628      627      682      683      694      693
8      617      618      629      628      683      684      695      694
8      618      619      630      629      684      685      696      695
8      619      620      631      630      685      686      697      696
8      620      621      632      631      686      687      698      697
8      621      622      633      632      687      688      699      698
8      622      623      634      633      688      689      700      699
8      623      624      635      634      689      690      701      700
8      624      625      636      635      690      691      702      701
8      625      626      637      636      691      692      703      702
8      627      628      639      638      693      694      705      704
8      628      629      640      639      694      695      706      705
8      629      630      641      640      695      696      707      706
8      630      631      642      641      696      697      708      707
8      631      632      643      642      697      698      709      708
8      632      633      644      643      698      699      710      709
8      633      634      645      644      699      700      711      710
8      634      635      646      645      700      701      712      711
8      635      636      647      646      701      702      713      712
8      636      637      648      647      702      703      714      713
8      638      639      650      649      704      705      716      715
8      639      640      651      650      705      706      717      716
8      640      641      652      651      706      707      718      717
8      641      642      653      652      707      708      719      718
8      642      643      654      653      708      709      720      719
8      643      644      655      654      709      710      721      720
8      644      645      656      655      710      711      722      721
8      645      646      657      656      711      712      723      722
8      646      647      658      657      712      713      724      723
8      647      648      659      658      713      714      725      724

CELL_TYPES      500
12
12
12
12
12
12
12
12
12
12
12
12
12
12
12
12
12
12
12
12
12
12
12
12
12
12
12
12
12
12
12
12
12
12
12
12
12
12
12
12
12
12
12
12
12
12
12
12
12
12
12
12
12
12
12
12
12
12
12
12
12
12
12
12
12
12
12
12
12
12
12
12
12
12
12
12
12
12
12
12
12
12
12
12
12
12
12
12
12
12
12
12
12
12
12
12
12
12
12
12
12
12
12
12
12
12
12
12
12
12
12
12
12
12
12
12
12
12
12
12
12
12
12
12
12
12
12
12
12
12
12
12
12
12
12
12
12
12
12
12
12
12
12
12
12
12
12
12
12
12
12
12
12
12
12
12
12
12
12
12
12
12
12
12
12
12
12
12
12
12
12
12
12
12
12
12
12
12
12
12
12
12
12
12
12
12
12
12
12
12
12
12
12
12
12
12
12
12
12
12
12
12
12
12
12
12
12
12
12
12
12
12
12
12
12
12
12
12
12
12
12
12
12
12
12
12
12
12
12
12
12
12
12
12
12
12
12
12
12
12
12
12
12
12
12
12
12
12
12
12
12
12
12
12
12
12
12
12
12
12
12
12
12
12
12
12
12
12
12
12
12
12
12
12
12
12
12
12
12
12
12
12
12
12
12
12
12
12
12
12
12
12
12
12
12
12
12
12
12
12
12
12
12
12
12
12
12
12
12
12
12
12
12
12
12
12
12
12
12
12
12
12
12
12
12
12
12
12
12
12
12
12
12
12
12
12
12
12
12
12
12
12
12
12
12
12
12
12
12
12
12
12
12
12
12
12
12
12
12
12
12
12
12
12
12
12
12
12
12
12
12
12
12
12
12
12
12
12
12
12
12
12
12
12
12
12
12
12
12
12
12
12
12
12
12
12
12
12
12
12
12
12
12
12
12
12
12
12
12
12
12
12
12
12
12
12
12
12
12
12
12
12
12
12
12
12
12
12
12
12
12
12
12
12
12
12
12
12
12
12
12
12
12
12
12
12
12
12
12
12
12
12
12
12
12
12
12
12
12
12
12
12
12
12
12
12
12
12
12
12
12
12
12
12
12
12
12
12
12
12
12
12
12
12
12
12
12
12
12
12
12
12
12
12
12
12
12
12
12
12
