# vtk DataFile Version 2.0
CGAL constrained delaunay mesh generation 2d
ASCII
DATASET UNSTRUCTURED_GRID
POINTS 1221 double
0 0 0
0.02 0 0
0.04 0 0
0.06 0 0
0.08 0 0
0.1 0 0
0.12 0 0
0.14 0 0
0.16 0 0
0.18 0 0
0.2 0 0
0.22 0 0
0.24 0 0
0.26 0 0
0.28 0 0
0.3 0 0
0.32 0 0
0.34 0 0
0.36 0 0
0.38 0 0
0.4 0 0
0.42 0 0
0.44 0 0
0.46 0 0
0.48 0 0
0.5 0 0
0.52 0 0
0.54 0 0
0.56 0 0
0.58 0 0
0.6 0 0
0.62 0 0
0.64 0 0
0.66 0 0
0.68 0 0
0.7 0 0
0.72 0 0
0.74 0 0
0.76 0 0
0.78 0 0
0.8 0 0
0.82 0 0
0.84 0 0
0.86 0 0
0.88 0 0
0.9 0 0
0.92 0 0
0.94 0 0
0.96 0 0
0.98 0 0
1 0 0
1 0 0.02
1 0 0.04
1 0 0.06
1 0 0.08
1 0 0.1
1 0 0.12
1 0 0.14
1 0 0.16
1 0 0.18
1 0 0.2
1 0 0.22
1 0 0.24
1 0 0.26
1 0 0.28
1 0 0.3
1 0 0.32
1 0 0.34
1 0 0.36
1 0 0.38
1 0 0.4
1 0 0.42
1 0 0.44
1 0 0.46
1 0 0.48
1 0 0.5
1 0 0.52
1 0 0.54
1 0 0.56
1 0 0.58
1 0 0.6
1 0 0.62
1 0 0.64
1 0 0.66
1 0 0.68
1 0 0.7
1 0 0.72
1 0 0.74
1 0 0.76
1 0 0.78
1 0 0.8
1 0 0.82
1 0 0.84
1 0 0.86
1 0 0.88
1 0 0.9
1 0 0.92
1 0 0.94
1 0 0.96
1 0 0.98
1 0 1
0.98 0 1
0.96 0 1
0.94 0 1
0.92 0 1
0.9 0 1
0.88 0 1
0.86 0 1
0.84 0 1
0.82 0 1
0.8 0 1
0.78 0 1
0.76 0 1
0.74 0 1
0.72 0 1
0.7 0 1
0.68 0 1
0.66 0 1
0.64 0 1
0.62 0 1
0.6 0 1
0.58 0 1
0.56 0 1
0.54 0 1
0.52 0 1
0.5 0 1
0.48 0 1
0.46 0 1
0.44 0 1
0.42 0 1
0.4 0 1
0.38 0 1
0.36 0 1
0.34 0 1
0.32 0 1
0.3 0 1
0.28 0 1
0.26 0 1
0.24 0 1
0.22 0 1
0.2 0 1
0.18 0 1
0.16 0 1
0.14 0 1
0.12 0 1
0.1 0 1
0.08 0 1
0.06 0 1
0.04 0 1
0.02 0 1
0 0 1
0 0 0.98
0 0 0.96
0 0 0.94
0 0 0.92
0 0 0.9
0 0 0.88
0 0 0.86
0 0 0.84
0 0 0.82
0 0 0.8
0 0 0.78
0 0 0.76
0 0 0.74
0 0 0.72
0 0 0.7
0 0 0.68
0 0 0.66
0 0 0.64
0 0 0.62
0 0 0.6
0 0 0.58
0 0 0.56
0 0 0.54
0 0 0.52
0 0 0.5
0 0 0.48
0 0 0.46
0 0 0.44
0 0 0.42
0 0 0.4
0 0 0.38
0 0 0.36
0 0 0.34
0 0 0.32
0 0 0.3
0 0 0.28
0 0 0.26
0 0 0.24
0 0 0.22
0 0 0.2
0 0 0.18
0 0 0.16
0 0 0.14
0 0 0.12
0 0 0.1
0 0 0.08
0 0 0.06
0 0 0.04
0 0 0.02
0.494176 0 0.496905
0.308836 0 0.291845
0.310972 0 0.716255
0.692193 0 0.29087
0.715357 0 0.688182
0.230272 0 0.499573
0.521065 0 0.78582
0.700275 0 0.484004
0.49742 0 0.204909
0.176672 0 0.176756
0.173205 0 0.823196
0.822848 0 0.825823
0.82526 0 0.180138
0.829897 0 0.373731
0.164142 0 0.345186
0.155258 0 0.651042
0.667551 0 0.841829
0.83887 0 0.570265
0.374959 0 0.853008
0.544842 0 0.355204
0.644062 0 0.144948
0.351513 0 0.143578
0.609888 0 0.592477
0.408006 0 0.387432
0.45273 0 0.646295
0.364317 0 0.514005
0.866321 0 0.698499
0.118457 0 0.531256
0.26854 0 0.390831
0.26815 0 0.607209
0.560246 0 0.887191
0.61423 0 0.744425
0.414128 0 0.745771
0.528604 0 0.103534
0.27613 0 0.886904
0.589895 0 0.25985
0.401866 0 0.235123
0.648398 0 0.390359
0.738695 0 0.588781
0.600347 0 0.475733
0.802607 0 0.472382
0.887534 0 0.271556
0.7889 0 0.278062
0.902444 0 0.444766
0.537932 0 0.679955
0.251435 0 0.105517
0.750664 0 0.0988606
0.102683 0 0.747697
0.103157 0 0.251046
0.0994162 0 0.101884
0.10528 0 0.902648
0.90099 0 0.891702
0.897818 0 0.0989159
0.473142 0 0.298165
0.769923 0 0.906527
0.093593 0 0.429342
0.440126 0 0.136954
0.465595 0 0.901669
0.361344 0 0.607847
0.740164 0 0.366264
0.906593 0 0.785631
0.211628 0 0.729378
0.273847 0 0.197592
0.215396 0 0.274822
0.724343 0 0.198321
0.27561 0 0.794724
0.791002 0 0.746462
0.7959 0 0.65401
0.917494 0 0.348685
0.0850394 0 0.611557
0.919019 0 0.187107
0.917545 0 0.530044
0.910991 0 0.621529
0.522081 0 0.603483
0.190586 0 0.428812
0.0773793 0 0.328343
0.196295 0 0.902638
0.19805 0 0.578363
0.572292 0 0.174196
0.747667 0 0.82372
0.650451 0 0.914851
0.337415 0 0.433615
0.341424 0 0.921717
0.582151 0 0.813472
0.538635 0 0.427266
0.438457 0 0.557667
0.616434 0 0.0716252
0.692508 0 0.769836
0.381838 0 0.315038
0.449967 0 0.811862
0.072344 0 0.826237
0.382479 0 0.0741807
0.341293 0 0.783937
0.386935 0 0.680745
0.64282 0 0.66322
0.824127 0 0.100128
0.100426 0 0.175265
0.173415 0 0.0743001
0.62105 0 0.324193
0.654206 0 0.217337
0.465197 0 0.434847
0.562656 0 0.539468
0.645433 0 0.534067
0.682534 0 0.0813527
0.098748 0 0.680279
0.337112 0 0.366377
0.322766 0 0.0798952
0.475364 0 0.371299
0.223673 0 0.664643
0.333817 0 0.212458
0.300092 0 0.493671
0.471887 0 0.709347
0.760997 0 0.519836
0.467348 0 0.0705172
0.936475 0 0.722023
0.502561 0 0.853633
0.316322 0 0.556207
0.711822 0 0.4191
0.837761 0 0.892486
0.674219 0 0.593815
0.167547 0 0.490389
0.42873 0 0.494843
0.262278 0 0.325431
0.0568633 0 0.487047
0.851462 0 0.764427
0.152633 0 0.711964
0.784121 0 0.412735
0.589091 0 0.397359
0.537227 0 0.285005
0.863268 0 0.489129
0.70659 0 0.890352
0.855069 0 0.62965
0.521397 0 0.940792
0.403731 0 0.906502
0.0582095 0 0.550852
0.593075 0 0.943736
0.253355 0 0.944044
0.872746 0 0.942664
0.322749 0 0.653085
0.163449 0 0.238412
0.9453 0 0.286619
0.318578 0 0.841494
0.0541193 0 0.942663
0.938079 0 0.941994
0.162197 0 0.769344
0.144467 0 0.592914
0.137945 0 0.299472
0.234702 0 0.84184
0.215468 0 0.374957
0.252799 0 0.448842
0.250896 0 0.550226
0.566265 0 0.638067
0.834862 0 0.235053
0.863103 0 0.323214
0.614043 0 0.867418
0.0530912 0 0.387068
0.0530843 0 0.881747
0.94281 0 0.833769
0.880056 0 0.836453
0.726961 0 0.947552
0.0595119 0 0.0563778
0.932305 0 0.0550997
0.218459 0 0.215583
0.0542124 0 0.210104
0.784854 0 0.0520911
0.436406 0 0.190293
0.652867 0 0.452278
0.689773 0 0.343167
0.7765 0 0.223485
0.553472 0 0.0527415
0.86851 0 0.0539225
0.0539195 0 0.126832
0.947332 0 0.127823
0.666955 0 0.720611
0.637685 0 0.792035
0.559717 0 0.73773
0.435001 0 0.336868
0.295935 0 0.13235
0.707283 0 0.136471
0.458731 0 0.242776
0.217034 0 0.785844
0.942012 0 0.402099
0.81171 0 0.946552
0.148282 0 0.948628
0.273507 0 0.0530191
0.730312 0 0.0540892
0.0495849 0 0.768261
0.0520508 0 0.269108
0.464147 0 0.761096
0.394934 0 0.801564
0.398543 0 0.445321
0.0497568 0 0.711924
0.932472 0 0.240106
0.735717 0 0.261926
0.710192 0 0.638616
0.950234 0 0.475599
0.747174 0 0.462268
0.702687 0 0.543576
0.523381 0 0.157547
0.788314 0 0.570631
0.842743 0 0.427054
0.817734 0 0.523947
0.124654 0 0.0497961
0.125393 0 0.806589
0.553516 0 0.219338
0.640382 0 0.270649
0.198142 0 0.125025
0.781544 0 0.142041
0.505343 0 0.550959
0.355475 0 0.261828
0.382634 0 0.185222
0.362883 0 0.727327
0.594745 0 0.69707
0.11368 0 0.377523
0.550692 0 0.490902
0.438314 0 0.951735
0.864756 0 0.143498
0.139909 0 0.138099
0.580717 0 0.11857
0.111853 0 0.478825
0.0521833 0 0.444174
0.0495628 0 0.655855
0.428536 0 0.858943
0.946232 0 0.577607
0.146902 0 0.866968
0.953968 0 0.885953
0.743771 0 0.315018
0.798716 0 0.330831
0.258984 0 0.707855
0.884634 0 0.393545
0.234944 0 0.157968
0.491448 0 0.665402
0.222305 0 0.0541574
0.384191 0 0.951215
0.281481 0 0.65974
0.737222 0 0.737746
0.768757 0 0.693685
0.202658 0 0.623076
0.200105 0 0.329006
0.268253 0 0.251528
0.2997 0 0.927681
0.691187 0 0.173632
0.796177 0 0.858199
0.94882 0 0.658323
0.747149 0 0.785108
0.95052 0 0.755352
0.424111 0 0.286222
0.51741 0 0.326829
0.292317 0 0.425322
0.157111 0 0.39347
0.201193 0 0.956292
0.892478 0 0.575626
0.425421 0 0.703891
0.874792 0 0.224544
0.587797 0 0.308361
0.697593 0 0.233977
0.610905 0 0.20992
0.159073 0 0.530615
0.482537 0 0.587152
0.347771 0 0.0411009
0.38884 0 0.565074
0.418864 0 0.604264
0.313319 0 0.608127
0.490776 0 0.114195
0.391782 0 0.128727
0.893382 0 0.733356
0.512872 0 0.261424
0.515824 0 0.729265
0.845161 0 0.287729
0.647388 0 0.0462252
0.801219 0 0.782635
0.824325 0 0.715037
0.131191 0 0.197147
0.900319 0 0.67496
0.280257 0 0.751932
0.171106 0 0.276335
0.783858 0 0.181016
0.152071 0 0.435094
0.106096 0 0.955607
0.32006 0 0.176904
0.198754 0 0.692241
0.553386 0 0.840703
0.522315 0 0.895792
0.485123 0 0.171162
0.809805 0 0.607374
0.749424 0 0.628933
0.833819 0 0.671064
0.955813 0 0.184517
0.863496 0 0.179522
0.906113 0 0.141883
0.867591 0 0.545046
0.951455 0 0.525277
0.113767 0 0.864962
0.562722 0 0.59285
0.474659 0 0.530861
0.0433668 0 0.60566
0.0955684 0 0.568489
0.120142 0 0.626952
0.603585 0 0.351761
0.520449 0 0.391132
0.435705 0 0.0430261
0.68647 0 0.951394
0.750021 0 0.152678
0.955844 0 0.347536
0.364209 0 0.397323
0.371757 0 0.354879
0.367427 0 0.473424
0.0511688 0 0.169149
0.274572 0 0.844971
0.611212 0 0.517242
0.470639 0 0.939032
0.640461 0 0.496749
0.328377 0 0.955749
0.949587 0 0.610838
0.870747 0 0.795134
0.911106 0 0.302729
0.768108 0 0.94539
0.68972 0 0.0394458
0.286434 0 0.352886
0.958375 0 0.802224
0.0400096 0 0.32983
0.398801 0 0.649769
0.196418 0 0.862442
0.23771 0 0.902361
0.0836261 0 0.286031
0.705365 0 0.378257
0.203933 0 0.469571
0.431382 0 0.0823325
0.502912 0 0.0441322
0.315216 0 0.889898
0.48853 0 0.624462
0.898089 0 0.48291
0.405858 0 0.521691
0.339703 0 0.31861
0.215008 0 0.534629
0.231444 0 0.594393
0.039149 0 0.827604
0.603513 0 0.150868
0.788124 0 0.824403
0.739064 0 0.872262
0.706948 0 0.849231
0.689049 0 0.808251
0.633121 0 0.625829
0.414797 0 0.159828
0.651113 0 0.879386
0.624487 0 0.957037
0.324803 0 0.402911
0.617237 0 0.440691
0.37086 0 0.886212
0.0941538 0 0.793481
0.631696 0 0.826591
0.267068 0 0.516519
0.294349 0 0.228201
0.22783 0 0.407243
0.163463 0 0.0436238
0.527182 0 0.645251
0.464299 0 0.866491
0.587309 0 0.0490592
0.647889 0 0.107292
0.503817 0 0.458997
0.577176 0 0.447805
0.62574 0 0.70723
0.67741 0 0.666891
0.385389 0 0.041693
0.561509 0 0.780508
0.312904 0 0.0436266
0.631335 0 0.182338
0.111561 0 0.342229
0.79608 0 0.369515
0.939846 0 0.438069
0.604428 0 0.644001
0.36091 0 0.105318
0.148627 0 0.101284
0.605068 0 0.779522
0.596848 0 0.898949
0.343533 0 0.687471
0.366565 0 0.812886
0.556731 0 0.954856
0.819073 0 0.0430582
0.435354 0 0.775562
0.487513 0 0.80122
0.935805 0 0.0910027
0.663107 0 0.753528
0.272874 0 0.288035
0.380019 0 0.754077
0.318849 0 0.748395
0.312481 0 0.802313
0.362878 0 0.649715
0.251851 0 0.769331
0.287417 0 0.963381
0.485714 0 0.401065
0.449293 0 0.399293
0.961388 0 0.0689198
0.85855 0 0.100053
0.788021 0 0.0913759
0.0963338 0 0.214605
0.103825 0 0.138671
0.262748 0 0.483792
0.616508 0 0.558914
0.964416 0 0.250206
0.572727 0 0.0811941
0.652087 0 0.301297
0.637113 0 0.359976
0.749453 0 0.426281
0.798938 0 0.686329
0.717301 0 0.791941
0.555329 0 0.391196
0.464403 0 0.473375
0.529946 0 0.520308
0.67664 0 0.51624
0.911287 0 0.966273
0.902841 0 0.929526
0.296896 0 0.319851
0.328913 0 0.523823
0.088611 0 0.0440281
0.038593 0 0.0882404
0.213465 0 0.179269
0.825829 0 0.137561
0.392766 0 0.271867
0.156481 0 0.91474
0.837706 0 0.462064
0.736912 0 0.665489
0.719145 0 0.0839178
0.547676 0 0.921648
0.883432 0 0.360366
0.556132 0 0.251873
0.034471 0 0.510384
0.869038 0 0.662178
0.137712 0 0.262438
0.420058 0 0.827181
0.392848 0 0.718542
0.117564 0 0.71213
0.135153 0 0.679779
0.0853274 0 0.649224
0.1415 0 0.834064
0.47993 0 0.330929
0.280181 0 0.0852325
0.697623 0 0.735526
0.323588 0 0.464668
0.868963 0 0.873793
0.0338833 0 0.911941
0.471815 0 0.0355787
0.352429 0 0.549658
0.955525 0 0.0298651
0.501601 0 0.0811722
0.809284 0 0.209455
0.188439 0 0.65266
0.246643 0 0.634478
0.175983 0 0.603744
0.288209 0 0.164155
0.832879 0 0.318931
0.880239 0 0.605538
0.0817171 0 0.461051
0.194657 0 0.509095
0.544248 0 0.18728
0.89851 0 0.0406919
0.517735 0 0.823331
0.371558 0 0.215681
0.44748 0 0.736271
0.455768 0 0.680562
0.219976 0 0.0951368
0.6254 0 0.239685
0.757102 0 0.557312
0.735905 0 0.495613
0.792668 0 0.505136
0.772001 0 0.59666
0.709358 0 0.314895
0.168402 0 0.313883
0.673424 0 0.62934
0.132722 0 0.561139
0.680133 0 0.922681
0.452256 0 0.611905
0.547828 0 0.131728
0.541295 0 0.563513
0.8708 0 0.90751
0.281565 0 0.551059
0.612914 0 0.289623
0.349433 0 0.180859
0.439267 0 0.529212
0.434109 0 0.45704
0.616195 0 0.11731
0.391427 0 0.497177
0.848767 0 0.204896
0.324873 0 0.245659
0.49708 0 0.958275
0.968769 0 0.707332
0.0690594 0 0.0925003
0.0953044 0 0.070953
0.828083 0 0.493775
0.717897 0 0.455313
0.681941 0 0.40486
0.0315146 0 0.568818
0.968615 0 0.852535
0.283829 0 0.692683
0.506285 0 0.698816
0.646384 0 0.567404
0.828249 0 0.863043
0.801002 0 0.891702
0.835583 0 0.791582
0.335631 0 0.585539
0.29277 0 0.582242
0.211023 0 0.0286241
0.479003 0 0.831131
0.842138 0 0.954739
0.229865 0 0.702375
0.326712 0 0.117919
0.259574 0 0.359901
0.233358 0 0.304658
0.133971 0 0.502186
0.97046 0 0.103151
0.250992 0 0.033
0.93596 0 0.160543
0.437098 0 0.369658
0.340558 0 0.865929
0.875254 0 0.42371
0.0914236 0 0.504301
0.0306829 0 0.468212
0.733681 0 0.231552
0.581256 0 0.859938
0.231432 0 0.244879
0.197662 0 0.248712
0.0275954 0 0.191706
0.0646222 0 0.582776
0.970561 0 0.310273
0.939245 0 0.322509
0.0297255 0 0.414641
0.0257682 0 0.36992
0.0823757 0 0.363773
0.0292631 0 0.970636
0.971769 0 0.949902
0.230071 0 0.345245
0.682755 0 0.112492
0.702983 0 0.576317
0.666434 0 0.249804
0.424052 0 0.42266
0.167972 0 0.123375
0.680966 0 0.867973
0.739265 0 0.909827
0.137909 0 0.741783
0.0536789 0 0.303223
0.0760718 0 0.9651
0.765592 0 0.385196
0.816419 0 0.401993
0.809936 0 0.43726
0.494611 0 0.917167
0.902569 0 0.0693589
0.684433 0 0.442519
0.164323 0 0.205384
0.732834 0 0.533098
0.192766 0 0.395885
0.0692372 0 0.740468
0.123431 0 0.413119
0.972792 0 0.418136
0.173301 0 0.967814
0.50224 0 0.295843
0.55207 0 0.31643
0.90338 0 0.704639
0.857658 0 0.733389
0.823021 0 0.751836
0.882435 0 0.764959
0.0496347 0 0.0265384
0.221973 0 0.874181
0.971101 0 0.449394
0.182582 0 0.719738
0.0304726 0 0.235752
0.750671 0 0.0326589
0.971183 0 0.152524
0.174313 0 0.458105
0.582771 0 0.569203
0.379593 0 0.156612
0.928657 0 0.866881
0.924685 0 0.808329
0.820231 0 0.266188
0.859723 0 0.256246
0.620932 0 0.407588
0.693217 0 0.205838
0.573665 0 0.670413
0.957086 0 0.918791
0.0529867 0 0.79702
0.246826 0 0.735229
0.302219 0 0.774581
0.971032 0 0.381658
0.719488 0 0.165108
0.0277067 0 0.145937
0.871907 0 0.45724
0.580585 0 0.505474
0.793476 0 0.972176
0.0831828 0 0.710887
0.147051 0 0.172413
0.8872 0 0.514851
0.76518 0 0.343991
0.733138 0 0.396687
0.590752 0 0.974314
0.026171 0 0.786531
0.749324 0 0.97424
0.822569 0 0.635498
0.842946 0 0.600218
0.0883916 0 0.929583
0.944332 0 0.973326
0.669795 0 0.476592
0.130062 0 0.774225
0.0332296 0 0.685946
0.0416324 0 0.737284
0.131651 0 0.229949
0.410807 0 0.971501
0.620348 0 0.927374
0.469862 0 0.975083
0.974885 0 0.587958
0.764585 0 0.849578
0.0267081 0 0.28768
0.657712 0 0.335419
0.433497 0 0.222727
0.406613 0 0.203648
0.583395 0 0.758274
0.928669 0 0.906032
0.240599 0 0.193018
0.652546 0 0.421669
0.878091 0 0.973868
0.894339 0 0.812611
0.630739 0 0.46801
0.406728 0 0.350339
0.374386 0 0.919442
0.433303 0 0.889162
0.400211 0 0.876088
0.532868 0 0.865307
0.973665 0 0.218397
0.361552 0 0.291302
0.258495 0 0.820907
0.201957 0 0.827943
0.0240526 0 0.869844
0.229319 0 0.969545
0.0621392 0 0.520992
0.486535 0 0.73927
0.778287 0 0.450446
0.842997 0 0.925203
0.169612 0 0.683806
0.0264824 0 0.539472
0.0254855 0 0.0501857
0.340844 0 0.626885
0.811879 0 0.0718284
0.973662 0 0.502002
0.600315 0 0.182616
0.657276 0 0.694401
0.783902 0 0.628392
0.707604 0 0.975888
0.337102 0 0.493677
0.266748 0 0.919082
0.544105 0 0.459978
0.910757 0 0.414006
0.912246 0 0.380581
0.299468 0 0.261166
0.791271 0 0.0240435
0.452743 0 0.165431
0.466375 0 0.203345
0.312745 0 0.68435
0.548204 0 0.808326
0.589927 0 0.726581
0.538694 0 0.715675
0.537341 0 0.756612
0.567038 0 0.419268
0.299021 0 0.863692
0.166123 0 0.568261
0.506216 0 0.35957
0.724126 0 0.288233
0.080381 0 0.856595
0.124685 0 0.929112
0.919322 0 0.269061
0.977128 0 0.280766
0.0642411 0 0.417435
0.973036 0 0.558196
0.496811 0 0.145953
0.297804 0 0.524832
0.424338 0 0.66768
0.391105 0 0.416299
0.186057 0 0.79268
0.191619 0 0.755612
0.25973 0 0.976887
0.455762 0 0.108307
0.286521 0 0.460851
0.21785 0 0.931646
0.254276 0 0.222721
0.918353 0 0.756388
0.611702 0 0.37923
0.15431 0 0.800435
0.153506 0 0.62319
0.113051 0 0.594561
0.0690527 0 0.24245
0.757829 0 0.0697677
0.0875186 0 0.396269
0.851132 0 0.516803
0.0669287 0 0.681028
0.130276 0 0.973668
0.61866 0 0.0270602
0.367187 0 0.439632
0.86941 0 0.0249612
0.842667 0 0.0710945
0.587204 0 0.615487
0.547933 0 0.618322
0.626647 0 0.896628
0.0656569 0 0.910411
0.672166 0 0.369983
0.722309 0 0.343461
0.292152 0 0.823054
0.108166 0 0.310784
0.0877629 0 0.53881
0.388623 0 0.622742
0.8868 0 0.638555
0.675075 0 0.558482
0.191088 0 0.0497132
0.188694 0 0.36241
0.223285 0 0.438922
0.255248 0 0.419051
0.448158 0 0.312548
0.240023 0 0.526965
0.223842 0 0.561356
0.258094 0 0.577403
0.792211 0 0.924617
0.292354 0 0.630393
0.852675 0 0.352001
0.877484 0 0.297611
0.521919 0 0.486664
0.180347 0 0.934142
0.41391 0 0.313397
0.504995 0 0.427056
0.929193 0 0.025718
0.710037 0 0.607375
0.717797 0 0.821991
0.254258 0 0.677445
0.637993 0 0.853144
0.604644 0 0.838671
0.896441 0 0.861827
0.856793 0 0.819359
0.3563 0 0.0701384
0.918192 0 0.59353
0.941427 0 0.550124
0.425945 0 0.25498
0.928658 0 0.50058
0.923278 0 0.465497
0.525862 0 0.0627032
0.57562 0 0.201744
0.353983 0 0.838791
0.679221 0 0.313568
0.494057 0 0.883306
0.853588 0 0.391363
0.480908 0 0.266326
0.451711 0 0.276444
0.709694 0 0.514196
0.509453 0 0.756404
0.263668 0 0.139934
0.641965 0 0.594854
0.973923 0 0.676033
0.304374 0 0.199091
0.973437 0 0.641696
0.939889 0 0.370136
0.140116 0 0.362401
0.106295 0 0.83193
0.941016 0 0.210799
0.800919 0 0.243731
0.768066 0 0.255439
0.757011 0 0.28567
0.756504 0 0.205425
0.651952 0 0.076174
0.532595 0 0.0288223
0.586064 0 0.231396
0.70531 0 0.665507
0.139344 0 0.0220063
0.0232207 0 0.117083
0.0831947 0 0.122008
0.919507 0 0.117207
0.460626 0 0.504484
0.468886 0 0.13895
0.301303 0 0.102667
0.252627 0 0.866409
0.36434 0 0.57749
0.359602 0 0.975237
0.57696 0 0.33692
0.241817 0 0.38208
0.865163 0 0.576845
0.61222 0 0.674259
0.113518 0 0.280241
0.0750588 0 0.189076
0.720062 0 0.111805
0.677013 0 0.145832
0.562607 0 0.0225836
0.973606 0 0.77629
0.64261 0 0.731949
0.689881 0 0.698687
0.199545 0 0.154114
0.229842 0 0.127665
0.185364 0 0.0997593
0.227943 0 0.813083
0.22336 0 0.757738
0.659084 0 0.812578
0.665201 0 0.782734
0.635761 0 0.76385
0.79027 0 0.716932
0.759731 0 0.723087
0.138299 0 0.328731
0.122925 0 0.0842334
0.0220981 0 0.706534
0.245264 0 0.271402
0.405603 0 0.472092
0.146478 0 0.0692652
0.493352 0 0.23295
0.276881 0 0.113763
0.28288 0 0.0260307
0.248727 0 0.0731746
0.297264 0 0.064997
0.703429 0 0.0585798
0.0259158 0 0.6356
0.723041 0 0.760008
0.893908 0 0.329407
0.810866 0 0.298231
0.571989 0 0.283455
0.716933 0 0.0254367
0.0228961 0 0.260406
0.786459 0 0.538463
0.813997 0 0.552883
0.524078 0 0.977023
0.76853 0 0.485006
0.437755 0 0.920416
0.389239 0 0.592887
0.526372 0 0.236491
0.0234246 0 0.939218
0.389591 0 0.827401
0.372886 0 0.781611
0.403231 0 0.776363
0.839574 0 0.542312
0.336705 0 0.816605
0.823389 0 0.346028
0.54954 0 0.159586
0.513329 0 0.18089
0.408672 0 0.937125
0.439539 0 0.978931
0.663159 0 0.181569
0.0602054 0 0.629107
0.525635 0 0.208698
0.446778 0 0.583518
0.899322 0 0.244021
0.90999 0 0.21713
0.234173 0 0.469352
0.31869 0 0.149095
0.408103 0 0.0577291
0.0764169 0 0.153079
0.300115 0 0.380978
0.749198 0 0.179435
0.19348 0 0.197135
0.915372 0 0.651967
0.565665 0 0.705447
0.97683 0 0.740866
0.888932 0 0.197237
0.892419 0 0.168008
0.189468 0 0.547932
0.726029 0 0.561342
0.768454 0 0.664639
0.559313 0 0.105923
0.572788 0 0.146246
0.595687 0 0.0975162
0.656998 0 0.975207
0.116917 0 0.655615
0.721093 0 0.715
0.0527982 0 0.35442
0.777216 0 0.309193
0.0509696 0 0.853743
0.935119 0 0.684281
0.937609 0 0.635046
0.0840858 0 0.88676
0.701553 0 0.264083
0.519952 0 0.130226
0.366506 0 0.703061
0.339079 0 0.724334
0.351606 0 0.754649
0.938235 0 0.781224
0.380124 0 0.53912
0.410843 0 0.549961
0.416782 0 0.576507
0.815524 0 0.580314
0.283209 0 0.722663
0.670259 0 0.278406
0.614268 0 0.262577
0.773448 0 0.115839
0.807667 0 0.155613
0.802731 0 0.120918
0.168887 0 0.149451
0.513004 0 0.577996
0.503318 0 0.522313
0.676299 0 0.89622
0.894472 0 0.546283
0.377087 0 0.246054
0.332878 0 0.276753
0.16988 0 0.8856
0.134798 0 0.894021
0.168954 0 0.851006
0.196529 0 0.297446
0.58957 0 0.538286
0.467991 0 0.558443
0.578138 0 0.368731
0.543913 0 0.0823658
0.762751 0 0.758778
0.120085 0 0.448179
0.143225 0 0.467763
0.315605 0 0.345779
0.422273 0 0.801097
0.975884 0 0.821947
0.357881 0 0.946292
0.557507 0 0.515326
0.570925 0 0.475847
0.122717 0 0.158368
0.842783 0 0.157589
0.845282 0 0.120813
0.12026 0 0.116775
0.88082 0 0.118165
0.820983 0 0.97857
0.976272 0 0.977412
0.612085 0 0.807576
0.0772592 0 0.769397
0.423507 0 0.63204
0.0224074 0 0.022336
0.742719 0 0.695629
0.461835 0 0.788205
0.77149 0 0.878066
0.707724 0 0.920364
0.259573 0 0.171312
0.345943 0 0.894859
0.852979 0 0.848426
0.165229 0 0.741238
0.594108 0 0.424054
0.672455 0 0.0540632
0.449277 0 0.839404
0.0220913 0 0.439834
0.351 0 0.235251
0.744537 0 0.12693
0.774502 0 0.796519
0.457413 0 0.34817
0.917548 0 0.561597
0.817305 0 0.915618
0.652569 0 0.944739
0.489242 0 0.772083
0.910601 0 0.836264
0.874813 0 0.0811293
0.670816 0 0.0224487
0.401831 0 0.0952142
0.423647 0 0.115251
0.201175 0 0.0753531
0.0208822 0 0.758726
0.40296 0 0.849249
0.57743 0 0.920699
0.24582 0 0.796117
0.980116 0 0.901365
0.1898 0 0.221998
0.328501 0 0.0183203
0.409688 0 0.0222173
0.370107 0 0.0183645
0.977062 0 0.127897
0.107305 0 0.0224417
0.310127 0 0.979547
0.978644 0 0.0489075
0.209772 0 0.981223
0.486482 0 0.0182755
0.453219 0 0.0182187
0.0199139 0 0.590485
0.0208326 0 0.494011
0.979303 0 0.875307
0.979153 0 0.332935
0.0220631 0 0.391642
0.0214065 0 0.348949
0.18889 0 0.02122
0.386591 0 0.97751
0.980136 0 0.19329
0.683373 0 0.979946
0.771074 0 0.978678
0.0776856 0 0.0201227
0.0207698 0 0.16973
0.0208223 0 0.809844
0.909482 0 0.018591
0.833258 0 0.0173729
0.977295 0 0.531441
0.568693 0 0.98107
0.612309 0 0.980836
0.0208015 0 0.310784
0.977994 0 0.613378
0.155779 0 0.979625
0.108675 0 0.981687
0.0226946 0 0.892536
0.0214261 0 0.848621
0.0212218 0 0.213157
0.0556753 0 0.978878
0.590034 0 0.021731
0.728984 0 0.979741
0.979902 0 0.927131
0.230229 0 0.020261
0.647575 0 0.0201173
0.692184 0 0.0183465
0.307436 0 0.0189955
0.977611 0 0.0216007
0.349797 0 0.0169898
0.978158 0 0.473708
0.846675 0 0.0340084
0.0196447 0 0.0753736
0.982321 0 0.0802002
0.332685 0 0.981291
0.188729 0 0.981198
0.390068 0 0.0171263
0.849305 0 0.978877
0.509739 0 0.018112
0.430595 0 0.0171827
0.496633 0 0.981965
0.0204504 0 0.663544
0.0178177 0 0.611203
0.981831 0 0.356499
0.167353 0 0.0201898
0.770168 0 0.0199192
0.981561 0 0.172545
0.0193976 0 0.730859
0.890184 0 0.0169104
0.81237 0 0.0178805
0.548423 0 0.981501
0.632816 0 0.981098
0.0161675 0 0.330255
0.0883911 0 0.981817
0.016201 0 0.829945

CELLS 2240 8960
3 1191 469 892
3 863 959 426
3 256 543 1142
3 1065 952 443
3 943 742 213
3 418 680 537
3 38 765 37
3 1034 220 982
3 557 983 1187
3 1013 625 235
3 291 571 932
3 418 1057 680
3 490 789 1087
3 789 936 271
3 1111 252 968
3 1016 399 662
3 1180 80 81
3 1180 952 513
3 268 953 849
3 936 789 531
3 849 381 848
3 84 85 950
3 43 1197 1175
3 35 1014 1192
3 364 1211 851
3 961 1127 303
3 1126 859 327
3 982 378 441
3 1140 33 34
3 956 392 1039
3 773 772 352
3 40 851 39
3 617 1108 1081
3 941 367 810
3 839 578 895
3 711 487 270
3 773 468 772
3 1153 57 766
3 1109 295 593
3 55 1199 54
3 295 1109 617
3 866 392 340
3 1111 968 489
3 1174 45 46
3 1214 45 1174
3 53 54 1199
3 1081 1108 212
3 592 581 361
3 48 1194 643
3 53 1156 52
3 49 50 51
3 762 569 752
3 889 490 1027
3 106 107 817
3 216 544 928
3 1121 330 737
3 1020 510 415
3 756 226 473
3 1145 629 422
3 314 465 756
3 1072 519 771
3 486 226 471
3 80 807 79
3 331 627 486
3 881 1072 260
3 696 211 1124
3 834 1135 318
3 736 216 540
3 501 1121 359
3 718 354 574
3 315 824 942
3 817 105 106
3 473 906 1047
3 293 872 452
3 89 90 984
3 93 692 92
3 445 984 1072
3 540 926 279
3 103 798 102
3 936 937 395
3 814 343 611
3 1112 110 786
3 93 1162 692
3 82 952 81
3 784 714 243
3 752 70 71
3 952 83 950
3 203 863 666
3 105 817 610
3 933 1134 423
3 777 425 1148
3 272 651 933
3 1049 445 314
3 1135 916 697
3 610 104 105
3 98 1113 729
3 621 394 485
3 99 100 101
3 579 1102 1026
3 1128 702 556
3 929 354 718
3 633 269 497
3 865 1091 619
3 1160 171 691
3 182 726 181
3 904 334 831
3 653 1052 457
3 595 886 363
3 403 634 955
3 876 138 830
3 1099 751 477
3 974 131 132
3 619 921 383
3 137 876 136
3 1157 450 830
3 1066 864 492
3 142 143 1181
3 304 787 890
3 165 166 999
3 1092 522 1090
3 883 344 874
3 1091 424 1090
3 247 631 738
3 336 879 523
3 215 497 884
3 797 342 899
3 529 440 234
3 269 722 496
3 793 386 778
3 157 1184 829
3 1063 290 864
3 822 333 823
3 999 1213 164
3 1181 891 383
3 1058 118 1217
3 883 874 210
3 152 1023 728
3 375 856 813
3 142 1181 141
3 1146 574 805
3 728 148 149
3 510 1020 257
3 1184 1063 829
3 1220 159 1173
3 899 250 797
3 658 452 311
3 902 827 265
3 149 150 151
3 199 0 1
3 1145 218 1024
3 628 979 248
3 1129 725 420
3 178 179 1129
3 355 1164 726
3 725 180 1164
3 495 691 722
3 626 323 831
3 973 642 460
3 366 547 816
3 1195 459 1150
3 677 769 410
3 909 749 449
3 1036 208 1031
3 384 1007 636
3 1142 877 256
3 406 988 987
3 1002 998 402
3 1202 1151 563
3 944 754 253
3 1127 961 469
3 187 1015 186
3 1165 520 1061
3 188 1015 187
3 803 747 339
3 1061 275 727
3 677 1041 221
3 716 1129 420
3 1210 9 1166
3 1190 12 710
3 1154 6 965
3 405 733 1078
3 1159 1158 641
3 1122 430 948
3 739 387 524
3 194 195 966
3 966 195 615
3 721 363 1185
3 5 6 1154
3 1198 837 615
3 10 1166 9
3 2 1117 1
3 687 686 360
3 363 507 980
3 721 191 1172
3 1198 197 837
3 1117 199 1
3 195 1198 615
3 1002 572 998
3 589 135 136
3 545 1178 792
3 1195 18 1152
3 14 1005 13
3 915 675 700
3 883 800 344
3 531 784 243
3 918 650 353
3 786 111 1170
3 795 486 267
3 177 716 176
3 708 1100 320
3 806 510 684
3 462 700 699
3 990 347 828
3 353 650 468
3 313 641 528
3 1204 26 962
3 967 596 1043
3 1005 1193 565
3 1220 536 1184
3 1183 356 640
3 516 1170 794
3 538 211 442
3 58 766 57
3 1163 66 67
3 1196 840 395
3 959 958 242
3 404 1036 654
3 1022 466 1003
3 633 890 421
3 835 325 632
3 1216 123 1018
3 471 995 604
3 1064 314 756
3 781 69 70
3 927 704 308
3 434 693 927
3 366 819 547
3 379 1003 944
3 410 657 677
3 1039 1038 453
3 15 16 1193
3 677 309 479
3 1019 396 833
3 676 298 454
3 323 716 420
3 922 618 446
3 1073 1074 460
3 201 850 1089
3 390 679 1001
3 988 660 245
3 639 251 674
3 1113 102 798
3 920 559 847
3 1164 180 181
3 546 305 504
3 947 832 467
3 946 663 748
3 292 1071 1025
3 115 1169 844
3 629 1024 389
3 1098 1132 444
3 942 744 257
3 730 976 348
3 1155 135 589
3 644 313 528
3 25 1158 24
3 1173 778 536
3 338 917 462
3 945 912 446
3 1067 393 863
3 1056 278 1030
3 288 618 922
3 689 663 207
3 665 662 399
3 668 394 562
3 591 300 734
3 1084 458 408
3 555 431 530
3 237 900 690
3 862 219 499
3 825 62 599
3 867 723 340
3 624 849 429
3 1056 537 278
3 1196 395 762
3 1209 69 781
3 1001 506 390
3 1116 224 872
3 989 660 406
3 1210 1166 554
3 1153 372 709
3 372 489 968
3 480 763 835
3 722 269 495
3 783 966 371
3 1172 192 783
3 297 1002 554
3 1190 11 12
3 1186 342 740
3 634 1092 424
3 770 357 692
3 777 729 343
3 731 558 303
3 745 370 655
3 1126 560 859
3 779 474 588
3 931 818 358
3 1121 1086 330
3 1015 387 809
3 903 567 275
3 527 1141 1042
3 565 306 1007
3 702 656 315
3 1033 415 806
3 927 428 704
3 858 564 206
3 303 622 731
3 566 537 220
3 1138 930 358
3 514 818 931
3 1213 391 802
3 1075 460 1074
3 769 464 543
3 803 339 628
3 618 1088 236
3 612 322 583
3 956 270 487
3 1011 724 268
3 282 821 1104
3 380 990 828
3 1136 805 280
3 926 605 279
3 1087 451 490
3 995 436 604
3 943 213 918
3 295 617 1082
3 1125 344 738
3 1160 170 171
3 298 676 601
3 901 525 367
3 569 848 381
3 1163 503 723
3 1047 906 272
3 977 451 651
3 969 200 494
3 1105 785 301
3 1208 169 170
3 653 526 205
3 1099 652 255
3 1179 184 185
3 132 133 974
3 921 276 879
3 277 437 648
3 165 999 164
3 958 717 368
3 812 543 365
3 1114 929 283
3 1032 333 1020
3 484 665 399
3 992 216 550
3 560 547 239
3 1001 321 681
3 588 265 1147
3 450 1201 753
3 695 907 319
3 375 858 857
3 1085 494 200
3 671 530 224
3 561 294 842
3 917 229 462
3 407 1080 1082
3 600 1057 1055
3 222 896 768
3 240 1019 833
3 815 430 1122
3 612 518 322
3 1128 629 289
3 813 231 573
3 787 247 750
3 802 750 386
3 1005 565 384
3 1005 710 13
3 1024 218 940
3 899 342 640
3 857 858 467
3 588 991 779
3 1048 244 776
3 742 743 326
3 1197 895 578
3 370 745 1139
3 720 263 475
3 880 552 439
3 967 249 596
3 463 870 970
3 578 1215 1175
3 663 396 1019
3 1034 982 441
3 221 464 769
3 1025 1071 584
3 1021 973 460
3 301 673 608
3 694 311 431
3 1085 608 408
3 949 668 542
3 1187 892 557
3 303 1008 622
3 884 437 646
3 631 787 304
3 591 590 300
3 1004 636 971
3 1041 677 479
3 459 1195 1152
3 975 219 755
3 799 609 511
3 885 496 669
3 779 991 261
3 877 527 313
3 310 878 638
3 976 911 553
3 461 905 1021
3 229 535 915
3 630 232 584
3 1054 1118 621
3 662 1053 748
3 1205 500 1151
3 1057 286 680
3 87 1049 86
3 260 1072 771
3 823 548 218
3 1188 359 794
3 1137 832 947
3 508 972 347
3 429 943 624
3 259 790 741
3 1072 984 519
3 817 337 610
3 408 1095 494
3 1094 509 598
3 861 669 457
3 904 715 227
3 833 603 326
3 506 681 225
3 847 559 284
3 248 524 886
3 162 163 1144
3 715 708 227
3 757 226 465
3 627 226 486
3 227 496 904
3 1115 247 549
3 840 74 75
3 664 1019 240
3 676 405 601
3 1095 678 494
3 235 676 1013
3 900 602 810
3 958 368 957
3 1012 1062 242
3 107 1203 817
3 564 283 855
3 627 906 473
3 789 889 329
3 332 623 577
3 122 1177 121
3 806 1206 126
3 440 282 512
3 172 836 691
3 914 534 913
3 121 792 120
3 1054 267 604
3 828 347 522
3 804 415 1033
3 610 343 798
3 97 1189 96
3 1147 265 827
3 860 902 341
3 1043 371 967
3 997 667 214
3 63 599 62
3 724 503 268
3 450 921 879
3 629 389 1102
3 835 646 480
3 780 265 474
3 99 101 1113
3 1103 92 692
3 1071 585 1070
3 315 656 824
3 1164 355 725
3 722 334 496
3 1218 520 1165
3 910 526 274
3 341 902 586
3 380 828 874
3 749 553 274
3 439 552 850
3 551 913 205
3 504 223 873
3 178 1129 177
3 647 437 535
3 401 1027 1017
3 204 986 964
3 456 566 299
3 907 609 397
3 745 655 361
3 936 840 491
3 1217 545 1058
3 115 844 114
3 419 708 715
3 182 1165 726
3 1183 155 156
3 549 955 290
3 96 1148 95
3 382 786 516
3 698 931 211
3 272 906 651
3 254 737 1120
3 318 696 639
3 432 1143 908
3 4 5 1171
3 709 581 592
3 1194 48 49
3 1043 296 980
3 628 346 979
3 1172 191 192
3 706 228 976
3 892 1187 30
3 369 983 557
3 607 321 679
3 446 618 935
3 785 1106 239
3 742 326 568
3 259 901 790
3 782 1045 264
3 680 558 220
3 502 476 1045
3 892 32 1191
3 932 571 306
3 894 655 370
3 1038 773 453
3 198 837 197
3 190 1185 189
3 295 895 593
3 1139 745 252
3 358 930 639
3 373 637 582
3 375 564 858
3 855 206 564
3 351 897 896
3 856 1048 412
3 281 893 506
3 228 706 518
3 1006 432 710
3 291 1141 571
3 1131 378 981
3 1192 34 35
3 223 505 820
3 1097 233 938
3 761 276 522
3 874 344 875
3 849 624 268
3 1011 624 353
3 1170 112 794
3 544 280 898
3 860 341 713
3 1182 891 144
3 309 657 1130
3 649 1122 948
3 782 378 502
3 839 295 594
3 1115 778 386
3 534 1052 653
3 764 387 1015
3 1172 507 721
3 538 470 211
3 1070 575 1069
3 994 985 582
3 1028 341 586
3 954 449 413
3 706 730 322
3 991 380 875
3 536 778 290
3 295 1082 594
3 487 825 956
3 1045 476 960
3 959 863 393
3 540 541 926
3 267 486 604
3 752 569 381
3 73 762 72
3 400 743 742
3 1062 790 426
3 977 217 490
3 608 920 414
3 1083 209 788
3 463 644 233
3 231 561 985
3 743 620 240
3 1045 960 264
3 207 746 689
3 933 451 1134
3 1064 950 685
3 7 8 965
3 402 1154 965
3 1219 478 1182
3 1147 380 588
3 235 661 1079
3 446 935 945
3 733 299 455
3 418 537 1056
3 432 1190 710
3 735 406 1083
3 1197 894 370
3 600 369 557
3 665 485 238
3 1149 339 747
3 826 409 618
3 597 310 551
3 297 989 572
3 533 288 505
3 678 532 321
3 341 940 713
3 768 896 493
3 768 493 673
3 495 1160 691
3 1061 355 726
3 584 1026 1025
3 671 458 530
3 1173 159 160
3 276 761 523
3 960 717 264
3 1051 488 416
3 812 811 236
3 1171 5 1154
3 938 233 644
3 220 558 982
3 626 1161 323
3 706 976 730
3 652 420 255
3 911 349 910
3 173 174 836
3 421 890 801
3 832 658 311
3 282 1123 821
3 312 664 1016
3 423 807 513
3 151 152 728
3 640 342 1023
3 611 343 610
3 703 1203 1112
3 773 919 468
3 682 645 212
3 848 569 243
3 941 666 367
3 356 1066 899
3 854 575 202
3 781 752 381
3 66 723 65
3 852 970 483
3 1000 707 263
3 1075 1074 285
3 845 506 225
3 1107 417 788
3 686 687 249
3 130 1167 804
3 325 1125 738
3 437 884 648
3 588 380 991
3 896 570 351
3 272 1065 1047
3 532 1074 1073
3 471 226 757
3 632 1059 215
3 648 861 277
3 571 464 221
3 868 255 420
3 820 505 288
3 309 1130 683
3 1023 342 728
3 713 1123 529
3 1214 655 894
3 400 620 743
3 930 770 251
3 993 992 374
3 934 423 1134
3 737 516 359
3 116 117 1169
3 573 994 374
3 1103 692 357
3 758 471 757
3 939 654 278
3 327 859 606
3 689 603 396
3 1133 635 307
3 751 888 413
3 979 346 903
3 751 449 477
3 348 553 749
3 133 1200 974
3 1091 492 424
3 723 503 724
3 759 324 757
3 452 232 630
3 642 316 613
3 602 298 810
3 212 645 476
3 625 1022 404
3 203 1078 1067
3 515 241 866
3 887 622 385
3 941 1078 203
3 418 672 1055
3 1035 633 421
3 727 275 567
3 338 462 838
3 237 882 602
3 1158 528 641
3 948 1004 377
3 273 493 897
3 200 607 559
3 555 897 351
3 780 292 586
3 597 1040 349
3 700 229 915
3 500 1205 1159
3 912 945 253
3 707 730 438
3 417 1083 788
3 771 818 260
3 485 925 238
3 262 552 880
3 1097 1055 233
3 1216 122 123
3 1073 642 225
3 895 1139 593
3 1076 484 399
3 1159 23 1158
3 892 30 31
3 116 1169 115
3 986 562 964
3 609 907 302
3 337 611 610
3 850 552 683
3 1143 432 660
3 933 513 272
3 1049 88 984
3 1201 450 1157
3 310 613 871
3 815 262 880
3 479 649 1041
3 463 313 644
3 765 385 1014
3 1035 1009 495
3 1208 495 1009
3 145 1182 144
3 478 1219 740
3 406 735 989
3 1000 439 583
3 202 585 1077
3 704 779 261
3 1010 444 605
3 207 946 609
3 623 230 1146
3 1077 474 779
3 945 379 944
3 1205 21 22
3 833 743 240
3 204 964 621
3 213 742 568
3 621 1118 204
3 736 544 216
3 897 493 896
3 63 867 599
3 581 968 252
3 1078 941 601
3 463 1068 870
3 370 895 1197
3 766 487 711
3 869 79 807
3 502 1045 782
3 950 85 685
3 1065 443 1047
3 290 778 549
3 1207 421 801
3 843 484 795
3 541 540 216
3 1044 305 546
3 587 838 258
3 871 551 310
3 836 172 173
3 431 659 224
3 167 1207 166
3 350 913 551
3 638 448 281
3 963 939 456
3 900 367 525
3 1075 1037 461
3 1079 661 405
3 1003 379 853
3 19 1202 1152
3 670 280 1086
3 574 898 805
3 755 219 447
3 956 825 599
3 241 515 919
3 953 781 381
3 265 780 586
3 494 1085 408
3 376 912 1133
3 612 583 201
3 497 885 345
3 911 910 553
3 966 193 194
3 979 903 524
3 753 1181 383
3 356 1183 829
3 776 244 351
3 394 668 925
3 1024 576 389
3 1086 544 736
3 207 663 946
3 907 732 319
3 1157 140 1201
3 753 921 450
3 1189 777 1148
3 78 869 77
3 698 211 470
3 881 314 445
3 68 69 1209
3 74 840 1196
3 697 442 696
3 1136 1058 545
3 34 1192 1140
3 1082 617 1081
3 893 390 506
3 346 667 997
3 91 92 1103
3 674 337 834
3 628 339 475
3 720 339 1149
3 258 838 699
3 584 1071 411
3 955 492 864
3 1155 134 135
3 474 585 780
3 529 1123 282
3 263 719 1000
3 681 532 225
3 791 525 259
3 986 842 562
3 1129 179 725
3 1099 477 1100
3 245 636 1004
3 1193 16 1150
3 1055 1057 418
3 1042 1151 500
3 261 991 875
3 1147 827 990
3 414 920 847
3 506 845 638
3 490 889 789
3 491 869 934
3 819 239 547
3 923 284 559
3 1101 518 612
3 612 533 1101
3 917 647 229
3 228 448 911
3 823 422 822
3 428 779 704
3 1115 386 750
3 778 1173 793
3 943 714 400
3 961 303 558
3 1203 108 1112
3 442 808 538
3 1170 111 112
3 685 1049 314
3 540 279 539
3 1146 230 574
3 996 436 995
3 1138 770 930
3 582 287 993
3 949 222 598
3 1068 398 870
3 1149 362 720
3 330 1086 736
3 1216 577 1177
3 813 564 375
3 374 1114 573
3 274 553 910
3 1003 466 944
3 893 873 390
3 447 328 755
3 508 902 860
3 658 388 579
3 797 865 478
3 728 149 151
3 855 283 481
3 484 1076 796
3 277 861 1052
3 338 575 854
3 852 256 970
3 483 853 852
3 913 534 205
3 715 652 419
3 410 543 812
3 3 1171 760
3 266 470 1098
3 768 673 301
3 283 718 481
3 942 482 744
3 982 558 731
3 1127 1008 303
3 645 368 476
3 841 537 566
3 307 862 590
3 511 819 799
3 390 873 734
3 1106 847 560
3 561 978 294
3 857 244 1048
3 925 668 319
3 573 283 564
3 25 26 1204
3 1202 563 1152
3 702 289 580
3 1137 206 580
3 1195 17 18
3 15 1193 1005
3 887 385 765
3 677 657 309
3 727 567 413
3 248 979 524
3 717 455 264
3 889 401 688
3 1134 451 1087
3 395 937 569
3 608 1105 301
3 431 244 694
3 733 405 661
3 932 306 459
3 1046 747 209
3 815 1122 262
3 231 856 561
3 1146 805 335
3 718 230 481
3 1120 737 539
3 588 474 265
3 873 223 734
3 630 584 411
3 821 548 333
3 940 218 713
3 806 126 127
3 594 887 364
3 581 745 361
3 832 311 694
3 1032 804 433
3 550 216 928
3 532 678 1074
3 593 1139 1111
3 1153 56 57
3 267 843 795
3 435 1060 996
3 721 1185 190
3 886 524 387
3 467 694 857
3 225 613 845
3 905 587 258
3 575 293 1069
3 1028 292 576
3 872 224 659
3 927 693 428
3 1025 576 292
3 522 347 761
3 336 523 846
3 1181 143 891
3 879 276 523
3 547 1126 774
3 832 1137 388
3 1077 779 428
3 447 862 635
3 643 592 361
3 924 361 655
3 489 372 711
3 364 839 594
3 645 682 352
3 960 476 368
3 507 1172 783
3 249 687 998
3 657 812 236
3 803 628 248
3 1093 475 263
3 1021 905 258
3 621 485 1054
3 273 458 1084
3 298 975 454
3 243 714 848
3 1140 469 1191
3 600 557 286
3 393 958 959
3 859 560 284
3 1013 676 454
3 601 941 810
3 599 340 392
3 933 651 451
3 541 216 992
3 1010 605 287
3 279 605 444
3 627 331 906
3 975 298 498
3 1003 853 208
3 1096 327 606
3 1029 650 918
3 768 598 222
3 673 1084 408
3 1085 920 608
3 1017 1016 401
3 1112 382 703
3 1188 114 844
3 96 1189 1148
3 834 337 703
3 338 838 587
3 458 1037 1095
3 642 973 699
3 284 560 847
3 554 1002 402
3 1083 406 987
3 1166 701 908
3 965 6 7
3 309 951 479
3 1107 472 296
3 1215 41 1175
3 353 624 918
3 1101 533 305
3 1030 654 398
3 829 1063 356
3 1200 134 1155
3 688 240 620
3 609 799 207
3 436 1054 604
3 996 1098 435
3 1174 46 924
3 1096 219 975
3 656 580 206
3 872 659 452
3 1011 353 919
3 724 340 723
3 1096 882 327
3 1078 733 1067
3 652 1099 419
3 281 546 504
3 436 1118 1054
3 267 1054 843
3 1107 596 417
3 951 262 649
3 854 202 693
3 415 1032 1020
3 629 1102 289
3 584 232 1026
3 1035 495 269
3 802 391 750
3 1213 1144 163
3 835 632 215
3 269 885 497
3 632 304 1059
3 955 864 290
3 728 342 1186
3 427 1062 1012
3 262 1122 649
3 945 935 379
3 438 909 214
3 273 673 493
3 287 541 993
3 1077 693 202
3 780 585 292
3 834 382 1135
3 674 834 318
3 647 535 229
3 153 1023 152
3 563 932 459
3 892 469 286
3 1021 258 973
3 431 224 530
3 441 782 264
3 49 51 1194
3 20 1151 1202
3 500 641 313
3 1131 407 502
3 385 1008 1014
3 647 927 308
3 646 835 215
3 521 293 587
3 1070 202 575
3 1069 293 630
3 269 496 885
3 1036 1031 654
3 811 365 853
3 427 790 1062
3 711 1051 489
3 953 268 503
3 485 665 843
3 715 904 831
3 888 255 868
3 320 526 653
3 868 355 888
3 427 1012 650
3 24 1158 23
3 1197 43 894
3 643 361 924
3 824 656 481
3 994 993 374
3 504 305 505
3 379 935 811
3 452 658 232
3 411 1069 630
3 452 630 293
3 411 1071 1070
3 721 507 363
3 406 660 988
3 1056 672 418
3 466 328 754
3 491 1176 869
3 662 748 312
3 1118 996 1060
3 259 741 791
3 287 605 541
3 799 366 746
3 977 490 451
3 906 331 651
3 882 237 774
3 253 945 944
3 263 707 1093
3 483 208 853
3 244 431 555
3 435 1010 637
3 437 308 646
3 708 320 457
3 670 1086 1121
3 718 283 929
3 668 294 542
3 1073 225 532
3 962 369 938
3 439 850 583
3 460 642 1073
3 621 964 394
3 516 916 382
3 729 97 98
3 1218 183 184
3 675 915 350
3 958 957 242
3 922 820 288
3 25 1204 1158
3 707 1000 583
3 434 854 693
3 591 734 223
3 969 321 607
3 712 1133 307
3 1131 981 246
3 775 1034 441
3 799 819 366
3 289 702 1128
3 246 981 622
3 1211 364 765
3 1044 228 518
3 911 448 349
3 332 1018 684
3 623 482 230
3 758 698 470
3 771 1138 818
3 595 980 296
3 965 554 402
3 1185 764 189
3 1006 636 245
3 795 796 331
3 1176 77 869
3 302 907 695
3 484 796 795
3 748 663 312
3 663 1019 312
3 308 437 647
3 1208 170 1160
3 814 611 251
3 1113 98 99
3 380 1147 990
3 763 480 261
3 544 898 354
3 301 785 1094
3 200 920 1085
3 986 637 373
3 357 1138 771
3 770 692 425
3 1086 280 544
3 109 1112 108
3 1188 113 114
3 985 373 582
3 461 671 1116
3 871 316 675
3 888 751 255
3 522 276 1090
3 660 989 1143
3 710 12 13
3 1177 122 1216
3 127 1033 806
3 794 113 1188
3 516 737 254
3 308 704 480
3 713 218 548
3 1013 454 755
3 988 245 948
3 583 850 201
3 1142 543 464
3 1031 483 870
3 667 438 214
3 281 504 893
3 836 626 831
3 487 1212 1168
3 1212 58 59
3 636 1007 971
3 1007 306 971
3 1039 392 1038
3 1168 59 60
3 309 683 552
3 409 1130 1088
3 529 282 440
3 846 523 234
3 213 1029 918
3 784 400 714
3 708 457 227
3 1161 176 716
3 205 526 1040
3 175 176 1161
3 866 340 515
3 957 645 352
3 1145 422 823
3 130 804 129
3 967 686 249
3 767 274 526
3 371 686 967
3 472 747 803
3 1043 596 296
3 553 348 976
3 535 437 277
3 495 1208 1160
3 64 65 867
3 593 1111 1109
3 1211 39 851
3 781 70 752
3 1218 184 1179
3 969 678 321
3 886 387 764
3 1100 477 767
3 362 1149 1046
3 739 524 275
3 478 740 797
3 1182 145 1219
3 101 102 1113
3 770 814 251
3 551 871 675
3 1040 526 910
3 469 1140 1127
3 1175 41 42
3 311 452 659
3 222 542 896
3 672 1056 1030
3 1068 672 398
3 963 625 404
3 1101 1044 518
3 475 1093 667
3 552 262 951
3 1169 1058 501
3 1114 283 573
3 1054 485 843
3 1112 786 382
3 534 914 1052
3 800 549 247
3 739 1179 809
3 520 1218 1179
3 148 1186 147
3 750 391 787
3 746 690 317
3 525 901 259
3 1076 399 1017
3 531 243 937
3 241 919 773
3 609 946 397
3 822 556 257
3 1092 634 210
3 709 56 1153
3 1139 252 1111
3 525 791 317
3 791 603 317
3 1004 971 377
3 727 355 1061
3 816 237 690
3 400 742 943
3 571 1141 464
3 997 214 954
3 215 1059 497
3 787 631 247
3 322 730 707
3 652 715 323
3 953 381 849
3 1209 67 68
3 1090 276 619
3 1144 802 386
3 1205 22 1159
3 1067 863 203
3 963 661 235
3 328 447 754
3 470 1132 1098
3 1124 931 358
3 931 698 514
3 627 473 226
3 470 266 758
3 1120 697 254
3 260 514 759
3 1162 93 94
3 1117 2 760
3 1171 614 360
3 891 478 383
3 1128 556 422
3 453 1050 1039
3 212 488 682
3 890 787 391
3 905 1116 521
3 903 997 567
3 554 908 297
3 851 40 1215
3 1211 38 39
3 468 919 353
3 766 711 372
3 362 1046 616
3 349 1040 910
3 1114 374 550
3 206 855 656
3 654 1030 278
3 880 439 719
3 94 1148 1162
3 266 471 758
3 698 758 324
3 254 697 916
3 453 352 682
3 1051 416 489
3 453 773 352
3 1053 397 748
3 302 509 511
3 654 939 404
3 1192 517 1140
3 1038 241 773
3 813 856 231
3 1037 671 461
3 95 1148 94
3 798 343 729
3 763 875 1125
3 144 891 143
3 927 647 434
3 587 293 575
3 1095 1037 285
3 854 434 338
3 848 714 429
3 943 918 624
3 620 329 688
3 393 717 958
3 615 837 360
3 572 1110 998
3 934 271 491
3 427 1029 568
3 785 239 509
3 896 542 570
3 109 110 1112
3 805 1136 545
3 1144 161 162
3 403 800 883
3 196 1198 195
3 11 701 10
3 72 762 752
3 443 950 1064
3 367 900 810
3 869 807 423
3 690 900 525
3 833 326 743
3 1177 792 121
3 702 580 656
3 800 247 738
3 884 497 345
3 1120 539 808
3 665 238 662
3 1027 401 889
3 1062 426 959
3 329 620 784
3 688 329 889
3 1063 864 356
3 797 740 342
3 610 798 104
3 1135 382 916
3 511 509 239
3 414 847 1106
3 874 828 210
3 972 523 761
3 691 171 172
3 883 634 403
3 391 1213 999
3 1125 875 344
3 1179 185 809
3 803 595 472
3 125 1206 124
3 1104 821 433
3 1060 435 637
3 280 670 1136
3 577 1216 1018
3 538 808 279
3 952 950 443
3 78 79 869
3 1178 120 792
3 881 759 465
3 705 571 221
3 567 954 413
3 712 307 591
3 816 774 237
3 533 826 288
3 1036 1003 208
3 654 1031 398
3 735 1083 417
3 542 222 949
3 942 556 315
3 324 514 698
3 817 703 337
3 339 720 475
3 1083 987 209
3 601 405 1078
3 602 882 498
3 817 1203 703
3 639 674 318
3 729 777 1189
3 445 1049 984
3 466 754 944
3 298 602 498
3 935 618 236
3 1095 285 678
3 974 1200 512
3 440 512 589
3 876 336 589
3 536 1220 1173
3 1028 576 940
3 218 1145 823
3 1167 130 131
3 855 481 656
3 487 1168 825
3 392 956 599
3 595 803 248
3 288 826 618
3 942 824 482
3 634 883 210
3 990 827 347
3 1024 629 1145
3 1219 145 146
3 1092 828 522
3 137 138 876
3 1091 865 250
3 177 1129 716
3 1161 716 323
3 388 658 832
3 973 258 699
3 511 609 302
3 664 240 688
3 834 703 382
3 318 1135 697
3 304 632 631
3 634 424 492
3 174 1161 626
3 277 1052 914
3 196 197 1198
3 614 402 687
3 434 647 917
3 530 458 273
3 246 622 887
3 600 1055 1097
3 790 568 741
3 76 1176 840
3 939 841 456
3 1050 682 488
3 978 561 412
3 373 842 986
3 784 620 400
3 204 1060 986
3 1136 501 1058
3 898 280 805
3 838 462 699
3 668 562 294
3 1025 1026 389
3 589 846 440
3 366 816 746
3 774 327 882
3 651 796 977
3 762 395 569
3 1087 789 271
3 568 326 741
3 734 679 390
3 679 300 607
3 372 1153 766
3 895 295 839
3 365 543 852
3 735 417 572
3 935 236 811
3 1151 21 1205
3 1102 389 1026
3 508 827 902
3 1178 119 120
3 314 881 465
3 238 732 1053
3 1119 289 579
3 1048 856 375
3 978 570 294
3 411 1070 1069
3 878 448 638
3 237 602 900
3 494 678 969
3 845 310 638
3 872 293 521
3 183 1165 182
3 999 166 801
3 1096 498 882
3 253 754 635
3 299 733 661
3 775 264 455
3 955 549 403
3 865 619 383
3 154 1023 153
3 512 1155 589
3 1109 1111 416
3 71 72 752
3 340 724 515
3 66 1163 723
3 249 1110 596
3 767 477 274
3 513 952 1065
3 443 1064 1047
3 1187 29 30
3 734 300 679
3 653 205 534
3 1137 580 1119
3 1167 433 804
3 917 338 434
3 948 377 649
3 591 307 590
3 1207 1009 421
3 830 879 336
3 345 885 669
3 210 828 1092
3 140 1157 139
3 450 879 830
3 1097 369 600
3 962 26 27
3 597 349 878
3 300 923 559
3 1219 146 1186
3 640 1023 154
3 1130 657 1088
3 1041 377 705
3 639 1124 358
3 984 90 519
3 448 546 281
3 923 300 590
3 155 640 154
3 793 1144 386
3 632 325 631
3 653 457 320
3 700 316 699
3 878 349 448
3 275 1061 520
3 363 980 595
3 1081 212 476
3 407 1131 1080
3 868 725 355
3 507 1043 980
3 662 312 1016
3 925 319 732
3 344 800 738
3 669 496 227
3 860 713 529
3 1104 433 974
3 961 286 469
3 1158 1204 528
3 1106 560 239
3 590 499 923
3 1109 416 1108
3 1034 566 220
3 1082 1081 407
3 47 643 924
3 200 969 607
3 1105 608 414
3 985 561 842
3 947 206 1137
3 746 317 689
3 1020 822 257
3 234 972 508
3 1184 536 1063
3 1133 912 635
3 219 1096 606
3 901 666 426
3 863 426 666
3 972 761 347
3 642 613 225
3 764 1015 188
3 591 223 712
3 1100 708 419
3 836 174 626
3 586 292 1028
3 292 585 1071
3 444 1132 279
3 604 486 471
3 638 281 506
3 436 996 1118
3 998 687 402
3 615 686 371
3 720 719 263
3 667 346 475
3 836 334 691
3 871 613 316
3 1052 861 457
3 180 725 179
3 816 547 774
3 862 499 590
3 320 767 526
3 1095 408 458
3 457 669 227
3 1133 712 376
3 888 727 413
3 338 587 575
3 814 770 425
3 1094 785 509
3 461 1021 1075
3 722 691 334
3 367 666 901
3 1012 772 468
3 1050 488 1051
3 568 1029 213
3 447 219 862
3 975 498 1096
3 356 864 1066
3 1020 333 822
3 1089 409 826
3 922 446 912
3 200 559 920
3 625 1013 328
3 1199 592 1156
3 1109 1108 617
3 1037 458 671
3 673 408 608
3 1217 119 1178
3 359 844 501
3 875 763 261
3 633 1035 269
3 857 694 244
3 768 1094 598
3 1146 577 623
3 929 928 354
3 674 251 611
3 91 1103 90
3 111 786 110
3 637 287 582
3 1202 19 20
3 4 1171 3
3 83 84 950
3 64 867 63
3 203 666 941
3 81 952 1180
3 1044 1101 305
3 1068 463 233
3 934 1134 271
3 75 76 840
3 1180 513 807
3 956 1039 270
3 877 1142 527
3 291 1042 1141
3 242 772 1012
3 278 537 841
3 1077 585 474
3 1026 232 579
3 427 650 1029
3 317 690 525
3 806 684 1206
3 131 974 1167
3 212 1108 488
3 901 426 790
3 1159 22 23
3 430 815 616
3 396 603 833
3 1119 579 388
3 1118 1060 204
3 312 1019 664
3 1137 1119 388
3 1116 671 224
3 565 1007 384
3 983 27 28
3 994 582 993
3 842 294 562
3 82 83 952
3 1064 685 314
3 214 449 954
3 970 870 483
3 756 465 226
3 818 1138 358
3 531 937 936
3 73 1196 762
3 597 551 205
3 730 909 438
3 536 290 1063
3 890 391 801
3 61 825 60
3 790 427 568
3 502 407 476
3 867 340 599
3 866 241 1038
3 766 58 1212
3 537 680 220
3 964 562 394
3 839 364 578
3 1067 733 455
3 1127 517 1008
3 235 1079 676
3 36 1014 35
3 981 378 731
3 1081 476 407
3 791 741 603
3 1067 717 393
3 273 897 555
3 193 966 783
3 15 1005 14
3 524 903 275
3 1154 402 614
3 554 1166 908
3 221 769 677
3 1194 52 1156
3 44 894 43
3 650 1012 468
3 1001 679 321
3 1142 1141 527
3 683 1130 409
3 965 1210 554
3 1006 660 432
3 827 508 347
3 1123 548 821
3 603 689 317
3 704 261 480
3 139 830 138
3 576 1024 940
3 923 499 284
3 893 504 873
3 815 362 616
3 1164 181 726
3 975 755 454
3 1017 399 1016
3 1048 776 412
3 668 949 319
3 809 185 186
3 191 721 190
3 322 707 583
3 760 1171 360
3 851 578 364
3 682 1050 453
3 982 731 378
3 625 328 466
3 962 983 369
3 680 286 558
3 87 88 1049
3 814 425 777
3 949 598 695
3 978 776 570
3 357 770 1138
3 435 1098 1010
3 989 735 572
3 812 365 811
3 1143 297 908
3 409 1088 618
3 998 1110 249
3 410 769 543
3 482 332 744
3 713 548 1123
3 693 1077 428
3 341 1028 940
3 577 1146 335
3 928 929 550
3 302 695 598
3 759 757 465
3 925 732 238
3 659 431 311
3 294 570 542
3 266 996 995
3 696 442 211
3 1048 375 857
3 886 764 363
3 739 809 387
3 788 747 472
3 966 615 371
3 861 648 345
3 421 1009 1035
3 221 1041 705
3 706 322 518
3 606 284 499
3 922 912 376
3 1143 989 297
3 687 360 614
3 346 628 475
3 398 672 1030
3 10 701 1166
3 297 572 1002
3 987 988 430
3 17 1150 16
3 552 951 309
3 783 192 193
3 533 612 201
3 877 970 256
3 37 1014 36
3 600 286 1057
3 1207 168 1009
3 884 646 215
3 637 1010 287
3 266 1098 996
3 1209 781 503
3 709 372 581
3 810 298 601
3 784 531 329
3 912 253 635
3 820 922 376
3 887 594 246
3 1008 385 622
3 1015 809 186
3 274 477 449
3 67 1209 1163
3 664 401 1016
3 1027 490 217
3 80 1180 807
3 332 482 623
3 1206 684 1018
3 1053 662 238
3 946 748 397
3 545 1217 1178
3 234 860 529
3 350 915 914
3 700 462 229
3 299 775 455
3 754 447 635
3 728 1186 148
3 1201 1181 753
3 521 1116 872
3 804 1033 129
3 832 694 467
3 1167 974 433
3 1037 1075 285
3 1177 577 792
3 1027 217 1017
3 664 688 401
3 556 702 315
3 556 942 257
3 796 217 977
3 934 869 423
3 27 983 962
3 500 1159 641
3 625 466 1022
3 528 962 938
3 124 1206 1018
3 510 744 684
3 124 1018 123
3 128 1033 127
3 1034 775 299
3 278 841 939
3 166 1207 801
3 675 350 551
3 430 988 948
3 1089 683 409
3 1025 389 576
3 273 1084 673
3 397 732 907
3 1196 73 74
3 1212 59 1168
3 1212 487 766
3 914 535 277
3 1093 438 667
3 236 1088 657
3 1031 208 483
3 563 1151 1042
3 812 657 410
3 360 837 760
3 997 954 567
3 1093 707 438
3 1100 419 1099
3 456 299 661
3 866 1038 392
3 1046 209 616
3 459 1152 563
3 789 329 531
3 697 1120 442
3 926 541 605
3 412 776 978
3 88 89 984
3 1170 516 786
3 372 968 581
3 1051 711 270
3 441 378 782
3 775 441 264
3 888 355 727
3 497 1059 633
3 607 300 559
3 564 813 573
3 986 1060 637
3 995 471 266
3 892 286 557
3 286 961 558
3 712 820 376
3 398 1031 870
3 661 963 456
3 1187 983 29
3 126 1206 125
3 792 335 545
3 999 801 391
3 914 913 350
3 796 1076 217
3 843 665 484
3 909 730 348
3 720 362 719
3 746 816 690
3 925 485 394
3 1183 156 829
3 250 492 1091
3 840 1176 491
3 514 260 818
3 1098 444 1010
3 759 514 324
3 250 1066 492
3 1184 158 1220
3 506 1001 681
3 455 717 1067
3 938 644 528
3 369 1097 938
3 845 613 310
3 585 202 1070
3 461 1116 905
3 642 699 316
3 521 587 905
3 1075 1021 460
3 86 685 85
3 1072 881 445
3 396 663 689
3 305 533 505
3 1074 678 285
3 351 570 776
3 1000 719 439
3 1106 785 414
3 1017 217 1076
3 1065 272 513
3 646 308 480
3 422 556 822
3 676 1079 405
3 859 284 606
3 1036 404 1022
3 547 560 1126
3 622 981 731
3 1080 246 594
3 957 352 772
3 1080 1131 246
3 1050 270 1039
3 242 957 772
3 616 209 987
3 701 11 1190
3 374 992 550
3 681 321 532
3 231 985 994
3 289 1102 579
3 230 718 574
3 598 509 302
3 242 1062 959
3 867 65 723
3 970 877 463
3 820 712 223
3 1089 533 201
3 505 223 504
3 860 234 508
3 902 265 586
3 136 876 589
3 146 147 1186
3 915 535 914
3 1092 1090 424
3 546 448 1044
3 348 749 909
3 1094 768 301
3 244 555 351
3 362 880 719
3 414 785 1105
3 635 862 307
3 774 1126 327
3 517 1014 1008
3 1089 850 683
3 674 611 337
3 1120 808 442
3 420 725 868
3 675 316 700
3 652 323 420
3 904 496 334
3 705 377 971
3 976 228 911
3 744 510 257
3 206 947 858
3 916 516 254
3 729 1189 97
3 234 523 972
3 383 921 753
3 373 985 842
3 1053 732 397
3 799 746 207
3 273 555 530
3 595 296 472
3 1149 747 1046
3 963 404 939
3 368 645 957
3 841 566 456
3 1108 416 488
3 1006 710 384
3 432 908 701
3 489 416 1111
3 655 1174 924
3 794 359 516
3 118 1058 117
3 519 1103 357
3 1162 1148 425
3 993 541 992
3 481 230 824
3 247 1115 750
3 403 549 800
3 511 239 819
3 413 449 751
3 199 1117 198
3 1117 837 198
3 331 796 651
3 777 343 814
3 947 467 858
3 629 1128 422
3 470 538 1132
3 697 696 318
3 539 330 540
3 1132 538 279
3 479 951 649
3 245 660 1006
3 336 846 589
3 1201 141 1181
3 357 771 519
3 949 695 319
3 1059 304 633
3 802 1144 1213
3 1044 448 228
3 299 566 1034
3 606 499 219
3 1215 578 851
3 1032 821 333
3 1032 415 804
3 255 751 1099
3 175 1161 174
3 1042 500 527
3 214 909 449
3 594 1082 1080
3 368 717 960
3 696 1124 639
3 1124 211 931
3 878 310 597
3 1013 755 328
3 741 326 603
3 1047 1064 473
3 90 1103 519
3 279 808 539
3 792 577 335
3 577 1018 332
3 580 289 1119
3 550 929 1114
3 473 1064 756
3 881 260 759
3 1215 40 41
3 1139 895 370
3 32 33 1191
3 1191 33 1140
3 235 625 963
3 533 1089 826
3 1142 464 1141
3 705 306 571
3 987 430 616
3 1022 1003 1036
3 865 383 478
3 1125 325 763
3 1169 117 1058
3 512 1104 974
3 994 573 231
3 1121 737 359
3 875 380 874
3 658 579 232
3 930 251 639
3 1162 425 692
3 205 1040 597
3 997 903 346
3 245 1004 948
3 1190 432 701
3 463 877 313
3 1151 20 21
3 1150 17 1195
3 1193 1150 565
3 849 848 429
3 1051 270 1050
3 8 1210 965
3 472 1107 788
3 133 134 1200
3 433 821 1032
3 1194 1156 643
3 56 709 55
3 876 830 336
3 955 634 492
3 971 306 705
3 32 892 31
3 853 365 852
3 1042 291 563
3 1009 169 1208
3 836 831 334
3 345 669 861
3 726 1165 1061
3 86 1049 685
3 1113 798 729
3 1011 919 515
3 503 781 953
3 1100 767 320
3 296 596 1107
3 880 362 815
3 1179 739 520
3 8 9 1210
3 1110 417 596
3 1201 140 141
3 1200 1155 512
3 271 1134 1087
3 61 62 825
3 230 482 824
3 544 354 928
3 1169 501 844
3 1136 670 501
3 572 417 1110
3 760 837 1117
3 371 1043 507
3 747 788 209
3 899 1066 250
3 835 763 325
3 1214 44 45
3 655 1214 1174
3 745 581 252
3 1197 578 1175
3 936 395 840
3 76 77 1176
3 1121 501 670
3 806 415 510
3 1217 118 119
3 856 412 561
3 189 764 188
3 1165 183 1218
3 795 331 486
3 513 933 423
3 158 1184 157
3 1219 1186 740
3 1173 160 793
3 1091 1090 619
3 161 1144 793
3 640 155 1183
3 884 345 648
3 1220 158 159
3 749 274 449
3 615 360 686
3 846 234 440
3 157 829 156
3 28 29 983
3 528 1204 962
3 354 898 574
3 737 330 539
3 103 104 798
3 324 758 757
3 1150 459 565
3 1041 649 377
3 1127 1140 517
3 1014 37 765
3 765 38 1211
3 1192 1014 517
3 852 543 256
3 1005 384 710
3 709 592 1199
3 592 643 1156
3 636 1006 384
3 306 565 459
3 268 624 1011
3 714 943 429
3 1194 51 52
3 924 46 47
3 1171 1154 614
3 3 760 2
3 1168 60 825
3 53 1199 1156
3 1104 512 282
3 1157 830 139
3 619 276 921
3 1182 478 891
3 932 563 291
3 1152 18 19
3 113 794 112
3 107 108 1203
3 1055 672 233
3 527 500 313
3 853 379 811
3 233 672 1068
3 333 548 823
3 359 1188 844
3 167 168 1207
3 793 160 161
3 169 1009 168
3 831 323 715
3 937 243 569
3 1163 1209 503
3 783 371 507
3 1185 363 764
3 502 378 1131
3 887 765 364
3 936 491 271
3 724 1011 515
3 1213 163 164
3 890 633 304
3 1199 55 709
3 894 44 1214
3 643 47 48
3 42 43 1175
3 744 332 684
3 128 129 1033
3 545 335 805
3 330 736 540
3 520 739 275
3 886 595 248
3 250 865 797
3 899 640 356
3 549 778 1115
3 631 325 738

CELL_TYPES 2240
5
5
5
5
5
5
5
5
5
5
5
5
5
5
5
5
5
5
5
5
5
5
5
5
5
5
5
5
5
5
5
5
5
5
5
5
5
5
5
5
5
5
5
5
5
5
5
5
5
5
5
5
5
5
5
5
5
5
5
5
5
5
5
5
5
5
5
5
5
5
5
5
5
5
5
5
5
5
5
5
5
5
5
5
5
5
5
5
5
5
5
5
5
5
5
5
5
5
5
5
5
5
5
5
5
5
5
5
5
5
5
5
5
5
5
5
5
5
5
5
5
5
5
5
5
5
5
5
5
5
5
5
5
5
5
5
5
5
5
5
5
5
5
5
5
5
5
5
5
5
5
5
5
5
5
5
5
5
5
5
5
5
5
5
5
5
5
5
5
5
5
5
5
5
5
5
5
5
5
5
5
5
5
5
5
5
5
5
5
5
5
5
5
5
5
5
5
5
5
5
5
5
5
5
5
5
5
5
5
5
5
5
5
5
5
5
5
5
5
5
5
5
5
5
5
5
5
5
5
5
5
5
5
5
5
5
5
5
5
5
5
5
5
5
5
5
5
5
5
5
5
5
5
5
5
5
5
5
5
5
5
5
5
5
5
5
5
5
5
5
5
5
5
5
5
5
5
5
5
5
5
5
5
5
5
5
5
5
5
5
5
5
5
5
5
5
5
5
5
5
5
5
5
5
5
5
5
5
5
5
5
5
5
5
5
5
5
5
5
5
5
5
5
5
5
5
5
5
5
5
5
5
5
5
5
5
5
5
5
5
5
5
5
5
5
5
5
5
5
5
5
5
5
5
5
5
5
5
5
5
5
5
5
5
5
5
5
5
5
5
5
5
5
5
5
5
5
5
5
5
5
5
5
5
5
5
5
5
5
5
5
5
5
5
5
5
5
5
5
5
5
5
5
5
5
5
5
5
5
5
5
5
5
5
5
5
5
5
5
5
5
5
5
5
5
5
5
5
5
5
5
5
5
5
5
5
5
5
5
5
5
5
5
5
5
5
5
5
5
5
5
5
5
5
5
5
5
5
5
5
5
5
5
5
5
5
5
5
5
5
5
5
5
5
5
5
5
5
5
5
5
5
5
5
5
5
5
5
5
5
5
5
5
5
5
5
5
5
5
5
5
5
5
5
5
5
5
5
5
5
5
5
5
5
5
5
5
5
5
5
5
5
5
5
5
5
5
5
5
5
5
5
5
5
5
5
5
5
5
5
5
5
5
5
5
5
5
5
5
5
5
5
5
5
5
5
5
5
5
5
5
5
5
5
5
5
5
5
5
5
5
5
5
5
5
5
5
5
5
5
5
5
5
5
5
5
5
5
5
5
5
5
5
5
5
5
5
5
5
5
5
5
5
5
5
5
5
5
5
5
5
5
5
5
5
5
5
5
5
5
5
5
5
5
5
5
5
5
5
5
5
5
5
5
5
5
5
5
5
5
5
5
5
5
5
5
5
5
5
5
5
5
5
5
5
5
5
5
5
5
5
5
5
5
5
5
5
5
5
5
5
5
5
5
5
5
5
5
5
5
5
5
5
5
5
5
5
5
5
5
5
5
5
5
5
5
5
5
5
5
5
5
5
5
5
5
5
5
5
5
5
5
5
5
5
5
5
5
5
5
5
5
5
5
5
5
5
5
5
5
5
5
5
5
5
5
5
5
5
5
5
5
5
5
5
5
5
5
5
5
5
5
5
5
5
5
5
5
5
5
5
5
5
5
5
5
5
5
5
5
5
5
5
5
5
5
5
5
5
5
5
5
5
5
5
5
5
5
5
5
5
5
5
5
5
5
5
5
5
5
5
5
5
5
5
5
5
5
5
5
5
5
5
5
5
5
5
5
5
5
5
5
5
5
5
5
5
5
5
5
5
5
5
5
5
5
5
5
5
5
5
5
5
5
5
5
5
5
5
5
5
5
5
5
5
5
5
5
5
5
5
5
5
5
5
5
5
5
5
5
5
5
5
5
5
5
5
5
5
5
5
5
5
5
5
5
5
5
5
5
5
5
5
5
5
5
5
5
5
5
5
5
5
5
5
5
5
5
5
5
5
5
5
5
5
5
5
5
5
5
5
5
5
5
5
5
5
5
5
5
5
5
5
5
5
5
5
5
5
5
5
5
5
5
5
5
5
5
5
5
5
5
5
5
5
5
5
5
5
5
5
5
5
5
5
5
5
5
5
5
5
5
5
5
5
5
5
5
5
5
5
5
5
5
5
5
5
5
5
5
5
5
5
5
5
5
5
5
5
5
5
5
5
5
5
5
5
5
5
5
5
5
5
5
5
5
5
5
5
5
5
5
5
5
5
5
5
5
5
5
5
5
5
5
5
5
5
5
5
5
5
5
5
5
5
5
5
5
5
5
5
5
5
5
5
5
5
5
5
5
5
5
5
5
5
5
5
5
5
5
5
5
5
5
5
5
5
5
5
5
5
5
5
5
5
5
5
5
5
5
5
5
5
5
5
5
5
5
5
5
5
5
5
5
5
5
5
5
5
5
5
5
5
5
5
5
5
5
5
5
5
5
5
5
5
5
5
5
5
5
5
5
5
5
5
5
5
5
5
5
5
5
5
5
5
5
5
5
5
5
5
5
5
5
5
5
5
5
5
5
5
5
5
5
5
5
5
5
5
5
5
5
5
5
5
5
5
5
5
5
5
5
5
5
5
5
5
5
5
5
5
5
5
5
5
5
5
5
5
5
5
5
5
5
5
5
5
5
5
5
5
5
5
5
5
5
5
5
5
5
5
5
5
5
5
5
5
5
5
5
5
5
5
5
5
5
5
5
5
5
5
5
5
5
5
5
5
5
5
5
5
5
5
5
5
5
5
5
5
5
5
5
5
5
5
5
5
5
5
5
5
5
5
5
5
5
5
5
5
5
5
5
5
5
5
5
5
5
5
5
5
5
5
5
5
5
5
5
5
5
5
5
5
5
5
5
5
5
5
5
5
5
5
5
5
5
5
5
5
5
5
5
5
5
5
5
5
5
5
5
5
5
5
5
5
5
5
5
5
5
5
5
5
5
5
5
5
5
5
5
5
5
5
5
5
5
5
5
5
5
5
5
5
5
5
5
5
5
5
5
5
5
5
5
5
5
5
5
5
5
5
5
5
5
5
5
5
5
5
5
5
5
5
5
5
5
5
5
5
5
5
5
5
5
5
5
5
5
5
5
5
5
5
5
5
5
5
5
5
5
5
5
5
5
5
5
5
5
5
5
5
5
5
5
5
5
5
5
5
5
5
5
5
5
5
5
5
5
5
5
5
5
5
5
5
5
5
5
5
5
5
5
5
5
5
5
5
5
5
5
5
5
5
5
5
5
5
5
5
5
5
5
5
5
5
5
5
5
5
5
5
5
5
5
5
5
5
5
5
5
5
5
5
5
5
5
5
5
5
5
5
5
5
5
5
5
5
5
5
5
5
5
5
5
5
5
5
5
5
5
5
5
5
5
5
5
5
5
5
5
5
5
5
5
5
5
5
5
5
5
5
5
5
5
5
5
5
5
5
5
5
5
5
5
5
5
5
5
5
5
5
5
5
5
5
5
5
5
5
5
5
5
5
5
5
5
5
5
5
5
5
5
5
5
5
5
5
5
5
5
5
5
5
5
5
5
5
5
5
5
5
5
5
5
5
5
5
5
5
5
5
5
5
5
5
5
5
5
5
5
5
5
5
5
5
5
5
5
5
5
5
5
5
5
5
5
5
5
5
5
5
5
5
5
5
5
5
5
5
5
5
5
5
5
5
5
5
5
5
5
5
5
5
5
5
5
5
5
5
5
5
5
5
5
5
5
5
5
5
5
5
5
5
5
5
5
5
5
5
5
5
5
5
5
5
5
5
5
5
5
5
5
5
5
5
5
5
5
5
5
5
5
5
5
5
5
5
5
5
5
5
5
5
5
5
5
5
5
5
5
5
5
5
5
5
5
5
5
5
5
5
5
5
5
5
5
5
5
5
5
5
5
5
5
5
5
5
5
5
5
5
5
5
5
5
5
5
5
5
5
5
5
5
5
5
5
5
5
5
5
5
5
5
5
5
5
5
5
5
5
5
5
5
5
5
5
5
5
5
5
5
5
5
5
5
5
5
5
5
5
5
5
5
5
5
5
5
5
5
5
5
5
5
5
5
5
5
5
5
5
5
5
5
5
5
5
5
5
5
5
5
5
5
5
5
5
5
5
5
5
5
5
5
5
5
5
5
5
5
5
5
5
5
5
5
5
5
5
5
5
5
5
5
5
5
5
5
5
5
5
5
5
5
5
5
5
5
5
5
5
5
5
5
5
5
5
5
5
5
5
5
5
5
5
5
5
5
5
5
5
5
5
5
5
5
5
5
5
5
5
5
5
5
5
5
5
5
5
5
5
5
5
5
5
5
5
5
5
5
5
5
5
5
5
5
5
5
5
5
5
5
5
5
5
5
5
5
5
5
5
5
5
5
5
5
5
5
5
5
5
5
5
5
5
5
5
5
5
5
5
5
5
5
5
5
5
5
5
5
5
5
5
5
5
5
5
5
5
5
5
5
5
5
5
5
5
5
5
5
5
5
5
5
5
5
5
5
5
5
5
5
5
5
5
5
5
5
5
5
5
5
5
5
5
5
5
5
5
5
5
5
5
5
5
5
5
5
5
5
5
5
5
5
5
5
5
5
5
5
5
5
5
5
5
5
5
5
5
5
5
5
5
5
5
5
5
5
5
5
5
5
5
5
5
5
5
5
5
5
5
5
5
5
5
5
5
5
5
5
5
5
5
5
5
5
5
5
5
5
5
5
5
5
5
5
5
5
5
5
5
5
5
5
5
5
5
5
5
5
5
5
5
5
5
5
5
5
5
5
5
5
5
5
5
5
5
5
5
5
5
5
5
5
5
5
5
5
5
5
5
5
5
5
5
5
5
5
5
5
5
5
5
5
5
5
5
5
5
5
5
5
5
5
5
5
5
5
5
5
5
5
5
5
5
5
5
5
5
5
5
5
5
5
5
5
5
5
5
5
5
5
5
5
5
5
5
5
5
5
5
5
5
5
5
5
5
5
5
5
5

