# vtk DataFile Version 2.0
CGAL constrained delaunay mesh generation 2d
ASCII
DATASET UNSTRUCTURED_GRID
POINTS 1816 double
0 0 0
50 0 0
100 0 0
150 0 0
200 0 0
250 0 0
300 0 0
350 0 0
400 0 0
450 0 0
500 0 0
550 0 0
600 0 0
650 0 0
700 0 0
750 0 0
800 0 0
850 0 0
900 0 0
950 0 0
1000 0 0
1050 0 0
1100 0 0
1150 0 0
1200 0 0
1250 0 0
1300 0 0
1350 0 0
1400 0 0
1450 0 0
1500 0 0
1550 0 0
1600 0 0
1650 0 0
1700 0 0
1750 0 0
1800 0 0
1850 0 0
1900 0 0
1950 0 0
2000 0 0
2000 0 50
2000 0 100
2000 0 150
2000 0 200
2000 0 250
2000 0 300
2000 0 350
2000 0 400
2000 0 450
2000 0 500
2000 0 550
2000 0 600
2000 0 650
2000 0 700
2000 0 750
2000 0 800
2000 0 850
2000 0 900
2000 0 950
2000 0 1000
2000 0 1050
2000 0 1100
2000 0 1150
2000 0 1200
2000 0 1250
2000 0 1300
2000 0 1350
2000 0 1400
2000 0 1450
2000 0 1500
2000 0 1550
2000 0 1600
2000 0 1650
2000 0 1700
2000 0 1750
2000 0 1800
2000 0 1850
2000 0 1900
2000 0 1950
2000 0 2000
1950 0 2000
1900 0 2000
1850 0 2000
1800 0 2000
1750 0 2000
1700 0 2000
1650 0 2000
1600 0 2000
1550 0 2000
1500 0 2000
1450 0 2000
1400 0 2000
1350 0 2000
1300 0 2000
1250 0 2000
1200 0 2000
1150 0 2000
1100 0 2000
1050 0 2000
1000 0 2000
950 0 2000
900 0 2000
850 0 2000
800 0 2000
750 0 2000
700 0 2000
650 0 2000
600 0 2000
550 0 2000
500 0 2000
450 0 2000
400 0 2000
350 0 2000
300 0 2000
250 0 2000
200 0 2000
150 0 2000
100 0 2000
50 0 2000
0 0 2000
0 0 1950
0 0 1900
0 0 1850
0 0 1800
0 0 1750
0 0 1700
0 0 1650
0 0 1600
0 0 1550
0 0 1500
0 0 1450
0 0 1400
0 0 1350
0 0 1300
0 0 1250
0 0 1200
0 0 1150
0 0 1100
0 0 1050
0 0 1000
0 0 950
0 0 900
0 0 850
0 0 800
0 0 750
0 0 700
0 0 650
0 0 600
0 0 550
0 0 500
0 0 450
0 0 400
0 0 350
0 0 300
0 0 250
0 0 200
0 0 150
0 0 100
0 0 50
50 0 100
100 0 100
150 0 100
200 0 100
250 0 100
300 0 100
350 0 100
400 0 100
450 0 100
500 0 100
550 0 100
600 0 100
650 0 100
700 0 100
750 0 100
800 0 100
850 0 100
900 0 100
950 0 100
1000 0 100
1050 0 100
1100 0 100
1150 0 100
1200 0 100
1250 0 100
1300 0 100
1350 0 100
1400 0 100
1450 0 100
1500 0 100
1550 0 100
1600 0 100
1650 0 100
1700 0 100
1750 0 100
1800 0 100
1850 0 100
1900 0 100
1950 0 100
50 0 200
100 0 200
150 0 200
200 0 200
250 0 200
300 0 200
350 0 200
400 0 200
450 0 200
500 0 200
550 0 200
600 0 200
650 0 200
700 0 200
750 0 200
800 0 200
850 0 200
900 0 200
950 0 200
1000 0 200
1050 0 200
1100 0 200
1150 0 200
1200 0 200
1250 0 200
1300 0 200
1350 0 200
1400 0 200
1450 0 200
1500 0 200
1550 0 200
1600 0 200
1650 0 200
1700 0 200
1750 0 200
1800 0 200
1850 0 200
1900 0 200
1950 0 200
50 0 300
100 0 300
150 0 300
200 0 300
250 0 300
300 0 300
350 0 300
400 0 300
450 0 300
500 0 300
550 0 300
600 0 300
650 0 300
700 0 300
750 0 300
800 0 300
850 0 300
900 0 300
950 0 300
1000 0 300
1050 0 300
1100 0 300
1150 0 300
1200 0 300
1250 0 300
1300 0 300
1350 0 300
1400 0 300
1450 0 300
1500 0 300
1550 0 300
1600 0 300
1650 0 300
1700 0 300
1750 0 300
1800 0 300
1850 0 300
1900 0 300
1950 0 300
50 0 400
100 0 400
150 0 400
200 0 400
250 0 400
300 0 400
350 0 400
400 0 400
450 0 400
500 0 400
550 0 400
600 0 400
650 0 400
700 0 400
750 0 400
800 0 400
850 0 400
900 0 400
950 0 400
1000 0 400
1050 0 400
1100 0 400
1150 0 400
1200 0 400
1250 0 400
1300 0 400
1350 0 400
1400 0 400
1450 0 400
1500 0 400
1550 0 400
1600 0 400
1650 0 400
1700 0 400
1750 0 400
1800 0 400
1850 0 400
1900 0 400
1950 0 400
827.593 0 1197.79
1412.17 0 1002.2
1282.77 0 1495.73
477.06 0 1522.29
478.432 0 881.066
977.643 0 814.351
884.459 0 1596.36
1616.62 0 1314.54
1659.25 0 1663.07
1609.76 0 738.908
500.423 0 1195.9
1281.47 0 718.872
1105.46 0 1089.17
1709.87 0 1029.69
1032.64 0 1364.08
715.397 0 690.933
266.445 0 1342.15
275.487 0 1052.84
1403.49 0 1728.01
1128.79 0 1725.5
752.328 0 951.811
284.732 0 680.356
283.935 0 1718.43
642.511 0 1737.21
1367.5 0 1253.78
675.202 0 1376.56
1071.68 0 623.604
492.449 0 624.376
1499.9 0 1491.04
1219.78 0 908.822
941.76 0 1787.09
1797.29 0 1431.28
1786.83 0 618.767
1797.58 0 1223.04
1803.69 0 815.947
1452.31 0 609.284
1542.63 0 1142.7
913.673 0 1042.23
890.354 0 651.417
292.786 0 869.909
197.616 0 1545.28
455.358 0 1797.21
842.652 0 1389.81
1819.92 0 1776.08
1065.57 0 1548.1
1577.88 0 1827.35
661.794 0 1110.71
705.441 0 1552.94
1183.39 0 1256.7
1440.51 0 793.88
1576.81 0 908.156
1819.65 0 1597.8
1269.51 0 1128.3
1629.97 0 567.329
444.511 0 1361.28
502.152 0 1040.4
1125.73 0 763.886
1236.7 0 562.055
1845.04 0 977.811
780.587 0 1840.43
1659.16 0 1492.82
165.777 0 1219.17
1275.48 0 1837.64
170.27 0 559.609
177.346 0 1846.52
154.946 0 788.631
1043.77 0 946.702
985.373 0 1177.13
157.319 0 944.774
688.852 0 544.628
564.963 0 757.131
828.655 0 779.362
337.844 0 1200.33
327.724 0 548.203
138.891 0 1675.21
325.92 0 1865.04
601.987 0 933.17
1084.84 0 1852.06
1479.53 0 1370.69
406.639 0 1662.22
404.131 0 733.659
139.235 0 1378.14
1188.64 0 1604.98
143.456 0 1090.62
324.565 0 1486.7
597.203 0 1862.17
992.93 0 1667.98
1446.33 0 1860.88
367.099 0 989.373
940.333 0 1482.89
1170.36 0 1404.76
788.857 0 1667.95
587.611 0 1613.44
1662.93 0 1158.75
1383.37 0 1589.95
1515.02 0 1650.2
690.431 0 1243.21
827.478 0 525.508
707.565 0 820.954
871.73 0 905.953
801.116 0 1083.99
1324.99 0 884.201
1415.4 0 1127.85
1304.77 0 1364.22
967.246 0 541.799
1722.62 0 1863.72
594.608 0 1476.67
1860.08 0 1107.76
307.093 0 1596.32
1277.73 0 1699.82
1711.9 0 899.896
1869.07 0 1876.93
945.958 0 1299.63
1378.52 0 1437.95
419.742 0 1108.83
1871.83 0 1329.69
1349.68 0 539.825
592.829 0 1294.59
1867.58 0 533.503
1877.52 0 711.092
1588.33 0 1023.95
554.471 0 519.73
456.521 0 516.703
1468.74 0 1242.34
1678.09 0 1767.43
593.756 0 651.886
544.067 0 1722.01
1577.13 0 1419.25
1186.56 0 671.65
756.356 0 1438.2
852.801 0 1905.25
1017.89 0 719.173
1113.29 0 520.687
387.012 0 636.297
1882.41 0 1496.03
1207.89 0 1013.56
1484.93 0 505.558
1772.52 0 495.831
1737.71 0 723.483
1093.34 0 1194.78
103.073 0 669.58
1556.25 0 644.701
1355.39 0 635.834
1175.12 0 1509.75
1916.34 0 872.547
1456.33 0 902.575
1727.69 0 1315.99
759.282 0 1334.35
1274.72 0 812.838
1755.55 0 1116.43
1903.87 0 1193.93
901.15 0 1699.86
1896.17 0 1690.72
86.0835 0 1520.57
478.318 0 1898.42
236.31 0 1142.25
1598.52 0 1583.67
971.386 0 1895.67
843.504 0 1483.05
759.483 0 599.092
224.719 0 1436.54
508.033 0 1434.16
1166.94 0 1817.33
1180.31 0 1147.33
363.523 0 1765.41
1041.92 0 1760.09
105.016 0 1776.14
1111.54 0 877.326
1296 0 970.387
1666.46 0 1398.68
1487.12 0 1051.8
1596.19 0 1230.24
1754.08 0 1511.92
1496.21 0 1768.04
1630.39 0 1909.89
1687.61 0 645.42
1758.73 0 1683.02
613.512 0 1023.89
1895.16 0 616.469
815.277 0 694.248
594.493 0 1194.47
839.19 0 999.895
896.717 0 1133.69
996.704 0 1091.66
1379.6 0 738.816
1480.12 0 713.098
1533.88 0 812.956
1290.51 0 1598.26
1081.55 0 1451.96
910.887 0 734.557
979.265 0 624.406
389.366 0 835.245
312.428 0 776.773
250.58 0 951.68
419.349 0 1251.65
402.07 0 1563.26
1709.08 0 811.863
1114.37 0 1317.19
1278.51 0 1275.18
836.341 0 1771.15
1911.36 0 1797.86
715.874 0 1035.92
743.109 0 1156.72
1033.02 0 1268.13
101.057 0 862.818
198.095 0 862.742
683.975 0 1827.58
241.54 0 494.807
1090.12 0 1643.23
970.727 0 1561.86
798.78 0 1564.63
687.253 0 1648.55
96.8238 0 1900.13
1670.99 0 486.375
1578.82 0 489.197
947.819 0 1393.3
1584.32 0 1720.15
419.876 0 1449.38
781.827 0 861.252
1530.97 0 1909.79
662.759 0 1917.71
1216.83 0 1907.37
842.68 0 1292.43
256.684 0 1248.32
1343.64 0 1904.87
1120.95 0 997.961
1912.21 0 1408.07
91.1855 0 1168.68
88.6779 0 1277.54
196.255 0 1746.35
560.859 0 841.274
255.03 0 1808.99
1279.21 0 481.87
1914.92 0 1590.3
1398.73 0 1343.92
740.565 0 1757.96
1362.49 0 1809.27
491.877 0 1632.72
230.22 0 1646.59
93.7348 0 492.078
247.627 0 1904.75
1650.14 0 963.834
188.187 0 1303.14
547.013 0 1118.86
356.819 0 1318.1
1913.23 0 1035.87
1542.26 0 578.422
1679.32 0 1245.15
1692.93 0 1579.17
1525.12 0 973.115
1631.65 0 834.101
965.376 0 903.811
81.2979 0 587.896
1343.08 0 1065.31
1319.76 0 1185.19
498.661 0 1288.11
739.499 0 488.741
482.835 0 962.138
1804.32 0 1042.99
194.562 0 646.919
1910.45 0 792.365
751.221 0 1916.98
76.705 0 972.201
249.539 0 583.608
540.358 0 1360.66
1273.3 0 636.168
1155.12 0 595.641
331.751 0 1118.69
1354.16 0 1663.72
1217.52 0 1334.92
1644.05 0 1083.43
389.09 0 1913.83
86.7841 0 1610.06
681.739 0 1476.23
1127.04 0 1919.5
479.045 0 793.34
495.112 0 705.839
1029.02 0 486.164
1580.19 0 1505.97
1051.42 0 790.512
1203 0 753.735
1763.82 0 967.108
223.804 0 749.967
911.021 0 1221.46
87.4284 0 746.68
1194.92 0 486.145
191.924 0 1021.37
1826.5 0 900.664
75.7461 0 1426.19
1182.14 0 832.099
338.459 0 1401.2
340.972 0 911.119
1097.76 0 683.47
1799.53 0 1918.86
545.873 0 1806.31
1558.15 0 730.645
633.907 0 481.524
1227.75 0 1773.11
1538 0 1291.47
634.212 0 723.389
988.556 0 1008.8
1916.35 0 948.179
1719.74 0 558.632
628.557 0 799.55
918.487 0 472.557
416.788 0 1197.38
898.435 0 817.833
757.046 0 752.872
147.986 0 1467.22
170.753 0 1924.95
676.062 0 626.135
368.805 0 475.426
1038.91 0 865.675
1366.18 0 809.639
341.471 0 1682.41
430.746 0 1742.87
1490.84 0 1431.24
1194.01 0 1692.57
343.664 0 708.196
551.61 0 1926.97
72.6736 0 1696.97
268.219 0 1488.91
1286.44 0 1057.65
1920.12 0 1269.7
317.425 0 1932.5
1463.82 0 1583.41
1431.5 0 1654.93
1413.88 0 1515.26
770.748 0 1254.94
169.431 0 1597.49
1719.41 0 1460.82
419.183 0 1842.09
1425.12 0 1947.76
685.693 0 902.977
558.016 0 966.653
1923.31 0 473.066
1939.63 0 675.359
1331.3 0 1522.41
939.298 0 955.945
358.234 0 1041.96
903.701 0 559.51
334.962 0 609.155
1032.58 0 1921.51
1085.96 0 1795.26
587.755 0 1410.55
1424.24 0 1287.36
54.2575 0 1074.3
155.8 0 479.148
613.983 0 1784.12
1941.09 0 1917.33
1574.13 0 1638.05
1282.24 0 1911.99
1222.41 0 1434.77
763.673 0 1523.22
662.29 0 957.78
1637.72 0 1820.59
1234.07 0 1215.84
853.656 0 1049.13
914.828 0 1434.42
1945.87 0 1122.65
1401.53 0 478.821
1785.14 0 1830.83
1555.78 0 1355.76
176.605 0 698.81
1418.77 0 669.599
87.1402 0 1341.95
972.084 0 1732.4
1222.21 0 1545.73
1125.17 0 1592.26
324.215 0 968.422
447.568 0 1029.4
942.412 0 1637.96
1067.49 0 551.278
1108.38 0 1400.15
610.116 0 1670.86
646.262 0 1567.17
539.821 0 1570.69
604.228 0 565.198
1493.42 0 1842.79
1410.21 0 870.052
838.929 0 606.788
1067.9 0 1136.83
290.93 0 486.966
684.306 0 1297.22
678.711 0 1180.23
1816.27 0 1350.19
1030.35 0 1623.19
1015.41 0 1440.76
1017.94 0 1521.27
916.209 0 1537.85
1302.8 0 1770.61
1639.8 0 684.442
837.236 0 1645.24
731.05 0 1613.72
821.559 0 1709.95
1602.47 0 1162.43
1734.29 0 1202.61
1303.1 0 766.431
1071.4 0 1708.67
1729.89 0 1803.3
1787.83 0 1292.65
983.143 0 1835.15
1465.67 0 1168.48
1416.55 0 1227.18
1752.86 0 1588.56
821.558 0 929.093
1055.02 0 1031.22
504.899 0 481.832
1924.63 0 560.378
1827.27 0 455.269
1250.34 0 1649.93
1411.8 0 1785.05
141.37 0 1138.73
1838.77 0 1160.96
855.991 0 477.107
557.128 0 686.271
933.687 0 1945.24
827.086 0 1948.7
1290.08 0 551.667
1390.76 0 577.008
427.697 0 592.113
1277.28 0 918.197
1398.15 0 925.164
797.472 0 479.36
1936.13 0 1349.34
1846.39 0 1255.41
707.899 0 1700.23
260.465 0 797.288
1489.49 0 1707.35
272.153 0 1193.05
954.575 0 680.41
1328.19 0 451.682
737.534 0 548.344
1805.52 0 671.91
1811.34 0 759.472
799.411 0 1147.6
719.533 0 1092.42
756.952 0 1005.14
1396.85 0 1069.17
1091.31 0 1262
1322.59 0 1311.05
1271.98 0 1446.56
424.016 0 913.901
1817.42 0 1490.98
1497.36 0 859.127
1335.72 0 1140.7
1746.99 0 1924.28
1208.42 0 1096.02
128.661 0 1015.6
1515.79 0 1558.18
1750.93 0 875.579
1457.15 0 996.13
198.244 0 1386.8
311.481 0 1542.39
591.424 0 1556.98
522.442 0 1488.02
1188.38 0 955.75
108.054 0 1839.67
1824.28 0 1671.19
195.356 0 1069.16
684.196 0 750.879
1942.16 0 1527.8
1951.38 0 1721.81
1635.09 0 904.862
445.197 0 1601.16
300.324 0 1290.98
606.267 0 1915.77
1734.4 0 1741.75
1102.18 0 936.556
1500.76 0 774.831
529.782 0 1851.07
1711.07 0 1090.29
1930.26 0 1843.04
1869.04 0 1955.78
1831.3 0 577.843
1945.45 0 1474.41
1847.39 0 1825.43
420.494 0 1507.19
953.564 0 1248.32
999.504 0 1319.23
893.878 0 1325.49
601.865 0 1099.96
831.531 0 843.782
643.958 0 870.795
728.498 0 1865.13
426.556 0 684.309
294.601 0 1652.02
353.437 0 1632.65
251.697 0 1552.18
590.584 0 1347.52
99.6895 0 800.273
1693.72 0 700.652
1736.35 0 1383.78
1716.22 0 1634.81
538.047 0 579.614
1853.61 0 1436.69
1437.06 0 1423.02
1353.87 0 1391.88
877.935 0 1814.07
488.55 0 1100.27
455.84 0 1157.84
473.944 0 570.211
529.075 0 886.965
574.443 0 458.283
1918.06 0 1641.04
304.119 0 1773.93
867.131 0 700.69
350.115 0 1262.89
1674.16 0 1948.37
447.805 0 462.248
1197.53 0 611.848
1670.24 0 1311.59
547.876 0 1221.33
639.531 0 1271.27
958.815 0 1131.52
1866.76 0 1632.32
1489.64 0 1115.82
733.543 0 1387.03
787.573 0 1388.08
813.247 0 1439.21
217.63 0 1203.01
1747.9 0 667.366
51.0198 0 670.121
1584.74 0 1104.52
1637.42 0 1035.82
1573.11 0 980.156
374.642 0 574.097
1862.09 0 1382.24
964.427 0 729.129
1577.09 0 1945.31
1943.17 0 727.772
382.097 0 1372.68
55.6506 0 1815.15
1489.21 0 1300.02
1515.35 0 1201.55
1624.78 0 452.697
1525.28 0 457.832
1120.1 0 453.989
1692.31 0 971.211
287.166 0 1429.56
1144.96 0 1047.65
1148.15 0 1643.58
1722.55 0 451.76
924.835 0 1846.95
1741.56 0 1256.71
1843.82 0 1541.86
1119.48 0 1534.23
1709.23 0 757.988
130.156 0 1728.08
1366.58 0 1202.03
280.868 0 1109.33
1754.01 0 783.316
755.708 0 809.688
1331.79 0 1463.86
151.395 0 612.623
852.414 0 1557.27
1182.57 0 1767.98
640.882 0 1433.24
432.33 0 808.207
101.506 0 923.81
1238.88 0 966.251
1175.85 0 527.201
200.499 0 922.637
1224.43 0 1382.78
53.9857 0 1222.79
977.116 0 489.828
1857.99 0 794.242
1317.77 0 1018.12
1313.1 0 1726.86
1517.55 0 914.51
1611.78 0 1771.25
1643.56 0 1718.45
1699.62 0 1699.22
821.939 0 1872.11
986.801 0 1949.74
489.845 0 1739.49
595.49 0 1727.47
551.334 0 1655.58
1848.91 0 1727.87
1032.12 0 588.629
1443.04 0 547.968
1618.12 0 1389.61
1628.93 0 1439.9
457.564 0 1689
1324.27 0 1950.82
1452.73 0 1478.41
917.88 0 865.463
1877.65 0 350.474
1674.9 0 350.464
1425.07 0 351.121
1274.58 0 350.489
1074.8 0 350.292
824.966 0 351.181
674.968 0 350.048
475.097 0 350.589
374.144 0 351.255
224.4 0 350.669
1931.27 0 250.105
1774.8 0 249.92
1474.68 0 250.011
1274.51 0 249.27
1074.42 0 249.158
975.2 0 350.031
924.621 0 249.947
774.547 0 248.894
575.14 0 250.258
474.45 0 248.73
175 0 250
1930.87 0 149.757
1825.46 0 149.847
1623.85 0 249.333
1175.32 0 249.141
1174.82 0 150.704
424.618 0 150.57
275.2 0 150.935
124.045 0 350.605
1876.62 0 50.3211
1774.74 0 350.26
1574.67 0 350.194
1674.89 0 149.839
1675.16 0 49.319
1574.97 0 150.556
375.103 0 49.4312
375.279 0 248.973
174.592 0 48.882
69.2822 0 249.692
68.667 0 49.2463
68.7924 0 150.408
275.166 0 48.2744
174.306 0 150.737
474.987 0 49.297
825.214 0 49.829
824.823 0 150.374
1774.8 0 49.9454
1474.83 0 150.391
1524.77 0 47.6663
725.511 0 151.121
724.322 0 49.5179
625 0 150
675.067 0 250.053
574.587 0 48.6422
524.956 0 150.789
574.976 0 349.758
274.831 0 249.225
925.007 0 48.7379
924.645 0 149.669
1024.41 0 48.5217
1024.59 0 149.95
1125.13 0 48.4113
1175.13 0 351.056
1225.11 0 49.3092
1275 0 150
1325 0 50.7617
1374.73 0 149.721
1424.85 0 49.3246
1375.32 0 249.618
1334.92 0 586.623
132.302 0 1317.86
1425.18 0 748.379
226.666 0 692.606
1868.16 0 1052.88
1169.29 0 1316.48
1117.33 0 636.912
1160.44 0 723.053
1225.67 0 706.414
52.4979 0 1874.68
988.127 0 957.275
148.786 0 892.859
51.5954 0 828.823
1123.73 0 1140.71
1136.71 0 1230.15
1035.02 0 1183.2
220.309 0 1701.04
1340.86 0 936.32
44.3798 0 523.335
1083.03 0 754.2
1052.56 0 672.918
789.428 0 1747.28
1766.5 0 917.267
1585.77 0 601.466
1511.06 0 623.474
294.829 0 919.398
1944.89 0 617.343
1159.12 0 1097.55
1481.12 0 1943.8
648.22 0 667.627
206.1 0 802.498
1313.41 0 672.536
57.8039 0 1942.2
1665.54 0 796.076
544.769 0 634.126
52.9602 0 883.395
1321.48 0 839.217
1554.82 0 1772.25
1154.8 0 911.3
1550.26 0 864.894
1471.75 0 449.612
1133.57 0 1440.36
1763 0 1019.08
1821.47 0 514.038
1773.77 0 556.738
1139.21 0 1867.6
673.434 0 445.491
143.991 0 1548.28
377.194 0 1135.56
367.132 0 1524.06
220.503 0 1949.85
1950.5 0 824.894
882.75 0 515.281
49.0034 0 1473.18
1864.25 0 932.001
1173.69 0 1949.53
941.749 0 588.416
736.694 0 898.026
812.245 0 1337.78
1057.36 0 1312.59
76.8148 0 444.307
1170.39 0 1558.84
1845.61 0 852.875
1951.01 0 918.106
1252.93 0 762.927
378.743 0 1424.19
1544.37 0 1468.08
1809.42 0 1118.24
1230.41 0 854.058
1638.44 0 620.612
215.3 0 451.325
697.515 0 1428.3
1186.2 0 1210.86
1230.19 0 1829.22
1129.96 0 821.608
1712.92 0 1147.9
1776.82 0 1164.33
1881.17 0 446.633
1792.55 0 1726.79
619.291 0 1520.32
828.321 0 1828.25
123.675 0 1949.27
1579.46 0 775.683
1844.12 0 632.855
1701.62 0 1505.86
1767.82 0 1466.43
1779.76 0 1633.81
1895.1 0 1148.26
414.391 0 1954.13
1946.37 0 1230.09
248.137 0 635.675
640.649 0 1216.04
890.756 0 1767.02
944.291 0 1687.45
897.05 0 1648.65
1529.02 0 1084.04
107.327 0 1224.49
248.667 0 1387.41
169.292 0 1423.03
217.65 0 1497
48.1137 0 1569.34
148.534 0 836.505
1031.03 0 1871.26
408.789 0 1062.45
147.608 0 1808.07
49.7563 0 1762.9
880.481 0 1948.79
504.595 0 1941.02
476.52 0 1854.14
1548.47 0 1599.47
1619.2 0 1533.45
1625.01 0 1626.23
1625.68 0 511.015
1953.1 0 1068.08
1375.54 0 1946.93
354.401 0 756.562
1953.49 0 1772.11
799.532 0 570.294
730.016 0 645.278
774.863 0 1205.27
1538.19 0 1024.57
1000.78 0 675.524
460.298 0 1414.36
468.606 0 1470.21
1534.11 0 519.98
1580.91 0 691.64
490.079 0 1334.48
443.477 0 1303.96
1262.92 0 1177.03
1233.25 0 1949.09
1302.87 0 1646.76
1076.31 0 836.519
642.895 0 530.665
48.3303 0 1024.37
1774.86 0 445.233
457.24 0 1219.32
48.883 0 1127.64
372.901 0 523.095
403.595 0 1793.37
356.558 0 1820.6
1531.4 0 1727.5
719.534 0 1952.48
892.326 0 1482.39
1037.67 0 1816.69
1424.96 0 250.265
1424.52 0 150.584
1174.83 0 48.1504
1074.88 0 48.7794
974.788 0 148.83
974.866 0 48.7623
874.563 0 149.638
625.788 0 348.834
675.546 0 150.901
673.687 0 49.1892
774.923 0 50.2674
875.212 0 48.9904
774.984 0 150.865
1524.93 0 151.07
224.856 0 150.45
1524.12 0 349.584
1825.38 0 50.5126
1825.63 0 350.172
175.258 0 350.666
67.9075 0 350.938
374.627 0 150.609
1573.54 0 249.601
424.998 0 249.354
424.806 0 349.972
524.72 0 248.686
876.159 0 352.388
1932.6 0 351.165
1931.57 0 49.6848
1375.14 0 349.983
774.001 0 351.165
724.877 0 249.387
525.292 0 48.4478
324.073 0 352.124
1876.06 0 250.11
1724.09 0 250.243
1024.63 0 250.734
1024.75 0 349.2
1124.9 0 249.098
874.179 0 250.118
1775.24 0 149.887
1875.94 0 149.518
1224.97 0 248.999
1324.89 0 149.431
1124.28 0 150.747
324.943 0 47.9831
1724.56 0 350.633
1724.91 0 49.186
1624.98 0 151.071
1625.34 0 350.991
1624.23 0 49.2326
123.654 0 48.8746
124.311 0 249.232
225.153 0 48.5423
123.554 0 151.02
424.929 0 50.4576
625.388 0 251.163
474.625 0 150.988
574.67 0 149.332
524.799 0 352.217
224.799 0 250.365
325.148 0 248.507
1224.91 0 349.636
1324.93 0 249.473
1125.07 0 351.478
1225.35 0 151.093
1275.15 0 50.5122
1474.94 0 48.0013
1374.84 0 50.5113
211.189 0 976.361
46.3584 0 774.227
1579.2 0 1887.6
1000.79 0 772.384
544.88 0 1069.61
1309.41 0 1869.56
1399.26 0 1891.35
273.771 0 1951.24
1667.76 0 1876.84
1625.63 0 1957.9
430.673 0 867.144
343.374 0 857.545
640.245 0 1873.84
547.025 0 1172.31
633.993 0 1155.64
1015.92 0 1133.63
1635.86 0 1267.87
1636 0 1205.27
735.953 0 1288.39
331.971 0 661.026
100.744 0 1469.99
305.241 0 728.849
350.395 0 804.704
189.255 0 509.538
278.81 0 535.201
722.656 0 1195.89
927.581 0 1174.46
935.786 0 1090.73
850.006 0 1152.46
967.244 0 1053.44
559.221 0 1019.87
636.65 0 1062.5
609.314 0 981.906
1672.31 0 864.22
533.229 0 731.773
1074.02 0 1502.38
1052.57 0 1412.17
1523.53 0 687.472
1470.52 0 662.808
1732.07 0 610.142
1091.33 0 1752.14
305.678 0 1236.87
1405.99 0 1840.43
274.018 0 1858.27
227.709 0 1853.34
1450.56 0 1749.25
273.822 0 996.99
144.261 0 1884.44
1226.11 0 446.79
512.393 0 835.025
530.732 0 787.314
1949.41 0 1176.3
1332.92 0 722.308
1368.93 0 683.061
135.951 0 525.192
243.076 0 1298.03
204.063 0 1255.86
717.224 0 1507.22
1700.11 0 1360.08
686.103 0 492.575
761.433 0 699.68
893.283 0 992.99
1460.43 0 1808.97
1017.38 0 532.868
1790.67 0 1550.64
1956.84 0 973.271
860.795 0 1236.63
1489.16 0 1885.97
127.521 0 712.005
883.725 0 774.165
941.018 0 778.239
1890.51 0 662.955
708.798 0 594.649
661.54 0 1784.31
735.767 0 1812.97
844.317 0 1107.37
1359.78 0 1756.85
96.8342 0 1110.59
587.132 0 1145.94
801.545 0 741.429
788.852 0 641.96
893.795 0 1383.39
1867.7 0 1780.03
1145.41 0 1279.03
824.105 0 248.948
724.265 0 350.8
925.441 0 352.963
623.594 0 48.2732
974.727 0 251.331
324.682 0 151.664
274.238 0 351.778
1574.24 0 47.8014
1724.89 0 149.01
1673.62 0 250.632
1825.22 0 248.816
1474.28 0 350.351
1524.22 0 250.399
1324.08 0 351.442
1074.38 0 151.544
800.692 0 1028.36
1520.2 0 1384.46
389.648 0 1710.57
1903.87 0 1745.91
898.074 0 1271.63
245.217 0 895.897
496.186 0 1383.63
124.092 0 444.534
1281.61 0 1321.31
1232.94 0 1258.76
1321.28 0 1266.75
1336.49 0 1571.83
1276.43 0 1548.4
1237.22 0 1597.03
1106.43 0 582.379
797.314 0 968.732
853.76 0 956.751
1067.38 0 900.279
1050.45 0 1083.39
1213.52 0 1732.1
1821.96 0 1873.94
94.5241 0 1657.38
46.2467 0 1664.76
87.8408 0 543.36
1673.44 0 440.95
1808.38 0 943.056
1956.87 0 522.105
1959.44 0 1574.17
931.707 0 636.357
1077.35 0 1956.07
791.798 0 1481.21
145.379 0 1265.29
1399.32 0 522.768
1137.35 0 1358.56
1014.61 0 443.32
362.303 0 1953.89
1249.18 0 1875.09
1194.49 0 1859.59
446.085 0 1554.06
355.819 0 1579.11
709.549 0 987.155
1959.12 0 1380.19
171.133 0 1708.51
198.233 0 1797.68
245.411 0 1755.81
1053.47 0 1226.6
1492.91 0 561.009
431.66 0 1895.82
1262.32 0 1013.17
1018.48 0 1717.19
440.353 0 636.768
1671.12 0 537.664
1719.27 0 507.771
1685.33 0 1826.75
382.046 0 1226.33
1082.71 0 1358.83
1374.58 0 1493.82
248.732 0 845.311
553.217 0 1454.25
1075.11 0 985.915
663.767 0 1017.14
1227.85 0 1491.83
300.62 0 1155.92
844.564 0 652.035
1125.57 0 1485.22
1582.77 0 543.463
1575.59 0 441.717
271.889 0 442.677
583.064 0 798.697
1113.26 0 1681.86
1043.93 0 1667.98
1071.98 0 1599.69
46.8429 0 621.183
658.549 0 1689.38
639.836 0 1627.56
687.044 0 1597.34
703.788 0 1138.26
756.962 0 1059.18
775.146 0 1955.94
1275.72 0 864.305
931.935 0 1590.16
1018.8 0 1570.32
969.653 0 1520.62
781.977 0 1617.31
749.16 0 1571.15
580.937 0 1961.68
1315.6 0 503.12
1229.86 0 1138.28
644.273 0 1328.67
1067.24 0 446.451
1397.45 0 781.795
594.503 0 883.751
41.1395 0 477.495
1880.4 0 574.419
1343.69 0 1619.36
1389.83 0 1636.04
1396.23 0 1682.74
41.3954 0 571.292
1172.9 0 444.652
154.192 0 1044.72
302.42 0 824.908
41.7192 0 1174.88
1750.43 0 1062.79
785.572 0 1793.19
758.199 0 1111.87
121.48 0 1426.43
1802.03 0 995.185
981.944 0 1361.64
969.475 0 1439.18
939.263 0 1347
1600.36 0 868.28
1528.35 0 1958.22
1426.05 0 1609.62
377.139 0 1474.18
1678.6 0 589.053
1890.74 0 834.847
675.642 0 1957.64
215.053 0 1596.25
400.203 0 1612.3
404.142 0 1332.28
1376.41 0 444.303
42.5462 0 722.249
630.204 0 620.933
804.125 0 816.187
333.91 0 1729.77
466.563 0 836.353
1552.19 0 1242.25
46.1174 0 1377.9
1096.41 0 1041.63
41.1925 0 1271.78
526.884 0 439.976
1439.31 0 1700.14
831.326 0 1600.59
324.663 0 446.365
1351.42 0 1349.29
1367.82 0 1301.89
1435.62 0 1373.58
201.428 0 595.372
305.751 0 1821.41
789.959 0 1294.47
1433.34 0 956.989
1227.42 0 648.213
125.055 0 1590.34
589.085 0 721.918
1895.58 0 1545.44
1866.87 0 1583.38
491.054 0 1576.4
1686.87 0 1197.47
593.852 0 1244.31
1357.43 0 1856.92
1314.83 0 1821.06
1082.13 0 1903.26
310.415 0 1335.03
1279.84 0 440.163
1258.18 0 519.797
1647.03 0 1353.62
998.302 0 1777.42
1954.21 0 776.418
1002.86 0 1226.13
1567.05 0 1192
825.239 0 437.006
1550.3 0 1681.66
690.198 0 1741.33
757.88 0 1709
262.527 0 1606.09
180.837 0 1652.52
996.08 0 860.948
1021.26 0 821.635
921.346 0 912.145
1013.13 0 909.526
1609.44 0 1674.95
627.327 0 1380.07
92.1962 0 1388.96
1395.97 0 1391.33
1773.68 0 1960.71
440.759 0 763.931
505.881 0 1149.06
1905 0 1088.52
1151 0 1182.8
681.741 0 1064.6
44.6894 0 1320.86
1425.11 0 442.489
1585.31 0 822.73
145.948 0 660.133
814.725 0 1247.35
532.619 0 1616.47
509.835 0 1682.64
1902.13 0 750.302
1750.15 0 1423.15
739.402 0 853.222
1644.89 0 1575.74
636.54 0 1829.36
1678.52 0 928.157
1605.56 0 945.918
385.743 0 888.18
1836.17 0 1300.76
514.796 0 667.518
1171.47 0 1901.82
1676.43 0 1449.55
862.469 0 1682.86
818.976 0 1519.26
1876.64 0 1006.39
1958.08 0 1018.97
1074.23 0 497.148
172.844 0 1346.57
500.488 0 1805.59
1671.92 0 1539.07
1724.73 0 1547.56
1666.89 0 1616.04
1164.78 0 1003.25
416.176 0 543.981
647.24 0 760.941
507.437 0 533.953
315.558 0 1076.3
368.945 0 1092.24
221.242 0 546.588
1166.63 0 787.013
776.904 0 525.132
719.765 0 777.918
429.669 0 967.094
467.367 0 922.087
475.159 0 999.442
628.226 0 1961.1
1483.25 0 954.125
1769.76 0 1884.65
1902 0 1452.61
1378.78 0 972.51
965.694 0 443.603
102.936 0 1056.19
1961.25 0 1872.85
1419.74 0 1562.39
1177.32 0 1461.73
1822.87 0 1958.89
1889 0 1837.3
1411.5 0 1177.68
453.617 0 1072.35
541.394 0 1405.33
1124.21 0 1962.27
1402.08 0 628.059
1857.64 0 1206.06
1956.6 0 1672.06
1365.62 0 1108.88
1370.38 0 1020.15
1309.22 0 1103.66
377.131 0 1868.81
825.334 0 884.707
1281.04 0 1227.3
583.232 0 607.274
220.899 0 1343.63
41.1742 0 1615.67
1621.11 0 992.947
48.3488 0 933.034
571.3 0 1769.25
1096.67 0 795.788
771.81 0 438.23
1319.09 0 1686.12
1519.51 0 1337.04
202.165 0 1896.46
1506.47 0 1606.83
1469.6 0 1628.5
1312.71 0 626.315
1240.21 0 602.851
1704.56 0 1910.26
503.471 0 1245.07
547.4 0 1267.8
720.966 0 442.09
101.454 0 625.7
123.997 0 574.508
516.03 0 939.038
982.638 0 1608.29
480.671 0 437.816
1437.95 0 1041.4
876.992 0 1189.15
417.398 0 1400.58
708.358 0 1336.9
1187.63 0 878.073
1030.71 0 1964.24
1160.93 0 639.534
1463.32 0 1531.96
1901.75 0 1361.94
455.334 0 721.389
1022.67 0 632.434
394.634 0 1286.36
293.292 0 586.062
177 0 744.974
271.429 0 756.253
260.988 0 718.971
1858.04 0 750.379
872.605 0 856.602
988.598 0 1273.94
297.192 0 1379.08
1787.34 0 1082.3
1830.5 0 1073.8
182.622 0 1167.77
772.783 0 1881.6
912.904 0 688.799
518.841 0 1535.17
1793.35 0 873.201
1771.79 0 1775.08
1603.98 0 648.969
923.221 0 1733.37
1539.79 0 768.023
407.415 0 445.974
40.1826 0 981.927
119.539 0 974.276
1283.42 0 593.479
189.381 0 1116.76
1912.17 0 1956.34
1379.09 0 1543.48
394.123 0 784.075
930.876 0 519.218
1673.39 0 1112.62
1605.34 0 1063.91
1674.84 0 1058.63
293.717 0 1899.32
41.2207 0 1523.66
1963.86 0 1322.43
1724.78 0 945.118
1454.27 0 1331.2
1255.24 0 1091.54
870.947 0 1520.34
878.297 0 437.6
541.825 0 1313.9
129.619 0 753.787
380.678 0 684.151
908.343 0 1896.1
446.733 0 1643.45
990.962 0 579.445
1849.08 0 678.41
1701.05 0 1280.97
1221.63 0 802.936
238.231 0 1024.58
164.024 0 989.577
1621.22 0 787.913
956.366 0 1208.12
1524 0 1810.37
1144.8 0 551.766
1190.33 0 566.797
740.674 0 1658.72
88.3607 0 1011.25
640.239 0 1483.68
1236.73 0 488.328
1151.69 0 492.865
561.032 0 920.299
1830.25 0 716.326
1155.67 0 1684.91
597.611 0 510.177
625.831 0 438.867
1570.26 0 1549
1838.23 0 1023.41
1960.36 0 1620.71
93.6322 0 1563.93
1199.67 0 1652.09
1232.48 0 1696.67
887.612 0 1089.14
407.071 0 496.065
332.799 0 498.69
1214.42 0 525.079
171.167 0 437.485
1881.22 0 1283.56
1918.51 0 1311.47
1913.69 0 1879.92
670.405 0 1517.43
948.067 0 999.857
1553.8 0 942.456
1891.33 0 1916.87
526.994 0 1766.58
583.409 0 1824.09
1585.82 0 1460.73
869.431 0 1727.88
1245.46 0 1305.79
1259.65 0 1354.98
1182.68 0 1359.65
869.212 0 1861.85
681.274 0 1871.73
175.457 0 1964.96
487.219 0 751.099
1480.58 0 809.163
639.569 0 913.957
712.879 0 938.484
695.946 0 861.88
1264.91 0 676.33
1447.66 0 1906.95
707.686 0 1907.44
865.191 0 1435.91
1313.7 0 1415.97
1582.34 0 1278.1
1963.75 0 1821.16
83.0268 0 705.402
1137.44 0 1771.67
1447.68 0 1092.2
1279.7 0 1959.15
892.934 0 604.593
857.939 0 560.976
779.952 0 911.067
384.684 0 939.52
260.673 0 1681.77
337.506 0 1443.92
340.736 0 1360.1
1669.15 0 1008.19
1616.89 0 1488.22
1538.86 0 1516.1
238.022 0 1085.64
1298.39 0 1148.88
35.1987 0 1421.73
1036.89 0 1477.03
1537.74 0 1858.86
991.656 0 1479.49
1328.54 0 1227.59
1627.72 0 1124.16
1204.73 0 1292.16
1150.33 0 861.468
1496.38 0 1004.34
1706.58 0 1414.85
1027.61 0 992.491
1014.6 0 1045.07
1616.7 0 1860.44
1847.12 0 1915.55
1714.81 0 851.95
1404.19 0 709.311
1819.79 0 1392.92
1410.92 0 1467.8
171.476 0 1503.06
137.187 0 1185.86
659.062 0 830.572
674.774 0 792.534
1339.41 0 982.439
1657.21 0 741.536
1964.98 0 573.646
1185.87 0 1053.36
1270.16 0 1397.76
469.296 0 672.657
1144.18 0 958.348
1169.94 0 1727.51
587.658 0 1054.58
569.108 0 1690.68
1777.74 0 1391.26
1762.9 0 1347.99
1563.37 0 1060.93
1372.95 0 1157.06
937.06 0 822.037
855.472 0 810.355
1368.61 0 894.306
1369.56 0 850.959
719.449 0 731.04
786.661 0 779.407
462.008 0 1949.2
520.007 0 1899.28
536.218 0 1964.37
564.218 0 1883.22
849.577 0 741.964
1262.7 0 1796.23
1203.25 0 1804.43
1256.74 0 1740.9
609.548 0 838.375
1756.51 0 832.411
1955.21 0 1961.43
1140.45 0 679.867
1112.14 0 718.685
1067.08 0 717.606
108.491 0 1696.74
1232.69 0 1053.66
1041.3 0 751.852
1214.03 0 1177.34
1911.55 0 512.158
1963.23 0 482.841
1960.08 0 443.831
1921.62 0 434.151
1960.62 0 1279.8
1961.1 0 871.277
347.447 0 1907.52
997.467 0 1401.25
657.843 0 581.399
1513.97 0 734.891
1471.51 0 1668.3
561.948 0 1514.88
1886.25 0 966.624
1901.33 0 915.924
1917.88 0 992.426
460.424 0 1264.94
606.606 0 760.188
1870.79 0 886.53
855.079 0 1346.3
1358.82 0 1707.95
735.068 0 1237.3
1465.14 0 755.812
321.182 0 1968.31
674.109 0 708.322
616.327 0 688.439
1512.19 0 1256.18
923.547 0 432.433
38.6761 0 1718.02
85.4627 0 1733.12
958.129 0 856.215
1893.71 0 1237.89
796.904 0 1912.58
404.823 0 1011.48
1406.82 0 822.502
1353.1 0 771.364
311.451 0 1024.8
701.806 0 1784.01
131.672 0 1631.78
154.1 0 1763.2
378.834 0 1177.54
342.294 0 1159.02
1871.12 0 489.188
1770.79 0 746.714
1441.97 0 707.511
1361.31 0 491.767
1440.03 0 493.471
411.921 0 1153.85
895.006 0 948.533
366.419 0 435.539
1124.25 0 1820.01
128.755 0 1507.24
189.887 0 1463.47
1954.11 0 1427.58
1728.66 0 991.404
720.917 0 1465.69
1448.14 0 840.404
520.034 0 991.662
688.986 0 664.233
34.4702 0 436.62
294.624 0 633.198
1569.45 0 1320.2
1721.33 0 1959.2
1786.6 0 712.816
1325.05 0 801.355
1599.1 0 1348.52
1579.67 0 1376.75
1550.06 0 1391.36
1535 0 1425.4
752.865 0 1483.29

CELLS 3470 13880
3 910 286 285
3 536 1399 1505
3 181 1119 964
3 1256 475 1090
3 1154 255 254
3 1123 288 958
3 1124 172 173
3 947 1126 16
3 922 246 1138
3 1162 194 193
3 1128 174 175
3 1153 259 917
3 875 983 384
3 1121 179 178
3 1214 371 1803
3 1162 949 194
3 1141 254 255
3 935 231 1163
3 261 965 260
3 966 184 183
3 963 219 218
3 35 949 1162
3 1158 186 969
3 268 1280 1137
3 1048 712 1047
3 1181 185 184
3 1151 219 917
3 190 951 1275
3 269 934 268
3 1255 1055 494
3 1158 185 186
3 1165 191 1275
3 236 1156 924
3 970 29 1182
3 617 1760 1035
3 1155 194 195
3 1163 191 192
3 193 936 1162
3 42 198 41
3 39 1143 38
3 39 40 41
3 499 1698 1301
3 403 1251 1665
3 706 1433 1734
3 1666 1657 800
3 890 1559 100
3 1286 516 1266
3 1631 765 1684
3 1514 1347 1013
3 59 1035 58
3 1320 1017 478
3 537 1101 1027
3 1031 330 795
3 1490 564 1489
3 1058 720 367
3 667 537 1319
3 1224 481 714
3 492 809 1058
3 1696 646 1481
3 1757 642 1542
3 642 1379 1378
3 1478 716 741
3 1427 450 777
3 1596 329 787
3 1545 762 1808
3 1187 1450 321
3 1512 1644 788
3 432 1315 735
3 1088 1286 778
3 250 909 1123
3 1533 841 1476
3 1243 1104 612
3 715 1581 677
3 1169 200 943
3 1684 765 344
3 210 1171 921
3 1235 1059 675
3 176 948 175
3 427 1648 1700
3 293 1141 294
3 243 1274 242
3 889 375 1052
3 572 1500 748
3 1361 1113 577
3 536 1657 1666
3 973 1487 397
3 1645 1241 363
3 829 433 1431
3 875 1007 520
3 1404 1185 145
3 1519 660 1341
3 1070 397 768
3 836 377 1576
3 891 1488 357
3 1532 588 1304
3 109 110 1731
3 893 1718 1469
3 390 864 1743
3 892 442 1718
3 1071 1705 1798
3 1565 560 823
3 1368 782 1505
3 1649 610 1488
3 1774 1775 1077
3 988 1448 554
3 1448 645 1400
3 133 1410 132
3 988 545 1325
3 864 482 1775
3 630 338 802
3 295 1510 1773
3 1077 482 848
3 959 204 1176
3 1535 892 664
3 209 1140 208
3 1004 1053 118
3 216 1122 961
3 119 120 121
3 159 0 1
3 931 278 1135
3 1128 214 213
3 990 149 150
3 177 1127 960
3 218 1120 963
3 960 18 19
3 922 207 208
3 449 1203 657
3 169 1172 168
3 946 10 1147
3 1273 166 1136
3 14 1125 13
3 959 1175 203
3 1130 164 930
3 243 1176 244
3 1170 167 938
3 923 1167 201
3 1271 172 171
3 1139 285 284
3 163 945 162
3 1136 166 167
3 1166 3 940
3 1136 206 205
3 1170 9 946
3 160 161 943
3 199 941 155
3 155 941 238
3 940 163 162
3 199 155 156
3 1168 164 163
3 210 1173 954
3 157 199 156
3 929 168 1172
3 1 942 159
3 4 940 3
3 1168 163 940
3 159 160 158
3 942 1166 161
3 942 2 1166
3 1173 170 171
3 157 158 160
3 1 2 942
3 1170 168 167
3 956 170 1147
3 930 165 1273
3 5 1168 4
3 7 938 1160
3 172 1271 1125
3 238 941 239
3 956 11 12
3 1125 173 172
3 947 17 1127
3 957 169 170
3 938 167 166
3 1271 171 956
3 964 1118 182
3 1062 575 1420
3 1166 162 161
3 1118 183 182
3 244 1148 243
3 1147 170 169
3 953 173 1125
3 174 953 1126
3 280 1641 279
3 956 171 170
3 1585 627 1795
3 953 14 15
3 953 174 173
3 1119 181 180
3 962 180 179
3 911 283 1148
3 1151 258 257
3 947 16 17
3 176 1127 177
3 1180 222 928
3 1126 953 15
3 1183 186 968
3 1181 184 966
3 604 1455 1388
3 1122 216 215
3 180 962 1119
3 1127 176 947
3 951 189 1182
3 1181 25 26
3 916 263 262
3 23 1118 964
3 902 415 1571
3 1584 502 785
3 27 1183 968
3 35 1162 34
3 970 187 1183
3 28 1183 27
3 1144 265 905
3 34 936 33
3 184 185 967
3 1156 236 235
3 1183 187 186
3 951 31 1275
3 499 1301 1199
3 1182 30 951
3 1143 197 932
3 1182 29 30
3 1278 234 235
3 858 1106 453
3 936 192 1165
3 934 308 307
3 1182 189 188
3 951 190 189
3 1132 195 949
3 949 35 36
3 1276 194 1155
3 1132 36 37
3 237 43 44
3 41 1143 39
3 925 234 1155
3 196 932 197
3 42 43 198
3 930 164 165
3 240 1167 923
3 930 204 203
3 238 154 155
3 201 202 923
3 161 1169 943
3 929 207 206
3 931 1135 239
3 1172 207 929
3 1148 244 911
3 602 1382 1615
3 204 930 1273
3 1136 205 1273
3 961 178 1120
3 1207 1042 523
3 206 1136 929
3 1614 775 602
3 1169 162 945
3 598 1569 1568
3 1173 209 957
3 1173 171 954
3 1128 213 952
3 217 961 1120
3 919 217 1272
3 171 172 954
3 1159 1282 181
3 1282 180 181
3 838 147 1355
3 182 1159 181
3 1416 1639 698
3 293 1604 1443
3 1120 178 179
3 1128 175 948
3 184 1180 183
3 963 179 180
3 958 288 287
3 928 222 221
3 442 1469 1718
3 216 1154 215
3 172 1124 954
3 928 221 1159
3 950 188 189
3 225 1158 969
3 1144 303 1281
3 220 917 219
3 1159 221 220
3 1438 1242 485
3 1122 176 177
3 967 223 1180
3 229 1129 937
3 1163 230 937
3 411 744 1757
3 933 1161 272
3 1155 233 1276
3 926 269 1137
3 1276 193 194
3 1158 224 967
3 935 193 1276
3 228 1129 229
3 971 265 264
3 226 969 1117
3 57 1023 56
3 972 734 432
3 969 226 225
3 233 1155 234
3 926 230 231
3 935 232 231
3 925 195 196
3 198 924 197
3 45 913 237
3 234 925 235
3 276 46 47
3 1156 235 925
3 276 275 913
3 1276 232 935
3 45 46 276
3 45 237 44
3 1116 266 265
3 239 1135 238
3 153 154 238
3 939 206 1138
3 277 152 153
3 281 1274 282
3 239 941 1167
3 241 240 923
3 939 245 244
3 921 209 210
3 1176 205 939
3 1138 246 245
3 921 249 248
3 244 1176 939
3 1154 254 1268
3 1288 997 509
3 1138 245 939
3 1154 216 919
3 1230 1184 509
3 660 1454 873
3 922 247 246
3 919 256 255
3 248 1174 247
3 1134 279 931
3 916 262 1157
3 921 248 1140
3 218 1272 217
3 249 958 248
3 920 214 1268
3 212 1146 955
3 1116 226 227
3 920 253 252
3 927 261 260
3 927 221 222
3 290 1018 289
3 654 1646 1245
3 919 216 217
3 1620 1640 373
3 219 1151 218
3 256 919 1272
3 1137 1280 229
3 1268 253 920
3 1209 412 700
3 1123 289 288
3 1153 221 927
3 1153 260 259
3 1014 1389 574
3 1116 227 915
3 915 267 266
3 1137 269 268
3 1635 398 1296
3 1633 73 1523
3 927 260 1153
3 1178 225 971
3 895 688 342
3 971 225 226
3 267 915 1280
3 914 234 1278
3 1164 270 904
3 906 262 263
3 1280 268 267
3 462 827 1612
3 230 1137 229
3 1277 231 232
3 914 273 272
3 1150 272 271
3 452 852 1096
3 274 1149 275
3 1133 273 274
3 1381 853 299
3 1278 235 1149
3 1307 309 310
3 1149 913 275
3 310 1161 311
3 273 1278 274
3 48 315 47
3 231 1277 926
3 276 1142 275
3 914 272 1150
3 283 284 1795
3 379 1238 1207
3 1135 277 153
3 912 280 1134
3 1134 241 912
3 241 1134 240
3 1174 287 286
3 282 1416 1350
3 912 281 280
3 1270 295 294
3 1139 245 246
3 836 471 745
3 292 1145 908
3 1607 1203 449
3 1174 286 910
3 1206 1087 1592
3 909 251 1269
3 448 853 1625
3 1548 1243 1018
3 1270 294 1141
3 918 256 257
3 1230 333 1614
3 958 287 1174
3 908 254 1141
3 257 1152 918
3 104 105 1361
3 909 290 289
3 918 296 295
3 1144 264 265
3 1472 868 534
3 863 1005 1710
3 908 253 254
3 979 372 1741
3 291 1269 1145
3 909 250 251
3 53 998 52
3 1270 255 256
3 258 907 1152
3 299 1179 965
3 976 423 1575
3 651 1747 1788
3 1269 251 252
3 907 298 297
3 1279 305 905
3 905 266 1279
3 839 711 352
3 934 307 1131
3 1471 347 1057
3 1221 996 457
3 1279 267 1131
3 906 302 301
3 268 1131 267
3 905 305 304
3 998 494 724
3 270 1164 269
3 1723 622 1254
3 1217 566 1005
3 266 905 265
3 1279 306 305
3 603 1764 1026
3 315 1142 47
3 1131 268 934
3 1177 261 262
3 785 1756 1584
3 1096 852 530
3 904 309 1164
3 1054 611 325
3 1133 274 903
3 273 933 272
3 1142 903 275
3 263 1281 906
3 846 55 1440
3 933 273 1133
3 1084 851 529
3 315 314 1142
3 311 312 1106
3 313 903 314
3 1711 51 52
3 1295 653 1294
3 102 732 101
3 1308 603 1026
3 56 1023 1440
3 481 1115 1439
3 633 1302 1716
3 823 560 781
3 1731 110 1079
3 1290 663 555
3 1194 507 874
3 1090 1804 626
3 385 1755 1104
3 1421 1111 391
3 1603 474 1114
3 1515 1457 609
3 646 488 1056
3 1378 1379 584
3 89 845 88
3 1575 1574 574
3 885 1647 565
3 331 1804 1090
3 1468 553 1429
3 1040 605 1613
3 737 989 484
3 1395 1542 642
3 1477 1678 607
3 1011 366 885
3 778 1523 74
3 1467 1250 538
3 1688 1690 703
3 1001 1770 615
3 838 1404 146
3 655 1075 1497
3 855 606 1680
3 1567 679 598
3 1007 984 520
3 322 1415 871
3 1735 613 1045
3 1483 1313 474
3 1338 1220 330
3 978 608 342
3 433 1547 1431
3 1288 521 1340
3 392 1374 1661
3 135 880 1412
3 836 745 539
3 1064 1652 1583
3 803 395 630
3 1418 1417 756
3 1683 1082 594
3 1557 341 1371
3 1289 1098 580
3 992 1093 1564
3 1297 688 448
3 902 1776 567
3 1479 343 1006
3 761 1686 1526
3 1554 317 767
3 998 1255 494
3 876 737 484
3 551 1386 1258
3 800 1657 522
3 1651 443 898
3 409 1047 1430
3 1039 423 729
3 858 1307 310
3 614 1669 1807
3 1389 1632 574
3 1485 1249 60
3 557 1533 1476
3 57 58 1752
3 807 1710 707
3 1040 464 1362
3 1529 1293 514
3 1526 1686 368
3 455 987 697
3 1510 296 1317
3 1346 822 495
3 392 1626 1374
3 752 1359 362
3 804 637 769
3 1019 356 645
3 111 1729 110
3 547 1326 1327
3 835 358 1667
3 1801 1815 1241
3 609 1507 1303
3 490 1193 845
3 1113 1361 105
3 1392 1265 796
3 1286 1088 516
3 1045 1734 378
3 1099 571 1098
3 1656 1052 814
3 1341 771 477
3 1347 862 1219
3 1571 415 1528
3 1621 407 1446
3 1456 429 813
3 1221 1756 501
3 1764 1398 460
3 1430 712 563
3 1515 1700 789
3 361 1009 886
3 1740 1560 444
3 772 1715 1010
3 1376 790 434
3 1625 877 1619
3 599 1617 794
3 433 1605 1547
3 1793 816 621
3 1225 745 388
3 1005 566 1616
3 876 484 1331
3 972 735 458
3 365 1660 1802
3 366 1011 1393
3 675 63 1235
3 1505 1399 107
3 1368 108 109
3 1056 488 1490
3 1552 687 1363
3 371 1518 686
3 1565 823 1337
3 1438 323 827
3 1074 1434 658
3 1073 983 520
3 1563 1458 396
3 1053 117 118
3 119 1004 118
3 758 1678 1477
3 1607 449 801
3 622 902 1571
3 548 1232 1436
3 1293 756 514
3 1299 1298 721
3 1576 1706 728
3 1607 396 634
3 414 1707 1708
3 1610 1564 506
3 1299 415 1794
3 1340 1002 743
3 1498 1208 579
3 495 822 1733
3 1029 534 1677
3 1503 1502 758
3 1629 693 437
3 150 1375 990
3 1079 1729 470
3 547 1421 1227
3 625 1053 1231
3 1634 588 1072
3 510 1565 1337
3 438 1495 817
3 1520 1312 590
3 890 658 1559
3 374 1026 1759
3 1471 646 1696
3 1556 370 1094
3 1072 469 1634
3 619 1708 1707
3 1234 591 1659
3 880 135 136
3 1361 1778 733
3 888 809 492
3 1354 1364 360
3 520 984 806
3 1382 602 775
3 705 1603 1114
3 771 1095 477
3 1729 1330 470
3 1474 664 1257
3 1439 717 346
3 648 92 1086
3 492 774 1050
3 727 334 1229
3 736 343 1333
3 1629 612 1104
3 1583 346 1064
3 697 1199 1301
3 1316 1338 513
3 1392 1390 531
3 828 496 1431
3 335 1716 1672
3 1527 1753 391
3 793 1396 533
3 557 779 1475
3 74 1523 73
3 869 653 318
3 1419 812 1456
3 1720 462 716
3 727 1226 552
3 1762 510 1107
3 1212 498 1555
3 608 1740 1741
3 1317 296 297
3 723 1553 1413
3 1215 362 797
3 721 1677 1528
3 1660 785 502
3 362 1462 752
3 1342 382 784
3 1202 1422 463
3 1646 616 1213
3 1364 525 704
3 974 1790 1768
3 1686 570 1100
3 613 1735 872
3 432 735 972
3 1728 1263 387
3 1428 861 1427
3 1648 1590 789
3 1392 795 1390
3 833 834 445
3 502 1584 1054
3 832 352 718
3 482 1076 773
3 1213 616 1698
3 1115 1074 717
3 503 726 1296
3 1750 651 1049
3 409 1430 1201
3 809 888 324
3 894 1266 359
3 1667 1114 474
3 478 1735 1320
3 813 419 1417
3 1683 898 376
3 1557 1371 699
3 978 1297 582
3 811 450 759
3 1590 82 789
3 734 972 1588
3 883 484 1709
3 412 1063 700
3 1422 1030 463
3 1788 434 1015
3 1612 827 1200
3 729 1048 1039
3 787 1385 465
3 455 1461 986
3 839 586 1692
3 1804 1001 626
3 657 842 449
3 990 555 1306
3 288 1630 819
3 340 661 1418
3 977 1693 585
3 1507 762 421
3 465 1047 787
3 1763 386 1426
3 696 1264 1089
3 553 780 1429
3 1488 1080 357
3 641 1561 765
3 843 811 1703
3 1584 1756 611
3 1588 373 734
3 463 833 1557
3 1746 672 1044
3 890 732 473
3 99 1312 98
3 1630 289 1018
3 822 505 1733
3 297 298 1372
3 1450 1449 321
3 1714 1563 801
3 1254 622 1253
3 678 1811 1812
3 1692 409 711
3 1536 1103 595
3 464 1613 1036
3 1781 1373 629
3 1741 991 1742
3 1809 749 1627
3 1403 1791 747
3 1061 1751 639
3 790 348 1016
3 1529 570 1691
3 541 1342 784
3 1569 1205 1568
3 140 1105 139
3 1418 550 1417
3 1725 1726 695
3 995 1348 369
3 1096 1329 452
3 1482 467 1652
3 796 428 1392
3 61 1485 60
3 840 436 1533
3 1525 754 569
3 1456 812 429
3 1522 1059 466
3 841 1092 565
3 1063 1431 496
3 1263 623 1244
3 1329 351 896
3 1055 749 348
3 1720 1242 462
3 767 1506 1695
3 1777 1061 639
3 1192 1545 824
3 1066 1363 687
3 770 408 692
3 1523 468 820
3 792 677 359
3 1598 1025 469
3 131 1687 1025
3 1196 401 1474
3 1532 1072 588
3 728 1589 1576
3 1075 655 1779
3 512 1217 1005
3 318 653 1295
3 99 1559 1312
3 515 1064 814
3 1213 1698 499
3 1367 669 526
3 1104 1755 693
3 1208 523 698
3 393 1796 1017
3 1573 606 855
3 1547 571 1546
3 664 892 339
3 585 1693 1653
3 334 1260 1766
3 1693 364 1292
3 1056 1490 1489
3 892 690 339
3 1597 1191 556
3 774 1058 367
3 1674 94 95
3 1004 122 981
3 1421 547 821
3 1694 605 1558
3 1640 1624 1437
3 1221 1097 611
3 1721 436 1595
3 1456 550 1419
3 1058 809 720
3 1721 1595 839
3 885 565 1506
3 1038 344 632
3 1035 1752 58
3 1248 1490 488
3 809 1491 564
3 1000 91 648
3 394 1419 1601
3 1251 403 694
3 671 1336 1192
3 60 1249 59
3 1397 1223 491
3 843 542 811
3 1428 367 861
3 477 1519 1341
3 1610 1028 420
3 1397 491 1041
3 995 457 562
3 739 1500 572
3 776 615 1770
3 580 1098 1605
3 400 855 1680
3 1299 1245 497
3 1245 1646 353
3 1605 571 1547
3 1360 753 1283
3 1442 487 1409
3 1397 618 1223
3 1373 1780 629
3 1041 995 369
3 417 1725 989
3 1570 435 1470
3 1334 618 1397
3 1423 1506 767
3 552 706 1260
3 794 1617 1441
3 503 1295 1294
3 1601 849 1539
3 506 1028 1610
3 601 1381 1232
3 1259 1212 751
3 746 506 1093
3 838 1549 456
3 1340 355 1288
3 1062 337 975
3 399 1511 1382
3 1592 1087 396
3 1108 137 138
3 580 660 1519
3 973 397 681
3 1239 781 332
3 1732 401 782
3 1544 1588 581
3 863 1710 807
3 540 1432 1190
3 865 1517 719
3 1422 1202 644
3 757 668 1713
3 988 554 1679
3 1399 1113 106
3 1088 75 76
3 788 1644 1516
3 1450 628 1449
3 1675 696 1676
3 739 730 413
3 1546 326 828
3 1253 387 1733
3 986 755 455
3 579 1208 1566
3 1062 975 575
3 1563 1659 1458
3 1458 591 874
3 1045 613 1734
3 821 1111 1421
3 1566 1062 579
3 1042 663 1641
3 859 814 346
3 1086 92 93
3 659 1224 1672
3 524 1352 714
3 1445 551 1783
3 1552 402 687
3 1467 316 1250
3 1609 395 1401
3 1019 469 1797
3 1004 119 121
3 1470 435 846
3 1752 460 1023
3 309 851 308
3 1348 1084 369
3 428 796 1287
3 1415 322 708
3 1757 1542 411
3 712 349 860
3 526 669 1483
3 408 1468 692
3 676 1403 1464
3 1646 982 616
3 1674 900 94
3 1515 83 84
3 553 893 1469
3 1356 339 690
3 489 1229 744
3 1101 95 96
3 644 1091 1467
3 383 1210 830
3 1322 424 769
3 1565 1099 1402
3 857 524 684
3 1394 1000 535
3 1250 599 1287
3 1344 757 318
3 75 778 74
3 1700 1303 427
3 1020 430 1793
3 1779 655 404
3 604 1388 1204
3 399 1589 728
3 544 1463 1412
3 1318 1769 640
3 362 1198 797
3 1676 1089 413
3 773 981 848
3 773 380 1231
3 1436 301 302
3 1792 1464 1012
3 1633 549 1310
3 791 70 777
3 489 1009 1618
3 445 835 1313
3 1196 536 782
3 1657 536 1196
3 1378 1377 410
3 1538 425 1102
3 1330 647 1080
3 862 684 360
3 1304 588 1784
3 1732 635 1730
3 600 1252 1606
3 1375 1032 555
3 1797 1705 1019
3 480 1285 631
3 1596 840 1682
3 1811 678 1807
3 1462 517 752
3 1447 554 1400
3 1068 544 880
3 1234 1659 1218
3 1361 733 104
3 558 973 1314
3 423 1460 1059
3 1701 1217 512
3 1715 784 1010
3 304 1403 303
3 1398 1023 460
3 876 1331 451
3 376 1082 1683
3 715 421 1336
3 1525 1709 1509
3 1647 841 565
3 1749 48 49
3 1011 885 760
3 595 1103 1450
3 1237 500 1236
3 279 1641 1290
3 1549 870 1466
3 569 1526 638
3 812 1419 394
3 317 1423 767
3 1267 986 364
3 1396 400 1680
3 1013 1347 504
3 568 1550 1549
3 1578 1311 746
3 1530 810 693
3 1225 781 539
3 1611 749 1055
3 1039 465 1574
3 634 1087 1205
3 612 1018 1243
3 837 749 1809
3 596 979 980
3 1079 470 1730
3 1608 473 732
3 1587 1622 578
3 1215 797 1717
3 396 1607 801
3 679 1567 1252
3 1778 1361 577
3 353 1646 1213
3 995 1582 457
3 1093 844 746
3 1584 611 1054
3 1613 605 1499
3 332 1573 1069
3 1606 1252 1567
3 1339 869 429
3 1353 524 714
3 1100 672 1746
3 1417 1456 813
3 883 569 638
3 1398 576 1023
3 390 1304 1784
3 1448 1400 554
3 1410 1687 132
3 742 1446 551
3 1605 433 805
3 815 1518 371
3 659 1672 1796
3 1445 1257 339
3 619 1737 1351
3 1763 1426 615
3 1661 649 670
3 1351 1763 619
3 1500 413 1089
3 1089 475 748
3 1385 1014 574
3 403 1246 694
3 1558 605 1040
3 1543 972 458
3 1810 464 713
3 601 877 1625
3 423 1039 1575
3 750 1627 1570
3 1383 1195 355
3 381 1567 1002
3 459 1344 683
3 1301 1411 328
3 693 1405 1530
3 1032 277 278
3 1544 581 1424
3 991 595 1745
3 1531 768 1487
3 543 1261 728
3 1533 436 841
3 1035 1760 460
3 1531 1239 332
3 1382 775 399
3 1451 902 567
3 327 980 1664
3 1367 363 669
3 544 1314 973
3 1070 1388 397
3 1218 1426 386
3 978 582 1560
3 1236 327 1003
3 1591 1339 643
3 1590 81 82
3 610 786 1488
3 528 981 773
3 451 1331 1744
3 54 846 652
3 1548 1537 572
3 799 649 1661
3 1635 857 398
3 552 1260 727
3 394 1284 632
3 1373 365 1780
3 721 1298 1677
3 404 1782 685
3 673 1259 416
3 327 1036 980
3 1574 465 1385
3 1643 431 1642
3 724 1376 434
3 1464 305 1012
3 619 1707 1737
3 1510 881 620
3 1770 1727 776
3 331 1727 1770
3 493 1214 1216
3 819 437 723
3 1477 507 1194
3 751 1387 416
3 693 1629 1104
3 1495 810 817
3 390 1784 1448
3 636 1774 1305
3 1448 1325 390
3 636 1775 1774
3 1244 1727 331
3 1346 354 822
3 874 1408 1194
3 1589 1685 471
3 711 1442 352
3 753 1298 1283
3 1036 596 980
3 1810 629 1008
3 1051 1758 422
3 1110 631 357
3 1052 1656 889
3 1204 1025 604
3 1473 1083 472
3 1522 349 729
3 865 1691 570
3 319 793 1095
3 1586 141 1534
3 1477 607 1195
3 1080 1730 470
3 1080 647 357
3 1797 469 1204
3 773 1231 528
3 1487 558 1531
3 1314 1240 558
3 1686 761 570
3 1343 1216 670
3 1642 639 1643
3 1310 72 1633
3 1325 545 1785
3 1077 1775 482
3 872 1672 1716
3 754 1673 418
3 1365 704 525
3 1433 1189 378
3 1378 410 1395
3 1291 419 1654
3 1030 834 463
3 1528 534 798
3 1597 1753 640
3 127 1532 1305
3 808 1720 1719
3 632 1284 1814
3 1743 1775 636
3 338 630 1407
3 92 648 91
3 584 1102 1377
3 1472 1663 414
3 386 1234 1218
3 1708 1494 776
3 539 1240 836
3 854 557 1475
3 1055 348 790
3 1440 55 56
3 856 999 328
3 316 1555 1250
3 1583 1065 682
3 816 1459 326
3 873 1454 341
3 1553 286 1413
3 1230 1614 1184
3 1089 1676 696
3 1244 1264 495
3 1779 404 1502
3 1795 284 1585
3 1559 658 1312
3 890 101 732
3 1520 1027 97
3 1316 513 977
3 899 553 1469
3 1783 551 1258
3 504 703 1220
3 411 666 1444
3 1685 1614 333
3 662 1511 1261
3 1333 343 1714
3 1185 806 984
3 899 1469 891
3 1649 442 1535
3 83 789 82
3 376 1056 1489
3 1670 76 77
3 1417 419 756
3 407 710 1446
3 1190 1086 540
3 1704 812 901
3 1364 1552 525
3 709 363 1367
3 522 1258 800
3 1518 1075 686
3 1374 1626 818
3 1508 791 450
3 1013 504 689
3 1461 1044 986
3 1210 1617 599
3 1605 1098 571
3 1254 1187 321
3 1095 793 533
3 1320 1319 537
3 1616 1465 1054
3 49 1748 1749
3 734 1369 432
3 877 1640 1620
3 465 1048 1047
3 1457 85 1808
3 854 1600 1800
3 1654 1713 879
3 381 1002 1073
3 1290 555 1032
3 1536 595 991
3 747 302 303
3 1573 332 1435
3 1337 1786 621
3 800 1577 577
3 504 1347 1219
3 869 757 1668
3 1433 706 552
3 1628 1352 857
3 1332 714 481
3 1216 1214 650
3 592 1563 1714
3 1413 819 723
3 1111 480 1110
3 1736 1636 425
3 1363 705 525
3 1452 1449 628
3 877 1620 1619
3 671 1192 1699
3 1673 832 418
3 1366 1367 526
3 1021 400 1396
3 1576 377 1706
3 1068 377 1314
3 1680 606 1037
3 871 526 1483
3 1311 506 746
3 819 287 288
3 1668 757 1713
3 1088 1670 516
3 494 1055 1376
3 491 1223 837
3 1638 1109 627
3 593 881 1317
3 722 1342 1411
3 1694 1558 1010
3 1566 389 657
3 1408 591 1233
3 794 428 1287
3 1547 828 1431
3 1028 1675 656
3 571 1762 1546
3 1699 1186 361
3 376 898 1481
3 429 869 1668
3 533 1556 1094
3 1635 1628 857
3 1439 1115 717
3 519 1328 755
3 445 1815 1801
3 1439 1332 481
3 363 1241 669
3 653 869 1339
3 774 831 468
3 426 1217 1701
3 581 1003 1664
3 796 538 1287
3 1402 1099 370
3 1364 704 360
3 515 993 710
3 1731 635 1368
3 814 1052 515
3 1509 738 1423
3 860 1612 563
3 701 1719 1720
3 1574 1385 574
3 1023 576 1440
3 974 1768 365
3 1065 402 682
3 1066 708 322
3 1670 1512 788
3 727 1229 1246
3 486 832 1673
3 1438 485 897
3 1445 1356 742
3 871 1483 1603
3 1329 996 351
3 1485 561 1761
3 1814 1038 632
3 411 1081 666
3 1061 1777 466
3 609 762 1507
3 1424 581 1664
3 1422 1467 538
3 1344 318 1295
3 1297 1619 582
3 1383 743 508
3 698 523 1350
3 1015 790 1016
3 1748 1309 1747
3 860 716 462
3 1389 597 1308
3 1246 1229 489
3 584 1377 1378
3 1618 694 1246
3 884 1736 425
3 764 1511 1622
3 1261 399 728
3 677 1581 359
3 1738 766 1701
3 1372 593 1317
3 1675 1311 354
3 1638 438 1493
3 1184 1615 384
3 659 393 1115
3 339 1257 664
3 1467 1091 316
3 522 1474 1257
3 982 382 1697
3 734 1437 1369
3 1222 1790 680
3 1710 1616 325
3 1426 1771 615
3 151 1375 150
3 483 1010 784
3 1525 883 1709
3 772 1492 1715
3 1301 1698 722
3 1297 978 342
3 1317 881 1510
3 1642 431 1478
3 65 66 1751
3 542 1508 811
3 374 1389 1308
3 1579 319 771
3 1482 1066 467
3 1569 337 1205
3 389 842 657
3 1414 1379 642
3 1692 711 839
3 1787 583 1020
3 1458 1592 396
3 1452 1300 382
3 573 1502 1503
3 896 351 735
3 1564 1610 895
3 685 1678 404
3 593 1372 1486
3 652 435 1255
3 1411 1342 541
3 1348 530 1084
3 1643 1751 1599
3 1450 1187 595
3 1323 336 753
3 1767 1209 1091
3 1003 1543 458
3 1315 896 735
3 1346 1264 696
3 1722 418 1517
3 1664 1003 327
3 1514 1344 459
3 406 1316 1655
3 1048 465 1039
3 585 1653 1654
3 1251 1689 535
3 1101 96 1027
3 1230 685 1782
3 1486 1372 853
3 1303 1507 677
3 854 329 1682
3 1712 451 1744
3 327 713 1036
3 451 1712 1492
3 1092 1721 1067
3 485 1481 898
3 1427 861 450
3 1041 1582 995
3 365 1802 1780
3 1345 471 866
3 775 1614 1685
3 1670 788 516
3 1812 1813 678
3 1790 1222 501
3 1642 1478 741
3 1373 500 974
3 989 737 417
3 1797 1204 624
3 1410 1455 604
3 1412 880 544
3 1327 821 547
3 1441 383 987
3 1649 1488 891
3 319 1321 793
3 1371 433 829
3 500 1781 1236
3 761 1722 570
3 1227 556 1228
3 1634 1019 1425
3 1812 1811 897
3 777 450 791
3 1314 377 1240
3 137 1384 136
3 691 1357 408
3 844 1578 746
3 492 1050 783
3 783 715 440
3 1229 334 1414
3 421 715 677
3 1460 675 1059
3 1054 325 1616
3 893 553 1468
3 1579 1429 319
3 476 768 1069
3 1615 764 1587
3 690 1357 1356
3 1078 732 102
3 1643 639 1751
3 1248 759 861
3 654 1451 567
3 713 1781 1810
3 1008 464 1810
3 501 1768 1790
3 899 891 631
3 782 635 1732
3 1222 351 996
3 1594 1596 787
3 1739 81 1590
3 516 788 1516
3 71 777 70
3 744 1444 1112
3 1809 750 1789
3 1748 651 1749
3 1266 894 1286
3 861 367 1248
3 1453 887 532
3 665 79 1739
3 430 1497 1075
3 320 1551 1503
3 1724 1406 387
3 1359 700 362
3 1387 751 518
3 717 859 346
3 674 1114 1667
3 445 1313 1815
3 342 688 1297
3 1718 893 690
3 316 1091 751
3 383 1199 987
3 1755 1405 693
3 1459 559 1197
3 1447 804 424
3 1332 1353 714
3 1497 430 1020
3 990 1306 1380
3 637 1071 476
3 395 803 1401
3 1730 1080 786
3 1095 771 319
3 1410 604 1687
3 804 769 424
3 1387 752 1360
3 829 412 699
3 507 1195 1206
3 1073 1002 521
3 1485 1761 1249
3 1792 1012 452
3 1481 1056 376
3 323 1807 1669
3 71 1310 777
3 850 439 718
3 1413 286 287
3 1216 392 670
3 486 1695 1092
3 504 1688 703
3 1524 754 418
3 1684 594 1631
3 755 1328 455
3 985 479 1461
3 1009 532 886
3 1783 522 1257
3 1357 527 1356
3 1333 1714 801
3 801 1563 396
3 1233 546 818
3 1501 868 414
3 870 575 1466
3 1351 1234 386
3 1553 285 286
3 731 1006 441
3 825 723 438
3 792 359 1266
3 715 783 1581
3 1706 377 1068
3 112 1318 1060
3 810 437 693
3 438 1638 825
3 493 1215 1717
3 124 848 123
3 1086 93 900
3 1190 648 1086
3 355 1195 607
3 601 1625 1381
3 1222 996 1221
3 1617 383 1441
3 1632 1389 374
3 1092 841 436
3 1094 1289 477
3 451 1492 772
3 1556 533 1037
3 829 1431 1063
3 1359 1209 700
3 1211 499 830
3 1394 90 1000
3 762 609 1457
3 1539 1807 678
3 1484 561 976
3 1608 446 1656
3 1094 370 1289
3 538 1250 1287
3 1267 755 986
3 835 445 834
3 1022 1540 556
3 745 1345 388
3 1007 142 143
3 1809 1627 750
3 1106 312 725
3 1795 627 1416
3 1587 875 384
3 1292 364 672
3 1506 565 1695
3 1057 759 488
3 985 697 328
3 1509 989 738
3 65 1061 64
3 1218 592 731
3 866 471 1685
3 1385 329 1014
3 1192 421 1545
3 747 1436 302
3 739 413 1500
3 1719 701 1703
3 667 900 1674
3 55 846 54
3 1398 1764 1034
3 637 476 855
3 624 1705 1797
3 1327 1326 545
3 644 1202 1767
3 1594 1692 586
3 1251 535 1000
3 1691 865 340
3 324 887 1453
3 1582 1097 457
3 1349 851 530
3 1610 420 1247
3 1049 1788 725
3 1728 623 1263
3 881 1247 420
3 1008 629 1726
3 605 1046 1499
3 1043 589 873
3 1198 700 1063
3 1422 538 1030
3 1096 530 1348
3 324 1083 1491
3 1332 1439 682
3 373 1588 1544
3 529 858 1335
3 1258 1386 375
3 889 446 1778
3 1802 760 461
3 1562 843 431
3 720 564 1490
3 901 632 344
3 889 1656 446
3 1294 1591 410
3 1349 852 307
3 436 1721 1092
3 1191 1769 114
3 1305 1774 126
3 1370 1602 368
3 1370 1100 1746
3 1587 578 875
3 1341 1758 771
3 1580 994 766
3 1308 1026 374
3 1256 1755 385
3 731 1771 1426
3 642 1757 1414
3 1618 1246 489
3 1585 285 825
3 1350 1042 281
3 833 1043 341
3 834 358 835
3 1432 1226 1190
3 473 1608 859
3 805 660 580
3 1531 1069 768
3 1537 292 1443
3 634 337 1203
3 634 1203 1607
3 1240 377 836
3 1536 372 1046
3 1673 1554 486
3 1724 1571 798
3 1499 372 979
3 775 1685 1589
3 319 1429 1321
3 888 887 324
3 659 1115 481
3 139 1105 662
3 1782 333 1230
3 447 992 1742
3 999 985 328
3 1059 729 423
3 1475 1600 854
3 672 1529 1292
3 501 1756 1768
3 1414 334 1379
3 1027 1480 537
3 1492 856 541
3 614 1409 1669
3 1058 774 492
3 789 83 1515
3 1457 1808 762
3 1674 95 1101
3 812 394 632
3 440 1336 671
3 1196 1474 1657
3 1540 1228 556
3 1446 993 551
3 100 1559 99
3 664 1650 1535
3 1285 395 899
3 1577 800 375
3 587 1753 1527
3 1774 125 126
3 1321 511 793
3 715 1336 440
3 1739 80 81
3 1464 1792 676
3 748 475 1256
3 1509 1423 317
3 1397 369 1334
3 808 1696 1242
3 1067 352 832
3 1561 344 765
3 443 1813 1812
3 855 400 637
3 1434 1074 393
3 422 1758 1341
3 1260 884 1766
3 694 1689 1251
3 1473 1082 1489
3 1572 519 795
3 1283 673 416
3 1161 904 271
3 933 312 311
3 1131 307 306
3 1177 301 300
3 312 1133 313
3 304 1144 905
3 1144 304 303
3 934 269 1164
3 965 300 299
3 1179 907 259
3 907 258 259
3 908 293 292
3 1145 252 253
3 1269 291 290
3 931 279 278
3 918 295 1270
3 911 284 283
3 245 911 244
3 1148 283 282
3 1148 1274 243
3 1150 232 233
3 237 913 236
3 1149 236 913
3 1149 235 236
3 1146 251 955
3 915 227 228
3 920 213 214
3 917 220 1153
3 223 1157 222
3 221 1153 220
3 255 1270 1141
3 1145 292 291
3 1157 262 261
3 215 1154 1268
3 919 255 1154
3 1268 254 253
3 1171 210 211
3 1272 218 1151
3 1175 923 202
3 1176 243 959
3 1140 209 921
3 1138 207 922
3 190 1129 189
3 237 236 924
3 937 190 191
3 43 924 198
3 1277 232 1150
3 926 270 269
3 1146 212 213
3 1116 265 971
3 1180 184 967
3 183 928 182
3 1130 945 163
3 168 929 167
3 162 1169 161
3 1130 202 945
3 1135 278 277
3 912 241 242
3 198 197 1143
3 198 1143 41
3 965 261 1177
3 1164 309 308
3 301 1177 906
3 1164 308 934
3 925 196 1156
3 232 1276 233
3 195 1132 196
3 33 1165 32
3 237 924 43
3 937 230 229
3 1271 12 13
3 946 168 1170
3 959 203 204
3 939 205 206
3 159 942 160
3 940 162 1166
3 1167 240 239
3 199 200 941
3 6 1160 944
3 160 942 161
3 157 943 199
3 199 943 200
3 1160 938 166
3 944 5 6
3 945 202 201
3 945 201 1169
3 1147 10 11
3 1147 169 946
3 1126 15 16
3 8 1170 938
3 1124 212 211
3 952 213 212
3 949 36 1132
3 1182 188 970
3 937 1129 190
3 950 228 227
3 1165 192 191
3 1275 191 190
3 954 1124 211
3 173 952 1124
3 175 1126 947
3 944 1160 165
3 948 214 1128
3 211 210 954
3 922 208 1140
3 955 250 1171
3 1170 8 9
3 956 12 1271
3 930 203 1130
3 160 943 157
3 910 246 247
3 1123 249 250
3 1175 202 203
3 242 959 243
3 1119 21 22
3 964 1119 22
3 1159 220 1282
3 178 961 177
3 1121 20 962
3 960 178 177
3 928 183 1180
3 963 1120 179
3 1121 19 20
3 23 964 22
3 1152 907 297
3 1152 257 258
3 936 193 192
3 968 185 1181
3 1158 225 224
3 224 223 967
3 1181 26 968
3 968 186 185
3 227 1117 950
3 187 969 186
3 29 970 28
3 968 26 27
3 223 916 1157
3 1178 263 916
3 1335 1016 618
3 1738 512 867
3 1330 1060 587
3 133 134 1463
3 807 491 837
3 1008 1726 417
3 1350 523 1042
3 1184 1614 602
3 1235 63 64
3 1471 1719 347
3 1488 786 1080
3 398 1033 683
3 1369 1437 548
3 837 1223 348
3 1381 1625 853
3 629 1810 1781
3 1702 974 500
3 676 1792 1315
3 1753 1597 391
3 1060 1330 1729
3 1733 505 1253
3 670 649 1662
3 343 1479 1714
3 1007 143 984
3 1549 838 1355
3 1105 140 1586
3 585 879 1655
3 1517 865 1722
3 1555 599 1250
3 1542 641 1541
3 1074 473 717
3 1300 1103 483
3 892 1718 690
3 873 1623 422
3 763 1744 1602
3 1521 351 680
3 1805 1032 1375
3 1208 1639 389
3 1625 1619 448
3 1610 1247 895
3 1349 307 308
3 452 896 1792
3 1079 635 1731
3 1078 102 103
3 1249 617 1035
3 350 1034 1580
3 628 1103 1300
3 695 1780 1802
3 562 457 996
3 1012 305 306
3 578 1622 1586
3 1042 1641 280
3 1788 1015 725
3 998 724 1711
3 1081 472 666
3 1794 1245 1299
3 89 90 1394
3 1000 90 91
3 1343 1323 517
3 1259 498 1212
3 1496 333 1782
3 1351 546 1234
3 596 1036 1613
3 979 1741 1740
3 786 610 1650
3 556 1191 1022
3 1026 1764 1760
3 372 1536 991
3 1637 353 1211
3 1028 506 1311
3 277 1805 152
3 1375 151 1805
3 483 1694 1010
3 680 1702 1237
3 1699 361 671
3 1112 532 1009
3 1362 464 1008
3 419 1713 1654
3 1236 713 327
3 300 1381 299
3 1335 453 1016
3 1300 784 382
3 1461 479 1746
3 1386 515 1052
3 586 840 1596
3 779 1393 566
3 1335 1334 529
3 1334 369 1084
3 1747 1309 724
3 1749 651 1750
3 1296 398 683
3 708 1366 1415
3 1208 1498 523
3 1024 413 730
3 589 1623 873
3 558 1487 973
3 1203 1806 657
3 1728 868 623
3 446 733 1778
3 1326 1228 380
3 1785 1326 1076
3 116 1658 1022
3 1522 466 1777
3 65 1751 1061
3 420 656 1593
3 776 1727 1501
3 681 1455 1410
3 635 1079 1730
3 1612 1200 563
3 1580 1034 603
3 1189 1319 378
3 1796 1672 478
3 752 517 1360
3 748 1500 1089
3 1791 1315 432
3 1717 797 1188
3 1765 358 1030
3 1021 793 511
3 1655 879 406
3 459 1033 862
3 1203 337 1806
3 1002 598 743
3 1291 1653 514
3 489 1112 1009
3 1701 766 426
3 1393 1011 1465
3 1738 1580 766
3 882 1570 1470
3 529 1334 1084
3 1300 483 784
3 1762 571 1099
3 375 889 1577
3 1595 436 840
3 1100 368 1686
3 1067 832 486
3 1460 423 976
3 485 1242 1696
3 1010 1558 345
3 725 312 313
3 1049 725 313
3 1466 679 1252
3 355 1340 1383
3 770 691 408
3 527 1621 742
3 411 1541 1081
3 570 1529 1100
3 1101 667 1674
3 363 691 1645
3 345 876 772
3 1560 826 444
3 787 329 1385
3 860 349 716
3 63 675 62
3 994 1600 426
3 1789 867 863
3 1023 57 1752
3 87 1193 824
3 1302 1636 1736
3 1815 1313 669
3 371 1214 1188
3 1224 714 335
3 710 1482 1652
3 127 1305 126
3 130 1025 1598
3 1014 329 1800
3 565 1092 1695
3 311 1106 858
3 1049 314 1750
3 614 849 1772
3 749 837 348
3 427 1303 792
3 1428 549 831
3 421 762 1545
3 831 549 820
3 542 1324 1799
3 1807 323 1811
3 1330 1527 647
3 1077 124 125
3 69 1799 68
3 894 774 468
3 842 389 1109
3 799 1374 1737
3 1241 1815 669
3 1343 670 1323
3 733 103 104
3 1396 1680 1037
3 659 481 1224
3 1758 1579 771
3 1302 613 872
3 358 1765 1265
3 1041 707 1582
3 1335 858 453
3 579 1062 1420
3 558 1240 1239
3 1658 116 117
3 802 1679 554
3 539 781 1239
3 1108 1384 137
3 401 1732 1650
3 1706 1068 543
3 1402 560 1565
3 1021 769 400
3 1458 1659 591
3 838 456 1671
3 1753 587 1318
3 479 1370 1746
3 1099 1565 510
3 496 1262 1198
3 1448 1784 645
3 511 1322 1021
3 588 1425 1784
3 1305 1532 1304
3 890 100 101
3 692 1468 1429
3 401 1650 1474
3 782 1368 635
3 1021 1322 769
3 424 802 1447
3 1704 1339 429
3 659 1796 393
3 443 1814 1813
3 552 1226 1432
3 1251 1000 1665
3 898 1683 1651
3 586 1596 1594
3 54 652 53
3 1647 885 366
3 62 675 1085
3 537 1480 1320
3 667 1101 537
3 723 437 1495
3 1568 1205 508
3 1644 665 1648
3 820 1633 1523
3 1263 495 1733
3 1244 331 1090
3 448 1486 853
3 739 1537 1443
3 1187 1254 844
3 798 1571 1528
3 989 1725 738
3 597 994 1308
3 1588 1543 581
3 830 1199 383
3 1076 380 773
3 1496 866 333
3 1637 498 1259
3 704 1365 1690
3 1789 863 454
3 1600 1475 426
3 1222 1221 501
3 1789 454 1809
3 1429 780 1321
3 1210 498 830
3 763 999 1712
3 1254 505 844
3 569 883 1525
3 1668 813 429
3 683 1295 1296
3 378 1734 1433
3 1561 901 344
3 633 1716 1628
3 1653 1292 514
3 1212 316 751
3 663 1042 1207
3 1207 523 1498
3 1806 337 1062
3 1511 764 1382
3 1640 601 1624
3 454 837 1809
3 1202 699 412
3 405 1391 1690
3 1671 456 1252
3 1108 662 1261
3 1185 984 144
3 698 1639 1208
3 1228 547 1227
3 891 357 631
3 128 1072 1532
3 536 1666 1399
3 765 1631 1081
3 1067 839 352
3 726 425 1636
3 402 702 1353
3 1051 691 770
3 410 1377 1294
3 658 473 1074
3 1666 800 577
3 914 233 234
3 971 264 1178
3 967 185 1158
3 950 1117 188
3 25 1181 966
3 19 1121 960
3 1121 178 960
3 1127 18 960
3 952 173 174
3 952 212 1124
3 962 20 21
3 962 179 1121
3 1120 218 217
3 948 215 214
3 958 249 1123
3 1141 293 908
3 961 217 216
3 1122 215 948
3 1271 13 1125
3 1127 17 18
3 175 947 176
3 1126 175 174
3 1119 962 21
3 24 966 1118
3 1159 182 928
3 952 174 1128
3 188 1117 187
3 1163 231 230
3 209 1173 210
3 1172 169 957
3 267 1279 266
3 903 313 1133
3 932 196 1132
3 1132 37 932
3 903 274 275
3 904 310 309
3 1134 280 279
3 247 1174 910
3 240 931 239
3 281 912 1274
3 166 1273 165
3 957 170 1173
3 1280 228 229
3 1277 270 926
3 241 923 1175
3 207 1138 206
3 931 240 1134
3 1139 246 910
3 247 922 1140
3 1171 250 249
3 1179 260 965
3 909 289 1123
3 47 1142 276
3 311 1161 933
3 1143 932 38
3 949 195 194
3 1281 264 1144
3 1142 314 903
3 911 245 1139
3 1269 290 909
3 955 251 250
3 916 223 224
3 1125 14 953
3 946 169 168
3 282 1274 1148
3 1139 284 911
3 276 913 45
3 1150 271 1277
3 233 914 1150
3 274 1278 1149
3 917 258 1151
3 224 1178 916
3 1152 296 918
3 1281 263 264
3 1272 257 256
3 917 259 258
3 1146 213 920
3 1178 224 225
3 226 1117 227
3 191 1163 937
3 1156 196 197
3 1129 950 189
3 1157 927 222
3 920 252 1146
3 1163 192 935
3 935 192 193
3 180 1282 963
3 1282 219 963
3 1160 166 165
3 944 165 164
3 272 1161 271
3 1177 262 906
3 1165 33 936
3 1275 32 1165
3 1156 197 924
3 228 950 1129
3 1133 312 933
3 271 904 270
3 1118 966 183
3 932 37 38
3 3 1166 2
3 1168 5 944
3 941 200 1167
3 1167 200 201
3 938 7 8
3 940 4 1168
3 1169 201 200
3 164 1130 163
3 10 946 9
3 1160 6 7
3 212 955 211
3 1171 211 955
3 957 208 1172
3 1130 203 202
3 1172 208 207
3 957 209 208
3 1174 248 958
3 1270 256 918
3 242 1175 959
3 1175 242 241
3 1176 204 205
3 1171 249 921
3 1177 300 965
3 310 904 1161
3 1157 261 927
3 1178 264 263
3 298 907 1179
3 1145 1269 252
3 1180 223 222
3 948 176 1122
3 34 1162 936
3 964 182 181
3 970 188 187
3 951 30 31
3 1183 28 970
3 966 24 25
3 1288 355 997
3 1194 320 758
3 1383 1340 743
3 539 745 1225
3 857 684 398
3 1481 646 1056
3 581 1543 1003
3 1638 627 1585
3 1678 685 607
3 674 531 1391
3 519 1031 795
3 887 440 886
3 1796 478 1017
3 1320 1735 1045
3 1022 1191 115
3 1325 1785 864
3 367 831 774
3 759 1248 488
3 549 1427 777
3 72 73 1633
3 1771 1001 615
3 1501 623 868
3 1494 1763 615
3 1502 686 1779
3 1078 103 733
3 1445 339 1356
3 1573 1681 606
3 1198 1063 496
3 1573 855 1069
3 1605 805 580
3 722 1697 1342
3 428 1572 795
3 614 1539 849
3 1721 839 1067
3 1030 358 834
3 1014 1800 597
3 1572 1441 519
3 1241 1645 589
3 1534 875 578
3 1340 521 1002
3 780 511 1321
3 1239 1240 539
3 600 1606 806
3 1659 592 1218
3 1622 1105 1586
3 1549 1355 568
3 764 1622 1587
3 1408 1233 320
3 592 1659 1563
3 449 1333 801
3 815 1459 816
3 1411 1301 722
3 1099 1098 370
3 1387 1359 752
3 1662 1323 670
3 1525 1509 317
3 1187 844 447
3 1107 621 816
3 416 1259 751
3 753 336 1298
3 1767 412 1209
3 873 422 660
3 1371 805 433
3 1803 1551 650
3 1195 1383 1206
3 497 673 1283
3 1742 608 1741
3 998 53 652
3 1018 290 1548
3 1494 1708 619
3 1539 1284 394
3 655 1496 1782
3 513 1338 1031
3 1734 613 1736
3 1560 582 826
3 1331 484 883
3 617 1761 1759
3 760 1660 502
3 460 1760 1764
3 51 1309 50
3 1482 710 708
3 1636 1635 726
3 1479 731 592
3 1028 656 420
3 1000 648 1665
3 1302 633 1636
3 1455 397 1388
3 981 528 1004
3 1769 113 114
3 1775 1743 864
3 1665 648 1190
3 1514 406 668
3 1404 145 146
3 139 662 138
3 1598 129 130
3 1231 1053 528
3 680 1237 1521
3 1369 1791 432
3 1585 284 285
3 381 1606 1567
3 1548 291 1537
3 656 1675 1676
3 1562 542 843
3 323 1438 1811
3 1237 1236 1003
3 1521 458 735
3 307 852 306
3 458 1237 1003
3 575 870 1420
3 1568 508 743
3 1435 1681 1573
3 131 1025 130
3 1020 583 1497
3 1502 1678 758
3 545 1326 1785
3 1531 558 1239
3 888 783 440
3 557 1476 779
3 826 1620 1544
3 1629 819 612
3 546 1737 1374
3 287 819 1413
3 513 755 1267
3 326 1546 1107
3 1601 1539 394
3 1766 1538 584
3 385 748 1256
3 321 1723 1254
3 69 791 1799
3 1302 872 1716
3 1580 1738 350
3 617 1759 1760
3 658 890 473
3 1262 496 1197
3 393 1017 1434
3 1665 1190 403
3 1641 663 1290
3 1205 1087 508
3 1452 982 567
3 1676 1024 656
3 1712 999 856
3 881 1593 620
3 530 852 1349
3 529 851 1307
3 730 620 1024
3 1232 300 301
3 1079 110 1729
3 803 802 424
3 124 1077 848
3 786 1732 1730
3 1391 1754 703
3 1564 1093 506
3 540 900 667
3 1319 1189 667
3 1534 141 142
3 507 1477 1195
3 1258 375 800
3 1337 823 388
3 572 385 1243
3 1755 626 1405
3 1243 1548 572
3 1626 650 1551
3 1265 1667 358
3 1210 1555 498
3 1515 84 1457
3 1581 783 1050
3 1765 1030 538
3 1591 1294 653
3 1268 214 215
3 1140 248 247
3 908 1145 253
3 285 1139 910
3 1281 302 906
3 1179 299 298
3 944 164 1168
3 11 956 1147
3 1151 257 1272
3 1146 252 251
3 1273 205 204
3 1136 167 929
3 1274 912 242
3 238 1135 153
3 32 1275 31
3 1118 23 24
3 1155 195 925
3 1117 969 187
3 1277 271 270
3 915 266 1116
3 1137 230 926
3 1278 273 914
3 1131 306 1279
3 1179 259 260
3 1280 915 228
3 226 1116 971
3 1281 303 302
3 1152 297 296
3 1282 220 219
3 1122 177 961
3 1530 441 1006
3 1524 1526 569
3 811 347 1703
3 791 69 70
3 1425 1019 645
3 1407 630 1285
3 1193 88 845
3 1324 68 1799
3 1441 987 1328
3 1299 497 1298
3 1787 1345 583
3 975 337 1569
3 1298 336 1677
3 833 463 834
3 279 1290 278
3 975 598 679
3 755 1031 519
3 1391 405 674
3 1295 503 1296
3 1513 410 1591
3 1489 1082 376
3 869 318 757
3 1514 459 1347
3 641 1395 1513
3 796 1765 538
3 1112 489 744
3 1490 1248 720
3 322 705 1363
3 1745 1187 447
3 1315 1792 896
3 1557 1202 463
3 341 1454 1371
3 1197 496 828
3 1265 1392 531
3 1245 353 673
3 1424 980 444
3 1449 567 1776
3 1362 345 1040
3 1628 335 1352
3 94 900 93
3 1303 677 792
3 831 367 1428
3 116 1022 115
3 624 1070 1798
3 1621 1446 742
3 1425 645 1784
3 600 806 1185
3 149 990 1380
3 1012 852 452
3 1307 858 529
3 1201 711 409
3 561 1460 976
3 348 1223 1016
3 1348 995 562
3 809 564 720
3 1562 1324 542
3 730 1604 620
3 505 822 1578
3 1353 1332 402
3 884 425 1538
3 551 1445 742
3 733 446 1078
3 356 1071 804
3 1681 847 606
3 548 747 1369
3 1560 1740 978
3 1557 833 341
3 1441 1328 519
3 1503 1551 573
3 448 1619 1297
3 1327 988 338
3 1318 112 113
3 1538 1102 584
3 527 742 1356
3 1541 641 765
3 552 1432 1433
3 422 1341 660
3 1454 805 1371
3 864 1785 482
3 848 981 123
3 1708 1501 414
3 518 1209 1359
3 1811 1438 897
3 324 1491 809
3 625 1022 1658
3 1532 127 128
3 893 1468 408
3 480 631 1110
3 1070 624 1388
3 1401 1322 511
3 1339 1591 653
3 1451 415 902
3 576 882 1470
3 867 512 863
3 1388 624 1204
3 122 1004 121
3 695 1802 461
3 1370 368 1100
3 1434 590 1312
3 732 1078 1608
3 990 1375 555
3 1502 404 1678
3 1249 1761 617
3 676 1315 1791
3 1049 651 1788
3 1223 618 1016
3 398 684 1033
3 1286 468 778
3 681 1463 544
3 1327 545 988
3 335 1628 1716
3 1645 1051 1623
3 513 1267 977
3 1033 684 862
3 1091 1209 518
3 997 607 685
3 1365 405 1690
3 1608 1078 446
3 1517 418 718
3 1362 1008 417
3 1690 1391 703
3 1564 342 992
3 879 668 406
3 1316 406 689
3 681 397 1455
3 1798 1070 476
3 1773 294 295
3 1544 1424 826
3 702 402 1552
3 1754 531 1390
3 1348 562 1096
3 1255 998 652
3 453 1106 725
3 750 1570 882
3 1518 430 1075
3 1604 294 1773
3 1247 688 895
3 799 1663 649
3 1758 770 692
3 1220 703 1754
3 1189 1432 540
3 687 402 1065
3 884 1538 1766
3 1246 1226 727
3 1426 1218 731
3 817 810 343
3 1020 1786 1787
3 473 859 717
3 690 408 1357
3 802 338 1679
3 1199 830 499
3 794 1287 599
3 1095 1094 477
3 815 430 1518
3 655 1497 1496
3 1462 362 1215
3 1783 1257 1445
3 338 988 1679
3 1725 695 738
3 761 1526 1524
3 1798 1705 624
3 1353 702 524
3 1045 378 1319
3 1603 705 871
3 1102 425 726
3 1697 382 1342
3 640 1191 1597
3 1031 755 513
3 511 780 1401
3 1365 705 405
3 782 536 1505
3 577 1113 1666
3 461 760 885
3 1307 851 309
3 1044 672 364
3 1602 1370 763
3 821 1327 338
3 1546 1762 1107
3 992 608 1742
3 495 1263 1244
3 59 1249 1035
3 366 1476 1647
3 1504 573 1803
3 1322 803 424
3 627 1639 1416
3 278 1290 1032
3 1747 434 1788
3 1376 1055 790
3 1541 411 1542
3 1434 1017 590
3 1293 1418 756
3 689 1220 1338
3 429 812 1704
3 1654 879 585
3 568 1306 1550
3 1380 148 149
3 1544 1620 373
3 1521 1237 458
3 1576 471 836
3 493 1216 1343
3 1463 134 1412
3 1355 148 1380
3 138 662 1108
3 370 847 1402
3 1324 67 68
3 329 1596 1682
3 1111 1110 647
3 872 478 1672
3 992 342 608
3 363 1358 691
3 1505 108 1368
3 1487 768 397
3 512 1005 863
3 1720 716 701
3 1672 1224 335
3 1786 388 1787
3 584 1379 1766
3 1366 708 407
3 835 1667 474
3 330 1390 795
3 1768 1660 365
3 1440 1470 846
3 1226 1246 403
3 1189 540 667
3 462 1242 827
3 683 1033 459
3 560 1435 781
3 321 1776 1723
3 1533 1682 840
3 52 998 1711
3 1085 61 62
3 574 1632 1575
3 442 1649 891
3 1111 821 480
3 1025 1687 604
3 1658 1053 625
3 497 1283 1298
3 1402 847 560
3 1762 1099 510
3 1579 1758 692
3 1403 747 303
3 1247 881 593
3 1404 600 1185
3 1671 1404 838
3 1006 731 1479
3 1351 1737 546
3 1264 1346 495
3 1744 763 1712
3 1801 589 1043
3 1191 114 115
3 1243 385 1104
3 686 1502 1504
3 439 1772 849
3 712 860 563
3 131 132 1687
3 681 1410 1463
3 750 867 1789
3 1693 1267 364
3 685 1230 509
3 621 510 1337
3 1001 1405 626
3 283 1416 282
3 1377 1102 503
3 1513 1591 643
3 1064 346 814
3 328 697 1301
3 1416 698 1350
3 1443 292 293
3 711 1201 487
3 1572 428 794
3 689 504 1220
3 329 854 1800
3 1339 1704 643
3 427 792 1516
3 456 1466 1252
3 1495 438 723
3 111 1060 1729
3 1037 847 1556
3 498 1637 1211
3 580 1519 1289
3 725 1015 453
3 1744 638 1602
3 785 1768 1756
3 1329 1096 562
3 401 1196 782
3 1535 442 892
3 1494 615 776
3 1537 291 292
3 778 468 1523
3 1409 614 1772
3 549 1633 820
3 439 849 661
3 1396 793 1021
3 1197 828 326
3 1517 718 719
3 444 979 1740
3 1071 1798 476
3 1662 336 1323
3 706 1736 884
3 1088 76 1670
3 361 1618 1009
3 1050 774 894
3 708 1066 1482
3 442 891 1469
3 1225 388 823
3 356 1705 1071
3 1486 1247 593
3 1232 1381 300
3 1452 567 1449
3 1236 1781 713
3 738 695 461
3 1772 850 1409
3 1027 96 97
3 594 1038 1651
3 1034 882 1398
3 314 1049 313
3 1571 1724 622
3 1794 415 1451
3 888 440 887
3 845 1394 535
3 1405 1001 441
3 620 1604 1773
3 361 1186 1689
3 1200 1669 487
3 1621 1366 407
3 1066 1065 467
3 1583 467 1065
3 1115 393 1074
3 1068 1314 544
3 630 802 803
3 1069 1531 332
3 1305 1304 636
3 382 982 1452
3 1804 1770 1001
3 1804 331 1770
3 676 1791 1403
3 1693 1292 1653
3 1524 569 754
3 419 1291 756
3 1406 868 1728
3 1219 862 360
3 1699 1192 490
3 1333 449 736
3 1688 504 1219
3 804 1071 637
3 1421 391 1227
3 1219 704 1688
3 1057 646 1471
3 1692 1594 409
3 1379 334 1766
3 1806 1566 657
3 384 983 878
3 1107 510 621
3 1793 430 816
3 1336 421 1192
3 644 1467 1422
3 1360 517 753
3 1722 1524 418
3 1794 1451 654
3 696 1675 1346
3 1384 880 136
3 806 1073 520
3 1664 980 1424
3 1464 304 305
3 1464 1403 304
3 486 1092 1067
3 1355 1380 568
3 343 736 817
3 1043 873 341
3 1107 816 326
3 1645 691 1051
3 1462 1343 517
3 1783 1258 522
3 400 769 637
3 1475 779 1217
3 1611 1055 1255
3 1594 1047 409
3 1489 564 1473
3 1406 534 868
3 1495 437 810
3 1433 1432 1189
3 1684 1038 594
3 1577 1778 577
3 709 1358 363
3 1393 779 366
3 1308 994 603
3 1807 1539 614
3 426 1475 1217
3 1087 634 396
3 355 607 997
3 87 824 86
3 1508 1799 791
3 1550 1306 1238
3 1188 1214 1717
3 1513 1395 410
3 1736 706 1734
3 1248 367 720
3 707 1041 491
3 1801 1043 445
3 1415 526 871
3 1801 1241 589
3 1597 556 1227
3 1642 1777 639
3 808 1242 1720
3 1522 1777 741
3 811 759 347
3 1588 972 1543
3 1424 444 826
3 1677 336 1029
3 1105 1511 662
3 1527 391 1111
3 893 408 690
3 665 78 79
3 564 1491 1473
3 488 646 1057
3 701 843 1703
3 1303 1700 609
3 1648 665 1590
3 616 1697 1698
3 351 1521 735
3 1184 384 878
3 819 1630 612
3 1663 1707 414
3 1763 1351 386
3 1238 1306 555
3 1001 1771 441
3 1671 600 1404
3 1511 399 1261
3 1244 1090 1264
3 1194 1408 320
3 1639 1109 389
3 1569 598 975
3 1465 502 1054
3 996 1329 562
3 748 385 572
3 1553 723 825
3 507 1206 1592
3 799 1707 1663
3 589 1645 1623
3 1504 1502 573
3 299 853 298
3 1089 1264 475
3 1786 1337 388
3 670 392 1661
3 1474 1650 664
3 1535 610 1649
3 1637 673 353
3 1647 1476 841
3 1302 1736 613
3 1516 1266 516
3 1491 1083 1473
3 661 849 1601
3 1691 1293 1529
3 1756 1221 611
3 572 1537 739
3 437 819 1629
3 1384 543 880
3 1615 1382 764
3 1186 490 845
3 80 1739 79
3 879 1713 668
3 1344 1295 683
3 985 1461 455
3 403 1190 1226
3 1112 1444 532
3 887 886 532
3 72 1310 71
3 1444 744 411
3 1229 1414 744
3 754 1554 1673
3 874 1592 1458
3 1202 1557 699
3 553 1609 780
3 780 1609 1401
3 1621 527 709
3 97 98 1520
3 737 1362 417
3 1748 50 1309
3 1465 566 1393
3 603 1034 1764
3 1088 778 75
3 1507 421 677
3 661 1601 550
3 1542 1395 641
3 352 1442 850
3 1213 1211 353
3 1418 661 550
3 1715 541 784
3 1448 988 1325
3 625 1231 1540
3 1371 829 699
3 447 1742 1745
3 1456 1417 550
3 661 719 439
3 1593 1024 620
3 1420 1498 579
3 1072 128 129
3 1029 336 1662
3 1077 125 1774
3 113 1769 1318
3 678 1284 1539
3 1575 1039 1574
3 1589 471 1576
3 509 997 685
3 1386 551 993
3 847 1681 560
3 807 837 454
3 982 654 567
3 626 1256 1090
3 1247 1486 688
3 1651 1038 443
3 1050 894 359
3 1478 701 716
3 1316 977 1655
3 786 1650 1732
3 1004 528 1053
3 1453 1444 666
3 794 1441 1572
3 1086 900 540
3 1352 335 714
3 457 1097 1221
3 974 365 1373
3 1640 1437 373
3 877 601 1640
3 1808 85 86
3 1082 1473 472
3 583 866 1496
3 1623 1051 422
3 638 1331 883
3 1188 815 371
3 1551 320 818
3 290 291 1548
3 1549 1550 870
3 379 1550 1238
3 984 143 144
3 281 1042 280
3 497 1245 673
3 1493 842 1109
3 704 1219 360
3 1459 1197 326
3 825 1638 1585
3 1803 650 1214
3 1602 638 1526
3 1794 654 1245
3 1411 541 856
3 1213 499 1211
3 107 1399 106
3 1358 527 1357
3 1259 673 1637
3 1504 371 686
3 372 991 1741
3 826 582 1620
3 702 1354 524
3 1399 1666 1113
3 415 1299 721
3 484 989 1709
3 759 1057 347
3 643 1561 1513
3 1562 1643 740
3 811 1508 450
3 1007 875 1534
3 1062 1566 1806
3 798 534 1406
3 1773 1510 620
3 588 1634 1425
3 1328 987 455
3 1566 1208 389
3 379 1207 1498
3 1306 568 1380
3 1350 281 282
3 975 679 575
3 1234 546 1233
3 518 1359 1387
3 277 1032 1805
3 729 1059 1522
3 1777 1642 741
3 1210 599 1555
3 722 1698 1697
3 1212 1555 316
3 1390 330 1754
3 1534 142 1007
3 709 527 1358
3 1669 1409 487
3 487 1201 1200
3 1759 1761 1484
3 1632 976 1575
3 1622 1511 1105
3 806 1606 381
3 1556 847 370
3 129 1598 1072
3 1661 1374 799
3 296 1510 295
3 899 1609 553
3 1435 332 781
3 740 1599 1324
3 1580 603 994
3 1186 845 535
3 1643 1562 431
3 876 345 737
3 707 1710 325
3 445 1043 833
3 689 1338 1316
3 719 661 340
3 1506 461 885
3 736 1493 817
3 663 1238 555
3 575 679 1466
3 140 141 1586
3 1207 1238 663
3 598 1568 743
3 680 351 1222
3 1362 737 345
3 1002 1567 598
3 507 1592 874
3 359 1581 1050
3 1648 789 1700
3 901 643 1704
3 1612 860 462
3 983 875 520
3 392 650 1626
3 1767 1091 644
3 1372 298 853
3 1284 1813 1814
3 1010 345 772
3 1813 1284 678
3 1059 1235 466
3 349 1048 729
3 1682 1533 557
3 1228 1326 547
3 391 1597 1227
3 1435 560 1681
3 1019 1705 356
3 67 1599 66
3 843 701 431
3 1632 1484 976
3 1627 749 1611
3 865 570 1722
3 702 1552 1364
3 719 718 439
3 368 1602 1526
3 871 705 322
3 483 1046 1694
3 1254 1253 505
3 293 294 1604
3 1114 405 705
3 105 106 1113
3 1252 600 1671
3 838 146 147
3 1073 521 983
3 817 1493 438
3 1066 687 1065
3 1446 710 993
3 691 1358 1357
3 859 1656 814
3 1767 1202 412
3 1593 656 1024
3 1726 629 1780
3 350 1738 867
3 1699 490 1186
3 1465 1616 566
3 1802 1660 760
3 1103 1046 483
3 1497 583 1496
3 709 1367 1366
3 627 1109 1639
3 133 1463 1410
3 851 1349 308
3 1015 434 790
3 643 901 1561
3 340 865 719
3 1735 478 872
3 419 1668 1713
3 362 700 1198
3 1776 321 1449
3 1528 415 721
3 1369 747 1791
3 1758 1051 770
3 322 1363 1066
3 878 1288 509
3 1075 1779 686
3 674 1265 531
3 1483 669 1313
3 1436 1232 301
3 1624 548 1437
3 1093 992 447
3 734 373 1437
3 816 430 815
3 1383 508 1206
3 51 1711 1309
3 1627 1611 435
3 824 1193 490
3 1603 1483 474
3 1216 650 392
3 1343 1215 493
3 1063 412 829
3 288 289 1630
3 668 757 1344
3 861 759 450
3 741 716 349
3 1085 561 1485
3 549 1428 1427
3 1648 427 1644
3 1204 469 1025
3 587 1527 1330
3 1377 503 1294
3 1434 1312 658
3 98 1312 1520
3 1192 824 490
3 1338 330 1031
3 1723 1776 902
3 688 1486 448
3 1501 1727 623
3 1420 870 379
3 493 1717 1214
3 1702 500 1237
3 1012 306 852
3 736 842 1493
3 1205 337 634
3 1599 1751 66
3 1038 1814 443
3 897 485 898
3 1324 1599 67
3 1700 1515 609
3 1516 792 1266
3 835 474 1313
3 709 1366 1621
3 1694 1046 605
3 1197 559 1262
3 374 1484 1632
3 1748 49 50
3 1545 1808 824
3 1644 1512 665
3 630 395 1285
3 1753 1318 640
3 1657 1474 522
3 1191 640 1769
3 1492 1712 856
3 1453 532 1444
3 1540 380 1228
3 1386 1052 375
3 419 813 1668
3 985 455 697
3 360 684 1354
3 472 1631 1082
3 1289 1519 477
3 674 405 1114
3 710 407 708
3 1547 1546 828
3 1505 107 108
3 1650 610 1535
3 122 123 981
3 645 356 1400
3 1108 543 1384
3 728 1706 543
3 48 1749 315
3 754 317 1554
3 1479 592 1714
3 1578 822 354
3 1029 1662 649
3 868 1472 414
3 1064 515 1652
3 810 1530 1006
3 464 1036 713
3 978 1740 608
3 726 503 1102
3 594 1651 1683
3 1583 1652 467
3 1731 1368 109
3 1667 1265 674
3 1044 1461 1746
3 1430 1047 712
3 1392 428 795
3 897 443 1812
3 492 783 888
3 1512 77 78
3 1590 665 1739
3 145 1185 144
3 1073 806 381
3 1697 616 982
3 406 1514 1013
3 1201 563 1200
3 597 1800 1600
3 1480 1017 1320
3 692 1429 1579
3 1737 1707 799
3 1723 902 622
3 387 1263 1733
3 818 1626 1551
3 1188 797 559
3 1528 1677 534
3 1549 1466 456
3 612 1630 1018
3 1634 469 1019
3 1330 1080 470
3 1400 356 804
3 1322 1401 803
3 1211 830 498
3 1527 1111 647
3 738 461 1423
3 1097 707 325
3 1684 344 1038
3 1594 787 1047
3 1719 1471 808
3 1636 633 1635
3 387 1406 1728
3 1108 1261 543
3 1331 638 1744
3 1772 439 850
3 973 681 544
3 781 1225 823
3 330 1220 1754
3 333 866 1685
3 87 88 1193
3 590 1480 1027
3 1199 697 987
3 590 1027 1520
3 1418 1293 340
3 704 1690 1688
3 994 426 766
3 779 1476 366
3 406 1013 689
3 633 1628 1635
3 1660 1768 785
3 1582 707 1097
3 850 718 352
3 854 1682 557
3 347 1719 1703
3 1689 694 1618
3 1370 479 763
3 1210 383 1617
3 1262 797 1198
3 1492 541 1715
3 901 812 632
3 1395 642 1378
3 1512 1670 77
3 78 665 1512
3 695 1726 1780
3 1701 512 1738
3 435 1611 1255
3 1702 1790 974
3 1695 486 767
3 882 350 750
3 999 479 985
3 684 524 1354
3 1091 518 751
3 543 1068 880
3 1184 878 509
3 1786 1020 1793
3 1345 866 583
3 1501 1708 776
3 1578 844 505
3 1029 649 1663
3 980 979 444
3 1558 1040 345
3 1423 461 1506
3 754 1525 317
3 1748 1747 651
3 325 611 1097
3 711 487 1442
3 1524 1722 761
3 1453 1083 324
3 1529 514 1292
3 874 591 1408
3 1006 343 810
3 1691 340 1293
3 1709 989 1509
3 977 585 1655
3 1415 1366 526
3 1374 818 546
3 621 1786 1793
3 1095 533 1094
3 899 395 1609
3 542 1799 1508
3 1644 427 1516
3 323 1200 827
3 1499 979 596
3 349 712 1048
3 349 1522 741
3 550 1601 1419
3 1083 1453 666
3 844 1093 447
3 815 559 1459
3 619 1763 1494
3 1654 1653 1291
3 1790 1702 680
3 654 982 1646
3 876 451 772
3 1725 417 1726
3 825 285 1553
3 595 1187 1745
3 1346 1675 354
3 1215 1343 1462
3 338 1407 821
3 1577 889 1778
3 1332 682 402
3 1053 1658 117
3 848 482 773
3 1060 1318 587
3 1540 1022 625
3 1110 357 647
3 1503 758 320
3 1264 1090 475
3 744 1414 1757
3 671 886 440
3 682 1439 346
3 1689 1618 361
3 1320 1045 1319
3 1260 706 884
3 1795 1416 283
3 1530 1405 441
3 1085 1460 561
3 1484 1761 561
3 85 1457 84
3 1310 549 777
3 1046 1103 1536
3 1436 747 548
3 1499 1046 372
3 1411 856 328
3 1329 896 452
3 1624 1232 548
3 1540 1231 380
3 1069 855 476
3 1541 765 1081
3 1044 364 986
3 1620 582 1619
3 1745 1742 991
3 1696 1481 485
3 1100 1529 672
3 1016 453 1015
3 707 491 807
3 882 1034 350
3 1334 1335 618
3 1376 724 494
3 314 315 1750
3 311 858 310
3 1747 724 434
3 1465 1011 502
3 740 1324 1562
3 1201 1430 563
3 1484 374 1759
3 1785 1076 482
3 1076 1326 380
3 1387 1360 416
3 590 1017 1480
3 1317 297 1372
3 449 842 736
3 486 1554 767
3 977 1267 1693
3 89 1394 845
3 1689 1186 535
3 1360 1283 416
3 1589 399 775
3 1235 1061 466
3 1398 882 576
3 863 807 454
3 1014 597 1389
3 1085 675 1460
3 846 435 652
3 1188 559 815
3 660 805 1454
3 1615 1587 384
3 534 1029 1472
3 1643 1599 740
3 1471 1696 808
3 1265 1765 796
3 857 1352 524
3 727 1260 334
3 668 1344 1514
3 798 1406 1724
3 342 1564 895
3 1291 514 756
3 369 1397 1041
3 1070 768 476
3 804 1447 1400
3 1443 1604 730
3 1443 730 739
3 1472 1029 1663
3 1233 591 1234
3 1595 840 586
3 1485 61 1085
3 420 1593 881
3 1311 1675 1028
3 1412 134 135
3 1325 864 390
3 821 1407 480
3 631 1285 899
3 601 1232 1624
3 573 1551 1803
3 831 820 468
3 502 1011 760
3 993 515 1386
3 346 1583 682
3 521 1288 878
3 578 1586 1534
3 1613 1499 596
3 832 718 418
3 850 1442 1409
3 1373 1781 500
3 623 1727 1244
3 1420 379 1498
3 1743 1304 390
3 525 1552 1363
3 1598 469 1072
3 636 1304 1743
3 1608 1656 859
3 480 1407 1285
3 655 1782 404
3 1615 1184 602
3 1493 1109 1638
3 1755 1256 626
3 1750 315 1749
3 1035 460 1752
3 1026 1760 1759
3 1235 64 1061
3 387 1253 1724
3 1724 1253 622
3 530 851 1084
3 1040 1613 464
3 1470 1440 576
3 1570 1627 435
3 1771 731 441
3 388 1345 1787
3 413 1024 1676
3 1300 1452 628
3 320 1233 818
3 1578 354 1311
3 459 862 1347
3 525 705 1365
3 1447 802 554
3 112 1060 111
3 745 471 1345
3 1037 606 847
3 472 1083 666
3 726 1635 1296
3 1600 994 597
3 839 1595 586
3 1391 531 1754
3 1262 559 797
3 1513 1561 641
3 763 479 999
3 983 521 878
3 1477 1194 758
3 371 1504 1803
3 1323 753 517
3 152 1805 151
3 1550 379 870
3 508 1087 1206
3 1355 147 148
3 1631 594 1082
3 323 1669 1200
3 824 1808 86
3 671 361 886
3 867 750 350
3 1005 1616 1710
3 1450 1103 628
3 1309 1711 724
3 1081 1631 472
3 1364 1354 702
3 1286 894 468
3 515 710 1652
3 443 897 898
3 827 1242 1438
3 779 566 1217
3 431 701 1478
3 1396 1037 533
3 1289 370 1098

CELL_TYPES 3470
5
5
5
5
5
5
5
5
5
5
5
5
5
5
5
5
5
5
5
5
5
5
5
5
5
5
5
5
5
5
5
5
5
5
5
5
5
5
5
5
5
5
5
5
5
5
5
5
5
5
5
5
5
5
5
5
5
5
5
5
5
5
5
5
5
5
5
5
5
5
5
5
5
5
5
5
5
5
5
5
5
5
5
5
5
5
5
5
5
5
5
5
5
5
5
5
5
5
5
5
5
5
5
5
5
5
5
5
5
5
5
5
5
5
5
5
5
5
5
5
5
5
5
5
5
5
5
5
5
5
5
5
5
5
5
5
5
5
5
5
5
5
5
5
5
5
5
5
5
5
5
5
5
5
5
5
5
5
5
5
5
5
5
5
5
5
5
5
5
5
5
5
5
5
5
5
5
5
5
5
5
5
5
5
5
5
5
5
5
5
5
5
5
5
5
5
5
5
5
5
5
5
5
5
5
5
5
5
5
5
5
5
5
5
5
5
5
5
5
5
5
5
5
5
5
5
5
5
5
5
5
5
5
5
5
5
5
5
5
5
5
5
5
5
5
5
5
5
5
5
5
5
5
5
5
5
5
5
5
5
5
5
5
5
5
5
5
5
5
5
5
5
5
5
5
5
5
5
5
5
5
5
5
5
5
5
5
5
5
5
5
5
5
5
5
5
5
5
5
5
5
5
5
5
5
5
5
5
5
5
5
5
5
5
5
5
5
5
5
5
5
5
5
5
5
5
5
5
5
5
5
5
5
5
5
5
5
5
5
5
5
5
5
5
5
5
5
5
5
5
5
5
5
5
5
5
5
5
5
5
5
5
5
5
5
5
5
5
5
5
5
5
5
5
5
5
5
5
5
5
5
5
5
5
5
5
5
5
5
5
5
5
5
5
5
5
5
5
5
5
5
5
5
5
5
5
5
5
5
5
5
5
5
5
5
5
5
5
5
5
5
5
5
5
5
5
5
5
5
5
5
5
5
5
5
5
5
5
5
5
5
5
5
5
5
5
5
5
5
5
5
5
5
5
5
5
5
5
5
5
5
5
5
5
5
5
5
5
5
5
5
5
5
5
5
5
5
5
5
5
5
5
5
5
5
5
5
5
5
5
5
5
5
5
5
5
5
5
5
5
5
5
5
5
5
5
5
5
5
5
5
5
5
5
5
5
5
5
5
5
5
5
5
5
5
5
5
5
5
5
5
5
5
5
5
5
5
5
5
5
5
5
5
5
5
5
5
5
5
5
5
5
5
5
5
5
5
5
5
5
5
5
5
5
5
5
5
5
5
5
5
5
5
5
5
5
5
5
5
5
5
5
5
5
5
5
5
5
5
5
5
5
5
5
5
5
5
5
5
5
5
5
5
5
5
5
5
5
5
5
5
5
5
5
5
5
5
5
5
5
5
5
5
5
5
5
5
5
5
5
5
5
5
5
5
5
5
5
5
5
5
5
5
5
5
5
5
5
5
5
5
5
5
5
5
5
5
5
5
5
5
5
5
5
5
5
5
5
5
5
5
5
5
5
5
5
5
5
5
5
5
5
5
5
5
5
5
5
5
5
5
5
5
5
5
5
5
5
5
5
5
5
5
5
5
5
5
5
5
5
5
5
5
5
5
5
5
5
5
5
5
5
5
5
5
5
5
5
5
5
5
5
5
5
5
5
5
5
5
5
5
5
5
5
5
5
5
5
5
5
5
5
5
5
5
5
5
5
5
5
5
5
5
5
5
5
5
5
5
5
5
5
5
5
5
5
5
5
5
5
5
5
5
5
5
5
5
5
5
5
5
5
5
5
5
5
5
5
5
5
5
5
5
5
5
5
5
5
5
5
5
5
5
5
5
5
5
5
5
5
5
5
5
5
5
5
5
5
5
5
5
5
5
5
5
5
5
5
5
5
5
5
5
5
5
5
5
5
5
5
5
5
5
5
5
5
5
5
5
5
5
5
5
5
5
5
5
5
5
5
5
5
5
5
5
5
5
5
5
5
5
5
5
5
5
5
5
5
5
5
5
5
5
5
5
5
5
5
5
5
5
5
5
5
5
5
5
5
5
5
5
5
5
5
5
5
5
5
5
5
5
5
5
5
5
5
5
5
5
5
5
5
5
5
5
5
5
5
5
5
5
5
5
5
5
5
5
5
5
5
5
5
5
5
5
5
5
5
5
5
5
5
5
5
5
5
5
5
5
5
5
5
5
5
5
5
5
5
5
5
5
5
5
5
5
5
5
5
5
5
5
5
5
5
5
5
5
5
5
5
5
5
5
5
5
5
5
5
5
5
5
5
5
5
5
5
5
5
5
5
5
5
5
5
5
5
5
5
5
5
5
5
5
5
5
5
5
5
5
5
5
5
5
5
5
5
5
5
5
5
5
5
5
5
5
5
5
5
5
5
5
5
5
5
5
5
5
5
5
5
5
5
5
5
5
5
5
5
5
5
5
5
5
5
5
5
5
5
5
5
5
5
5
5
5
5
5
5
5
5
5
5
5
5
5
5
5
5
5
5
5
5
5
5
5
5
5
5
5
5
5
5
5
5
5
5
5
5
5
5
5
5
5
5
5
5
5
5
5
5
5
5
5
5
5
5
5
5
5
5
5
5
5
5
5
5
5
5
5
5
5
5
5
5
5
5
5
5
5
5
5
5
5
5
5
5
5
5
5
5
5
5
5
5
5
5
5
5
5
5
5
5
5
5
5
5
5
5
5
5
5
5
5
5
5
5
5
5
5
5
5
5
5
5
5
5
5
5
5
5
5
5
5
5
5
5
5
5
5
5
5
5
5
5
5
5
5
5
5
5
5
5
5
5
5
5
5
5
5
5
5
5
5
5
5
5
5
5
5
5
5
5
5
5
5
5
5
5
5
5
5
5
5
5
5
5
5
5
5
5
5
5
5
5
5
5
5
5
5
5
5
5
5
5
5
5
5
5
5
5
5
5
5
5
5
5
5
5
5
5
5
5
5
5
5
5
5
5
5
5
5
5
5
5
5
5
5
5
5
5
5
5
5
5
5
5
5
5
5
5
5
5
5
5
5
5
5
5
5
5
5
5
5
5
5
5
5
5
5
5
5
5
5
5
5
5
5
5
5
5
5
5
5
5
5
5
5
5
5
5
5
5
5
5
5
5
5
5
5
5
5
5
5
5
5
5
5
5
5
5
5
5
5
5
5
5
5
5
5
5
5
5
5
5
5
5
5
5
5
5
5
5
5
5
5
5
5
5
5
5
5
5
5
5
5
5
5
5
5
5
5
5
5
5
5
5
5
5
5
5
5
5
5
5
5
5
5
5
5
5
5
5
5
5
5
5
5
5
5
5
5
5
5
5
5
5
5
5
5
5
5
5
5
5
5
5
5
5
5
5
5
5
5
5
5
5
5
5
5
5
5
5
5
5
5
5
5
5
5
5
5
5
5
5
5
5
5
5
5
5
5
5
5
5
5
5
5
5
5
5
5
5
5
5
5
5
5
5
5
5
5
5
5
5
5
5
5
5
5
5
5
5
5
5
5
5
5
5
5
5
5
5
5
5
5
5
5
5
5
5
5
5
5
5
5
5
5
5
5
5
5
5
5
5
5
5
5
5
5
5
5
5
5
5
5
5
5
5
5
5
5
5
5
5
5
5
5
5
5
5
5
5
5
5
5
5
5
5
5
5
5
5
5
5
5
5
5
5
5
5
5
5
5
5
5
5
5
5
5
5
5
5
5
5
5
5
5
5
5
5
5
5
5
5
5
5
5
5
5
5
5
5
5
5
5
5
5
5
5
5
5
5
5
5
5
5
5
5
5
5
5
5
5
5
5
5
5
5
5
5
5
5
5
5
5
5
5
5
5
5
5
5
5
5
5
5
5
5
5
5
5
5
5
5
5
5
5
5
5
5
5
5
5
5
5
5
5
5
5
5
5
5
5
5
5
5
5
5
5
5
5
5
5
5
5
5
5
5
5
5
5
5
5
5
5
5
5
5
5
5
5
5
5
5
5
5
5
5
5
5
5
5
5
5
5
5
5
5
5
5
5
5
5
5
5
5
5
5
5
5
5
5
5
5
5
5
5
5
5
5
5
5
5
5
5
5
5
5
5
5
5
5
5
5
5
5
5
5
5
5
5
5
5
5
5
5
5
5
5
5
5
5
5
5
5
5
5
5
5
5
5
5
5
5
5
5
5
5
5
5
5
5
5
5
5
5
5
5
5
5
5
5
5
5
5
5
5
5
5
5
5
5
5
5
5
5
5
5
5
5
5
5
5
5
5
5
5
5
5
5
5
5
5
5
5
5
5
5
5
5
5
5
5
5
5
5
5
5
5
5
5
5
5
5
5
5
5
5
5
5
5
5
5
5
5
5
5
5
5
5
5
5
5
5
5
5
5
5
5
5
5
5
5
5
5
5
5
5
5
5
5
5
5
5
5
5
5
5
5
5
5
5
5
5
5
5
5
5
5
5
5
5
5
5
5
5
5
5
5
5
5
5
5
5
5
5
5
5
5
5
5
5
5
5
5
5
5
5
5
5
5
5
5
5
5
5
5
5
5
5
5
5
5
5
5
5
5
5
5
5
5
5
5
5
5
5
5
5
5
5
5
5
5
5
5
5
5
5
5
5
5
5
5
5
5
5
5
5
5
5
5
5
5
5
5
5
5
5
5
5
5
5
5
5
5
5
5
5
5
5
5
5
5
5
5
5
5
5
5
5
5
5
5
5
5
5
5
5
5
5
5
5
5
5
5
5
5
5
5
5
5
5
5
5
5
5
5
5
5
5
5
5
5
5
5
5
5
5
5
5
5
5
5
5
5
5
5
5
5
5
5
5
5
5
5
5
5
5
5
5
5
5
5
5
5
5
5
5
5
5
5
5
5
5
5
5
5
5
5
5
5
5
5
5
5
5
5
5
5
5
5
5
5
5
5
5
5
5
5
5
5
5
5
5
5
5
5
5
5
5
5
5
5
5
5
5
5
5
5
5
5
5
5
5
5
5
5
5
5
5
5
5
5
5
5
5
5
5
5
5
5
5
5
5
5
5
5
5
5
5
5
5
5
5
5
5
5
5
5
5
5
5
5
5
5
5
5
5
5
5
5
5
5
5
5
5
5
5
5
5
5
5
5
5
5
5
5
5
5
5
5
5
5
5
5
5
5
5
5
5
5
5
5
5
5
5
5
5
5
5
5
5
5
5
5
5
5
5
5
5
5
5
5
5
5
5
5
5
5
5
5
5
5
5
5
5
5
5
5
5
5
5
5
5
5
5
5
5
5
5
5
5
5
5
5
5
5
5
5
5
5
5
5
5
5
5
5
5
5
5
5
5
5
5
5
5
5
5
5
5
5
5
5
5
5
5
5
5
5
5
5
5
5
5
5
5
5
5
5
5
5
5
5
5
5
5
5
5
5
5
5
5
5
5
5
5
5
5
5
5
5
5
5
5
5
5
5
5
5
5
5
5
5
5
5
5
5
5
5
5
5
5
5
5
5
5
5
5
5
5
5
5
5
5
5
5
5
5
5
5
5
5
5
5
5
5
5
5
5
5
5
5
5
5
5
5
5
5
5
5
5
5
5
5
5
5
5
5
5
5
5
5
5
5
5
5
5
5
5
5
5
5
5
5
5
5
5
5
5
5
5
5
5
5
5
5
5
5
5
5
5
5
5
5
5
5
5
5
5
5
5
5
5
5
5
5
5
5
5
5
5
5
5
5
5
5
5
5
5
5
5
5
5
5
5
5
5
5
5
5
5
5
5
5
5
5
5
5
5
5
5
5
5
5
5
5
5
5
5
5
5
5
5
5
5
5
5
5
5
5
5
5
5
5
5
5
5
5
5
5
5
5
5
5
5
5
5
5
5
5
5
5
5
5
5
5
5
5
5
5
5
5
5
5
5
5
5
5
5
5
5
5
5
5
5
5
5
5
5
5
5
5
5
5
5
5
5
5
5
5
5
5
5
5
5
5
5
5
5
5
5
5
5
5
5
5
5
5
5
5
5
5
5
5
5
5
5
5
5
5
5
5
5
5
5
5
5
5
5
5
5
5
5
5
5
5
5
5
5
5
5
5
5
5
5
5
5
5
5
5
5
5
5
5
5
5
5
5
5
5
5
5
5
5
5
5
5
5
5
5
5
5
5
5
5
5
5
5
5
5
5
5
5
5
5
5
5
5
5
5
5
5
5
5
5
5
5
5
5
5
5
5
5
5
5
5
5
5
5
5
5
5
5
5
5
5
5
5
5
5
5
5
5
5
5
5
5
5
5
5
5
5
5
5
5
5
5
5
5
5
5
5
5
5
5
5
5
5
5
5
5
5
5
5
5
5
5
5
5
5
5
5
5
5
5
5
5
5
5
5
5
5
5
5
5
5
5
5
5
5
5
5
5
5
5
5
5
5
5
5
5
5
5
5
5
5
5
5
5
5
5
5
5
5
5
5
5
5
5
5
5
5
5
5
5
5
5
5
5
5
5
5
5
5
5
5
5
5
5
5
5
5
5
5
5
5
5
5
5
5
5
5
5
5
5
5
5
5
5
5
5
5
5
5
5
5
5
5
5
5
5
5
5
5
5
5
5
5
5
5
5
5
5
5
5
5
5
5
5
5
5
5
5
5
5
5
5
5
5
5
5
5
5
5
5
5
5
5
5
5
5
5
5
5
5
5
5
5
5
5
5
5
5
5
5
5
5
5
5
5
5
5
5
5
5
5
5
5
5
5
5
5
5
5
5
5
5
5
5
5
5
5
5
5
5
5
5
5
5
5
5
5
5
5
5
5
5
5
5
5
5
5
5
5
5
5
5
5
5
5
5
5
5
5
5
5
5
5
5
5
5
5
5
5
5
5
5
5
5
5
5
5
5
5
5
5
5
5
5
5
5
5
5
5
5
5
5
5
5
5
5
5
5
5
5
5
5
5
5
5
5
5
5
5
5
5
5
5
5
5
5
5
5
5
5
5
5
5
5
5
5
5
5
5
5
5
5
5
5
5
5
5
5
5
5
5
5
5
5
5
5
5
5
5
5
5
5
5
5
5
5
5
5
5
5
5
5
5
5
5
5
5
5
5
5
5
5
5
5
5
5
5
5
5
5
5
5
5
5
5
5
5
5
5
5
5
5
5
5
5
5
5
5
5
5
5
5
5
5
5
5
5
5
5
5
5
5
5
5
5
5
5
5
5
5
5
5
5
5
5
5
5
5
5
5
5
5
5
5
5
5
5
5
5
5
5
5
5
5
5
5
5
5
5
5
5
5
5
5
5
5
5
5
5
5
5
5
5
5
5
5
5
5
5
5
5
5
5
5
5
5
5
5
5
5
5
5
5
5
5
5
5
5
5
5
5
5
5
5
5
5
5
5
5
5
5
5
5
5
5
5
5
5
5
5
5
5
5
5
5
5
5
5
5
5
5
5
5
5
5
5
5
5
5
5
5
5
5
5
5
5
5
5
5
5
5
5
5
5
5
5
5
5
5
5
5
5
5
5
5
5
5
5
5
5
5
5
5
5
5
5
5
5
5
5
5
5
5
5
5
5
5
5
5
5
5
5
5
5
5
5
5
5
5
5
5
5
5
5
5
5
5
5
5
5
5
5
5
5
5
5
5
5
5
5
5
5
5
5
5
5
5
5
5
5
5
5
5
5
5
5
5
5
5
5
5
5
5
5
5
5
5
5
5
5
5
5
5
5
5
5
5
5
5
5
5
5
5
5
5
5
5
5
5
5
5
5
5
5
5
5
5
5
5
5
5
5
5
5
5
5
5
5
5
5
5
5
5
5
5
5
5
5
5
5
5
5
5
5
5
5
5
5
5
5
5
5
5
5
5
5
5
5
5
5
5
5
5
5
5

