# vtk DataFile Version 2.0
mcd2d, Created by Gmsh
ASCII
DATASET UNSTRUCTURED_GRID
POINTS 692 double
0 0 0
1 0 0
1 1 0
0 1 0
0.5 0.5 0
0.05 0 0
0.1 0 0
0.15 0 0
0.2 0 0
0.25 0 0
0.3 0 0
0.35 0 0
0.4 0 0
0.45 0 0
0.5 0 0
0.55 0 0
0.6 0 0
0.65 0 0
0.7 0 0
0.75 0 0
0.8 0 0
0.85 0 0
0.9 0 0
0.95 0 0
1 0.05 0
1 0.1 0
1 0.15 0
1 0.2 0
1 0.25 0
1 0.3 0
1 0.35 0
1 0.4 0
1 0.45 0
1 0.5 0
1 0.55 0
1 0.6 0
1 0.65 0
1 0.7 0
1 0.75 0
1 0.8 0
1 0.85 0
1 0.9 0
1 0.95 0
0.95 1 0
0.9 1 0
0.85 1 0
0.8 1 0
0.75 1 0
0.7 1 0
0.65 1 0
0.6 1 0
0.55 1 0
0.5 1 0
0.45 1 0
0.4 1 0
0.35 1 0
0.3 1 0
0.25 1 0
0.2 1 0
0.15 1 0
0.09999999999999998 1 0
0.05000000000000004 1 0
0 0.95 0
0 0.9 0
0 0.85 0
0 0.8 0
0 0.75 0
0 0.7 0
0 0.65 0
0 0.6 0
0 0.55 0
0 0.5 0
0 0.45 0
0 0.4 0
0 0.35 0
0 0.3 0
0 0.25 0
0 0.2 0
0 0.15 0
0 0.09999999999999998 0
0 0.05000000000000004 0
0.0410442873994194 0.6764042770680483 0
0.3243715244435244 0.9601074747877087 0
0.04201716007100365 0.3256762329963438 0
0.6772310301722352 0.03961021908845586 0
0.9633521955295933 0.6716157275551184 0
0.6737904360664573 0.9599023967647367 0
0.3253861294725917 0.04868054020320867 0
0.9573699808948124 0.3243161092281608 0
0.5284785229198925 0.04644252156348827 0
0.958654355591136 0.5254679493601185 0
0.5238326099959326 0.9586787759507356 0
0.05101422267620792 0.5243479050947172 0
0.04266803581397122 0.8308030654161542 0
0.1712235900694057 0.0459473732731987 0
0.9590445721930455 0.1700550449429839 0
0.9538881376595066 0.8211312326844072 0
0.8308924790711846 0.9505885150911224 0
0.175 0.9566987298107781 0
0.8193471888031931 0.04682165007567018 0
0.04350214950522813 0.1773578928760055 0
0.0426042340201046 0.4221302382196928 0
0.4201410561323602 0.03740224030894812 0
0.4246788030665389 0.9581191090601413 0
0.9545824697501832 0.4224207225687783 0
0.9588089681062286 0.9235551555423891 0
0.04243917042613593 0.9208188935387003 0
0.04330127018922186 0.07500000000000012 0
0.928692720259687 0.04038105377349677 0
0.04228223216905214 0.3740646142972465 0
0.08342198271384826 0.3498741780387803 0
0.08350935361973266 0.3029560370524972 0
0.1236051624172368 0.3275121345027451 0
0.1249515646010722 0.2821714322651484 0
0.1632298655817721 0.3067936989883022 0
0.1623409574442314 0.350588834422726 0
0.200211349896509 0.3294997460409048 0
0.1996813101249695 0.3722558897648414 0
0.2354285771994671 0.3513031111695631 0
0.2355079605208291 0.3919118281487718 0
0.2691562999579735 0.3725144448690202 0
0.2691472208785275 0.4106938713696776 0
0.3013087142276578 0.3933101365354134 0
0.3031922481361793 0.3557648486865315 0
0.2994661866635718 0.4298260937901595 0
0.3384609416356569 0.3783257279851942 0
0.3358083631348269 0.3388703316553516 0
0.3674031521972185 0.3549665564915788 0
0.3663033674295074 0.3207699393815449 0
0.3973124477061368 0.3384662973041556 0
0.2699392146313835 0.447380979463229 0
0.2994110349260772 0.4664222153673587 0
0.2695736673995209 0.4837280060721426 0
0.2994090303338251 0.5027830682334479 0
0.2684433039312464 0.5204010200103302 0
0.2996200655421261 0.5392979256256722 0
0.3342285423359238 0.3033771793504949 0
0.2678566461484954 0.5576619262131206 0
0.3004507902109173 0.5766459427271351 0
0.3979771696757483 0.3035299326504816 0
0.4298239257724784 0.3232377418622825 0
0.2670466520212561 0.5957488039780408 0
0.3015377199546107 0.6151950126157164 0
0.2671017162038631 0.6347685094152932 0
0.3018200280735036 0.6542397021972045 0
0.3362962183911256 0.6333182367026393 0
0.3364347578946441 0.6730349529723352 0
0.3702491189635823 0.6524407626096886 0
0.3705627218504955 0.6907377123796394 0
0.4034667374215507 0.6723208378585797 0
0.3026239185633293 0.6946311459273863 0
0.4305819344385676 0.286277762255412 0
0.4630534314341689 0.307010395808106 0
0.4041565355375322 0.7095812725647421 0
0.4370695893444679 0.6914613888000937 0
0.4375728172087312 0.7289091205656273 0
0.4717921625377586 0.7094701132581223 0
0.4637843684663186 0.2684707302856287 0
0.4963420563596783 0.2890803223209725 0
0.4960420869306556 0.3270278175533434 0
0.5287938455673017 0.3093746202525942 0
0.5299931141452074 0.2712678865085547 0
0.5622983169030014 0.2925131682142152 0
0.5602498822485883 0.3295452261733761 0
0.5936960204028654 0.3135623446531461 0
0.5908168445590024 0.3501462611149794 0
0.6250873182019929 0.3352706143467205 0
0.622020654681529 0.3722959589618248 0
0.6567877636030495 0.356631699032547 0
0.6546757791674773 0.3953715955679173 0
0.6598573836559876 0.3190852185338811 0
0.6887284200738892 0.3779430355500544 0
0.6872190315003179 0.4168135062455679 0
0.7215078001902261 0.3994000467084312 0
0.7185742922972378 0.4385285030374312 0
0.6854002864267683 0.4553415849080836 0
0.7153030224107649 0.4773539559760144 0
0.6827774023042591 0.4932957627042437 0
0.7112597171108967 0.515659614664377 0
0.6791609386495174 0.53117636443131 0
0.7083169443111162 0.5544835448466611 0
0.6746363059726215 0.5699782350850812 0
0.7061396487692334 0.5931936255384161 0
0.6707311790916926 0.6095347654813326 0
0.7030377469614996 0.6335734920456143 0
0.6668418547270468 0.6495266987668681 0
0.7000002348868368 0.673914352758845 0
0.6616562390935462 0.6902255829830902 0
0.6968023146710405 0.7155068804606967 0
0.6577508257460432 0.7327590635147612 0
0.5651321733686741 0.2534562524688853 0
0.4692711147230434 0.6731175612155603 0
0.3292446012963639 0.4857272436367688 0
0.4305320485492119 0.2479394584908693 0
0.7416268399677697 0.5752959317830455 0
0.4022905401295982 0.7485060689495135 0
0.4732958253704286 0.7472662674974111 0
0.3959027424413477 0.3708085789633323 0
0.6377145988729392 0.58535452006712 0
0.202542304300922 0.2875433505258519 0
0.7347944534909379 0.6978298286243108 0
0.733044628507924 0.7400368192029885 0
0.7504528137807187 0.4607215937594453 0
0.2320568539958205 0.6148933174929607 0
0.6186694743544086 0.4142821505623202 0
0.2360547896319782 0.5006337640715338 0
0.3726508783127384 0.6101118549841502 0
0.5579473620176857 0.3653414482860562 0
0.6516593090416616 0.5083812826961099 0
0.7717340245417026 0.7212770444161645 0
0.7699663733561795 0.7644779399649783 0
0.2317610040180621 0.6555994279047461 0
0.5320669029890985 0.2313451239666851 0
0.5680547423277816 0.2128894745339747 0
0.5008504913563863 0.6907393344604706 0
0.5002089622213428 0.655247871858317 0
0.7234074676897372 0.3597509563201502 0
0.7578698488753178 0.3820412366410759 0
0.7593832898405379 0.3402524209339155 0
0.7313882983922074 0.7828648245018418 0
0.7959145852884197 0.3641690080738197 0
0.7974835336824584 0.3214425167902942 0
0.7581475396780788 0.297172595208309 0
0.7989751349094935 0.2777123942985288 0
0.7586206975794471 0.2529643276638668 0
0.800617073203461 0.2330501537969458 0
0.7620947628289049 0.2078846373412159 0
0.8088922545195025 0.7460099547075756 0
0.8114014651151187 0.7019083145683742 0
0.1958452582979818 0.6350286562138553 0
0.1953519392559499 0.6775065877079884 0
0.8070657860685102 0.7888094940237946 0
0.5335308077301473 0.1901723780867299 0
0.5704983474344796 0.1708557096550596 0
0.6061662217711448 0.1943701464640607 0
0.4695871077103235 0.6372925640416885 0
0.500635087156727 0.6201242012545639 0
0.471185233570788 0.6015162392293801 0
0.5311885797782558 0.6390888771478922 0
0.5305431671484289 0.6031996035239972 0
0.1629095579591776 0.3947582988786488 0
0.8039091881926429 0.1882076186026432 0
0.7656319249931665 0.1629394675864512 0
0.6189050434745526 0.7053997262765912 0
0.619162747455889 0.7512010319212041 0
0.8383046287112879 0.2575104447357285 0
0.1970138963611568 0.593221804975231 0
0.1598680846590292 0.6132075229349879 0
0.1611308456910459 0.5706964239987496 0
0.7193321142083998 0.2270014283346807 0
0.6090052846389574 0.1517689141048241 0
0.8348522830708982 0.3448156014856079 0
0.8329384695480192 0.3889416085080053 0
0.8484524029657976 0.7274780176554957 0
0.8507062765315516 0.6829880606639076 0
0.1236351116310781 0.590766097679935 0
0.8139487156538276 0.6576516267505736 0
0.8528904829255923 0.6379486535361965 0
0.5614995253037403 0.6210304628097089 0
0.5583925220770386 0.5847119760331991 0
0.530114858745075 0.5693549357158394 0
0.5573023170033045 0.5524799071241242 0
0.5347000314106304 0.147198727029957 0
0.4986906078370957 0.1678933103988638 0
0.6456683033398061 0.1756745166938698 0
0.6416106538143138 0.2183231558326589 0
0.584492242292306 0.7283582981968701 0
0.581607404689569 0.7706289341158261 0
0.6168708522655744 0.794935903999599 0
0.5780112108143787 0.8138555794454421 0
0.6136805266571012 0.8384697054187131 0
0.5741303787278752 0.8584532532020925 0
0.5387137882663013 0.8326591719837111 0
0.8735932194548933 0.3689010875935532 0
0.8705943581348211 0.414441077685929 0
0.3314760670587841 0.5571210262999532 0
0.6095876939119357 0.8821343817722624 0
0.6510376587435251 0.8643821707975083 0
0.8073197796370946 0.1430175208907242 0
0.7688904778445199 0.1178745436976087 0
0.8453383845082296 0.1686595622177488 0
0.4975245381297992 0.124592689210045 0
0.4636707034517089 0.1465745118185027 0
0.125810410351087 0.5476121467791422 0
0.7271245513477456 0.1381836841174016 0
0.5642213286867757 0.6633210891337989 0
0.8167163484640588 0.6130532061199829 0
0.8554056360779592 0.5925423413663558 0
0.8193491532043656 0.5674586354244823 0
0.8583028917677485 0.5474444274223962 0
0.8214133247641644 0.5226084436451 0
0.8622212508033047 0.5029759862642795 0
0.8260269899672008 0.4787513728685436 0
0.1217054778626 0.6340200537193855 0
0.6489278612377689 0.1315809412994468 0
0.611178118049763 0.1093902341336618 0
0.4399741656037681 0.6190724413175701 0
0.4419439546918726 0.5840504412769477 0
0.4733622858766128 0.5635058993634587 0
0.4421994500557989 0.5503960374468214 0
0.4147746498827363 0.5678385242882205 0
0.4147309297758206 0.5360960985218896 0
0.4419155449840366 0.5187679115821759 0
0.4148735750694828 0.5045559448858535 0
0.4422741103965115 0.4879487382669488 0
0.4153761512930352 0.4735367702677922 0
0.4420667593795691 0.4573308877841069 0
0.4150685502754465 0.4430782266444954 0
0.4407106941282488 0.423471897854434 0
0.4704155696310383 0.4440732984880194 0
0.4712698289987386 0.4137250811766837 0
0.4975122091162205 0.429385922162062 0
0.4986335414262184 0.3978267992853906 0
0.3876241284687544 0.5207674094114066 0
0.5260061837459301 0.4152256653650467 0
0.5235992982139405 0.4466321946238091 0
0.5528069039171339 0.4328615562009192 0
0.5504341099631905 0.4641560556489102 0
0.1622417129208055 0.5273695173917234 0
0.1264747153510331 0.5035430055681122 0
0.1639641854478577 0.4831339830783761 0
0.1255842887335305 0.4613408400947794 0
0.8908483059648754 0.6179060750061899 0
0.2324008170204279 0.6979590459463587 0
0.1953132512728409 0.7209798257954281 0
0.2332454156194869 0.7420520606557289 0
0.1954539401817488 0.7650765862192451 0
0.2342974514510129 0.7856437531813345 0
0.1956443321339134 0.8092978208588744 0
0.2352848310707214 0.8298665192438808 0
0.27333663163309 0.8066386550045344 0
0.1571700817986812 0.744297667615451 0
0.2745374402492292 0.8489129595279841 0
0.3122852157074513 0.8277141289709714 0
0.3115549213321849 0.7843895910972186 0
0.1958318357519686 0.8544094893073335 0
0.1562220956307895 0.8327427262363161 0
0.3509381872072953 0.806737784172937 0
0.3513381506629079 0.8495317686625141 0
0.3897613966538411 0.8276472710291092 0
0.3897623005578901 0.8691081269894477 0
0.4268391311704627 0.8463447450234299 0
0.5976648697715715 0.6363346101631511 0
0.3873069906302845 0.4572052511486702 0
0.4720471655181278 0.3818492865627452 0
0.8754104219452727 0.3230942729503901 0
0.08441221123080422 0.2554768751534344 0
0.1268915992521529 0.2365865639905046 0
0.8471731982487734 0.1232974553339705 0
0.547867017953752 0.7462906078842899 0
0.5317580124226227 0.8807444244998663 0
0.5780525709712221 0.4511605495129367 0
0.5773661355756405 0.4805182566484154 0
0.551143657790925 0.4944370052703356 0
0.1542282807257439 0.8768252986229583 0
0.6027277498262534 0.4683539172810184 0
0.08499723711933782 0.6116939485427917 0
0.7773740722404875 0.6339279484387805 0
0.4641167959444161 0.2289711443372255 0
0.4301082246402707 0.2080500266590901 0
0.3963676119909937 0.2279873704742674 0
0.3953383122241753 0.18727733624194 0
0.3602287697517945 0.2073719398950369 0
0.3597159909901371 0.1656154363091615 0
0.3234933572017069 0.1869252079166205 0
0.3237458723527457 0.1439615298017938 0
0.2861785113113704 0.1653070889983621 0
0.2867062294460652 0.2098720946476245 0
0.2479362579218449 0.1855566771904798 0
0.2475214229363553 0.1408014999528566 0
0.2082930755716763 0.1611632704922605 0
0.360387956600413 0.1227259008575731 0
0.2074625046330844 0.1205178834308304 0
0.169027467780328 0.1382077576243299 0
0.2482699475725196 0.09037226986715668 0
0.2082606211610346 0.2035448778094697 0
0.5290333492128076 0.5383634688430102 0
0.8877279243618668 0.709614261265477 0
0.8860199217707259 0.753619030360038 0
0.5853864717342711 0.5674511920583247 0
0.5868836090409064 0.5319514450415043 0
0.3875017258096864 0.42769573238196 0
0.359859632373639 0.4397348526759944 0
0.7302566736179571 0.09365597956600941 0
0.1171847737208842 0.8556966699443674 0
0.1183944112026085 0.8124122995092844 0
0.116849878200683 0.900262977157952 0
0.4293449724037249 0.8068120623300543 0
0.4653042561919478 0.8268217991522223 0
0.460947097067031 0.8660868408801066 0
0.9258224037362558 0.7381529565504771 0
0.08871913341106247 0.4822251922124259 0
0.8851638559510973 0.1467741818085586 0
0.8861571415761615 0.1970909538088912 0
0.4640027189902168 0.1010499519569363 0
0.350670863335529 0.8916699136116781 0
0.3621147840805122 0.2472987911674457 0
0.6146253499749037 0.5545697801266878 0
0.5392757837343257 0.09876632857706125 0
0.3534405947675302 0.7573571387152553 0
0.5482910041452365 0.7036649457981423 0
0.7761378389900109 0.5414850647708532 0
0.8846973305887589 0.1007907515718602 0
0.682282036496479 0.2007109031388827 0
0.6771698756017177 0.2434645842521919 0
0.6360895534137023 0.2589660059472187 0
0.7121357449462319 0.2742499102484925 0
0.1985256034160569 0.9073861663902542 0
0.4293686169395743 0.1239472987531717 0
0.5044646622847946 0.5534286417954917 0
0.9132280238448647 0.3945864416200655 0
0.9088797040165397 0.4413871376993657 0
0.5983747497720806 0.6733963831092037 0
0.4708434126594961 0.5015712235980834 0
0.3610102337982113 0.4084084024826725 0
0.7721442783912924 0.07187551921189561 0
0.3251760317964223 0.09974255858438708 0
0.3632236163909528 0.07903268093138127 0
0.9491628344606375 0.4752304374081558 0
0.8978986268550471 0.5272171177011653 0
0.5828308041758343 0.4198999634762939 0
0.0861858265810157 0.2064316394520344 0
0.12899986561763 0.1911472565053717 0
0.6011214470168778 0.4998798706876992 0
0.308007926140794 0.7397043631513626 0
0.6501957864102166 0.9151260519804145 0
0.6883542129336675 0.8889832697617079 0
0.6065490837308669 0.9232596774956918 0
0.6907770608475198 0.8449402893123453 0
0.7289517922011803 0.8700424569593372 0
0.7283441285265002 0.9144198074731131 0
0.7682126354014425 0.8952942405602224 0
0.7676365678185735 0.8508052487571773 0
0.804576849513251 0.8746724723128914 0
0.7719028714255347 0.9479998650904915 0
0.5195517966317229 0.4793137736003663 0
0.4665513457198782 0.5319502574945059 0
0.4975198974700969 0.3637232696419724 0
0.07291664464491282 0.8771269531496789 0
0.1646917734959598 0.4395957096899271 0
0.2066501826607064 0.4628975853605 0
0.9566996601957811 0.3731025112319174 0
0.5017175491304043 0.5851882534804551 0
0.9292998792996958 0.1234732386881098 0
0.4950435171391457 0.4587783569587743 0
0.167064289721445 0.09661969024800965 0
0.1276361580018034 0.1185441530666724 0
0.1265629352012578 0.07283115102574705 0
0.4024094882771133 0.6343360647903539 0
0.9246678695661165 0.7811680473899875 0
0.8822049109811408 0.7951628369071695 0
0.3955019520640033 0.9147836265906371 0
0.08359022521517601 0.3963630632316982 0
0.4685452115047751 0.4718491331830771 0
0.3350870502783609 0.5948624668320581 0
0.3629759662994625 0.5725518489941728 0
0.7217350277505432 0.3159468844842558 0
0.2012116703977221 0.4154468581734944 0
0.237348092966158 0.308794856423741 0
0.2429629153996153 0.2694926892772453 0
0.2746682579888007 0.2902391468896023 0
0.4264574708482196 0.3574538862897385 0
0.4233648204304011 0.3915928015582202 0
0.654172008563177 0.4717512153546539 0
0.6547094733736323 0.4342610592290618 0
0.329888285877959 0.5211860060533596 0
0.4698057045417534 0.04964886500012211 0
0.4760205406547573 0.9579725483364734 0
0.5032179549633353 0.9191513072317103 0
0.4543938759027369 0.9118860977762535 0
0.7862868012108238 0.4976353872569549 0
0.774237252028204 0.6764102036400093 0
0.7285651079643963 0.04450938547743427 0
0.652096336652626 0.08140963105718058 0
0.6023339473506013 0.06025950955915454 0
0.723785162892385 0.1824060237138097 0
0.6360360871574755 0.6254443334355153 0
0.2717608864012859 0.7630528919254869 0
0.2706838925863558 0.332899436298445 0
0.8299299486989508 0.4336853559516519 0
0.1654400680228371 0.2635000471978348 0
0.4617135849727926 0.3479293702690077 0
0.9614100949137774 0.5744585125872359 0
0.9629508312563124 0.6227051840749748 0
0.2763362392406024 0.9581513267896009 0
0.3059707249091094 0.9160047248968943 0
0.2524312570342218 0.9164453502545877 0
0.2252485435824538 0.9563450761308259 0
0.04283252018922173 0.5741881011839521 0
0.9577910420459788 0.2733634295962452 0
0.915925097571588 0.2984324077900192 0
0.9135316052015707 0.2441647447330718 0
0.2751152147627489 0.04312017522560518 0
0.2249011483968631 0.04304296096580928 0
0.04035853912124698 0.7250535464552126 0
0.08041803842596629 0.7008638193870682 0
0.08016440654109575 0.7477616611687246 0
0.6024361675790464 0.2366509249037712 0
0.9153710673178687 0.3470721384023511 0
0.4366533839808567 0.6551590478733151 0
0.04021284250962742 0.7754051369565322 0
0.9598657463649707 0.22313069564373 0
0.1980977630223146 0.5521153683598931 0
0.1233935337717202 0.3728016812668719 0
0.1241893730301757 0.417759875755413 0
0.04211250197377114 0.2769708666206425 0
0.9578744082383759 0.8752252927922195 0
0.9179774674865286 0.901925714640837 0
0.9202127817696573 0.954347313119542 0
0.877047120279247 0.9253012131924581 0
0.8788947656449002 0.8788294206656418 0
0.9168671142903009 0.8548785140326273 0
0.8794094777002148 0.04942728759119447 0
0.04300244514140783 0.1247673941960504 0
0.0926932398692682 0.1527370920266988 0
0.1213402915329579 0.9509710841278703 0
0.7935671584812258 0.4073059802962273 0
0.3241486723984182 0.2287933876432123 0
0.04417860378400029 0.4706915546137374 0
0.6533988052566314 0.8199924154212983 0
0.5433042312198725 0.7895040270044364 0
0.5091993733968824 0.7655655748150003 0
0.5044265921983513 0.8080242937823496 0
0.6894438978871361 0.1140757411319153 0
0.04270211488180314 0.2277062123503528 0
0.5727713236556372 0.9030295084562531 0
0.6296978014934025 0.6642613910435741 0
0.8460335622320239 0.7706546177725163 0
0.8891710937431059 0.6639986313274664 0
0.7369317697794402 0.6567361437625696 0
0.4114371342022093 0.6015238424093442 0
0.7810570204512515 0.5889101046473235 0
0.8106068286037751 0.09768395112600098 0
0.5870980100781441 0.5995875874523297 0
0.233184658277358 0.5754182161474375 0
0.7464288865435531 0.5007404068642888 0
0.8935293589016505 0.5718640401329942 0
0.836811291817832 0.300631515013028 0
0.1576057710234675 0.7000063735747246 0
0.1584044067345546 0.6563025076179864 0
0.6555611504665952 0.7762147599237432 0
0.5717561476189992 0.1287020880326505 0
0.8655048793362166 0.4589438290968932 0
0.7910535193910646 0.4537004503255874 0
0.694468461018101 0.758064171195914 0
0.3739806113880342 0.960633364204083 0
0.8409650199058669 0.2138077913034377 0
0.753696579085583 0.4212982222772236 0
0.04137060080757154 0.6283440174616358 0
0.7385079108590487 0.6161723588720683 0
0.1568696055235476 0.7886919955824715 0
0.2701229722311466 0.7198889284627423 0
0.2672888668756741 0.6740146788026116 0
0.2869814640607762 0.1217834885132894 0
0.3734412212748566 0.7235775690396883 0
0.09446670448018102 0.525171262670816 0
0.3120059631600006 0.8700740153606408 0
0.7368028467881481 0.5377465437747778 0
0.4974528908167654 0.2498793155897985 0
0.3899572671697808 0.7865419605472463 0
0.6904069337745562 0.3398292484065638 0
0.4993819792182917 0.08311810177855233 0
0.5642769075617755 0.06667814395520139 0
0.08690259686898943 0.5681592249820889 0
0.3976416408883056 0.2666233787508151 0
0.55549092332067 0.400048751629384 0
0.6861752268583245 0.1571666106752286 0
0.2875092266064873 0.2548208119081032 0
0.5962831812016436 0.2759283129753444 0
0.08159759182053239 0.6548953279559844 0
0.4368322503326016 0.7671696123238813 0
0.527968646762086 0.346067713374022 0
0.5304461488603249 0.6719927620824779 0
0.3601509040472047 0.5381210974071107 0
0.5272610924571145 0.3813722745969787 0
0.08531737169875447 0.09672037477513074 0
0.08095052733482716 0.04459836893802549 0
0.07346570119936879 0.9589560658334905 0
0.3591610424384122 0.5041064974312057 0
0.1979600884252416 0.5071368585164917 0
0.574411819413667 0.9523978239247738 0
0.3378941001182014 0.7120426340488208 0
0.4983602441036564 0.2094903570845878 0
0.6274449682586041 0.2978955469415434 0
0.2370361381151048 0.5388680758653789 0
0.3871672535188126 0.4884827790955625 0
0.5144139884574879 0.7255633160545996 0
0.9590064766430413 0.07894581464999922 0
0.3286544218466197 0.4491949732564186 0
0.1679893612636907 0.2205701847745895 0
0.3646428010383149 0.2849397394735617 0
0.469742696753743 0.7869416176935028 0
0.6715924740268884 0.2815335107778023 0
0.237689877434931 0.8739718673494162 0
0.304309879269556 0.3187802097522115 0
0.1198739570455521 0.6781547034183193 0
0.8437008448326846 0.8128578507882772 0
0.3298263041868008 0.4140839270088819 0
0.5859063076962461 0.384789535458837 0
0.7206934673201983 0.9587412707584038 0
0.2441193127697395 0.4647967059386712 0
0.900205658572516 0.482700317816372 0
0.5055049464883441 0.5255973597906457 0
0.238353709647318 0.4294053079323558 0
0.8761260406789383 0.2784420105094633 0
0.7300002032311549 0.8261875597568799 0
0.08481097636567492 0.4417517940212911 0
0.4641057703928564 0.1879666498141317 0
0.5002212296160521 0.8467800268368942 0
0.2496203780286587 0.2283986763237689 0
0.3585656570173553 0.4707419328741034 0
0.3295486101979579 0.2680093057692227 0
0.6925989965353683 0.8013773366853372 0
0.4296047271976082 0.1665139077436494 0
0.1189275045047179 0.7232348497033243 0
0.5259878901719802 0.5097746779701113 0
0.5540030912097283 0.5230464250528674 0
0.3755799107029076 0.03733621543414389 0
0.8040455072202013 0.9151298625209334 0
0.6298696152674925 0.9599605286549413 0
0.6464574657377145 0.5452065072575035 0
0.8713473933650732 0.2382955215202497 0
0.118687590652062 0.7685580430066108 0
0.3950048208486862 0.1450303542293788 0
0.8485011283361272 0.08341456937960734 0
0.1524529260066239 0.9197060809366608 0
0.6021348356689158 0.4411759948505625 0
0.3883125828720353 0.5531549719317812 0
0.2886081326551103 0.08153215124694257 0
0.2060615339386401 0.2471790652270834 0
0.4254888713524248 0.8816418874519749 0
0.2037842960786636 0.07930003555700088 0
0.4280977731816923 0.07956091845605751 0
0.7685882719138537 0.8074299744649327 0
0.8743910292124029 0.9662847190396443 0
0.9647512847471015 0.7721885618845148 0
0.08059953434172112 0.7949497844604088 0
0.1694632089888995 0.1781373800869412 0
0.6952733415162908 0.07567435491967267 0
0.9643087692464978 0.7214544437627087 0
0.1251945570910812 0.03181254786352816 0
0.805557356026365 0.8316114303221946 0
0.5743586682442358 0.5060869881252192 0
0.539885357785669 0.9221103924291083 0
0.411168482935407 0.417160896208136 0
0.03111295418725102 0.8750000000000001 0
0.7749999999999999 0.03078148044196222 0
0.9266464775431442 0.6441328027343385 0
0.9272605213952554 0.2003827711301962 0
0.4859806582740945 0.5190667049645635 0
0.9261714773600773 0.691494803865931 0
0.6903530266119402 0.3072587397726967 0
0.5690178755664539 0.03467603501556882 0
0.9273698892528676 0.5971120475797231 0
0.6078082894916039 0.5826682752132865 0
0.8401142798277915 0.899853199378547 0
0.9276971774908968 0.5504875624032075 0
0.8794487029029354 0.8355678733657153 0
0.3954183028938425 0.1026844948811499 0
0.963397459621556 0.9633974596215561 0
0.03660254037844396 0.0366025403784439 0
0.03660254037844368 0.9633974596215562 0
0.3901011717773147 0.5817497625507949 0
0.4516208472471407 0.3973420931213762 0
0.9651423475501708 0.03534174349951003 0
0.390260658425519 0.3998722255642642 0
0.08457906607337728 0.8347981556093882 0
0.6374513949000982 0.03606794307644712 0
0.2765663866597811 0.8851121584918078 0
0.6919497918769781 0.9254577417085165 0
0.6209482919146437 0.5217788611387124 0
0.3494691746197963 0.9304077093603114 0
0.628393579016861 0.4521833934202433 0
0.4921785831165449 0.8837206160552391 0
0.9274560890093969 0.5051805008426091 0
0.08297635257297509 0.9212517761661767 0
0.4906278998228897 0.48139229400253 0
0.9715388657567415 0.124869338125686 0
0.8420487997913213 0.8555653744722111 0
0.6135662189882005 0.6076540150910461 0
0.3706075456995906 0.3824762982974084 0
0.5813847054341007 0.6976650989289033 0
0.3964270334017363 0.06580981605933695 0
0.9124982647681741 0.8169523921858053 0
0.4470696635048901 0.3751471862404805 0
0.6265037308965791 0.4870547567630729 0
0.1342088625390377 0.1541909333156258 0
0.3046476347280912 0.2888259250725183 0
0.9177035416405286 0.167472416522304 0
0.4871727797287448 0.5387097726817331 0
0.9183715236349947 0.07855532846319124 0
0.5781973688803486 0.09424878254646707 0

CELLS 1387 5458
1 0
1 1
1 2
1 3
1 4
2 0 5
2 5 6
2 6 7
2 7 8
2 8 9
2 9 10
2 10 11
2 11 12
2 12 13
2 13 14
2 14 15
2 15 16
2 16 17
2 17 18
2 18 19
2 19 20
2 20 21
2 21 22
2 22 23
2 23 1
2 1 24
2 24 25
2 25 26
2 26 27
2 27 28
2 28 29
2 29 30
2 30 31
2 31 32
2 32 33
2 33 34
2 34 35
2 35 36
2 36 37
2 37 38
2 38 39
2 39 40
2 40 41
2 41 42
2 42 2
2 2 43
2 43 44
2 44 45
2 45 46
2 46 47
2 47 48
2 48 49
2 49 50
2 50 51
2 51 52
2 52 53
2 53 54
2 54 55
2 55 56
2 56 57
2 57 58
2 58 59
2 59 60
2 60 61
2 61 3
2 3 62
2 62 63
2 63 64
2 64 65
2 65 66
2 66 67
2 67 68
2 68 69
2 69 70
2 70 71
2 71 72
2 72 73
2 73 74
2 74 75
2 75 76
2 76 77
2 77 78
2 78 79
2 79 80
2 80 0
3 222 406 224
3 33 418 32
3 156 586 196
3 46 434 97
3 394 632 466
3 47 434 46
3 214 572 400
3 344 481 437
3 90 418 33
3 285 681 400
3 92 518 391
3 401 557 535
3 391 555 92
3 407 487 98
3 400 586 214
3 400 572 285
3 401 535 470
3 437 481 159
3 486 487 407
3 421 514 422
3 222 456 406
3 476 526 342
3 374 493 492
3 399 554 195
3 195 559 399
3 451 469 103
3 100 514 421
3 409 442 298
3 249 404 403
3 101 606 518
3 466 632 102
3 89 562 398
3 117 457 240
3 398 561 89
3 205 579 440
3 196 586 521
3 224 406 249
3 342 526 412
3 104 411 410
3 555 563 92
3 440 600 205
3 32 418 104
3 195 570 559
3 579 584 502
3 412 681 285
3 401 531 194
3 491 621 393
3 518 606 391
3 92 563 488
3 298 689 409
3 205 584 579
3 202 543 470
3 413 676 4
3 559 570 387
3 393 648 491
3 451 630 469
3 194 557 401
3 420 598 204
3 214 586 156
3 389 673 469
3 412 526 243
3 399 581 554
3 410 441 104
3 622 636 496
3 588 597 382
3 580 619 50
3 590 611 396
3 296 499 448
3 466 561 394
3 424 581 399
3 470 535 202
3 403 475 249
3 119 457 117
3 44 508 43
3 240 457 439
3 99 532 415
3 382 597 414
3 136 611 590
3 87 417 416
3 469 673 468
3 204 598 167
3 356 548 488
3 357 549 531
3 543 547 516
3 206 530 448
3 397 620 198
3 385 636 622
3 16 667 474
3 459 567 460
3 639 650 85
3 531 549 194
3 512 690 402
3 427 619 580
3 435 615 4
3 474 652 16
3 424 551 150
3 390 650 639
3 298 442 237
3 414 597 125
3 159 571 437
3 436 689 298
3 206 662 530
3 492 628 374
3 421 524 100
3 588 610 192
3 243 681 412
3 249 406 404
3 198 654 397
3 459 609 567
3 427 580 525
3 580 643 525
3 86 619 425
3 416 628 87
3 202 547 543
3 169 464 204
3 428 612 605
3 104 418 411
3 445 447 94
3 4 676 435
3 4 649 413
3 160 571 159
3 508 659 43
3 457 603 440
3 448 499 149
3 304 453 413
3 237 442 236
3 440 603 600
3 434 618 97
3 454 455 206
3 485 556 395
3 6 576 5
3 299 436 298
3 306 453 304
3 172 464 169
3 125 680 414
3 395 671 485
3 97 655 509
3 439 504 240
3 644 665 462
3 103 545 451
3 275 454 138
3 382 610 588
3 462 665 197
3 407 593 486
3 98 625 407
3 415 646 99
3 108 690 512
3 488 563 356
3 383 472 415
3 514 686 422
3 488 548 69
3 323 552 551
3 605 612 219
3 31 441 30
3 521 591 196
3 47 599 434
3 444 453 309
3 311 444 309
3 448 530 296
3 402 624 512
3 30 441 88
3 138 454 142
3 275 455 454
3 104 441 31
3 54 545 103
3 438 645 93
3 515 675 386
3 475 566 284
3 353 435 317
3 226 475 242
3 453 676 413
3 464 672 204
3 93 666 438
3 309 453 306
3 150 581 424
3 573 578 313
3 216 456 218
3 83 110 109
3 260 376 261
3 204 672 626
3 374 631 493
3 465 578 573
3 282 613 408
3 71 518 92
3 304 413 302
3 551 552 150
3 513 575 514
3 583 592 170
3 461 462 197
3 192 465 133
3 477 551 424
3 100 524 77
3 218 456 222
3 118 478 120
3 455 662 206
3 249 475 226
3 116 458 118
3 129 461 197
3 103 469 467
3 260 442 409
3 618 655 97
3 239 260 259
3 120 478 123
3 505 524 346
3 175 464 172
3 435 444 315
3 183 476 198
3 165 207 163
3 460 594 478
3 425 669 86
3 103 467 53
3 89 466 14
3 83 109 74
3 243 526 187
3 87 617 417
3 452 606 101
3 308 644 462
3 236 442 239
3 460 478 458
3 98 487 58
3 235 237 236
3 317 435 315
3 234 497 213
3 85 483 36
3 90 674 418
3 403 566 475
3 235 236 215
3 490 498 345
3 471 529 357
3 147 448 149
3 239 442 260
3 120 122 121
3 118 120 119
3 346 524 421
3 116 118 117
3 479 543 516
3 200 471 209
3 462 663 308
3 447 640 94
3 325 477 327
3 522 591 521
3 140 481 461
3 303 304 302
3 145 206 147
3 109 452 101
3 345 498 273
3 301 302 299
3 613 623 408
3 297 298 237
3 260 409 376
3 423 670 380
3 273 498 410
3 458 478 118
3 344 684 481
3 302 436 299
3 209 471 228
3 514 575 446
3 129 197 127
3 191 499 235
3 213 497 190
3 390 639 635
3 315 444 311
3 405 592 583
3 34 482 90
3 114 116 115
3 410 498 441
3 484 485 82
3 142 454 145
3 242 475 284
3 110 452 109
3 169 204 167
3 321 504 439
3 439 440 320
3 208 463 177
3 118 119 117
3 120 121 119
3 122 124 121
3 425 619 427
3 83 505 111
3 494 500 66
3 496 500 494
3 489 501 28
3 472 646 415
3 56 484 82
3 179 208 177
3 349 400 266
3 491 501 489
3 191 235 215
3 135 465 275
3 131 192 133
3 111 112 110
3 116 117 115
3 260 261 259
3 390 635 449
3 206 448 147
3 529 549 357
3 467 468 91
3 352 353 317
3 350 643 468
3 235 499 296
3 353 615 435
3 183 198 181
3 463 464 175
3 111 505 346
3 8 493 94
3 334 399 337
3 140 461 129
3 441 498 88
3 133 465 135
3 439 457 440
3 396 517 362
3 113 114 112
3 240 503 115
3 114 115 112
3 115 503 112
3 154 191 156
3 83 111 110
3 576 660 5
3 159 481 152
3 318 502 248
3 404 405 265
3 177 463 175
3 470 543 292
3 290 470 292
3 149 499 154
3 191 215 214
3 58 487 57
3 110 503 452
3 288 401 290
3 52 467 91
3 13 466 102
3 73 109 101
3 204 626 420
3 301 303 302
3 330 334 333
3 405 568 497
3 145 147 146
3 81 495 494
3 88 498 490
3 520 521 349
3 256 357 286
3 88 490 489
3 322 653 647
3 92 488 70
3 327 477 330
3 401 470 290
3 334 477 424
3 334 337 333
3 35 483 482
3 265 497 234
3 318 579 502
3 339 387 341
3 435 676 444
3 479 542 292
3 589 629 480
3 467 469 468
3 297 299 298
3 267 520 349
3 199 458 116
3 248 502 246
3 440 579 320
3 587 677 443
3 147 149 148
3 503 504 452
3 509 634 97
3 49 86 48
3 18 84 17
3 30 88 29
3 68 81 67
3 11 87 10
3 56 82 55
3 15 89 14
3 54 103 53
3 71 92 70
3 34 90 33
3 32 104 31
3 75 83 74
3 52 91 51
3 73 101 72
3 13 102 12
3 37 85 36
3 468 673 350
3 145 454 206
3 236 239 238
3 288 531 401
3 154 499 191
3 123 125 122
3 87 492 10
3 387 591 388
3 81 494 67
3 164 165 163
3 88 489 29
3 413 436 302
3 357 531 286
3 334 424 399
3 158 159 152
3 163 571 160
3 176 177 175
3 330 477 334
3 502 534 246
3 35 482 34
3 162 163 160
3 142 145 144
3 220 516 217
3 356 569 548
3 174 175 172
3 228 471 256
3 18 472 84
3 405 497 265
3 149 154 153
3 296 297 237
3 473 523 294
3 314 315 311
3 135 275 138
3 459 460 458
3 111 113 112
3 185 476 183
3 166 167 165
3 609 629 375
3 399 559 337
3 126 127 125
3 263 607 282
3 339 559 387
3 114 199 116
3 57 484 56
3 506 511 96
3 131 588 192
3 319 320 318
3 114 480 199
3 152 481 140
3 548 569 81
3 53 467 52
3 74 109 73
3 14 466 13
3 308 309 306
3 256 286 257
3 87 628 492
3 286 288 287
3 112 503 110
3 244 266 243
3 484 486 485
3 36 483 35
3 288 290 289
3 492 493 9
3 120 123 122
3 228 256 254
3 124 131 130
3 128 129 127
3 387 388 341
3 70 488 69
3 9 493 8
3 268 519 270
3 283 318 248
3 330 333 332
3 77 524 76
3 256 471 357
3 240 504 503
3 267 349 266
3 321 439 320
3 113 480 114
3 252 516 220
3 449 635 96
3 509 510 507
3 495 496 494
3 139 140 129
3 403 404 265
3 125 597 122
3 349 586 400
3 290 292 291
3 189 243 187
3 490 491 489
3 89 561 466
3 327 330 329
3 362 517 364
3 236 238 215
3 105 507 506
3 360 396 362
3 396 611 517
3 274 479 252
3 66 500 65
3 264 265 234
3 28 501 27
3 10 492 9
3 67 494 66
3 29 489 28
3 479 516 252
3 57 487 484
3 65 500 93
3 459 629 609
3 167 598 165
3 59 515 98
3 27 501 95
3 310 311 309
3 75 505 83
3 323 551 325
3 131 133 132
3 520 522 521
3 510 511 507
3 191 214 156
3 507 511 506
3 174 176 175
3 224 249 226
3 239 259 258
3 198 620 181
3 386 625 515
3 270 519 277
3 19 472 18
3 368 375 370
3 60 515 59
3 106 645 438
3 105 508 507
3 145 146 144
3 141 534 137
3 577 675 515
3 168 169 167
3 508 509 507
3 242 284 279
3 364 517 367
3 108 512 22
3 105 506 41
3 107 513 79
3 337 339 338
3 40 96 39
3 21 99 20
3 65 93 64
3 27 95 26
3 59 98 58
3 8 94 7
3 78 100 77
3 46 97 45
3 364 367 366
3 269 520 267
3 325 551 477
3 271 272 269
3 513 514 100
3 393 546 280
3 40 506 96
3 21 512 99
3 78 513 100
3 277 428 426
3 117 240 115
3 147 148 146
3 256 257 254
3 41 506 40
3 79 513 78
3 22 512 21
3 429 432 431
3 292 542 291
3 443 690 587
3 63 106 62
3 23 108 22
3 80 107 79
3 42 105 41
3 158 160 159
3 178 179 177
3 490 604 491
3 72 518 71
3 385 550 336
3 286 287 257
3 76 505 75
3 124 130 121
3 284 566 523
3 570 591 387
3 101 518 72
3 465 573 275
3 235 296 237
3 199 459 458
3 162 164 163
3 288 289 287
3 133 135 134
3 272 520 269
3 305 306 304
3 360 564 396
3 149 153 148
3 176 178 177
3 392 393 280
3 405 583 568
3 330 332 329
3 154 156 155
3 496 636 500
3 303 305 304
3 300 301 299
3 277 519 428
3 283 319 318
3 384 385 336
3 339 341 340
3 347 480 113
3 337 338 333
3 290 291 289
3 189 244 243
3 274 542 479
3 263 282 281
3 244 267 266
3 473 667 84
3 123 126 125
3 76 524 505
3 284 383 279
3 346 347 113
3 264 403 265
3 380 642 423
3 209 228 227
3 164 166 165
3 292 543 479
3 491 648 501
3 232 263 262
3 192 578 465
3 319 321 320
3 428 429 426
3 316 317 315
3 216 560 456
3 126 128 127
3 179 620 208
3 449 450 378
3 166 168 167
3 228 254 253
3 271 350 272
3 107 575 513
3 432 433 431
3 308 310 309
3 203 534 141
3 200 529 471
3 314 316 315
3 154 155 153
3 128 139 129
3 229 246 203
3 184 185 183
3 186 187 185
3 131 132 130
3 647 653 483
3 182 183 181
3 484 487 486
3 139 564 151
3 171 172 169
3 55 545 54
3 69 548 68
3 367 368 366
3 421 422 347
3 180 181 179
3 218 222 221
3 495 614 496
3 210 219 201
3 151 152 140
3 282 408 394
3 261 380 379
3 402 443 392
3 284 523 383
3 251 252 220
3 386 438 384
3 11 617 87
3 102 617 12
3 133 134 132
3 446 447 445
3 119 603 457
3 335 407 354
3 211 323 230
3 135 138 137
3 323 325 324
3 187 526 185
3 139 151 140
3 270 277 276
3 277 426 425
3 257 528 254
3 222 224 223
3 228 253 227
3 173 174 172
3 373 446 445
3 339 340 338
3 273 274 252
3 429 431 430
3 111 346 113
3 286 531 288
3 254 377 253
3 226 242 241
3 327 329 328
3 297 300 299
3 242 279 278
3 348 402 392
3 247 248 246
3 188 189 187
3 450 527 378
3 325 327 326
3 233 234 213
3 193 360 359
3 224 226 225
3 287 322 257
3 342 679 476
3 354 386 384
3 388 389 341
3 410 411 274
3 250 264 234
3 312 314 311
3 372 374 369
3 406 592 404
3 51 580 50
3 278 280 241
3 377 378 253
3 151 564 193
3 348 392 280
3 86 599 48
3 383 415 279
3 268 269 267
3 272 522 520
3 178 180 179
3 184 186 185
3 261 379 259
3 429 430 426
3 239 258 238
3 99 624 532
3 263 281 262
3 182 184 183
3 322 528 257
3 135 137 134
3 335 336 328
3 375 629 589
3 346 421 347
3 485 671 82
3 277 425 276
3 185 526 476
3 431 434 430
3 390 449 378
3 186 188 187
3 168 171 169
3 180 182 181
3 368 370 369
3 270 271 269
3 333 556 332
3 61 577 60
3 354 384 336
3 161 162 160
3 242 278 241
3 377 390 378
3 142 144 143
3 351 352 317
3 209 227 210
3 278 348 280
3 370 373 372
3 222 223 221
3 138 142 141
3 425 427 276
3 329 335 328
3 251 273 252
3 174 202 176
3 323 324 230
3 307 308 306
3 227 231 210
3 226 241 225
3 255 283 248
3 186 200 188
3 443 677 95
3 282 394 281
3 244 268 267
3 200 209 201
3 4 615 602
3 270 276 271
3 268 270 269
3 374 553 369
3 82 545 55
3 275 573 455
3 327 328 326
3 558 582 212
3 291 419 289
3 266 681 243
3 229 247 246
3 209 210 201
3 335 354 336
3 225 245 223
3 362 364 363
3 224 225 223
3 250 294 264
3 325 326 324
3 157 158 152
3 355 423 352
3 68 548 81
3 161 212 190
3 273 410 274
3 207 574 571
3 340 451 395
3 469 630 389
3 200 201 188
3 360 362 361
3 364 366 365
3 156 196 155
3 218 221 220
3 250 295 294
3 340 395 338
3 370 372 369
3 247 293 255
3 373 445 372
3 251 345 273
3 301 313 303
3 233 250 234
3 232 582 263
3 146 150 144
3 368 369 366
3 207 598 565
3 171 173 172
3 184 529 186
3 221 251 220
3 422 589 347
3 416 417 371
3 565 598 420
3 143 203 141
3 254 528 377
3 326 331 324
3 516 547 217
3 238 572 215
3 246 534 203
3 365 371 363
3 295 473 294
3 218 220 217
3 296 530 297
3 180 194 182
3 212 232 213
3 502 584 534
3 305 307 306
3 166 170 168
3 216 218 217
3 268 540 519
3 219 544 201
3 212 213 190
3 382 414 381
3 295 474 473
3 161 190 162
3 607 613 282
3 142 143 141
3 232 233 213
3 171 216 173
3 232 262 233
3 368 609 375
3 620 670 208
3 211 229 203
3 324 538 230
3 207 571 163
3 138 141 137
3 211 230 229
3 281 398 262
3 310 312 311
3 497 568 190
3 151 193 157
3 158 161 160
3 578 585 313
3 173 547 174
3 365 416 371
3 364 365 363
3 247 255 248
3 428 605 429
3 271 525 350
3 253 527 227
3 155 195 153
3 319 391 321
3 415 532 279
3 316 351 317
3 343 381 307
3 316 420 351
3 371 658 623
3 343 382 381
3 279 532 278
3 358 582 558
3 216 217 173
3 94 631 445
3 289 536 287
3 161 558 212
3 360 361 359
3 351 355 352
3 362 363 361
3 151 157 152
3 337 559 339
3 227 527 231
3 305 343 307
3 176 535 178
3 193 359 358
3 143 211 203
3 81 569 495
3 478 594 123
3 134 205 132
3 378 527 253
3 126 136 128
3 411 542 274
3 186 529 200
3 15 652 89
3 293 356 255
3 211 552 323
3 37 639 85
3 287 536 322
3 276 525 271
3 278 532 348
3 380 670 397
3 193 358 157
3 189 540 244
3 297 530 300
3 427 525 276
3 174 547 202
3 89 652 562
3 280 546 241
3 258 342 285
3 474 667 473
3 522 608 388
3 91 580 51
3 50 619 49
3 259 533 258
3 188 544 189
3 523 566 294
3 294 566 264
3 310 344 312
3 332 593 329
3 320 579 318
3 419 536 289
3 121 603 119
3 19 646 472
3 542 601 291
3 380 397 379
3 344 437 312
3 150 552 144
3 244 540 268
3 331 538 324
3 336 550 328
3 571 574 437
3 285 572 238
3 217 547 173
3 144 552 143
3 335 593 407
3 345 604 490
3 264 566 403
3 202 535 176
3 369 553 366
3 201 544 188
3 418 601 411
3 223 537 221
3 221 537 251
3 60 577 515
3 247 539 293
3 258 533 342
3 251 537 345
3 193 564 360
3 338 556 333
3 521 586 349
3 229 539 247
3 245 537 223
3 342 412 285
3 230 539 229
3 190 568 162
3 241 546 225
3 189 544 540
3 567 609 367
3 124 597 588
3 215 572 214
3 182 549 184
3 225 546 245
3 162 568 164
3 446 575 447
3 122 597 124
3 366 553 365
3 538 539 230
3 184 549 529
3 233 541 250
3 517 567 367
3 158 558 161
3 250 541 295
3 124 588 131
3 328 550 326
3 379 533 259
3 283 555 319
3 153 554 148
3 258 285 238
3 157 558 158
3 262 541 233
3 365 553 416
3 326 550 331
3 538 595 539
3 165 598 207
3 575 576 447
3 261 616 380
3 398 541 262
3 395 556 338
3 604 621 491
3 312 574 314
3 194 549 182
3 519 612 428
3 143 552 211
3 539 595 293
3 255 563 283
3 148 581 146
3 146 581 150
3 97 634 45
3 178 557 180
3 291 601 419
3 96 635 39
3 578 610 585
3 350 608 272
3 195 554 153
3 25 587 24
3 314 565 316
3 84 638 473
3 614 622 496
3 438 675 106
3 404 592 405
3 293 569 356
3 166 583 170
3 17 667 16
3 168 560 171
3 170 560 168
3 358 558 157
3 164 583 166
3 319 555 391
3 180 557 194
3 107 576 575
3 394 561 281
3 623 658 408
3 171 560 216
3 99 646 20
3 281 561 398
3 565 574 207
3 283 563 555
3 94 640 7
3 316 565 420
3 564 590 396
3 473 638 523
3 409 602 376
3 91 643 580
3 123 594 126
3 535 557 178
3 534 584 137
3 93 645 64
3 356 563 255
3 615 616 376
3 212 582 232
3 63 645 106
3 437 574 312
3 388 591 522
3 137 584 134
3 48 599 47
3 375 637 370
3 196 570 155
3 431 618 434
3 554 581 148
3 568 583 164
3 480 629 199
3 95 677 26
3 155 570 195
3 348 624 402
3 359 607 358
3 313 585 303
3 504 606 452
3 493 631 94
3 329 593 335
3 105 659 508
3 2 659 42
3 0 660 80
3 43 659 2
3 5 660 0
3 3 661 61
3 62 661 3
3 134 584 205
3 407 625 354
3 347 589 480
3 314 574 565
3 537 604 345
3 272 608 522
3 96 683 449
3 245 604 537
3 434 599 430
3 132 600 130
3 205 600 132
3 429 605 432
3 136 590 128
3 411 601 542
3 1 664 23
3 24 664 1
3 393 621 546
3 358 607 582
3 450 596 527
3 389 630 341
3 210 633 219
3 128 590 139
3 525 643 350
3 371 623 363
3 130 603 121
3 456 651 406
3 303 585 305
3 126 594 136
3 376 616 261
3 301 627 313
3 353 616 615
3 372 631 374
3 527 596 231
3 321 606 504
3 385 622 550
3 340 630 451
3 139 590 564
3 305 585 343
3 86 669 599
3 582 607 263
3 313 627 573
3 367 609 368
3 192 610 578
3 388 608 389
3 426 669 425
3 293 595 569
3 562 652 474
3 589 637 375
3 377 650 390
3 322 647 528
3 196 591 570
3 420 626 351
3 460 687 594
3 49 619 86
3 383 638 472
3 295 691 474
3 567 687 460
3 515 625 98
3 600 603 130
3 544 612 540
3 670 685 208
3 446 686 514
3 481 684 461
3 474 691 562
3 585 610 343
3 391 606 321
3 343 610 382
3 423 685 670
3 422 637 589
3 95 688 443
3 219 612 544
3 307 644 308
3 361 613 359
3 397 670 620
3 569 595 495
3 219 633 605
3 12 617 11
3 540 612 519
3 25 677 587
3 44 634 508
3 127 680 125
3 472 638 84
3 433 618 431
3 374 628 553
3 181 620 179
3 432 641 433
3 384 666 385
3 476 679 198
3 308 663 310
3 352 642 353
3 413 649 436
3 6 640 576
3 512 624 99
3 85 647 483
3 517 611 567
3 423 642 352
3 483 653 482
3 354 625 386
3 359 613 607
3 444 676 453
3 599 669 430
3 245 621 604
3 397 654 379
3 363 623 361
3 602 615 376
3 102 682 617
3 331 614 538
3 482 656 90
3 300 627 301
3 451 671 395
3 361 623 613
3 611 687 567
3 402 690 443
3 331 622 614
3 208 685 463
3 545 671 451
3 332 668 593
3 107 660 576
3 351 626 355
3 633 641 432
3 392 688 393
3 197 680 127
3 461 684 462
3 595 614 495
3 546 621 245
3 532 624 348
3 341 630 340
3 406 651 592
3 422 686 637
3 538 614 595
3 550 622 331
3 573 627 455
3 199 629 459
3 445 631 372
3 562 691 398
3 45 634 44
3 408 632 394
3 508 634 509
3 576 640 447
3 510 657 511
3 39 635 38
3 635 639 38
3 468 643 91
3 463 672 464
3 231 633 210
3 605 633 432
3 553 628 416
3 511 683 96
3 556 668 332
3 500 636 93
3 386 675 438
3 38 639 37
3 533 679 342
3 400 681 266
3 657 683 511
3 84 667 17
3 7 640 6
3 501 648 95
3 61 661 577
3 616 642 380
3 20 646 19
3 370 637 373
3 64 645 63
3 231 641 633
3 509 655 510
3 485 668 556
3 398 691 541
3 16 652 15
3 486 668 485
3 593 668 486
3 627 662 455
3 438 666 384
3 523 638 383
3 381 644 307
3 353 642 616
3 23 664 108
3 80 660 107
3 106 661 62
3 42 659 105
3 450 683 657
3 655 678 510
3 300 662 627
3 637 686 373
3 419 674 656
3 385 666 636
3 656 674 90
3 381 665 644
3 443 688 392
3 417 658 371
3 433 678 655
3 26 677 25
3 414 665 381
3 602 649 4
3 310 663 344
3 528 650 377
3 373 686 446
3 379 654 533
3 536 653 322
3 430 669 426
3 577 661 106
3 419 656 536
3 560 651 456
3 530 662 300
3 449 683 450
3 82 671 545
3 596 641 231
3 641 678 433
3 592 651 170
3 393 688 648
3 136 687 611
3 601 674 419
3 170 651 560
3 594 687 136
3 108 664 587
3 350 673 608
3 587 664 24
3 355 685 423
3 536 656 653
3 106 675 577
3 463 685 672
3 672 685 355
3 450 657 596
3 653 656 482
3 408 658 632
3 433 655 618
3 541 691 295
3 587 690 108
3 418 674 601
3 462 684 663
3 665 680 197
3 608 673 389
3 617 682 417
3 658 682 632
3 649 689 436
3 626 672 355
3 596 678 641
3 647 650 528
3 409 689 602
3 198 679 654
3 85 650 647
3 636 666 93
3 417 682 658
3 632 682 102
3 510 678 657
3 654 679 533
3 657 678 596
3 414 680 665
3 648 688 95
3 663 684 344
3 602 689 649

CELL_TYPES 1387
1
1
1
1
1
3
3
3
3
3
3
3
3
3
3
3
3
3
3
3
3
3
3
3
3
3
3
3
3
3
3
3
3
3
3
3
3
3
3
3
3
3
3
3
3
3
3
3
3
3
3
3
3
3
3
3
3
3
3
3
3
3
3
3
3
3
3
3
3
3
3
3
3
3
3
3
3
3
3
3
3
3
3
3
3
5
5
5
5
5
5
5
5
5
5
5
5
5
5
5
5
5
5
5
5
5
5
5
5
5
5
5
5
5
5
5
5
5
5
5
5
5
5
5
5
5
5
5
5
5
5
5
5
5
5
5
5
5
5
5
5
5
5
5
5
5
5
5
5
5
5
5
5
5
5
5
5
5
5
5
5
5
5
5
5
5
5
5
5
5
5
5
5
5
5
5
5
5
5
5
5
5
5
5
5
5
5
5
5
5
5
5
5
5
5
5
5
5
5
5
5
5
5
5
5
5
5
5
5
5
5
5
5
5
5
5
5
5
5
5
5
5
5
5
5
5
5
5
5
5
5
5
5
5
5
5
5
5
5
5
5
5
5
5
5
5
5
5
5
5
5
5
5
5
5
5
5
5
5
5
5
5
5
5
5
5
5
5
5
5
5
5
5
5
5
5
5
5
5
5
5
5
5
5
5
5
5
5
5
5
5
5
5
5
5
5
5
5
5
5
5
5
5
5
5
5
5
5
5
5
5
5
5
5
5
5
5
5
5
5
5
5
5
5
5
5
5
5
5
5
5
5
5
5
5
5
5
5
5
5
5
5
5
5
5
5
5
5
5
5
5
5
5
5
5
5
5
5
5
5
5
5
5
5
5
5
5
5
5
5
5
5
5
5
5
5
5
5
5
5
5
5
5
5
5
5
5
5
5
5
5
5
5
5
5
5
5
5
5
5
5
5
5
5
5
5
5
5
5
5
5
5
5
5
5
5
5
5
5
5
5
5
5
5
5
5
5
5
5
5
5
5
5
5
5
5
5
5
5
5
5
5
5
5
5
5
5
5
5
5
5
5
5
5
5
5
5
5
5
5
5
5
5
5
5
5
5
5
5
5
5
5
5
5
5
5
5
5
5
5
5
5
5
5
5
5
5
5
5
5
5
5
5
5
5
5
5
5
5
5
5
5
5
5
5
5
5
5
5
5
5
5
5
5
5
5
5
5
5
5
5
5
5
5
5
5
5
5
5
5
5
5
5
5
5
5
5
5
5
5
5
5
5
5
5
5
5
5
5
5
5
5
5
5
5
5
5
5
5
5
5
5
5
5
5
5
5
5
5
5
5
5
5
5
5
5
5
5
5
5
5
5
5
5
5
5
5
5
5
5
5
5
5
5
5
5
5
5
5
5
5
5
5
5
5
5
5
5
5
5
5
5
5
5
5
5
5
5
5
5
5
5
5
5
5
5
5
5
5
5
5
5
5
5
5
5
5
5
5
5
5
5
5
5
5
5
5
5
5
5
5
5
5
5
5
5
5
5
5
5
5
5
5
5
5
5
5
5
5
5
5
5
5
5
5
5
5
5
5
5
5
5
5
5
5
5
5
5
5
5
5
5
5
5
5
5
5
5
5
5
5
5
5
5
5
5
5
5
5
5
5
5
5
5
5
5
5
5
5
5
5
5
5
5
5
5
5
5
5
5
5
5
5
5
5
5
5
5
5
5
5
5
5
5
5
5
5
5
5
5
5
5
5
5
5
5
5
5
5
5
5
5
5
5
5
5
5
5
5
5
5
5
5
5
5
5
5
5
5
5
5
5
5
5
5
5
5
5
5
5
5
5
5
5
5
5
5
5
5
5
5
5
5
5
5
5
5
5
5
5
5
5
5
5
5
5
5
5
5
5
5
5
5
5
5
5
5
5
5
5
5
5
5
5
5
5
5
5
5
5
5
5
5
5
5
5
5
5
5
5
5
5
5
5
5
5
5
5
5
5
5
5
5
5
5
5
5
5
5
5
5
5
5
5
5
5
5
5
5
5
5
5
5
5
5
5
5
5
5
5
5
5
5
5
5
5
5
5
5
5
5
5
5
5
5
5
5
5
5
5
5
5
5
5
5
5
5
5
5
5
5
5
5
5
5
5
5
5
5
5
5
5
5
5
5
5
5
5
5
5
5
5
5
5
5
5
5
5
5
5
5
5
5
5
5
5
5
5
5
5
5
5
5
5
5
5
5
5
5
5
5
5
5
5
5
5
5
5
5
5
5
5
5
5
5
5
5
5
5
5
5
5
5
5
5
5
5
5
5
5
5
5
5
5
5
5
5
5
5
5
5
5
5
5
5
5
5
5
5
5
5
5
5
5
5
5
5
5
5
5
5
5
5
5
5
5
5
5
5
5
5
5
5
5
5
5
5
5
5
5
5
5
5
5
5
5
5
5
5
5
5
5
5
5
5
5
5
5
5
5
5
5
5
5
5
5
5
5
5
5
5
5
5
5
5
5
5
5
5
5
5
5
5
5
5
5
5
5
5
5
5
5
5
5
5
5
5
5
5
5
5
5
5
5
5
5
5
5
5
5
5
5
5
5
5
5
5
5
5
5
5
5
5
5
5
5
5
5
5
5
5
5
5
5
5
5
5
5
5
5
5
5
5
5
5
5
5
5
5
5
5
5
5
5
5
5
5
5
5
5
5
5
5
5
5
5
5
5
5
5
5
5
5
5
5
5
5
5
5
5
5
5
5
5
5
5
5
5
5
5
5
5
5
5
5
5
5
5
5
5
5
5
5
5
5
5
5
5
5
5
5
5
5
5
5
5
5
5
5
5
5
5
5
5
5
5
5
5
5
5
5
5
5
5
5
5
5
5
5
5
5
5
5
5
5
5
5
5
5
5
5
5
5
5
5
5
5
5
5
5
5
5
5
5
5
5
5
5
5
5
5
5
5
5
5
5
5
5
5
5
5
5
5
5
5
5
5
5
5
5
5
5
5
5
5
5
5
5
5
5
5
5
5
5
5
5
5
5
5
5
5
5
5
5
5
5
5
5
5
5
5
5
5
5
5
5
5
5
5
5
5
5
5
5
5
5
5
5
5
5
5
5
5
5
5
5
5
5
5
5
5
5
5
5
5
5
5
5
5
5
5
5
5
5
5
5
5
5
5
5
5
5
5
5
5
5
5
