MESH dimension 3 ElemType Quadrilateral Nnode 4
Coordinates
    1               0               0               0
    2               0               0           30.48
    3      30.8941884               0               0
    4      30.8655772               0      31.1307715
    5               0               0           60.96
    6      62.6105669               0               0
    7      30.4251662               0      62.0048039
    8      62.3815448               0      32.8163311
    9      60.4802386               0      63.7833305
   10               0               0           91.44
   11      95.1576326               0               0
   12      29.7442402               0      91.7025819
   13      93.7451633               0      34.0301313
   14      58.0533916               0       91.989828
   15      89.4327589               0      65.4936165
   16               0               0          121.92
   17      29.9597753               0      120.114091
   18      82.9103171               0      92.5779617
   19      128.543054               0               0
   20      57.2703141               0       116.19091
   21      125.479306               0      35.2912632
   22      117.450961               0      68.3906475
   23         77.7913               0      113.157426
   24      106.363818               0      99.6709761
   25      32.2334741               0      147.137899
   26               0               0           152.4
   27      63.2767897               0      139.502295
   28      89.3231478               0      124.616211
   29      158.425959               0      36.5327407
   30      162.773609               0               0
   31       148.52796               0      73.1067345
   32      130.516744               0       109.03024
   33      105.969362               0      142.653713
   34      71.6994178               0      164.504365
   35      35.6973313               0       176.53521
   36               0               0          182.88
   37      192.296517               0      37.8072291
   38      180.507184               0       77.521318
   39      197.855121               0               0
   40      161.205838               0      120.689536
   41      79.6453934               0      193.936561
   42      38.1943401               0      206.531274
   43               0               0          213.36
   44      130.196164               0      170.755922
   45      227.618174               0      39.1433788
   46      216.518985               0      80.4015224
   47      233.792401               0               0
   48      200.698346               0       124.63117
   49      37.6327647               0      240.651958
   50               0               0          243.84
   51      78.4594228               0      233.123021
   52      181.618258               0      172.133957
   53      123.458518               0      223.077671
   54      264.924452               0      40.2155931
   55      255.245787               0      82.0931624
   56      270.589179               0               0
   57      242.665756               0      126.317261
   58               0               0          274.32
   59       36.579121               0      273.384081
   60      169.148538               0        221.1585
   61      75.4713763               0      270.088287
   62      228.493012               0      172.470349
   63      116.029946               0       267.27324
   64               0               0           304.8
   65      303.640132               0      40.6239433
   66      296.089406               0       82.455871
   67      308.248045               0               0
   68      215.167344               0      220.980463
   69       34.468026               0      306.668015
   70      158.412961               0      266.578314
   71      286.225878               0      126.074362
   72      70.8170156               0      306.572805
   73      274.153285               0      173.160651
   74       108.94916               0      306.252449
   75               0               0          335.28
   76      202.478173               0      268.144837
   77      33.2903581               0      337.827214
   78       148.68185               0      307.151803
   79      262.137895               0      222.117226
   80      343.162113               0      40.6978328
   81      68.0350462               0       339.31151
   82      346.770388               0               0
   83       336.91486               0      82.5577217
   84      328.679858               0      126.383563
   85      102.954494               0      341.427073
   86      319.485597               0      172.712296
   87      188.805682               0      311.957606
   88               0               0          365.76
   89      249.221461               0      271.631765
   90      31.7191635               0      369.039857
   91      138.559596               0      343.818842
   92      65.0783174               0       371.41895
   93      309.924139               0      221.786709
   94      383.295964               0      40.7230363
   95      386.156338               0               0
   96      99.8521327               0      373.527203
   97      378.137368               0      82.4306152
   98      172.301861               0      348.289599
   99      371.381107               0        125.9403
  100      231.302742               0       321.05492
  101               0               0          396.24
  102      133.578513               0      375.676386
  103      30.8424583               0      399.189366
  104       364.17052               0       171.29865
  105      160.040258               0      371.658881
  106      298.328367               0      274.970135
  107      62.9458274               0      402.152365
  108       203.01606               0      360.909758
  109      97.7972067               0      405.586405
  110      357.421248               0      218.485777
  111      424.169545               0      40.6914806
  112      174.383824               0       389.01687
  113      426.404702               0               0
  114               0               0          426.72
  115        419.8852               0       82.012814
  116      30.1016245               0      429.161191
  117      138.311356               0      409.706536
  118      414.301424               0      124.591514
  119      61.2452693               0      431.900237
  120      281.704169               0      337.715968
  121       408.39413               0      168.056228
  122      350.558905               0      268.642728
  123       92.592536               0      435.462215
  124      234.219235               0      383.283855
  125      196.123675               0      412.023083
  126      403.174843               0      213.908932
  127               0               0           457.2
  128      123.308359               0      440.543733
  129      29.4442063               0      458.738769
  130      163.454604               0       433.23261
  131      59.3410894               0      460.825178
  132      467.512915               0               0
  133      465.925946               0       40.720077
  134      462.069386               0      81.7508388
  135      144.278486               0      447.714971
  136      343.987801               0      321.526568
  137      89.4203802               0      464.053388
  138      457.104027               0      123.375511
  139      398.760589               0      261.305577
  140      451.806291               0       166.12893
  141      118.492662               0      467.962328
  142               0               0          487.68
  143      29.0503709               0      488.118944
  144      253.348112               0      418.258218
  145      298.768804               0      389.122514
  146      212.437037               0      442.558998
  147      146.072496               0      469.368571
  148      176.325402               0      459.363397
  149      58.3003458               0      489.751409
  150      447.044016               0      210.082025
  151      87.3049909               0      492.366626
  152      394.929432               0      310.306332
  153      347.070514               0      371.273074
  154       116.22868               0      496.028074
  155      509.476981               0               0
  156      508.110123               0      40.9421995
  157       504.77224               0      82.0795669
  158       443.40694               0      255.331515
  159      500.515427               0      123.760474
  160               0               0          518.16
  161      29.0004052               0      517.612399
  162      147.323089               0      499.457949
  163      57.5546891               0      518.097683
  164      495.786538               0       166.21227
  165      184.628656               0      491.840445
  166      85.2705574               0      519.633632
  167      225.708659               0      477.369265
  168      269.017323               0      457.021876
  169      308.534177               0      431.547213
  170      393.720803               0       359.72527
  171      490.885264               0      209.531504
  172      440.287232               0      301.928034
  173      112.278967               0      524.550576
  174      349.991727               0      417.867072
  175      29.2848691               0      547.015726
  176      486.306953               0      253.535122
  177               0               0          548.64
  178      57.6717255               0      545.769148
  179      83.6213938               0      544.870407
  180      552.291427               0               0
  181      550.934324               0      41.4537975
  182      103.594333               0      543.792758
  183      548.508202               0      82.7483181
  184      144.514402               0      539.607491
  185      545.087032               0      125.236365
  186      438.281398               0      349.861012
  187      315.917224               0        464.4063
  188      190.136278               0      530.742712
  189       540.64945               0      167.953857
  190      482.164272               0       298.23248
  191      394.287624               0      408.319948
  192      236.751622               0      518.055742
  193      115.196516               0       561.57014
  194      534.652809               0      211.338563
  195      87.9489598               0       570.28609
  196      59.5479258               0      574.471915
  197      30.1182032               0       576.79021
  198      290.309295               0      500.363616
  199               0               0          579.12
  200       349.95215               0      461.677011
  201      528.407329               0      252.918691
  202      479.083705               0      343.147453
  203      439.307538               0      398.787047
  204      595.949254               0               0
  205      594.827544               0      42.1246723
  206      592.762688               0      83.6803289
  207      522.794752               0      295.808519
  208      159.143808               0      580.826853
  209      590.675048               0      126.482809
  210      394.635968               0      457.672982
  211      199.897947               0      571.626847
  212      124.728369               0      592.594221
  213      93.4378045               0      600.275913
  214      31.1717412               0      607.681722
  215      62.3365327               0      605.341589
  216               0               0           609.6
  217      340.675763               0      506.684252
  218      587.594004               0       171.48213
  219      242.683206               0      563.198182
  220      477.822325               0      385.348347
  221      578.669195               0      214.950202
  222      518.066826               0      339.147973
  223      569.647936               0      257.273817
  224      290.040685               0      555.284459
  225      561.865334               0      297.546562
  226      448.185062               0      452.406916
  227      478.905474               0      420.288963
  228      387.401856               0      508.604083
  229               0               0          640.08
  230      32.1159469               0      639.294468
  231      640.441893               0               0
  232      639.194525               0      42.7205087
  233      133.400424               0       626.72181
  234      514.886579               0      381.566035
  235      99.0855758               0      633.610716
  236      168.956066               0       618.84099
  237      65.1886593               0      638.936808
  238      638.492995               0      85.4587654
  239      208.770518               0      611.451363
  240      335.688396               0      555.566338
  241      555.582765               0      338.257359
  242      638.755502               0      130.861856
  243      249.703741               0      605.561936
  244      621.908944               0      224.990926
  245      511.324345               0      423.191585
  246      609.121153               0      265.326166
  247      640.660876               0      181.964917
  248      292.333988               0      601.888967
  249      552.332819               0      378.576234
  250               0               0          670.56
  251       598.97199               0      303.064867
  252       31.797171               0      671.772272
  253       434.19232               0      513.671558
  254      380.103374               0       556.38754
  255      141.507508               0      662.061638
  256       105.51219               0      669.226597
  257      178.293479               0      655.548981
  258      589.899988               0      340.623934
  259      66.9870981               0        678.3449
  260      495.946236               0      470.384351
  261      216.524318               0       649.77568
  262      685.759167               0               0
  263      685.090668               0      43.2508758
  264      336.018207               0      600.257908
  265      684.726984               0       86.035252
  266      583.186157               0      374.422369
  267      256.689194               0      645.482714
  268      555.824037               0      421.225257
  269      665.120921               0      212.021359
  270      686.337949               0      130.415225
  271      420.816078               0      558.787192
  272      657.195713               0        240.4365
  273      27.9724371               0      699.434782
  274               0               0          701.04
  275      50.2578873               0      699.792326
  276      645.955745               0      275.975055
  277      580.119071               0      399.795334
  278      633.729847               0      312.629612
  279      297.870685               0      643.192595
  280      377.492927               0      600.769679
  281      689.862169               0      174.963856
  282      621.742358               0      347.218955
  283      115.031201               0      703.654525
  284      149.958717               0       697.37345
  285      186.186027               0      691.517617
  286      82.1795826               0      711.996497
  287      481.913532               0      531.928144
  288      610.392751               0      378.693975
  289      544.204855               0      472.620712
  290      452.311105               0      562.682424
  291      224.453996               0      687.292208
  292      55.7009247               0       722.14236
  293      600.962299               0      404.629294
  294      338.557515               0       642.80665
  295      28.7498225               0      727.186208
  296      697.444412               0      214.217655
  297      417.683902               0      599.573591
  298      731.080977               0               0
  299               0               0          731.52
  300      730.564941               0       43.101951
  301      263.941777               0      683.785394
  302      592.586734               0      432.248437
  303      730.131183               0      85.8904331
  304      693.707385               0      251.865339
  305      682.717352               0       288.41726
  306       620.32146               0      407.996316
  307      667.446572               0      325.827621
  308       732.00714               0      129.799935
  309      651.783662               0      359.503495
  310      634.660682               0      389.526617
  311      378.593298               0      642.975255
  312      303.902041               0       682.59205
  313      123.043214               0       738.18174
  314      157.226914               0      732.790588
  315      90.2753252               0      744.800254
  316      454.203705               0      597.331937
  317      536.946873               0      525.513556
  318      193.409482               0      728.067287
  319      60.0620574               0      751.594273
  320      588.540989               0       473.27141
  321      736.088535               0      174.686916
  322      30.6815561               0      756.580611
  323        625.3414               0      429.833037
  324      231.163864               0      724.090141
  325               0               0             762
  326      492.366043               0      584.027567
  327      343.419476               0      682.449231
  328      418.222896               0      641.405557
  329      270.229168               0      721.610622
  330      740.366552               0      219.080764
  331      655.715673               0      412.129571
  332       775.57821               0               0
  333      775.763052               0      42.9629365
  334      679.977856               0      379.502052
  335      701.555427               0      342.760119
  336       776.34787               0      86.4072524
  337      720.467982               0      305.900716
  338      382.388099               0      683.073379
  339      737.472064               0       264.38994
  340      585.059814               0       521.04178
  341      127.999949               0       773.07855
  342      95.1192879               0      778.040834
  343      457.044521               0      637.188916
  344      309.543761               0      720.862886
  345       162.51984               0        768.4126
  346      63.5904237               0       782.85387
  347      632.312551               0      467.174711
  348      537.275344               0      576.130611
  349      32.0404446               0      787.487628
  350      778.264959               0       129.59676
  351      199.061126               0      763.870802
  352               0               0          792.48
  353      236.799597               0      760.977621
  354       348.83025               0      721.324846
  355      420.920762               0      682.771501
  356       496.07159               0      630.719576
  357      783.355093               0      175.526314
  358      276.005344               0      758.877289
  359      583.591717               0      569.351973
  360      632.553451               0      515.322925
  361      708.942801               0      404.773802
  362      681.853015               0      450.204353
  363      97.6065704               0      811.930025
  364       64.971473               0      815.519902
  365      131.196757               0      808.175712
  366      819.240681               0               0
  367      32.6160603               0      819.040204
  368      387.413311               0      722.446787
  369       733.36166               0      366.517093
  370      459.679894               0      679.298592
  371      789.941237               0      224.648942
  372      165.908155               0      804.441027
  373      314.507685               0      759.045598
  374      820.561184               0      42.3425427
  375               0               0          822.96
  376      539.425282               0      622.616003
  377       202.69681               0      800.661131
  378      822.526789               0       85.515433
  379      760.127085               0      328.035547
  380      240.706129               0      798.245475
  381      825.860032               0      129.313003
  382       425.12408               0      721.787493
  383      353.752869               0      759.766336
  384      499.703343               0      673.425326
  385      793.632284               0      283.625219
  386      279.394935               0      797.054709
  387       631.69523               0      563.825342
  388       583.84937               0      615.869043
  389      65.4459717               0      848.320555
  390      32.7926005               0      850.552725
  391       833.21753               0        174.4953
  392      683.256857               0        507.8882
  393      98.3272147               0      846.239043
  394      740.578675               0       422.87171
  395               0               0          853.44
  396      132.016637               0      843.687394
  397      760.744284               0      391.624385
  398      392.396702               0       761.26919
  399      463.030303               0      720.582493
  400      167.098517               0      841.011347
  401      317.597407               0      797.405016
  402      540.504823               0      667.744783
  403      728.277332               0      459.222317
  404      862.059811               0               0
  405      203.608848               0      838.340802
  406      864.269822               0       41.839775
  407      788.915248               0       361.96111
  408      241.458401               0      836.573377
  409      842.432559               0      221.562255
  410      868.238958               0      84.8267688
  411      429.131945               0      761.349192
  412      356.519752               0      798.165772
  413      502.557063               0      715.938352
  414      630.881103               0      610.410714
  415      764.542239               0      435.985378
  416      680.634984               0      560.038547
  417      279.936067               0      835.793623
  418      754.245411               0      456.585548
  419       585.20266               0       660.56455
  420      32.2149983               0      882.268582
  421      873.569481               0      128.057609
  422      64.6432276               0      881.248645
  423       780.85986               0      413.617734
  424               0               0          883.92
  425      97.3741369               0      880.651921
  426      130.936349               0      879.277051
  427      824.303702               0      335.081815
  428      394.417637               0      799.402016
  429      466.776453               0      760.646865
  430      165.556922               0      877.937569
  431      543.405526               0       710.53706
  432       318.30484               0      836.145783
  433      739.536244               0      505.097543
  434      853.880037               0      270.657716
  435      807.215101               0      394.576008
  436      881.985626               0       171.52676
  437      201.773189               0      876.384487
  438      793.713548               0      428.920021
  439      904.028594               0               0
  440      785.550399               0      448.032345
  441      769.916662               0      474.548949
  442      238.939248               0      875.390547
  443       907.22868               0      41.7127055
  444      432.220843               0      800.379524
  445      356.652812               0      837.056157
  446      631.406745               0      655.171892
  447      505.309312               0      757.636063
  448      678.569427               0      607.758383
  449               0               0           914.4
  450      30.8964889               0           914.4
  451      912.589739               0      83.8942583
  452      62.6173741               0           914.4
  453      587.179904               0      704.042026
  454      276.839368               0      874.966738
  455      893.429659               0      216.616302
  456      95.1689976               0           914.4
  457      816.242023               0       423.51649
  458      730.608635               0       560.00149
  459      128.559023               0           914.4
  460       843.36621               0      376.368192
  461      394.452214               0      838.122212
  462      871.301067               0      318.372739
  463      469.729633               0      800.059222
  464      162.794223               0           914.4
  465      920.609783               0      126.173767
  466      546.388657               0      752.016102
  467      315.051091               0      875.154564
  468      814.029146               0       452.67503
  469      197.880416               0           914.4
  470      803.399982               0      485.646184
  471      677.827652               0      652.826699
  472      632.572342               0      699.246287
  473      431.944082               0      838.540647
  474      906.296782               0      262.493986
  475      233.822405               0           914.4
  476      353.415657               0      875.783585
  477      945.141544               0               0
  478      508.138213               0      796.928878
  479      787.883204               0      522.163453
  480      725.814302               0      607.580361
  481      931.431411               0      168.733558
  482      852.111754               0      414.680952
  483      949.164141               0      41.0893676
  484      588.819422               0      746.679012
  485      270.623915               0           914.4
  486      886.322285               0      362.798596
  487      956.081638               0      82.3830284
  488      391.813705               0      876.457073
  489      470.692181               0      838.782492
  490      777.999277               0      566.400077
  491      548.020368               0      793.212274
  492      852.435819               0      451.911606
  493       308.28753               0           914.4
  494      943.996053               0      212.278946
  495      920.578845               0      308.069518
  496      678.015118               0      696.652924
  497      724.065929               0      652.265908
  498      966.729764               0      123.668811
  499      633.633668               0      742.301553
  500      430.411089               0      876.878359
  501      845.041736               0      490.188469
  502      346.814631               0           914.4
  503      509.493539               0      836.807955
  504       896.22785               0      406.137179
  505      771.912192               0      610.587134
  506      590.336047               0      788.529735
  507      985.394661               0               0
  508      834.241799               0      529.674314
  509      957.111422               0      256.335232
  510      990.123185               0      40.3442404
  511      386.205339               0           914.4
  512       979.74889               0      165.508072
  513      469.752165               0      876.956721
  514      934.254482               0      352.818693
  515      549.931754               0      833.919349
  516      998.270483               0      80.3976391
  517      824.592555               0      571.902143
  518      723.422672               0      696.309511
  519      678.597417               0      740.321373
  520      899.780632               0       449.53895
  521      426.458456               0           914.4
  522      634.745833               0      785.107804
  523      769.498005               0       654.61691
  524      509.962376               0      875.971714
  525      993.741165               0      208.154487
  526      970.332365               0      300.280989
  527      1010.92872               0      120.479073
  528      891.161094               0       492.87066
  529       592.14464               0      830.347999
  530      818.022042               0      615.070037
  531      1024.78537               0               0
  532       946.69673               0      397.530221
  533      467.571406               0           914.4
  534      880.050731               0      534.612045
  535      1029.82569               0      39.1199819
  536      551.484164               0      874.362547
  537      723.515994               0      739.502071
  538      679.690397               0      783.898038
  539      768.039716               0      698.000385
  540      1007.11424               0      251.579732
  541      1027.09322               0      161.475432
  542      983.282667               0      343.416356
  543      1038.74274               0      77.4659754
  544      869.768051               0      576.759971
  545      636.181014               0      827.770086
  546      813.673545               0      658.258343
  547      509.540189               0           914.4
  548      594.189727               0      872.629284
  549      1053.49434               0      115.457095
  550      960.383664               0      448.498092
  551      1019.63536               0      294.606372
  552      862.912047               0      619.352003
  553      1043.30842               0      204.593831
  554      1063.31247               0               0
  555      940.397142               0      497.468142
  556      724.280004               0      783.307673
  557      767.764685               0       741.27311
  558      996.585659               0      384.331427
  559      552.359319               0           914.4
  560      1067.62966               0      37.6756328
  561      681.138334               0      826.855303
  562      926.236176               0      539.869576
  563       811.54034               0      701.518304
  564      1076.15909               0      73.1663229
  565       638.53901               0      871.263639
  566      857.232821               0       662.40992
  567      915.141764               0      581.263101
  568      1031.95816               0      336.234313
  569      1056.81703               0      248.140511
  570      1074.83683               0      155.189448
  571       596.02179               0           914.4
  572      1011.52167               0      423.684352
  573      1091.44569               0      107.274948
  574      768.497976               0      784.332685
  575      725.881157               0      826.566992
  576      906.625274               0      623.168084
  577      1100.97608               0               0
  578      811.079951               0      744.981941
  579      1103.43501               0       36.606199
  580       1067.8695               0      291.053169
  581      683.446852               0      870.717032
  582      854.403737               0      705.493287
  583        984.2922               0      508.948128
  584      1043.93038               0      375.697218
  585      1107.96671               0      69.4887497
  586      1003.54942               0      474.711753
  587      1092.81367               0      199.926204
  588      969.980931               0      546.459979
  589      640.519023               0           914.4
  590      1113.25394               0      93.8523778
  591      900.967236               0       665.62697
  592      959.445311               0       585.83996
  593      1033.05539               0      452.259097
  594      1078.54771               0      331.877502
  595      770.479715               0      827.698965
  596      812.250694               0      787.488295
  597      1055.69649               0      411.707578
  598      728.269231               0      870.349188
  599      1108.12771               0      245.586699
  600      853.811619               0      748.322554
  601      1126.48267               0      141.955029
  602      1137.77759               0               0
  603      950.663288               0       626.41249
  604      1138.96181               0         36.9635
  605      685.840833               0           914.4
  606      1140.95792               0      71.7870173
  607      897.463947               0      708.275091
  608      1140.34941               0      104.793435
  609      1036.46642               0      489.141695
  610      1023.78769               0      518.432445
  611       1048.2299               0      469.576503
  612      1088.61487               0       370.25297
  613      1011.83903               0       552.22193
  614       1116.4779               0       289.58829
  615      1066.89828               0      442.272182
  616      943.854307               0      668.289836
  617        1144.085               0      194.182753
  618      1001.99526               0      589.224267
  619      814.378686               0      829.984787
  620      772.832223               0      871.076888
  621      855.046162               0      790.653767
  622      896.008492               0      750.799431
  623       1097.0273               0      405.374875
  624      731.158107               0           914.4
  625      1123.62531               0      330.129128
  626      1074.86241               0      467.843934
  627      1173.71958               0               0
  628      1175.10261               0      36.9742093
  629      994.536683               0       628.76525
  630      939.554289               0       710.43086
  631      1070.32593               0      494.289036
  632      1178.14908               0      72.9888774
  633       1062.2476               0      523.933243
  634      1181.88273               0       109.07708
  635      1103.97885               0      437.278118
  636      1130.73464               0      367.702676
  637      1051.74098               0       556.59168
  638      1181.22743               0      147.656651
  639      1165.83404               0      244.845862
  640      987.578474               0      669.647769
  641      857.122334               0      832.533783
  642      816.759012               0      872.318805
  643      896.613551               0      793.001467
  644      775.650746               0           914.4
  645      1043.91674               0      591.071482
  646      1164.54409               0      291.683465
  647      937.391015               0      752.331415
  648      1108.50241               0      466.955594
  649      1189.75888               0      188.362081
  650      1136.01732               0      402.291662
  651      1208.80578               0               0
  652       1210.6155               0      35.8177231
  653       1166.1803               0       331.12542
  654      982.361003               0      711.325687
  655      1107.42179               0      496.752487
  656      1037.90971               0      629.776474
  657      1215.86486               0      71.1790035
  658       1100.2152               0      528.994306
  659      1142.03992               0      434.811577
  660      1203.07124               0      225.416372
  661      1088.96054               0      559.140065
  662      859.396964               0      873.816617
  663      898.277149               0      834.494448
  664      1170.52237               0      367.514422
  665      819.308573               0           914.4
  666      936.818383               0      794.388123
  667      1031.18899               0      670.391828
  668      1228.83853               0      108.144354
  669      978.817868               0      752.964535
  670      1085.14756               0      591.159571
  671      1226.96909               0      149.239083
  672      1207.72636               0      266.687928
  673      1145.64313               0      466.137385
  674      1174.26742               0       401.27752
  675      1205.12979               0       300.14823
  676      1218.12844               0      246.796566
  677      1243.04098               0               0
  678      1243.90649               0      33.5106068
  679      1230.65185               0      186.192546
  680      1024.99073               0       711.92563
  681      1144.15806               0      499.135995
  682      1246.70971               0      64.1889906
  683      1118.40422               0      560.530563
  684      1206.02946               0      335.174664
  685      1082.94021               0      629.004082
  686      1250.49019               0      87.8080688
  687      1177.25848               0      433.602207
  688      900.638246               0       874.94452
  689      1236.90261               0      219.226824
  690      938.124684               0      835.524267
  691      862.123019               0           914.4
  692      976.963273               0      794.413283
  693      1141.47937               0      537.028969
  694       1207.3768               0      368.798701
  695      1075.09631               0      670.625837
  696      1242.86862               0      247.765389
  697      1124.02126               0      586.300194
  698      1020.45899               0      753.225939
  699       1180.2539               0      465.106129
  700      1241.81317               0      274.961056
  701      1269.22263               0      118.502703
  702      1210.11307               0      401.575306
  703        1276.431               0               0
  704      1267.37963               0      152.627703
  705       1276.1812               0      32.5207943
  706      1240.80695               0      305.591778
  707       1276.6399               0      63.1433273
  708      1275.92232               0      91.0908618
  709      1268.32187               0      185.557306
  710      1182.08795               0      496.625139
  711      1067.64063               0      712.712325
  712      940.741872               0      875.524834
  713      977.350028               0       835.52258
  714      904.087085               0           914.4
  715      1241.43168               0      338.206887
  716      1212.47269               0      433.213604
  717      1271.01874               0       217.53299
  718      1156.60055               0      570.625004
  719      1017.34892               0      794.306121
  720      1134.25631               0      626.597907
  721      1242.17612               0       370.02122
  722      1183.47061               0      529.249035
  723      1273.60398               0      248.092018
  724      1213.69296               0      464.235044
  725      1061.71262               0      753.928308
  726      1274.24226               0      277.477243
  727      1119.78545               0      672.891358
  728      1244.05961               0      402.095258
  729      1308.26414               0      32.0310235
  730      1308.98263               0               0
  731      1307.92223               0      62.7603597
  732      1307.13052               0      92.7794251
  733      1304.75004               0      122.147895
  734      1274.42531               0      308.017297
  735      1215.59574               0      495.050398
  736      1303.74943               0      153.570008
  737       980.27009               0      875.470416
  738      945.195298               0           914.4
  739      1190.13919               0      559.630589
  740       1170.7624               0      599.540263
  741       1017.7222               0      834.919703
  742      1304.14278               0      185.326758
  743      1245.08906               0       432.81726
  744      1274.85319               0      339.142489
  745      1109.77141               0      715.073279
  746       1305.1029               0      216.547313
  747      1058.20057               0       794.60199
  748      1217.57738               0      525.716602
  749      1275.83641               0      370.984035
  750      1306.04002               0      247.061677
  751      1246.44953               0      463.570044
  752      1197.77066               0      585.610625
  753      1306.69873               0      277.804958
  754      1102.07102               0       755.38889
  755      1276.48185               0      401.542327
  756      1173.77224               0      645.253636
  757      1340.23306               0      31.4856579
  758      1340.70351               0               0
  759      1339.79316               0      62.1500321
  760      1221.35862               0       554.53894
  761      1247.58946               0      494.186657
  762       1339.4404               0      92.6523313
  763      1307.08036               0      308.045959
  764      1192.49734               0      618.297237
  765      1019.63572               0      875.047258
  766      1338.62893               0      122.724476
  767      985.443662               0           914.4
  768      1160.24732               0      681.207396
  769      1056.55412               0      834.802854
  770       1338.3295               0      153.482511
  771       1205.5965               0      602.402928
  772       1277.3744               0      432.390134
  773        1338.176               0      184.140173
  774      1307.71935               0      339.361738
  775       1249.0626               0      524.015766
  776      1097.18662               0      795.370678
  777      1224.58453               0      580.868719
  778      1338.63173               0      214.871421
  779      1150.01898               0      719.929622
  780       1278.0462               0       462.83607
  781      1308.06817               0      369.817374
  782      1338.75446               0      245.802419
  783      1225.87081               0      603.913757
  784      1339.14831               0      276.499957
  785      1251.28499               0      552.878756
  786      1308.65696               0      400.699883
  787      1278.70252               0      493.152507
  788      1218.49082               0      627.784557
  789      1142.02113               0      758.559683
  790          1371.6               0               0
  791          1371.6               0           30.48
  792          1371.6               0           60.96
  793      1024.82961               0           914.4
  794      1059.05503               0      874.742391
  795      1339.47806               0      306.999844
  796      1207.96411               0      655.695292
  797          1371.6               0           91.44
  798          1371.6               0          121.92
  799      1095.06733               0      835.068279
  800      1309.06487               0      431.300845
  801          1371.6               0           152.4
  802      1252.68732               0      580.024388
  803      1197.45477               0      688.673815
  804      1339.86673               0      337.894867
  805      1279.78274               0      522.753828
  806          1371.6               0          182.88
  807      1135.99006               0       797.22236
  808      1309.04439               0      461.621382
  809          1371.6               0          213.36
  810      1340.05995               0       368.22384
  811      1252.34718               0      606.319571
  812      1188.03605               0      724.878129
  813          1371.6               0          243.84
  814      1281.03039               0      552.049818
  815      1340.41443               0      398.688576
  816          1371.6               0          274.32
  817      1309.52237               0      491.961493
  818      1247.63101               0      633.231941
  819      1063.35196               0           914.4
  820      1096.67834               0      874.719452
  821          1371.6               0           304.8
  822      1180.43489               0       762.32694
  823      1240.93798               0      662.528888
  824      1281.89529               0      580.427481
  825      1340.29422               0      429.022675
  826      1133.22466               0      836.162855
  827      1310.33546               0       521.79722
  828          1371.6               0          335.28
  829       1233.2261               0      694.780286
  830      1340.09757               0       459.38128
  831       1281.2911               0      608.362897
  832          1371.6               0          365.76
  833      1174.18972               0      800.066712
  834       1311.1427               0      551.611988
  835      1225.54809               0        729.8433
  836      1340.38142               0      490.119506
  837          1371.6               0          396.24
  838      1278.25056               0      636.786555
  839      1101.01082               0           914.4
  840      1134.22872               0      875.283507
  841      1311.40216               0      580.396164
  842          1371.6               0          426.72
  843      1273.91165               0      666.902876
  844      1340.87822               0      520.334351
  845      1218.48038               0      766.481034
  846      1171.86778               0      838.425415
  847      1311.03214               0      609.470864
  848          1371.6               0           457.2
  849       1268.4614               0      699.283251
  850      1341.33863               0      550.550036
  851      1212.69632               0      803.902796
  852          1371.6               0          487.68
  853       1309.6221               0      638.893307
  854       1137.8076               0           914.4
  855      1262.83036               0      733.916564
  856      1341.53849               0      580.074322
  857       1171.4226               0      876.476943
  858          1371.6               0          518.16
  859      1306.75247               0      669.439922
  860      1208.63414               0       840.99515
  861      1341.45207               0      609.837296
  862      1257.11604               0      771.246977
  863          1371.6               0          548.64
  864      1303.87746               0       701.53328
  865      1340.90276               0      639.825828
  866      1173.74488               0           914.4
  867      1249.48103               0      808.068287
  868          1371.6               0          579.12
  869      1207.51291               0      877.931451
  870      1300.62503               0      736.463177
  871      1339.59866               0      670.430224
  872          1371.6               0           609.6
  873      1244.26211               0      843.986018
  874      1338.07044               0      701.752618
  875          1371.6               0          640.08
  876      1299.06148               0      777.013324
  877      1208.82639               0           914.4
  878      1284.70828               0      813.301174
  879      1242.37218               0      879.451307
  880      1336.79886               0      734.171471
  881          1371.6               0          670.56
  882      1278.15256               0      847.206104
  883          1371.6               0          701.04
  884      1317.90353               0      797.598879
  885      1336.89997               0      766.950089
  886      1243.05695               0           914.4
  887      1312.90772               0       820.92753
  888      1276.00564               0      880.894064
  889          1371.6               0          731.52
  890      1341.74138               0      794.855783
  891      1310.01508               0       850.68959
  892          1371.6               0             762
  893      1276.44237               0           914.4
  894      1341.18865               0      822.585096
  895      1308.47037               0      882.222621
  896          1371.6               0          792.48
  897      1340.52965               0      852.402104
  898      1308.98943               0           914.4
  899          1371.6               0          822.96
  900      1340.05206               0      883.099199
  901          1371.6               0          853.44
  902      1340.70581               0           914.4
  903          1371.6               0          883.92
  904          1371.6               0           914.4
End Coordinates

Elements
1 424 449 450 420
2 904 903 900 902
3 791 790 758 757
4 1 2 4 3
5 395 424 420 390
6 903 901 897 900
7 792 791 757 759
8 2 5 7 4
9 375 395 390 367
10 901 899 894 897
11 797 792 759 762
12 5 10 12 7
13 352 375 367 349
14 899 896 890 894
15 798 797 762 766
16 10 16 17 12
17 325 352 349 322
18 896 892 885 890
19 801 798 766 770
20 16 26 25 17
21 299 325 322 295
22 892 889 880 885
23 806 801 770 773
24 26 36 35 25
25 274 299 295 273
26 889 883 874 880
27 809 806 773 778
28 36 43 42 35
29 250 274 273 252
30 883 881 871 874
31 813 809 778 782
32 43 50 49 42
33 229 250 252 230
34 881 875 865 871
35 816 813 782 784
36 50 58 59 49
37 216 229 230 214
38 875 872 861 865
39 821 816 784 795
40 58 64 69 59
41 199 216 214 197
42 872 868 856 861
43 828 821 795 804
44 64 75 77 69
45 177 199 197 175
46 868 863 850 856
47 832 828 804 810
48 75 88 90 77
49 160 177 175 161
50 863 858 844 850
51 837 832 810 815
52 88 101 103 90
53 142 160 161 143
54 858 852 836 844
55 842 837 815 825
56 101 114 116 103
57 127 142 143 129
58 127 129 116 114
59 852 848 830 836
60 848 842 825 830
61 898 902 900 895
62 6 3 4 8
63 450 452 422 420
64 758 730 729 757
65 893 898 895 888
66 11 6 8 13
67 452 456 425 422
68 730 703 705 729
69 886 893 888 879
70 19 11 13 21
71 456 459 426 425
72 703 677 678 705
73 877 886 879 869
74 30 19 21 29
75 459 464 430 426
76 677 651 652 678
77 866 877 869 857
78 39 30 29 37
79 464 469 437 430
80 651 627 628 652
81 854 866 857 840
82 47 39 37 45
83 469 475 442 437
84 627 602 604 628
85 839 854 840 820
86 56 47 45 54
87 475 485 454 442
88 602 577 579 604
89 819 839 820 794
90 67 56 54 65
91 485 493 467 454
92 577 554 560 579
93 793 819 794 765
94 82 67 65 80
95 493 502 476 467
96 554 531 535 560
97 767 793 765 737
98 95 82 80 94
99 502 511 488 476
100 531 507 510 535
101 738 767 737 712
102 113 95 94 111
103 511 521 500 488
104 507 477 483 510
105 714 738 712 688
106 132 113 111 133
107 521 533 513 500
108 477 439 443 483
109 691 714 688 662
110 155 132 133 156
111 533 547 524 513
112 439 404 406 443
113 665 691 662 642
114 180 155 156 181
115 547 559 536 524
116 404 366 374 406
117 644 665 642 620
118 204 180 181 205
119 559 571 548 536
120 366 332 333 374
121 624 644 620 598
122 231 204 205 232
123 571 589 565 548
124 332 298 300 333
125 605 624 598 581
126 589 605 581 565
127 262 231 232 263
128 298 262 263 300
129 390 420 422 389
130 367 390 389 364
131 900 897 891 895
132 897 894 887 891
133 4 7 9 8
134 7 12 14 9
135 13 8 9 15
136 894 890 884 887
137 890 885 876 884
138 759 757 729 731
139 729 705 707 731
140 705 678 682 707
141 349 367 364 346
142 322 349 346 319
143 678 652 657 682
144 885 880 870 876
145 880 874 864 870
146 874 871 859 864
147 871 865 853 859
148 865 861 847 853
149 861 856 841 847
150 856 850 834 841
151 850 844 827 834
152 844 836 817 827
153 836 830 808 817
154 830 825 800 808
155 825 815 786 800
156 815 810 781 786
157 810 804 774 781
158 804 795 763 774
159 795 784 753 763
160 784 782 750 753
161 782 778 746 750
162 778 773 742 746
163 422 425 393 389
164 773 770 736 742
165 770 766 733 736
166 762 759 731 732
167 766 762 732 733
168 425 426 396 393
169 426 430 400 396
170 430 437 405 400
171 888 895 891 882
172 437 442 408 405
173 295 322 319 292
174 273 295 292 275
175 252 273 275 259
176 230 252 259 237
177 214 230 237 215
178 21 13 15 22
179 879 888 882 873
180 869 879 873 860
181 857 869 860 846
182 840 857 846 826
183 820 840 826 799
184 794 820 799 769
185 765 794 769 741
186 197 214 215 196
187 175 197 196 178
188 161 175 178 163
189 143 161 163 149
190 129 143 149 131
191 116 129 131 119
192 103 116 119 107
193 90 103 107 92
194 77 90 92 81
195 69 77 81 72
196 59 69 72 61
197 49 59 61 51
198 42 49 51 41
199 35 42 41 34
200 25 35 34 27
201 12 17 20 14
202 25 27 20 17
203 737 765 741 713
204 652 628 632 657
205 628 604 606 632
206 604 579 585 606
207 579 560 564 585
208 442 454 417 408
209 560 535 543 564
210 535 510 516 543
211 510 483 487 516
212 712 737 713 690
213 454 467 432 417
214 29 21 22 31
215 37 29 31 38
216 45 37 38 46
217 54 45 46 55
218 65 54 55 66
219 80 65 66 83
220 94 80 83 97
221 111 94 97 115
222 467 476 445 432
223 476 488 461 445
224 488 500 473 461
225 500 513 489 473
226 513 524 503 489
227 483 443 451 487
228 524 536 515 503
229 536 548 529 515
230 548 565 545 529
231 565 581 561 545
232 688 712 690 663
233 133 111 115 134
234 662 688 663 641
235 443 406 410 451
236 406 374 378 410
237 374 333 336 378
238 333 300 303 336
239 300 263 265 303
240 642 662 641 619
241 620 642 619 595
242 581 598 575 561
243 598 620 595 575
244 263 232 238 265
245 232 205 206 238
246 205 181 183 206
247 156 133 134 157
248 181 156 157 183
249 731 707 708 732
250 707 682 686 708
251 733 732 708 701
252 9 14 18 15
253 736 733 701 704
254 742 736 704 709
255 746 742 709 717
256 14 20 23 18
257 20 27 28 23
258 27 34 33 28
259 34 41 44 33
260 389 393 363 364
261 393 396 365 363
262 396 400 372 365
263 750 746 717 723
264 753 750 723 726
265 763 753 726 734
266 774 763 734 744
267 781 774 744 749
268 786 781 749 755
269 800 786 755 772
270 891 887 878 882
271 887 884 876 878
272 346 364 363 342
273 319 346 342 315
274 808 800 772 780
275 817 808 780 787
276 827 817 787 805
277 834 827 805 814
278 841 834 814 824
279 847 841 824 831
280 853 847 831 838
281 859 853 838 843
282 864 859 843 849
283 873 882 878 867
284 860 873 867 851
285 292 319 315 286
286 275 292 286 259
287 682 657 668 686
288 657 632 634 668
289 632 606 608 634
290 606 585 590 608
291 585 564 573 590
292 41 51 53 44
293 51 61 63 53
294 61 72 74 63
295 72 81 85 74
296 81 92 96 85
297 92 107 109 96
298 107 119 123 109
299 119 131 137 123
300 131 149 151 137
301 149 163 166 151
302 163 178 179 166
303 178 196 195 179
304 196 215 213 195
305 215 237 235 213
306 237 259 256 235
307 564 543 549 573
308 870 864 849 855
309 876 870 855 862
310 878 876 862 867
311 400 405 377 372
312 846 860 851 833
313 826 846 833 807
314 799 826 807 776
315 769 799 776 747
316 741 769 747 719
317 22 15 18 24
318 31 22 24 32
319 38 31 32 40
320 46 38 40 48
321 55 46 48 57
322 66 55 57 71
323 543 516 527 549
324 83 66 71 84
325 97 83 84 99
326 115 97 99 118
327 516 487 498 527
328 713 741 719 692
329 134 115 118 138
330 690 713 692 666
331 663 690 666 643
332 641 663 643 621
333 619 641 621 596
334 405 408 380 377
335 595 619 596 574
336 408 417 386 380
337 417 432 401 386
338 432 445 412 401
339 445 461 428 412
340 461 473 444 428
341 473 489 463 444
342 489 503 478 463
343 503 515 491 478
344 515 529 506 491
345 529 545 522 506
346 545 561 538 522
347 575 595 574 556
348 561 575 556 538
349 487 451 465 498
350 451 410 421 465
351 410 378 381 421
352 378 336 350 381
353 336 303 308 350
354 303 265 270 308
355 265 238 242 270
356 238 206 209 242
357 206 183 185 209
358 183 157 159 185
359 157 134 138 159
360 18 23 28 24
361 24 28 33 32
362 701 708 686 668
363 363 365 341 342
364 259 286 283 256
365 286 315 313 283
366 315 342 341 313
367 365 372 345 341
368 867 862 845 851
369 833 851 845 822
370 862 855 835 845
371 704 701 668 671
372 709 704 671 679
373 717 709 679 689
374 723 717 689 696
375 726 723 696 700
376 734 726 700 706
377 744 734 706 715
378 749 744 715 721
379 755 749 721 728
380 772 755 728 743
381 780 772 743 751
382 787 780 751 761
383 805 787 761 775
384 814 805 775 785
385 824 814 785 802
386 831 824 802 811
387 838 831 811 818
388 843 838 818 823
389 849 843 823 829
390 855 849 829 835
391 807 833 822 789
392 776 807 789 754
393 747 776 754 725
394 372 377 351 345
395 719 747 725 698
396 692 719 698 669
397 666 692 669 647
398 643 666 647 622
399 621 643 622 600
400 596 621 600 578
401 574 596 578 557
402 556 574 557 537
403 377 380 353 351
404 380 386 358 353
405 386 401 373 358
406 401 412 383 373
407 668 634 638 671
408 634 608 601 638
409 608 590 573 601
410 412 428 398 383
411 428 444 411 398
412 444 463 429 411
413 463 478 447 429
414 478 491 466 447
415 491 506 484 466
416 538 556 537 519
417 506 522 499 484
418 522 538 519 499
419 40 32 33 44
420 44 53 60 52
421 40 44 52 48
422 53 63 70 60
423 63 74 78 70
424 74 85 91 78
425 85 96 102 91
426 96 109 117 102
427 109 123 128 117
428 123 137 141 128
429 137 151 154 141
430 151 166 173 154
431 166 179 182 173
432 179 195 193 182
433 195 213 212 193
434 213 235 233 212
435 235 256 255 233
436 57 48 52 62
437 71 57 62 73
438 84 71 73 86
439 99 84 86 104
440 118 99 104 121
441 138 118 121 140
442 159 138 140 164
443 185 159 164 189
444 209 185 189 218
445 242 209 218 247
446 270 242 247 281
447 308 270 281 321
448 350 308 321 357
449 381 350 357 391
450 421 381 391 436
451 465 421 436 481
452 498 465 481 512
453 527 498 512 541
454 549 527 541 570
455 573 549 570 601
456 255 256 283 284
457 233 255 257 236
458 212 233 236 208
459 257 255 284 285
460 193 212 208 184
461 182 193 184 173
462 154 173 184 162
463 679 671 638 649
464 689 679 649 660
465 696 689 660 676
466 700 696 676 672
467 706 700 672 675
468 341 345 314 313
469 845 835 812 822
470 283 313 314 284
471 141 154 162 147
472 128 141 147 135
473 715 706 675 684
474 721 715 684 694
475 728 721 694 702
476 743 728 702 716
477 751 743 716 724
478 761 751 724 735
479 775 761 735 748
480 785 775 748 760
481 802 785 760 777
482 811 802 777 783
483 818 811 783 788
484 823 818 788 796
485 835 829 803 812
486 829 823 796 803
487 345 351 318 314
488 318 285 284 314
489 789 822 812 779
490 754 789 779 745
491 725 754 745 711
492 351 353 324 318
493 353 358 329 324
494 358 373 344 329
495 373 383 354 344
496 383 398 368 354
497 398 411 382 368
498 411 429 399 382
499 429 447 413 399
500 447 466 431 413
501 466 484 453 431
502 484 499 472 453
503 499 519 496 472
504 698 725 711 680
505 669 698 680 654
506 647 669 654 630
507 622 647 630 607
508 600 622 607 582
509 578 600 582 563
510 557 578 563 539
511 519 537 518 496
512 537 557 539 518
513 638 601 617 649
514 52 60 68 62
515 60 70 76 68
516 70 78 87 76
517 78 91 98 87
518 91 102 105 98
519 73 62 68 79
520 86 73 79 93
521 104 86 93 110
522 121 104 110 126
523 140 121 126 150
524 164 140 150 171
525 189 164 171 194
526 218 189 194 221
527 296 281 247 269
528 247 218 221 244
529 601 570 587 617
530 570 541 553 587
531 541 512 525 553
532 512 481 494 525
533 481 436 455 494
534 436 391 409 455
535 391 357 371 409
536 357 321 330 371
537 128 135 130 117
538 135 147 148 130
539 102 117 112 105
540 285 318 324 291
541 257 285 291 261
542 812 803 768 779
543 803 796 756 768
544 796 788 764 756
545 788 783 771 764
546 783 777 752 771
547 777 760 739 752
548 760 748 722 739
549 748 735 710 722
550 735 724 699 710
551 724 716 687 699
552 716 702 674 687
553 702 694 664 674
554 694 684 653 664
555 684 675 646 653
556 675 672 639 646
557 672 676 660 639
558 660 649 617 639
559 236 257 261 239
560 68 76 89 79
561 76 87 100 89
562 87 98 108 100
563 98 105 112 108
564 745 779 768 727
565 208 236 239 211
566 247 244 272 269
567 93 79 89 106
568 617 587 599 639
569 587 553 569 599
570 553 525 540 569
571 711 745 727 695
572 680 711 695 667
573 654 680 667 640
574 630 654 640 616
575 607 630 616 591
576 582 607 591 566
577 563 582 566 546
578 324 329 301 291
579 329 344 312 301
580 344 354 327 312
581 321 281 296 330
582 354 368 338 327
583 368 382 355 338
584 382 399 370 355
585 399 413 384 370
586 413 431 402 384
587 431 453 419 402
588 453 472 446 419
589 472 496 471 446
590 184 208 211 188
591 162 184 188 165
592 147 162 165 148
593 539 563 546 523
594 525 494 509 540
595 494 455 474 509
596 455 409 434 474
597 409 371 385 434
598 371 330 339 385
599 150 126 139 158
600 171 150 158 176
601 194 171 176 201
602 126 110 122 139
603 110 93 106 122
604 221 194 201 223
605 244 221 223 246
606 117 130 125 112
607 768 756 720 727
608 764 771 752 740
609 756 764 740 720
610 752 739 718 740
611 739 722 693 718
612 272 244 246 276
613 646 639 599 614
614 291 301 267 261
615 239 261 267 243
616 269 272 304 296
617 211 239 243 219
618 330 296 304 339
619 188 211 219 192
620 165 188 192 167
621 148 165 167 146
622 130 148 146 125
623 722 710 681 693
624 710 699 673 681
625 699 687 659 673
626 687 674 650 659
627 674 664 636 650
628 664 653 625 636
629 653 646 614 625
630 539 523 497 518
631 523 546 530 505
632 496 518 497 471
633 301 312 279 267
634 312 327 294 279
635 327 338 311 294
636 338 355 328 311
637 355 370 343 328
638 370 384 356 343
639 106 89 100 120
640 108 112 125 124
641 125 146 144 124
642 100 108 124 120
643 546 566 552 530
644 695 727 720 685
645 667 695 685 656
646 640 667 656 629
647 616 640 629 603
648 591 616 603 576
649 566 591 576 552
650 384 402 376 356
651 402 419 388 376
652 419 446 414 388
653 446 471 448 414
654 599 569 580 614
655 569 540 551 580
656 540 509 526 551
657 509 474 495 526
658 246 223 225 251
659 223 201 207 225
660 201 176 190 207
661 176 158 172 190
662 158 139 152 172
663 139 122 136 152
664 122 106 120 136
665 385 339 337 379
666 474 434 462 495
667 720 740 718 697
668 304 272 276 305
669 339 304 305 337
670 625 614 580 594
671 718 693 683 697
672 276 246 251 278
673 636 625 594 612
674 650 636 612 623
675 659 650 623 635
676 673 659 635 648
677 681 673 648 655
678 267 279 248 243
679 219 243 248 224
680 192 219 224 198
681 167 192 198 168
682 279 294 264 248
683 294 311 280 264
684 311 328 297 280
685 328 343 316 297
686 343 356 326 316
687 497 523 505 480
688 471 497 480 448
689 356 376 348 326
690 693 681 655 658
691 685 720 697 670
692 580 551 568 594
693 551 526 542 568
694 656 685 670 645
695 376 388 359 348
696 388 414 387 359
697 629 656 645 618
698 603 629 618 592
699 576 603 592 567
700 552 576 567 544
701 530 552 544 517
702 505 530 517 490
703 414 448 416 387
704 526 495 514 542
705 495 462 486 514
706 120 124 144 145
707 146 167 168 144
708 136 120 145 153
709 152 136 153 170
710 172 152 170 186
711 190 172 186 202
712 207 190 202 222
713 225 207 222 241
714 251 225 241 258
715 462 434 385 427
716 385 379 407 427
717 379 337 335 369
718 337 305 307 335
719 305 276 278 307
720 693 658 661 683
721 658 655 631 633
722 697 683 661 670
723 655 648 626 631
724 648 635 615 626
725 251 258 282 278
726 635 623 597 615
727 224 248 264 240
728 264 280 254 240
729 280 297 271 254
730 297 316 290 271
731 316 326 287 290
732 612 594 568 584
733 623 612 584 597
734 505 490 458 480
735 645 670 661 637
736 661 658 633 637
737 448 480 458 416
738 618 645 637 613
739 592 618 613 588
740 567 592 588 562
741 326 348 317 287
742 486 462 427 460
743 427 407 435 460
744 407 379 369 397
745 198 224 240 217
746 145 144 168 169
747 168 198 187 169
748 153 145 169 174
749 348 359 340 317
750 544 567 562 534
751 490 517 508 479
752 517 544 534 508
753 359 387 360 340
754 387 416 392 360
755 568 542 558 584
756 542 514 532 558
757 514 486 504 532
758 170 153 174 191
759 186 170 191 203
760 202 186 203 220
761 222 202 220 234
762 241 222 234 249
763 258 241 249 266
764 369 335 334 361
765 198 217 200 187
766 169 187 200 174
767 307 278 282 309
768 335 307 309 334
769 258 266 288 282
770 458 490 479 433
771 416 458 433 392
772 508 534 528 501
773 397 369 361 394
774 504 486 460 482
775 460 435 457 482
776 597 584 558 572
777 615 597 572 593
778 626 615 593 611
779 631 626 611 609
780 637 633 610 613
781 633 631 609 610
782 191 174 200 210
783 203 191 210 226
784 220 203 226 227
785 234 220 227 245
786 249 234 245 268
787 479 508 501 470
788 407 397 423 435
789 266 249 268 277
790 534 562 555 528
791 588 613 610 583
792 562 588 583 555
793 240 254 228 217
794 254 271 253 228
795 200 217 228 210
796 210 228 253 226
797 271 290 287 253
798 558 532 550 572
799 532 504 520 550
800 361 334 331 362
801 287 317 289 260
802 317 340 320 289
803 340 360 347 320
804 360 392 362 347
805 457 435 423 438
806 423 397 394 415
807 309 282 288 310
808 334 309 310 331
809 287 260 226 253
810 609 611 593 586
811 610 609 586 583
812 394 361 362 403
813 288 266 277 293
814 504 482 492 520
815 482 457 468 492
816 468 470 501 492
817 468 457 438 440
818 479 470 441 433
819 362 331 323 347
820 392 433 403 362
821 501 528 520 492
822 520 528 555 550
823 593 572 550 586
824 583 586 550 555
825 320 347 323 302
826 289 320 302 268
827 289 268 245 260
828 226 260 245 227
829 277 268 302 293
830 423 415 440 438
831 288 293 306 310
832 306 293 302 323
833 323 331 310 306
834 415 394 403 418
835 403 433 441 418
836 470 468 440 441
837 440 415 418 441
End Elements
