MESH dimension 3 ElemType Quadrilateral Nnode 4
Coordinates
1	1	0	2
2	0.95	0	2
3	1	0	1.94819256
4	0.945852436	0	1.9464813
5	0.9	0	2
6	1	0	1.89310162
7	0.892122428	0	1.94716871
8	0.942281271	0	1.89207927
9	0.85	0	2
10	0.885936811	0	1.89565869
11	1	0	1.83473382
12	0.839557538	0	1.95011466
13	0.938944118	0	1.83633317
14	0.879939049	0	1.8434255
15	0.829404498	0	1.89996129
16	0.8	0	2
17	0.788027637	0	1.95507713
18	0.831819753	0	1.85454218
19	1	0	1.77296637
20	0.934082386	0	1.77793195
21	0.752797324	0	1.96988345
22	0.864557928	0	1.79020326
23	0.75	0	2
24	0.76243852	0	1.90368697
25	0.786115712	0	1.82023975
26	0.72072054	0	1.95509642
27	1	0	1.70768192
28	0.930211915	0	1.71279779
29	0.7	0	2
30	0.85597944	0	1.72194938
31	0.688280416	0	1.88858344
32	0.667646317	0	1.94681525
33	0.773310241	0	1.73660417
34	0.65	0	2
35	0.697059574	0	1.81944905
36	1	0	1.63877017
37	0.926547673	0	1.64292446
38	0.848108108	0	1.64971197
39	0.612024807	0	1.94425313
40	0.621870984	0	1.88580231
41	0.6	0	2
42	0.684997895	0	1.74680204
43	0.76171162	0	1.6592713
44	0.621493657	0	1.82425913
45	1	0	1.5661297
46	0.921702282	0	1.56992017
47	0.55724203	0	1.94362576
48	0.55	0	2
49	0.561404324	0	1.8884746
50	0.840289502	0	1.57601034
51	0.604778007	0	1.76068769
52	0.664843758	0	1.67046725
53	0.559608422	0	1.83398332
54	0.748869289	0	1.5817036
55	0.503636511	0	1.94439981
56	0.5	0	2
57	0.544053987	0	1.78684726
58	0.507054324	0	1.89148181
59	1	0	1.48966981
60	0.919971951	0	1.49461616
61	0.508414973	0	1.84243791
62	0.834640813	0	1.49940293
63	0.508258377	0	1.80660968
64	0.555785203	0	1.68932694
65	0.647271113	0	1.58629621
66	0.45	0	2
67	0.451781421	0	1.94484349
68	0.454761488	0	1.89061493
69	0.502395237	0	1.74965646
70	0.741298242	0	1.50219408
71	0.460349042	0	1.83974931
72	0.472614043	0	1.79416398
73	1	0	1.40931251
74	0.918206504	0	1.41486343
75	0.4	0	2
76	0.835171472	0	1.42210608
77	0.400317964	0	1.94417426
78	0.546550709	0	1.59778876
79	0.402434841	0	1.88868112
80	0.407347873	0	1.8343069
81	0.418127111	0	1.78158198
82	0.437127713	0	1.72828766
83	0.749733888	0	1.4268521
84	0.627666368	0	1.49466606
85	0.456681561	0	1.66733
86	0.35	0	2
87	0.348018995	0	1.94339596
88	0.347312038	0	1.88562839
89	0.662897872	0	1.42032797
90	0.917682594	0	1.33341899
91	0.35048344	0	1.82898117
92	0.526774834	0	1.51938227
93	1	0	1.32499459
94	0.835492153	0	1.34368715
95	0.456563005	0	1.59519312
96	0.357494094	0	1.77329497
97	0.754710218	0	1.35342994
98	0.367682407	0	1.71623091
99	0.3	0	2
100	0.294840231	0	1.94220229
101	0.376710402	0	1.65546336
102	0.553567902	0	1.43872396
103	0.290895507	0	1.8834731
104	0.677279216	0	1.35500105
105	0.595583063	0	1.40075728
106	0.290996216	0	1.8250005
107	0.444321742	0	1.52514947
108	0.293683417	0	1.76638582
109	0.378698009	0	1.59050426
110	0.488294062	0	1.45482236
111	0.25	0	2
112	0.611460386	0	1.3525203
113	0.832349336	0	1.26322064
114	0.915879536	0	1.24868412
115	0.299834628	0	1.70842267
116	0.241028112	0	1.94219194
117	0.551085395	0	1.38417475
118	0.752760026	0	1.27881584
119	1	0	1.2366697
120	0.680048388	0	1.29372601
121	0.231316934	0	1.88216818
122	0.303779632	0	1.64778828
123	0.5	0	1.4
124	0.373030998	0	1.52449085
125	0.555863805	0	1.34880654
126	0.422483623	0	1.46039607
127	0.228922499	0	1.82116192
128	0.615786507	0	1.30148095
129	0.2	0	2
130	0.230738167	0	1.76242951
131	0.306805362	0	1.58423285
132	0.45	0	1.4
133	0.187109869	0	1.94431667
134	0.5	0	1.35
135	0.234193055	0	1.70328566
136	0.55772338	0	1.30296834
137	0.362047508	0	1.46110884
138	0.743932161	0	1.20488679
139	0.672191379	0	1.22743034
140	0.824479341	0	1.17853922
141	0.307056732	0	1.52120084
142	0.16509311	0	1.88418149
143	0.236160788	0	1.64234316
144	0.911431225	0	1.15885421
145	0.4	0	1.4
146	0.15	0	2
147	0.448922202	0	1.351711
148	0.610993154	0	1.24246094
149	0.167193203	0	1.81791061
150	1	0	1.14431048
151	0.142348584	0	1.95204541
152	0.5	0	1.3
153	0.168334841	0	1.75894056
154	0.23951727	0	1.57859937
155	0.134661662	0	1.91469799
156	0.555158572	0	1.25020402
157	0.304049585	0	1.45936937
158	0.170423843	0	1.70053477
159	0.399111331	0	1.3535859
160	0.35	0	1.4
161	0.446479049	0	1.30435166
162	0.245715156	0	1.51653123
163	0.1	0	2
164	0.5	0	1.25
165	0.600836159	0	1.19072844
166	0.171007568	0	1.63977949
167	0.0970137497	0	1.9523303
168	0.10548876	0	1.86422911
169	0.653601451	0	1.16106722
170	0.0965432925	0	1.90786708
171	0.108515244	0	1.80996716
172	0.352308805	0	1.35499745
173	0.724259238	0	1.12662152
174	0.39546756	0	1.31126593
175	0.551287181	0	1.20061474
176	0.3	0	1.4
177	0.110076746	0	1.75519339
178	0.249127844	0	1.45733534
179	0.441577414	0	1.25593758
180	0.808333902	0	1.08647827
181	0.169387773	0	1.57129023
182	0.354890426	0	1.31937204
183	0.110341054	0	1.70018932
184	0.904507209	0	1.06334437
185	0.5	0	1.2
186	0.588511802	0	1.14744018
187	0.188988971	0	1.5101507
188	0.05	0	2
189	1	0	1.0479106
190	0.0491360516	0	1.95094443
191	0.305213386	0	1.34891081
192	0.0493138781	0	1.90262603
193	0.111090067	0	1.64427506
194	0.381389434	0	1.2677541
195	0.051803392	0	1.85490069
196	0.25	0	1.4
197	0.548176403	0	1.15053206
198	0.0528287248	0	1.803854
199	0.196913053	0	1.45441129
200	0.437215966	0	1.20552615
201	0.0539278077	0	1.75228168
202	0.617119029	0	1.09948859
203	0.137126301	0	1.53783795
204	0.108527249	0	1.58924756
205	0.316945894	0	1.29336061
206	0.5	0	1.15
207	0.251255945	0	1.3519348
208	0.0539144238	0	1.70029144
209	0.143153306	0	1.4991913
210	0.690883595	0	1.04985347
211	0	0	2
212	0.2	0	1.4
213	0	0	1.95
214	0.554145944	0	1.10032303
215	0	0	1.9
216	0.370332006	0	1.2153904
217	0.0544843957	0	1.64788387
218	0.0988378238	0	1.54303232
219	0	0	1.85
220	0.147625768	0	1.4508909
221	0.435968004	0	1.15223824
222	0	0	1.8
223	0.203865019	0	1.35561251
224	0.245955399	0	1.30477086
225	0.0536004679	0	1.59669898
226	0.5	0	1.1
227	0	0	1.75
228	0.0983229487	0	1.49777145
229	0.15	0	1.4
230	0.296595648	0	1.2309766
231	0.89681696	0	0.961790916
232	0.206944414	0	1.3215883
233	0	0	1.7
234	0.598892563	0	1.03595071
235	0.777815029	0	0.978475491
236	0.0508255607	0	1.54715812
237	1	0	0.94785349
238	0.550295207	0	1.04656683
239	0.366126976	0	1.15730475
240	0.0989971342	0	1.44952577
241	0	0	1.65
242	0.157546778	0	1.35307154
243	0.435614937	0	1.09947769
244	0.64492344	0	0.994618648
245	0.5	0	1.05
246	0.0501692569	0	1.49870792
247	0	0	1.6
248	0.17187122	0	1.30695535
249	0.1	0	1.4
250	0.583085131	0	0.99968809
251	0.208675342	0	1.25219975
252	0.288655539	0	1.16554447
253	0	0	1.55
254	0.54814232	0	0.999993572
255	0.0500398198	0	1.44944071
256	0.365971961	0	1.09977864
257	0.105299243	0	1.35073715
258	0.438713202	0	1.04703781
259	0.600384224	0	0.963973727
260	0.689355611	0	0.931236408
261	0.5	0	1
262	0	0	1.5
263	0.05	0	1.4
264	0.114318346	0	1.30096181
265	0.552555143	0	0.953508443
266	0	0	1.45
267	0.373603346	0	1.04364475
268	0.902831188	0	0.859986229
269	0.203356949	0	1.17520916
270	0.440682682	0	0.99734622
271	1	0	0.851822783
272	0.288542583	0	1.09868736
273	0.0521168219	0	1.35007556
274	0.127493037	0	1.24721546
275	0.803685077	0	0.863018388
276	0.620973182	0	0.908079728
277	0.5	0	0.95
278	0	0	1.4
279	0.0551705301	0	1.29996556
280	0.381453187	0	0.995100864
281	0.559857741	0	0.900920217
282	0.712480517	0	0.847592821
283	0.305744609	0	1.03450782
284	0.441840494	0	0.947948424
285	0	0	1.35
286	0.126755063	0	1.18754775
287	0.0602233986	0	1.24815255
288	0.5	0	0.9
289	0.331488911	0	0.992537986
290	0.191587626	0	1.0957276
291	0.631176054	0	0.836864694
292	0	0	1.3
293	0.380037809	0	0.946874501
294	0.445369243	0	0.898688078
295	0.118725614	0	1.13217573
296	0.0599422993	0	1.19543663
297	0.561680514	0	0.842764656
298	0.908701437	0	0.764974566
299	1	0	0.759832947
300	0.815309959	0	0.764932195
301	0	0	1.25
302	0.5	0	0.85
303	0.307557981	0	0.948622649
304	0.228070891	0	1.00395215
305	0.389085679	0	0.896744815
306	0.0580044627	0	1.14450696
307	0.723554124	0	0.757662792
308	0.0981519492	0	1.0996147
309	0.448053488	0	0.849442946
310	0	0	1.2
311	0.121410898	0	1.06422741
312	0.334974754	0	0.89333824
313	0.556318718	0	0.780812291
314	0.5	0	0.8
315	0.395960911	0	0.84807844
316	0.629570004	0	0.749021571
317	0.0541353146	0	1.10025403
318	0	0	1.15
319	0.136412135	0	1.00363717
320	0.26321754	0	0.906410367
321	0.298488336	0	0.882508306
322	0.449797802	0	0.800453181
323	0.34468012	0	0.846991658
324	1	0	0.671875609
325	0.912940173	0	0.674027252
326	0.0602522582	0	1.05534863
327	0.203156924	0	0.931911258
328	0.824430808	0	0.672661638
329	0.399030612	0	0.799626561
330	0	0	1.1
331	0.5	0	0.75
332	0.297272714	0	0.847776311
333	0.536201988	0	0.727620734
334	0.736856016	0	0.669104579
335	0.350057249	0	0.799557087
336	0.450059701	0	0.75046166
337	0.249053495	0	0.858926501
338	0.0649595276	0	1.0027234
339	0.131207224	0	0.943645735
340	0.579082133	0	0.694015042
341	0.65816218	0	0.667262543
342	0	0	1.05
343	0.400306485	0	0.750417537
344	0.298911034	0	0.801778738
345	0.19132579	0	0.871498992
346	0.5	0	0.7
347	0.608219002	0	0.65614255
348	0.510875455	0	0.681562132
349	0.0639340928	0	0.949326284
350	0.351216557	0	0.750810564
351	0.245591686	0	0.807882546
352	0.45	0	0.7
353	1	0	0.587921553
354	0	0	1
355	0.915889094	0	0.586447737
356	0.125582954	0	0.881648278
357	0.828803893	0	0.581638264
358	0.301210027	0	0.751571002
359	0.4	0	0.7
360	0.542337538	0	0.643275313
361	0.187509786	0	0.813509932
362	0.739103247	0	0.576854106
363	0	0	0.95
364	0.465610468	0	0.65193621
365	0.0615001784	0	0.893194327
366	0.35	0	0.7
367	0.656178044	0	0.587224899
368	0.24817059	0	0.754242283
369	0.58815212	0	0.601493648
370	0.119492374	0	0.816116267
371	0.3	0	0.7
372	0.194823042	0	0.756404133
373	0	0	0.9
374	0.408728355	0	0.631998815
375	1	0	0.507922783
376	0.0576489438	0	0.839012191
377	0.491979874	0	0.590374012
378	0.919897502	0	0.50196058
379	0.25	0	0.7
380	0.35156213	0	0.633968396
381	0.139806901	0	0.75543164
382	0.833580769	0	0.490255224
383	0.0875906052	0	0.78565684
384	0	0	0.85
385	0.2	0	0.7
386	0.298103269	0	0.637368905
387	0.0486982571	0	0.793330324
388	0.63493729	0	0.498610007
389	0.0945811839	0	0.747523928
390	0.545873894	0	0.519331829
391	0.15	0	0.7
392	0.247515357	0	0.64033505
393	0.731249055	0	0.468983331
394	0	0	0.8
395	1	0	0.431814636
396	0.411734815	0	0.544762739
397	0.0488546055	0	0.747957326
398	0.346075187	0	0.568362441
399	0.194942422	0	0.643296695
400	0.925246726	0	0.423150964
401	0.1	0	0.7
402	0.293335587	0	0.575172173
403	0.84979592	0	0.408420501
404	0.144389029	0	0.647097031
405	0	0	0.75
406	0.24063447	0	0.580363839
407	0.05	0	0.7
408	0.552260315	0	0.441669832
409	0.0958654151	0	0.651351447
410	0.327255468	0	0.5219591
411	0.60643414	0	0.417370291
412	0.772539083	0	0.384378757
413	0.18599319	0	0.585933449
414	0.459229512	0	0.460350296
415	0	0	0.7
416	1	0	0.359517866
417	0.671699843	0	0.391544831
418	0.285150085	0	0.518843671
419	0.048423534	0	0.653056207
420	0.931293483	0	0.350408141
421	0.133533295	0	0.593466375
422	0.350541132	0	0.478671187
423	0.0896798333	0	0.605107075
424	0.231685495	0	0.520809417
425	0.862299139	0	0.33448812
426	0	0	0.653333333
427	0.712986139	0	0.346696016
428	0.504458883	0	0.3867777
429	0.0463033792	0	0.607266612
430	0.174136545	0	0.526669872
431	0.288853564	0	0.461248601
432	0.083017244	0	0.568343867
433	0.79310276	0	0.310884227
434	0.637072679	0	0.330244686
435	1	0	0.290940704
436	0.676665069	0	0.318095677
437	0.111229752	0	0.535761221
438	0	0	0.606666667
439	0.936035336	0	0.282989019
440	0.568009105	0	0.336730576
441	0.0461408858	0	0.564091025
442	0.22726393	0	0.458611208
443	0.376172275	0	0.390687747
444	0.731467819	0	0.290338137
445	0.872675498	0	0.266662512
446	0.167637743	0	0.4641754
447	0	0	0.56
448	0.681734037	0	0.275660002
449	0.053395545	0	0.520390404
450	0.29245911	0	0.388868339
451	0.633086695	0	0.273681744
452	0.110061326	0	0.469938687
453	1	0	0.225980826
454	0.807936918	0	0.234505138
455	0.940502946	0	0.222367795
456	0.580612837	0	0.269955171
457	0.440579032	0	0.306720918
458	0.222671732	0	0.389669654
459	0.511466983	0	0.279305032
460	0.885601928	0	0.213714428
461	0.740857352	0	0.227277382
462	0	0	0.513333333
463	0.0542535933	0	0.468436178
464	0.844592151	0	0.202492526
465	0.161224999	0	0.401856183
466	0.543052069	0	0.253585144
467	0.3414247	0	0.318977162
468	0.685716564	0	0.220524448
469	0.634724876	0	0.217180788
470	0.106092219	0	0.411455144
471	0.283931683	0	0.315325595
472	0	0	0.466666667
473	0.584016424	0	0.213619626
474	1	0	0.16452723
475	0.942836466	0	0.164541308
476	0.89000366	0	0.161286156
477	0.0526485599	0	0.41694761
478	0.794615745	0	0.166325712
479	0.84272101	0	0.159232125
480	0.539467199	0	0.210778316
481	0.49678969	0	0.219350106
482	0.741097701	0	0.165601184
483	0.444753585	0	0.225164277
484	0.366043432	0	0.251669836
485	0.150159774	0	0.341545454
486	0.687765641	0	0.161868434
487	0.209738889	0	0.309342886
488	0	0	0.42
489	0.0996063698	0	0.358070185
490	0.637616679	0	0.160166903
491	0.403010353	0	0.213535314
492	0.588200001	0	0.157813658
493	0.0499772072	0	0.367398263
494	0.294084173	0	0.244170627
495	0.944860178	0	0.108196238
496	1	0	0.106461998
497	0.893043834	0	0.107458628
498	0.540812124	0	0.157918264
499	0.841672485	0	0.106824106
500	0.793062383	0	0.108287022
501	0.493861805	0	0.161435884
502	0	0	0.373333333
503	0.741152065	0	0.106933207
504	0.128624889	0	0.297262191
505	0.0899814184	0	0.312125509
506	0.445597699	0	0.163790791
507	0.691244197	0	0.106127072
508	0.231302111	0	0.234051868
509	0.160198493	0	0.265743598
510	0.641150863	0	0.104024548
511	0.0463522364	0	0.320592186
512	0.399038786	0	0.164013949
513	0.352510872	0	0.175037694
514	0.592250316	0	0.103929176
515	0.113359277	0	0.270156408
516	0.946976388	0	0.0533776512
517	1	0	0.0516619229
518	0.895639012	0	0.0535280108
519	0	0	0.326666667
520	0.543467451	0	0.103086037
521	0.844241022	0	0.0531035141
522	0.0838982294	0	0.272927103
523	0.29618652	0	0.175106664
524	0.794809237	0	0.0530650638
525	0.494920749	0	0.105085728
526	0.123469816	0	0.242268614
527	0.744123256	0	0.0518527224
528	0.178960379	0	0.214100702
529	0.0442409523	0	0.276206365
530	0.694908218	0	0.0516821004
531	0.446484581	0	0.105989891
532	0.645313069	0	0.0505352725
533	0.240553099	0	0.169157553
534	0.398527187	0	0.108819383
535	0.0858037682	0	0.234468293
536	0	0	0.28
537	0.59618295	0	0.0507924629
538	0.349488676	0	0.112085213
539	0.133717133	0	0.199228364
540	1	0	0
541	0.95	0	0
542	0.547166243	0	0.0502791429
543	0.9	0	0
544	0.85	0	0
545	0.0442509976	0	0.232563181
546	0.8	0	0
547	0.188673529	0	0.159880089
548	0.497617122	0	0.0512719394
549	0.297597937	0	0.11206078
550	0.75	0	0
551	0.7	0	0
552	0.0902896931	0	0.19097043
553	0.448540919	0	0.0515115384
554	0	0	0.233333333
555	0.65	0	0
556	0.245252122	0	0.110106022
557	0.399096704	0	0.0531884793
558	0.140466531	0	0.151067314
559	0.6	0	0
560	0.0459611357	0	0.187464836
561	0.55	0	0
562	0.349474142	0	0.0541471793
563	0.194714108	0	0.105194785
564	0.5	0	0
565	0.0936040611	0	0.14546817
566	0.299115476	0	0.0541583605
567	0	0	0.186666667
568	0.45	0	0
569	0.144979755	0	0.101100105
570	0.248143344	0	0.0540109688
571	0.4	0	0
572	0.0470694919	0	0.14189988
573	0.35	0	0
574	0.0965905285	0	0.0979350554
575	0.197947641	0	0.0525098649
576	0	0	0.14
577	0.3	0	0
578	0.147772079	0	0.050840718
579	0.048304507	0	0.0951447186
580	0.25	0	0
581	0.098331752	0	0.0491549917
582	0	0	0.0933333333
583	0.2	0	0
584	0.0489644008	0	0.0478441933
585	0.15	0	0
586	0.1	0	0
587	0	0	0.0466666667
588	0.05	0	0
589	0	0	0
End Coordinates

Elements
1 405 415 407 397
2 352 346 331 336
3 134 123 132 147
4 263 278 285 273
5 394 405 397 387
6 359 352 336 343
7 152 134 147 161
8 249 263 273 257
9 384 394 387 376
10 407 401 389 397
11 366 359 343 350
12 331 314 322 336
13 164 152 161 179
14 132 145 159 147
15 229 249 257 242
16 285 292 279 273
17 373 384 376 365
18 401 391 381 389
19 371 366 350 358
20 314 302 309 322
21 185 164 179 200
22 145 160 172 159
23 212 229 242 223
24 292 301 287 279
25 363 373 365 349
26 391 385 372 381
27 379 371 358 368
28 385 379 368 372
29 302 288 294 309
30 206 185 200 221
31 160 176 191 172
32 196 212 223 207
33 176 196 207 191
34 301 310 296 287
35 354 363 349 338
36 288 277 284 294
37 226 206 221 243
38 310 318 306 296
39 342 354 338 326
40 277 261 270 284
41 245 226 243 258
42 261 245 258 270
43 318 330 317 306
44 330 342 326 317
45 257 273 279 264
46 242 257 264 248
47 279 287 274 264
48 287 296 286 274
49 296 306 295 286
50 306 317 308 295
51 343 336 322 329
52 322 309 315 329
53 309 294 305 315
54 294 284 293 305
55 284 270 280 293
56 270 258 267 280
57 258 243 256 267
58 243 221 239 256
59 350 343 329 335
60 358 350 335 344
61 368 358 344 351
62 221 200 216 239
63 200 179 194 216
64 397 389 383 387
65 389 381 370 383
66 381 372 361 370
67 372 368 351 361
68 376 387 383 370
69 365 376 370 356
70 223 242 248 232
71 207 223 232 224
72 191 207 224 205
73 172 191 205 182
74 147 159 174 161
75 161 174 194 179
76 159 172 182 174
77 349 365 356 339
78 338 349 339 319
79 326 338 319 311
80 317 326 311 308
81 329 315 323 335
82 264 274 251 248
83 232 248 251 224
84 274 286 269 251
85 286 295 290 269
86 315 305 312 323
87 305 293 303 312
88 293 280 289 303
89 280 267 283 289
90 267 256 272 283
91 256 239 252 272
92 239 216 230 252
93 194 174 182 205
94 216 194 205 230
95 295 308 311 290
96 344 335 323 332
97 351 344 332 337
98 361 351 337 345
99 370 361 345 356
100 319 339 327 304
101 339 356 345 327
102 323 312 321 332
103 252 269 290 272
104 269 252 230 251
105 251 230 205 224
106 290 311 319 304
107 272 290 304 283
108 303 289 283 304
109 304 327 320 303
110 312 303 320 321
111 320 337 332 321
112 320 327 345 337
113 587 589 588 584
114 415 426 419 407
115 582 587 584 579
116 426 438 429 419
117 576 582 579 572
118 438 447 441 429
119 567 576 572 560
120 447 462 449 441
121 554 567 560 545
122 462 472 463 449
123 536 554 545 529
124 472 488 477 463
125 519 536 529 511
126 488 502 493 477
127 502 519 511 493
128 541 540 517 516
129 1 2 4 3
130 188 211 213 190
131 266 278 263 255
132 588 586 581 584
133 401 407 419 409
134 543 541 516 518
135 2 5 7 4
136 163 188 190 167
137 262 266 255 246
138 586 585 578 581
139 391 401 409 404
140 544 543 518 521
141 5 9 12 7
142 146 163 167 151
143 213 215 192 190
144 253 262 246 236
145 263 249 240 255
146 585 583 575 578
147 385 391 404 399
148 546 544 521 524
149 9 16 17 12
150 129 146 151 133
151 215 219 195 192
152 247 253 236 225
153 249 229 220 240
154 583 580 570 575
155 379 385 399 392
156 550 546 524 527
157 16 23 21 17
158 111 129 133 116
159 219 222 198 195
160 241 247 225 217
161 229 212 199 220
162 580 577 566 570
163 371 379 392 386
164 551 550 527 530
165 23 29 26 21
166 99 111 116 100
167 222 227 201 198
168 233 241 217 208
169 227 233 208 201
170 212 196 178 199
171 577 573 562 566
172 366 371 386 380
173 555 551 530 532
174 29 34 32 26
175 86 99 100 87
176 196 176 157 178
177 573 571 557 562
178 359 366 380 374
179 559 555 532 537
180 34 41 39 32
181 75 86 87 77
182 176 160 137 157
183 571 568 553 557
184 352 359 374 364
185 561 559 537 542
186 41 48 47 39
187 66 75 77 67
188 160 145 126 137
189 568 564 548 553
190 542 548 564 561
191 48 56 55 47
192 56 66 67 55
193 145 132 110 126
194 331 346 348 333
195 346 352 364 348
196 132 123 102 110
197 517 496 495 516
198 6 3 4 8
199 496 474 475 495
200 11 6 8 13
201 474 453 455 475
202 19 11 13 20
203 453 435 439 455
204 27 19 20 28
205 435 416 420 439
206 36 27 28 37
207 416 395 400 420
208 45 36 37 46
209 395 375 378 400
210 59 45 46 60
211 375 353 355 378
212 73 59 60 74
213 353 324 325 355
214 93 73 74 90
215 324 299 298 325
216 119 93 90 114
217 299 271 268 298
218 150 119 114 144
219 271 237 231 268
220 189 150 144 184
221 237 189 184 231
222 134 152 136 125
223 123 134 125 117
224 152 164 156 136
225 164 185 175 156
226 185 206 197 175
227 206 226 214 197
228 226 245 238 214
229 245 261 254 238
230 261 277 265 254
231 277 288 281 265
232 288 302 297 281
233 302 314 313 297
234 314 331 333 313
235 313 333 340 316
236 123 117 105 102
237 419 429 423 409
238 429 441 432 423
239 584 581 574 579
240 581 578 569 574
241 572 579 574 565
242 404 409 423 421
243 246 255 240 228
244 236 246 228 218
245 240 220 209 228
246 220 199 187 209
247 199 178 162 187
248 399 404 421 413
249 297 313 316 291
250 281 297 291 276
251 265 281 276 259
252 254 265 259 250
253 214 238 234 202
254 392 399 413 406
255 386 392 406 402
256 578 575 563 569
257 518 516 495 497
258 4 7 10 8
259 333 348 360 340
260 441 449 437 432
261 449 463 452 437
262 125 136 128 112
263 136 156 148 128
264 156 175 165 148
265 175 197 186 165
266 380 386 402 398
267 197 214 202 186
268 374 380 398 396
269 364 374 396 377
270 190 192 170 167
271 192 195 168 170
272 195 198 171 168
273 198 201 177 171
274 7 12 15 10
275 12 17 24 15
276 17 21 26 24
277 26 32 31 24
278 32 39 40 31
279 39 47 49 40
280 47 55 58 49
281 55 67 68 58
282 67 77 79 68
283 77 87 88 79
284 87 100 103 88
285 100 116 121 103
286 116 133 142 121
287 151 167 170 155
288 133 151 155 142
289 225 236 218 204
290 217 225 204 193
291 201 208 183 177
292 208 217 193 183
293 178 157 141 162
294 157 137 124 141
295 560 572 565 552
296 545 560 552 535
297 529 545 535 522
298 511 529 522 505
299 493 511 505 489
300 477 493 489 470
301 463 477 470 452
302 575 570 556 563
303 570 566 549 556
304 566 562 538 549
305 562 557 534 538
306 557 553 531 534
307 553 548 525 531
308 548 542 520 525
309 542 537 514 520
310 537 532 510 514
311 532 530 507 510
312 530 527 503 507
313 527 524 500 503
314 521 518 497 499
315 524 521 499 500
316 13 8 10 14
317 20 13 14 22
318 495 475 476 497
319 475 455 460 476
320 348 364 377 360
321 28 20 22 30
322 137 126 107 124
323 126 110 92 107
324 110 102 84 92
325 455 439 445 460
326 37 28 30 38
327 439 420 425 445
328 420 400 403 425
329 400 378 382 403
330 378 355 357 382
331 355 325 328 357
332 46 37 38 50
333 60 46 50 62
334 74 60 62 76
335 90 74 76 94
336 325 298 300 328
337 298 268 275 300
338 114 90 94 113
339 144 114 113 140
340 268 231 235 275
341 184 144 140 180
342 231 184 180 235
343 170 168 142 155
344 168 171 149 142
345 171 177 153 149
346 499 497 476 479
347 218 228 209 203
348 204 218 203 181
349 193 204 181 166
350 177 183 158 153
351 183 193 166 158
352 238 254 250 234
353 10 15 18 14
354 421 423 432 437
355 565 574 569 558
356 552 565 558 539
357 535 552 539 526
358 209 187 181 203
359 522 535 526 515
360 505 522 515 504
361 489 505 504 485
362 470 489 485 465
363 102 105 89 84
364 500 499 479 478
365 503 500 478 482
366 507 503 482 486
367 510 507 486 490
368 514 510 490 492
369 520 514 492 498
370 525 520 498 501
371 531 525 501 506
372 534 531 506 512
373 538 534 512 513
374 413 421 437 430
375 406 413 430 424
376 402 406 424 418
377 398 410 422 396
378 452 470 465 446
379 437 452 446 430
380 360 377 390 369
381 340 360 369 347
382 377 396 414 390
383 187 162 154 181
384 162 141 131 154
385 549 538 513 523
386 556 549 523 533
387 563 556 533 547
388 569 563 547 558
389 476 460 464 479
390 141 124 109 131
391 124 107 95 109
392 22 14 18 25
393 30 22 25 33
394 38 30 33 43
395 50 38 43 54
396 460 445 454 464
397 445 425 433 454
398 15 24 25 18
399 107 92 78 95
400 425 403 412 433
401 24 31 35 25
402 31 40 44 35
403 40 49 53 44
404 49 58 61 53
405 58 68 71 61
406 68 79 80 71
407 79 88 91 80
408 88 103 106 91
409 103 121 127 106
410 121 142 149 127
411 62 50 54 70
412 76 62 70 83
413 403 382 393 412
414 382 357 362 393
415 94 76 83 97
416 92 84 65 78
417 113 94 97 118
418 140 113 118 138
419 357 328 334 362
420 328 300 307 334
421 300 275 282 307
422 275 235 260 282
423 180 140 138 173
424 128 148 139 120
425 117 125 112 105
426 148 165 169 139
427 165 186 202 169
428 276 291 282 260
429 291 316 307 282
430 316 340 347 341
431 307 316 341 334
432 259 276 260 244
433 250 259 244 234
434 234 244 210 202
435 139 169 173 138
436 139 138 118 120
437 478 479 464 454
438 482 478 454 461
439 486 482 461 468
440 490 486 468 469
441 492 490 469 473
442 498 492 473 480
443 501 498 480 481
444 506 501 481 483
445 558 547 528 539
446 526 539 528 509
447 504 515 526 509
448 128 120 104 112
449 120 118 97 104
450 105 112 104 89
451 485 504 509 487
452 547 533 508 528
453 508 487 509 528
454 512 506 483 491
455 513 512 491 484
456 523 513 484 494
457 533 523 494 508
458 149 153 130 127
459 424 430 446 442
460 465 485 487 458
461 446 465 458 442
462 418 424 442 431
463 402 418 410 398
464 396 422 443 414
465 181 154 143 166
466 153 158 135 130
467 158 166 143 135
468 341 347 369 367
469 334 341 367 362
470 454 433 444 461
471 154 131 122 143
472 131 109 101 122
473 109 95 85 101
474 95 78 64 85
475 106 127 130 108
476 91 106 108 96
477 80 91 96 81
478 71 80 81 72
479 61 71 72 63
480 53 61 63 57
481 393 362 367 388
482 433 412 427 444
483 367 369 390 388
484 97 83 89 104
485 89 83 70 84
486 84 70 54 65
487 54 43 52 65
488 43 33 42 52
489 33 25 35 42
490 44 53 57 51
491 35 44 51 42
492 412 393 417 427
493 78 65 52 64
494 260 235 210 244
495 169 202 210 173
496 390 414 428 408
497 51 64 52 42
498 418 431 422 410
499 431 442 458 450
500 468 461 444 448
501 469 468 448 451
502 473 469 451 456
503 480 473 456 466
504 481 480 466 459
505 483 481 459 457
506 491 483 457 484
507 414 443 457 428
508 508 494 471 487
509 458 487 471 450
510 494 484 467 471
511 143 122 115 135
512 135 115 108 130
513 96 108 115 98
514 122 101 98 115
515 417 393 388 411
516 388 390 408 411
517 444 427 436 448
518 427 417 434 436
519 101 85 82 98
520 82 81 96 98
521 72 81 82 69
522 82 85 64 69
523 64 51 57 69
524 72 69 57 63
525 428 457 459 440
526 440 459 466 456
527 484 457 443 467
528 471 467 443 450
529 431 450 443 422
530 408 428 440 411
531 417 411 440 434
532 440 456 451 434
533 451 448 436 434
534 173 210 235 180
End Elements
