# vtk DataFile Version 2.0
CGAL constrained delaunay mesh generation 2d
ASCII
DATASET UNSTRUCTURED_GRID
POINTS 1223 double
0 0 0
0.025 0 0
0.05 0 0
0.075 0 0
0.1 0 0
0.125 0 0
0.15 0 0
0.175 0 0
0.2 0 0
0.225 0 0
0.25 0 0
0.275 0 0
0.3 0 0
0.325 0 0
0.35 0 0
0.375 0 0
0.4 0 0
0.425 0 0
0.45 0 0
0.475 0 0
0.5 0 0
0.525 0 0
0.55 0 0
0.575 0 0
0.6 0 0
0.625 0 0
0.65 0 0
0.675 0 0
0.7 0 0
0.725 0 0
0.75 0 0
0.775 0 0
0.8 0 0
0.825 0 0
0.85 0 0
0.875 0 0
0.9 0 0
0.925 0 0
0.95 0 0
0.975 0 0
1 0 0
1 0 0.025
1 0 0.05
1 0 0.075
1 0 0.1
1 0 0.125
1 0 0.15
1 0 0.175
1 0 0.2
1 0 0.225
1 0 0.25
1 0 0.275
1 0 0.3
1 0 0.325
1 0 0.35
1 0 0.375
1 0 0.4
1 0 0.425
1 0 0.45
1 0 0.475
1 0 0.5
1 0 0.525
1 0 0.55
1 0 0.575
1 0 0.6
1 0 0.625
1 0 0.65
1 0 0.675
1 0 0.7
1 0 0.725
1 0 0.75
1 0 0.775
1 0 0.8
1 0 0.825
1 0 0.85
1 0 0.875
1 0 0.9
1 0 0.925
1 0 0.95
1 0 0.975
1 0 1
0.975 0 1
0.95 0 1
0.925 0 1
0.9 0 1
0.875 0 1
0.85 0 1
0.825 0 1
0.8 0 1
0.775 0 1
0.75 0 1
0.725 0 1
0.7 0 1
0.675 0 1
0.65 0 1
0.625 0 1
0.6 0 1
0.575 0 1
0.55 0 1
0.525 0 1
0.5 0 1
0.475 0 1
0.45 0 1
0.425 0 1
0.4 0 1
0.375 0 1
0.35 0 1
0.325 0 1
0.3 0 1
0.275 0 1
0.25 0 1
0.225 0 1
0.2 0 1
0.175 0 1
0.15 0 1
0.125 0 1
0.1 0 1
0.075 0 1
0.05 0 1
0.025 0 1
0 0 1
0 0 0.975
0 0 0.95
0 0 0.925
0 0 0.9
0 0 0.875
0 0 0.85
0 0 0.825
0 0 0.8
0 0 0.775
0 0 0.75
0 0 0.725
0 0 0.7
0 0 0.675
0 0 0.65
0 0 0.625
0 0 0.6
0 0 0.575
0 0 0.55
0 0 0.525
0 0 0.5
0 0 0.475
0 0 0.45
0 0 0.425
0 0 0.4
0 0 0.375
0 0 0.35
0 0 0.325
0 0 0.3
0 0 0.275
0 0 0.25
0 0 0.225
0 0 0.2
0 0 0.175
0 0 0.15
0 0 0.125
0 0 0.1
0 0 0.075
0 0 0.05
0 0 0.025
0.3 0 0.3
0.32 0 0.3
0.34 0 0.3
0.36 0 0.3
0.38 0 0.3
0.4 0 0.3
0.42 0 0.3
0.44 0 0.3
0.46 0 0.3
0.48 0 0.3
0.5 0 0.3
0.52 0 0.3
0.54 0 0.3
0.56 0 0.3
0.58 0 0.3
0.6 0 0.3
0.62 0 0.3
0.64 0 0.3
0.66 0 0.3
0.68 0 0.3
0.7 0 0.3
0.7 0 0.32
0.7 0 0.34
0.7 0 0.36
0.7 0 0.38
0.7 0 0.4
0.7 0 0.42
0.7 0 0.44
0.7 0 0.46
0.7 0 0.48
0.7 0 0.5
0.7 0 0.52
0.7 0 0.54
0.7 0 0.56
0.7 0 0.58
0.7 0 0.6
0.7 0 0.62
0.7 0 0.64
0.7 0 0.66
0.7 0 0.68
0.7 0 0.7
0.68 0 0.7
0.66 0 0.7
0.64 0 0.7
0.62 0 0.7
0.6 0 0.7
0.58 0 0.7
0.56 0 0.7
0.54 0 0.7
0.52 0 0.7
0.5 0 0.7
0.48 0 0.7
0.46 0 0.7
0.44 0 0.7
0.42 0 0.7
0.4 0 0.7
0.38 0 0.7
0.36 0 0.7
0.34 0 0.7
0.32 0 0.7
0.3 0 0.7
0.3 0 0.68
0.3 0 0.66
0.3 0 0.64
0.3 0 0.62
0.3 0 0.6
0.3 0 0.58
0.3 0 0.56
0.3 0 0.54
0.3 0 0.52
0.3 0 0.5
0.3 0 0.48
0.3 0 0.46
0.3 0 0.44
0.3 0 0.42
0.3 0 0.4
0.3 0 0.38
0.3 0 0.36
0.3 0 0.34
0.3 0 0.32
0.498471 0 0.496196
0.828779 0 0.808418
0.186683 0 0.828999
0.813619 0 0.168624
0.170338 0 0.189971
0.851947 0 0.588652
0.844246 0 0.391798
0.386237 0 0.851163
0.585288 0 0.853985
0.589281 0 0.147479
0.148161 0 0.611611
0.150068 0 0.389656
0.389953 0 0.155262
0.706432 0 0.822038
0.701113 0 0.11587
0.881251 0 0.702302
0.187015 0 0.502574
0.28437 0 0.187475
0.812034 0 0.286021
0.189075 0 0.7152
0.413805 0 0.576347
0.414575 0 0.417062
0.572054 0 0.586115
0.589469 0 0.433596
0.113247 0 0.28084
0.286903 0 0.888685
0.894306 0 0.894768
0.100484 0 0.896098
0.897102 0 0.11146
0.102419 0 0.10398
0.485668 0 0.891302
0.104689 0 0.771287
0.895009 0 0.488782
0.487019 0 0.10413
0.89701 0 0.224162
0.227294 0 0.103877
0.784116 0 0.901898
0.471965 0 0.798085
0.505212 0 0.202467
0.792131 0 0.501339
0.203526 0 0.310597
0.280385 0 0.789018
0.0966178 0 0.468925
0.800414 0 0.665017
0.67101 0 0.204647
0.68478 0 0.908251
0.784708 0 0.0841773
0.919114 0 0.786823
0.500788 0 0.409505
0.190752 0 0.918552
0.0810865 0 0.190201
0.761968 0 0.762718
0.319641 0 0.0904569
0.909043 0 0.320449
0.0879371 0 0.683543
0.0808608 0 0.558603
0.755607 0 0.226484
0.640252 0 0.782706
0.608479 0 0.512855
0.487526 0 0.605611
0.551301 0 0.780016
0.0773039 0 0.366699
0.930357 0 0.568734
0.553785 0 0.923155
0.349535 0 0.918854
0.569088 0 0.0722321
0.920883 0 0.415256
0.414233 0 0.07499
0.223919 0 0.576638
0.77315 0 0.408371
0.36913 0 0.223504
0.218616 0 0.428229
0.377936 0 0.488932
0.37092 0 0.772212
0.769323 0 0.588588
0.588397 0 0.228339
0.926049 0 0.63917
0.630308 0 0.0760621
0.22091 0 0.651997
0.229467 0 0.238073
0.437119 0 0.20309
0.4212 0 0.909334
0.367636 0 0.627885
0.628783 0 0.630914
0.603383 0 0.360026
0.771114 0 0.342603
0.363435 0 0.365934
0.523364 0 0.835899
0.622597 0 0.903135
0.816846 0 0.728545
0.0909277 0 0.62275
0.830804 0 0.453992
0.0720803 0 0.839515
0.166939 0 0.0701472
0.324871 0 0.825397
0.461281 0 0.364741
0.168562 0 0.256211
0.642241 0 0.840478
0.769744 0 0.837721
0.698357 0 0.761102
0.849801 0 0.0661644
0.725915 0 0.0612744
0.943977 0 0.717641
0.206907 0 0.373639
0.125659 0 0.825414
0.748756 0 0.168056
0.648445 0 0.137034
0.866523 0 0.650377
0.935688 0 0.161134
0.525315 0 0.354931
0.35802 0 0.428596
0.943428 0 0.93527
0.0627815 0 0.940575
0.0615626 0 0.0590459
0.246804 0 0.483503
0.175477 0 0.12848
0.442914 0 0.46931
0.314663 0 0.242901
0.0614587 0 0.249536
0.626792 0 0.573889
0.431553 0 0.634782
0.159387 0 0.44878
0.151457 0 0.548312
0.263705 0 0.943267
0.837363 0 0.940221
0.357162 0 0.547132
0.64266 0 0.460696
0.540759 0 0.644899
0.915343 0 0.0554632
0.874175 0 0.169443
0.250053 0 0.738312
0.132818 0 0.941263
0.940458 0 0.845371
0.0552082 0 0.136018
0.471755 0 0.560515
0.554801 0 0.482152
0.0567312 0 0.306788
0.336767 0 0.170473
0.22836 0 0.163915
0.849984 0 0.33281
0.86913 0 0.274577
0.834556 0 0.223389
0.756438 0 0.286161
0.941092 0 0.26807
0.265522 0 0.0585394
0.129712 0 0.33819
0.0570795 0 0.737121
0.527558 0 0.546611
0.149808 0 0.670275
0.163918 0 0.772823
0.227378 0 0.867842
0.878699 0 0.838451
0.222726 0 0.788377
0.838811 0 0.881277
0.836899 0 0.121205
0.128908 0 0.725043
0.122714 0 0.225047
0.737789 0 0.941858
0.733345 0 0.885159
0.448865 0 0.152789
0.868369 0 0.757298
0.447106 0 0.853213
0.48099 0 0.947896
0.429005 0 0.753054
0.945982 0 0.467607
0.46377 0 0.0549524
0.127592 0 0.15321
0.869783 0 0.535247
0.543276 0 0.125554
0.750723 0 0.468664
0.157576 0 0.872987
0.471815 0 0.24972
0.115931 0 0.0520868
0.0547938 0 0.424472
0.417372 0 0.804797
0.94986 0 0.111302
0.750634 0 0.534263
0.539671 0 0.245323
0.278574 0 0.130291
0.31867 0 0.753514
0.949207 0 0.214376
0.213159 0 0.0511999
0.050001 0 0.888655
0.887677 0 0.94981
0.502768 0 0.750833
0.055028 0 0.505568
0.0514173 0 0.786515
0.623445 0 0.18843
0.810576 0 0.627563
0.424162 0 0.520856
0.253945 0 0.329752
0.350246 0 0.871508
0.51467 0 0.0499117
0.41713 0 0.251949
0.118253 0 0.511304
0.790514 0 0.951127
0.948211 0 0.359288
0.893363 0 0.368809
0.362007 0 0.0516191
0.368852 0 0.103968
0.653831 0 0.94876
0.641281 0 0.408222
0.747797 0 0.637969
0.752305 0 0.692869
0.640452 0 0.248483
0.697277 0 0.251431
0.948289 0 0.512942
0.253289 0 0.389394
0.492567 0 0.154855
0.554517 0 0.184833
0.806563 0 0.552303
0.603625 0 0.953748
0.889119 0 0.436233
0.053017 0 0.647943
0.0518905 0 0.58476
0.262049 0 0.259016
0.256571 0 0.841416
0.101784 0 0.399854
0.444326 0 0.952223
0.809438 0 0.35584
0.95375 0 0.763161
0.303242 0 0.929333
0.597018 0 0.74973
0.65776 0 0.351639
0.705727 0 0.167926
0.575124 0 0.526492
0.832614 0 0.683226
0.20568 0 0.944671
0.941072 0 0.887363
0.842637 0 0.505528
0.390618 0 0.954515
0.314849 0 0.0469572
0.966873 0 0.311728
0.550961 0 0.40022
0.551065 0 0.882525
0.659174 0 0.532587
0.468007 0 0.654725
0.249992 0 0.683832
0.249108 0 0.532703
0.25959 0 0.607641
0.692883 0 0.861244
0.607463 0 0.114128
0.416089 0 0.372627
0.52209 0 0.457134
0.959539 0 0.0589265
0.682782 0 0.0484177
0.584814 0 0.633765
0.160279 0 0.31105
0.884313 0 0.604704
0.807939 0 0.0413816
0.949509 0 0.800573
0.744899 0 0.109737
0.788419 0 0.140263
0.0375584 0 0.462325
0.523819 0 0.602361
0.318407 0 0.135419
0.947491 0 0.59867
0.110646 0 0.578049
0.601427 0 0.0504975
0.463565 0 0.43225
0.653035 0 0.741376
0.0408782 0 0.181902
0.702018 0 0.951041
0.170343 0 0.341222
0.728449 0 0.723851
0.735423 0 0.790081
0.794445 0 0.793312
0.898646 0 0.738308
0.96018 0 0.664315
0.0559708 0 0.700941
0.585007 0 0.791454
0.823351 0 0.769926
0.604508 0 0.468264
0.537987 0 0.965781
0.872784 0 0.800453
0.798522 0 0.463306
0.120791 0 0.641275
0.334641 0 0.96163
0.343471 0 0.476012
0.792198 0 0.21813
0.778419 0 0.24802
0.507524 0 0.797266
0.486406 0 0.851977
0.199039 0 0.608762
0.405296 0 0.457408
0.448298 0 0.590204
0.13388 0 0.477152
0.675501 0 0.794762
0.232103 0 0.924414
0.451414 0 0.0891676
0.424492 0 0.112828
0.775916 0 0.72207
0.74879 0 0.381721
0.745617 0 0.429514
0.354902 0 0.255973
0.658093 0 0.886112
0.802634 0 0.864128
0.389495 0 0.744639
0.126244 0 0.44016
0.768798 0 0.0549136
0.256886 0 0.448086
0.743707 0 0.570623
0.191046 0 0.404741
0.201724 0 0.468199
0.211146 0 0.534558
0.573543 0 0.347346
0.227826 0 0.279058
0.367124 0 0.587728
0.562165 0 0.819615
0.538991 0 0.744122
0.314549 0 0.857817
0.223587 0 0.829455
0.407464 0 0.658567
0.663506 0 0.591585
0.348981 0 0.511599
0.177291 0 0.967146
0.460007 0 0.522852
0.703556 0 0.202785
0.384899 0 0.891256
0.0372923 0 0.543781
0.481123 0 0.46487
0.17266 0 0.587654
0.896372 0 0.670632
0.0378836 0 0.344076
0.0471585 0 0.383602
0.588481 0 0.888611
0.185263 0 0.65059
0.492341 0 0.346454
0.519856 0 0.904283
0.963871 0 0.548354
0.912827 0 0.518637
0.341558 0 0.648915
0.650124 0 0.658387
0.563739 0 0.0344614
0.669506 0 0.105931
0.645677 0 0.0454025
0.521368 0 0.0881836
0.455918 0 0.921325
0.96217 0 0.403249
0.424549 0 0.0330472
0.33868 0 0.609436
0.61129 0 0.659753
0.430977 0 0.340606
0.37687 0 0.185362
0.822102 0 0.417684
0.811948 0 0.321682
0.255228 0 0.645478
0.905562 0 0.186469
0.0429463 0 0.0992035
0.383985 0 0.810799
0.20935 0 0.683945
0.0939598 0 0.313206
0.260162 0 0.571185
0.507787 0 0.657691
0.263522 0 0.217813
0.190171 0 0.223756
0.589829 0 0.265345
0.331182 0 0.388295
0.390783 0 0.345563
0.101589 0 0.964666
0.473947 0 0.187322
0.116279 0 0.191545
0.667507 0 0.170706
0.0913913 0 0.807206
0.216806 0 0.74744
0.230115 0 0.203595
0.352532 0 0.329355
0.353013 0 0.744346
0.565495 0 0.667275
0.496888 0 0.377154
0.620556 0 0.809405
0.603102 0 0.599609
0.143683 0 0.100795
0.661157 0 0.383801
0.906028 0 0.282881
0.555459 0 0.436427
0.742763 0 0.318133
0.694723 0 0.0799488
0.156889 0 0.906697
0.666312 0 0.435755
0.0889297 0 0.71736
0.387444 0 0.524506
0.094026 0 0.140005
0.536744 0 0.517132
0.263477 0 0.0987377
0.861173 0 0.908579
0.65657 0 0.488601
0.885767 0 0.572763
0.467592 0 0.752874
0.296449 0 0.969074
0.501068 0 0.574716
0.964041 0 0.9688
0.0325781 0 0.965006
0.876618 0 0.0395084
0.661152 0 0.62521
0.373358 0 0.664626
0.28288 0 0.754405
0.147784 0 0.0325228
0.574578 0 0.116069
0.189065 0 0.882259
0.102685 0 0.85725
0.815494 0 0.591417
0.0301386 0 0.0321991
0.881392 0 0.400422
0.0561773 0 0.214901
0.578382 0 0.379923
0.843328 0 0.188844
0.970802 0 0.859881
0.964159 0 0.634575
0.199613 0 0.0812411
0.780085 0 0.374811
0.359503 0 0.140502
0.267066 0 0.292151
0.319884 0 0.20894
0.313498 0 0.789456
0.415885 0 0.175704
0.405994 0 0.214666
0.968687 0 0.433903
0.503621 0 0.257849
0.836345 0 0.847442
0.595344 0 0.559092
0.152991 0 0.508161
0.74143 0 0.605671
0.228323 0 0.713039
0.778274 0 0.307423
0.389058 0 0.390604
0.0325945 0 0.836603
0.586543 0 0.186497
0.417297 0 0.873409
0.529568 0 0.154293
0.0265207 0 0.263531
0.71179 0 0.030138
0.624738 0 0.868936
0.119317 0 0.373749
0.181138 0 0.0315955
0.968317 0 0.915122
0.937864 0 0.029162
0.289497 0 0.823776
0.0902678 0 0.221013
0.843223 0 0.154748
0.395361 0 0.0440878
0.66963 0 0.268816
0.863769 0 0.100583
0.869233 0 0.133677
0.901892 0 0.149558
0.627698 0 0.333971
0.405278 0 0.60346
0.0291109 0 0.627908
0.72985 0 0.853292
0.844156 0 0.0299816
0.815184 0 0.0743475
0.927553 0 0.088406
0.886135 0 0.0752467
0.0317799 0 0.761423
0.156785 0 0.227627
0.858805 0 0.967735
0.444179 0 0.818914
0.443653 0 0.400313
0.25005 0 0.77065
0.321492 0 0.89524
0.0894833 0 0.0325375
0.0919312 0 0.429772
0.782234 0 0.638862
0.385597 0 0.26795
0.100214 0 0.252036
0.0808011 0 0.281287
0.486417 0 0.0301134
0.971322 0 0.488578
0.131826 0 0.790744
0.160627 0 0.808251
0.856287 0 0.428023
0.864982 0 0.467116
0.201672 0 0.259221
0.773171 0 0.556692
0.801219 0 0.829088
0.765723 0 0.873967
0.687646 0 0.730888
0.921496 0 0.969299
0.873517 0 0.204021
0.910471 0 0.460901
0.0327137 0 0.922473
0.607468 0 0.399308
0.653056 0 0.91769
0.515342 0 0.868716
0.331142 0 0.570495
0.79626 0 0.753704
0.967298 0 0.18237
0.296896 0 0.158215
0.864971 0 0.237086
0.678974 0 0.13937
0.846784 0 0.711931
0.808314 0 0.699498
0.908643 0 0.865844
0.926415 0 0.817103
0.1786 0 0.532126
0.837303 0 0.53999
0.769366 0 0.932185
0.0831572 0 0.592436
0.0839517 0 0.651797
0.0960044 0 0.928954
0.203225 0 0.191398
0.967697 0 0.145446
0.447294 0 0.889673
0.210549 0 0.134531
0.244981 0 0.132312
0.190307 0 0.160408
0.0733204 0 0.0893439
0.57126 0 0.951316
0.771541 0 0.447408
0.913175 0 0.598765
0.781682 0 0.173911
0.737214 0 0.200376
0.729078 0 0.135699
0.404795 0 0.774992
0.445048 0 0.727464
0.719816 0 0.274975
0.636883 0 0.217039
0.36977 0 0.456784
0.968134 0 0.240265
0.928484 0 0.491493
0.737649 0 0.821331
0.93087 0 0.68182
0.411933 0 0.490384
0.0284143 0 0.0682016
0.3556 0 0.835042
0.350602 0 0.80158
0.270653 0 0.715554
0.592554 0 0.923502
0.0260649 0 0.406999
0.596238 0 0.0852521
0.49141 0 0.0700091
0.46387 0 0.327301
0.834001 0 0.648447
0.727452 0 0.488199
0.240058 0 0.0308729
0.97219 0 0.0277542
0.158746 0 0.737563
0.133715 0 0.757039
0.151744 0 0.703082
0.807462 0 0.927107
0.819793 0 0.969747
0.254684 0 0.808823
0.191635 0 0.799039
0.447436 0 0.268487
0.884469 0 0.33978
0.876957 0 0.307242
0.0650866 0 0.971104
0.922118 0 0.913141
0.145638 0 0.280759
0.182793 0 0.284998
0.674808 0 0.829954
0.433769 0 0.439998
0.116833 0 0.547872
0.253951 0 0.185438
0.495933 0 0.530459
0.439979 0 0.552145
0.586829 0 0.494221
0.569769 0 0.729486
0.0268457 0 0.31685
0.760503 0 0.968634
0.818557 0 0.485429
0.267715 0 0.506253
0.976029 0 0.712361
0.388876 0 0.924167
0.297832 0 0.271564
0.155999 0 0.839909
0.201162 0 0.345146
0.1773 0 0.375599
0.224632 0 0.396864
0.518297 0 0.323706
0.0844453 0 0.501377
0.654035 0 0.562884
0.810692 0 0.251265
0.756054 0 0.503703
0.863616 0 0.679567
0.859509 0 0.620987
0.189289 0 0.562603
0.619866 0 0.139537
0.27063 0 0.362163
0.237029 0 0.361332
0.729324 0 0.75849
0.462085 0 0.214908
0.675904 0 0.463492
0.536612 0 0.676187
0.625215 0 0.487773
0.553724 0 0.613226
0.621497 0 0.435287
0.515479 0 0.627647
0.84198 0 0.298187
0.837468 0 0.362097
0.152573 0 0.642275
0.117398 0 0.67254
0.339748 0 0.232417
0.497496 0 0.821323
0.323316 0 0.429826
0.38481 0 0.426238
0.0729704 0 0.399155
0.119256 0 0.608577
0.290707 0 0.0764121
0.971205 0 0.277546
0.27885 0 0.0289975
0.235413 0 0.0726012
0.925764 0 0.241085
0.971024 0 0.824929
0.221183 0 0.500176
0.230518 0 0.45616
0.715374 0 0.916822
0.159187 0 0.156561
0.739096 0 0.349079
0.639678 0 0.107288
0.725391 0 0.973454
0.70591 0 0.790024
0.300179 0 0.726473
0.744406 0 0.0304674
0.51478 0 0.231827
0.535488 0 0.212903
0.44286 0 0.235781
0.275423 0 0.471586
0.0245598 0 0.20736
0.935185 0 0.29979
0.0705405 0 0.335043
0.841047 0 0.261711
0.460656 0 0.621958
0.626088 0 0.540367
0.396773 0 0.634512
0.892548 0 0.635408
0.559316 0 0.554801
0.49099 0 0.723775
0.412963 0 0.974879
0.0258358 0 0.7218
0.0697397 0 0.160604
0.637764 0 0.971981
0.141065 0 0.970045
0.0266395 0 0.515353
0.26508 0 0.973667
0.264522 0 0.91067
0.339173 0 0.111799
0.12116 0 0.0821811
0.323771 0 0.539183
0.386263 0 0.561542
0.124326 0 0.915773
0.170857 0 0.474481
0.188815 0 0.438267
0.161889 0 0.417062
0.910977 0 0.70674
0.025611 0 0.125065
0.525515 0 0.486773
0.466713 0 0.974976
0.57509 0 0.461377
0.559747 0 0.27414
0.971648 0 0.341713
0.340374 0 0.0275692
0.666315 0 0.764248
0.205068 0 0.856202
0.257258 0 0.870921
0.904224 0 0.0255409
0.349014 0 0.0797974
0.650468 0 0.811469
0.621209 0 0.724526
0.927684 0 0.12877
0.0773883 0 0.877011
0.45555 0 0.0269453
0.171897 0 0.0999389
0.0835991 0 0.74863
0.561207 0 0.153439
0.474537 0 0.400627
0.415979 0 0.838524
0.298317 0 0.108932
0.665538 0 0.236778
0.52544 0 0.388938
0.24984 0 0.420125
0.550952 0 0.850022
0.459023 0 0.123525
0.971738 0 0.0894839
0.74868 0 0.258639
0.870492 0 0.871567
0.854447 0 0.820698
0.722835 0 0.650283
0.348586 0 0.201328
0.891836 0 0.254096
0.809406 0 0.39018
0.671911 0 0.971885
0.753396 0 0.0820643
0.177891 0 0.682178
0.132423 0 0.857607
0.632441 0 0.371905
0.228557 0 0.618479
0.811891 0 0.893337
0.446767 0 0.781342
0.418066 0 0.724691
0.937801 0 0.439087
0.438063 0 0.0602454
0.495793 0 0.437058
0.973772 0 0.37206
0.563536 0 0.214904
0.100512 0 0.346069
0.125694 0 0.309006
0.637736 0 0.599592
0.148314 0 0.130253
0.676297 0 0.324537
0.662426 0 0.0754691
0.0934681 0 0.0697197
0.437467 0 0.672917
0.14798 0 0.361998
0.77767 0 0.0247182
0.586549 0 0.978347
0.0661207 0 0.531738
0.917926 0 0.354119
0.936235 0 0.382802
0.327971 0 0.725894
0.341202 0 0.772787
0.293851 0 0.215631
0.0255762 0 0.80391
0.888464 0 0.975102
0.0630031 0 0.479367
0.328097 0 0.356094
0.276835 0 0.408141
0.724585 0 0.457985
0.526543 0 0.422332
0.503083 0 0.972399
0.792841 0 0.606849
0.13033 0 0.886775
0.1291 0 0.409191
0.470026 0 0.273911
0.0688924 0 0.45119
0.805845 0 0.109528
0.816202 0 0.139834
0.194843 0 0.770626
0.115246 0 0.703306
0.636511 0 0.164234
0.163038 0 0.937152
0.810246 0 0.196821
0.619092 0 0.272198
0.37178 0 0.0240756
0.381862 0 0.0739489
0.0698927 0 0.909527
0.362813 0 0.97501
0.0280544 0 0.663336
0.897075 0 0.8103
0.0261767 0 0.866574
0.239352 0 0.307261
0.517664 0 0.939136
0.976676 0 0.609007
0.139981 0 0.579402
0.590671 0 0.0229055
0.704779 0 0.887392
0.0304827 0 0.153787
0.491028 0 0.920126
0.834307 0 0.913015
0.530954 0 0.272895
0.974184 0 0.578766
0.843039 0 0.745751
0.869858 0 0.729148
0.890883 0 0.77516
0.488734 0 0.775467
0.52274 0 0.771856
0.120433 0 0.125877
0.101999 0 0.166728
0.548494 0 0.329548
0.467963 0 0.872158
0.592704 0 0.82254
0.549608 0 0.0969077
0.516242 0 0.119634
0.887318 0 0.517358
0.901952 0 0.547082
0.856812 0 0.561184
0.74986 0 0.908717
0.977099 0 0.7906
0.853218 0 0.781861
0.865994 0 0.365629
0.783551 0 0.275742
0.533844 0 0.805927
0.210021 0 0.0248836
0.446631 0 0.179321
0.798224 0 0.430416
0.623167 0 0.0227869
0.974182 0 0.941613
0.973549 0 0.460966
0.116866 0 0.0249474
0.365542 0 0.946528
0.566613 0 0.245207
0.76884 0 0.198401
0.9751 0 0.209787
0.570385 0 0.758946
0.780608 0 0.527436
0.40691 0 0.276971
0.23799 0 0.966875
0.0926997 0 0.529487
0.324558 0 0.676001
0.676615 0 0.675393
0.025293 0 0.289747
0.766214 0 0.664152
0.53662 0 0.0273914
0.921174 0 0.211918
0.0311629 0 0.489398
0.724452 0 0.402138
0.937463 0 0.189584
0.213376 0 0.894423
0.764474 0 0.804023
0.467679 0 0.491763
0.266194 0 0.158769
0.628049 0 0.754451
0.609005 0 0.776871
0.0250437 0 0.437995
0.323367 0 0.324648
0.643817 0 0.509637
0.0544973 0 0.860581
0.361763 0 0.398751
0.0601467 0 0.0282226
0.691547 0 0.22692
0.692941 0 0.277247
0.723658 0 0.235367
0.596267 0 0.325289
0.776536 0 0.480694
0.76661 0 0.61593
0.614569 0 0.237963
0.976485 0 0.115766
0.722305 0 0.0937665
0.135036 0 0.252748
0.723885 0 0.51735
0.724581 0 0.54545
0.185201 0 0.745841
0.540411 0 0.0625278
0.178386 0 0.854584
0.319658 0 0.489867
0.285785 0 0.241416
0.577087 0 0.409078
0.644839 0 0.275387
0.907632 0 0.837368
0.67718 0 0.936474
0.627342 0 0.936358
0.0760001 0 0.117727
0.41908 0 0.142591
0.416492 0 0.941733
0.514174 0 0.726125
0.0512244 0 0.278785
0.862921 0 0.937273
0.889971 0 0.923431
0.913045 0 0.938347
0.647754 0 0.190196
0.525696 0 0.18438
0.812073 0 0.522552
0.197979 0 0.109343
0.976573 0 0.518944
0.932012 0 0.538183
0.759596 0 0.138943
0.388008 0 0.241611
0.924198 0 0.751765
0.225181 0 0.331932
0.278903 0 0.528599
0.325935 0 0.27102
0.488109 0 0.226743
0.939886 0 0.331044
0.022077 0 0.372139
0.606794 0 0.208202
0.60926 0 0.166459
0.141687 0 0.0638796
0.614159 0 0.840511
0.283378 0 0.856714
0.0724332 0 0.775256
0.0559968 0 0.813936
0.141656 0 0.177349
0.829487 0 0.56899
0.795816 0 0.576188
0.833807 0 0.0938753
0.108805 0 0.740815
0.17432 0 0.622756
0.772866 0 0.111645
0.392023 0 0.125167
0.396194 0 0.0978964
0.242185 0 0.89407
0.0242477 0 0.598001
0.0237918 0 0.569426
0.370775 0 0.72139
0.663659 0 0.858793
0.18736 0 0.0561806
0.781018 0 0.689367
0.56235 0 0.977592
0.470536 0 0.827188
0.833485 0 0.609455
0.551446 0 0.366392
0.0264953 0 0.687629
0.309956 0 0.182834
0.410839 0 0.546172
0.440423 0 0.497672
0.279388 0 0.337411
0.0590792 0 0.618656
0.488146 0 0.636753
0.0272129 0 0.235915
0.540316 0 0.578328
0.0241184 0 0.893654
0.0580116 0 0.672859
0.910769 0 0.387673
0.86826 0 0.498623
0.61176 0 0.979057
0.975368 0 0.887961
0.387172 0 0.978607
0.724037 0 0.68862
0.679308 0 0.550093
0.675743 0 0.408696
0.32051 0 0.630903
0.631111 0 0.678558
0.282666 0 0.612337
0.279919 0 0.664221
0.409835 0 0.319671
0.718663 0 0.588814
0.676581 0 0.509054
0.379136 0 0.320689
0.351011 0 0.676962
0.679384 0 0.646388
0.590198 0 0.677612
0.721354 0 0.370973
0.465951 0 0.680989
0.681526 0 0.347929
0.651037 0 0.323686
0.278948 0 0.430539
0.319226 0 0.591111
0.593151 0 0.722072
0.550279 0 0.7213
0.646392 0 0.719213
0.683023 0 0.614859
0.389382 0 0.680152
0.719064 0 0.330771
0.319591 0 0.449652
0.319653 0 0.408686
0.490305 0 0.320837
0.469028 0 0.723249
0.144854 0 0.203649
0.722222 0 0.628306
0.511347 0 0.681204
0.569039 0 0.321682
0.368577 0 0.281746
0.722001 0 0.430761
0.339648 0 0.447663
0.48999 0 0.280035
0.27689 0 0.313757
0.321397 0 0.512164
0.279636 0 0.550404
0.349617 0 0.719069
0.392797 0 0.719041
0.718411 0 0.669146
0.740712 0 0.666852
0.976481 0 0.738527
0.980727 0 0.763793
0.971472 0 0.687465
0.788034 0 0.976566
0.428314 0 0.27957
0.68106 0 0.571296
0.282584 0 0.590092
0.281634 0 0.635165
0.279513 0 0.688358
0.718211 0 0.568192
0.341088 0 0.415524
0.682037 0 0.529329
0.685737 0 0.0202736
0.680247 0 0.488202
0.318529 0 0.652456
0.65309 0 0.682028
0.681165 0 0.368932
0.438185 0 0.317602
0.281765 0 0.451074
0.279124 0 0.38548
0.531958 0 0.717325
0.512309 0 0.0217586
0.666928 0 0.719353
0.411238 0 0.681816
0.716933 0 0.350277
0.719304 0 0.309179
0.734865 0 0.294154
0.319621 0 0.468017
0.209482 0 0.973718
0.717562 0 0.608624
0.489346 0 0.679195
0.438002 0 0.977751
0.348295 0 0.281256
0.5101 0 0.28258
0.61043 0 0.683003
0.315338 0 0.610664
0.684269 0 0.592075
0.282742 0 0.570331
0.659741 0 0.0220185
0.283228 0 0.491339
0.683285 0 0.389143

CELLS 2284 9136
3 879 621 1123
3 724 547 580
3 310 656 1086
3 1129 825 494
3 169 1165 771
3 1091 658 411
3 175 1052 174
3 278 1080 855
3 826 619 366
3 24 1015 984
3 202 1029 201
3 574 729 346
3 822 366 619
3 1101 406 847
3 1066 645 721
3 27 28 1194
3 826 721 441
3 1146 191 1193
3 749 627 302
3 481 249 638
3 1132 948 306
3 176 972 177
3 1151 848 532
3 1032 21 22
3 557 1051 1049
3 1092 293 859
3 274 587 1033
3 1033 587 1036
3 1021 345 750
3 575 1220 485
3 718 381 646
3 682 268 683
3 726 420 1036
3 268 682 692
3 775 42 484
3 718 646 369
3 43 484 42
3 1104 682 394
3 690 1104 965
3 895 37 676
3 39 40 41
3 1195 190 1146
3 1052 685 324
3 581 1216 1150
3 1187 811 1138
3 1119 772 428
3 1097 672 248
3 409 533 748
3 511 991 1008
3 715 536 276
3 1038 291 506
3 992 730 255
3 780 87 88
3 1216 581 1141
3 1145 194 1191
3 1087 884 342
3 70 1183 1182
3 73 843 72
3 1076 988 625
3 182 939 181
3 992 507 400
3 998 349 809
3 647 75 1135
3 982 648 496
3 266 468 787
3 771 168 169
3 675 76 77
3 1212 476 593
3 915 625 393
3 1222 1198 184
3 502 846 397
3 1039 240 556
3 850 92 502
3 660 611 262
3 1077 1078 423
3 1148 571 635
3 1038 338 760
3 222 1196 1028
3 80 81 79
3 1149 572 634
3 608 367 486
3 1150 206 608
3 208 209 823
3 240 483 886
3 623 886 375
3 722 535 285
3 686 525 360
3 517 976 106
3 132 133 1121
3 926 586 318
3 968 294 831
3 781 392 698
3 401 668 906
3 977 133 134
3 742 577 321
3 640 603 344
3 739 599 352
3 1113 217 216
3 639 1063 893
3 1047 835 350
3 390 1110 1037
3 739 880 371
3 289 970 618
3 1176 230 1064
3 390 551 456
3 214 1205 942
3 467 970 289
3 124 1130 720
3 1026 363 874
3 794 630 374
3 924 344 805
3 1148 218 1028
3 975 267 739
3 937 634 323
3 632 121 122
3 219 220 221
3 620 903 386
3 209 1169 823
3 159 0 1
3 120 121 119
3 656 655 320
3 776 395 778
3 600 448 278
3 964 701 282
3 1072 252 1108
3 621 365 554
3 377 918 653
3 234 956 235
3 819 430 818
3 1125 818 430
3 487 936 788
3 665 326 598
3 1012 9 774
3 236 235 1201
3 385 673 935
3 534 1090 832
3 307 931 529
3 712 595 319
3 746 941 269
3 694 396 1167
3 1013 600 821
3 543 845 844
3 1090 162 161
3 996 612 938
3 333 1096 637
3 455 594 1065
3 841 774 384
3 457 673 962
3 847 355 745
3 637 1096 412
3 838 907 624
3 373 986 885
3 1048 3 700
3 155 156 885
3 1058 704 396
3 455 1065 804
3 763 158 642
3 157 158 763
3 518 312 554
3 652 160 1175
3 622 406 997
3 619 186 187
3 940 574 849
3 863 475 811
3 879 547 365
3 1214 163 162
3 367 823 593
3 1058 264 704
3 856 821 411
3 1170 173 174
3 252 651 1108
3 990 64 982
3 1108 651 439
3 45 741 1056
3 408 1002 1001
3 957 533 409
3 1025 166 165
3 735 469 407
3 974 307 1109
3 884 562 761
3 841 624 275
3 839 758 50
3 769 481 638
3 650 459 920
3 471 13 891
3 1024 416 813
3 1062 1032 573
3 1151 1035 184
3 25 26 1015
3 62 990 569
3 273 529 770
3 848 325 532
3 292 896 876
3 1014 309 920
3 849 346 817
3 1206 183 182
3 44 913 43
3 726 1022 420
3 904 449 669
3 409 1053 813
3 527 790 897
3 179 180 181
3 681 444 908
3 1060 193 192
3 469 735 1081
3 905 499 697
3 382 1208 914
3 541 1191 1060
3 957 1172 533
3 1078 351 717
3 710 643 452
3 608 823 367
3 520 519 812
3 629 363 461
3 404 1017 707
3 800 1081 279
3 331 584 710
3 1019 803 470
3 1102 735 1005
3 549 1202 1158
3 1151 532 1035
3 1042 1023 462
3 302 1004 1084
3 995 521 994
3 1059 813 416
3 987 568 981
3 748 309 1014
3 334 764 550
3 657 58 1017
3 1213 458 887
3 67 508 66
3 202 1159 203
3 203 898 204
3 548 300 510
3 759 707 446
3 189 773 190
3 1191 193 1060
3 995 1011 521
3 733 1068 978
3 92 921 502
3 200 201 199
3 590 923 566
3 949 607 419
3 1176 229 230
3 987 981 402
3 375 796 465
3 112 555 1210
3 1169 593 823
3 1124 356 1039
3 300 549 1023
3 1123 260 879
3 510 300 1023
3 879 260 686
3 668 321 558
3 1193 475 1146
3 1073 803 321
3 261 524 835
3 109 629 108
3 288 958 932
3 994 277 928
3 863 660 298
3 1074 209 1202
3 540 845 910
3 906 247 589
3 395 968 778
3 327 911 723
3 737 295 497
3 303 981 568
3 1106 830 250
3 549 1158 797
3 810 425 954
3 1166 211 867
3 1177 227 1219
3 363 1026 528
3 294 509 1131
3 555 872 970
3 926 318 523
3 640 332 603
3 782 551 242
3 1046 422 979
3 232 1209 231
3 620 509 294
3 237 238 955
3 1142 1189 479
3 816 544 308
3 697 261 482
3 265 550 699
3 592 479 308
3 926 308 479
3 909 609 349
3 1189 586 479
3 1044 955 238
3 233 1155 234
3 1199 168 771
3 582 335 482
3 526 881 661
3 163 606 162
3 1201 956 447
3 792 983 497
3 606 955 1044
3 544 734 256
3 164 1147 163
3 221 1143 222
3 564 413 768
3 503 385 487
3 167 168 1199
3 670 150 1128
3 326 1047 597
3 757 524 312
3 542 807 343
3 1199 771 582
3 1027 810 434
3 835 524 757
3 282 526 434
3 962 883 538
3 239 160 161
3 678 601 396
3 144 768 143
3 824 298 796
3 1193 192 1138
3 266 787 1077
3 1038 505 291
3 1106 566 830
3 271 777 708
3 286 922 539
3 691 899 268
3 1043 413 493
3 501 153 986
3 641 1102 245
3 1184 761 508
3 274 1033 842
3 437 643 1009
3 995 994 424
3 911 548 248
3 558 321 803
3 736 779 435
3 176 175 972
3 904 667 449
3 223 1189 224
3 1177 228 227
3 453 1126 738
3 559 295 454
3 855 417 854
3 433 1025 703
3 568 270 723
3 1097 248 1000
3 341 853 539
3 614 842 383
3 815 865 347
3 760 505 1038
3 523 1106 561
3 873 425 559
3 745 378 740
3 546 319 455
3 445 1051 755
3 286 965 1107
3 559 946 295
3 528 467 289
3 878 724 227
3 1124 762 356
3 1147 1144 598
3 1199 166 167
3 1146 475 1045
3 202 1197 1029
3 615 483 958
3 185 1222 184
3 1171 534 703
3 943 385 503
3 738 330 516
3 1130 979 422
3 1183 1007 460
3 714 536 338
3 961 267 640
3 1037 528 289
3 415 741 899
3 36 895 35
3 155 885 154
3 421 649 1115
3 723 911 474
3 470 868 1136
3 395 1105 968
3 127 952 666
3 1053 279 813
3 1184 342 761
3 1015 24 25
3 963 168 783
3 50 758 49
3 55 933 54
3 804 357 1090
3 743 378 745
3 787 351 1078
3 814 730 466
3 1202 209 208
3 928 414 753
3 1094 1055 315
3 783 856 411
3 1059 192 191
3 643 306 452
3 543 256 881
3 141 1034 140
3 477 590 318
3 781 698 281
3 694 244 595
3 591 935 860
3 197 917 198
3 1191 194 193
3 989 171 1215
3 756 1079 284
3 1204 500 1159
3 1117 98 513
3 718 587 274
3 679 966 394
3 521 1011 833
3 1087 287 993
3 1120 909 349
3 175 176 1052
3 125 126 979
3 1019 470 976
3 1075 1030 670
3 701 538 282
3 1008 993 514
3 1008 241 511
3 744 378 743
3 901 19 706
3 54 890 53
3 379 785 784
3 559 425 946
3 705 358 704
3 673 457 301
3 434 792 1027
3 520 914 296
3 1095 817 969
3 1137 443 504
3 929 213 754
3 1149 198 1029
3 1150 486 581
3 823 207 208
3 932 483 560
3 297 897 610
3 929 754 403
3 396 694 1058
3 858 151 152
3 1084 569 302
3 342 1184 802
3 513 98 99
3 100 959 99
3 1114 672 337
3 970 467 555
3 1015 575 498
3 1109 530 1108
3 1151 183 1206
3 1017 59 707
3 973 16 680
3 600 399 448
3 330 1126 737
3 354 801 844
3 585 664 258
3 848 1162 616
3 1088 280 980
3 164 703 165
3 806 807 503
3 819 818 447
3 1192 350 1173
3 1217 580 1140
3 215 929 1179
3 797 207 206
3 696 1118 401
3 531 291 504
3 249 817 1095
3 596 1055 972
3 1008 400 993
3 759 446 570
3 969 817 346
3 23 573 22
3 1113 537 607
3 426 693 1099
3 818 1201 447
3 974 896 438
3 1215 658 989
3 658 1215 1174
3 535 328 672
3 517 1019 976
3 1156 225 226
3 1164 234 235
3 1141 204 1216
3 262 1129 866
3 172 998 809
3 1139 1222 185
3 812 519 381
3 1051 914 755
3 235 597 1164
3 955 326 597
3 628 424 994
3 548 1000 248
3 959 887 402
3 1069 502 921
3 851 339 820
3 496 648 316
3 687 134 135
3 229 801 230
3 246 584 920
3 578 57 657
3 739 371 599
3 599 117 786
3 412 877 941
3 6 637 5
3 893 242 551
3 461 699 304
3 350 835 757
3 236 955 597
3 743 1082 275
3 694 595 336
3 442 1054 702
3 1118 833 522
3 921 871 440
3 780 779 364
3 985 535 480
3 790 527 253
3 33 689 489
3 44 1056 913
3 489 944 32
3 984 23 24
3 627 407 1004
3 884 1087 507
3 956 910 447
3 503 487 280
3 267 880 739
3 477 663 590
3 895 676 368
3 602 969 346
3 828 861 380
3 30 944 853
3 978 391 514
3 960 428 702
3 57 578 56
3 340 692 682
3 1052 176 685
3 866 660 262
3 1064 518 554
3 1047 1192 597
3 505 760 253
3 91 92 850
3 371 880 618
3 632 118 119
3 353 1048 700
3 642 2 1048
3 857 354 540
3 1221 230 801
3 1071 269 622
3 883 542 882
3 886 483 375
3 356 762 524
3 355 938 902
3 788 936 264
3 705 376 1075
3 986 154 885
3 937 323 611
3 581 323 572
3 827 367 593
3 905 932 499
3 808 542 343
3 1188 1142 479
3 477 1190 766
3 559 1112 138
3 555 113 114
3 1026 110 111
3 820 504 291
3 490 733 287
3 863 811 359
3 1156 226 724
3 623 866 387
3 512 824 796
3 1196 223 1140
3 1197 1141 572
3 39 775 38
3 689 340 489
3 519 971 381
3 1033 1036 420
3 967 604 392
3 219 949 852
3 1110 875 528
3 961 618 880
3 631 78 79
3 787 675 351
3 4 700 3
3 1167 396 601
3 486 367 825
3 794 374 556
3 1146 1045 626
3 685 925 324
3 1088 980 430
3 673 385 943
3 275 1082 649
3 1186 166 1025
3 838 624 384
3 980 280 546
3 920 459 829
3 1017 404 657
3 1107 492 1085
3 1036 587 348
3 683 679 394
3 957 773 189
3 515 1053 748
3 667 1094 315
3 48 49 1022
3 48 726 47
3 8 9 1012
3 10 774 9
3 854 417 658
3 343 807 806
3 318 586 477
3 1100 1099 603
3 359 937 611
3 1205 215 1161
3 923 778 388
3 589 764 765
3 362 561 983
3 362 816 561
3 210 1074 867
3 805 709 242
3 69 1182 802
3 1116 531 443
3 628 928 403
3 334 677 654
3 799 89 90
3 625 1077 1076
3 899 741 348
3 729 602 346
3 1111 135 136
3 869 1121 509
3 612 333 902
3 674 637 7
3 364 779 988
3 266 1077 625
3 927 536 393
3 850 502 397
3 1032 22 573
3 23 984 573
3 1211 196 195
3 843 372 733
3 698 604 370
3 1041 892 297
3 1073 458 868
3 1074 210 209
3 1158 207 797
3 1166 212 211
3 331 710 711
3 648 66 508
3 756 444 1055
3 10 840 774
3 595 740 605
3 973 438 891
3 578 930 306
3 990 496 302
3 448 273 1002
3 1174 169 963
3 1009 643 246
3 585 325 664
3 620 386 509
3 555 114 872
3 171 989 172
3 651 252 583
3 1048 353 642
3 421 1115 674
3 563 1093 146
3 806 503 280
3 590 566 318
3 753 313 537
3 268 692 691
3 243 679 646
3 1180 917 1181
3 716 201 200
3 1174 411 658
3 433 1186 1025
3 376 705 591
3 495 418 907
3 1136 104 105
3 1026 467 528
3 394 966 965
3 690 286 489
3 624 841 384
3 275 649 841
3 352 786 632
3 124 720 123
3 423 717 953
3 631 81 82
3 797 206 1157
3 995 549 300
3 792 497 295
3 131 132 869
3 640 267 900
3 975 900 267
3 485 617 940
3 729 574 254
3 428 641 1119
3 255 562 884
3 791 524 261
3 909 958 288
3 935 591 385
3 1200 540 1155
3 753 589 313
3 1202 208 1158
3 1051 557 751
3 1001 1062 305
3 783 167 1186
3 167 783 168
3 566 923 388
3 142 493 141
3 731 531 1116
3 988 779 927
3 657 57 58
3 1050 445 755
3 681 178 1067
3 919 614 380
3 11 840 10
3 840 384 774
3 891 13 14
3 793 594 605
3 94 95 871
3 981 303 513
3 1222 613 1198
3 473 1120 645
3 957 409 773
3 999 522 270
3 715 398 688
3 748 1053 409
3 20 706 19
3 498 769 305
3 965 1104 394
3 1062 432 1032
3 1184 68 802
3 60 1083 707
3 962 251 883
3 983 250 837
3 427 756 1094
3 963 169 168
3 1001 305 638
3 174 889 596
3 309 533 532
3 713 416 1024
3 1117 747 945
3 102 1213 887
3 316 749 496
3 1083 446 707
3 903 1105 271
3 1027 792 295
3 388 830 566
3 831 388 778
3 858 501 644
3 902 333 649
3 833 1011 327
3 654 765 334
3 145 1093 144
3 1112 1111 137
3 803 304 558
3 672 1114 535
3 1009 784 437
3 815 347 772
3 978 287 733
3 490 843 733
3 111 1210 1026
3 1110 390 894
3 610 1042 297
3 714 659 536
3 463 1198 613
3 998 172 173
3 32 944 31
3 689 633 340
3 1160 634 553
3 1198 463 1153
3 846 1006 397
3 1008 916 241
3 654 636 419
3 900 332 640
3 393 659 915
3 915 659 391
3 735 450 1081
3 919 842 614
3 723 474 568
3 1210 111 112
3 727 1122 257
3 819 1088 430
3 657 930 578
3 842 1033 420
3 204 1141 203
3 791 499 356
3 1137 504 200
3 767 451 747
3 721 645 324
3 486 1150 608
3 623 375 465
3 1123 429 795
3 766 663 477
3 1177 1089 228
3 478 592 308
3 734 544 816
3 590 259 923
3 1177 478 1089
3 291 531 725
3 423 695 1076
3 638 904 408
3 940 617 574
3 312 762 621
3 1165 170 809
3 1209 1173 518
3 560 240 1039
3 775 39 41
3 368 676 484
3 853 29 30
3 574 617 254
3 824 512 366
3 187 822 619
3 269 877 612
3 605 319 595
3 1116 283 731
3 759 570 272
3 484 676 775
3 31 944 30
3 865 316 562
3 423 1078 717
3 681 908 445
3 317 940 849
3 492 750 1085
3 679 369 646
3 413 1043 768
3 290 644 501
3 822 187 188
3 1161 216 635
3 743 355 1082
3 1171 164 163
3 569 990 302
3 982 65 648
3 873 559 139
3 777 395 776
3 305 769 638
3 1057 752 254
3 771 1165 567
3 263 1066 721
3 1204 202 201
3 1159 500 898
3 358 1075 670
3 1030 376 798
3 1135 468 647
3 1069 921 440
3 941 877 269
3 413 701 964
3 985 846 285
3 1070 722 440
3 480 688 985
3 725 506 291
3 505 820 291
3 992 991 730
3 1003 1133 272
3 787 468 675
3 1007 72 843
3 1103 450 1102
3 875 363 528
3 1100 952 426
3 466 283 772
3 214 929 215
3 688 480 253
3 1068 391 978
3 194 1218 1187
3 1127 593 476
3 565 328 767
3 898 462 1157
3 815 245 488
3 87 780 86
3 1116 443 1031
3 578 306 948
3 777 776 389
3 663 604 259
3 555 112 113
3 517 106 107
3 234 834 233
3 234 1164 834
3 491 1085 752
3 1207 616 1162
3 191 190 1059
3 681 179 178
3 1023 549 797
3 629 107 108
3 577 402 458
3 897 297 527
3 389 1061 967
3 1219 592 1177
3 518 1173 757
3 809 349 567
3 660 359 611
3 229 878 228
3 1058 336 788
3 738 1126 330
3 742 999 270
3 1180 199 198
3 654 281 636
3 874 363 629
3 529 931 405
3 1002 576 1001
3 1072 530 912
3 1072 912 399
3 916 391 659
3 255 884 507
3 848 616 325
3 1172 186 1035
3 713 1024 450
3 258 861 828
3 411 1174 963
3 1186 167 166
3 285 846 1069
3 537 929 403
3 1076 695 364
3 1031 442 702
3 104 868 103
3 1178 607 949
3 885 588 373
3 882 311 543
3 1057 617 341
3 984 498 573
3 844 544 256
3 233 1200 1155
3 1054 960 702
3 1180 1181 1137
3 447 910 808
3 543 844 256
3 232 857 1200
3 228 1089 229
3 1143 221 1190
3 1043 142 143
3 1153 463 939
3 1120 998 545
3 712 789 336
3 160 652 804
3 1161 215 216
3 476 862 1127
3 370 604 663
3 303 767 747
3 99 959 513
3 419 950 654
3 1098 456 677
3 321 577 1073
3 1063 805 242
3 1105 620 968
3 552 635 864
3 524 791 356
3 199 1029 198
3 494 299 630
3 1039 356 560
3 429 762 1124
3 551 390 893
3 410 639 618
3 1127 862 299
3 525 795 374
3 944 539 853
3 728 381 718
3 668 742 321
3 607 950 419
3 139 559 138
3 132 1121 869
3 626 824 366
3 888 512 796
3 308 926 523
3 478 308 544
3 562 814 347
3 865 749 316
3 244 1167 1101
3 591 936 385
3 935 673 301
3 860 563 376
3 742 270 577
3 945 747 451
3 977 687 453
3 434 526 661
3 163 1147 606
3 171 809 170
3 722 1069 440
3 610 1097 1000
3 719 759 272
3 1182 342 802
3 711 800 331
3 719 711 452
3 322 635 571
3 580 322 571
3 1150 205 206
3 1029 1197 572
3 1009 246 829
3 671 341 485
3 489 539 944
3 284 1049 908
3 729 464 602
3 317 481 769
3 1072 655 252
3 530 307 529
3 814 562 255
3 577 987 402
3 436 947 1092
3 627 1005 407
3 896 471 438
3 770 529 405
3 1163 233 834
3 580 1217 1156
3 1152 213 942
3 1149 1029 572
3 925 613 441
3 335 697 482
3 317 769 498
3 712 319 546
3 459 650 325
3 379 1009 829
3 184 183 1151
3 664 325 616
3 1089 478 801
3 778 259 776
3 382 664 616
3 245 1005 627
3 156 763 588
3 4 1018 700
3 1136 868 104
3 628 1166 867
3 1131 509 1121
3 1100 332 666
3 1128 858 644
3 678 396 704
3 234 1155 956
3 561 1106 250
3 1127 299 827
3 1212 211 1152
3 744 624 418
3 583 310 918
3 962 673 251
3 727 418 495
3 173 172 889
3 1080 449 855
3 231 1064 230
3 161 1044 239
3 1192 1173 834
3 164 165 1147
3 1099 693 386
3 124 125 1130
3 164 1171 703
3 1186 433 783
3 841 649 421
3 622 997 870
3 172 989 889
3 710 246 643
3 456 551 781
3 426 1099 1100
3 968 831 778
3 894 390 456
3 244 1101 847
3 290 501 870
3 955 606 326
3 606 598 326
3 867 424 628
3 313 765 950
3 686 322 547
3 494 825 827
3 613 1139 441
3 597 1192 1164
3 897 337 610
3 731 283 466
3 196 197 1160
3 486 825 262
3 885 156 588
3 588 1071 373
3 615 888 375
3 1052 324 545
3 859 293 614
3 279 1081 1024
3 1120 545 645
3 193 1187 1138
3 650 309 532
3 181 1162 182
3 812 381 861
3 26 1220 1015
3 265 461 875
3 872 115 599
3 615 1066 263
3 1139 186 619
3 247 764 589
3 223 222 1189
3 724 365 547
3 580 1156 724
3 16 973 15
3 996 622 269
3 862 476 360
3 191 1146 190
3 333 612 1096
3 1086 433 703
3 435 1185 799
3 850 90 91
3 826 512 263
3 822 626 366
3 306 930 719
3 195 1145 1211
3 1179 929 537
3 764 334 765
3 1210 467 1026
3 1210 555 467
3 878 365 724
3 1028 221 222
3 799 850 397
3 717 631 82
3 422 900 975
3 129 130 693
3 37 38 676
3 34 35 689
3 697 335 905
3 197 198 1149
3 864 322 686
3 942 360 476
3 881 256 661
3 561 816 523
3 534 1086 703
3 847 745 244
3 1051 751 296
3 1109 439 974
3 961 924 410
3 1063 639 410
3 117 599 116
3 632 119 121
3 1168 442 917
3 253 851 505
3 159 642 158
3 986 870 501
3 933 56 578
3 585 379 459
3 152 153 858
3 705 1075 358
3 623 794 240
3 567 1165 809
3 243 492 966
3 1133 407 469
3 625 915 266
3 985 688 398
3 506 725 511
3 63 990 62
3 7 637 6
3 1018 4 5
3 1151 1206 848
3 614 383 859
3 307 974 680
3 1065 594 951
3 806 819 343
3 361 881 526
3 546 789 712
3 678 358 644
3 699 431 304
3 668 558 247
3 471 838 840
3 495 651 377
3 320 1013 821
3 8 1012 674
3 643 1132 306
3 719 452 306
3 427 1094 667
3 1049 284 557
3 1183 460 1182
3 1006 736 397
3 863 1045 475
3 214 942 213
3 1200 233 232
3 219 852 220
3 187 957 188
3 1145 541 662
3 361 883 882
3 318 566 523
3 325 585 459
3 812 1010 520
3 597 235 236
3 1176 554 878
3 122 720 632
3 786 352 599
3 669 449 1080
3 1051 445 1049
3 976 1136 105
3 1097 610 337
3 1020 889 417
3 249 667 904
3 336 595 712
3 798 148 1030
3 913 415 691
3 1015 1220 575
3 1137 199 1180
3 95 1134 871
3 1058 694 336
3 836 301 457
3 8 674 7
3 674 1012 421
3 1069 722 285
3 86 695 85
3 36 37 895
3 775 676 38
3 414 589 753
3 1155 540 910
3 941 700 412
3 1030 148 149
3 741 47 726
3 750 971 1021
3 901 18 19
3 534 1214 1090
3 305 573 498
3 1215 170 1174
3 1056 415 913
3 469 711 1133
3 899 684 268
3 683 684 369
3 828 585 258
3 839 383 758
3 1198 183 184
3 182 1153 939
3 518 757 312
3 228 878 227
3 952 693 426
3 146 1093 145
3 760 688 253
3 780 695 86
3 691 368 484
3 922 1057 341
3 853 341 671
3 420 1022 758
3 1107 965 492
3 42 775 41
3 1056 741 415
3 381 971 646
3 894 875 1110
3 389 967 782
3 1065 951 357
3 1108 530 1072
3 535 985 285
3 779 780 435
3 513 959 981
3 723 522 327
3 909 1120 473
3 171 172 809
3 894 456 1098
3 592 1188 479
3 216 1179 1113
3 654 677 281
3 1048 2 3
3 1 642 159
3 282 954 964
3 376 591 860
3 407 1005 735
3 283 1116 1031
3 856 783 433
3 907 876 495
3 147 563 146
3 870 997 290
3 150 670 149
3 144 1093 768
3 579 17 901
3 1079 602 284
3 1004 1003 570
3 511 329 991
3 805 344 709
3 952 1100 666
3 805 410 924
3 1126 687 1111
3 828 380 785
3 1035 532 533
3 508 761 316
3 309 650 920
3 455 652 546
3 624 907 418
3 347 865 562
3 1204 201 716
3 521 277 994
3 916 1008 514
3 732 1068 372
3 647 372 843
3 753 537 403
3 474 303 568
3 84 717 83
3 953 84 85
3 1104 340 682
3 966 492 965
3 948 947 436
3 627 1004 302
3 979 126 666
3 1099 386 903
3 1139 185 186
3 465 796 298
3 451 1134 945
3 1006 715 276
3 897 790 337
3 199 1137 200
3 219 221 1028
3 210 1169 209
3 985 398 846
3 372 1068 733
3 859 383 839
3 46 47 741
3 12 840 11
3 938 406 996
3 484 913 691
3 1021 296 751
3 922 1107 491
3 498 575 317
3 73 74 843
3 960 1103 641
3 531 731 329
3 328 722 1070
3 953 695 423
3 780 1185 435
3 1184 67 68
3 1076 364 988
3 454 1126 1111
3 1043 143 768
3 196 1211 1168
3 772 1119 815
3 736 276 779
3 364 695 780
3 1190 220 766
3 738 1131 453
3 983 792 362
3 869 509 386
3 720 352 632
3 629 517 107
3 1040 257 793
3 746 269 1071
3 948 933 578
3 633 368 692
3 833 277 521
3 474 911 248
3 257 1122 951
3 421 1012 774
3 430 1175 1125
3 1122 653 951
3 405 931 901
3 653 357 951
3 1040 378 744
3 996 406 622
3 892 339 527
3 276 536 927
3 728 919 380
3 1017 58 59
3 460 287 1087
3 272 711 719
3 1021 971 519
3 729 752 464
3 602 464 557
3 861 728 380
3 296 914 1051
3 602 557 284
3 928 753 403
3 976 105 106
3 313 950 607
3 313 607 537
3 1095 969 427
3 1207 181 180
3 437 947 1132
3 574 346 849
3 166 1144 165
3 1163 232 233
3 895 368 633
3 785 614 293
3 400 991 992
3 404 707 759
3 1006 276 736
3 398 715 1006
3 814 466 772
3 916 659 241
3 1212 593 1169
3 665 482 261
3 157 763 156
3 986 153 154
3 766 636 370
3 1098 677 550
3 414 906 589
3 304 517 461
3 220 852 766
3 949 219 218
3 203 1159 898
3 558 431 247
3 138 1112 137
3 705 704 264
3 908 756 284
3 912 530 529
3 1067 444 681
3 576 770 432
3 240 886 623
3 166 1199 1144
3 760 338 688
3 713 314 541
3 933 948 436
3 785 293 784
3 378 1040 793
3 605 594 319
3 750 492 243
3 34 689 33
3 224 1189 1142
3 289 639 1037
3 708 777 389
3 1190 477 1143
3 130 869 693
3 224 1142 225
3 77 1016 675
3 398 1006 846
3 631 79 81
3 241 659 714
3 313 589 765
3 663 766 370
3 410 805 1063
3 402 887 458
3 444 1067 972
3 546 652 980
3 684 348 587
3 380 614 785
3 185 1035 186
3 1084 1004 570
3 1121 133 977
3 116 599 115
3 625 988 393
3 915 732 266
3 938 355 847
3 1115 333 674
3 292 471 896
3 1171 163 1214
3 451 1070 871
3 511 241 506
3 834 1164 1192
3 824 626 1045
3 661 362 434
3 844 478 544
3 399 600 1013
3 938 612 902
3 1196 1140 571
3 554 1176 1064
3 611 486 262
3 312 621 554
3 207 823 608
3 822 1195 626
3 981 959 402
3 536 715 338
3 798 563 147
3 148 798 147
3 78 631 1016
3 401 1118 522
3 407 1133 1003
3 515 748 1014
3 845 354 844
3 354 1221 801
3 1182 69 70
3 514 993 978
3 764 431 550
3 803 1073 470
3 418 727 1040
3 653 918 832
3 1130 125 979
3 1063 242 893
3 910 845 311
3 238 1125 239
3 591 264 936
3 542 251 807
3 343 819 808
3 845 543 311
3 619 826 441
3 925 721 324
3 271 708 603
3 1126 454 737
3 201 1029 199
3 1197 203 1141
3 520 296 519
3 258 664 1010
3 1060 1059 416
3 1031 702 283
3 342 460 1087
3 1003 272 570
3 884 761 342
3 748 533 309
3 140 1034 873
3 857 232 231
3 341 617 485
3 669 1002 408
3 238 237 1125
3 819 447 808
3 1034 493 954
3 280 487 789
3 714 1038 506
3 725 531 329
3 1055 444 972
3 655 1013 320
3 1170 1052 545
3 189 1195 822
3 212 1152 211
3 212 213 1152
3 939 179 181
3 556 1124 1039
3 375 888 796
3 1193 191 192
3 795 525 260
3 1139 613 1222
3 387 630 794
3 1195 1146 626
3 472 1092 859
3 180 1050 755
3 437 784 947
3 379 829 459
3 967 392 782
3 271 1105 777
3 666 126 127
3 294 1131 738
3 357 653 832
3 377 1122 727
3 928 696 414
3 867 211 210
3 1140 580 571
3 665 261 835
3 762 429 621
3 862 525 299
3 935 301 860
3 836 701 413
3 523 566 1106
3 590 663 259
3 1096 612 877
3 804 1065 357
3 56 933 55
3 710 584 246
3 471 840 12
3 841 421 774
3 384 840 838
3 1040 744 418
3 369 684 587
3 667 1095 427
3 1077 423 1076
3 372 647 468
3 882 543 881
3 910 311 808
3 943 503 807
3 592 478 1177
3 747 1117 513
3 1008 991 400
3 680 579 307
3 563 860 301
3 1162 181 1207
3 1208 616 1207
3 849 481 317
3 408 904 669
3 767 1070 451
3 514 391 916
3 722 328 535
3 1114 790 480
3 852 636 766
3 551 782 392
3 1107 922 286
3 340 690 489
3 854 278 855
3 856 656 320
3 427 969 1079
3 756 908 444
3 583 918 377
3 448 912 273
3 538 883 361
3 1155 910 956
3 251 542 883
3 798 376 563
3 383 842 758
3 515 279 1053
3 1086 534 310
3 601 678 290
3 587 718 369
3 681 445 1050
3 360 525 862
3 525 374 299
3 825 1129 262
3 1218 1160 553
3 609 335 567
3 360 864 686
3 1103 960 314
3 1211 1145 662
3 1212 210 211
3 905 609 288
3 723 270 522
3 1073 577 458
3 629 461 517
3 270 987 577
3 708 389 709
3 894 265 875
3 954 493 964
3 1018 637 412
3 93 94 921
3 959 101 887
3 371 872 599
3 114 115 872
3 1221 354 857
3 837 737 497
3 392 604 698
3 110 874 109
3 1179 216 215
3 110 1026 874
3 252 655 583
3 1090 357 832
3 656 310 583
3 1096 877 412
3 795 556 374
3 547 322 580
3 366 512 826
3 571 1148 1028
3 1131 1121 977
3 977 134 687
3 1188 226 225
3 943 251 673
3 1125 237 818
3 301 836 564
3 806 1088 819
3 740 595 244
3 460 1007 490
3 507 1087 993
3 746 1071 588
3 2 642 1
3 794 623 387
3 1123 621 429
3 1118 277 833
3 100 101 959
3 609 567 349
3 1148 217 218
3 249 1095 667
3 656 583 655
3 839 52 472
3 1208 1207 755
3 680 438 973
3 931 579 901
3 1042 610 510
3 255 730 814
3 1061 389 776
3 332 900 1046
3 401 742 668
3 961 640 924
3 35 895 633
3 913 484 43
3 1082 902 649
3 307 579 931
3 1070 440 871
3 300 1011 995
3 1042 462 1041
3 1041 500 892
3 1092 947 293
3 919 728 274
3 516 388 831
3 1037 639 893
3 1091 278 854
3 989 417 889
3 612 996 269
3 876 651 495
3 603 1099 271
3 128 129 952
3 575 940 317
3 690 340 1104
3 1047 665 835
3 645 545 324
3 270 568 987
3 109 874 629
3 5 637 1018
3 1090 161 804
3 1203 21 1032
3 682 683 394
3 660 863 359
3 261 697 791
3 1175 980 652
3 526 282 538
3 1073 868 470
3 565 672 328
3 751 464 345
3 576 1062 1001
3 692 368 691
3 437 1132 643
3 904 638 249
3 1021 519 296
3 732 391 1068
3 988 927 393
3 993 400 507
3 1182 460 342
3 500 1204 716
3 314 713 1103
3 918 310 832
3 13 471 12
3 404 759 719
3 899 691 415
3 539 489 286
3 1004 407 1003
3 1042 1041 297
3 95 96 1134
3 33 489 32
3 1057 254 617
3 453 687 1126
3 256 734 661
3 242 709 782
3 708 344 603
3 939 178 179
3 298 1045 863
3 1219 227 226
3 1098 265 894
3 732 372 468
3 90 850 799
3 852 419 636
3 1061 259 604
3 994 928 628
3 549 995 424
3 657 404 930
3 331 1014 584
3 655 1072 399
3 600 1091 821
3 494 630 1129
3 553 634 937
3 1036 348 726
3 464 752 345
3 667 934 449
3 448 1080 278
3 236 1201 237
3 457 701 836
3 870 373 622
3 836 413 564
3 608 206 207
3 196 1160 195
3 974 439 896
3 973 891 14
3 173 1170 998
3 174 1052 1170
3 828 785 379
3 922 341 539
3 704 358 678
3 1082 355 902
3 288 932 905
3 615 375 483
3 727 495 377
3 1093 564 768
3 1085 750 345
3 345 1021 751
3 103 1213 102
3 868 1213 103
3 564 563 301
3 952 129 693
3 52 839 51
3 1092 890 436
3 861 258 812
3 48 1022 726
3 1166 628 754
3 950 765 654
3 304 803 1019
3 949 218 1178
3 793 257 594
3 336 789 788
3 880 267 961
3 123 720 122
3 83 717 82
3 953 717 84
3 1111 136 137
3 678 644 290
3 909 288 609
3 955 236 237
3 361 882 881
3 807 251 943
3 650 532 325
3 584 1014 920
3 866 623 465
3 224 1140 223
3 906 668 247
3 699 550 431
3 702 428 283
3 1137 1181 443
3 975 739 352
3 970 371 618
3 1214 534 1171
3 1201 235 956
3 315 596 1020
3 856 320 821
3 734 362 661
3 1027 295 946
3 690 965 286
3 741 726 348
3 1056 44 45
3 46 741 45
3 516 831 738
3 362 792 434
3 1188 225 1142
3 816 308 523
3 692 340 633
3 671 28 29
3 1019 517 304
3 344 924 640
3 481 849 817
3 689 35 633
3 432 1203 1032
3 889 174 173
3 15 973 14
3 17 18 901
3 377 651 583
3 770 576 273
3 952 127 128
3 975 720 422
3 868 458 1213
3 698 370 636
3 810 282 434
3 1099 903 271
3 1135 75 76
3 833 327 522
3 1046 900 422
3 666 1046 979
3 838 292 907
3 538 361 526
3 558 304 431
3 401 522 999
3 63 64 990
3 64 65 982
3 140 873 139
3 388 516 830
3 940 575 485
3 1220 27 1194
3 1069 846 502
3 93 921 92
3 858 153 501
3 353 746 588
3 1000 510 610
3 999 742 401
3 1016 631 351
3 1016 351 675
3 972 175 596
3 315 1055 596
3 648 65 66
3 1059 190 773
3 1070 767 328
3 1007 843 490
3 488 749 865
3 647 843 74
3 648 508 316
3 814 772 347
3 731 466 730
3 949 419 852
3 1114 480 535
3 696 401 906
3 1167 244 694
3 740 378 605
3 141 493 1034
3 997 601 290
3 231 1209 1064
3 1153 183 1198
3 898 500 1041
3 892 716 339
3 1103 713 450
3 279 1024 813
3 254 752 729
3 315 1020 934
3 1079 756 427
3 576 432 1062
3 69 802 68
3 569 446 1083
3 569 1083 62
3 749 302 496
3 60 707 59
3 1119 245 815
3 647 74 75
3 276 927 779
3 1119 641 245
3 1183 70 71
3 921 94 871
3 565 474 248
3 569 1084 446
3 1010 812 258
3 914 1208 755
3 1010 382 914
3 506 241 714
3 1074 549 424
3 870 986 373
3 674 333 637
3 680 16 579
3 433 656 856
3 920 829 246
3 890 472 53
3 1194 28 671
3 26 27 1220
3 915 391 732
3 695 953 85
3 585 828 379
3 930 404 719
3 763 353 588
3 377 653 1122
3 699 461 265
3 887 101 102
3 934 1020 417
3 783 411 963
3 491 1057 922
3 817 249 481
3 472 859 839
3 1022 49 758
3 1181 917 442
3 662 541 314
3 1181 1031 443
3 848 1206 1162
3 280 789 546
3 399 1013 655
3 970 872 371
3 1011 548 327
3 837 516 330
3 983 561 250
3 635 216 217
3 635 217 1148
3 1216 205 1150
3 1160 197 1149
3 1071 622 373
3 1128 151 858
3 1191 541 1145
3 1102 1005 245
3 1203 20 21
3 1049 445 908
3 842 420 758
3 51 839 50
3 563 564 1093
3 869 130 131
3 890 1092 472
3 187 1172 957
3 971 750 243
3 933 436 890
3 720 1130 422
3 1100 603 332
3 715 688 338
3 565 303 474
3 486 323 581
3 878 229 1176
3 534 832 310
3 1040 727 257
3 945 97 1117
3 731 730 329
3 248 672 565
3 716 200 504
3 493 413 964
3 493 142 1043
3 239 1044 238
3 326 665 1047
3 263 512 888
3 463 1154 939
3 118 786 117
3 1037 893 390
3 1044 162 606
3 560 483 240
3 763 642 353
3 1167 601 1101
3 1132 947 948
3 1067 178 177
3 681 1050 179
3 912 529 273
3 179 1050 180
3 1207 180 755
3 826 263 721
3 183 1153 182
3 1014 331 515
3 933 890 54
3 1168 662 442
3 800 279 515
3 439 1109 1108
3 770 706 432
3 274 842 919
3 268 684 683
3 1194 671 485
3 861 381 728
3 907 292 876
3 876 439 651
3 1060 192 1059
3 339 504 820
3 1103 1102 641
3 197 1168 917
3 782 709 389
3 977 453 1131
3 1001 638 408
3 1002 669 448
3 720 975 352
3 618 961 410
3 547 879 686
3 762 312 524
3 838 471 292
3 1101 601 406
3 193 1138 192
3 582 771 335
3 557 464 751
3 971 243 646
3 488 245 627
3 88 1185 780
3 1134 96 945
3 813 773 409
3 772 283 428
3 871 1134 451
3 1115 649 333
3 705 264 591
3 1174 170 169
3 1086 656 433
3 1178 217 1113
3 337 790 1114
3 754 628 403
3 300 548 1011
3 1128 150 151
3 1128 358 670
3 1016 77 78
3 435 799 736
3 732 468 266
3 787 1078 1077
3 1185 89 799
3 725 329 511
3 1203 432 706
3 491 752 1057
3 1091 411 821
3 989 658 417
3 297 892 527
3 541 1060 416
3 1109 307 530
3 745 355 743
3 1084 570 446
3 508 67 1184
3 61 1083 60
3 1059 773 813
3 274 728 718
3 683 369 679
3 1175 160 239
3 406 938 847
3 1007 71 72
3 468 1135 675
3 264 1058 788
3 808 311 542
3 1221 231 230
3 1089 801 229
3 1214 162 1090
3 744 743 275
3 854 658 1091
3 573 305 1062
3 53 472 52
3 947 784 293
3 701 962 538
3 378 793 605
3 1215 171 170
3 1020 596 889
3 1079 969 602
3 891 438 471
3 745 740 244
3 974 438 680
3 513 303 747
3 337 672 1097
3 1110 528 1037
3 1178 218 217
3 830 516 250
3 1061 604 967
3 946 425 810
3 781 551 392
3 1175 239 1125
3 700 941 353
3 1041 462 898
3 1038 714 338
3 505 851 820
3 711 710 452
3 1085 345 752
3 243 966 679
3 250 516 837
3 425 873 1034
3 497 983 837
3 738 831 294
3 899 348 684
3 1010 914 520
3 934 667 315
3 579 16 17
3 934 417 855
3 901 706 405
3 214 213 929
3 334 550 677
3 1105 395 777
3 687 135 1111
3 837 330 737
3 1112 454 1111
3 277 696 928
3 1179 537 1113
3 767 303 565
3 799 397 736
3 624 744 275
3 1018 412 700
3 488 865 815
3 991 329 730
3 1117 97 98
3 247 431 764
3 1157 206 205
3 510 1023 1042
3 272 1133 711
3 443 531 504
3 1144 1199 582
3 349 998 1120
3 1034 954 425
3 693 869 386
3 876 896 439
3 669 1080 448
3 724 226 227
3 1124 556 429
3 795 429 556
3 791 697 499
3 954 282 810
3 540 354 845
3 810 1027 946
3 903 620 1105
3 475 1193 1138
3 195 1160 1218
3 319 594 455
3 804 652 455
3 827 825 367
3 1218 194 195
3 786 118 632
3 1046 666 332
3 620 294 968
3 479 586 926
3 533 1172 1035
3 469 800 711
3 713 541 416
3 61 62 1083
3 1157 462 797
3 945 96 97
3 488 627 749
3 717 351 631
3 677 781 281
3 906 414 696
3 500 716 892
3 316 761 562
3 177 685 176
3 1139 619 441
3 905 335 609
3 1154 177 178
3 1028 1196 571
3 864 635 322
3 465 660 866
3 263 888 615
3 1189 1143 586
3 698 636 281
3 559 454 1112
3 1190 221 220
3 482 598 582
3 560 356 499
3 1145 195 194
3 641 428 960
3 552 1161 635
3 1141 581 572
3 482 665 598
3 958 483 932
3 260 1123 795
3 942 1205 552
3 1187 553 811
3 1138 811 475
3 794 556 240
3 811 937 359
3 450 735 1102
3 185 184 1035
3 630 299 374
3 942 552 360
3 473 645 1066
3 685 177 1154
3 335 771 567
3 925 441 721
3 962 701 457
3 454 295 737
3 1028 218 219
3 1217 225 1156
3 327 548 911
3 548 510 1000
3 212 754 213
3 1023 797 462
3 527 851 253
3 527 339 851
3 323 634 572
3 1187 193 194
3 214 215 1205
3 1152 942 476
3 1009 379 784
3 770 405 706
3 1173 350 757
3 1147 598 606
3 582 598 1144
3 162 1044 161
3 1163 834 1173
3 169 170 1165
3 480 790 253
3 754 212 1166
3 358 1128 644
3 1030 149 670
3 662 1054 442
3 1211 662 1168
3 1152 476 1212
3 1129 387 866
3 463 613 925
3 298 660 465
3 804 161 160
3 951 594 257
3 331 800 515
3 187 186 1172
3 232 1163 1209
3 1047 350 1192
3 934 855 449
3 1025 165 703
3 941 746 353
3 1075 376 1030
3 593 1127 827
3 864 360 552
3 1143 477 586
3 816 362 734
3 607 1178 1113
3 1202 549 1074
3 1074 424 867
3 898 1157 205
3 1168 197 196
3 188 957 189
3 917 1180 198
3 204 898 205
3 490 287 460
3 1135 76 675
3 990 982 496
3 71 1007 1183
3 978 993 287
3 507 992 255
3 393 536 659
3 88 89 1185
3 487 385 936
3 789 487 788
3 553 937 811
3 1218 553 1187
3 592 1219 1188
3 923 259 778
3 237 1201 818
3 265 1098 550
3 781 677 456
3 875 461 363
3 1031 1181 442
3 1081 450 1024
3 473 615 958
3 958 909 473
3 1154 463 685
3 611 323 486
3 984 1015 498
3 671 29 853
3 188 189 822
3 189 190 1195
3 525 686 260
3 222 223 1196
3 827 299 494
3 202 203 1197
3 925 685 463
3 473 1066 615
3 1209 1163 1173
3 1147 165 1144
3 997 406 601
3 806 280 1088
3 1200 857 540
3 542 311 882
3 696 277 1118
3 1158 208 207
3 399 912 448
3 706 20 1203
3 1159 202 1204
3 716 504 339
3 621 879 365
3 210 1212 1169
3 1162 1206 182
3 1081 800 469
3 1067 177 972
3 1010 664 382
3 596 175 174
3 382 616 1208
3 878 554 365
3 518 1064 1209
3 709 344 708
3 639 289 618
3 662 314 1054
3 1054 314 960
3 1129 630 387
3 1205 1161 552
3 776 259 1061
3 1136 976 470
3 980 1175 430
3 1094 756 1055
3 1091 600 278
3 1002 273 576
3 1160 1149 634
3 1216 204 205
3 1140 224 1217
3 1217 224 225
3 1045 298 824
3 499 932 560
3 1189 222 1143
3 1219 226 1188
3 491 1107 1085
3 1220 1194 485
3 857 231 1221
3 844 801 478
3 1170 545 998
3 1154 178 939

CELL_TYPES 2284
5
5
5
5
5
5
5
5
5
5
5
5
5
5
5
5
5
5
5
5
5
5
5
5
5
5
5
5
5
5
5
5
5
5
5
5
5
5
5
5
5
5
5
5
5
5
5
5
5
5
5
5
5
5
5
5
5
5
5
5
5
5
5
5
5
5
5
5
5
5
5
5
5
5
5
5
5
5
5
5
5
5
5
5
5
5
5
5
5
5
5
5
5
5
5
5
5
5
5
5
5
5
5
5
5
5
5
5
5
5
5
5
5
5
5
5
5
5
5
5
5
5
5
5
5
5
5
5
5
5
5
5
5
5
5
5
5
5
5
5
5
5
5
5
5
5
5
5
5
5
5
5
5
5
5
5
5
5
5
5
5
5
5
5
5
5
5
5
5
5
5
5
5
5
5
5
5
5
5
5
5
5
5
5
5
5
5
5
5
5
5
5
5
5
5
5
5
5
5
5
5
5
5
5
5
5
5
5
5
5
5
5
5
5
5
5
5
5
5
5
5
5
5
5
5
5
5
5
5
5
5
5
5
5
5
5
5
5
5
5
5
5
5
5
5
5
5
5
5
5
5
5
5
5
5
5
5
5
5
5
5
5
5
5
5
5
5
5
5
5
5
5
5
5
5
5
5
5
5
5
5
5
5
5
5
5
5
5
5
5
5
5
5
5
5
5
5
5
5
5
5
5
5
5
5
5
5
5
5
5
5
5
5
5
5
5
5
5
5
5
5
5
5
5
5
5
5
5
5
5
5
5
5
5
5
5
5
5
5
5
5
5
5
5
5
5
5
5
5
5
5
5
5
5
5
5
5
5
5
5
5
5
5
5
5
5
5
5
5
5
5
5
5
5
5
5
5
5
5
5
5
5
5
5
5
5
5
5
5
5
5
5
5
5
5
5
5
5
5
5
5
5
5
5
5
5
5
5
5
5
5
5
5
5
5
5
5
5
5
5
5
5
5
5
5
5
5
5
5
5
5
5
5
5
5
5
5
5
5
5
5
5
5
5
5
5
5
5
5
5
5
5
5
5
5
5
5
5
5
5
5
5
5
5
5
5
5
5
5
5
5
5
5
5
5
5
5
5
5
5
5
5
5
5
5
5
5
5
5
5
5
5
5
5
5
5
5
5
5
5
5
5
5
5
5
5
5
5
5
5
5
5
5
5
5
5
5
5
5
5
5
5
5
5
5
5
5
5
5
5
5
5
5
5
5
5
5
5
5
5
5
5
5
5
5
5
5
5
5
5
5
5
5
5
5
5
5
5
5
5
5
5
5
5
5
5
5
5
5
5
5
5
5
5
5
5
5
5
5
5
5
5
5
5
5
5
5
5
5
5
5
5
5
5
5
5
5
5
5
5
5
5
5
5
5
5
5
5
5
5
5
5
5
5
5
5
5
5
5
5
5
5
5
5
5
5
5
5
5
5
5
5
5
5
5
5
5
5
5
5
5
5
5
5
5
5
5
5
5
5
5
5
5
5
5
5
5
5
5
5
5
5
5
5
5
5
5
5
5
5
5
5
5
5
5
5
5
5
5
5
5
5
5
5
5
5
5
5
5
5
5
5
5
5
5
5
5
5
5
5
5
5
5
5
5
5
5
5
5
5
5
5
5
5
5
5
5
5
5
5
5
5
5
5
5
5
5
5
5
5
5
5
5
5
5
5
5
5
5
5
5
5
5
5
5
5
5
5
5
5
5
5
5
5
5
5
5
5
5
5
5
5
5
5
5
5
5
5
5
5
5
5
5
5
5
5
5
5
5
5
5
5
5
5
5
5
5
5
5
5
5
5
5
5
5
5
5
5
5
5
5
5
5
5
5
5
5
5
5
5
5
5
5
5
5
5
5
5
5
5
5
5
5
5
5
5
5
5
5
5
5
5
5
5
5
5
5
5
5
5
5
5
5
5
5
5
5
5
5
5
5
5
5
5
5
5
5
5
5
5
5
5
5
5
5
5
5
5
5
5
5
5
5
5
5
5
5
5
5
5
5
5
5
5
5
5
5
5
5
5
5
5
5
5
5
5
5
5
5
5
5
5
5
5
5
5
5
5
5
5
5
5
5
5
5
5
5
5
5
5
5
5
5
5
5
5
5
5
5
5
5
5
5
5
5
5
5
5
5
5
5
5
5
5
5
5
5
5
5
5
5
5
5
5
5
5
5
5
5
5
5
5
5
5
5
5
5
5
5
5
5
5
5
5
5
5
5
5
5
5
5
5
5
5
5
5
5
5
5
5
5
5
5
5
5
5
5
5
5
5
5
5
5
5
5
5
5
5
5
5
5
5
5
5
5
5
5
5
5
5
5
5
5
5
5
5
5
5
5
5
5
5
5
5
5
5
5
5
5
5
5
5
5
5
5
5
5
5
5
5
5
5
5
5
5
5
5
5
5
5
5
5
5
5
5
5
5
5
5
5
5
5
5
5
5
5
5
5
5
5
5
5
5
5
5
5
5
5
5
5
5
5
5
5
5
5
5
5
5
5
5
5
5
5
5
5
5
5
5
5
5
5
5
5
5
5
5
5
5
5
5
5
5
5
5
5
5
5
5
5
5
5
5
5
5
5
5
5
5
5
5
5
5
5
5
5
5
5
5
5
5
5
5
5
5
5
5
5
5
5
5
5
5
5
5
5
5
5
5
5
5
5
5
5
5
5
5
5
5
5
5
5
5
5
5
5
5
5
5
5
5
5
5
5
5
5
5
5
5
5
5
5
5
5
5
5
5
5
5
5
5
5
5
5
5
5
5
5
5
5
5
5
5
5
5
5
5
5
5
5
5
5
5
5
5
5
5
5
5
5
5
5
5
5
5
5
5
5
5
5
5
5
5
5
5
5
5
5
5
5
5
5
5
5
5
5
5
5
5
5
5
5
5
5
5
5
5
5
5
5
5
5
5
5
5
5
5
5
5
5
5
5
5
5
5
5
5
5
5
5
5
5
5
5
5
5
5
5
5
5
5
5
5
5
5
5
5
5
5
5
5
5
5
5
5
5
5
5
5
5
5
5
5
5
5
5
5
5
5
5
5
5
5
5
5
5
5
5
5
5
5
5
5
5
5
5
5
5
5
5
5
5
5
5
5
5
5
5
5
5
5
5
5
5
5
5
5
5
5
5
5
5
5
5
5
5
5
5
5
5
5
5
5
5
5
5
5
5
5
5
5
5
5
5
5
5
5
5
5
5
5
5
5
5
5
5
5
5
5
5
5
5
5
5
5
5
5
5
5
5
5
5
5
5
5
5
5
5
5
5
5
5
5
5
5
5
5
5
5
5
5
5
5
5
5
5
5
5
5
5
5
5
5
5
5
5
5
5
5
5
5
5
5
5
5
5
5
5
5
5
5
5
5
5
5
5
5
5
5
5
5
5
5
5
5
5
5
5
5
5
5
5
5
5
5
5
5
5
5
5
5
5
5
5
5
5
5
5
5
5
5
5
5
5
5
5
5
5
5
5
5
5
5
5
5
5
5
5
5
5
5
5
5
5
5
5
5
5
5
5
5
5
5
5
5
5
5
5
5
5
5
5
5
5
5
5
5
5
5
5
5
5
5
5
5
5
5
5
5
5
5
5
5
5
5
5
5
5
5
5
5
5
5
5
5
5
5
5
5
5
5
5
5
5
5
5
5
5
5
5
5
5
5
5
5
5
5
5
5
5
5
5
5
5
5
5
5
5
5
5
5
5
5
5
5
5
5
5
5
5
5
5
5
5
5
5
5
5
5
5
5
5
5
5
5
5
5
5
5
5
5
5
5
5
5
5
5
5
5
5
5
5
5
5
5
5
5
5
5
5
5
5
5
5
5
5
5
5
5
5
5
5
5
5
5
5
5
5
5
5
5
5
5
5
5
5
5
5
5
5
5
5
5
5
5
5
5
5
5
5
5
5
5
5
5
5
5
5
5
5
5
5
5
5
5
5
5
5
5
5
5
5
5
5
5
5
5
5
5
5
5
5
5
5
5
5
5
5
5
5
5
5
5
5
5
5
5
5
5
5
5
5
5
5
5
5
5
5
5
5
5
5
5
5
5
5
5
5
5
5
5
5
5
5
5
5
5
5
5
5
5
5
5
5
5
5
5
5
5
5
5
5
5
5
5
5
5
5
5
5
5
5
5
5
5
5
5
5
5
5
5
5
5
5
5
5
5
5
5
5
5
5
5
5
5
5
5
5
5
5
5
5
5
5
5
5
5
5
5
5
5
5
5
5
5
5
5
5
5
5
5
5
5
5
5
5
5
5
5
5
5
5
5
5
5
5
5
5
5
5
5
5
5
5
5
5
5
5
5
5
5
5
5
5
5
5
5
5
5
5
5
5
5
5
5
5
5
5
5
5
5
5
5
5
5
5
5
5
5
5
5
5
5
5
5
5
5
5
5
5
5
5
5
5
5
5
5
5
5
5
5
5
5
5
5
5
5
5
5
5
5
5
5
5
5
5
5
5
5
5
5
5
5
5
5
5
5
5
5
5
5
5
5
5
5
5
5
5
5
5
5
5
5
5
5
5
5
5
5
5
5
5
5
5
5
5
5
5
5
5
5
5
5
5
5
5
5
5
5
5
5
5
5
5
5
5
5
5
5
5
5
5
5
5
5
5
5
5
5
5
5
5
5
5
5
5
5
5
5
5
5
5
5
5
5
5
5
5
5
5
5
5
5
5
5
5
5
5
5
5
5
5
5
5
5
5
5
5
5
5
5
5
5
5
5
5
5
5
5
5
5
5
5
5
5
5
5
5
5
5
5
5
5
5
5
5
5
5
5
5
5
5
5
5
5
5
5
5
5
5
5
5
5
5
5
5
5
5
5
5
5
5
5
5
5
5
5
5
5
5
5
5
5
5
5
5
5
5
5
5
5
5
5
5
5
5
5
5
5
5
5
5
5
5
5
5
5
5
5
5
5
5
5
5
5
5
5
5
5
5
5
5
5
5
5
5
5
5
5
5
5
5
5
5
5
5
5
5
5
5
5
5
5
5
5
5
5
5
5
5
5
5
5
5
5
5
5
5
5
5
5
5
5
5
5
5
5
5
5
5
5
5
5
5
5
5
5
5
5
5
5
5
5
5
5
5
5
5
5
5
5
5
5
5
5
5
5
5
5
5
5
5
5
5
5
5
5
5
5
5
5
5
5
5
5
5
5
5
5
5
5
5
5
5

