# vtk DataFile Version 2.0
CGAL constrained delaunay mesh generation 2d
ASCII
DATASET UNSTRUCTURED_GRID
POINTS 861 double
0.4	0.00E+00	0.00E+00
0.41	0.00E+00	0.00E+00
0.42	0.00E+00	0.00E+00
0.43	0.00E+00	0.00E+00
0.44	0.00E+00	0.00E+00
0.45	0.00E+00	0.00E+00
0.46	0.00E+00	0.00E+00
0.47	0.00E+00	0.00E+00
0.48	0.00E+00	0.00E+00
0.49	0.00E+00	0.00E+00
0.5	0.00E+00	0.00E+00
0.51	0.00E+00	0.00E+00
0.52	0.00E+00	0.00E+00
0.53	0.00E+00	0.00E+00
0.54	0.00E+00	0.00E+00
0.55	0.00E+00	0.00E+00
0.56	0.00E+00	0.00E+00
0.57	0.00E+00	0.00E+00
0.58	0.00E+00	0.00E+00
0.59	0.00E+00	0.00E+00
0.6	0.00E+00	0.00E+00
0.38	0.00E+00	5.00E-02
0.392	0.00E+00	5.00E-02
0.404	0.00E+00	5.00E-02
0.416	0.00E+00	5.00E-02
0.428	0.00E+00	5.00E-02
0.44	0.00E+00	5.00E-02
0.452	0.00E+00	5.00E-02
0.464	0.00E+00	5.00E-02
0.476	0.00E+00	5.00E-02
0.488	0.00E+00	5.00E-02
0.5	0.00E+00	5.00E-02
0.512	0.00E+00	5.00E-02
0.524	0.00E+00	5.00E-02
0.536	0.00E+00	5.00E-02
0.548	0.00E+00	5.00E-02
0.56	0.00E+00	5.00E-02
0.572	0.00E+00	5.00E-02
0.584	0.00E+00	5.00E-02
0.596	0.00E+00	5.00E-02
0.608	0.00E+00	5.00E-02
0.62	0.00E+00	5.00E-02
0.36	0.00E+00	1.00E-01
0.374	0.00E+00	1.00E-01
0.388	0.00E+00	1.00E-01
0.402	0.00E+00	1.00E-01
0.416	0.00E+00	1.00E-01
0.43	0.00E+00	1.00E-01
0.444	0.00E+00	1.00E-01
0.458	0.00E+00	1.00E-01
0.472	0.00E+00	1.00E-01
0.486	0.00E+00	1.00E-01
0.5	0.00E+00	1.00E-01
0.514	0.00E+00	1.00E-01
0.528	0.00E+00	1.00E-01
0.542	0.00E+00	1.00E-01
0.556	0.00E+00	1.00E-01
0.57	0.00E+00	1.00E-01
0.584	0.00E+00	1.00E-01
0.598	0.00E+00	1.00E-01
0.612	0.00E+00	1.00E-01
0.626	0.00E+00	1.00E-01
0.64	0.00E+00	1.00E-01
0.34	0.00E+00	1.50E-01
0.356	0.00E+00	1.50E-01
0.372	0.00E+00	1.50E-01
0.388	0.00E+00	1.50E-01
0.404	0.00E+00	1.50E-01
0.42	0.00E+00	1.50E-01
0.436	0.00E+00	1.50E-01
0.452	0.00E+00	1.50E-01
0.468	0.00E+00	1.50E-01
0.484	0.00E+00	1.50E-01
0.5	0.00E+00	1.50E-01
0.516	0.00E+00	1.50E-01
0.532	0.00E+00	1.50E-01
0.548	0.00E+00	1.50E-01
0.564	0.00E+00	1.50E-01
0.58	0.00E+00	1.50E-01
0.596	0.00E+00	1.50E-01
0.612	0.00E+00	1.50E-01
0.628	0.00E+00	1.50E-01
0.644	0.00E+00	1.50E-01
0.66	0.00E+00	1.50E-01
0.32	0.00E+00	2.00E-01
0.338	0.00E+00	2.00E-01
0.356	0.00E+00	2.00E-01
0.374	0.00E+00	2.00E-01
0.392	0.00E+00	2.00E-01
0.41	0.00E+00	2.00E-01
0.428	0.00E+00	2.00E-01
0.446	0.00E+00	2.00E-01
0.464	0.00E+00	2.00E-01
0.482	0.00E+00	2.00E-01
0.5	0.00E+00	2.00E-01
0.518	0.00E+00	2.00E-01
0.536	0.00E+00	2.00E-01
0.554	0.00E+00	2.00E-01
0.572	0.00E+00	2.00E-01
0.59	0.00E+00	2.00E-01
0.608	0.00E+00	2.00E-01
0.626	0.00E+00	2.00E-01
0.644	0.00E+00	2.00E-01
0.662	0.00E+00	2.00E-01
0.68	0.00E+00	2.00E-01
0.3	0.00E+00	2.50E-01
0.32	0.00E+00	2.50E-01
0.34	0.00E+00	2.50E-01
0.36	0.00E+00	2.50E-01
0.38	0.00E+00	2.50E-01
0.4	0.00E+00	2.50E-01
0.42	0.00E+00	2.50E-01
0.44	0.00E+00	2.50E-01
0.46	0.00E+00	2.50E-01
0.48	0.00E+00	2.50E-01
0.5	0.00E+00	2.50E-01
0.52	0.00E+00	2.50E-01
0.54	0.00E+00	2.50E-01
0.56	0.00E+00	2.50E-01
0.58	0.00E+00	2.50E-01
0.6	0.00E+00	2.50E-01
0.62	0.00E+00	2.50E-01
0.64	0.00E+00	2.50E-01
0.66	0.00E+00	2.50E-01
0.68	0.00E+00	2.50E-01
0.7	0.00E+00	2.50E-01
0.28	0.00E+00	3.00E-01
0.302	0.00E+00	3.00E-01
0.324	0.00E+00	3.00E-01
0.346	0.00E+00	3.00E-01
0.368	0.00E+00	3.00E-01
0.39	0.00E+00	3.00E-01
0.412	0.00E+00	3.00E-01
0.434	0.00E+00	3.00E-01
0.456	0.00E+00	3.00E-01
0.478	0.00E+00	3.00E-01
0.5	0.00E+00	3.00E-01
0.522	0.00E+00	3.00E-01
0.544	0.00E+00	3.00E-01
0.566	0.00E+00	3.00E-01
0.588	0.00E+00	3.00E-01
0.61	0.00E+00	3.00E-01
0.632	0.00E+00	3.00E-01
0.654	0.00E+00	3.00E-01
0.676	0.00E+00	3.00E-01
0.698	0.00E+00	3.00E-01
0.72	0.00E+00	3.00E-01
0.26	0.00E+00	3.50E-01
0.284	0.00E+00	3.50E-01
0.308	0.00E+00	3.50E-01
0.332	0.00E+00	3.50E-01
0.356	0.00E+00	3.50E-01
0.38	0.00E+00	3.50E-01
0.404	0.00E+00	3.50E-01
0.428	0.00E+00	3.50E-01
0.452	0.00E+00	3.50E-01
0.476	0.00E+00	3.50E-01
0.5	0.00E+00	3.50E-01
0.524	0.00E+00	3.50E-01
0.548	0.00E+00	3.50E-01
0.572	0.00E+00	3.50E-01
0.596	0.00E+00	3.50E-01
0.62	0.00E+00	3.50E-01
0.644	0.00E+00	3.50E-01
0.668	0.00E+00	3.50E-01
0.692	0.00E+00	3.50E-01
0.716	0.00E+00	3.50E-01
0.74	0.00E+00	3.50E-01
0.24	0.00E+00	4.00E-01
0.266	0.00E+00	4.00E-01
0.292	0.00E+00	4.00E-01
0.318	0.00E+00	4.00E-01
0.344	0.00E+00	4.00E-01
0.37	0.00E+00	4.00E-01
0.396	0.00E+00	4.00E-01
0.422	0.00E+00	4.00E-01
0.448	0.00E+00	4.00E-01
0.474	0.00E+00	4.00E-01
0.5	0.00E+00	4.00E-01
0.526	0.00E+00	4.00E-01
0.552	0.00E+00	4.00E-01
0.578	0.00E+00	4.00E-01
0.604	0.00E+00	4.00E-01
0.63	0.00E+00	4.00E-01
0.656	0.00E+00	4.00E-01
0.682	0.00E+00	4.00E-01
0.708	0.00E+00	4.00E-01
0.734	0.00E+00	4.00E-01
0.76	0.00E+00	4.00E-01
0.22	0.00E+00	4.50E-01
0.248	0.00E+00	4.50E-01
0.276	0.00E+00	4.50E-01
0.304	0.00E+00	4.50E-01
0.332	0.00E+00	4.50E-01
0.36	0.00E+00	4.50E-01
0.388	0.00E+00	4.50E-01
0.416	0.00E+00	4.50E-01
0.444	0.00E+00	4.50E-01
0.472	0.00E+00	4.50E-01
0.5	0.00E+00	4.50E-01
0.528	0.00E+00	4.50E-01
0.556	0.00E+00	4.50E-01
0.584	0.00E+00	4.50E-01
0.612	0.00E+00	4.50E-01
0.64	0.00E+00	4.50E-01
0.668	0.00E+00	4.50E-01
0.696	0.00E+00	4.50E-01
0.724	0.00E+00	4.50E-01
0.752	0.00E+00	4.50E-01
0.78	0.00E+00	4.50E-01
0.2	0.00E+00	5.00E-01
0.23	0.00E+00	5.00E-01
0.26	0.00E+00	5.00E-01
0.29	0.00E+00	5.00E-01
0.32	0.00E+00	5.00E-01
0.35	0.00E+00	5.00E-01
0.38	0.00E+00	5.00E-01
0.41	0.00E+00	5.00E-01
0.44	0.00E+00	5.00E-01
0.47	0.00E+00	5.00E-01
0.5	0.00E+00	5.00E-01
0.53	0.00E+00	5.00E-01
0.56	0.00E+00	5.00E-01
0.59	0.00E+00	5.00E-01
0.62	0.00E+00	5.00E-01
0.65	0.00E+00	5.00E-01
0.68	0.00E+00	5.00E-01
0.71	0.00E+00	5.00E-01
0.74	0.00E+00	5.00E-01
0.77	0.00E+00	5.00E-01
0.8	0.00E+00	5.00E-01
0.18	0.00E+00	5.50E-01
0.212	0.00E+00	5.50E-01
0.244	0.00E+00	5.50E-01
0.276	0.00E+00	5.50E-01
0.308	0.00E+00	5.50E-01
0.34	0.00E+00	5.50E-01
0.372	0.00E+00	5.50E-01
0.404	0.00E+00	5.50E-01
0.436	0.00E+00	5.50E-01
0.468	0.00E+00	5.50E-01
0.5	0.00E+00	5.50E-01
0.532	0.00E+00	5.50E-01
0.564	0.00E+00	5.50E-01
0.596	0.00E+00	5.50E-01
0.628	0.00E+00	5.50E-01
0.66	0.00E+00	5.50E-01
0.692	0.00E+00	5.50E-01
0.724	0.00E+00	5.50E-01
0.756	0.00E+00	5.50E-01
0.788	0.00E+00	5.50E-01
0.82	0.00E+00	5.50E-01
0.16	0.00E+00	6.00E-01
0.194	0.00E+00	6.00E-01
0.228	0.00E+00	6.00E-01
0.262	0.00E+00	6.00E-01
0.296	0.00E+00	6.00E-01
0.33	0.00E+00	6.00E-01
0.364	0.00E+00	6.00E-01
0.398	0.00E+00	6.00E-01
0.432	0.00E+00	6.00E-01
0.466	0.00E+00	6.00E-01
0.5	0.00E+00	6.00E-01
0.534	0.00E+00	6.00E-01
0.568	0.00E+00	6.00E-01
0.602	0.00E+00	6.00E-01
0.636	0.00E+00	6.00E-01
0.67	0.00E+00	6.00E-01
0.704	0.00E+00	6.00E-01
0.738	0.00E+00	6.00E-01
0.772	0.00E+00	6.00E-01
0.806	0.00E+00	6.00E-01
0.84	0.00E+00	6.00E-01
0.14	0.00E+00	6.50E-01
0.176	0.00E+00	6.50E-01
0.212	0.00E+00	6.50E-01
0.248	0.00E+00	6.50E-01
0.284	0.00E+00	6.50E-01
0.32	0.00E+00	6.50E-01
0.356	0.00E+00	6.50E-01
0.392	0.00E+00	6.50E-01
0.428	0.00E+00	6.50E-01
0.464	0.00E+00	6.50E-01
0.5	0.00E+00	6.50E-01
0.536	0.00E+00	6.50E-01
0.572	0.00E+00	6.50E-01
0.608	0.00E+00	6.50E-01
0.644	0.00E+00	6.50E-01
0.68	0.00E+00	6.50E-01
0.716	0.00E+00	6.50E-01
0.752	0.00E+00	6.50E-01
0.788	0.00E+00	6.50E-01
0.824	0.00E+00	6.50E-01
0.86	0.00E+00	6.50E-01
0.12	0.00E+00	7.00E-01
0.158	0.00E+00	7.00E-01
0.196	0.00E+00	7.00E-01
0.234	0.00E+00	7.00E-01
0.272	0.00E+00	7.00E-01
0.31	0.00E+00	7.00E-01
0.348	0.00E+00	7.00E-01
0.386	0.00E+00	7.00E-01
0.424	0.00E+00	7.00E-01
0.462	0.00E+00	7.00E-01
0.5	0.00E+00	7.00E-01
0.538	0.00E+00	7.00E-01
0.576	0.00E+00	7.00E-01
0.614	0.00E+00	7.00E-01
0.652	0.00E+00	7.00E-01
0.69	0.00E+00	7.00E-01
0.728	0.00E+00	7.00E-01
0.766	0.00E+00	7.00E-01
0.804	0.00E+00	7.00E-01
0.842	0.00E+00	7.00E-01
0.88	0.00E+00	7.00E-01
0.1	0.00E+00	7.50E-01
0.14	0.00E+00	7.50E-01
0.18	0.00E+00	7.50E-01
0.22	0.00E+00	7.50E-01
0.26	0.00E+00	7.50E-01
0.3	0.00E+00	7.50E-01
0.34	0.00E+00	7.50E-01
0.38	0.00E+00	7.50E-01
0.42	0.00E+00	7.50E-01
0.46	0.00E+00	7.50E-01
0.5	0.00E+00	7.50E-01
0.54	0.00E+00	7.50E-01
0.58	0.00E+00	7.50E-01
0.62	0.00E+00	7.50E-01
0.66	0.00E+00	7.50E-01
0.7	0.00E+00	7.50E-01
0.74	0.00E+00	7.50E-01
0.78	0.00E+00	7.50E-01
0.82	0.00E+00	7.50E-01
0.86	0.00E+00	7.50E-01
0.9	0.00E+00	7.50E-01
0.08	0.00E+00	8.00E-01
0.122	0.00E+00	8.00E-01
0.164	0.00E+00	8.00E-01
0.206	0.00E+00	8.00E-01
0.248	0.00E+00	8.00E-01
0.29	0.00E+00	8.00E-01
0.332	0.00E+00	8.00E-01
0.374	0.00E+00	8.00E-01
0.416	0.00E+00	8.00E-01
0.458	0.00E+00	8.00E-01
0.5	0.00E+00	8.00E-01
0.542	0.00E+00	8.00E-01
0.584	0.00E+00	8.00E-01
0.626	0.00E+00	8.00E-01
0.668	0.00E+00	8.00E-01
0.71	0.00E+00	8.00E-01
0.752	0.00E+00	8.00E-01
0.794	0.00E+00	8.00E-01
0.836	0.00E+00	8.00E-01
0.878	0.00E+00	8.00E-01
0.92	0.00E+00	8.00E-01
0.06	0.00E+00	8.50E-01
0.104	0.00E+00	8.50E-01
0.148	0.00E+00	8.50E-01
0.192	0.00E+00	8.50E-01
0.236	0.00E+00	8.50E-01
0.28	0.00E+00	8.50E-01
0.324	0.00E+00	8.50E-01
0.368	0.00E+00	8.50E-01
0.412	0.00E+00	8.50E-01
0.456	0.00E+00	8.50E-01
0.5	0.00E+00	8.50E-01
0.544	0.00E+00	8.50E-01
0.588	0.00E+00	8.50E-01
0.632	0.00E+00	8.50E-01
0.676	0.00E+00	8.50E-01
0.72	0.00E+00	8.50E-01
0.764	0.00E+00	8.50E-01
0.808	0.00E+00	8.50E-01
0.852	0.00E+00	8.50E-01
0.896	0.00E+00	8.50E-01
0.94	0.00E+00	8.50E-01
0.04	0.00E+00	9.00E-01
0.086	0.00E+00	9.00E-01
0.132	0.00E+00	9.00E-01
0.178	0.00E+00	9.00E-01
0.224	0.00E+00	9.00E-01
0.27	0.00E+00	9.00E-01
0.316	0.00E+00	9.00E-01
0.362	0.00E+00	9.00E-01
0.408	0.00E+00	9.00E-01
0.454	0.00E+00	9.00E-01
0.5	0.00E+00	9.00E-01
0.546	0.00E+00	9.00E-01
0.592	0.00E+00	9.00E-01
0.638	0.00E+00	9.00E-01
0.684	0.00E+00	9.00E-01
0.73	0.00E+00	9.00E-01
0.776	0.00E+00	9.00E-01
0.822	0.00E+00	9.00E-01
0.868	0.00E+00	9.00E-01
0.914	0.00E+00	9.00E-01
0.96	0.00E+00	9.00E-01
0.02	0.00E+00	9.50E-01
0.068	0.00E+00	9.50E-01
0.116	0.00E+00	9.50E-01
0.164	0.00E+00	9.50E-01
0.212	0.00E+00	9.50E-01
0.26	0.00E+00	9.50E-01
0.308	0.00E+00	9.50E-01
0.356	0.00E+00	9.50E-01
0.404	0.00E+00	9.50E-01
0.452	0.00E+00	9.50E-01
0.5	0.00E+00	9.50E-01
0.548	0.00E+00	9.50E-01
0.596	0.00E+00	9.50E-01
0.644	0.00E+00	9.50E-01
0.692	0.00E+00	9.50E-01
0.74	0.00E+00	9.50E-01
0.788	0.00E+00	9.50E-01
0.836	0.00E+00	9.50E-01
0.884	0.00E+00	9.50E-01
0.932	0.00E+00	9.50E-01
0.98	0.00E+00	9.50E-01
0.00E+00	0.00E+00	1.00E+00
5.00E-02	0.00E+00	1.00E+00
1.00E-01	0.00E+00	1.00E+00
1.50E-01	0.00E+00	1.00E+00
2.00E-01	0.00E+00	1.00E+00
2.50E-01	0.00E+00	1.00E+00
3.00E-01	0.00E+00	1.00E+00
3.50E-01	0.00E+00	1.00E+00
4.00E-01	0.00E+00	1.00E+00
4.50E-01	0.00E+00	1.00E+00
5.00E-01	0.00E+00	1.00E+00
5.50E-01	0.00E+00	1.00E+00
6.00E-01	0.00E+00	1.00E+00
6.50E-01	0.00E+00	1.00E+00
7.00E-01	0.00E+00	1.00E+00
7.50E-01	0.00E+00	1.00E+00
8.00E-01	0.00E+00	1.00E+00
8.50E-01	0.00E+00	1.00E+00
9.00E-01	0.00E+00	1.00E+00
9.50E-01	0.00E+00	1.00E+00
1.00E+00	0.00E+00	1.00E+00
0.00E+00	0.00E+00	1.05E+00
5.00E-02	0.00E+00	1.05E+00
1.00E-01	0.00E+00	1.05E+00
1.50E-01	0.00E+00	1.05E+00
2.00E-01	0.00E+00	1.05E+00
2.50E-01	0.00E+00	1.05E+00
3.00E-01	0.00E+00	1.05E+00
3.50E-01	0.00E+00	1.05E+00
4.00E-01	0.00E+00	1.05E+00
4.50E-01	0.00E+00	1.05E+00
5.00E-01	0.00E+00	1.05E+00
5.50E-01	0.00E+00	1.05E+00
6.00E-01	0.00E+00	1.05E+00
6.50E-01	0.00E+00	1.05E+00
7.00E-01	0.00E+00	1.05E+00
7.50E-01	0.00E+00	1.05E+00
8.00E-01	0.00E+00	1.05E+00
8.50E-01	0.00E+00	1.05E+00
9.00E-01	0.00E+00	1.05E+00
9.50E-01	0.00E+00	1.05E+00
1.00E+00	0.00E+00	1.05E+00
0.00E+00	0.00E+00	1.10E+00
5.00E-02	0.00E+00	1.10E+00
1.00E-01	0.00E+00	1.10E+00
1.50E-01	0.00E+00	1.10E+00
2.00E-01	0.00E+00	1.10E+00
2.50E-01	0.00E+00	1.10E+00
3.00E-01	0.00E+00	1.10E+00
3.50E-01	0.00E+00	1.10E+00
4.00E-01	0.00E+00	1.10E+00
4.50E-01	0.00E+00	1.10E+00
5.00E-01	0.00E+00	1.10E+00
5.50E-01	0.00E+00	1.10E+00
6.00E-01	0.00E+00	1.10E+00
6.50E-01	0.00E+00	1.10E+00
7.00E-01	0.00E+00	1.10E+00
7.50E-01	0.00E+00	1.10E+00
8.00E-01	0.00E+00	1.10E+00
8.50E-01	0.00E+00	1.10E+00
9.00E-01	0.00E+00	1.10E+00
9.50E-01	0.00E+00	1.10E+00
1.00E+00	0.00E+00	1.10E+00
0.00E+00	0.00E+00	1.15E+00
5.00E-02	0.00E+00	1.15E+00
1.00E-01	0.00E+00	1.15E+00
1.50E-01	0.00E+00	1.15E+00
2.00E-01	0.00E+00	1.15E+00
2.50E-01	0.00E+00	1.15E+00
3.00E-01	0.00E+00	1.15E+00
3.50E-01	0.00E+00	1.15E+00
4.00E-01	0.00E+00	1.15E+00
4.50E-01	0.00E+00	1.15E+00
5.00E-01	0.00E+00	1.15E+00
5.50E-01	0.00E+00	1.15E+00
6.00E-01	0.00E+00	1.15E+00
6.50E-01	0.00E+00	1.15E+00
7.00E-01	0.00E+00	1.15E+00
7.50E-01	0.00E+00	1.15E+00
8.00E-01	0.00E+00	1.15E+00
8.50E-01	0.00E+00	1.15E+00
9.00E-01	0.00E+00	1.15E+00
9.50E-01	0.00E+00	1.15E+00
1.00E+00	0.00E+00	1.15E+00
0.00E+00	0.00E+00	1.20E+00
5.00E-02	0.00E+00	1.20E+00
1.00E-01	0.00E+00	1.20E+00
1.50E-01	0.00E+00	1.20E+00
2.00E-01	0.00E+00	1.20E+00
2.50E-01	0.00E+00	1.20E+00
3.00E-01	0.00E+00	1.20E+00
3.50E-01	0.00E+00	1.20E+00
4.00E-01	0.00E+00	1.20E+00
4.50E-01	0.00E+00	1.20E+00
5.00E-01	0.00E+00	1.20E+00
5.50E-01	0.00E+00	1.20E+00
6.00E-01	0.00E+00	1.20E+00
6.50E-01	0.00E+00	1.20E+00
7.00E-01	0.00E+00	1.20E+00
7.50E-01	0.00E+00	1.20E+00
8.00E-01	0.00E+00	1.20E+00
8.50E-01	0.00E+00	1.20E+00
9.00E-01	0.00E+00	1.20E+00
9.50E-01	0.00E+00	1.20E+00
1.00E+00	0.00E+00	1.20E+00
0.00E+00	0.00E+00	1.25E+00
5.00E-02	0.00E+00	1.25E+00
1.00E-01	0.00E+00	1.25E+00
1.50E-01	0.00E+00	1.25E+00
2.00E-01	0.00E+00	1.25E+00
2.50E-01	0.00E+00	1.25E+00
3.00E-01	0.00E+00	1.25E+00
3.50E-01	0.00E+00	1.25E+00
4.00E-01	0.00E+00	1.25E+00
4.50E-01	0.00E+00	1.25E+00
5.00E-01	0.00E+00	1.25E+00
5.50E-01	0.00E+00	1.25E+00
6.00E-01	0.00E+00	1.25E+00
6.50E-01	0.00E+00	1.25E+00
7.00E-01	0.00E+00	1.25E+00
7.50E-01	0.00E+00	1.25E+00
8.00E-01	0.00E+00	1.25E+00
8.50E-01	0.00E+00	1.25E+00
9.00E-01	0.00E+00	1.25E+00
9.50E-01	0.00E+00	1.25E+00
1.00E+00	0.00E+00	1.25E+00
0.00E+00	0.00E+00	1.30E+00
5.00E-02	0.00E+00	1.30E+00
1.00E-01	0.00E+00	1.30E+00
1.50E-01	0.00E+00	1.30E+00
2.00E-01	0.00E+00	1.30E+00
2.50E-01	0.00E+00	1.30E+00
3.00E-01	0.00E+00	1.30E+00
3.50E-01	0.00E+00	1.30E+00
4.00E-01	0.00E+00	1.30E+00
4.50E-01	0.00E+00	1.30E+00
5.00E-01	0.00E+00	1.30E+00
5.50E-01	0.00E+00	1.30E+00
6.00E-01	0.00E+00	1.30E+00
6.50E-01	0.00E+00	1.30E+00
7.00E-01	0.00E+00	1.30E+00
7.50E-01	0.00E+00	1.30E+00
8.00E-01	0.00E+00	1.30E+00
8.50E-01	0.00E+00	1.30E+00
9.00E-01	0.00E+00	1.30E+00
9.50E-01	0.00E+00	1.30E+00
1.00E+00	0.00E+00	1.30E+00
0.00E+00	0.00E+00	1.35E+00
5.00E-02	0.00E+00	1.35E+00
1.00E-01	0.00E+00	1.35E+00
1.50E-01	0.00E+00	1.35E+00
2.00E-01	0.00E+00	1.35E+00
2.50E-01	0.00E+00	1.35E+00
3.00E-01	0.00E+00	1.35E+00
3.50E-01	0.00E+00	1.35E+00
4.00E-01	0.00E+00	1.35E+00
4.50E-01	0.00E+00	1.35E+00
5.00E-01	0.00E+00	1.35E+00
5.50E-01	0.00E+00	1.35E+00
6.00E-01	0.00E+00	1.35E+00
6.50E-01	0.00E+00	1.35E+00
7.00E-01	0.00E+00	1.35E+00
7.50E-01	0.00E+00	1.35E+00
8.00E-01	0.00E+00	1.35E+00
8.50E-01	0.00E+00	1.35E+00
9.00E-01	0.00E+00	1.35E+00
9.50E-01	0.00E+00	1.35E+00
1.00E+00	0.00E+00	1.35E+00
0.00E+00	0.00E+00	1.40E+00
5.00E-02	0.00E+00	1.40E+00
1.00E-01	0.00E+00	1.40E+00
1.50E-01	0.00E+00	1.40E+00
2.00E-01	0.00E+00	1.40E+00
2.50E-01	0.00E+00	1.40E+00
3.00E-01	0.00E+00	1.40E+00
3.50E-01	0.00E+00	1.40E+00
4.00E-01	0.00E+00	1.40E+00
4.50E-01	0.00E+00	1.40E+00
5.00E-01	0.00E+00	1.40E+00
5.50E-01	0.00E+00	1.40E+00
6.00E-01	0.00E+00	1.40E+00
6.50E-01	0.00E+00	1.40E+00
7.00E-01	0.00E+00	1.40E+00
7.50E-01	0.00E+00	1.40E+00
8.00E-01	0.00E+00	1.40E+00
8.50E-01	0.00E+00	1.40E+00
9.00E-01	0.00E+00	1.40E+00
9.50E-01	0.00E+00	1.40E+00
1.00E+00	0.00E+00	1.40E+00
0.00E+00	0.00E+00	1.45E+00
5.00E-02	0.00E+00	1.45E+00
1.00E-01	0.00E+00	1.45E+00
1.50E-01	0.00E+00	1.45E+00
2.00E-01	0.00E+00	1.45E+00
2.50E-01	0.00E+00	1.45E+00
3.00E-01	0.00E+00	1.45E+00
3.50E-01	0.00E+00	1.45E+00
4.00E-01	0.00E+00	1.45E+00
4.50E-01	0.00E+00	1.45E+00
5.00E-01	0.00E+00	1.45E+00
5.50E-01	0.00E+00	1.45E+00
6.00E-01	0.00E+00	1.45E+00
6.50E-01	0.00E+00	1.45E+00
7.00E-01	0.00E+00	1.45E+00
7.50E-01	0.00E+00	1.45E+00
8.00E-01	0.00E+00	1.45E+00
8.50E-01	0.00E+00	1.45E+00
9.00E-01	0.00E+00	1.45E+00
9.50E-01	0.00E+00	1.45E+00
1.00E+00	0.00E+00	1.45E+00
0.00E+00	0.00E+00	1.50E+00
5.00E-02	0.00E+00	1.50E+00
1.00E-01	0.00E+00	1.50E+00
1.50E-01	0.00E+00	1.50E+00
2.00E-01	0.00E+00	1.50E+00
2.50E-01	0.00E+00	1.50E+00
3.00E-01	0.00E+00	1.50E+00
3.50E-01	0.00E+00	1.50E+00
4.00E-01	0.00E+00	1.50E+00
4.50E-01	0.00E+00	1.50E+00
5.00E-01	0.00E+00	1.50E+00
5.50E-01	0.00E+00	1.50E+00
6.00E-01	0.00E+00	1.50E+00
6.50E-01	0.00E+00	1.50E+00
7.00E-01	0.00E+00	1.50E+00
7.50E-01	0.00E+00	1.50E+00
8.00E-01	0.00E+00	1.50E+00
8.50E-01	0.00E+00	1.50E+00
9.00E-01	0.00E+00	1.50E+00
9.50E-01	0.00E+00	1.50E+00
1.00E+00	0.00E+00	1.50E+00
0.00E+00	0.00E+00	1.55E+00
5.00E-02	0.00E+00	1.55E+00
1.00E-01	0.00E+00	1.55E+00
1.50E-01	0.00E+00	1.55E+00
2.00E-01	0.00E+00	1.55E+00
2.50E-01	0.00E+00	1.55E+00
3.00E-01	0.00E+00	1.55E+00
3.50E-01	0.00E+00	1.55E+00
4.00E-01	0.00E+00	1.55E+00
4.50E-01	0.00E+00	1.55E+00
5.00E-01	0.00E+00	1.55E+00
5.50E-01	0.00E+00	1.55E+00
6.00E-01	0.00E+00	1.55E+00
6.50E-01	0.00E+00	1.55E+00
7.00E-01	0.00E+00	1.55E+00
7.50E-01	0.00E+00	1.55E+00
8.00E-01	0.00E+00	1.55E+00
8.50E-01	0.00E+00	1.55E+00
9.00E-01	0.00E+00	1.55E+00
9.50E-01	0.00E+00	1.55E+00
1.00E+00	0.00E+00	1.55E+00
0.00E+00	0.00E+00	1.60E+00
5.00E-02	0.00E+00	1.60E+00
1.00E-01	0.00E+00	1.60E+00
1.50E-01	0.00E+00	1.60E+00
2.00E-01	0.00E+00	1.60E+00
2.50E-01	0.00E+00	1.60E+00
3.00E-01	0.00E+00	1.60E+00
3.50E-01	0.00E+00	1.60E+00
4.00E-01	0.00E+00	1.60E+00
4.50E-01	0.00E+00	1.60E+00
5.00E-01	0.00E+00	1.60E+00
5.50E-01	0.00E+00	1.60E+00
6.00E-01	0.00E+00	1.60E+00
6.50E-01	0.00E+00	1.60E+00
7.00E-01	0.00E+00	1.60E+00
7.50E-01	0.00E+00	1.60E+00
8.00E-01	0.00E+00	1.60E+00
8.50E-01	0.00E+00	1.60E+00
9.00E-01	0.00E+00	1.60E+00
9.50E-01	0.00E+00	1.60E+00
1.00E+00	0.00E+00	1.60E+00
0.00E+00	0.00E+00	1.65E+00
5.00E-02	0.00E+00	1.65E+00
1.00E-01	0.00E+00	1.65E+00
1.50E-01	0.00E+00	1.65E+00
2.00E-01	0.00E+00	1.65E+00
2.50E-01	0.00E+00	1.65E+00
3.00E-01	0.00E+00	1.65E+00
3.50E-01	0.00E+00	1.65E+00
4.00E-01	0.00E+00	1.65E+00
4.50E-01	0.00E+00	1.65E+00
5.00E-01	0.00E+00	1.65E+00
5.50E-01	0.00E+00	1.65E+00
6.00E-01	0.00E+00	1.65E+00
6.50E-01	0.00E+00	1.65E+00
7.00E-01	0.00E+00	1.65E+00
7.50E-01	0.00E+00	1.65E+00
8.00E-01	0.00E+00	1.65E+00
8.50E-01	0.00E+00	1.65E+00
9.00E-01	0.00E+00	1.65E+00
9.50E-01	0.00E+00	1.65E+00
1.00E+00	0.00E+00	1.65E+00
0.00E+00	0.00E+00	1.70E+00
5.00E-02	0.00E+00	1.70E+00
1.00E-01	0.00E+00	1.70E+00
1.50E-01	0.00E+00	1.70E+00
2.00E-01	0.00E+00	1.70E+00
2.50E-01	0.00E+00	1.70E+00
3.00E-01	0.00E+00	1.70E+00
3.50E-01	0.00E+00	1.70E+00
4.00E-01	0.00E+00	1.70E+00
4.50E-01	0.00E+00	1.70E+00
5.00E-01	0.00E+00	1.70E+00
5.50E-01	0.00E+00	1.70E+00
6.00E-01	0.00E+00	1.70E+00
6.50E-01	0.00E+00	1.70E+00
7.00E-01	0.00E+00	1.70E+00
7.50E-01	0.00E+00	1.70E+00
8.00E-01	0.00E+00	1.70E+00
8.50E-01	0.00E+00	1.70E+00
9.00E-01	0.00E+00	1.70E+00
9.50E-01	0.00E+00	1.70E+00
1.00E+00	0.00E+00	1.70E+00
0.00E+00	0.00E+00	1.75E+00
5.00E-02	0.00E+00	1.75E+00
1.00E-01	0.00E+00	1.75E+00
1.50E-01	0.00E+00	1.75E+00
2.00E-01	0.00E+00	1.75E+00
2.50E-01	0.00E+00	1.75E+00
3.00E-01	0.00E+00	1.75E+00
3.50E-01	0.00E+00	1.75E+00
4.00E-01	0.00E+00	1.75E+00
4.50E-01	0.00E+00	1.75E+00
5.00E-01	0.00E+00	1.75E+00
5.50E-01	0.00E+00	1.75E+00
6.00E-01	0.00E+00	1.75E+00
6.50E-01	0.00E+00	1.75E+00
7.00E-01	0.00E+00	1.75E+00
7.50E-01	0.00E+00	1.75E+00
8.00E-01	0.00E+00	1.75E+00
8.50E-01	0.00E+00	1.75E+00
9.00E-01	0.00E+00	1.75E+00
9.50E-01	0.00E+00	1.75E+00
1.00E+00	0.00E+00	1.75E+00
0.00E+00	0.00E+00	1.80E+00
5.00E-02	0.00E+00	1.80E+00
1.00E-01	0.00E+00	1.80E+00
1.50E-01	0.00E+00	1.80E+00
2.00E-01	0.00E+00	1.80E+00
2.50E-01	0.00E+00	1.80E+00
3.00E-01	0.00E+00	1.80E+00
3.50E-01	0.00E+00	1.80E+00
4.00E-01	0.00E+00	1.80E+00
4.50E-01	0.00E+00	1.80E+00
5.00E-01	0.00E+00	1.80E+00
5.50E-01	0.00E+00	1.80E+00
6.00E-01	0.00E+00	1.80E+00
6.50E-01	0.00E+00	1.80E+00
7.00E-01	0.00E+00	1.80E+00
7.50E-01	0.00E+00	1.80E+00
8.00E-01	0.00E+00	1.80E+00
8.50E-01	0.00E+00	1.80E+00
9.00E-01	0.00E+00	1.80E+00
9.50E-01	0.00E+00	1.80E+00
1.00E+00	0.00E+00	1.80E+00
0.00E+00	0.00E+00	1.85E+00
5.00E-02	0.00E+00	1.85E+00
1.00E-01	0.00E+00	1.85E+00
1.50E-01	0.00E+00	1.85E+00
2.00E-01	0.00E+00	1.85E+00
2.50E-01	0.00E+00	1.85E+00
3.00E-01	0.00E+00	1.85E+00
3.50E-01	0.00E+00	1.85E+00
4.00E-01	0.00E+00	1.85E+00
4.50E-01	0.00E+00	1.85E+00
5.00E-01	0.00E+00	1.85E+00
5.50E-01	0.00E+00	1.85E+00
6.00E-01	0.00E+00	1.85E+00
6.50E-01	0.00E+00	1.85E+00
7.00E-01	0.00E+00	1.85E+00
7.50E-01	0.00E+00	1.85E+00
8.00E-01	0.00E+00	1.85E+00
8.50E-01	0.00E+00	1.85E+00
9.00E-01	0.00E+00	1.85E+00
9.50E-01	0.00E+00	1.85E+00
1.00E+00	0.00E+00	1.85E+00
0.00E+00	0.00E+00	1.90E+00
5.00E-02	0.00E+00	1.90E+00
1.00E-01	0.00E+00	1.90E+00
1.50E-01	0.00E+00	1.90E+00
2.00E-01	0.00E+00	1.90E+00
2.50E-01	0.00E+00	1.90E+00
3.00E-01	0.00E+00	1.90E+00
3.50E-01	0.00E+00	1.90E+00
4.00E-01	0.00E+00	1.90E+00
4.50E-01	0.00E+00	1.90E+00
5.00E-01	0.00E+00	1.90E+00
5.50E-01	0.00E+00	1.90E+00
6.00E-01	0.00E+00	1.90E+00
6.50E-01	0.00E+00	1.90E+00
7.00E-01	0.00E+00	1.90E+00
7.50E-01	0.00E+00	1.90E+00
8.00E-01	0.00E+00	1.90E+00
8.50E-01	0.00E+00	1.90E+00
9.00E-01	0.00E+00	1.90E+00
9.50E-01	0.00E+00	1.90E+00
1.00E+00	0.00E+00	1.90E+00
0.00E+00	0.00E+00	1.95E+00
5.00E-02	0.00E+00	1.95E+00
1.00E-01	0.00E+00	1.95E+00
1.50E-01	0.00E+00	1.95E+00
2.00E-01	0.00E+00	1.95E+00
2.50E-01	0.00E+00	1.95E+00
3.00E-01	0.00E+00	1.95E+00
3.50E-01	0.00E+00	1.95E+00
4.00E-01	0.00E+00	1.95E+00
4.50E-01	0.00E+00	1.95E+00
5.00E-01	0.00E+00	1.95E+00
5.50E-01	0.00E+00	1.95E+00
6.00E-01	0.00E+00	1.95E+00
6.50E-01	0.00E+00	1.95E+00
7.00E-01	0.00E+00	1.95E+00
7.50E-01	0.00E+00	1.95E+00
8.00E-01	0.00E+00	1.95E+00
8.50E-01	0.00E+00	1.95E+00
9.00E-01	0.00E+00	1.95E+00
9.50E-01	0.00E+00	1.95E+00
1.00E+00	0.00E+00	1.95E+00
0.00E+00	0.00E+00	2.00E+00
5.00E-02	0.00E+00	2.00E+00
1.00E-01	0.00E+00	2.00E+00
1.50E-01	0.00E+00	2.00E+00
2.00E-01	0.00E+00	2.00E+00
2.50E-01	0.00E+00	2.00E+00
3.00E-01	0.00E+00	2.00E+00
3.50E-01	0.00E+00	2.00E+00
4.00E-01	0.00E+00	2.00E+00
4.50E-01	0.00E+00	2.00E+00
5.00E-01	0.00E+00	2.00E+00
5.50E-01	0.00E+00	2.00E+00
6.00E-01	0.00E+00	2.00E+00
6.50E-01	0.00E+00	2.00E+00
7.00E-01	0.00E+00	2.00E+00
7.50E-01	0.00E+00	2.00E+00
8.00E-01	0.00E+00	2.00E+00
8.50E-01	0.00E+00	2.00E+00
9.00E-01	0.00E+00	2.00E+00
9.50E-01	0.00E+00	2.00E+00
1.00E+00	0.00E+00	2.00E+00

CELLS 800 4000
4	0	1	22	21
4	1	2	23	22
4	2	3	24	23
4	3	4	25	24
4	4	5	26	25
4	5	6	27	26
4	6	7	28	27
4	7	8	29	28
4	8	9	30	29
4	9	10	31	30
4	10	11	32	31
4	11	12	33	32
4	12	13	34	33
4	13	14	35	34
4	14	15	36	35
4	15	16	37	36
4	16	17	38	37
4	17	18	39	38
4	18	19	40	39
4	19	20	41	40
4	21	22	43	42
4	22	23	44	43
4	23	24	45	44
4	24	25	46	45
4	25	26	47	46
4	26	27	48	47
4	27	28	49	48
4	28	29	50	49
4	29	30	51	50
4	30	31	52	51
4	31	32	53	52
4	32	33	54	53
4	33	34	55	54
4	34	35	56	55
4	35	36	57	56
4	36	37	58	57
4	37	38	59	58
4	38	39	60	59
4	39	40	61	60
4	40	41	62	61
4	42	43	64	63
4	43	44	65	64
4	44	45	66	65
4	45	46	67	66
4	46	47	68	67
4	47	48	69	68
4	48	49	70	69
4	49	50	71	70
4	50	51	72	71
4	51	52	73	72
4	52	53	74	73
4	53	54	75	74
4	54	55	76	75
4	55	56	77	76
4	56	57	78	77
4	57	58	79	78
4	58	59	80	79
4	59	60	81	80
4	60	61	82	81
4	61	62	83	82
4	63	64	85	84
4	64	65	86	85
4	65	66	87	86
4	66	67	88	87
4	67	68	89	88
4	68	69	90	89
4	69	70	91	90
4	70	71	92	91
4	71	72	93	92
4	72	73	94	93
4	73	74	95	94
4	74	75	96	95
4	75	76	97	96
4	76	77	98	97
4	77	78	99	98
4	78	79	100	99
4	79	80	101	100
4	80	81	102	101
4	81	82	103	102
4	82	83	104	103
4	84	85	106	105
4	85	86	107	106
4	86	87	108	107
4	87	88	109	108
4	88	89	110	109
4	89	90	111	110
4	90	91	112	111
4	91	92	113	112
4	92	93	114	113
4	93	94	115	114
4	94	95	116	115
4	95	96	117	116
4	96	97	118	117
4	97	98	119	118
4	98	99	120	119
4	99	100	121	120
4	100	101	122	121
4	101	102	123	122
4	102	103	124	123
4	103	104	125	124
4	105	106	127	126
4	106	107	128	127
4	107	108	129	128
4	108	109	130	129
4	109	110	131	130
4	110	111	132	131
4	111	112	133	132
4	112	113	134	133
4	113	114	135	134
4	114	115	136	135
4	115	116	137	136
4	116	117	138	137
4	117	118	139	138
4	118	119	140	139
4	119	120	141	140
4	120	121	142	141
4	121	122	143	142
4	122	123	144	143
4	123	124	145	144
4	124	125	146	145
4	126	127	148	147
4	127	128	149	148
4	128	129	150	149
4	129	130	151	150
4	130	131	152	151
4	131	132	153	152
4	132	133	154	153
4	133	134	155	154
4	134	135	156	155
4	135	136	157	156
4	136	137	158	157
4	137	138	159	158
4	138	139	160	159
4	139	140	161	160
4	140	141	162	161
4	141	142	163	162
4	142	143	164	163
4	143	144	165	164
4	144	145	166	165
4	145	146	167	166
4	147	148	169	168
4	148	149	170	169
4	149	150	171	170
4	150	151	172	171
4	151	152	173	172
4	152	153	174	173
4	153	154	175	174
4	154	155	176	175
4	155	156	177	176
4	156	157	178	177
4	157	158	179	178
4	158	159	180	179
4	159	160	181	180
4	160	161	182	181
4	161	162	183	182
4	162	163	184	183
4	163	164	185	184
4	164	165	186	185
4	165	166	187	186
4	166	167	188	187
4	168	169	190	189
4	169	170	191	190
4	170	171	192	191
4	171	172	193	192
4	172	173	194	193
4	173	174	195	194
4	174	175	196	195
4	175	176	197	196
4	176	177	198	197
4	177	178	199	198
4	178	179	200	199
4	179	180	201	200
4	180	181	202	201
4	181	182	203	202
4	182	183	204	203
4	183	184	205	204
4	184	185	206	205
4	185	186	207	206
4	186	187	208	207
4	187	188	209	208
4	189	190	211	210
4	190	191	212	211
4	191	192	213	212
4	192	193	214	213
4	193	194	215	214
4	194	195	216	215
4	195	196	217	216
4	196	197	218	217
4	197	198	219	218
4	198	199	220	219
4	199	200	221	220
4	200	201	222	221
4	201	202	223	222
4	202	203	224	223
4	203	204	225	224
4	204	205	226	225
4	205	206	227	226
4	206	207	228	227
4	207	208	229	228
4	208	209	230	229
4	210	211	232	231
4	211	212	233	232
4	212	213	234	233
4	213	214	235	234
4	214	215	236	235
4	215	216	237	236
4	216	217	238	237
4	217	218	239	238
4	218	219	240	239
4	219	220	241	240
4	220	221	242	241
4	221	222	243	242
4	222	223	244	243
4	223	224	245	244
4	224	225	246	245
4	225	226	247	246
4	226	227	248	247
4	227	228	249	248
4	228	229	250	249
4	229	230	251	250
4	231	232	253	252
4	232	233	254	253
4	233	234	255	254
4	234	235	256	255
4	235	236	257	256
4	236	237	258	257
4	237	238	259	258
4	238	239	260	259
4	239	240	261	260
4	240	241	262	261
4	241	242	263	262
4	242	243	264	263
4	243	244	265	264
4	244	245	266	265
4	245	246	267	266
4	246	247	268	267
4	247	248	269	268
4	248	249	270	269
4	249	250	271	270
4	250	251	272	271
4	252	253	274	273
4	253	254	275	274
4	254	255	276	275
4	255	256	277	276
4	256	257	278	277
4	257	258	279	278
4	258	259	280	279
4	259	260	281	280
4	260	261	282	281
4	261	262	283	282
4	262	263	284	283
4	263	264	285	284
4	264	265	286	285
4	265	266	287	286
4	266	267	288	287
4	267	268	289	288
4	268	269	290	289
4	269	270	291	290
4	270	271	292	291
4	271	272	293	292
4	273	274	295	294
4	274	275	296	295
4	275	276	297	296
4	276	277	298	297
4	277	278	299	298
4	278	279	300	299
4	279	280	301	300
4	280	281	302	301
4	281	282	303	302
4	282	283	304	303
4	283	284	305	304
4	284	285	306	305
4	285	286	307	306
4	286	287	308	307
4	287	288	309	308
4	288	289	310	309
4	289	290	311	310
4	290	291	312	311
4	291	292	313	312
4	292	293	314	313
4	294	295	316	315
4	295	296	317	316
4	296	297	318	317
4	297	298	319	318
4	298	299	320	319
4	299	300	321	320
4	300	301	322	321
4	301	302	323	322
4	302	303	324	323
4	303	304	325	324
4	304	305	326	325
4	305	306	327	326
4	306	307	328	327
4	307	308	329	328
4	308	309	330	329
4	309	310	331	330
4	310	311	332	331
4	311	312	333	332
4	312	313	334	333
4	313	314	335	334
4	315	316	337	336
4	316	317	338	337
4	317	318	339	338
4	318	319	340	339
4	319	320	341	340
4	320	321	342	341
4	321	322	343	342
4	322	323	344	343
4	323	324	345	344
4	324	325	346	345
4	325	326	347	346
4	326	327	348	347
4	327	328	349	348
4	328	329	350	349
4	329	330	351	350
4	330	331	352	351
4	331	332	353	352
4	332	333	354	353
4	333	334	355	354
4	334	335	356	355
4	336	337	358	357
4	337	338	359	358
4	338	339	360	359
4	339	340	361	360
4	340	341	362	361
4	341	342	363	362
4	342	343	364	363
4	343	344	365	364
4	344	345	366	365
4	345	346	367	366
4	346	347	368	367
4	347	348	369	368
4	348	349	370	369
4	349	350	371	370
4	350	351	372	371
4	351	352	373	372
4	352	353	374	373
4	353	354	375	374
4	354	355	376	375
4	355	356	377	376
4	357	358	379	378
4	358	359	380	379
4	359	360	381	380
4	360	361	382	381
4	361	362	383	382
4	362	363	384	383
4	363	364	385	384
4	364	365	386	385
4	365	366	387	386
4	366	367	388	387
4	367	368	389	388
4	368	369	390	389
4	369	370	391	390
4	370	371	392	391
4	371	372	393	392
4	372	373	394	393
4	373	374	395	394
4	374	375	396	395
4	375	376	397	396
4	376	377	398	397
4	378	379	400	399
4	379	380	401	400
4	380	381	402	401
4	381	382	403	402
4	382	383	404	403
4	383	384	405	404
4	384	385	406	405
4	385	386	407	406
4	386	387	408	407
4	387	388	409	408
4	388	389	410	409
4	389	390	411	410
4	390	391	412	411
4	391	392	413	412
4	392	393	414	413
4	393	394	415	414
4	394	395	416	415
4	395	396	417	416
4	396	397	418	417
4	397	398	419	418
4	399	400	421	420
4	400	401	422	421
4	401	402	423	422
4	402	403	424	423
4	403	404	425	424
4	404	405	426	425
4	405	406	427	426
4	406	407	428	427
4	407	408	429	428
4	408	409	430	429
4	409	410	431	430
4	410	411	432	431
4	411	412	433	432
4	412	413	434	433
4	413	414	435	434
4	414	415	436	435
4	415	416	437	436
4	416	417	438	437
4	417	418	439	438
4	418	419	440	439
4	420	421	442	441
4	421	422	443	442
4	422	423	444	443
4	423	424	445	444
4	424	425	446	445
4	425	426	447	446
4	426	427	448	447
4	427	428	449	448
4	428	429	450	449
4	429	430	451	450
4	430	431	452	451
4	431	432	453	452
4	432	433	454	453
4	433	434	455	454
4	434	435	456	455
4	435	436	457	456
4	436	437	458	457
4	437	438	459	458
4	438	439	460	459
4	439	440	461	460
4	441	442	463	462
4	442	443	464	463
4	443	444	465	464
4	444	445	466	465
4	445	446	467	466
4	446	447	468	467
4	447	448	469	468
4	448	449	470	469
4	449	450	471	470
4	450	451	472	471
4	451	452	473	472
4	452	453	474	473
4	453	454	475	474
4	454	455	476	475
4	455	456	477	476
4	456	457	478	477
4	457	458	479	478
4	458	459	480	479
4	459	460	481	480
4	460	461	482	481
4	462	463	484	483
4	463	464	485	484
4	464	465	486	485
4	465	466	487	486
4	466	467	488	487
4	467	468	489	488
4	468	469	490	489
4	469	470	491	490
4	470	471	492	491
4	471	472	493	492
4	472	473	494	493
4	473	474	495	494
4	474	475	496	495
4	475	476	497	496
4	476	477	498	497
4	477	478	499	498
4	478	479	500	499
4	479	480	501	500
4	480	481	502	501
4	481	482	503	502
4	483	484	505	504
4	484	485	506	505
4	485	486	507	506
4	486	487	508	507
4	487	488	509	508
4	488	489	510	509
4	489	490	511	510
4	490	491	512	511
4	491	492	513	512
4	492	493	514	513
4	493	494	515	514
4	494	495	516	515
4	495	496	517	516
4	496	497	518	517
4	497	498	519	518
4	498	499	520	519
4	499	500	521	520
4	500	501	522	521
4	501	502	523	522
4	502	503	524	523
4	504	505	526	525
4	505	506	527	526
4	506	507	528	527
4	507	508	529	528
4	508	509	530	529
4	509	510	531	530
4	510	511	532	531
4	511	512	533	532
4	512	513	534	533
4	513	514	535	534
4	514	515	536	535
4	515	516	537	536
4	516	517	538	537
4	517	518	539	538
4	518	519	540	539
4	519	520	541	540
4	520	521	542	541
4	521	522	543	542
4	522	523	544	543
4	523	524	545	544
4	525	526	547	546
4	526	527	548	547
4	527	528	549	548
4	528	529	550	549
4	529	530	551	550
4	530	531	552	551
4	531	532	553	552
4	532	533	554	553
4	533	534	555	554
4	534	535	556	555
4	535	536	557	556
4	536	537	558	557
4	537	538	559	558
4	538	539	560	559
4	539	540	561	560
4	540	541	562	561
4	541	542	563	562
4	542	543	564	563
4	543	544	565	564
4	544	545	566	565
4	546	547	568	567
4	547	548	569	568
4	548	549	570	569
4	549	550	571	570
4	550	551	572	571
4	551	552	573	572
4	552	553	574	573
4	553	554	575	574
4	554	555	576	575
4	555	556	577	576
4	556	557	578	577
4	557	558	579	578
4	558	559	580	579
4	559	560	581	580
4	560	561	582	581
4	561	562	583	582
4	562	563	584	583
4	563	564	585	584
4	564	565	586	585
4	565	566	587	586
4	567	568	589	588
4	568	569	590	589
4	569	570	591	590
4	570	571	592	591
4	571	572	593	592
4	572	573	594	593
4	573	574	595	594
4	574	575	596	595
4	575	576	597	596
4	576	577	598	597
4	577	578	599	598
4	578	579	600	599
4	579	580	601	600
4	580	581	602	601
4	581	582	603	602
4	582	583	604	603
4	583	584	605	604
4	584	585	606	605
4	585	586	607	606
4	586	587	608	607
4	588	589	610	609
4	589	590	611	610
4	590	591	612	611
4	591	592	613	612
4	592	593	614	613
4	593	594	615	614
4	594	595	616	615
4	595	596	617	616
4	596	597	618	617
4	597	598	619	618
4	598	599	620	619
4	599	600	621	620
4	600	601	622	621
4	601	602	623	622
4	602	603	624	623
4	603	604	625	624
4	604	605	626	625
4	605	606	627	626
4	606	607	628	627
4	607	608	629	628
4	609	610	631	630
4	610	611	632	631
4	611	612	633	632
4	612	613	634	633
4	613	614	635	634
4	614	615	636	635
4	615	616	637	636
4	616	617	638	637
4	617	618	639	638
4	618	619	640	639
4	619	620	641	640
4	620	621	642	641
4	621	622	643	642
4	622	623	644	643
4	623	624	645	644
4	624	625	646	645
4	625	626	647	646
4	626	627	648	647
4	627	628	649	648
4	628	629	650	649
4	630	631	652	651
4	631	632	653	652
4	632	633	654	653
4	633	634	655	654
4	634	635	656	655
4	635	636	657	656
4	636	637	658	657
4	637	638	659	658
4	638	639	660	659
4	639	640	661	660
4	640	641	662	661
4	641	642	663	662
4	642	643	664	663
4	643	644	665	664
4	644	645	666	665
4	645	646	667	666
4	646	647	668	667
4	647	648	669	668
4	648	649	670	669
4	649	650	671	670
4	651	652	673	672
4	652	653	674	673
4	653	654	675	674
4	654	655	676	675
4	655	656	677	676
4	656	657	678	677
4	657	658	679	678
4	658	659	680	679
4	659	660	681	680
4	660	661	682	681
4	661	662	683	682
4	662	663	684	683
4	663	664	685	684
4	664	665	686	685
4	665	666	687	686
4	666	667	688	687
4	667	668	689	688
4	668	669	690	689
4	669	670	691	690
4	670	671	692	691
4	672	673	694	693
4	673	674	695	694
4	674	675	696	695
4	675	676	697	696
4	676	677	698	697
4	677	678	699	698
4	678	679	700	699
4	679	680	701	700
4	680	681	702	701
4	681	682	703	702
4	682	683	704	703
4	683	684	705	704
4	684	685	706	705
4	685	686	707	706
4	686	687	708	707
4	687	688	709	708
4	688	689	710	709
4	689	690	711	710
4	690	691	712	711
4	691	692	713	712
4	693	694	715	714
4	694	695	716	715
4	695	696	717	716
4	696	697	718	717
4	697	698	719	718
4	698	699	720	719
4	699	700	721	720
4	700	701	722	721
4	701	702	723	722
4	702	703	724	723
4	703	704	725	724
4	704	705	726	725
4	705	706	727	726
4	706	707	728	727
4	707	708	729	728
4	708	709	730	729
4	709	710	731	730
4	710	711	732	731
4	711	712	733	732
4	712	713	734	733
4	714	715	736	735
4	715	716	737	736
4	716	717	738	737
4	717	718	739	738
4	718	719	740	739
4	719	720	741	740
4	720	721	742	741
4	721	722	743	742
4	722	723	744	743
4	723	724	745	744
4	724	725	746	745
4	725	726	747	746
4	726	727	748	747
4	727	728	749	748
4	728	729	750	749
4	729	730	751	750
4	730	731	752	751
4	731	732	753	752
4	732	733	754	753
4	733	734	755	754
4	735	736	757	756
4	736	737	758	757
4	737	738	759	758
4	738	739	760	759
4	739	740	761	760
4	740	741	762	761
4	741	742	763	762
4	742	743	764	763
4	743	744	765	764
4	744	745	766	765
4	745	746	767	766
4	746	747	768	767
4	747	748	769	768
4	748	749	770	769
4	749	750	771	770
4	750	751	772	771
4	751	752	773	772
4	752	753	774	773
4	753	754	775	774
4	754	755	776	775
4	756	757	778	777
4	757	758	779	778
4	758	759	780	779
4	759	760	781	780
4	760	761	782	781
4	761	762	783	782
4	762	763	784	783
4	763	764	785	784
4	764	765	786	785
4	765	766	787	786
4	766	767	788	787
4	767	768	789	788
4	768	769	790	789
4	769	770	791	790
4	770	771	792	791
4	771	772	793	792
4	772	773	794	793
4	773	774	795	794
4	774	775	796	795
4	775	776	797	796
4	777	778	799	798
4	778	779	800	799
4	779	780	801	800
4	780	781	802	801
4	781	782	803	802
4	782	783	804	803
4	783	784	805	804
4	784	785	806	805
4	785	786	807	806
4	786	787	808	807
4	787	788	809	808
4	788	789	810	809
4	789	790	811	810
4	790	791	812	811
4	791	792	813	812
4	792	793	814	813
4	793	794	815	814
4	794	795	816	815
4	795	796	817	816
4	796	797	818	817
4	798	799	820	819
4	799	800	821	820
4	800	801	822	821
4	801	802	823	822
4	802	803	824	823
4	803	804	825	824
4	804	805	826	825
4	805	806	827	826
4	806	807	828	827
4	807	808	829	828
4	808	809	830	829
4	809	810	831	830
4	810	811	832	831
4	811	812	833	832
4	812	813	834	833
4	813	814	835	834
4	814	815	836	835
4	815	816	837	836
4	816	817	838	837
4	817	818	839	838
4	819	820	841	840
4	820	821	842	841
4	821	822	843	842
4	822	823	844	843
4	823	824	845	844
4	824	825	846	845
4	825	826	847	846
4	826	827	848	847
4	827	828	849	848
4	828	829	850	849
4	829	830	851	850
4	830	831	852	851
4	831	832	853	852
4	832	833	854	853
4	833	834	855	854
4	834	835	856	855
4	835	836	857	856
4	836	837	858	857
4	837	838	859	858
4	838	839	860	859
CELL_TYPES 800
9
9
9
9
9
9
9
9
9
9
9
9
9
9
9
9
9
9
9
9
9
9
9
9
9
9
9
9
9
9
9
9
9
9
9
9
9
9
9
9
9
9
9
9
9
9
9
9
9
9
9
9
9
9
9
9
9
9
9
9
9
9
9
9
9
9
9
9
9
9
9
9
9
9
9
9
9
9
9
9
9
9
9
9
9
9
9
9
9
9
9
9
9
9
9
9
9
9
9
9
9
9
9
9
9
9
9
9
9
9
9
9
9
9
9
9
9
9
9
9
9
9
9
9
9
9
9
9
9
9
9
9
9
9
9
9
9
9
9
9
9
9
9
9
9
9
9
9
9
9
9
9
9
9
9
9
9
9
9
9
9
9
9
9
9
9
9
9
9
9
9
9
9
9
9
9
9
9
9
9
9
9
9
9
9
9
9
9
9
9
9
9
9
9
9
9
9
9
9
9
9
9
9
9
9
9
9
9
9
9
9
9
9
9
9
9
9
9
9
9
9
9
9
9
9
9
9
9
9
9
9
9
9
9
9
9
9
9
9
9
9
9
9
9
9
9
9
9
9
9
9
9
9
9
9
9
9
9
9
9
9
9
9
9
9
9
9
9
9
9
9
9
9
9
9
9
9
9
9
9
9
9
9
9
9
9
9
9
9
9
9
9
9
9
9
9
9
9
9
9
9
9
9
9
9
9
9
9
9
9
9
9
9
9
9
9
9
9
9
9
9
9
9
9
9
9
9
9
9
9
9
9
9
9
9
9
9
9
9
9
9
9
9
9
9
9
9
9
9
9
9
9
9
9
9
9
9
9
9
9
9
9
9
9
9
9
9
9
9
9
9
9
9
9
9
9
9
9
9
9
9
9
9
9
9
9
9
9
9
9
9
9
9
9
9
9
9
9
9
9
9
9
9
9
9
9
9
9
9
9
9
9
9
9
9
9
9
9
9
9
9
9
9
9
9
9
9
9
9
9
9
9
9
9
9
9
9
9
9
9
9
9
9
9
9
9
9
9
9
9
9
9
9
9
9
9
9
9
9
9
9
9
9
9
9
9
9
9
9
9
9
9
9
9
9
9
9
9
9
9
9
9
9
9
9
9
9
9
9
9
9
9
9
9
9
9
9
9
9
9
9
9
9
9
9
9
9
9
9
9
9
9
9
9
9
9
9
9
9
9
9
9
9
9
9
9
9
9
9
9
9
9
9
9
9
9
9
9
9
9
9
9
9
9
9
9
9
9
9
9
9
9
9
9
9
9
9
9
9
9
9
9
9
9
9
9
9
9
9
9
9
9
9
9
9
9
9
9
9
9
9
9
9
9
9
9
9
9
9
9
9
9
9
9
9
9
9
9
9
9
9
9
9
9
9
9
9
9
9
9
9
9
9
9
9
9
9
9
9
9
9
9
9
9
9
9
9
9
9
9
9
9
9
9
9
9
9
9
9
9
9
9
9
9
9
9
9
9
9
9
9
9
9
9
9
9
9
9
9
9
9
9
9
9
9
9
9
9
9
9
9
9
9
9
9
9
9
9
9
9
9
9
9
9
9
9
9
9
9
9
9
9
9
9
9
9
9
9
9
9
9
9
9
9
9
9
9
9
9
9
9
9
9
9
9
9
9
9
9
9
9
9
9
9
9
9
9
9
9
9
9
9
9
9
9
9
9
9
9
9
9
9
9
9
9
9
9
9
9
9
9
9
9
9
9
9
9
9
9
9
9
9
9
9
9
9
9
9
9
9
9
9
9
9
9
9
9
9
9
9
9
9
9
9
9
9
9
9
9
9
9
9
9
9
9
9
9
9
9
9


