# vtk DataFile Version 2.0
3D Structured Grid in vtk Format
ASCII
DATASET UNSTRUCTURED_GRID
POINTS          800 double
  0.000000E+000  0.000000E+000  0.000000E+000
  1.000000E+000  0.000000E+000  0.000000E+000
  0.000000E+000  1.000000E+000  0.000000E+000
  1.000000E+000  1.000000E+000  0.000000E+000
  0.000000E+000  0.000000E+000  5.025126E+001
  1.000000E+000  0.000000E+000  5.025126E+001
  0.000000E+000  1.000000E+000  5.025126E+001
  1.000000E+000  1.000000E+000  5.025126E+001
  0.000000E+000  0.000000E+000  1.005025E+002
  1.000000E+000  0.000000E+000  1.005025E+002
  0.000000E+000  1.000000E+000  1.005025E+002
  1.000000E+000  1.000000E+000  1.005025E+002
  0.000000E+000  0.000000E+000  1.507538E+002
  1.000000E+000  0.000000E+000  1.507538E+002
  0.000000E+000  1.000000E+000  1.507538E+002
  1.000000E+000  1.000000E+000  1.507538E+002
  0.000000E+000  0.000000E+000  2.010050E+002
  1.000000E+000  0.000000E+000  2.010050E+002
  0.000000E+000  1.000000E+000  2.010050E+002
  1.000000E+000  1.000000E+000  2.010050E+002
  0.000000E+000  0.000000E+000  2.512563E+002
  1.000000E+000  0.000000E+000  2.512563E+002
  0.000000E+000  1.000000E+000  2.512563E+002
  1.000000E+000  1.000000E+000  2.512563E+002
  0.000000E+000  0.000000E+000  3.015075E+002
  1.000000E+000  0.000000E+000  3.015075E+002
  0.000000E+000  1.000000E+000  3.015075E+002
  1.000000E+000  1.000000E+000  3.015075E+002
  0.000000E+000  0.000000E+000  3.517588E+002
  1.000000E+000  0.000000E+000  3.517588E+002
  0.000000E+000  1.000000E+000  3.517588E+002
  1.000000E+000  1.000000E+000  3.517588E+002
  0.000000E+000  0.000000E+000  4.020101E+002
  1.000000E+000  0.000000E+000  4.020101E+002
  0.000000E+000  1.000000E+000  4.020101E+002
  1.000000E+000  1.000000E+000  4.020101E+002
  0.000000E+000  0.000000E+000  4.522613E+002
  1.000000E+000  0.000000E+000  4.522613E+002
  0.000000E+000  1.000000E+000  4.522613E+002
  1.000000E+000  1.000000E+000  4.522613E+002
  0.000000E+000  0.000000E+000  5.025126E+002
  1.000000E+000  0.000000E+000  5.025126E+002
  0.000000E+000  1.000000E+000  5.025126E+002
  1.000000E+000  1.000000E+000  5.025126E+002
  0.000000E+000  0.000000E+000  5.527638E+002
  1.000000E+000  0.000000E+000  5.527638E+002
  0.000000E+000  1.000000E+000  5.527638E+002
  1.000000E+000  1.000000E+000  5.527638E+002
  0.000000E+000  0.000000E+000  6.030151E+002
  1.000000E+000  0.000000E+000  6.030151E+002
  0.000000E+000  1.000000E+000  6.030151E+002
  1.000000E+000  1.000000E+000  6.030151E+002
  0.000000E+000  0.000000E+000  6.532663E+002
  1.000000E+000  0.000000E+000  6.532663E+002
  0.000000E+000  1.000000E+000  6.532663E+002
  1.000000E+000  1.000000E+000  6.532663E+002
  0.000000E+000  0.000000E+000  7.035176E+002
  1.000000E+000  0.000000E+000  7.035176E+002
  0.000000E+000  1.000000E+000  7.035176E+002
  1.000000E+000  1.000000E+000  7.035176E+002
  0.000000E+000  0.000000E+000  7.537688E+002
  1.000000E+000  0.000000E+000  7.537688E+002
  0.000000E+000  1.000000E+000  7.537688E+002
  1.000000E+000  1.000000E+000  7.537688E+002
  0.000000E+000  0.000000E+000  8.040201E+002
  1.000000E+000  0.000000E+000  8.040201E+002
  0.000000E+000  1.000000E+000  8.040201E+002
  1.000000E+000  1.000000E+000  8.040201E+002
  0.000000E+000  0.000000E+000  8.542714E+002
  1.000000E+000  0.000000E+000  8.542714E+002
  0.000000E+000  1.000000E+000  8.542714E+002
  1.000000E+000  1.000000E+000  8.542714E+002
  0.000000E+000  0.000000E+000  9.045226E+002
  1.000000E+000  0.000000E+000  9.045226E+002
  0.000000E+000  1.000000E+000  9.045226E+002
  1.000000E+000  1.000000E+000  9.045226E+002
  0.000000E+000  0.000000E+000  9.547739E+002
  1.000000E+000  0.000000E+000  9.547739E+002
  0.000000E+000  1.000000E+000  9.547739E+002
  1.000000E+000  1.000000E+000  9.547739E+002
  0.000000E+000  0.000000E+000  1.005025E+003
  1.000000E+000  0.000000E+000  1.005025E+003
  0.000000E+000  1.000000E+000  1.005025E+003
  1.000000E+000  1.000000E+000  1.005025E+003
  0.000000E+000  0.000000E+000  1.055276E+003
  1.000000E+000  0.000000E+000  1.055276E+003
  0.000000E+000  1.000000E+000  1.055276E+003
  1.000000E+000  1.000000E+000  1.055276E+003
  0.000000E+000  0.000000E+000  1.105528E+003
  1.000000E+000  0.000000E+000  1.105528E+003
  0.000000E+000  1.000000E+000  1.105528E+003
  1.000000E+000  1.000000E+000  1.105528E+003
  0.000000E+000  0.000000E+000  1.155779E+003
  1.000000E+000  0.000000E+000  1.155779E+003
  0.000000E+000  1.000000E+000  1.155779E+003
  1.000000E+000  1.000000E+000  1.155779E+003
  0.000000E+000  0.000000E+000  1.206030E+003
  1.000000E+000  0.000000E+000  1.206030E+003
  0.000000E+000  1.000000E+000  1.206030E+003
  1.000000E+000  1.000000E+000  1.206030E+003
  0.000000E+000  0.000000E+000  1.256281E+003
  1.000000E+000  0.000000E+000  1.256281E+003
  0.000000E+000  1.000000E+000  1.256281E+003
  1.000000E+000  1.000000E+000  1.256281E+003
  0.000000E+000  0.000000E+000  1.306533E+003
  1.000000E+000  0.000000E+000  1.306533E+003
  0.000000E+000  1.000000E+000  1.306533E+003
  1.000000E+000  1.000000E+000  1.306533E+003
  0.000000E+000  0.000000E+000  1.356784E+003
  1.000000E+000  0.000000E+000  1.356784E+003
  0.000000E+000  1.000000E+000  1.356784E+003
  1.000000E+000  1.000000E+000  1.356784E+003
  0.000000E+000  0.000000E+000  1.407035E+003
  1.000000E+000  0.000000E+000  1.407035E+003
  0.000000E+000  1.000000E+000  1.407035E+003
  1.000000E+000  1.000000E+000  1.407035E+003
  0.000000E+000  0.000000E+000  1.457286E+003
  1.000000E+000  0.000000E+000  1.457286E+003
  0.000000E+000  1.000000E+000  1.457286E+003
  1.000000E+000  1.000000E+000  1.457286E+003
  0.000000E+000  0.000000E+000  1.507538E+003
  1.000000E+000  0.000000E+000  1.507538E+003
  0.000000E+000  1.000000E+000  1.507538E+003
  1.000000E+000  1.000000E+000  1.507538E+003
  0.000000E+000  0.000000E+000  1.557789E+003
  1.000000E+000  0.000000E+000  1.557789E+003
  0.000000E+000  1.000000E+000  1.557789E+003
  1.000000E+000  1.000000E+000  1.557789E+003
  0.000000E+000  0.000000E+000  1.608040E+003
  1.000000E+000  0.000000E+000  1.608040E+003
  0.000000E+000  1.000000E+000  1.608040E+003
  1.000000E+000  1.000000E+000  1.608040E+003
  0.000000E+000  0.000000E+000  1.658291E+003
  1.000000E+000  0.000000E+000  1.658291E+003
  0.000000E+000  1.000000E+000  1.658291E+003
  1.000000E+000  1.000000E+000  1.658291E+003
  0.000000E+000  0.000000E+000  1.708543E+003
  1.000000E+000  0.000000E+000  1.708543E+003
  0.000000E+000  1.000000E+000  1.708543E+003
  1.000000E+000  1.000000E+000  1.708543E+003
  0.000000E+000  0.000000E+000  1.758794E+003
  1.000000E+000  0.000000E+000  1.758794E+003
  0.000000E+000  1.000000E+000  1.758794E+003
  1.000000E+000  1.000000E+000  1.758794E+003
  0.000000E+000  0.000000E+000  1.809045E+003
  1.000000E+000  0.000000E+000  1.809045E+003
  0.000000E+000  1.000000E+000  1.809045E+003
  1.000000E+000  1.000000E+000  1.809045E+003
  0.000000E+000  0.000000E+000  1.859296E+003
  1.000000E+000  0.000000E+000  1.859296E+003
  0.000000E+000  1.000000E+000  1.859296E+003
  1.000000E+000  1.000000E+000  1.859296E+003
  0.000000E+000  0.000000E+000  1.909548E+003
  1.000000E+000  0.000000E+000  1.909548E+003
  0.000000E+000  1.000000E+000  1.909548E+003
  1.000000E+000  1.000000E+000  1.909548E+003
  0.000000E+000  0.000000E+000  1.959799E+003
  1.000000E+000  0.000000E+000  1.959799E+003
  0.000000E+000  1.000000E+000  1.959799E+003
  1.000000E+000  1.000000E+000  1.959799E+003
  0.000000E+000  0.000000E+000  2.010050E+003
  1.000000E+000  0.000000E+000  2.010050E+003
  0.000000E+000  1.000000E+000  2.010050E+003
  1.000000E+000  1.000000E+000  2.010050E+003
  0.000000E+000  0.000000E+000  2.060302E+003
  1.000000E+000  0.000000E+000  2.060302E+003
  0.000000E+000  1.000000E+000  2.060302E+003
  1.000000E+000  1.000000E+000  2.060302E+003
  0.000000E+000  0.000000E+000  2.110553E+003
  1.000000E+000  0.000000E+000  2.110553E+003
  0.000000E+000  1.000000E+000  2.110553E+003
  1.000000E+000  1.000000E+000  2.110553E+003
  0.000000E+000  0.000000E+000  2.160804E+003
  1.000000E+000  0.000000E+000  2.160804E+003
  0.000000E+000  1.000000E+000  2.160804E+003
  1.000000E+000  1.000000E+000  2.160804E+003
  0.000000E+000  0.000000E+000  2.211055E+003
  1.000000E+000  0.000000E+000  2.211055E+003
  0.000000E+000  1.000000E+000  2.211055E+003
  1.000000E+000  1.000000E+000  2.211055E+003
  0.000000E+000  0.000000E+000  2.261307E+003
  1.000000E+000  0.000000E+000  2.261307E+003
  0.000000E+000  1.000000E+000  2.261307E+003
  1.000000E+000  1.000000E+000  2.261307E+003
  0.000000E+000  0.000000E+000  2.311558E+003
  1.000000E+000  0.000000E+000  2.311558E+003
  0.000000E+000  1.000000E+000  2.311558E+003
  1.000000E+000  1.000000E+000  2.311558E+003
  0.000000E+000  0.000000E+000  2.361809E+003
  1.000000E+000  0.000000E+000  2.361809E+003
  0.000000E+000  1.000000E+000  2.361809E+003
  1.000000E+000  1.000000E+000  2.361809E+003
  0.000000E+000  0.000000E+000  2.412060E+003
  1.000000E+000  0.000000E+000  2.412060E+003
  0.000000E+000  1.000000E+000  2.412060E+003
  1.000000E+000  1.000000E+000  2.412060E+003
  0.000000E+000  0.000000E+000  2.462312E+003
  1.000000E+000  0.000000E+000  2.462312E+003
  0.000000E+000  1.000000E+000  2.462312E+003
  1.000000E+000  1.000000E+000  2.462312E+003
  0.000000E+000  0.000000E+000  2.512563E+003
  1.000000E+000  0.000000E+000  2.512563E+003
  0.000000E+000  1.000000E+000  2.512563E+003
  1.000000E+000  1.000000E+000  2.512563E+003
  0.000000E+000  0.000000E+000  2.562814E+003
  1.000000E+000  0.000000E+000  2.562814E+003
  0.000000E+000  1.000000E+000  2.562814E+003
  1.000000E+000  1.000000E+000  2.562814E+003
  0.000000E+000  0.000000E+000  2.613065E+003
  1.000000E+000  0.000000E+000  2.613065E+003
  0.000000E+000  1.000000E+000  2.613065E+003
  1.000000E+000  1.000000E+000  2.613065E+003
  0.000000E+000  0.000000E+000  2.663317E+003
  1.000000E+000  0.000000E+000  2.663317E+003
  0.000000E+000  1.000000E+000  2.663317E+003
  1.000000E+000  1.000000E+000  2.663317E+003
  0.000000E+000  0.000000E+000  2.713568E+003
  1.000000E+000  0.000000E+000  2.713568E+003
  0.000000E+000  1.000000E+000  2.713568E+003
  1.000000E+000  1.000000E+000  2.713568E+003
  0.000000E+000  0.000000E+000  2.763819E+003
  1.000000E+000  0.000000E+000  2.763819E+003
  0.000000E+000  1.000000E+000  2.763819E+003
  1.000000E+000  1.000000E+000  2.763819E+003
  0.000000E+000  0.000000E+000  2.814070E+003
  1.000000E+000  0.000000E+000  2.814070E+003
  0.000000E+000  1.000000E+000  2.814070E+003
  1.000000E+000  1.000000E+000  2.814070E+003
  0.000000E+000  0.000000E+000  2.864322E+003
  1.000000E+000  0.000000E+000  2.864322E+003
  0.000000E+000  1.000000E+000  2.864322E+003
  1.000000E+000  1.000000E+000  2.864322E+003
  0.000000E+000  0.000000E+000  2.914573E+003
  1.000000E+000  0.000000E+000  2.914573E+003
  0.000000E+000  1.000000E+000  2.914573E+003
  1.000000E+000  1.000000E+000  2.914573E+003
  0.000000E+000  0.000000E+000  2.964824E+003
  1.000000E+000  0.000000E+000  2.964824E+003
  0.000000E+000  1.000000E+000  2.964824E+003
  1.000000E+000  1.000000E+000  2.964824E+003
  0.000000E+000  0.000000E+000  3.015075E+003
  1.000000E+000  0.000000E+000  3.015075E+003
  0.000000E+000  1.000000E+000  3.015075E+003
  1.000000E+000  1.000000E+000  3.015075E+003
  0.000000E+000  0.000000E+000  3.065327E+003
  1.000000E+000  0.000000E+000  3.065327E+003
  0.000000E+000  1.000000E+000  3.065327E+003
  1.000000E+000  1.000000E+000  3.065327E+003
  0.000000E+000  0.000000E+000  3.115578E+003
  1.000000E+000  0.000000E+000  3.115578E+003
  0.000000E+000  1.000000E+000  3.115578E+003
  1.000000E+000  1.000000E+000  3.115578E+003
  0.000000E+000  0.000000E+000  3.165829E+003
  1.000000E+000  0.000000E+000  3.165829E+003
  0.000000E+000  1.000000E+000  3.165829E+003
  1.000000E+000  1.000000E+000  3.165829E+003
  0.000000E+000  0.000000E+000  3.216080E+003
  1.000000E+000  0.000000E+000  3.216080E+003
  0.000000E+000  1.000000E+000  3.216080E+003
  1.000000E+000  1.000000E+000  3.216080E+003
  0.000000E+000  0.000000E+000  3.266332E+003
  1.000000E+000  0.000000E+000  3.266332E+003
  0.000000E+000  1.000000E+000  3.266332E+003
  1.000000E+000  1.000000E+000  3.266332E+003
  0.000000E+000  0.000000E+000  3.316583E+003
  1.000000E+000  0.000000E+000  3.316583E+003
  0.000000E+000  1.000000E+000  3.316583E+003
  1.000000E+000  1.000000E+000  3.316583E+003
  0.000000E+000  0.000000E+000  3.366834E+003
  1.000000E+000  0.000000E+000  3.366834E+003
  0.000000E+000  1.000000E+000  3.366834E+003
  1.000000E+000  1.000000E+000  3.366834E+003
  0.000000E+000  0.000000E+000  3.417085E+003
  1.000000E+000  0.000000E+000  3.417085E+003
  0.000000E+000  1.000000E+000  3.417085E+003
  1.000000E+000  1.000000E+000  3.417085E+003
  0.000000E+000  0.000000E+000  3.467337E+003
  1.000000E+000  0.000000E+000  3.467337E+003
  0.000000E+000  1.000000E+000  3.467337E+003
  1.000000E+000  1.000000E+000  3.467337E+003
  0.000000E+000  0.000000E+000  3.517588E+003
  1.000000E+000  0.000000E+000  3.517588E+003
  0.000000E+000  1.000000E+000  3.517588E+003
  1.000000E+000  1.000000E+000  3.517588E+003
  0.000000E+000  0.000000E+000  3.567839E+003
  1.000000E+000  0.000000E+000  3.567839E+003
  0.000000E+000  1.000000E+000  3.567839E+003
  1.000000E+000  1.000000E+000  3.567839E+003
  0.000000E+000  0.000000E+000  3.618090E+003
  1.000000E+000  0.000000E+000  3.618090E+003
  0.000000E+000  1.000000E+000  3.618090E+003
  1.000000E+000  1.000000E+000  3.618090E+003
  0.000000E+000  0.000000E+000  3.668342E+003
  1.000000E+000  0.000000E+000  3.668342E+003
  0.000000E+000  1.000000E+000  3.668342E+003
  1.000000E+000  1.000000E+000  3.668342E+003
  0.000000E+000  0.000000E+000  3.718593E+003
  1.000000E+000  0.000000E+000  3.718593E+003
  0.000000E+000  1.000000E+000  3.718593E+003
  1.000000E+000  1.000000E+000  3.718593E+003
  0.000000E+000  0.000000E+000  3.768844E+003
  1.000000E+000  0.000000E+000  3.768844E+003
  0.000000E+000  1.000000E+000  3.768844E+003
  1.000000E+000  1.000000E+000  3.768844E+003
  0.000000E+000  0.000000E+000  3.819095E+003
  1.000000E+000  0.000000E+000  3.819095E+003
  0.000000E+000  1.000000E+000  3.819095E+003
  1.000000E+000  1.000000E+000  3.819095E+003
  0.000000E+000  0.000000E+000  3.869347E+003
  1.000000E+000  0.000000E+000  3.869347E+003
  0.000000E+000  1.000000E+000  3.869347E+003
  1.000000E+000  1.000000E+000  3.869347E+003
  0.000000E+000  0.000000E+000  3.919598E+003
  1.000000E+000  0.000000E+000  3.919598E+003
  0.000000E+000  1.000000E+000  3.919598E+003
  1.000000E+000  1.000000E+000  3.919598E+003
  0.000000E+000  0.000000E+000  3.969849E+003
  1.000000E+000  0.000000E+000  3.969849E+003
  0.000000E+000  1.000000E+000  3.969849E+003
  1.000000E+000  1.000000E+000  3.969849E+003
  0.000000E+000  0.000000E+000  4.020101E+003
  1.000000E+000  0.000000E+000  4.020101E+003
  0.000000E+000  1.000000E+000  4.020101E+003
  1.000000E+000  1.000000E+000  4.020101E+003
  0.000000E+000  0.000000E+000  4.070352E+003
  1.000000E+000  0.000000E+000  4.070352E+003
  0.000000E+000  1.000000E+000  4.070352E+003
  1.000000E+000  1.000000E+000  4.070352E+003
  0.000000E+000  0.000000E+000  4.120603E+003
  1.000000E+000  0.000000E+000  4.120603E+003
  0.000000E+000  1.000000E+000  4.120603E+003
  1.000000E+000  1.000000E+000  4.120603E+003
  0.000000E+000  0.000000E+000  4.170854E+003
  1.000000E+000  0.000000E+000  4.170854E+003
  0.000000E+000  1.000000E+000  4.170854E+003
  1.000000E+000  1.000000E+000  4.170854E+003
  0.000000E+000  0.000000E+000  4.221106E+003
  1.000000E+000  0.000000E+000  4.221106E+003
  0.000000E+000  1.000000E+000  4.221106E+003
  1.000000E+000  1.000000E+000  4.221106E+003
  0.000000E+000  0.000000E+000  4.271357E+003
  1.000000E+000  0.000000E+000  4.271357E+003
  0.000000E+000  1.000000E+000  4.271357E+003
  1.000000E+000  1.000000E+000  4.271357E+003
  0.000000E+000  0.000000E+000  4.321608E+003
  1.000000E+000  0.000000E+000  4.321608E+003
  0.000000E+000  1.000000E+000  4.321608E+003
  1.000000E+000  1.000000E+000  4.321608E+003
  0.000000E+000  0.000000E+000  4.371859E+003
  1.000000E+000  0.000000E+000  4.371859E+003
  0.000000E+000  1.000000E+000  4.371859E+003
  1.000000E+000  1.000000E+000  4.371859E+003
  0.000000E+000  0.000000E+000  4.422111E+003
  1.000000E+000  0.000000E+000  4.422111E+003
  0.000000E+000  1.000000E+000  4.422111E+003
  1.000000E+000  1.000000E+000  4.422111E+003
  0.000000E+000  0.000000E+000  4.472362E+003
  1.000000E+000  0.000000E+000  4.472362E+003
  0.000000E+000  1.000000E+000  4.472362E+003
  1.000000E+000  1.000000E+000  4.472362E+003
  0.000000E+000  0.000000E+000  4.522613E+003
  1.000000E+000  0.000000E+000  4.522613E+003
  0.000000E+000  1.000000E+000  4.522613E+003
  1.000000E+000  1.000000E+000  4.522613E+003
  0.000000E+000  0.000000E+000  4.572864E+003
  1.000000E+000  0.000000E+000  4.572864E+003
  0.000000E+000  1.000000E+000  4.572864E+003
  1.000000E+000  1.000000E+000  4.572864E+003
  0.000000E+000  0.000000E+000  4.623116E+003
  1.000000E+000  0.000000E+000  4.623116E+003
  0.000000E+000  1.000000E+000  4.623116E+003
  1.000000E+000  1.000000E+000  4.623116E+003
  0.000000E+000  0.000000E+000  4.673367E+003
  1.000000E+000  0.000000E+000  4.673367E+003
  0.000000E+000  1.000000E+000  4.673367E+003
  1.000000E+000  1.000000E+000  4.673367E+003
  0.000000E+000  0.000000E+000  4.723618E+003
  1.000000E+000  0.000000E+000  4.723618E+003
  0.000000E+000  1.000000E+000  4.723618E+003
  1.000000E+000  1.000000E+000  4.723618E+003
  0.000000E+000  0.000000E+000  4.773869E+003
  1.000000E+000  0.000000E+000  4.773869E+003
  0.000000E+000  1.000000E+000  4.773869E+003
  1.000000E+000  1.000000E+000  4.773869E+003
  0.000000E+000  0.000000E+000  4.824121E+003
  1.000000E+000  0.000000E+000  4.824121E+003
  0.000000E+000  1.000000E+000  4.824121E+003
  1.000000E+000  1.000000E+000  4.824121E+003
  0.000000E+000  0.000000E+000  4.874372E+003
  1.000000E+000  0.000000E+000  4.874372E+003
  0.000000E+000  1.000000E+000  4.874372E+003
  1.000000E+000  1.000000E+000  4.874372E+003
  0.000000E+000  0.000000E+000  4.924623E+003
  1.000000E+000  0.000000E+000  4.924623E+003
  0.000000E+000  1.000000E+000  4.924623E+003
  1.000000E+000  1.000000E+000  4.924623E+003
  0.000000E+000  0.000000E+000  4.974874E+003
  1.000000E+000  0.000000E+000  4.974874E+003
  0.000000E+000  1.000000E+000  4.974874E+003
  1.000000E+000  1.000000E+000  4.974874E+003
  0.000000E+000  0.000000E+000  5.025126E+003
  1.000000E+000  0.000000E+000  5.025126E+003
  0.000000E+000  1.000000E+000  5.025126E+003
  1.000000E+000  1.000000E+000  5.025126E+003
  0.000000E+000  0.000000E+000  5.075377E+003
  1.000000E+000  0.000000E+000  5.075377E+003
  0.000000E+000  1.000000E+000  5.075377E+003
  1.000000E+000  1.000000E+000  5.075377E+003
  0.000000E+000  0.000000E+000  5.125628E+003
  1.000000E+000  0.000000E+000  5.125628E+003
  0.000000E+000  1.000000E+000  5.125628E+003
  1.000000E+000  1.000000E+000  5.125628E+003
  0.000000E+000  0.000000E+000  5.175879E+003
  1.000000E+000  0.000000E+000  5.175879E+003
  0.000000E+000  1.000000E+000  5.175879E+003
  1.000000E+000  1.000000E+000  5.175879E+003
  0.000000E+000  0.000000E+000  5.226131E+003
  1.000000E+000  0.000000E+000  5.226131E+003
  0.000000E+000  1.000000E+000  5.226131E+003
  1.000000E+000  1.000000E+000  5.226131E+003
  0.000000E+000  0.000000E+000  5.276382E+003
  1.000000E+000  0.000000E+000  5.276382E+003
  0.000000E+000  1.000000E+000  5.276382E+003
  1.000000E+000  1.000000E+000  5.276382E+003
  0.000000E+000  0.000000E+000  5.326633E+003
  1.000000E+000  0.000000E+000  5.326633E+003
  0.000000E+000  1.000000E+000  5.326633E+003
  1.000000E+000  1.000000E+000  5.326633E+003
  0.000000E+000  0.000000E+000  5.376884E+003
  1.000000E+000  0.000000E+000  5.376884E+003
  0.000000E+000  1.000000E+000  5.376884E+003
  1.000000E+000  1.000000E+000  5.376884E+003
  0.000000E+000  0.000000E+000  5.427136E+003
  1.000000E+000  0.000000E+000  5.427136E+003
  0.000000E+000  1.000000E+000  5.427136E+003
  1.000000E+000  1.000000E+000  5.427136E+003
  0.000000E+000  0.000000E+000  5.477387E+003
  1.000000E+000  0.000000E+000  5.477387E+003
  0.000000E+000  1.000000E+000  5.477387E+003
  1.000000E+000  1.000000E+000  5.477387E+003
  0.000000E+000  0.000000E+000  5.527638E+003
  1.000000E+000  0.000000E+000  5.527638E+003
  0.000000E+000  1.000000E+000  5.527638E+003
  1.000000E+000  1.000000E+000  5.527638E+003
  0.000000E+000  0.000000E+000  5.577889E+003
  1.000000E+000  0.000000E+000  5.577889E+003
  0.000000E+000  1.000000E+000  5.577889E+003
  1.000000E+000  1.000000E+000  5.577889E+003
  0.000000E+000  0.000000E+000  5.628141E+003
  1.000000E+000  0.000000E+000  5.628141E+003
  0.000000E+000  1.000000E+000  5.628141E+003
  1.000000E+000  1.000000E+000  5.628141E+003
  0.000000E+000  0.000000E+000  5.678392E+003
  1.000000E+000  0.000000E+000  5.678392E+003
  0.000000E+000  1.000000E+000  5.678392E+003
  1.000000E+000  1.000000E+000  5.678392E+003
  0.000000E+000  0.000000E+000  5.728643E+003
  1.000000E+000  0.000000E+000  5.728643E+003
  0.000000E+000  1.000000E+000  5.728643E+003
  1.000000E+000  1.000000E+000  5.728643E+003
  0.000000E+000  0.000000E+000  5.778894E+003
  1.000000E+000  0.000000E+000  5.778894E+003
  0.000000E+000  1.000000E+000  5.778894E+003
  1.000000E+000  1.000000E+000  5.778894E+003
  0.000000E+000  0.000000E+000  5.829146E+003
  1.000000E+000  0.000000E+000  5.829146E+003
  0.000000E+000  1.000000E+000  5.829146E+003
  1.000000E+000  1.000000E+000  5.829146E+003
  0.000000E+000  0.000000E+000  5.879397E+003
  1.000000E+000  0.000000E+000  5.879397E+003
  0.000000E+000  1.000000E+000  5.879397E+003
  1.000000E+000  1.000000E+000  5.879397E+003
  0.000000E+000  0.000000E+000  5.929648E+003
  1.000000E+000  0.000000E+000  5.929648E+003
  0.000000E+000  1.000000E+000  5.929648E+003
  1.000000E+000  1.000000E+000  5.929648E+003
  0.000000E+000  0.000000E+000  5.979899E+003
  1.000000E+000  0.000000E+000  5.979899E+003
  0.000000E+000  1.000000E+000  5.979899E+003
  1.000000E+000  1.000000E+000  5.979899E+003
  0.000000E+000  0.000000E+000  6.030151E+003
  1.000000E+000  0.000000E+000  6.030151E+003
  0.000000E+000  1.000000E+000  6.030151E+003
  1.000000E+000  1.000000E+000  6.030151E+003
  0.000000E+000  0.000000E+000  6.080402E+003
  1.000000E+000  0.000000E+000  6.080402E+003
  0.000000E+000  1.000000E+000  6.080402E+003
  1.000000E+000  1.000000E+000  6.080402E+003
  0.000000E+000  0.000000E+000  6.130653E+003
  1.000000E+000  0.000000E+000  6.130653E+003
  0.000000E+000  1.000000E+000  6.130653E+003
  1.000000E+000  1.000000E+000  6.130653E+003
  0.000000E+000  0.000000E+000  6.180905E+003
  1.000000E+000  0.000000E+000  6.180905E+003
  0.000000E+000  1.000000E+000  6.180905E+003
  1.000000E+000  1.000000E+000  6.180905E+003
  0.000000E+000  0.000000E+000  6.231156E+003
  1.000000E+000  0.000000E+000  6.231156E+003
  0.000000E+000  1.000000E+000  6.231156E+003
  1.000000E+000  1.000000E+000  6.231156E+003
  0.000000E+000  0.000000E+000  6.281407E+003
  1.000000E+000  0.000000E+000  6.281407E+003
  0.000000E+000  1.000000E+000  6.281407E+003
  1.000000E+000  1.000000E+000  6.281407E+003
  0.000000E+000  0.000000E+000  6.331658E+003
  1.000000E+000  0.000000E+000  6.331658E+003
  0.000000E+000  1.000000E+000  6.331658E+003
  1.000000E+000  1.000000E+000  6.331658E+003
  0.000000E+000  0.000000E+000  6.381910E+003
  1.000000E+000  0.000000E+000  6.381910E+003
  0.000000E+000  1.000000E+000  6.381910E+003
  1.000000E+000  1.000000E+000  6.381910E+003
  0.000000E+000  0.000000E+000  6.432161E+003
  1.000000E+000  0.000000E+000  6.432161E+003
  0.000000E+000  1.000000E+000  6.432161E+003
  1.000000E+000  1.000000E+000  6.432161E+003
  0.000000E+000  0.000000E+000  6.482412E+003
  1.000000E+000  0.000000E+000  6.482412E+003
  0.000000E+000  1.000000E+000  6.482412E+003
  1.000000E+000  1.000000E+000  6.482412E+003
  0.000000E+000  0.000000E+000  6.532663E+003
  1.000000E+000  0.000000E+000  6.532663E+003
  0.000000E+000  1.000000E+000  6.532663E+003
  1.000000E+000  1.000000E+000  6.532663E+003
  0.000000E+000  0.000000E+000  6.582915E+003
  1.000000E+000  0.000000E+000  6.582915E+003
  0.000000E+000  1.000000E+000  6.582915E+003
  1.000000E+000  1.000000E+000  6.582915E+003
  0.000000E+000  0.000000E+000  6.633166E+003
  1.000000E+000  0.000000E+000  6.633166E+003
  0.000000E+000  1.000000E+000  6.633166E+003
  1.000000E+000  1.000000E+000  6.633166E+003
  0.000000E+000  0.000000E+000  6.683417E+003
  1.000000E+000  0.000000E+000  6.683417E+003
  0.000000E+000  1.000000E+000  6.683417E+003
  1.000000E+000  1.000000E+000  6.683417E+003
  0.000000E+000  0.000000E+000  6.733668E+003
  1.000000E+000  0.000000E+000  6.733668E+003
  0.000000E+000  1.000000E+000  6.733668E+003
  1.000000E+000  1.000000E+000  6.733668E+003
  0.000000E+000  0.000000E+000  6.783920E+003
  1.000000E+000  0.000000E+000  6.783920E+003
  0.000000E+000  1.000000E+000  6.783920E+003
  1.000000E+000  1.000000E+000  6.783920E+003
  0.000000E+000  0.000000E+000  6.834171E+003
  1.000000E+000  0.000000E+000  6.834171E+003
  0.000000E+000  1.000000E+000  6.834171E+003
  1.000000E+000  1.000000E+000  6.834171E+003
  0.000000E+000  0.000000E+000  6.884422E+003
  1.000000E+000  0.000000E+000  6.884422E+003
  0.000000E+000  1.000000E+000  6.884422E+003
  1.000000E+000  1.000000E+000  6.884422E+003
  0.000000E+000  0.000000E+000  6.934673E+003
  1.000000E+000  0.000000E+000  6.934673E+003
  0.000000E+000  1.000000E+000  6.934673E+003
  1.000000E+000  1.000000E+000  6.934673E+003
  0.000000E+000  0.000000E+000  6.984925E+003
  1.000000E+000  0.000000E+000  6.984925E+003
  0.000000E+000  1.000000E+000  6.984925E+003
  1.000000E+000  1.000000E+000  6.984925E+003
  0.000000E+000  0.000000E+000  7.035176E+003
  1.000000E+000  0.000000E+000  7.035176E+003
  0.000000E+000  1.000000E+000  7.035176E+003
  1.000000E+000  1.000000E+000  7.035176E+003
  0.000000E+000  0.000000E+000  7.085427E+003
  1.000000E+000  0.000000E+000  7.085427E+003
  0.000000E+000  1.000000E+000  7.085427E+003
  1.000000E+000  1.000000E+000  7.085427E+003
  0.000000E+000  0.000000E+000  7.135678E+003
  1.000000E+000  0.000000E+000  7.135678E+003
  0.000000E+000  1.000000E+000  7.135678E+003
  1.000000E+000  1.000000E+000  7.135678E+003
  0.000000E+000  0.000000E+000  7.185930E+003
  1.000000E+000  0.000000E+000  7.185930E+003
  0.000000E+000  1.000000E+000  7.185930E+003
  1.000000E+000  1.000000E+000  7.185930E+003
  0.000000E+000  0.000000E+000  7.236181E+003
  1.000000E+000  0.000000E+000  7.236181E+003
  0.000000E+000  1.000000E+000  7.236181E+003
  1.000000E+000  1.000000E+000  7.236181E+003
  0.000000E+000  0.000000E+000  7.286432E+003
  1.000000E+000  0.000000E+000  7.286432E+003
  0.000000E+000  1.000000E+000  7.286432E+003
  1.000000E+000  1.000000E+000  7.286432E+003
  0.000000E+000  0.000000E+000  7.336683E+003
  1.000000E+000  0.000000E+000  7.336683E+003
  0.000000E+000  1.000000E+000  7.336683E+003
  1.000000E+000  1.000000E+000  7.336683E+003
  0.000000E+000  0.000000E+000  7.386935E+003
  1.000000E+000  0.000000E+000  7.386935E+003
  0.000000E+000  1.000000E+000  7.386935E+003
  1.000000E+000  1.000000E+000  7.386935E+003
  0.000000E+000  0.000000E+000  7.437186E+003
  1.000000E+000  0.000000E+000  7.437186E+003
  0.000000E+000  1.000000E+000  7.437186E+003
  1.000000E+000  1.000000E+000  7.437186E+003
  0.000000E+000  0.000000E+000  7.487437E+003
  1.000000E+000  0.000000E+000  7.487437E+003
  0.000000E+000  1.000000E+000  7.487437E+003
  1.000000E+000  1.000000E+000  7.487437E+003
  0.000000E+000  0.000000E+000  7.537688E+003
  1.000000E+000  0.000000E+000  7.537688E+003
  0.000000E+000  1.000000E+000  7.537688E+003
  1.000000E+000  1.000000E+000  7.537688E+003
  0.000000E+000  0.000000E+000  7.587940E+003
  1.000000E+000  0.000000E+000  7.587940E+003
  0.000000E+000  1.000000E+000  7.587940E+003
  1.000000E+000  1.000000E+000  7.587940E+003
  0.000000E+000  0.000000E+000  7.638191E+003
  1.000000E+000  0.000000E+000  7.638191E+003
  0.000000E+000  1.000000E+000  7.638191E+003
  1.000000E+000  1.000000E+000  7.638191E+003
  0.000000E+000  0.000000E+000  7.688442E+003
  1.000000E+000  0.000000E+000  7.688442E+003
  0.000000E+000  1.000000E+000  7.688442E+003
  1.000000E+000  1.000000E+000  7.688442E+003
  0.000000E+000  0.000000E+000  7.738693E+003
  1.000000E+000  0.000000E+000  7.738693E+003
  0.000000E+000  1.000000E+000  7.738693E+003
  1.000000E+000  1.000000E+000  7.738693E+003
  0.000000E+000  0.000000E+000  7.788945E+003
  1.000000E+000  0.000000E+000  7.788945E+003
  0.000000E+000  1.000000E+000  7.788945E+003
  1.000000E+000  1.000000E+000  7.788945E+003
  0.000000E+000  0.000000E+000  7.839196E+003
  1.000000E+000  0.000000E+000  7.839196E+003
  0.000000E+000  1.000000E+000  7.839196E+003
  1.000000E+000  1.000000E+000  7.839196E+003
  0.000000E+000  0.000000E+000  7.889447E+003
  1.000000E+000  0.000000E+000  7.889447E+003
  0.000000E+000  1.000000E+000  7.889447E+003
  1.000000E+000  1.000000E+000  7.889447E+003
  0.000000E+000  0.000000E+000  7.939698E+003
  1.000000E+000  0.000000E+000  7.939698E+003
  0.000000E+000  1.000000E+000  7.939698E+003
  1.000000E+000  1.000000E+000  7.939698E+003
  0.000000E+000  0.000000E+000  7.989950E+003
  1.000000E+000  0.000000E+000  7.989950E+003
  0.000000E+000  1.000000E+000  7.989950E+003
  1.000000E+000  1.000000E+000  7.989950E+003
  0.000000E+000  0.000000E+000  8.040201E+003
  1.000000E+000  0.000000E+000  8.040201E+003
  0.000000E+000  1.000000E+000  8.040201E+003
  1.000000E+000  1.000000E+000  8.040201E+003
  0.000000E+000  0.000000E+000  8.090452E+003
  1.000000E+000  0.000000E+000  8.090452E+003
  0.000000E+000  1.000000E+000  8.090452E+003
  1.000000E+000  1.000000E+000  8.090452E+003
  0.000000E+000  0.000000E+000  8.140704E+003
  1.000000E+000  0.000000E+000  8.140704E+003
  0.000000E+000  1.000000E+000  8.140704E+003
  1.000000E+000  1.000000E+000  8.140704E+003
  0.000000E+000  0.000000E+000  8.190955E+003
  1.000000E+000  0.000000E+000  8.190955E+003
  0.000000E+000  1.000000E+000  8.190955E+003
  1.000000E+000  1.000000E+000  8.190955E+003
  0.000000E+000  0.000000E+000  8.241206E+003
  1.000000E+000  0.000000E+000  8.241206E+003
  0.000000E+000  1.000000E+000  8.241206E+003
  1.000000E+000  1.000000E+000  8.241206E+003
  0.000000E+000  0.000000E+000  8.291457E+003
  1.000000E+000  0.000000E+000  8.291457E+003
  0.000000E+000  1.000000E+000  8.291457E+003
  1.000000E+000  1.000000E+000  8.291457E+003
  0.000000E+000  0.000000E+000  8.341709E+003
  1.000000E+000  0.000000E+000  8.341709E+003
  0.000000E+000  1.000000E+000  8.341709E+003
  1.000000E+000  1.000000E+000  8.341709E+003
  0.000000E+000  0.000000E+000  8.391960E+003
  1.000000E+000  0.000000E+000  8.391960E+003
  0.000000E+000  1.000000E+000  8.391960E+003
  1.000000E+000  1.000000E+000  8.391960E+003
  0.000000E+000  0.000000E+000  8.442211E+003
  1.000000E+000  0.000000E+000  8.442211E+003
  0.000000E+000  1.000000E+000  8.442211E+003
  1.000000E+000  1.000000E+000  8.442211E+003
  0.000000E+000  0.000000E+000  8.492462E+003
  1.000000E+000  0.000000E+000  8.492462E+003
  0.000000E+000  1.000000E+000  8.492462E+003
  1.000000E+000  1.000000E+000  8.492462E+003
  0.000000E+000  0.000000E+000  8.542714E+003
  1.000000E+000  0.000000E+000  8.542714E+003
  0.000000E+000  1.000000E+000  8.542714E+003
  1.000000E+000  1.000000E+000  8.542714E+003
  0.000000E+000  0.000000E+000  8.592965E+003
  1.000000E+000  0.000000E+000  8.592965E+003
  0.000000E+000  1.000000E+000  8.592965E+003
  1.000000E+000  1.000000E+000  8.592965E+003
  0.000000E+000  0.000000E+000  8.643216E+003
  1.000000E+000  0.000000E+000  8.643216E+003
  0.000000E+000  1.000000E+000  8.643216E+003
  1.000000E+000  1.000000E+000  8.643216E+003
  0.000000E+000  0.000000E+000  8.693467E+003
  1.000000E+000  0.000000E+000  8.693467E+003
  0.000000E+000  1.000000E+000  8.693467E+003
  1.000000E+000  1.000000E+000  8.693467E+003
  0.000000E+000  0.000000E+000  8.743719E+003
  1.000000E+000  0.000000E+000  8.743719E+003
  0.000000E+000  1.000000E+000  8.743719E+003
  1.000000E+000  1.000000E+000  8.743719E+003
  0.000000E+000  0.000000E+000  8.793970E+003
  1.000000E+000  0.000000E+000  8.793970E+003
  0.000000E+000  1.000000E+000  8.793970E+003
  1.000000E+000  1.000000E+000  8.793970E+003
  0.000000E+000  0.000000E+000  8.844221E+003
  1.000000E+000  0.000000E+000  8.844221E+003
  0.000000E+000  1.000000E+000  8.844221E+003
  1.000000E+000  1.000000E+000  8.844221E+003
  0.000000E+000  0.000000E+000  8.894472E+003
  1.000000E+000  0.000000E+000  8.894472E+003
  0.000000E+000  1.000000E+000  8.894472E+003
  1.000000E+000  1.000000E+000  8.894472E+003
  0.000000E+000  0.000000E+000  8.944724E+003
  1.000000E+000  0.000000E+000  8.944724E+003
  0.000000E+000  1.000000E+000  8.944724E+003
  1.000000E+000  1.000000E+000  8.944724E+003
  0.000000E+000  0.000000E+000  8.994975E+003
  1.000000E+000  0.000000E+000  8.994975E+003
  0.000000E+000  1.000000E+000  8.994975E+003
  1.000000E+000  1.000000E+000  8.994975E+003
  0.000000E+000  0.000000E+000  9.045226E+003
  1.000000E+000  0.000000E+000  9.045226E+003
  0.000000E+000  1.000000E+000  9.045226E+003
  1.000000E+000  1.000000E+000  9.045226E+003
  0.000000E+000  0.000000E+000  9.095477E+003
  1.000000E+000  0.000000E+000  9.095477E+003
  0.000000E+000  1.000000E+000  9.095477E+003
  1.000000E+000  1.000000E+000  9.095477E+003
  0.000000E+000  0.000000E+000  9.145729E+003
  1.000000E+000  0.000000E+000  9.145729E+003
  0.000000E+000  1.000000E+000  9.145729E+003
  1.000000E+000  1.000000E+000  9.145729E+003
  0.000000E+000  0.000000E+000  9.195980E+003
  1.000000E+000  0.000000E+000  9.195980E+003
  0.000000E+000  1.000000E+000  9.195980E+003
  1.000000E+000  1.000000E+000  9.195980E+003
  0.000000E+000  0.000000E+000  9.246231E+003
  1.000000E+000  0.000000E+000  9.246231E+003
  0.000000E+000  1.000000E+000  9.246231E+003
  1.000000E+000  1.000000E+000  9.246231E+003
  0.000000E+000  0.000000E+000  9.296482E+003
  1.000000E+000  0.000000E+000  9.296482E+003
  0.000000E+000  1.000000E+000  9.296482E+003
  1.000000E+000  1.000000E+000  9.296482E+003
  0.000000E+000  0.000000E+000  9.346734E+003
  1.000000E+000  0.000000E+000  9.346734E+003
  0.000000E+000  1.000000E+000  9.346734E+003
  1.000000E+000  1.000000E+000  9.346734E+003
  0.000000E+000  0.000000E+000  9.396985E+003
  1.000000E+000  0.000000E+000  9.396985E+003
  0.000000E+000  1.000000E+000  9.396985E+003
  1.000000E+000  1.000000E+000  9.396985E+003
  0.000000E+000  0.000000E+000  9.447236E+003
  1.000000E+000  0.000000E+000  9.447236E+003
  0.000000E+000  1.000000E+000  9.447236E+003
  1.000000E+000  1.000000E+000  9.447236E+003
  0.000000E+000  0.000000E+000  9.497487E+003
  1.000000E+000  0.000000E+000  9.497487E+003
  0.000000E+000  1.000000E+000  9.497487E+003
  1.000000E+000  1.000000E+000  9.497487E+003
  0.000000E+000  0.000000E+000  9.547739E+003
  1.000000E+000  0.000000E+000  9.547739E+003
  0.000000E+000  1.000000E+000  9.547739E+003
  1.000000E+000  1.000000E+000  9.547739E+003
  0.000000E+000  0.000000E+000  9.597990E+003
  1.000000E+000  0.000000E+000  9.597990E+003
  0.000000E+000  1.000000E+000  9.597990E+003
  1.000000E+000  1.000000E+000  9.597990E+003
  0.000000E+000  0.000000E+000  9.648241E+003
  1.000000E+000  0.000000E+000  9.648241E+003
  0.000000E+000  1.000000E+000  9.648241E+003
  1.000000E+000  1.000000E+000  9.648241E+003
  0.000000E+000  0.000000E+000  9.698492E+003
  1.000000E+000  0.000000E+000  9.698492E+003
  0.000000E+000  1.000000E+000  9.698492E+003
  1.000000E+000  1.000000E+000  9.698492E+003
  0.000000E+000  0.000000E+000  9.748744E+003
  1.000000E+000  0.000000E+000  9.748744E+003
  0.000000E+000  1.000000E+000  9.748744E+003
  1.000000E+000  1.000000E+000  9.748744E+003
  0.000000E+000  0.000000E+000  9.798995E+003
  1.000000E+000  0.000000E+000  9.798995E+003
  0.000000E+000  1.000000E+000  9.798995E+003
  1.000000E+000  1.000000E+000  9.798995E+003
  0.000000E+000  0.000000E+000  9.849246E+003
  1.000000E+000  0.000000E+000  9.849246E+003
  0.000000E+000  1.000000E+000  9.849246E+003
  1.000000E+000  1.000000E+000  9.849246E+003
  0.000000E+000  0.000000E+000  9.899497E+003
  1.000000E+000  0.000000E+000  9.899497E+003
  0.000000E+000  1.000000E+000  9.899497E+003
  1.000000E+000  1.000000E+000  9.899497E+003
  0.000000E+000  0.000000E+000  9.949749E+003
  1.000000E+000  0.000000E+000  9.949749E+003
  0.000000E+000  1.000000E+000  9.949749E+003
  1.000000E+000  1.000000E+000  9.949749E+003
  0.000000E+000  0.000000E+000  1.000000E+004
  1.000000E+000  0.000000E+000  1.000000E+004
  0.000000E+000  1.000000E+000  1.000000E+004
  1.000000E+000  1.000000E+000  1.000000E+004
CELLS          199         1791
  8 0  1  3  2  4  5  7  6 
  8 4  5  7  6  8  9  11  10 
  8 8  9  11  10  12  13  15  14 
  8 12  13  15  14  16  17  19  18 
  8 16  17  19  18  20  21  23  22 
  8 20  21  23  22  24  25  27  26 
  8 24  25  27  26  28  29  31  30 
  8 28  29  31  30  32  33  35  34 
  8 32  33  35  34  36  37  39  38 
  8 36  37  39  38  40  41  43  42 
  8 40  41  43  42  44  45  47  46 
  8 44  45  47  46  48  49  51  50 
  8 48  49  51  50  52  53  55  54 
  8 52  53  55  54  56  57  59  58 
  8 56  57  59  58  60  61  63  62 
  8 60  61  63  62  64  65  67  66 
  8 64  65  67  66  68  69  71  70 
  8 68  69  71  70  72  73  75  74 
  8 72  73  75  74  76  77  79  78 
  8 76  77  79  78  80  81  83  82 
  8 80  81  83  82  84  85  87  86 
  8 84  85  87  86  88  89  91  90 
  8 88  89  91  90  92  93  95  94 
  8 92  93  95  94  96  97  99  98 
  8 96  97  99  98  100  101  103  102 
  8 100  101  103  102  104  105  107  106 
  8 104  105  107  106  108  109  111  110 
  8 108  109  111  110  112  113  115  114 
  8 112  113  115  114  116  117  119  118 
  8 116  117  119  118  120  121  123  122 
  8 120  121  123  122  124  125  127  126 
  8 124  125  127  126  128  129  131  130 
  8 128  129  131  130  132  133  135  134 
  8 132  133  135  134  136  137  139  138 
  8 136  137  139  138  140  141  143  142 
  8 140  141  143  142  144  145  147  146 
  8 144  145  147  146  148  149  151  150 
  8 148  149  151  150  152  153  155  154 
  8 152  153  155  154  156  157  159  158 
  8 156  157  159  158  160  161  163  162 
  8 160  161  163  162  164  165  167  166 
  8 164  165  167  166  168  169  171  170 
  8 168  169  171  170  172  173  175  174 
  8 172  173  175  174  176  177  179  178 
  8 176  177  179  178  180  181  183  182 
  8 180  181  183  182  184  185  187  186 
  8 184  185  187  186  188  189  191  190 
  8 188  189  191  190  192  193  195  194 
  8 192  193  195  194  196  197  199  198 
  8 196  197  199  198  200  201  203  202 
  8 200  201  203  202  204  205  207  206 
  8 204  205  207  206  208  209  211  210 
  8 208  209  211  210  212  213  215  214 
  8 212  213  215  214  216  217  219  218 
  8 216  217  219  218  220  221  223  222 
  8 220  221  223  222  224  225  227  226 
  8 224  225  227  226  228  229  231  230 
  8 228  229  231  230  232  233  235  234 
  8 232  233  235  234  236  237  239  238 
  8 236  237  239  238  240  241  243  242 
  8 240  241  243  242  244  245  247  246 
  8 244  245  247  246  248  249  251  250 
  8 248  249  251  250  252  253  255  254 
  8 252  253  255  254  256  257  259  258 
  8 256  257  259  258  260  261  263  262 
  8 260  261  263  262  264  265  267  266 
  8 264  265  267  266  268  269  271  270 
  8 268  269  271  270  272  273  275  274 
  8 272  273  275  274  276  277  279  278 
  8 276  277  279  278  280  281  283  282 
  8 280  281  283  282  284  285  287  286 
  8 284  285  287  286  288  289  291  290 
  8 288  289  291  290  292  293  295  294 
  8 292  293  295  294  296  297  299  298 
  8 296  297  299  298  300  301  303  302 
  8 300  301  303  302  304  305  307  306 
  8 304  305  307  306  308  309  311  310 
  8 308  309  311  310  312  313  315  314 
  8 312  313  315  314  316  317  319  318 
  8 316  317  319  318  320  321  323  322 
  8 320  321  323  322  324  325  327  326 
  8 324  325  327  326  328  329  331  330 
  8 328  329  331  330  332  333  335  334 
  8 332  333  335  334  336  337  339  338 
  8 336  337  339  338  340  341  343  342 
  8 340  341  343  342  344  345  347  346 
  8 344  345  347  346  348  349  351  350 
  8 348  349  351  350  352  353  355  354 
  8 352  353  355  354  356  357  359  358 
  8 356  357  359  358  360  361  363  362 
  8 360  361  363  362  364  365  367  366 
  8 364  365  367  366  368  369  371  370 
  8 368  369  371  370  372  373  375  374 
  8 372  373  375  374  376  377  379  378 
  8 376  377  379  378  380  381  383  382 
  8 380  381  383  382  384  385  387  386 
  8 384  385  387  386  388  389  391  390 
  8 388  389  391  390  392  393  395  394 
  8 392  393  395  394  396  397  399  398 
  8 396  397  399  398  400  401  403  402 
  8 400  401  403  402  404  405  407  406 
  8 404  405  407  406  408  409  411  410 
  8 408  409  411  410  412  413  415  414 
  8 412  413  415  414  416  417  419  418 
  8 416  417  419  418  420  421  423  422 
  8 420  421  423  422  424  425  427  426 
  8 424  425  427  426  428  429  431  430 
  8 428  429  431  430  432  433  435  434 
  8 432  433  435  434  436  437  439  438 
  8 436  437  439  438  440  441  443  442 
  8 440  441  443  442  444  445  447  446 
  8 444  445  447  446  448  449  451  450 
  8 448  449  451  450  452  453  455  454 
  8 452  453  455  454  456  457  459  458 
  8 456  457  459  458  460  461  463  462 
  8 460  461  463  462  464  465  467  466 
  8 464  465  467  466  468  469  471  470 
  8 468  469  471  470  472  473  475  474 
  8 472  473  475  474  476  477  479  478 
  8 476  477  479  478  480  481  483  482 
  8 480  481  483  482  484  485  487  486 
  8 484  485  487  486  488  489  491  490 
  8 488  489  491  490  492  493  495  494 
  8 492  493  495  494  496  497  499  498 
  8 496  497  499  498  500  501  503  502 
  8 500  501  503  502  504  505  507  506 
  8 504  505  507  506  508  509  511  510 
  8 508  509  511  510  512  513  515  514 
  8 512  513  515  514  516  517  519  518 
  8 516  517  519  518  520  521  523  522 
  8 520  521  523  522  524  525  527  526 
  8 524  525  527  526  528  529  531  530 
  8 528  529  531  530  532  533  535  534 
  8 532  533  535  534  536  537  539  538 
  8 536  537  539  538  540  541  543  542 
  8 540  541  543  542  544  545  547  546 
  8 544  545  547  546  548  549  551  550 
  8 548  549  551  550  552  553  555  554 
  8 552  553  555  554  556  557  559  558 
  8 556  557  559  558  560  561  563  562 
  8 560  561  563  562  564  565  567  566 
  8 564  565  567  566  568  569  571  570 
  8 568  569  571  570  572  573  575  574 
  8 572  573  575  574  576  577  579  578 
  8 576  577  579  578  580  581  583  582 
  8 580  581  583  582  584  585  587  586 
  8 584  585  587  586  588  589  591  590 
  8 588  589  591  590  592  593  595  594 
  8 592  593  595  594  596  597  599  598 
  8 596  597  599  598  600  601  603  602 
  8 600  601  603  602  604  605  607  606 
  8 604  605  607  606  608  609  611  610 
  8 608  609  611  610  612  613  615  614 
  8 612  613  615  614  616  617  619  618 
  8 616  617  619  618  620  621  623  622 
  8 620  621  623  622  624  625  627  626 
  8 624  625  627  626  628  629  631  630 
  8 628  629  631  630  632  633  635  634 
  8 632  633  635  634  636  637  639  638 
  8 636  637  639  638  640  641  643  642 
  8 640  641  643  642  644  645  647  646 
  8 644  645  647  646  648  649  651  650 
  8 648  649  651  650  652  653  655  654 
  8 652  653  655  654  656  657  659  658 
  8 656  657  659  658  660  661  663  662 
  8 660  661  663  662  664  665  667  666 
  8 664  665  667  666  668  669  671  670 
  8 668  669  671  670  672  673  675  674 
  8 672  673  675  674  676  677  679  678 
  8 676  677  679  678  680  681  683  682 
  8 680  681  683  682  684  685  687  686 
  8 684  685  687  686  688  689  691  690 
  8 688  689  691  690  692  693  695  694 
  8 692  693  695  694  696  697  699  698 
  8 696  697  699  698  700  701  703  702 
  8 700  701  703  702  704  705  707  706 
  8 704  705  707  706  708  709  711  710 
  8 708  709  711  710  712  713  715  714 
  8 712  713  715  714  716  717  719  718 
  8 716  717  719  718  720  721  723  722 
  8 720  721  723  722  724  725  727  726 
  8 724  725  727  726  728  729  731  730 
  8 728  729  731  730  732  733  735  734 
  8 732  733  735  734  736  737  739  738 
  8 736  737  739  738  740  741  743  742 
  8 740  741  743  742  744  745  747  746 
  8 744  745  747  746  748  749  751  750 
  8 748  749  751  750  752  753  755  754 
  8 752  753  755  754  756  757  759  758 
  8 756  757  759  758  760  761  763  762 
  8 760  761  763  762  764  765  767  766 
  8 764  765  767  766  768  769  771  770 
  8 768  769  771  770  772  773  775  774 
  8 772  773  775  774  776  777  779  778 
  8 776  777  779  778  780  781  783  782 
  8 780  781  783  782  784  785  787  786 
  8 784  785  787  786  788  789  791  790 
  8 788  789  791  790  792  793  795  794 
  8 792  793  795  794  796  797  799  798 
CELL_TYPES          199
12
12
12
12
12
12
12
12
12
12
12
12
12
12
12
12
12
12
12
12
12
12
12
12
12
12
12
12
12
12
12
12
12
12
12
12
12
12
12
12
12
12
12
12
12
12
12
12
12
12
12
12
12
12
12
12
12
12
12
12
12
12
12
12
12
12
12
12
12
12
12
12
12
12
12
12
12
12
12
12
12
12
12
12
12
12
12
12
12
12
12
12
12
12
12
12
12
12
12
12
12
12
12
12
12
12
12
12
12
12
12
12
12
12
12
12
12
12
12
12
12
12
12
12
12
12
12
12
12
12
12
12
12
12
12
12
12
12
12
12
12
12
12
12
12
12
12
12
12
12
12
12
12
12
12
12
12
12
12
12
12
12
12
12
12
12
12
12
12
12
12
12
12
12
12
12
12
12
12
12
12
12
12
12
12
12
12
12
12
12
12
12
12
12
12
12
12
12
12

POINT_DATA 800
SCALARS node_matids int 1
LOOKUP_TABLE default
1
1
1
1
2
2
2
2
3
3
3
3
4
4
4
4
5
5
5
5
6
6
6
6
7
7
7
7
8
8
8
8
9
9
9
9
10
10
10
10
11
11
11
11
12
12
12
12
13
13
13
13
14
14
14
14
15
15
15
15
16
16
16
16
17
17
17
17
18
18
18
18
19
19
19
19
20
20
20
20
21
21
21
21
22
22
22
22
23
23
23
23
24
24
24
24
25
25
25
25
26
26
26
26
27
27
27
27
28
28
28
28
29
29
29
29
30
30
30
30
31
31
31
31
32
32
32
32
33
33
33
33
34
34
34
34
35
35
35
35
36
36
36
36
37
37
37
37
38
38
38
38
39
39
39
39
40
40
40
40
41
41
41
41
42
42
42
42
43
43
43
43
44
44
44
44
45
45
45
45
46
46
46
46
47
47
47
47
48
48
48
48
49
49
49
49
50
50
50
50
51
51
51
51
52
52
52
52
53
53
53
53
54
54
54
54
55
55
55
55
56
56
56
56
57
57
57
57
58
58
58
58
59
59
59
59
60
60
60
60
61
61
61
61
62
62
62
62
63
63
63
63
64
64
64
64
65
65
65
65
66
66
66
66
67
67
67
67
68
68
68
68
69
69
69
69
70
70
70
70
71
71
71
71
72
72
72
72
73
73
73
73
74
74
74
74
75
75
75
75
76
76
76
76
77
77
77
77
78
78
78
78
79
79
79
79
80
80
80
80
81
81
81
81
82
82
82
82
83
83
83
83
84
84
84
84
85
85
85
85
86
86
86
86
87
87
87
87
88
88
88
88
89
89
89
89
90
90
90
90
91
91
91
91
92
92
92
92
93
93
93
93
94
94
94
94
95
95
95
95
96
96
96
96
97
97
97
97
98
98
98
98
99
99
99
99
100
100
100
100
101
101
101
101
102
102
102
102
103
103
103
103
104
104
104
104
105
105
105
105
106
106
106
106
107
107
107
107
108
108
108
108
109
109
109
109
110
110
110
110
111
111
111
111
112
112
112
112
113
113
113
113
114
114
114
114
115
115
115
115
116
116
116
116
117
117
117
117
118
118
118
118
119
119
119
119
120
120
120
120
121
121
121
121
122
122
122
122
123
123
123
123
124
124
124
124
125
125
125
125
126
126
126
126
127
127
127
127
128
128
128
128
129
129
129
129
130
130
130
130
131
131
131
131
132
132
132
132
133
133
133
133
134
134
134
134
135
135
135
135
136
136
136
136
137
137
137
137
138
138
138
138
139
139
139
139
140
140
140
140
141
141
141
141
142
142
142
142
143
143
143
143
144
144
144
144
145
145
145
145
146
146
146
146
147
147
147
147
148
148
148
148
149
149
149
149
150
150
150
150
151
151
151
151
152
152
152
152
153
153
153
153
154
154
154
154
155
155
155
155
156
156
156
156
157
157
157
157
158
158
158
158
159
159
159
159
160
160
160
160
161
161
161
161
162
162
162
162
163
163
163
163
164
164
164
164
165
165
165
165
166
166
166
166
167
167
167
167
168
168
168
168
169
169
169
169
170
170
170
170
171
171
171
171
172
172
172
172
173
173
173
173
174
174
174
174
175
175
175
175
176
176
176
176
177
177
177
177
178
178
178
178
179
179
179
179
180
180
180
180
181
181
181
181
182
182
182
182
183
183
183
183
184
184
184
184
185
185
185
185
186
186
186
186
187
187
187
187
188
188
188
188
189
189
189
189
190
190
190
190
191
191
191
191
192
192
192
192
193
193
193
193
194
194
194
194
195
195
195
195
196
196
196
196
197
197
197
197
198
198
198
198
199
199
199
199
200
200
200
200

CELL_DATA 199
SCALARS cell_matids int 1
LOOKUP_TABLE default
1
2
3
4
5
6
7
8
9
10
11
12
13
14
15
16
17
18
19
20
21
22
23
24
25
26
27
28
29
30
31
32
33
34
35
36
37
38
39
40
41
42
43
44
45
46
47
48
49
50
51
52
53
54
55
56
57
58
59
60
61
62
63
64
65
66
67
68
69
70
71
72
73
74
75
76
77
78
79
80
81
82
83
84
85
86
87
88
89
90
91
92
93
94
95
96
97
98
99
100
101
102
103
104
105
106
107
108
109
110
111
112
113
114
115
116
117
118
119
120
121
122
123
124
125
126
127
128
129
130
131
132
133
134
135
136
137
138
139
140
141
142
143
144
145
146
147
148
149
150
151
152
153
154
155
156
157
158
159
160
161
162
163
164
165
166
167
168
169
170
171
172
173
174
175
176
177
178
179
180
181
182
183
184
185
186
187
188
189
190
191
192
193
194
195
196
197
198
199