# vtk DataFile Version 2.0
CGAL constrained delaunay mesh generation 2d
ASCII
DATASET UNSTRUCTURED_GRID
POINTS 1688 double
0 0 0
0.02 0 0
0.04 0 0
0.06 0 0
0.08 0 0
0.1 0 0
0.12 0 0
0.14 0 0
0.16 0 0
0.18 0 0
0.2 0 0
0.22 0 0
0.24 0 0
0.26 0 0
0.28 0 0
0.3 0 0
0.32 0 0
0.34 0 0
0.36 0 0
0.38 0 0
0.4 0 0
0.42 0 0
0.44 0 0
0.46 0 0
0.48 0 0
0.5 0 0
0.52 0 0
0.54 0 0
0.56 0 0
0.58 0 0
0.6 0 0
0.62 0 0
0.64 0 0
0.66 0 0
0.68 0 0
0.7 0 0
0.72 0 0
0.74 0 0
0.76 0 0
0.78 0 0
0.8 0 0
0.82 0 0
0.84 0 0
0.86 0 0
0.88 0 0
0.9 0 0
0.92 0 0
0.94 0 0
0.96 0 0
0.98 0 0
1 0 0
1 0 0.02
1 0 0.04
1 0 0.06
1 0 0.08
1 0 0.1
1 0 0.12
1 0 0.14
1 0 0.16
1 0 0.18
1 0 0.2
1 0 0.22
1 0 0.24
1 0 0.26
1 0 0.28
1 0 0.3
1 0 0.32
1 0 0.34
1 0 0.36
1 0 0.38
1 0 0.4
1 0 0.42
1 0 0.44
1 0 0.46
1 0 0.48
1 0 0.5
1 0 0.52
1 0 0.54
1 0 0.56
1 0 0.58
1 0 0.6
1 0 0.62
1 0 0.64
1 0 0.66
1 0 0.68
1 0 0.7
1 0 0.72
1 0 0.74
1 0 0.76
1 0 0.78
1 0 0.8
1 0 0.82
1 0 0.84
1 0 0.86
1 0 0.88
1 0 0.9
1 0 0.92
1 0 0.94
1 0 0.96
1 0 0.98
1 0 1
0.98 0 1
0.96 0 1
0.94 0 1
0.92 0 1
0.9 0 1
0.88 0 1
0.86 0 1
0.84 0 1
0.82 0 1
0.8 0 1
0.78 0 1
0.76 0 1
0.74 0 1
0.72 0 1
0.7 0 1
0.68 0 1
0.66 0 1
0.64 0 1
0.62 0 1
0.6 0 1
0.58 0 1
0.56 0 1
0.54 0 1
0.52 0 1
0.5 0 1
0.48 0 1
0.46 0 1
0.44 0 1
0.42 0 1
0.4 0 1
0.38 0 1
0.36 0 1
0.34 0 1
0.32 0 1
0.3 0 1
0.28 0 1
0.26 0 1
0.24 0 1
0.22 0 1
0.2 0 1
0.18 0 1
0.16 0 1
0.14 0 1
0.12 0 1
0.1 0 1
0.08 0 1
0.06 0 1
0.04 0 1
0.02 0 1
0 0 1
0 0 0.98
0 0 0.96
0 0 0.94
0 0 0.92
0 0 0.9
0 0 0.88
0 0 0.86
0 0 0.84
0 0 0.82
0 0 0.8
0 0 0.78
0 0 0.76
0 0 0.74
0 0 0.72
0 0 0.7
0 0 0.68
0 0 0.66
0 0 0.64
0 0 0.62
0 0 0.6
0 0 0.58
0 0 0.56
0 0 0.54
0 0 0.52
0 0 0.5
0 0 0.48
0 0 0.46
0 0 0.44
0 0 0.42
0 0 0.4
0 0 0.38
0 0 0.36
0 0 0.34
0 0 0.32
0 0 0.3
0 0 0.28
0 0 0.26
0 0 0.24
0 0 0.22
0 0 0.2
0 0 0.18
0 0 0.16
0 0 0.14
0 0 0.12
0 0 0.1
0 0 0.08
0 0 0.06
0 0 0.04
0 0 0.02
0.502301 0 0.500292
0.30777 0 0.287377
0.308309 0 0.710771
0.690864 0 0.288309
0.715461 0 0.686852
0.229009 0 0.499535
0.512925 0 0.786166
0.703556 0 0.492406
0.498753 0 0.207013
0.17507 0 0.175182
0.17709 0 0.823598
0.826754 0 0.824182
0.825958 0 0.171988
0.830613 0 0.370435
0.161706 0 0.351366
0.164332 0 0.649841
0.661982 0 0.840044
0.840481 0 0.570708
0.378164 0 0.843881
0.550074 0 0.348723
0.649386 0 0.146003
0.347104 0 0.144013
0.607202 0 0.595921
0.447426 0 0.647897
0.408227 0 0.386324
0.36369 0 0.535219
0.869647 0 0.701433
0.114404 0 0.526595
0.29823 0 0.405759
0.268188 0 0.607307
0.560757 0 0.890119
0.619336 0 0.738468
0.419512 0 0.746955
0.529133 0 0.103022
0.27367 0 0.883708
0.588944 0 0.258541
0.400044 0 0.230225
0.655614 0 0.392572
0.737596 0 0.586152
0.600199 0 0.478184
0.808636 0 0.467753
0.886127 0 0.268267
0.790098 0 0.283139
0.904019 0 0.438109
0.536963 0 0.686594
0.251548 0 0.103
0.747381 0 0.100929
0.107664 0 0.755137
0.104768 0 0.24812
0.102404 0 0.102241
0.11002 0 0.89945
0.899217 0 0.890378
0.89385 0 0.100015
0.473008 0 0.29721
0.76947 0 0.905218
0.102385 0 0.429274
0.443569 0 0.134249
0.462385 0 0.900476
0.36208 0 0.6239
0.742273 0 0.363316
0.908983 0 0.782817
0.211871 0 0.734334
0.269597 0 0.196306
0.217016 0 0.276585
0.731985 0 0.199833
0.274102 0 0.799484
0.787385 0 0.741039
0.792077 0 0.651274
0.913984 0 0.351561
0.0850554 0 0.611432
0.91464 0 0.19065
0.913743 0 0.530272
0.9106 0 0.619248
0.521653 0 0.601378
0.209294 0 0.414822
0.0868596 0 0.334078
0.191397 0 0.90851
0.198052 0 0.573612
0.57272 0 0.174127
0.743529 0 0.826836
0.650043 0 0.922216
0.34438 0 0.919401
0.587205 0 0.814838
0.531919 0 0.430213
0.438205 0 0.557989
0.6078 0 0.0825172
0.357638 0 0.447681
0.68976 0 0.763483
0.396222 0 0.31657
0.450455 0 0.813488
0.0829784 0 0.828281
0.387317 0 0.079318
0.435852 0 0.460679
0.34833 0 0.776733
0.254354 0 0.341836
0.638814 0 0.670673
0.823874 0 0.0979969
0.100213 0 0.176606
0.177791 0 0.075386
0.629083 0 0.321724
0.159532 0 0.471777
0.657993 0 0.217138
0.476566 0 0.372123
0.562305 0 0.539796
0.649246 0 0.53179
0.683961 0 0.0804563
0.0946128 0 0.680545
0.314906 0 0.0812129
0.295446 0 0.492088
0.231052 0 0.666284
0.347004 0 0.359791
0.338042 0 0.21287
0.47143 0 0.710815
0.377175 0 0.68686
0.756579 0 0.520062
0.468665 0 0.0682042
0.932679 0 0.708175
0.505958 0 0.843897
0.714747 0 0.425535
0.837895 0 0.893215
0.670029 0 0.589399
0.0562294 0 0.492413
0.849239 0 0.757577
0.154249 0 0.715155
0.784612 0 0.407559
0.591899 0 0.401417
0.537084 0 0.285648
0.859331 0 0.491643
0.702473 0 0.8916
0.856579 0 0.631306
0.321511 0 0.577192
0.517867 0 0.943503
0.401979 0 0.908181
0.0595763 0 0.546241
0.593071 0 0.936779
0.266249 0 0.547908
0.251241 0 0.943878
0.258419 0 0.446229
0.862551 0 0.9437
0.165003 0 0.239231
0.945742 0 0.290766
0.321081 0 0.844143
0.057996 0 0.9425
0.936555 0 0.940294
0.165902 0 0.765956
0.142247 0 0.59445
0.131868 0 0.302293
0.233415 0 0.839478
0.283064 0 0.660513
0.573774 0 0.639971
0.831471 0 0.23135
0.865784 0 0.324289
0.609754 0 0.862666
0.0529911 0 0.3869
0.0552126 0 0.882096
0.155508 0 0.41062
0.935873 0 0.837513
0.883188 0 0.837142
0.726288 0 0.946345
0.0553622 0 0.0601905
0.929178 0 0.0574475
0.217239 0 0.212193
0.0554394 0 0.218037
0.782846 0 0.0614166
0.443253 0 0.196697
0.652266 0 0.447295
0.683984 0 0.343868
0.775323 0 0.229286
0.5479 0 0.0540734
0.0539512 0 0.13209
0.859791 0 0.0550816
0.947546 0 0.128461
0.668958 0 0.718658
0.645903 0 0.787048
0.560996 0 0.739692
0.29659 0 0.133004
0.700559 0 0.132355
0.461963 0 0.244598
0.220465 0 0.786979
0.938145 0 0.395105
0.810258 0 0.94388
0.180933 0 0.519345
0.153211 0 0.944148
0.270921 0 0.049697
0.731875 0 0.0487355
0.0503857 0 0.767995
0.0529532 0 0.269555
0.466998 0 0.76007
0.395139 0 0.796978
0.111772 0 0.375525
0.0525076 0 0.710123
0.929175 0 0.240392
0.740216 0 0.261941
0.710061 0 0.631306
0.948095 0 0.478265
0.754396 0 0.463157
0.70175 0 0.546273
0.524534 0 0.157581
0.483717 0 0.420631
0.788711 0 0.568402
0.394603 0 0.579959
0.834445 0 0.424714
0.816153 0 0.521873
0.129993 0 0.0522063
0.12687 0 0.805262
0.552374 0 0.218169
0.640025 0 0.267668
0.200463 0 0.12561
0.785615 0 0.135661
0.515865 0 0.550802
0.352184 0 0.260982
0.375458 0 0.183704
0.58956 0 0.694381
0.551053 0 0.489363
0.430762 0 0.944556
0.855964 0 0.136064
0.140027 0 0.14142
0.41634 0 0.51015
0.578039 0 0.120258
0.0512786 0 0.440528
0.0530272 0 0.65559
0.426587 0 0.863832
0.943803 0 0.57514
0.15365 0 0.873071
0.952508 0 0.890677
0.744741 0 0.311888
0.796349 0 0.333185
0.258493 0 0.706634
0.881776 0 0.390927
0.437548 0 0.342773
0.425328 0 0.694167
0.241873 0 0.156454
0.49234 0 0.667629
0.110634 0 0.479448
0.220652 0 0.0560797
0.381082 0 0.952066
0.738206 0 0.739876
0.766691 0 0.697023
0.201696 0 0.618316
0.264365 0 0.249905
0.297234 0 0.926728
0.686923 0 0.17747
0.206139 0 0.324233
0.795756 0 0.864888
0.950464 0 0.662984
0.761465 0 0.783278
0.950743 0 0.757418
0.509013 0 0.330266
0.204062 0 0.95304
0.890894 0 0.572708
0.880736 0 0.221878
0.580166 0 0.306185
0.698679 0 0.242223
0.606842 0 0.21123
0.309842 0 0.450282
0.306511 0 0.334356
0.349856 0 0.0458349
0.335067 0 0.664543
0.480943 0 0.116944
0.397625 0 0.122809
0.428494 0 0.275388
0.368051 0 0.403427
0.896527 0 0.737025
0.50668 0 0.25108
0.35103 0 0.309273
0.516411 0 0.727885
0.24762 0 0.389541
0.352962 0 0.733856
0.204633 0 0.372183
0.840167 0 0.279586
0.647639 0 0.0461227
0.406817 0 0.626598
0.314667 0 0.620569
0.804189 0 0.78307
0.828751 0 0.720837
0.138806 0 0.201311
0.90698 0 0.674448
0.276738 0 0.750045
0.173335 0 0.286686
0.401846 0 0.432033
0.778997 0 0.181401
0.105424 0 0.952133
0.315332 0 0.174728
0.191138 0 0.691123
0.552003 0 0.842303
0.481764 0 0.580301
0.513073 0 0.892024
0.475216 0 0.165236
0.813208 0 0.610445
0.757887 0 0.630389
0.835149 0 0.672065
0.957554 0 0.192039
0.8721 0 0.177462
0.904112 0 0.148925
0.867652 0 0.533909
0.957897 0 0.527899
0.26062 0 0.291217
0.112112 0 0.852618
0.563948 0 0.588093
0.0413358 0 0.611213
0.100821 0 0.56929
0.121448 0 0.635469
0.597068 0 0.356255
0.430227 0 0.0470905
0.680424 0 0.955874
0.742773 0 0.156932
0.95953 0 0.352137
0.456699 0 0.496167
0.0466772 0 0.1748
0.277946 0 0.842299
0.603191 0 0.521232
0.208724 0 0.460319
0.522877 0 0.388568
0.477866 0 0.949165
0.636659 0 0.488351
0.331403 0 0.959182
0.957266 0 0.619412
0.44263 0 0.603476
0.865771 0 0.79966
0.901871 0 0.309267
0.767626 0 0.952334
0.691734 0 0.0409629
0.381637 0 0.48763
0.310438 0 0.533024
0.956312 0 0.799396
0.0415393 0 0.330478
0.197251 0 0.86459
0.232026 0 0.899098
0.0923461 0 0.28933
0.702995 0 0.383884
0.429425 0 0.0921984
0.506513 0 0.0417443
0.156823 0 0.556395
0.316497 0 0.885592
0.486544 0 0.625374
0.904193 0 0.485302
0.215395 0 0.541213
0.236706 0 0.576202
0.0398796 0 0.828888
0.611254 0 0.150635
0.744947 0 0.868556
0.780838 0 0.824284
0.70645 0 0.84882
0.69159 0 0.808824
0.642219 0 0.623725
0.413313 0 0.160819
0.651566 0 0.879082
0.630475 0 0.958678
0.614877 0 0.435686
0.363842 0 0.883591
0.0896331 0 0.785999
0.622229 0 0.825896
0.297979 0 0.226417
0.163046 0 0.0463628
0.439423 0 0.418042
0.527144 0 0.642188
0.466511 0 0.859667
0.593595 0 0.0420173
0.643652 0 0.102542
0.500572 0 0.457768
0.574351 0 0.445611
0.630263 0 0.696817
0.679062 0 0.667867
0.390327 0 0.0372788
0.559382 0 0.782574
0.308964 0 0.0398754
0.123333 0 0.331316
0.633514 0 0.185512
0.792735 0 0.375911
0.941629 0 0.446492
0.603447 0 0.643118
0.358871 0 0.102783
0.136314 0 0.09896
0.605412 0 0.776001
0.601728 0 0.907931
0.394178 0 0.280641
0.364047 0 0.817273
0.556606 0 0.960559
0.336068 0 0.490061
0.398801 0 0.353664
0.475482 0 0.532886
0.823116 0 0.0404479
0.434633 0 0.776066
0.481427 0 0.799134
0.942578 0 0.0939673
0.655727 0 0.75957
0.383888 0 0.766192
0.316853 0 0.754053
0.317522 0 0.802637
0.181213 0 0.439652
0.249677 0 0.767856
0.287092 0 0.965364
0.142949 0 0.507976
0.28229 0 0.360771
0.9621 0 0.0698904
0.861844 0 0.101641
0.794082 0 0.0921279
0.0892354 0 0.216676
0.0975268 0 0.140566
0.613855 0 0.558701
0.962079 0 0.245612
0.571208 0 0.0811874
0.659465 0 0.303364
0.626352 0 0.353446
0.12826 0 0.451647
0.740581 0 0.421615
0.799091 0 0.690377
0.263399 0 0.490894
0.326649 0 0.411377
0.719244 0 0.789004
0.40096 0 0.666664
0.528185 0 0.511803
0.680208 0 0.511836
0.908728 0 0.959569
0.903289 0 0.924482
0.395527 0 0.543145
0.0883081 0 0.0370216
0.0354008 0 0.0825183
0.213356 0 0.176493
0.825977 0 0.142007
0.157865 0 0.910959
0.846539 0 0.46817
0.742022 0 0.669326
0.715242 0 0.087722
0.54974 0 0.918574
0.882928 0 0.357272
0.451073 0 0.380639
0.468958 0 0.332227
0.563119 0 0.389388
0.552397 0 0.26477
0.0320926 0 0.512255
0.866882 0 0.660637
0.139285 0 0.255087
0.41989 0 0.82947
0.112942 0 0.713269
0.138062 0 0.674693
0.0918758 0 0.639137
0.138642 0 0.83619
0.351854 0 0.571146
0.284948 0 0.0856753
0.701236 0 0.732642
0.870481 0 0.873283
0.0372527 0 0.914851
0.470391 0 0.0328943
0.474131 0 0.463942
0.956071 0 0.0404162
0.503783 0 0.0836545
0.807887 0 0.212318
0.194733 0 0.656785
0.243708 0 0.627915
0.17 0 0.606758
0.277257 0 0.161703
0.830964 0 0.316064
0.8744 0 0.610773
0.0830708 0 0.459943
0.544464 0 0.186035
0.900942 0 0.0399764
0.529873 0 0.818561
0.386235 0 0.719271
0.335943 0 0.702161
0.326038 0 0.380905
0.369486 0 0.223472
0.439485 0 0.721507
0.46202 0 0.672441
0.21731 0 0.101059
0.625192 0 0.240131
0.755773 0 0.554601
0.738861 0 0.49177
0.78559 0 0.507827
0.763216 0 0.603618
0.326068 0 0.123634
0.712873 0 0.316629
0.176401 0 0.316403
0.672086 0 0.63676
0.683337 0 0.913563
0.547883 0 0.1322
0.53984 0 0.568324
0.872948 0 0.910369
0.616582 0 0.288418
0.350864 0 0.181167
0.615559 0 0.112851
0.848082 0 0.211572
0.323952 0 0.242347
0.499922 0 0.961249
0.969977 0 0.711878
0.0708716 0 0.0875774
0.0991753 0 0.0745311
0.831418 0 0.491608
0.713051 0 0.452423
0.684151 0 0.404907
0.0268963 0 0.570239
0.970935 0 0.84775
0.50679 0 0.689089
0.644644 0 0.56633
0.82436 0 0.858023
0.797579 0 0.894814
0.839919 0 0.795663
0.0711619 0 0.156382
0.21166 0 0.0279424
0.477854 0 0.83321
0.444453 0 0.315917
0.842194 0 0.962074
0.231221 0 0.694535
0.969702 0 0.106164
0.242231 0 0.0385153
0.935104 0 0.161423
0.339873 0 0.867453
0.868812 0 0.424997
0.266459 0 0.415044
0.409935 0 0.478337
0.196731 0 0.494145
0.364831 0 0.656108
0.0923495 0 0.509162
0.0325394 0 0.470187
0.726711 0 0.228461
0.581903 0 0.858638
0.246605 0 0.225208
0.0676844 0 0.583678
0.970818 0 0.308061
0.939941 0 0.318375
0.231228 0 0.361309
0.0238146 0 0.411447
0.0253502 0 0.368725
0.0775743 0 0.362107
0.0415319 0 0.9611
0.969338 0 0.950184
0.67398 0 0.115679
0.701294 0 0.579681
0.667918 0 0.251642
0.167205 0 0.123094
0.686795 0 0.869258
0.739121 0 0.911528
0.137571 0 0.746343
0.0530585 0 0.30586
0.0766413 0 0.971269
0.763071 0 0.383431
0.816598 0 0.399696
0.801746 0 0.435267
0.490076 0 0.909899
0.899883 0 0.0695452
0.684634 0 0.437941
0.170361 0 0.207013
0.193822 0 0.253437
0.729652 0 0.537014
0.0670076 0 0.739185
0.968722 0 0.426429
0.176705 0 0.970206
0.286159 0 0.307268
0.505411 0 0.300005
0.552678 0 0.320139
0.371344 0 0.33208
0.896866 0 0.707994
0.855267 0 0.728658
0.813267 0 0.752929
0.87973 0 0.767689
0.0495394 0 0.0269082
0.22852 0 0.871013
0.971979 0 0.452888
0.184842 0 0.719391
0.219752 0 0.244316
0.447412 0 0.53345
0.0261232 0 0.228741
0.762134 0 0.0407033
0.967936 0 0.15426
0.590907 0 0.573745
0.384003 0 0.159527
0.925873 0 0.87516
0.927654 0 0.80911
0.815118 0 0.264264
0.859131 0 0.256376
0.622427 0 0.406681
0.70464 0 0.212242
0.5636 0 0.668113
0.960072 0 0.916555
0.0510721 0 0.802802
0.242505 0 0.742486
0.299642 0 0.772923
0.971341 0 0.381598
0.713245 0 0.160748
0.872976 0 0.455207
0.582015 0 0.499995
0.790617 0 0.971242
0.0868107 0 0.706043
0.143658 0 0.168542
0.891325 0 0.510606
0.765958 0 0.336419
0.733274 0 0.393027
0.586766 0 0.971417
0.0264163 0 0.786962
0.748326 0 0.968716
0.383656 0 0.379982
0.818129 0 0.642357
0.842422 0 0.599773
0.0914693 0 0.923328
0.941633 0 0.973983
0.674328 0 0.482033
0.13635 0 0.77485
0.0371084 0 0.68281
0.0398603 0 0.737225
0.128138 0 0.230354
0.41056 0 0.969523
0.130521 0 0.569298
0.623086 0 0.930334
0.467897 0 0.974621
0.971205 0 0.59062
0.284676 0 0.519118
0.763513 0 0.84735
0.0283996 0 0.287684
0.656032 0 0.333355
0.287651 0 0.574736
0.340173 0 0.604508
0.432945 0 0.225556
0.411458 0 0.203274
0.579051 0 0.761253
0.929402 0 0.906769
0.25377 0 0.521283
0.239237 0 0.193439
0.657777 0 0.419183
0.880539 0 0.96601
0.899031 0 0.809517
0.626394 0 0.462704
0.37673 0 0.923383
0.435772 0 0.894947
0.388796 0 0.872032
0.532956 0 0.868832
0.969759 0 0.216625
0.33694 0 0.519299
0.259751 0 0.820496
0.206736 0 0.833421
0.0265047 0 0.8707
0.230835 0 0.972214
0.257763 0 0.970463
0.0673888 0 0.518836
0.488581 0 0.738268
0.781196 0 0.454981
0.844934 0 0.919116
0.166585 0 0.67475
0.0268318 0 0.544505
0.0269709 0 0.0534921
0.815538 0 0.0685731
0.971675 0 0.502068
0.604425 0 0.179711
0.664211 0 0.688057
0.788517 0 0.625275
0.705738 0 0.970987
0.264116 0 0.913837
0.172727 0 0.382108
0.144301 0 0.381242
0.120416 0 0.402555
0.548445 0 0.46001
0.566414 0 0.415583
0.911492 0 0.409151
0.911318 0 0.379714
0.518424 0 0.36011
0.302251 0 0.257772
0.791296 0 0.0235848
0.444876 0 0.162916
0.471329 0 0.192344
0.559412 0 0.811604
0.588071 0 0.730174
0.543946 0 0.716554
0.536824 0 0.765889
0.361615 0 0.0774433
0.295563 0 0.866363
0.724519 0 0.28785
0.0248968 0 0.198133
0.285137 0 0.464282
0.0766418 0 0.86061
0.123662 0 0.926344
0.239016 0 0.470754
0.229183 0 0.442791
0.919668 0 0.269374
0.9737 0 0.277036
0.0725306 0 0.416181
0.97194 0 0.557017
0.496305 0 0.140276
0.227043 0 0.306057
0.333629 0 0.548051
0.185127 0 0.791357
0.197895 0 0.765555
0.453818 0 0.10619
0.0736987 0 0.189131
0.0874713 0 0.540422
0.214526 0 0.925175
0.923666 0 0.752749
0.610807 0 0.380102
0.155585 0 0.801882
0.150387 0 0.624461
0.112255 0 0.593352
0.072472 0 0.24418
0.756163 0 0.0664292
0.104901 0 0.312274
0.845339 0 0.517032
0.0652413 0 0.682748
0.128113 0 0.976051
0.61611 0 0.0265712
0.869101 0 0.029054
0.845565 0 0.0803098
0.590942 0 0.620309
0.541079 0 0.617893
0.630247 0 0.899455
0.0669134 0 0.914595
0.678054 0 0.373645
0.715169 0 0.344363
0.289496 0 0.819454
0.884065 0 0.637028
0.677651 0 0.564319
0.268882 0 0.635657
0.257469 0 0.679334
0.284716 0 0.692527
0.191756 0 0.0511272
0.0874671 0 0.393221
0.385385 0 0.458922
0.794183 0 0.921613
0.851166 0 0.347197
0.880119 0 0.298103
0.181644 0 0.935163
0.930937 0 0.0238434
0.71246 0 0.603045
0.719309 0 0.819639
0.640814 0 0.85638
0.600743 0 0.836726
0.510541 0 0.412188
0.472828 0 0.397939
0.896552 0 0.860737
0.852514 0 0.822061
0.453896 0 0.443245
0.917809 0 0.589265
0.938096 0 0.547419
0.923293 0 0.499537
0.921681 0 0.465941
0.521892 0 0.0653201
0.577144 0 0.200484
0.349784 0 0.841689
0.683276 0 0.31594
0.48936 0 0.884536
0.851506 0 0.3989
0.484397 0 0.267887
0.21626 0 0.592493
0.704195 0 0.520089
0.51193 0 0.754613
0.263775 0 0.133885
0.640612 0 0.597308
0.975883 0 0.678985
0.311244 0 0.200631
0.388978 0 0.51804
0.973168 0 0.643601
0.940384 0 0.369215
0.311448 0 0.679944
0.108213 0 0.826697
0.198848 0 0.299426
0.184009 0 0.41102
0.934075 0 0.208664
0.907664 0 0.218689
0.8048 0 0.237125
0.768801 0 0.258018
0.759232 0 0.285216
0.762028 0 0.204087
0.653246 0 0.0738703
0.533378 0 0.0279181
0.583184 0 0.228125
0.709614 0 0.661084
0.139618 0 0.0238755
0.191089 0 0.225846
0.305063 0 0.10607
0.0249378 0 0.129327
0.0785405 0 0.118961
0.921072 0 0.112945
0.27943 0 0.274151
0.368881 0 0.592555
0.467926 0 0.13899
0.252845 0 0.863697
0.358421 0 0.971243
0.577265 0 0.333831
0.867064 0 0.584079
0.321695 0 0.148142
0.612666 0 0.673307
0.11594 0 0.277316
0.723772 0 0.113954
0.673626 0 0.141013
0.561567 0 0.0260639
0.972856 0 0.774114
0.42641 0 0.581704
0.643511 0 0.732203
0.690469 0 0.702279
0.193682 0 0.156118
0.232377 0 0.125361
0.188352 0 0.101465
0.286434 0 0.432974
0.230426 0 0.814777
0.661346 0 0.811265
0.669985 0 0.784945
0.628481 0 0.764697
0.78698 0 0.714502
0.764805 0 0.728991
0.120772 0 0.0786471
0.0223409 0 0.708906
0.243869 0 0.263845
0.150025 0 0.0735625
0.488228 0 0.233051
0.902368 0 0.245663
0.150815 0 0.328057
0.286894 0 0.0255071
0.261652 0 0.0775186
0.296983 0 0.0612642
0.706246 0 0.0617949
0.0301817 0 0.634625
0.716578 0 0.758312
0.892939 0 0.330579
0.818705 0 0.290795
0.570948 0 0.277711
0.713458 0 0.0260645
0.023869 0 0.258814
0.786408 0 0.538158
0.815388 0 0.553706
0.189491 0 0.545614
0.530542 0 0.9716
0.763616 0 0.488575
0.444505 0 0.921199
0.443631 0 0.749462
0.518998 0 0.229068
0.0231625 0 0.942012
0.392521 0 0.822359
0.369084 0 0.788465
0.40768 0 0.773432
0.522785 0 0.479281
0.842072 0 0.54344
0.334207 0 0.822231
0.435402 0 0.251487
0.825018 0 0.34019
0.549946 0 0.159706
0.516108 0 0.184557
0.40391 0 0.936113
0.439716 0 0.976443
0.659884 0 0.191444
0.0625316 0 0.630731
0.242154 0 0.600609
0.415106 0 0.0702976
0.752471 0 0.181021
0.193993 0 0.19546
0.364285 0 0.282601
0.321854 0 0.311958
0.342112 0 0.332832
0.908313 0 0.647363
0.222877 0 0.758927
0.561551 0 0.694792
0.159309 0 0.530158
0.97548 0 0.741219
0.169069 0 0.496374
0.725648 0 0.562942
0.76471 0 0.653588
0.557653 0 0.105899
0.571869 0 0.146436
0.59139 0 0.100647
0.658811 0 0.972383
0.112718 0 0.661833
0.4119 0 0.72072
0.720718 0 0.71359
0.775881 0 0.311465
0.0543951 0 0.850037
0.932114 0 0.681909
0.935713 0 0.63654
0.0982761 0 0.874685
0.708364 0 0.266102
0.521006 0 0.130415
0.936822 0 0.780634
0.103707 0 0.45662
0.815752 0 0.582932
0.282987 0 0.719937
0.237332 0 0.416345
0.66379 0 0.277793
0.612121 0 0.263661
0.75429 0 0.130383
0.800755 0 0.157124
0.805888 0 0.119438
0.163614 0 0.150908
0.513578 0 0.578619
0.502333 0 0.527564
0.674349 0 0.889633
0.33566 0 0.461134
0.240061 0 0.549053
0.293719 0 0.600384
0.891593 0 0.545441
0.378239 0 0.251235
0.326952 0 0.267948
0.49058 0 0.555266
0.177094 0 0.887169
0.135866 0 0.895695
0.161449 0 0.846748
0.589998 0 0.544755
0.455773 0 0.270432
0.54503 0 0.0811601
0.230399 0 0.333025
0.184335 0 0.338952
0.763297 0 0.755117
0.423227 0 0.801551
0.976323 0 0.822966
0.353068 0 0.943206
0.556035 0 0.515077
0.573973 0 0.472498
0.10489 0 0.349787
0.119806 0 0.156202
0.85018 0 0.161279
0.839995 0 0.117059
0.120303 0 0.122935
0.87713 0 0.122836
0.815358 0 0.971406
0.97564 0 0.977106
0.609696 0 0.805855
0.30746 0 0.361347
0.0824327 0 0.762369
0.591915 0 0.426455
0.0225979 0 0.0233419
0.739392 0 0.693387
0.780053 0 0.673801
0.4579 0 0.786943
0.773469 0 0.874179
0.713711 0 0.916603
0.259221 0 0.175596
0.340518 0 0.894148
0.860788 0 0.847181
0.049884 0 0.355596
0.0234204 0 0.448252
0.433403 0 0.487744
0.672366 0 0.055384
0.569824 0 0.362815
0.446779 0 0.843483
0.350065 0 0.23564
0.419335 0 0.646951
0.785479 0 0.799791
0.879167 0 0.151157
0.916054 0 0.563147
0.818175 0 0.914931
0.652792 0 0.94804
0.489215 0 0.771029
0.273841 0 0.223673
0.434394 0 0.669822
0.400175 0 0.694938
0.909681 0 0.831268
0.87491 0 0.0784817
0.6688 0 0.025064
0.405135 0 0.0973055
0.423766 0 0.115746
0.451016 0 0.696954
0.469668 0 0.604169
0.204205 0 0.0774397
0.361036 0 0.504063
0.0212262 0 0.758834
0.403806 0 0.852414
0.575793 0 0.913434
0.249459 0 0.794996
0.979875 0 0.889025
0.497731 0 0.386162
0.975684 0 0.129958
0.21627 0 0.147604
0.946138 0 0.730801
0.617967 0 0.619984
0.750055 0 0.93298
0.458502 0 0.356237
0.416707 0 0.331196
0.427327 0 0.36709
0.859411 0 0.372939
0.543014 0 0.6605
0.518838 0 0.666136
0.382608 0 0.978966
0.180048 0 0.630405
0.219723 0 0.641782
0.465023 0 0.217592
0.387823 0 0.640213
0.205513 0 0.518241
0.111186 0 0.0270562
0.634064 0 0.213808
0.329223 0 0.0231254
0.206088 0 0.885694
0.310544 0 0.648745
0.337152 0 0.635609
0.325437 0 0.778083
0.474735 0 0.648778
0.411192 0 0.454703
0.373759 0 0.0530933
0.163484 0 0.581774
0.136238 0 0.47774
0.117655 0 0.501862
0.696257 0 0.104215
0.94545 0 0.264487
0.0847154 0 0.483681
0.162693 0 0.736484
0.82662 0 0.693831
0.154531 0 0.445364
0.750555 0 0.238828
0.314813 0 0.475675
0.538453 0 0.540051
0.675087 0 0.742395
0.663668 0 0.164681
0.0838657 0 0.266725
0.502782 0 0.815607
0.249788 0 0.652117
0.613208 0 0.496441
0.278912 0 0.332941
0.650252 0 0.643397
0.222487 0 0.390411
0.274749 0 0.389159
0.257585 0 0.366408
0.857731 0 0.232051
0.889854 0 0.196593
0.74202 0 0.799635
0.371596 0 0.0227241
0.412073 0 0.0232504
0.27616 0 0.94319
0.293443 0 0.899273
0.320155 0 0.911212
0.372347 0 0.133549
0.602918 0 0.331183
0.378664 0 0.560572
0.408833 0 0.255736
0.537622 0 0.793026
0.788984 0 0.767548
0.810916 0 0.842326
0.325707 0 0.0543693
0.0596755 0 0.465516
0.462665 0 0.731983
0.621606 0 0.0567859
0.642594 0 0.0207409
0.260338 0 0.575802
0.530141 0 0.312193
0.110394 0 0.78197
0.88798 0 0.944364
0.481278 0 0.689387
0.203431 0 0.978795
0.22796 0 0.946678
0.385625 0 0.612277
0.352617 0 0.682151
0.34523 0 0.397613
0.448237 0 0.874866
0.391955 0 0.405216
0.350971 0 0.423137
0.708076 0 0.18565
0.49235 0 0.350647
0.48931 0 0.31906
0.699661 0 0.93924
0.688765 0 0.615819
0.740152 0 0.338629
0.376609 0 0.428768
0.300845 0 0.738046
0.694571 0 0.466778
0.422065 0 0.534708
0.427866 0 0.436321
0.511456 0 0.276288
0.325541 0 0.935562
0.418475 0 0.13805
0.432504 0 0.625779
0.677747 0 0.537274
0.917686 0 0.72506
0.583984 0 0.789325
0.770384 0 0.157739
0.139553 0 0.650824
0.203423 0 0.809722
0.877584 0 0.721961
0.623272 0 0.580029
0.677812 0 0.227569
0.132974 0 0.426376
0.587844 0 0.663926
0.374819 0 0.305479
0.569501 0 0.941564
0.334802 0 0.0985939
0.162652 0 0.0986157
0.371445 0 0.356188
0.734632 0 0.615652
0.538061 0 0.894333
0.274513 0 0.77682
0.31144 0 0.977317
0.478875 0 0.0898832
0.503859 0 0.109737
0.541375 0 0.405926
0.411671 0 0.603192
0.980251 0 0.0476391
0.946336 0 0.859112
0.683399 0 0.980032
0.361587 0 0.709992
0.328373 0 0.730057
0.339405 0 0.754284
0.980213 0 0.616662
0.901774 0 0.172176
0.791209 0 0.25597
0.725811 0 0.138929
0.573616 0 0.836766
0.440917 0 0.0227726
0.45362 0 0.04917
0.592435 0 0.0664889
0.0922148 0 0.732858
0.419902 0 0.300781
0.208054 0 0.348454
0.278203 0 0.111102
0.307018 0 0.952253
0.630936 0 0.51348
0.852496 0 0.300608
0.611307 0 0.713887
0.732084 0 0.644103
0.102882 0 0.978249
0.380638 0 0.106007
0.627054 0 0.135951
0.536577 0 0.74056
0.496366 0 0.712136
0.187708 0 0.0244087
0.2913 0 0.627726
0.476886 0 0.487787
0.635976 0 0.294979
0.736517 0 0.445441
0.0469757 0 0.244191
0.557406 0 0.297686
0.0390049 0 0.1512
0.865068 0 0.559249
0.655443 0 0.361951
0.850971 0 0.443377
0.293483 0 0.183229
0.358559 0 0.201478
0.0261247 0 0.656231
0.306562 0 0.558072
0.412666 0 0.559584
0.762327 0 0.813762
0.632494 0 0.160735
0.627897 0 0.646439
0.843246 0 0.0254027
0.342617 0 0.799503
0.558187 0 0.865593
0.528563 0 0.843697
0.528976 0 0.25819
0.864524 0 0.279484
0.978203 0 0.478599
0.44521 0 0.0736852
0.815071 0 0.801709
0.126552 0 0.182836
0.150615 0 0.220428
0.817208 0 0.879289
0.542076 0 0.373476
0.490662 0 0.0224058
0.808647 0 0.730237
0.847125 0 0.70648
0.0214567 0 0.170635
0.157202 0 0.30296
0.789438 0 0.595207
0.500584 0 0.164141
0.885685 0 0.683877
0.233438 0 0.0802917
0.952784 0 0.693057
0.460141 0 0.626824
0.168837 0 0.26468
0.746717 0 0.714471
0.134844 0 0.355663
0.80247 0 0.309127
0.250849 0 0.887867
0.246936 0 0.0598696
0.635443 0 0.430936
0.215588 0 0.481064
0.184794 0 0.471006
0.205796 0 0.436045
0.566222 0 0.562503
0.113164 0 0.204666
0.740868 0 0.768559
0.832703 0 0.62397
0.25165 0 0.31542
0.10176 0 0.805642
0.490609 0 0.0580356
0.454957 0 0.580207
0.803748 0 0.18404
0.785627 0 0.204887
0.76483 0 0.359928
0.416019 0 0.412422
0.29954 0 0.382131
0.0822733 0 0.945824
0.209986 0 0.708394
0.17096 0 0.700399
0.211186 0 0.679426
0.586169 0 0.882708
0.62311 0 0.537192
0.463712 0 0.554481
0.479349 0 0.509246
0.939453 0 0.603414
0.71783 0 0.869396
0.731127 0 0.846797
0.156042 0 0.188243
0.72378 0 0.473034
0.655458 0 0.501642
0.331294 0 0.189721
0.509725 0 0.867262
0.520201 0 0.917331
0.826121 0 0.45129
0.786076 0 0.479405
0.918341 0 0.32674
0.834114 0 0.741218
0.022584 0 0.491127
0.496491 0 0.603067
0.977454 0 0.0224385
0.0828872 0 0.894008
0.764757 0 0.578932
0.811739 0 0.667636
0.841971 0 0.651035
0.855386 0 0.681913
0.04991 0 0.196264
0.74129 0 0.0208777
0.527055 0 0.20634
0.578894 0 0.523978
0.0226464 0 0.593253
0.531114 0 0.337301
0.728422 0 0.889567
0.751543 0 0.890347
0.127909 0 0.870489
0.837768 0 0.254966
0.149837 0 0.974687
0.317108 0 0.863797
0.360249 0 0.474328
0.879094 0 0.245113
0.217591 0 0.563947
0.047715 0 0.108477
0.310121 0 0.427183
0.978051 0 0.175763
0.981933 0 0.199864
0.935516 0 0.183464
0.235472 0 0.719108
0.134507 0 0.541842
0.661934 0 0.615023
0.77509 0 0.111846
0.513514 0 0.622855
0.502381 0 0.645078
0.630368 0 0.0830914
0.979026 0 0.332523
0.0248404 0 0.39171
0.0230121 0 0.344228
0.569016 0 0.716746
0.78473 0 0.352309
0.82643 0 0.772467
0.422559 0 0.181926
0.948913 0 0.225383
0.766117 0 0.433537
0.238021 0 0.287294
0.567341 0 0.24601
0.848597 0 0.186128
0.82812 0 0.197328
0.336151 0 0.165037
0.301316 0 0.158232
0.981064 0 0.799736
0.952751 0 0.824059
0.186386 0 0.846443
0.214593 0 0.852441
0.360191 0 0.379657
0.980994 0 0.524005
0.935471 0 0.521619
0.923929 0 0.137775
0.901088 0 0.125401
0.399989 0 0.497885
0.374071 0 0.740894
0.446794 0 0.291956
0.053617 0 0.979504
0.438978 0 0.510481
0.634722 0 0.381207
0.0632617 0 0.604183
0.0181075 0 0.614756
0.583513 0 0.598654
0.565036 0 0.613992
0.543083 0 0.595051
0.522524 0 0.705876
0.67242 0 0.934033
0.193341 0 0.275973
0.105591 0 0.615855
0.128767 0 0.612941
0.118041 0 0.688956
0.613263 0 0.978116
0.874164 0 0.745735
0.129515 0 0.953408
0.806964 0 0.49419
0.606812 0 0.954825
0.109787 0 0.550181
0.0773248 0 0.563883
0.0881091 0 0.588868
0.652041 0 0.472315
0.665659 0 0.0947338
0.651281 0 0.124248
0.768921 0 0.97818
0.637022 0 0.98079
0.36462 0 0.862022
0.431454 0 0.395582
0.599211 0 0.454559
0.94866 0 0.503152
0.83222 0 0.942236
0.186061 0 0.361794
0.604841 0 0.308297
0.93711 0 0.342677
0.981608 0 0.357745
0.648508 0 0.239629
0.594139 0 0.283901
0.337555 0 0.289575
0.682706 0 0.8454
0.261489 0 0.729395
0.957318 0 0.329979
0.0720797 0 0.0195711
0.504355 0 0.436843
0.453527 0 0.951575
0.255696 0 0.842774
0.298547 0 0.843435
0.981319 0 0.930507
0.561078 0 0.981258
0.54109 0 0.941078
0.96292 0 0.872059
0.757557 0 0.406218
0.0919712 0 0.845916
0.807965 0 0.355972
0.844235 0 0.866687
0.224067 0 0.616388
0.314904 0 0.597641
0.557183 0 0.760389
0.396462 0 0.745422
0.681933 0 0.201262
0.0223308 0 0.812501
0.58561 0 0.0219209
0.571618 0 0.0509948
0.902957 0 0.285827
0.275346 0 0.861623
0.0750199 0 0.440518
0.492891 0 0.18347
0.186844 0 0.744238
0.600108 0 0.751933
0.0211331 0 0.316632
0.542239 0 0.239938
0.454186 0 0.474625
0.736141 0 0.0766138
0.858871 0 0.777809
0.8849 0 0.789936
0.876252 0 0.816251
0.49638 0 0.932997
0.466951 0 0.927679
0.336288 0 0.981156
0.894521 0 0.596397
0.496594 0 0.47846
0.525194 0 0.451648
0.0801823 0 0.660246
0.935806 0 0.421808
0.237863 0 0.922511
0.691108 0 0.156153
0.421769 0 0.914659
0.881062 0 0.482894
0.772384 0 0.928248
0.788883 0 0.945305
0.922413 0 0.300888
0.290224 0 0.206373
0.411138 0 0.885391
0.691077 0 0.0192599
0.838944 0 0.0541245
0.882009 0 0.0516726
0.234088 0 0.0185017
0.809667 0 0.709572
0.386509 0 0.205219
0.0640156 0 0.331946
0.331188 0 0.437313
0.590646 0 0.158808
0.596986 0 0.135295
0.721146 0 0.369221
0.699308 0 0.361324
0.711638 0 0.403494
0.76661 0 0.0875037
0.028821 0 0.851007
0.691964 0 0.788107
0.678645 0 0.826402
0.699262 0 0.829236
0.685426 0 0.264312
0.31289 0 0.508245
0.288055 0 0.544076
0.887587 0 0.0194536
0.728004 0 0.978299
0.695041 0 0.678067
0.723007 0 0.249988
0.801052 0 0.0449575
0.817923 0 0.0195916
0.325925 0 0.350989
0.982212 0 0.909991
0.586909 0 0.378818
0.693323 0 0.648346
0.660108 0 0.66128
0.0213683 0 0.894936
0.0215748 0 0.10502
0.908684 0 0.0181325
0.64239 0 0.83174
0.0703232 0 0.286984
0.0787175 0 0.309878
0.867 0 0.202153
0.0686766 0 0.0404119
0.0821922 0 0.0576442
0.461233 0 0.422059
0.396475 0 0.144431
0.338862 0 0.0738151
0.045433 0 0.588872
0.958387 0 0.404515
0.74671 0 0.217592
0.900011 0 0.759401
0.0485938 0 0.41258
0.88949 0 0.661101
0.175315 0 0.86429
0.148053 0 0.280284
0.647774 0 0.709729
0.178169 0 0.566621
0.228916 0 0.523821
0.602276 0 0.238913
0.925405 0 0.660937
0.913514 0 0.694706
0.981476 0 0.0880149
0.350841 0 0.12211
0.91623 0 0.0886046
0.859665 0 0.981416
0.919471 0 0.852355
0.629055 0 0.874614
0.654245 0 0.90125
0.662706 0 0.86071
0.308329 0 0.0182446
0.896085 0 0.462661
0.181589 0 0.138987
0.729639 0 0.176361
0.189693 0 0.593274
0.40982 0 0.0450953
0.65958 0 0.551198
0.460556 0 0.515942
0.0617047 0 0.825931
0.0177203 0 0.834561
0.869552 0 0.511208
0.553267 0 0.435567
0.489479 0 0.981662
0.788595 0 0.844039
0.802769 0 0.823063
0.0462197 0 0.529357
0.550151 0 0.637448
0.284741 0 0.243681
0.318534 0 0.221114
0.479239 0 0.442197
0.39499 0 0.0588295
0.259563 0 0.0203413
0.672051 0 0.459137
0.309902 0 0.82209
0.296016 0 0.797845
0.0181511 0 0.149459
0.361857 0 0.905346
0.384376 0 0.895693
0.398289 0 0.17966
0.768176 0 0.0193234
0.0191523 0 0.731274
0.145266 0 0.11924
0.889081 0 0.41471
0.36165 0 0.160616
0.10544 0 0.0509359
0.727631 0 0.511273
0.214335 0 0.905146
0.0518826 0 0.567099
0.839186 0 0.84205
0.0790345 0 0.806274
0.0687449 0 0.783924
0.1964 0 0.391162
0.469505 0 0.879728
0.488116 0 0.861994
0.623306 0 0.847397
0.634945 0 0.808378
0.134418 0 0.703261
0.361909 0 0.758961
0.35038 0 0.0200437
0.391655 0 0.0176026
0.166121 0 0.0201551
0.98004 0 0.406023
0.954093 0 0.0181412
0.833095 0 0.981533
0.0182866 0 0.970945
0.0909482 0 0.0170399
0.912403 0 0.982597
0.50933 0 0.983253
0.982351 0 0.868432
0.0160896 0 0.689243
0.0306294 0 0.982688
0.0165786 0 0.430901
0.133887 0 0.722667
0.115276 0 0.732785
0.291259 0 0.984754
0.984601 0 0.0690728
0.0160173 0 0.671697
0.451593 0 0.402986
0.983408 0 0.251667
0.982527 0 0.231299
0.609285 0 0.885268
0.510847 0 0.0177123
0.623952 0 0.788938
0.891335 0 0.982707
0.0358016 0 0.429498
0.150345 0 0.692893
0.273049 0 0.983359

CELLS 3174 12696
3 30 1513 29
3 777 1662 1590
3 812 364 811
3 946 83 943
3 425 671 864
3 1300 1476 220
3 1514 557 1288
3 980 368 959
3 1249 856 545
3 285 1288 1221
3 1020 999 208
3 655 397 1030
3 1366 568 735
3 1415 491 763
3 839 1546 897
3 1349 242 1009
3 1643 428 851
3 391 1184 871
3 76 77 1445
3 70 71 1662
3 535 930 929
3 84 85 943
3 1424 958 558
3 363 762 1570
3 376 726 1183
3 1524 1005 384
3 646 1362 931
3 1545 1140 34
3 1399 36 37
3 519 915 1515
3 1416 491 1415
3 896 44 1566
3 1542 719 1388
3 340 719 1542
3 252 1605 967
3 890 384 762
3 1448 252 967
3 42 43 1322
3 647 1364 1437
3 890 1558 1524
3 967 584 371
3 1282 270 1204
3 1547 1566 656
3 594 1603 703
3 1322 1571 42
3 703 56 1153
3 296 1103 1074
3 705 1447 371
3 1392 1275 645
3 1448 1130 1105
3 49 50 51
3 1515 1542 519
3 1297 622 961
3 767 1138 819
3 1195 317 699
3 1149 1373 574
3 861 1509 564
3 819 260 767
3 1544 1638 823
3 1592 1467 462
3 1267 669 489
3 943 684 1344
3 1026 1014 402
3 684 85 86
3 1281 946 516
3 102 1107 101
3 730 328 1078
3 1330 211 1625
3 1608 920 546
3 1132 1483 380
3 1461 1133 280
3 1065 884 446
3 89 1440 981
3 1501 1385 624
3 924 641 357
3 93 691 92
3 473 1330 1129
3 991 990 373
3 993 1549 1336
3 1515 915 241
3 357 819 1138
3 1527 357 925
3 1684 613 1667
3 794 1107 102
3 1557 605 318
3 401 707 1313
3 725 98 1107
3 885 1454 770
3 1606 1684 106
3 719 1486 1388
3 1107 99 101
3 631 1594 1342
3 1607 1138 356
3 366 1556 902
3 781 111 1477
3 104 794 103
3 1607 766 924
3 99 100 101
3 1033 129 800
3 564 1215 861
3 1285 921 715
3 886 637 404
3 1657 634 1465
3 797 1316 420
3 345 888 801
3 882 832 712
3 654 1066 1185
3 1012 187 188
3 636 1055 1534
3 139 1228 830
3 438 650 1615
3 868 481 793
3 831 830 336
3 509 904 1498
3 823 1479 218
3 1173 276 1086
3 342 901 1369
3 168 1456 1006
3 1210 281 1248
3 1464 501 1463
3 306 1055 1465
3 527 756 1350
3 1402 170 171
3 756 526 1443
3 1517 1219 419
3 140 1228 139
3 904 509 827
3 499 1589 1455
3 1650 1619 774
3 776 1269 477
3 1671 149 1665
3 637 886 210
3 916 620 276
3 509 1498 1516
3 119 120 1466
3 734 1369 481
3 916 883 448
3 1683 1656 1108
3 144 1298 894
3 1233 1653 257
3 1243 776 477
3 317 1384 1654
3 1635 588 1634
3 549 1637 1119
3 154 1021 153
3 1577 829 354
3 118 1478 117
3 149 150 151
3 199 0 1
3 1095 289 633
3 882 333 832
3 1354 1048 300
3 1473 1463 269
3 1551 275 723
3 1122 713 177
3 832 321 1185
3 1185 712 832
3 457 948 1174
3 945 1449 417
3 10 1303 9
3 11 1548 698
3 1202 593 1201
3 1335 24 25
3 1052 675 418
3 1299 862 291
3 1604 1211 221
3 452 1259 771
3 1400 208 1031
3 575 1262 1040
3 979 726 376
3 807 185 186
3 761 1308 1012
3 528 1194 977
3 950 263 876
3 598 249 1104
3 876 1434 1360
3 1551 723 1121
3 963 1039 361
3 1584 755 1494
3 1104 249 572
3 1218 1172 456
3 1588 307 1218
3 362 865 1398
3 891 346 566
3 190 865 189
3 1578 194 195
3 881 297 597
3 15 1002 14
3 4 1494 3
3 1632 704 1548
3 1645 995 686
3 1636 192 193
3 194 1578 965
3 1645 1170 403
3 1578 617 1413
3 8 1661 962
3 1578 196 617
3 1661 9 1303
3 1097 821 435
3 486 738 935
3 1292 375 941
3 456 1206 1179
3 261 1044 879
3 782 893 306
3 917 645 360
3 600 872 1184
3 919 1379 542
3 1541 913 380
3 1672 178 179
3 284 1245 760
3 1301 860 374
3 533 706 1119
3 1318 982 400
3 267 843 791
3 23 1286 22
3 1341 875 397
3 359 838 755
3 616 1584 1494
3 901 342 642
3 538 1619 1059
3 1477 520 781
3 1133 802 280
3 491 1432 952
3 714 1189 1569
3 1184 872 340
3 1482 929 394
3 729 1075 416
3 700 627 429
3 1316 1006 420
3 1473 717 1472
3 372 983 1597
3 1078 328 674
3 1592 462 884
3 671 934 203
3 323 1371 758
3 576 1022 218
3 849 1025 1533
3 1049 666 238
3 1102 212 619
3 1553 841 278
3 15 16 1611
3 964 639 307
3 687 240 621
3 489 1050 1297
3 951 355 846
3 1302 465 833
3 710 1354 1353
3 602 299 1306
3 431 1118 816
3 626 1160 1158
3 905 329 653
3 1047 88 981
3 205 1599 1169
3 177 713 176
3 1185 1219 654
3 1383 1315 311
3 1068 427 909
3 659 1279 202
3 1655 1608 352
3 1150 989 378
3 287 1560 991
3 1239 1117 358
3 312 833 1220
3 1409 706 533
3 1222 470 895
3 1475 1183 726
3 1350 971 234
3 1361 1650 550
3 970 856 256
3 283 1495 922
3 411 1639 1550
3 464 750 1042
3 1382 304 1294
3 1505 426 1029
3 1114 437 622
3 735 1503 786
3 1294 1197 514
3 1420 942 320
3 817 1352 770
3 1387 395 834
3 825 491 1416
3 1130 1448 493
3 928 495 874
3 1161 213 914
3 1328 840 394
3 777 1590 379
3 1459 273 1076
3 1085 580 1077
3 456 1659 1206
3 975 375 670
3 44 896 43
3 1105 415 595
3 893 782 390
3 1534 306 893
3 1265 987 729
3 1413 685 966
3 755 838 1112
3 478 672 1339
3 788 385 774
3 746 142 1408
3 103 794 102
3 1107 98 99
3 763 58 1415
3 952 391 953
3 1167 999 377
3 1631 291 1179
3 446 1155 1047
3 1132 380 913
3 686 685 1585
3 255 1517 873
3 368 980 1514
3 326 1326 629
3 1045 860 244
3 1018 414 1538
3 1056 1137 430
3 593 1368 1201
3 817 740 365
3 1236 264 771
3 111 781 110
3 1132 319 835
3 1615 650 1180
3 1371 1686 836
3 475 1331 1380
3 297 1357 597
3 1200 1652 468
3 205 1169 710
3 705 1417 1282
3 1283 768 242
3 1032 800 435
3 591 831 1208
3 1033 800 414
3 1116 1624 443
3 267 1114 1050
3 976 295 561
3 621 1539 327
3 78 874 77
3 1463 636 269
3 1006 1456 499
3 1000 391 871
3 872 65 718
3 243 1643 851
3 1539 621 779
3 874 804 422
3 1601 1061 444
3 611 1025 413
3 318 689 1557
3 848 1260 255
3 1427 1121 722
3 911 353 723
3 1521 183 184
3 1293 1208 440
3 1687 591 1675
3 1565 523 1317
3 1670 797 996
3 1193 441 1034
3 643 24 1335
3 1157 254 1540
3 1378 540 1404
3 116 117 1277
3 1609 674 280
3 1468 894 481
3 412 1045 772
3 577 787 1500
3 465 940 833
3 854 552 682
3 1678 923 1586
3 303 1356 1191
3 658 313 1137
3 32 1222 31
3 1034 1511 301
3 809 1565 1317
3 335 1080 815
3 1057 436 640
3 606 437 1114
3 593 1198 455
3 997 439 968
3 657 317 1195
3 1654 1384 935
3 1559 1059 829
3 642 342 1021
3 1310 965 369
3 1659 18 1206
3 487 856 970
3 1334 628 1273
3 1163 1162 244
3 1186 323 758
3 968 854 201
3 960 1435 405
3 1050 843 267
3 1261 412 772
3 1153 57 763
3 1322 43 896
3 966 598 697
3 1636 1338 192
3 1613 1075 729
3 1548 704 698
3 505 1614 778
3 973 219 749
3 522 709 1449
3 1223 809 229
3 1563 203 1070
3 246 1421 1072
3 1168 711 258
3 1198 747 455
3 676 498 1459
3 1453 1618 760
3 1340 399 1067
3 1197 820 514
3 270 1417 952
3 1124 1005 305
3 163 1641 1147
3 996 164 165
3 876 1360 1092
3 1206 18 19
3 847 214 846
3 1552 454 1414
3 1223 335 809
3 229 1304 907
3 1490 464 1041
3 455 1572 1109
3 698 910 1303
3 937 999 463
3 308 1190 1564
3 1126 1233 421
3 312 662 1143
3 904 1634 1498
3 1251 612 939
3 834 1433 737
3 1031 1341 397
3 811 1167 377
3 226 1257 752
3 943 85 684
3 991 373 585
3 1019 582 232
3 1312 902 237
3 689 902 529
3 1540 254 913
3 1333 443 694
3 842 1568 984
3 1258 693 942
3 650 345 1180
3 1390 321 630
3 561 1597 1296
3 835 319 677
3 390 797 893
3 1641 798 1147
3 426 1349 1029
3 568 213 736
3 956 1058 425
3 451 1489 1485
3 1490 410 1040
3 1639 1431 812
3 687 402 1469
3 718 340 872
3 767 1065 524
3 117 1478 1054
3 260 1526 754
3 885 603 1454
3 1414 454 988
3 877 523 826
3 1610 1491 730
3 513 803 1496
3 281 821 1097
3 1654 699 317
3 321 1390 713
3 1066 255 604
3 1496 803 1033
3 787 1470 1466
3 887 345 650
3 1081 1304 229
3 210 1088 637
3 1408 143 894
3 866 607 337
3 300 1188 589
3 1151 95 1573
3 725 794 343
3 1012 386 807
3 741 1380 209
3 1680 61 62
3 64 872 63
3 1536 845 336
3 971 347 1497
3 1671 148 149
3 1577 156 829
3 1151 773 424
3 1499 725 773
3 796 247 732
3 1044 261 775
3 348 948 909
3 1648 717 1589
3 1135 1628 439
3 1314 1118 651
3 1036 1507 938
3 136 1675 135
3 1409 533 863
3 1177 663 223
3 693 906 320
3 1296 983 231
3 1327 469 769
3 1558 246 1524
3 1184 340 871
3 1411 450 1000
3 1301 1509 861
3 574 334 1149
3 1219 713 419
3 889 1194 386
3 155 156 1577
3 347 1443 828
3 617 685 1413
3 988 337 708
3 691 1669 1502
3 1441 524 1096
3 279 806 1379
3 1567 114 844
3 806 541 1624
3 1157 520 789
3 553 998 403
3 838 197 198
3 1566 44 45
3 493 1447 705
3 1596 977 632
3 985 1154 618
3 1521 185 807
3 941 651 431
3 1140 521 1124
3 34 1140 33
3 219 1125 1334
3 977 1596 346
3 1557 529 786
3 238 918 727
3 1171 567 1034
3 237 689 817
3 1591 264 957
3 786 259 735
3 1038 957 264
3 1091 601 1051
3 741 1332 475
3 369 1413 966
3 1579 1566 45
3 51 52 1392
3 1130 1282 492
3 450 1204 953
3 287 585 1192
3 272 1061 1043
3 1205 279 919
3 673 1576 1199
3 564 813 1253
3 583 1195 699
3 1218 1004 565
3 1264 670 964
3 629 1522 1435
3 839 1570 581
3 1160 579 1159
3 970 256 880
3 788 774 1512
3 1519 1186 758
3 1082 494 784
3 621 1386 1313
3 1404 328 1378
3 1239 844 504
3 1166 438 1507
3 908 427 702
3 829 1059 354
3 1665 1021 724
3 1101 297 598
3 1004 1218 307
3 855 1640 39
3 539 1554 1300
3 1086 423 1595
3 210 1256 828
3 1652 1200 274
3 697 598 297
3 1285 858 282
3 1162 555 1627
3 1373 715 352
3 332 1638 1544
3 733 386 1581
3 865 761 189
3 1369 901 793
3 1186 1673 323
3 492 1282 1204
3 825 600 1432
3 502 973 1212
3 885 770 325
3 1187 1397 1337
3 1375 760 580
3 1008 625 351
3 757 72 73
3 673 1420 1240
3 1359 488 792
3 217 792 1067
3 843 488 791
3 937 1247 748
3 959 368 931
3 479 1246 1178
3 1083 661 236
3 1267 918 238
3 1381 1244 688
3 1137 313 610
3 1564 1190 578
3 402 1013 668
3 1340 1394 399
3 1612 243 930
3 1043 1061 1601
3 2 1112 1
3 1338 191 192
3 1686 323 1657
3 744 1289 1110
3 1031 397 655
3 1341 487 875
3 1038 1614 505
3 235 1435 960
3 1092 1291 442
3 1141 291 1037
3 1545 34 35
3 1437 212 1436
3 1123 1453 417
3 1123 417 709
3 1334 1273 512
3 253 1238 627
3 1329 1037 503
3 618 1154 431
3 295 842 561
3 544 1156 942
3 292 926 1523
3 1503 324 1433
3 1134 583 1115
3 484 858 1285
3 1072 978 246
3 1364 480 1073
3 977 248 632
3 998 553 298
3 479 912 1242
3 1382 1294 514
3 1254 1073 480
3 680 1424 558
3 889 597 248
3 1426 180 181
3 1035 1534 420
3 255 1260 604
3 1143 1136 663
3 1638 821 1637
3 76 1445 75
3 751 1252 462
3 147 734 146
3 1371 323 1686
3 88 89 981
3 380 781 1541
3 1076 1085 409
3 259 1555 903
3 647 350 954
3 569 243 1535
3 1289 247 1110
3 591 1687 831
3 718 65 66
3 1000 241 1411
3 608 660 1232
3 1480 224 1160
3 1401 303 1098
3 1245 1318 615
3 664 986 407
3 1331 1101 783
3 1509 813 564
3 1250 223 1128
3 511 1354 589
3 911 255 873
3 1659 17 18
3 1172 17 1659
3 1210 440 1209
3 526 1595 1442
3 1337 752 474
3 991 1560 543
3 489 1297 1267
3 1592 260 754
3 1657 1465 635
3 228 988 708
3 1403 749 219
3 461 1444 790
3 1150 827 989
3 1595 526 1086
3 241 1000 871
3 41 42 1571
3 508 865 1338
3 870 337 869
3 1491 542 730
3 1609 546 1078
3 462 1257 751
3 1377 1061 272
3 322 1430 1389
3 1324 1285 715
3 87 1047 86
3 343 773 725
3 1178 292 709
3 554 1678 1586
3 250 1393 1062
3 145 146 1298
3 569 930 243
3 428 1161 625
3 1425 506 1493
3 1425 718 66
3 960 405 932
3 1403 853 447
3 596 1421 1558
3 771 264 714
3 324 735 568
3 655 1030 278
3 1368 660 228
3 1084 410 1490
3 997 263 759
3 1262 575 288
3 1292 245 1003
3 571 1299 1211
3 1223 1080 335
3 1279 1280 587
3 970 880 458
3 315 643 1362
3 364 857 1167
3 530 1141 1037
3 1214 1028 460
3 310 750 1266
3 988 454 866
3 1383 944 482
3 694 1506 1333
3 1526 1527 518
3 1167 811 364
3 1485 1489 678
3 236 1214 1083
3 1480 1678 554
3 1384 317 1325
3 1528 683 513
3 1652 846 1484
3 1564 805 308
3 879 1519 261
3 1056 662 232
3 1200 720 466
3 1046 1048 381
3 769 1407 1203
3 1614 264 1236
3 1475 958 305
3 1287 643 315
3 1230 969 400
3 471 1274 1250
3 909 427 908
3 969 810 638
3 1506 1120 641
3 445 1319 1205
3 1649 1120 1506
3 1330 696 211
3 1644 1211 765
3 1142 1141 530
3 1043 476 1594
3 494 1082 1311
3 265 1150 1269
3 1510 1024 586
3 801 1471 1419
3 1582 1551 733
3 1152 923 302
3 517 1363 1144
3 786 1555 259
3 1254 408 1073
3 145 1298 144
3 734 1298 146
3 1314 482 944
3 1444 461 1232
3 1512 774 538
3 1280 1658 293
3 824 1384 1325
3 1668 124 125
3 1363 982 284
3 430 1137 610
3 991 543 990
3 1668 683 1016
3 375 1292 964
3 1030 397 675
3 449 1311 1082
3 1395 1187 606
3 437 1113 622
3 244 1162 772
3 1129 1216 473
3 1394 666 399
3 1388 1008 519
3 825 61 1680
3 72 745 71
3 1282 1417 270
3 56 703 55
3 242 1349 1058
3 1321 1156 544
3 667 395 1017
3 516 1061 1377
3 1482 495 1446
3 1444 660 310
3 1367 224 1480
3 796 732 344
3 1620 538 1559
3 409 1077 1191
3 1523 1305 507
3 1471 882 227
3 1165 650 438
3 1472 1648 333
3 1182 592 227
3 1289 1674 247
3 1165 887 650
3 568 736 324
3 808 1312 603
3 1631 563 1616
3 1518 487 1341
3 356 1276 1607
3 546 920 1610
3 1053 285 680
3 1320 1300 220
3 73 1328 757
3 825 1680 600
3 1454 1312 237
3 760 1618 580
3 1642 1265 729
3 998 995 403
3 1516 863 234
3 746 448 1228
3 898 570 349
3 1305 200 1376
3 1490 201 1084
3 496 747 1360
3 1533 1025 559
3 1067 792 488
3 513 1529 1528
3 633 1148 1022
3 1646 743 939
3 302 923 626
3 831 137 138
3 591 1293 1270
3 1469 402 668
3 605 1307 318
3 485 1375 1085
3 1258 942 222
3 266 753 1216
3 1389 752 322
3 271 929 1446
3 1437 350 647
3 1526 260 819
3 1078 1610 730
3 601 1514 1288
3 1124 470 1140
3 610 711 1168
3 1374 693 599
3 604 1188 300
3 1231 1278 659
3 1502 424 1276
3 357 1120 925
3 889 248 1194
3 1582 733 1581
3 538 1620 1512
3 1677 167 1316
3 549 706 1479
3 1087 868 250
3 248 799 632
3 321 713 1219
3 1309 1224 326
3 1411 241 769
3 1145 664 987
3 1287 1286 643
3 1290 1451 700
3 1631 1037 291
3 1255 887 215
3 1092 442 876
3 549 1479 823
3 1196 1166 649
3 1423 1177 534
3 1347 436 1057
3 779 243 1612
3 1014 1013 402
3 348 1196 907
3 815 205 607
3 815 607 805
3 907 1304 348
3 1208 831 336
3 404 796 886
3 1476 726 979
3 778 1537 376
3 677 251 614
3 1541 781 520
3 1649 925 1120
3 1525 696 1430
3 226 752 1337
3 287 640 1007
3 561 1296 976
3 1117 731 358
3 820 1474 514
3 1391 534 1144
3 429 627 1158
3 434 1351 1343
3 1157 358 731
3 1597 983 1296
3 1501 331 1385
3 1108 1656 551
3 548 1481 1111
3 1533 559 1495
3 513 1496 1529
3 341 706 1409
3 538 774 1619
3 878 1256 210
3 1610 920 216
3 1562 543 919
3 997 968 496
3 876 442 950
3 1439 975 482
3 1357 799 597
3 554 926 1246
3 1178 912 479
3 700 1451 253
3 490 631 1397
3 123 1500 122
3 130 800 129
3 305 623 1183
3 363 1570 839
3 1282 1130 493
3 1241 671 425
3 429 1160 1159
3 1345 1177 223
3 1556 903 1555
3 1356 1089 764
3 570 898 1156
3 374 859 813
3 372 1597 842
3 961 204 1568
3 1383 1438 679
3 675 397 1064
3 1428 412 859
3 1126 421 633
3 1264 862 571
3 1588 456 862
3 183 1521 1427
3 1339 672 1001
3 1326 463 1020
3 418 1053 1554
3 737 1433 324
3 1469 668 1387
3 1349 426 1058
3 1388 268 1008
3 1049 396 743
3 507 1618 1453
3 1299 459 1211
3 1206 563 1179
3 1002 1611 565
3 369 966 697
3 669 238 1394
3 1347 437 994
3 1483 701 1106
3 414 1496 1033
3 885 325 1574
3 1214 811 1028
3 775 590 1044
3 210 1442 1088
3 1655 920 1608
3 1016 683 331
3 274 951 1652
3 1453 1123 507
3 311 682 1629
3 1146 225 826
3 1565 805 523
3 1304 472 1174
3 1605 360 584
3 1105 252 1448
3 1269 590 477
3 1372 702 1370
3 1108 551 921
3 293 1323 1176
3 1566 1547 896
3 1275 1676 594
3 489 843 1050
3 919 543 609
3 1510 1056 232
3 1056 430 662
3 1176 588 776
3 121 787 120
3 265 827 1150
3 933 576 218
3 381 1169 1015
3 182 1427 722
3 477 1492 1068
3 1674 1673 732
3 1687 136 137
3 1248 1097 515
3 630 832 1626
3 911 723 389
3 1127 1083 410
3 461 1242 1235
3 40 1571 855
3 415 1102 619
3 1322 896 370
3 954 350 768
3 978 623 246
3 619 1103 415
3 1264 1604 670
3 339 1332 741
3 685 249 966
3 741 1039 963
3 1111 770 548
3 273 899 1422
3 718 1493 719
3 1184 391 600
3 1421 596 1074
3 376 1284 778
3 1386 621 240
3 1569 1189 392
3 1630 398 1495
3 1522 629 1326
3 1390 175 176
3 710 1048 1354
3 1488 406 665
3 1306 678 406
3 751 1257 226
3 445 1094 1216
3 345 887 1464
3 1564 578 826
3 1353 869 205
3 1412 1080 537
3 1561 543 1562
3 842 1597 561
3 1168 1230 471
3 638 877 225
3 1025 611 200
3 1089 303 1401
3 1356 498 676
3 238 727 1049
3 1277 504 844
3 90 1440 89
3 818 613 1684
3 1096 92 691
3 1368 593 1109
3 1143 662 430
3 838 617 196
3 359 755 1584
3 1170 962 403
3 1666 616 1494
3 1100 723 275
3 431 986 941
3 296 897 1103
3 1124 305 958
3 1062 1504 497
3 1293 440 1248
3 929 1482 1446
3 757 569 745
3 961 622 204
3 396 727 906
3 1553 1554 539
3 646 233 1272
3 1016 124 1668
3 577 1016 1501
3 268 1486 947
3 75 1445 840
3 1550 1315 411
3 1235 1552 608
3 629 1309 326
3 1552 1414 608
3 1189 955 392
3 1633 1244 795
3 1400 1031 655
3 1557 689 529
3 1255 635 1055
3 1225 1110 247
3 444 1061 946
3 1013 666 314
3 941 375 651
3 1101 1104 416
3 692 1302 1227
3 1492 477 775
3 1536 1229 883
3 1316 168 1006
3 1181 1048 592
3 1255 836 635
3 636 1463 501
3 1419 227 592
3 1086 276 620
3 1393 793 901
3 709 912 1178
3 432 1177 1423
3 765 411 1644
3 294 1198 593
3 1192 585 983
3 1007 609 1560
3 1562 919 542
3 814 773 343
3 247 1674 732
3 153 1021 152
3 980 28 29
3 959 27 980
3 455 1109 593
3 857 856 487
3 1153 371 703
3 53 1275 52
3 26 959 1682
3 25 1682 1335
3 1073 619 212
3 350 1437 681
3 797 1677 1316
3 1472 333 882
3 948 202 909
3 848 911 389
3 215 836 1255
3 604 1260 1188
3 503 1616 1207
3 1462 1346 742
3 366 903 1556
3 936 1161 428
3 834 395 1433
3 316 1155 1252
3 511 869 1353
3 1517 419 873
3 236 811 1214
3 41 1571 40
3 1005 1524 623
3 47 1663 917
3 1215 206 861
3 1538 414 1032
3 615 1318 1213
3 330 1317 877
3 1148 633 421
3 202 1243 1068
3 1084 201 854
3 1234 790 224
3 1127 311 661
3 1444 1266 790
3 555 1162 1163
3 1231 457 711
3 899 273 1459
3 582 1115 1095
3 403 995 1645
3 1004 383 1002
3 252 1105 595
3 956 864 392
3 329 1396 1359
3 666 1049 743
3 1422 899 555
3 494 1026 892
3 1099 413 849
3 1568 204 984
3 1227 1143 663
3 1067 399 1014
3 664 245 986
3 294 593 1202
3 1489 1010 235
3 605 1557 786
3 721 179 180
3 552 1628 1135
3 1240 727 918
3 494 1311 1026
3 1253 858 564
3 504 1461 1239
3 368 1514 601
3 675 1064 233
3 740 817 689
3 1242 912 286
3 641 251 677
3 338 835 677
3 1071 1489 235
3 955 956 392
3 1326 1020 1522
3 503 1286 1287
3 1513 980 29
3 1437 1364 212
3 768 350 1407
3 1364 1365 480
3 1127 410 682
3 479 1367 1246
3 1164 972 435
3 683 1668 1623
3 1440 1096 524
3 804 1377 422
3 962 6 7
3 15 1611 1002
3 1642 1104 572
3 482 1438 1383
3 974 792 217
3 395 1387 1017
3 973 1125 219
3 621 327 687
3 1063 864 203
3 955 242 956
3 1122 419 713
3 837 690 172
3 108 1606 107
3 1440 524 981
3 1213 969 638
3 611 413 1098
3 240 737 1386
3 1294 304 1374
3 541 806 1319
3 1405 731 1404
3 380 1483 1106
3 1389 753 1336
3 1094 445 1358
3 1541 520 1540
3 1636 965 1310
3 389 847 848
3 571 1604 1264
3 1343 664 1145
3 1501 1263 577
3 1500 1016 577
3 1214 460 575
3 932 841 453
3 358 1157 789
3 95 1151 94
3 229 649 1036
3 877 1317 523
3 763 57 58
3 1676 54 1603
3 434 1343 1145
3 1380 741 475
3 1583 492 1204
3 1605 252 739
3 347 971 756
3 1658 467 1450
3 874 79 804
3 1386 401 1313
3 747 968 201
3 1232 660 1444
3 1576 673 562
3 748 253 937
3 1169 1599 536
3 537 1080 1223
3 1176 1280 293
3 1128 1168 471
3 1455 1035 499
3 1473 1472 500
3 178 1122 177
3 1581 386 1194
3 452 771 714
3 220 979 1193
3 254 731 1405
3 1268 230 624
3 339 632 1332
3 618 816 361
3 1182 1181 592
3 1677 797 1670
3 852 851 428
3 930 394 929
3 65 872 64
3 1535 243 851
3 866 308 607
3 466 1202 1201
3 721 180 1426
3 1551 1121 525
3 362 881 597
3 1685 1593 419
3 1169 381 710
3 712 1182 227
3 147 148 1452
3 1021 1665 152
3 109 1664 108
3 794 1667 613
3 1051 1053 418
3 36 1399 1011
3 1321 976 570
3 1111 560 850
3 453 1600 960
3 1554 1053 680
3 1439 375 975
3 1331 475 1357
3 1379 540 1378
3 1649 1217 211
3 1624 1116 806
3 1094 1358 436
3 828 1442 210
3 798 996 390
3 881 508 697
3 889 1308 362
3 1059 290 867
3 828 1256 989
3 1063 1563 452
3 1429 568 1366
3 299 602 808
3 239 820 1197
3 1377 927 422
3 449 927 1531
3 130 1164 800
3 624 1385 1268
3 252 1139 739
3 1222 33 1140
3 749 1403 1224
3 1049 727 396
3 1582 1581 528
3 511 870 869
3 1332 799 475
3 1613 407 985
3 240 1469 1387
3 902 689 237
3 1256 378 989
3 642 354 901
3 1295 652 1009
3 1583 1203 681
3 734 481 1298
3 1559 158 1620
3 1572 310 660
3 1368 228 1201
3 817 365 1352
3 1290 1159 288
3 736 213 936
3 748 1238 253
3 1238 447 1237
3 1041 464 1042
3 725 97 98
3 490 1396 631
3 542 1378 730
3 1664 701 1606
3 1567 113 114
3 1467 752 1257
3 641 677 319
3 1133 504 1054
3 1 1112 199
3 1666 1170 616
3 1173 527 1647
3 868 793 250
3 852 625 268
3 1281 82 946
3 227 882 712
3 1027 576 933
3 722 181 182
3 335 805 1565
3 472 810 1175
3 795 612 1382
3 245 664 1343
3 389 1348 847
3 1546 370 897
3 368 601 1091
3 681 1436 1583
3 469 1407 769
3 1123 709 292
3 1505 213 568
3 853 1237 447
3 1644 679 1438
3 1467 322 752
3 1669 1151 1502
3 356 767 1441
3 1526 518 1525
3 1388 1486 268
3 1038 1254 480
3 1058 426 785
3 1447 967 371
3 449 974 1311
3 1431 856 364
3 1421 408 1072
3 1600 1071 235
3 599 693 1258
3 522 945 1146
3 1649 1506 694
3 106 1684 105
3 836 1686 635
3 250 1406 1087
3 776 588 1635
3 1243 477 1068
3 309 1372 648
3 588 1323 1027
3 719 1493 1486
3 757 1328 394
3 1511 1034 441
3 285 1221 1424
3 422 928 874
3 1445 77 874
3 1077 200 611
3 399 666 1013
3 1573 96 1499
3 1106 781 380
3 1536 336 1229
3 164 1641 163
3 1462 950 478
3 975 670 221
3 1425 1493 718
3 1344 316 1060
3 1485 1212 451
3 1349 652 1029
3 1099 849 560
3 770 1111 325
3 280 900 1609
3 1529 1496 1018
3 642 1577 354
3 1471 227 1419
3 334 802 1470
3 900 1608 546
3 228 1414 988
3 1085 1375 580
3 667 1381 395
3 329 1359 792
3 1576 842 295
3 1267 1297 393
3 1173 756 527
3 157 829 156
3 97 1499 96
3 93 94 1669
3 1070 406 728
3 1273 922 512
3 901 354 1393
3 1361 949 290
3 1647 527 1536
3 1492 427 1068
3 382 620 916
3 162 163 1147
3 416 783 1101
3 618 209 985
3 699 1654 556
3 1293 1248 515
3 277 1015 1412
3 1456 170 1402
3 674 1461 280
3 358 1567 844
3 1623 513 683
3 128 129 1033
3 78 79 874
3 1601 476 1043
3 1449 709 417
3 908 348 909
3 674 1609 1078
3 1263 787 577
3 807 386 733
3 1012 186 187
3 502 1574 1125
3 1111 850 325
3 284 982 1318
3 261 1519 758
3 330 809 1317
3 1036 1223 229
3 1069 708 337
3 1550 661 1315
3 627 1238 1237
3 1660 1207 563
3 657 1215 858
3 374 813 1509
3 1549 993 606
3 316 684 1155
3 1042 455 1041
3 720 468 1291
3 965 193 194
3 1628 854 968
3 1356 676 1191
3 780 1197 510
3 773 1573 1499
3 1606 338 818
3 695 1116 443
3 1405 1404 540
3 808 366 1312
3 1099 780 413
3 699 1126 289
3 135 1675 1270
3 1248 440 1210
3 1115 289 1095
3 1148 218 1022
3 1637 281 1119
3 583 289 1115
3 935 1384 486
3 61 1416 60
3 625 1008 268
3 658 1510 1450
3 1345 517 1144
3 140 141 1228
3 1223 1036 537
3 1620 158 159
3 341 933 706
3 1021 342 724
3 155 1577 154
3 1210 1119 281
3 154 1577 642
3 1087 423 620
3 1675 591 1270
3 1648 1472 717
3 836 648 483
3 587 1176 776
3 1457 764 222
3 666 743 314
3 936 401 736
3 328 1117 674
3 1106 701 1664
3 1673 1657 323
3 775 1418 1492
3 1066 1517 255
3 1473 1455 717
3 1170 5 6
3 195 196 1578
3 1448 967 1447
3 1546 839 581
3 74 75 1328
3 495 1445 874
3 376 1537 979
3 1309 749 1224
3 640 1192 372
3 984 372 842
3 1381 667 207
3 260 1592 884
3 766 814 251
3 115 844 114
3 497 949 637
3 1088 423 637
3 950 672 478
3 870 1355 274
3 1517 1066 654
3 911 848 255
3 1426 181 722
3 1426 722 353
3 603 885 502
3 626 923 1678
3 560 1481 1099
3 850 628 325
3 1446 928 271
3 1535 851 379
3 1662 777 70
3 1679 62 63
3 973 749 451
3 1429 785 426
3 262 1314 1543
3 816 1118 262
3 1558 1421 246
3 917 1579 46
3 857 364 856
3 1247 937 463
3 1616 563 1207
3 1431 364 812
3 860 1301 465
3 1018 822 257
3 1253 573 1108
3 1683 992 373
3 556 1654 1653
3 1174 1175 457
3 1156 222 942
3 935 738 257
3 1179 862 456
3 670 375 964
3 776 1635 1269
3 746 1228 141
3 1591 714 264
3 902 1556 529
3 998 572 995
3 1582 891 275
3 579 288 1159
3 750 288 579
3 161 1147 788
3 893 797 420
3 828 1443 1442
3 620 868 1087
3 1598 532 1015
3 511 1355 870
3 1572 455 1042
3 1615 1180 1598
3 268 947 852
3 647 954 367
3 1000 450 953
3 1662 71 745
3 1042 750 310
3 1100 1348 389
3 653 272 905
3 1252 1155 884
3 856 1249 256
3 1271 1272 458
3 1348 1001 214
3 869 337 607
3 1274 1230 400
3 912 709 522
3 404 1225 796
3 1651 1650 774
3 867 1504 1062
3 533 1210 1209
3 1682 25 26
3 22 1286 21
3 1578 1413 965
3 816 716 361
3 1593 721 1426
3 1589 717 1455
3 883 1647 1536
3 1468 1408 894
3 211 925 1649
3 1669 691 93
3 1334 853 219
3 864 671 203
3 1370 702 1418
3 788 1147 385
3 1673 634 1657
3 1412 536 1080
3 604 300 1181
3 390 782 744
3 1075 783 416
3 1154 986 431
3 1103 595 415
3 521 1005 1124
3 1100 275 566
3 1685 1122 1672
3 562 673 1575
3 1013 314 668
3 879 378 878
3 1620 159 1512
3 157 1559 829
3 916 746 382
3 384 890 1524
3 623 305 1005
3 896 1547 370
3 1579 656 1566
3 1322 581 1571
3 1011 1545 35
3 1076 409 676
3 780 1401 1098
3 805 607 308
3 1191 1098 303
3 1478 1466 547
3 802 1133 547
3 1418 261 1370
3 483 1371 836
3 1098 413 780
3 240 834 737
3 853 1334 512
3 502 1125 973
3 1229 830 448
3 527 845 1536
3 1387 834 240
3 444 946 943
3 903 366 671
3 936 213 1161
3 810 330 638
3 1036 938 537
3 908 309 1196
3 578 1146 826
3 232 662 1019
3 388 576 1023
3 704 434 698
3 1380 1331 783
3 733 1551 525
3 353 1593 1426
3 1627 772 1162
3 1450 586 1658
3 835 1483 1132
3 1129 1625 541
3 1327 241 915
3 768 1407 469
3 707 401 936
3 351 1295 915
3 1165 648 215
3 904 827 265
3 1676 1603 594
3 1153 56 57
3 582 1019 387
3 1395 490 1187
3 573 813 1520
3 1007 640 436
3 317 657 1325
3 738 1529 257
3 858 1253 282
3 1561 1562 1491
3 1630 926 1586
3 417 1245 945
3 1533 1495 283
3 1246 292 1178
3 1573 95 96
3 1065 767 260
3 1549 1187 474
3 694 443 1217
3 1309 629 1010
3 580 1376 1077
3 81 82 1281
3 449 1531 974
3 1131 449 1082
3 316 1602 1060
3 1621 1539 784
3 1252 1602 316
3 1203 1411 769
3 1043 905 272
3 530 1037 1329
3 1329 1271 880
3 1574 325 628
3 1320 1193 567
3 822 1018 1538
3 904 265 1635
3 1433 395 1307
3 1236 441 778
3 1148 1544 823
3 1528 1385 331
3 1394 238 666
3 785 1429 1366
3 429 1159 700
3 1596 1346 478
3 887 1255 501
3 578 1410 1146
3 906 1251 396
3 1469 240 687
3 116 1277 115
3 921 352 715
3 20 1207 1660
3 19 1660 1206
3 1240 1575 673
3 1458 898 349
3 82 83 946
3 91 92 1096
3 1242 1234 479
3 1462 742 263
3 1201 228 708
3 809 1508 1081
3 1344 444 943
3 1387 668 1017
3 777 69 70
3 569 394 930
3 663 1136 223
3 286 1552 1235
3 886 878 210
3 1147 798 385
3 1084 854 682
3 891 1582 528
3 847 846 355
3 873 353 911
3 1000 953 391
3 379 1590 1535
3 493 705 1282
3 953 270 952
3 1009 652 1349
3 1365 367 957
3 1124 958 470
3 864 956 425
3 1070 1306 406
3 1161 914 625
3 728 1259 452
3 808 603 299
3 521 1140 1545
3 31 895 30
3 959 26 27
3 487 1518 857
3 1052 1030 675
3 1010 1435 235
3 669 843 489
3 653 792 974
3 891 977 346
3 1494 755 3
3 1093 672 442
3 1093 214 1001
3 1039 618 361
3 1154 407 986
3 881 697 297
3 1585 359 1584
3 5 1170 1666
3 528 977 891
3 1663 47 48
3 739 360 1605
3 575 1290 288
3 816 262 716
3 1412 938 277
3 692 1163 244
3 1189 714 1591
3 748 447 1238
3 1595 423 1088
3 831 138 830
3 1164 132 972
3 131 132 1164
3 1063 203 1563
3 1622 560 849
3 707 936 428
3 905 631 329
3 1616 1037 1631
3 531 1362 1335
3 1428 374 860
3 412 1296 859
3 184 185 1521
3 1012 188 761
3 1074 596 296
3 1193 1320 220
3 39 1640 38
3 1476 1475 726
3 1052 278 1030
3 895 1513 30
3 87 88 1047
3 343 614 814
3 1321 1199 295
3 1617 693 304
3 393 961 1575
3 976 1321 295
3 373 990 1656
3 412 1261 976
3 1075 985 209
3 1039 741 209
3 698 10 11
3 362 1398 881
3 1003 383 639
3 995 249 686
3 1262 464 1040
3 522 1410 912
3 1508 809 330
3 586 388 1023
3 1268 824 230
3 230 1149 624
3 1379 1378 542
3 287 1007 1560
3 1478 547 1054
3 1267 393 918
3 1576 295 1199
3 1358 445 1205
3 562 1568 842
3 900 280 802
3 1611 1172 565
3 1194 248 977
3 550 1650 1651
3 782 1465 634
3 747 1041 455
3 997 716 439
3 729 407 1613
3 4 1666 1494
3 253 1090 937
3 941 245 1292
3 584 360 594
3 1203 1583 450
3 419 1593 873
3 339 963 742
3 1642 729 416
3 1632 14 1002
3 1360 747 1198
3 812 236 1550
3 1179 291 862
3 1588 1264 307
3 647 1365 1364
3 1011 35 36
3 888 1464 1463
3 1463 1473 888
3 609 1007 1358
3 754 322 1467
3 871 1542 1515
3 1621 784 494
3 1283 242 955
3 242 1058 956
3 778 441 1537
3 326 1224 748
3 1011 1399 384
3 1554 1052 418
3 1308 386 1012
3 188 189 761
3 1602 476 1060
3 786 1503 605
3 213 1029 914
3 1594 476 1342
3 589 355 951
3 758 1371 483
3 1263 624 1149
3 1623 125 126
3 426 1505 1429
3 678 1306 1485
3 123 124 1016
3 800 1032 414
3 587 1280 1176
3 517 1345 1250
3 1292 1003 639
3 629 1435 1010
3 151 152 1665
3 756 1443 347
3 1638 1637 549
3 1024 388 586
3 1056 1510 658
3 1516 234 971
3 374 1509 1301
3 313 1231 711
3 850 560 1622
3 244 1460 692
3 1646 314 743
3 1381 1307 395
3 467 659 1278
3 659 457 1231
3 559 1025 1532
3 1135 439 716
3 1241 425 785
3 324 736 737
3 1514 980 1513
3 539 841 1553
3 1341 1031 1518
3 1053 1288 285
3 435 821 1032
3 1263 1501 624
3 1325 657 484
3 1220 833 387
3 1474 1633 795
3 505 1072 1254
3 169 1456 168
3 1534 1055 306
3 309 702 1372
3 1449 945 522
3 1587 459 1249
3 1329 880 530
3 934 671 366
3 688 1307 1381
3 963 361 759
3 1543 1135 262
3 1273 628 850
3 431 816 618
3 1572 660 1109
3 410 1084 682
3 1367 554 1246
3 1212 973 451
3 80 1281 804
3 79 80 804
3 1512 159 160
3 258 969 1230
3 1045 244 772
3 1681 1373 352
3 442 672 950
3 837 174 630
3 754 1467 1592
3 1342 751 226
3 1353 1354 511
3 1354 300 589
3 1244 740 688
3 1114 622 1050
3 939 743 396
3 217 1014 1026
3 1037 1616 503
3 1271 1329 315
3 1320 539 1300
3 1476 680 558
3 1247 326 748
3 1571 581 1570
3 1277 1054 504
3 551 1580 1655
3 1686 1657 635
3 1182 712 433
3 1564 826 523
3 662 1220 1019
3 1575 961 1568
3 365 1633 1474
3 1063 392 864
3 1189 367 955
3 144 894 143
3 147 1452 734
3 260 884 1065
3 1043 1594 905
3 1602 1252 751
3 791 488 1359
3 1044 590 378
3 1443 526 1442
3 548 820 1481
3 367 1591 957
3 1682 531 1335
3 1064 397 875
3 518 1527 925
3 1276 424 766
3 1507 649 1166
3 710 381 1048
3 1539 1612 535
3 1363 485 1144
3 1027 933 341
3 1095 633 1022
3 263 1434 876
3 1201 708 466
3 602 1306 1070
3 1284 1072 505
3 1334 1125 628
3 1283 367 954
3 581 1322 1546
3 656 739 1547
3 1254 1038 505
3 557 1514 1513
3 360 739 656
3 480 957 1038
3 553 910 298
3 298 987 1265
3 1152 853 512
3 1403 447 1224
3 507 1376 1618
3 1237 1158 627
3 1560 609 543
3 1373 1149 230
3 1414 228 608
3 466 708 1069
3 1274 982 517
3 438 1166 648
3 1279 587 1243
3 1255 1055 501
3 1539 535 784
3 612 207 939
3 759 263 742
3 1135 1543 552
3 1484 1291 468
3 1490 1040 464
3 1532 644 559
3 1423 534 1422
3 1173 526 756
3 423 1086 620
3 1208 336 845
3 1110 385 744
3 868 620 382
3 1209 845 234
3 1459 1076 676
3 1014 217 1067
3 1586 926 554
3 566 346 1001
3 1130 492 1102
3 545 1431 1639
3 439 1628 968
3 988 866 337
3 1427 525 1121
3 191 865 190
3 789 113 1567
3 1336 266 993
3 312 1143 1227
3 699 289 583
3 90 91 1440
3 1684 1667 105
3 497 1504 949
3 823 218 1148
3 644 1532 1305
3 1244 207 795
3 1212 603 502
3 1025 849 413
3 528 1581 1194
3 1471 801 500
3 1351 383 1003
3 1104 1642 416
3 569 1535 745
3 825 1416 61
3 1275 594 645
3 1288 1053 601
3 248 597 799
3 572 1265 1642
3 1105 1130 415
3 703 584 594
3 1440 91 1096
3 701 338 1606
3 1669 94 1151
3 1226 613 818
3 1324 484 1285
3 822 1233 257
3 660 608 228
3 400 982 1274
3 1316 167 168
3 1650 1361 290
3 398 1630 1586
3 1396 791 1359
3 199 1112 198
3 616 1585 1584
3 990 543 1561
3 1057 640 984
3 1065 981 524
3 226 1397 1342
3 1134 206 583
3 1529 1018 257
3 1378 328 730
3 520 1477 789
3 287 991 585
3 802 334 574
3 651 1439 1314
3 1632 383 704
3 1086 526 1173
3 1634 588 1027
3 1441 1276 356
3 1624 1217 443
3 1685 721 1593
3 882 500 1472
3 1589 690 1648
3 1200 1069 274
3 1227 663 432
3 1587 1211 459
3 1475 305 1183
3 1103 897 595
3 1438 975 221
3 1622 849 1533
3 1164 435 800
3 556 1126 699
3 346 1339 1001
3 224 1367 1234
3 1423 1163 432
3 1144 534 1345
3 641 1120 357
3 753 266 1336
3 1295 1009 469
3 1448 1447 493
3 1602 1342 476
3 779 1612 1539
3 1379 806 540
3 1216 1129 445
3 1263 1149 334
3 373 1656 1683
3 1279 1243 202
3 1253 1108 282
3 1290 700 1159
3 1550 236 661
3 1213 225 615
3 1627 899 1458
3 1450 1278 658
3 578 1079 1410
3 1525 322 754
3 322 1525 1430
3 763 491 705
3 647 367 1365
3 895 1221 557
3 32 33 1222
3 1020 1400 405
3 291 1141 1299
3 24 643 23
3 841 567 453
3 225 1213 638
3 1146 945 225
3 1190 454 1079
3 467 1658 1280
3 1264 964 307
3 3 755 2
3 1457 222 898
3 335 815 805
3 1035 420 1006
3 276 1647 883
3 332 1544 1538
3 341 1634 1027
3 230 1324 1373
3 1117 1404 731
3 908 702 309
3 1492 1418 427
3 106 107 1606
3 1047 981 446
3 644 926 1630
3 735 324 1503
3 350 681 1203
3 763 705 371
3 812 811 236
3 672 1093 1001
3 1441 691 1276
3 1340 1067 488
3 320 942 693
3 1094 436 994
3 766 424 814
3 787 1263 334
3 288 750 1262
3 1480 554 1367
3 1237 1152 302
3 302 1158 1237
3 410 1083 1040
3 1523 926 644
3 1026 1311 217
3 852 379 851
3 1374 1089 510
3 599 1258 764
3 1458 1457 898
3 898 222 1156
3 1530 1270 515
3 1638 549 823
3 1046 1015 532
3 1175 810 258
3 1323 1023 576
3 1353 205 710
3 1434 496 1360
3 765 1639 411
3 1220 662 312
3 471 1250 1128
3 1196 309 1166
3 294 720 1092
3 7 8 962
3 1645 686 1585
3 665 406 1071
3 512 922 1152
3 411 1315 679
3 1383 311 944
3 1298 481 894
3 139 830 138
3 1510 586 1450
3 634 1673 1674
3 1627 1458 349
3 638 330 877
3 467 1280 1279
3 1230 1274 471
3 1168 1128 610
3 1220 387 1019
3 1266 750 579
3 1326 326 1247
3 1351 434 704
3 1660 563 1206
3 1406 637 423
3 1180 801 532
3 381 1015 1046
3 1648 690 837
3 1419 1046 532
3 837 1626 333
3 1011 384 1005
3 1537 441 1193
3 1432 600 391
3 69 1487 68
3 1185 1066 433
3 1593 353 873
3 1651 774 385
3 1677 166 167
3 1526 1525 754
3 669 1267 238
3 1036 649 1507
3 1015 277 1598
3 1591 367 1189
3 771 1259 1511
3 1081 229 809
3 1458 498 1457
3 1481 820 239
3 1374 304 693
3 657 1195 206
3 1520 813 859
3 1236 1511 441
3 1600 235 960
3 339 742 1346
3 566 1348 1100
3 1032 821 332
3 860 465 1460
3 511 589 1355
3 1213 400 969
3 239 780 1099
3 1197 780 239
3 274 1355 951
3 1360 1198 294
3 320 906 727
3 1633 740 1244
3 466 1069 1200
3 300 1048 1181
3 1190 866 454
3 997 1434 263
3 648 1165 438
3 294 1202 720
3 852 947 379
3 777 1487 69
3 705 491 1417
3 270 953 1204
3 1477 111 112
3 1319 279 1205
3 571 1211 1604
3 661 311 1315
3 1286 1207 21
3 503 1207 1286
3 1229 448 883
3 336 830 1229
3 435 972 1097
3 388 1095 1022
3 1209 234 863
3 587 776 1243
3 1075 1613 985
3 880 1142 530
3 1542 871 340
3 406 1488 728
3 232 1024 1510
3 1278 1231 313
3 790 1234 461
3 626 1158 302
3 387 1134 1115
3 206 1195 583
3 473 753 1430
3 518 696 1525
3 1389 1430 753
3 1625 1624 541
3 1292 639 964
3 1629 944 311
3 1069 870 274
3 654 1219 1517
3 860 1460 244
3 1363 284 1375
3 23 643 1286
3 999 937 377
3 646 1272 1271
3 839 596 363
3 1455 269 1035
3 658 1137 1056
3 1167 857 208
3 1224 447 748
3 1512 160 788
3 166 1670 165
3 773 814 424
3 1106 109 110
3 938 1412 537
3 1453 760 1245
3 1497 347 827
3 1530 134 1270
3 746 916 448
3 133 1530 132
3 982 1363 517
3 1565 809 335
3 1498 341 1409
3 284 1318 1245
3 1041 747 201
3 1444 310 1266
3 582 1095 1024
3 1460 465 1302
3 1652 951 846
3 1242 286 1235
3 626 1678 1480
3 661 1083 1127
3 514 1474 1382
3 1309 451 749
3 679 1315 1383
3 1111 1481 560
3 1451 1090 253
3 545 856 1431
3 1116 540 806
3 1610 216 1491
3 772 349 1261
3 992 1520 231
3 603 1212 299
3 1574 628 1125
3 1069 337 870
3 969 258 810
3 1068 909 202
3 1323 576 1027
3 785 1366 1241
3 1251 1617 304
3 899 1459 1458
3 912 1410 286
3 330 810 1508
3 1250 1345 223
3 960 932 453
3 665 1171 1488
3 1369 734 342
3 1393 867 1062
3 959 931 531
3 970 875 487
3 833 1134 387
3 1375 284 760
3 764 1258 222
3 432 1163 692
3 631 1396 329
3 444 1344 1060
3 556 1653 1233
3 992 983 585
3 1583 1436 492
3 1432 491 825
3 348 1304 1174
3 648 1372 483
3 1110 1651 385
3 215 648 836
3 476 1601 1060
3 1395 1114 267
3 1374 510 1294
3 207 1646 939
3 246 623 1524
3 1284 505 778
3 720 1200 468
3 592 1048 1046
3 1345 534 1177
3 994 437 993
3 1484 214 1093
3 460 1090 1451
3 1683 1108 573
3 1656 1580 551
3 962 1661 553
3 565 1004 1002
3 197 838 196
3 1611 16 1172
3 944 1629 552
3 417 1453 1245
3 1481 239 1099
3 1340 843 669
3 1384 824 486
3 1333 319 1132
3 649 907 1196
3 142 746 141
3 1208 845 440
3 133 134 1530
3 980 27 28
3 1249 459 1142
3 875 1272 1064
3 567 841 1320
3 1391 1076 273
3 1352 365 820
3 1079 1552 286
3 430 610 1136
3 1392 48 49
3 1547 739 1139
3 1106 1664 109
3 86 1047 684
3 992 1683 573
3 504 1133 1461
3 1136 610 1128
3 1274 517 1250
3 1544 822 1538
3 1538 1032 332
3 527 1350 845
3 1269 1150 590
3 83 84 943
3 892 1026 402
3 895 470 1221
3 1221 470 958
3 1515 241 871
3 770 1454 237
3 1474 795 1382
3 595 897 1139
3 486 824 1268
3 657 206 1215
3 1271 458 880
3 563 1631 1179
3 1329 503 1287
3 1488 1259 728
3 1247 463 1326
3 934 808 602
3 1456 1402 499
3 1147 161 162
3 496 968 747
3 655 932 405
3 275 1551 1582
3 1360 294 1092
3 1314 1439 482
3 1310 697 508
3 1498 1634 341
3 1270 1293 515
3 1273 283 922
3 1143 430 1136
3 351 652 1295
3 1486 506 947
3 858 1215 564
3 772 1627 349
3 1337 1397 226
3 843 1340 488
3 1173 1647 276
3 734 724 342
3 307 639 1004
3 1039 209 618
3 931 1091 233
3 778 1614 1236
3 1285 282 921
3 1428 860 1045
3 720 1202 466
3 1627 555 899
3 8 9 1661
3 986 245 941
3 1508 810 472
3 1227 1302 312
3 1240 320 727
3 510 1401 780
3 1152 922 398
3 678 1489 1071
3 519 1542 1388
3 1241 259 903
3 566 275 891
3 1343 1003 245
3 368 1091 931
3 301 1171 1034
3 697 1310 369
3 1338 865 191
3 905 1594 631
3 1313 707 779
3 452 1563 728
3 1532 1025 200
3 779 707 243
3 687 327 892
3 759 716 997
3 1357 475 799
3 1495 398 922
3 1083 575 1040
3 532 1598 1180
3 1370 261 758
3 1175 258 711
3 472 1175 1174
3 457 1175 711
3 1136 1128 223
3 606 1187 1549
3 819 1527 1526
3 1052 1554 1553
3 1071 406 678
3 462 1467 1257
3 1296 231 859
3 855 762 1640
3 917 656 1579
3 1658 1023 293
3 1635 1634 904
3 1466 120 787
3 230 824 1324
3 844 1239 358
3 683 1528 331
3 233 1091 1051
3 1574 502 885
3 72 757 745
3 653 1531 272
3 1487 506 1425
3 1328 75 840
3 1553 278 1052
3 875 970 458
3 924 251 641
3 614 613 1226
3 1331 297 1101
3 359 685 617
3 759 361 716
3 987 407 729
3 1113 1057 204
3 1216 1094 266
3 1622 1273 850
3 1505 568 1429
3 458 1272 875
3 931 233 646
3 1506 641 319
3 1217 1649 694
3 609 1205 919
3 993 437 606
3 298 1265 998
3 1398 865 508
3 1484 1093 1291
3 431 651 1118
3 267 791 1395
3 924 766 251
3 1639 765 545
3 418 675 1051
3 691 1441 1096
3 393 1297 961
3 478 1346 1462
3 1639 812 1550
3 1601 444 1060
3 927 449 1131
3 457 659 948
3 1191 1077 611
3 632 1346 1596
3 1380 783 209
3 1397 1187 490
3 1113 204 622
3 468 1652 1484
3 1169 536 1015
3 452 1569 1063
3 366 808 934
3 989 827 347
3 1350 756 971
3 565 1172 1218
3 639 383 1004
3 409 1085 1077
3 422 1131 928
3 1266 579 790
3 1291 1093 442
3 536 1599 1080
3 604 1181 433
3 1262 750 464
3 1615 938 438
3 644 1630 559
3 1391 273 1422
3 1351 1003 1343
3 1346 632 339
3 814 614 251
3 900 802 574
3 329 792 653
3 784 929 271
3 1109 660 1368
3 1260 355 1188
3 1406 250 1062
3 290 1619 1650
3 1362 643 1335
3 1272 233 1064
3 1321 544 1199
3 692 1460 1302
3 681 1437 1436
3 1364 1073 212
3 1569 392 1063
3 1365 957 480
3 453 567 1171
3 1485 1306 299
3 805 1564 523
3 1508 472 1081
3 1090 1028 377
3 1348 214 847
3 1465 782 306
3 1559 157 158
3 1225 550 1110
3 879 344 1519
3 1185 433 712
3 215 887 1165
3 1119 1210 533
3 589 1188 355
3 921 1655 352
3 1653 935 257
3 1391 1144 485
3 1617 1251 906
3 205 869 607
3 1523 1123 292
3 1523 644 1305
3 1294 510 1197
3 314 1017 668
3 840 1445 495
3 925 211 696
3 1253 813 573
3 287 1192 640
3 976 1296 412
3 998 1265 572
3 1145 910 434
3 1366 259 1241
3 1251 939 396
3 740 689 318
3 612 304 1382
3 765 1211 1587
3 1160 429 1158
3 1478 119 1466
3 803 126 127
3 940 861 206
3 1470 802 547
3 735 259 1366
3 707 428 1643
3 1082 784 271
3 1013 1014 399
3 1436 212 1102
3 371 1153 763
3 1319 1129 541
3 1483 338 701
3 690 171 172
3 389 723 1100
3 1076 1391 485
3 1618 1376 580
3 917 46 47
3 1139 252 595
3 1452 148 1671
3 989 347 828
3 1089 1374 599
3 271 1131 1082
3 1420 1199 544
3 1297 1050 622
3 1420 320 1240
3 1281 516 804
3 752 1389 474
3 993 266 994
3 807 186 1012
3 1357 297 1331
3 37 38 1399
3 855 1571 1570
3 219 853 1403
3 1020 463 999
3 1312 366 902
3 544 942 1420
3 832 630 321
3 169 170 1456
3 405 1400 655
3 1167 208 999
3 1404 1117 328
3 574 1373 1681
3 254 1157 731
3 254 1405 1116
3 1269 1635 265
3 1059 1619 290
3 367 1283 955
3 605 1503 1433
3 1559 538 1059
3 1595 1088 1442
3 591 1208 1293
3 1248 281 1097
3 578 1190 1079
3 1152 1237 853
3 1029 213 1505
3 703 371 584
3 636 501 1055
3 483 1372 1370
3 965 1413 369
3 359 617 838
3 1355 589 951
3 1261 570 976
3 1590 745 1535
3 1679 600 1680
3 1416 1415 59
3 60 1416 59
3 1415 58 59
3 379 947 777
3 907 649 229
3 258 1230 1168
3 1402 171 690
3 604 433 1066
3 436 1358 1007
3 906 693 1617
3 1558 363 596
3 1011 1005 521
3 764 498 1356
3 1376 507 1305
3 1290 575 460
3 1458 1459 498
3 363 890 762
3 680 1476 1300
3 1009 768 469
3 62 1679 1680
3 888 1473 500
3 508 1338 1310
3 889 386 1308
3 525 1521 733
3 1422 534 1391
3 859 374 1428
3 1600 453 665
3 1307 688 318
3 1333 1506 319
3 1441 767 524
3 1135 716 262
3 1518 208 857
3 1432 391 952
3 719 340 718
3 437 1347 1113
3 490 791 1396
3 1596 1339 346
3 963 339 741
3 283 1622 1533
3 1587 545 765
3 1640 762 1399
3 31 1222 895
3 1662 745 1590
3 1102 492 1436
3 1211 1644 221
3 704 383 1351
3 1090 377 937
3 21 1207 20
3 691 1502 1276
3 1155 684 1047
3 1389 1336 474
3 518 925 696
3 1465 1055 635
3 1530 515 972
3 788 160 161
3 438 938 1507
3 1213 1318 400
3 570 1156 1321
3 751 1342 1602
3 74 1328 73
3 1433 1307 605
3 535 1612 930
3 1139 897 370
3 1603 55 703
3 1603 54 55
3 1663 1392 645
3 945 615 225
3 1028 811 377
3 1024 232 582
3 1279 659 467
3 224 579 1160
3 1454 603 1312
3 404 1361 1225
3 151 1665 149
3 1245 615 945
3 1123 1523 507
3 1010 451 1309
3 770 1352 548
3 174 175 630
3 630 175 1390
3 837 172 173
3 888 500 801
3 1235 608 1232
3 1089 1401 510
3 599 764 1089
3 1191 676 409
3 1251 304 612
3 498 764 1457
3 1057 984 204
3 1261 349 570
3 640 372 984
3 1108 921 282
3 1339 1596 478
3 1332 632 799
3 497 637 1406
3 732 1673 1186
3 277 1615 1598
3 801 1419 532
3 1406 423 1087
3 949 404 637
3 1655 1580 920
3 118 119 1478
3 819 357 1527
3 1607 1276 766
3 1671 724 1452
3 1408 382 746
3 687 892 402
3 351 625 914
3 1610 1078 546
3 115 1277 844
3 1180 345 801
3 1464 887 501
3 848 847 355
3 634 1674 1289
3 1390 176 713
3 886 344 878
3 795 207 612
3 559 1630 1495
3 558 1475 1476
3 855 39 40
3 978 1183 623
3 220 1476 979
3 913 254 695
3 913 1541 1540
3 1470 787 334
3 858 484 657
3 421 1544 1148
3 1024 1095 388
3 1246 926 292
3 692 1227 432
3 237 817 770
3 737 736 401
3 81 1281 80
3 1531 927 272
3 1609 900 546
3 1226 818 338
3 1412 1015 536
3 1672 721 1685
3 451 1010 1489
3 934 602 203
3 928 1446 495
3 394 840 1482
3 757 394 569
3 68 1487 67
3 839 296 596
3 1485 299 1212
3 278 841 932
3 665 1071 1600
3 1232 461 1235
3 1083 1214 575
3 562 842 1576
3 1133 1054 547
3 1658 586 1023
3 313 658 1278
3 1425 66 67
3 1679 872 600
3 1303 910 553
3 249 995 572
3 201 1490 1041
3 460 1451 1290
3 1119 706 549
3 1501 1016 331
3 1166 309 648
3 509 1497 827
3 1687 137 831
3 1516 1498 863
3 108 1664 1606
3 1107 794 725
3 1301 940 465
3 1623 126 803
3 486 1385 738
3 216 1580 990
3 1333 1132 695
3 1625 1217 1624
3 1377 804 516
3 1009 242 768
3 382 1408 1468
3 590 1150 378
3 1038 264 1614
3 1395 791 490
3 1094 994 266
3 1239 1461 674
3 775 477 590
3 1035 1006 499
3 225 877 826
3 1081 472 1304
3 1325 484 824
3 556 1233 1126
3 1497 1516 971
3 711 610 313
3 1284 376 978
3 1511 1236 771
3 1408 142 143
3 1059 867 354
3 557 1513 895
3 979 1537 1193
3 1222 1140 470
3 1074 1103 619
3 1407 350 1203
3 1569 452 714
3 1479 933 218
3 131 1164 130
3 848 355 1260
3 1122 1685 419
3 1090 460 1028
3 1020 208 1400
3 1479 706 933
3 879 878 344
3 1656 990 1580
3 231 1520 859
3 362 1308 761
3 1521 807 733
3 1142 459 1141
3 1522 1020 405
3 1163 1423 555
3 1077 1376 200
3 450 1583 1204
3 1288 557 1221
3 1625 1129 1330
3 1625 211 1217
3 1138 1607 924
3 677 1226 338
3 216 1561 1491
3 357 1138 924
3 1268 1385 486
3 1528 738 1385
3 332 821 1638
3 122 1500 121
3 1516 1497 509
3 440 845 1209
3 1311 974 217
3 1244 1381 207
3 1273 1622 283
3 1480 1160 626
3 529 1556 1555
3 1375 485 1363
3 1626 832 333
3 433 1181 1182
3 954 768 1283
3 947 506 777
3 1504 290 949
3 1406 1062 497
3 1424 680 285
3 688 740 318
3 1418 702 427
3 421 822 1544
3 1386 737 401
3 1482 840 495
3 1540 520 1157
3 1561 216 990
3 614 343 613
3 1116 1405 540
3 67 1487 1425
3 63 872 1679
3 963 759 742
3 1585 685 359
3 1115 582 387
3 1233 822 421
3 38 1640 1399
3 370 1547 1139
3 1074 1073 408
3 1546 1322 370
3 49 51 1392
3 46 1579 45
3 1145 987 298
3 1303 10 698
3 1667 794 104
3 1337 474 1187
3 1543 1314 944
3 1142 880 256
3 1121 723 353
3 881 1398 508
3 700 253 627
3 1079 454 1552
3 1554 680 1300
3 1320 841 539
3 1329 1287 315
3 978 1072 1284
3 1029 652 914
3 1191 611 1098
3 365 740 1633
3 567 1193 1034
3 667 314 1646
3 529 1555 786
3 1254 1072 408
3 839 897 296
3 886 796 344
3 390 996 797
3 1347 1057 1113
3 1491 1562 542
3 1655 921 551
3 1301 861 940
3 1319 806 279
3 1033 127 128
3 1511 1259 301
3 601 1053 1051
3 1410 1079 286
3 1174 948 348
3 948 659 202
3 308 866 1190
3 1074 619 1073
3 1663 645 917
3 1138 767 356
3 1567 358 789
3 372 1192 983
3 1575 1568 562
3 1070 203 602
3 351 914 652
3 408 1421 1074
3 558 958 1475
3 1399 762 384
3 645 594 360
3 950 1462 263
3 552 854 1628
3 818 1684 1606
3 1252 884 462
3 1488 1171 301
3 1522 405 1435
3 1114 1395 606
3 412 1428 1045
3 1240 918 393
3 1379 919 279
3 916 276 883
3 1452 724 734
3 1645 1585 616
3 1170 6 962
3 48 1392 1663
3 1545 1011 521
3 920 1580 216
3 1681 352 1608
3 566 1001 1348
3 889 362 597
3 249 598 966
3 865 362 761
3 519 1008 915
3 469 1327 1295
3 1112 2 755
3 1661 1303 553
3 1310 1338 1636
3 1170 1645 616
3 432 663 1177
3 224 790 579
3 1362 531 931
3 1518 1031 208
3 651 375 1439
3 456 1588 1218
3 1534 1035 636
3 1626 837 630
3 927 1131 422
3 625 852 428
3 1488 301 1259
3 665 453 1171
3 1430 696 1330
3 1621 892 327
3 721 1672 179
3 1427 1521 525
3 974 1531 653
3 327 1539 1621
3 1225 1361 550
3 132 1530 972
3 482 975 1438
3 722 1121 353
3 573 1520 992
3 393 1575 1240
3 1519 344 1186
3 1599 815 1080
3 1186 344 732
3 205 815 1599
3 932 655 278
3 728 1563 1070
3 516 946 1061
3 1344 684 316
3 1377 272 927
3 892 1621 494
3 917 360 656
3 450 1411 1203
3 545 1587 1249
3 985 407 1154
3 1417 491 952
3 1605 584 967
3 343 794 613
3 789 112 113
3 1065 446 981
3 1106 110 781
3 1277 117 1054
3 1018 1496 414
3 1681 900 574
3 992 585 373
3 1373 1324 715
3 1239 674 1117
3 1604 221 670
3 1659 456 1172
3 1017 314 667
3 1058 785 425
3 434 910 698
3 1002 383 1632
3 1474 820 365
3 415 1130 1102
3 938 1615 277
3 247 796 1225
3 1141 459 1299
3 315 1362 1271
3 1199 1420 673
3 1646 207 667
3 1089 1356 303
3 522 1146 1410
3 1670 996 165
3 996 798 1641
3 1035 269 636
3 420 1534 893
3 903 671 1241
3 928 1131 271
3 398 1586 923
3 1532 200 1305
3 1668 125 1623
3 1176 1323 588
3 913 695 1132
3 1502 1151 424
3 753 473 1216
3 1116 695 254
3 174 837 173
3 1419 592 1046
3 555 1423 1422
3 1549 474 1336
3 1118 1314 262
3 1543 944 552
3 1234 1242 461
3 997 496 1434
3 1367 479 1234
3 311 1127 682
3 862 1299 571
3 1682 959 531
3 1632 1548 12
3 1075 209 783
3 1085 1076 485
3 548 1352 820
3 1044 378 879
3 513 1623 803
3 293 1023 1323
3 1450 467 1278
3 686 249 685
3 965 1636 193
3 821 281 1637
3 863 1498 1409
3 845 1350 234
3 940 206 1134
3 910 1145 298
3 987 664 407
3 1183 978 376
3 363 1558 890
3 1464 888 345
3 1651 1110 550
3 17 1172 16
3 256 1249 1142
3 707 1643 243
3 1327 915 1295
3 1271 1362 646
3 1660 19 20
3 12 1548 11
3 962 553 403
3 669 1394 1340
3 1397 631 1342
3 1228 448 830
3 1209 863 533
3 1589 499 1402
3 1648 837 333
3 443 1333 695
3 994 436 1347
3 634 1289 782
3 908 1196 348
3 868 1468 481
3 404 949 1361
3 1291 1092 720
3 1042 310 1572
3 1126 633 289
3 1324 824 484
3 900 1681 1608
3 312 1302 833
3 1528 1529 738
3 1134 833 940
3 231 983 992
3 1654 935 1653
3 798 390 744
3 1393 354 867
3 261 1418 775
3 1016 1500 123
3 598 1104 1101
3 862 1264 1588
3 1644 1438 221
3 1644 411 679
3 14 1632 13
3 13 1632 12
3 535 929 784
3 1313 779 621
3 1392 52 1275
3 53 1676 1275
3 1573 773 1151
3 614 1226 677
3 1468 868 382
3 724 1671 1665
3 1112 838 198
3 1666 4 5
3 97 725 1499
3 104 105 1667
3 1500 787 121
3 127 1033 803
3 1430 1330 473
3 1477 112 789
3 996 1641 164
3 744 385 798
3 867 290 1504
3 642 1021 154
3 1672 1122 178
3 1427 182 183
3 1289 744 782
3 1670 166 1677
3 793 1393 250
3 690 1589 1402
3 972 515 1097
3 135 1270 134
3 1570 762 855
3 53 54 1676
3 1370 758 483
3 500 882 1471
3 1152 398 923
3 1629 682 552
3 1493 506 1486
3 777 506 1487
3 769 241 1327
3 915 1008 351
3 1470 547 1466
3 388 1022 576
3 1051 675 233
3 1424 1221 958
3 1358 1205 609
3 1319 445 1129
3 884 1155 446
3 835 338 1483
3 846 214 1484
3 321 1219 1185
3 878 378 1256
3 269 1455 1473
3 1675 136 1687
3 1369 793 481

CELL_TYPES 3174
5
5
5
5
5
5
5
5
5
5
5
5
5
5
5
5
5
5
5
5
5
5
5
5
5
5
5
5
5
5
5
5
5
5
5
5
5
5
5
5
5
5
5
5
5
5
5
5
5
5
5
5
5
5
5
5
5
5
5
5
5
5
5
5
5
5
5
5
5
5
5
5
5
5
5
5
5
5
5
5
5
5
5
5
5
5
5
5
5
5
5
5
5
5
5
5
5
5
5
5
5
5
5
5
5
5
5
5
5
5
5
5
5
5
5
5
5
5
5
5
5
5
5
5
5
5
5
5
5
5
5
5
5
5
5
5
5
5
5
5
5
5
5
5
5
5
5
5
5
5
5
5
5
5
5
5
5
5
5
5
5
5
5
5
5
5
5
5
5
5
5
5
5
5
5
5
5
5
5
5
5
5
5
5
5
5
5
5
5
5
5
5
5
5
5
5
5
5
5
5
5
5
5
5
5
5
5
5
5
5
5
5
5
5
5
5
5
5
5
5
5
5
5
5
5
5
5
5
5
5
5
5
5
5
5
5
5
5
5
5
5
5
5
5
5
5
5
5
5
5
5
5
5
5
5
5
5
5
5
5
5
5
5
5
5
5
5
5
5
5
5
5
5
5
5
5
5
5
5
5
5
5
5
5
5
5
5
5
5
5
5
5
5
5
5
5
5
5
5
5
5
5
5
5
5
5
5
5
5
5
5
5
5
5
5
5
5
5
5
5
5
5
5
5
5
5
5
5
5
5
5
5
5
5
5
5
5
5
5
5
5
5
5
5
5
5
5
5
5
5
5
5
5
5
5
5
5
5
5
5
5
5
5
5
5
5
5
5
5
5
5
5
5
5
5
5
5
5
5
5
5
5
5
5
5
5
5
5
5
5
5
5
5
5
5
5
5
5
5
5
5
5
5
5
5
5
5
5
5
5
5
5
5
5
5
5
5
5
5
5
5
5
5
5
5
5
5
5
5
5
5
5
5
5
5
5
5
5
5
5
5
5
5
5
5
5
5
5
5
5
5
5
5
5
5
5
5
5
5
5
5
5
5
5
5
5
5
5
5
5
5
5
5
5
5
5
5
5
5
5
5
5
5
5
5
5
5
5
5
5
5
5
5
5
5
5
5
5
5
5
5
5
5
5
5
5
5
5
5
5
5
5
5
5
5
5
5
5
5
5
5
5
5
5
5
5
5
5
5
5
5
5
5
5
5
5
5
5
5
5
5
5
5
5
5
5
5
5
5
5
5
5
5
5
5
5
5
5
5
5
5
5
5
5
5
5
5
5
5
5
5
5
5
5
5
5
5
5
5
5
5
5
5
5
5
5
5
5
5
5
5
5
5
5
5
5
5
5
5
5
5
5
5
5
5
5
5
5
5
5
5
5
5
5
5
5
5
5
5
5
5
5
5
5
5
5
5
5
5
5
5
5
5
5
5
5
5
5
5
5
5
5
5
5
5
5
5
5
5
5
5
5
5
5
5
5
5
5
5
5
5
5
5
5
5
5
5
5
5
5
5
5
5
5
5
5
5
5
5
5
5
5
5
5
5
5
5
5
5
5
5
5
5
5
5
5
5
5
5
5
5
5
5
5
5
5
5
5
5
5
5
5
5
5
5
5
5
5
5
5
5
5
5
5
5
5
5
5
5
5
5
5
5
5
5
5
5
5
5
5
5
5
5
5
5
5
5
5
5
5
5
5
5
5
5
5
5
5
5
5
5
5
5
5
5
5
5
5
5
5
5
5
5
5
5
5
5
5
5
5
5
5
5
5
5
5
5
5
5
5
5
5
5
5
5
5
5
5
5
5
5
5
5
5
5
5
5
5
5
5
5
5
5
5
5
5
5
5
5
5
5
5
5
5
5
5
5
5
5
5
5
5
5
5
5
5
5
5
5
5
5
5
5
5
5
5
5
5
5
5
5
5
5
5
5
5
5
5
5
5
5
5
5
5
5
5
5
5
5
5
5
5
5
5
5
5
5
5
5
5
5
5
5
5
5
5
5
5
5
5
5
5
5
5
5
5
5
5
5
5
5
5
5
5
5
5
5
5
5
5
5
5
5
5
5
5
5
5
5
5
5
5
5
5
5
5
5
5
5
5
5
5
5
5
5
5
5
5
5
5
5
5
5
5
5
5
5
5
5
5
5
5
5
5
5
5
5
5
5
5
5
5
5
5
5
5
5
5
5
5
5
5
5
5
5
5
5
5
5
5
5
5
5
5
5
5
5
5
5
5
5
5
5
5
5
5
5
5
5
5
5
5
5
5
5
5
5
5
5
5
5
5
5
5
5
5
5
5
5
5
5
5
5
5
5
5
5
5
5
5
5
5
5
5
5
5
5
5
5
5
5
5
5
5
5
5
5
5
5
5
5
5
5
5
5
5
5
5
5
5
5
5
5
5
5
5
5
5
5
5
5
5
5
5
5
5
5
5
5
5
5
5
5
5
5
5
5
5
5
5
5
5
5
5
5
5
5
5
5
5
5
5
5
5
5
5
5
5
5
5
5
5
5
5
5
5
5
5
5
5
5
5
5
5
5
5
5
5
5
5
5
5
5
5
5
5
5
5
5
5
5
5
5
5
5
5
5
5
5
5
5
5
5
5
5
5
5
5
5
5
5
5
5
5
5
5
5
5
5
5
5
5
5
5
5
5
5
5
5
5
5
5
5
5
5
5
5
5
5
5
5
5
5
5
5
5
5
5
5
5
5
5
5
5
5
5
5
5
5
5
5
5
5
5
5
5
5
5
5
5
5
5
5
5
5
5
5
5
5
5
5
5
5
5
5
5
5
5
5
5
5
5
5
5
5
5
5
5
5
5
5
5
5
5
5
5
5
5
5
5
5
5
5
5
5
5
5
5
5
5
5
5
5
5
5
5
5
5
5
5
5
5
5
5
5
5
5
5
5
5
5
5
5
5
5
5
5
5
5
5
5
5
5
5
5
5
5
5
5
5
5
5
5
5
5
5
5
5
5
5
5
5
5
5
5
5
5
5
5
5
5
5
5
5
5
5
5
5
5
5
5
5
5
5
5
5
5
5
5
5
5
5
5
5
5
5
5
5
5
5
5
5
5
5
5
5
5
5
5
5
5
5
5
5
5
5
5
5
5
5
5
5
5
5
5
5
5
5
5
5
5
5
5
5
5
5
5
5
5
5
5
5
5
5
5
5
5
5
5
5
5
5
5
5
5
5
5
5
5
5
5
5
5
5
5
5
5
5
5
5
5
5
5
5
5
5
5
5
5
5
5
5
5
5
5
5
5
5
5
5
5
5
5
5
5
5
5
5
5
5
5
5
5
5
5
5
5
5
5
5
5
5
5
5
5
5
5
5
5
5
5
5
5
5
5
5
5
5
5
5
5
5
5
5
5
5
5
5
5
5
5
5
5
5
5
5
5
5
5
5
5
5
5
5
5
5
5
5
5
5
5
5
5
5
5
5
5
5
5
5
5
5
5
5
5
5
5
5
5
5
5
5
5
5
5
5
5
5
5
5
5
5
5
5
5
5
5
5
5
5
5
5
5
5
5
5
5
5
5
5
5
5
5
5
5
5
5
5
5
5
5
5
5
5
5
5
5
5
5
5
5
5
5
5
5
5
5
5
5
5
5
5
5
5
5
5
5
5
5
5
5
5
5
5
5
5
5
5
5
5
5
5
5
5
5
5
5
5
5
5
5
5
5
5
5
5
5
5
5
5
5
5
5
5
5
5
5
5
5
5
5
5
5
5
5
5
5
5
5
5
5
5
5
5
5
5
5
5
5
5
5
5
5
5
5
5
5
5
5
5
5
5
5
5
5
5
5
5
5
5
5
5
5
5
5
5
5
5
5
5
5
5
5
5
5
5
5
5
5
5
5
5
5
5
5
5
5
5
5
5
5
5
5
5
5
5
5
5
5
5
5
5
5
5
5
5
5
5
5
5
5
5
5
5
5
5
5
5
5
5
5
5
5
5
5
5
5
5
5
5
5
5
5
5
5
5
5
5
5
5
5
5
5
5
5
5
5
5
5
5
5
5
5
5
5
5
5
5
5
5
5
5
5
5
5
5
5
5
5
5
5
5
5
5
5
5
5
5
5
5
5
5
5
5
5
5
5
5
5
5
5
5
5
5
5
5
5
5
5
5
5
5
5
5
5
5
5
5
5
5
5
5
5
5
5
5
5
5
5
5
5
5
5
5
5
5
5
5
5
5
5
5
5
5
5
5
5
5
5
5
5
5
5
5
5
5
5
5
5
5
5
5
5
5
5
5
5
5
5
5
5
5
5
5
5
5
5
5
5
5
5
5
5
5
5
5
5
5
5
5
5
5
5
5
5
5
5
5
5
5
5
5
5
5
5
5
5
5
5
5
5
5
5
5
5
5
5
5
5
5
5
5
5
5
5
5
5
5
5
5
5
5
5
5
5
5
5
5
5
5
5
5
5
5
5
5
5
5
5
5
5
5
5
5
5
5
5
5
5
5
5
5
5
5
5
5
5
5
5
5
5
5
5
5
5
5
5
5
5
5
5
5
5
5
5
5
5
5
5
5
5
5
5
5
5
5
5
5
5
5
5
5
5
5
5
5
5
5
5
5
5
5
5
5
5
5
5
5
5
5
5
5
5
5
5
5
5
5
5
5
5
5
5
5
5
5
5
5
5
5
5
5
5
5
5
5
5
5
5
5
5
5
5
5
5
5
5
5
5
5
5
5
5
5
5
5
5
5
5
5
5
5
5
5
5
5
5
5
5
5
5
5
5
5
5
5
5
5
5
5
5
5
5
5
5
5
5
5
5
5
5
5
5
5
5
5
5
5
5
5
5
5
5
5
5
5
5
5
5
5
5
5
5
5
5
5
5
5
5
5
5
5
5
5
5
5
5
5
5
5
5
5
5
5
5
5
5
5
5
5
5
5
5
5
5
5
5
5
5
5
5
5
5
5
5
5
5
5
5
5
5
5
5
5
5
5
5
5
5
5
5
5
5
5
5
5
5
5
5
5
5
5
5
5
5
5
5
5
5
5
5
5
5
5
5
5
5
5
5
5
5
5
5
5
5
5
5
5
5
5
5
5
5
5
5
5
5
5
5
5
5
5
5
5
5
5
5
5
5
5
5
5
5
5
5
5
5
5
5
5
5
5
5
5
5
5
5
5
5
5
5
5
5
5
5
5
5
5
5
5
5
5
5
5
5
5
5
5
5
5
5
5
5
5
5
5
5
5
5
5
5
5
5
5
5
5
5
5
5
5
5
5
5
5
5
5
5
5
5
5
5
5
5
5
5
5
5
5
5
5
5
5
5
5
5
5
5
5
5
5
5
5
5
5
5
5
5
5
5
5
5
5
5
5
5
5
5
5
5
5
5
5
5
5
5
5
5
5
5
5
5
5
5
5
5
5
5
5
5
5
5
5
5
5
5
5
5
5
5
5
5
5
5
5
5
5
5
5
5
5
5
5
5
5
5
5
5
5
5
5
5
5
5
5
5
5
5
5
5
5
5
5
5
5
5
5
5
5
5
5
5
5
5
5
5
5
5
5
5
5
5
5
5
5
5
5
5
5
5
5
5
5
5
5
5
5
5
5
5
5
5
5
5
5
5
5
5
5
5
5
5
5
5
5
5
5
5
5
5
5
5
5
5
5
5
5
5
5
5
5
5
5
5
5
5
5
5
5
5
5
5
5
5
5
5
5
5
5
5
5
5
5
5
5
5
5
5
5
5
5
5
5
5
5
5
5
5
5
5
5
5
5
5
5
5
5
5
5
5
5
5
5
5
5
5
5
5
5
5
5
5
5
5
5
5
5
5
5
5
5
5
5
5
5
5
5
5
5
5
5
5
5
5
5
5
5
5
5
5
5
5
5
5
5
5
5
5
5
5
5
5
5
5
5
5
5
5
5
5
5
5
5
5
5
5
5
5
5
5
5
5
5
5
5
5
5
5
5
5
5
5
5
5
5
5
5
5
5
5
5
5
5
5
5
5
5
5
5
5
5
5
5
5
5
5
5
5
5
5
5
5
5
5
5
5
5
5
5
5
5
5
5
5
5
5
5
5
5
5
5
5
5
5
5
5
5
5
5
5
5
5
5
5
5
5
5
5
5
5
5
5
5
5
5
5
5
5
5
5
5
5
5
5
5
5
5
5
5
5
5
5
5
5
5
5
5
5
5
5
5
5
5
5
5
5
5
5
5
5
5
5
5
5
5
5
5
5
5
5
5
5
5
5
5
5
5
5
5
5
5
5
5
5
5
5
5
5
5
5
5
5
5
5
5
5
5
5
5
5
5
5
5
5
5
5
5
5
5
5
5
5
5
5
5
5
5
5
5
5
5
5
5
5
5
5
5
5
5
5
5
5
5
5
5
5
5
5
5
5
5
5
5
5
5
5
5
5
5
5
5
5
5
5
5
5
5
5
5
5
5
5
5
5
5
5
5
5
5
5
5
5
5
5
5
5
5
5
5
5
5
5
5
5
5
5
5
5
5
5
5
5
5
5
5
5
5
5
5
5
5
5
5
5
5
5
5
5
5
5
5
5
5
5
5
5
5
5
5
5
5
5
5
5
5
5
5
5
5
5
5
5
5
5
5
5
5
5
5
5
5
5
5
5
5
5
5
5
5
5
5
5
5
5
5
5
5
5
5
5
5
5
5
5
5
5
5
5
5
5
5
5
5
5
5
5
5
5
5
5
5
5
5
5
5
5
5
5
5
5
5
5
5
5
5
5
5
5
5
5
5
5
5
5
5
5
5
5
5
5
5
5
5
5
5
5
5
5
5
5
5
5
5
5
5
5
5
5
5
5
5
5
5
5
5
5
5
5
5
5
5
5
5
5
5
5
5
5
5
5
5
5
5
5
5
5
5
5
5
5
5
5
5
5
5
5
5
5
5
5
5
5
5
5
5
5
5
5
5
5
5
5
5
5
5
5
5
5
5
5
5
5
5
5
5
5
5
5
5
5
5
5
5
5
5
5
5
5
5
5
5
5
5
5
5
5
5
5
5
5
5
5
5
5
5
5
5
5
5
5
5
5
5
5
5
5
5
5
5
5
5
5
5
5
5
5
5
5
5
5
5
5
5
5
5
5
5
5
5
5
5
5
5
5
5
5
5
5
5
5
5
5
5
5
5
5
5
5
5
5
5
5
5
5
5
5
5
5
5
5
5
5
5
5
5

